<svg xmlns="http://www.w3.org/2000/svg" viewBox="0 0 1000 640" font-family="Arial, Helvetica, sans-serif">
  <rect width="1000" height="640" fill="#f3efe6" />
  <line x1="200" y1="0" x2="200" y2="640" stroke="#d9d2c0" stroke-width="0.7" />
  <line x1="0" y1="128" x2="1000" y2="128" stroke="#d9d2c0" stroke-width="0.7" />
  <line x1="400" y1="0" x2="400" y2="640" stroke="#d9d2c0" stroke-width="0.7" />
  <line x1="0" y1="256" x2="1000" y2="256" stroke="#d9d2c0" stroke-width="0.7" />
  <line x1="600" y1="0" x2="600" y2="640" stroke="#d9d2c0" stroke-width="0.7" />
  <line x1="0" y1="384" x2="1000" y2="384" stroke="#d9d2c0" stroke-width="0.7" />
  <line x1="800" y1="0" x2="800" y2="640" stroke="#d9d2c0" stroke-width="0.7" />
  <line x1="0" y1="512" x2="1000" y2="512" stroke="#d9d2c0" stroke-width="0.7" />
  <path d="M269.9 409.8 L269.9 421.0 L280.9 421.0 L280.9 432.2 L280.9 443.4 L291.8 443.4 L291.8 454.6 L291.8 465.8 L302.8 465.8 L302.8 477.0 L313.7 477.0 L324.7 477.0 L335.7 477.0 L346.6 477.0 L357.6 477.0 L368.5 477.0 L379.5 477.0 L390.4 477.0 L401.4 477.0 L412.4 477.0 L423.3 477.0 L434.3 477.0 L434.3 465.8 L423.3 465.8 L423.3 454.6 L412.4 454.6 L412.4 443.4 L423.3 443.4 L423.3 432.2 L423.3 421.0 L434.3 421.0 L434.3 409.8 L434.3 398.6 L434.3 387.4 L445.2 387.4 L445.2 376.2 L456.2 376.2 L467.1 376.2 L478.1 376.2 L489.0 376.2 L500.0 376.2 L511.0 376.2 L521.9 376.2 L521.9 387.4 L532.9 387.4 L543.8 387.4 L554.8 387.4 L565.7 387.4 L576.7 387.4 L587.6 387.4 L587.6 376.2 L598.6 376.2 L598.6 387.4 L609.6 387.4 L620.5 387.4 L620.5 398.6 L609.6 398.6 L598.6 398.6 L598.6 409.8 L587.6 409.8 L587.6 421.0 L587.6 432.2 L587.6 443.4 L587.6 454.6 L598.6 454.6 L598.6 465.8 L587.7 465.8 L576.7 465.8 L576.7 477.0 L576.7 488.1 L576.7 499.3 L576.7 510.5 L576.7 521.7 L587.7 521.7 L598.6 521.7 L609.6 521.7 L620.5 521.7 L631.5 521.7 L642.4 521.7 L653.4 521.7 L664.3 521.7 L675.3 521.7 L686.3 521.7 L697.2 521.7 L697.2 510.5 L697.2 499.3 L697.2 488.1 L697.2 476.9 L697.2 465.8 L686.3 465.8 L675.3 465.8 L664.3 465.8 L653.4 465.8 L653.4 454.6 L653.4 443.4 L653.4 432.2 L653.4 421.0 L653.4 409.8 L653.4 398.6 L653.4 387.4 L664.3 387.4 L675.3 387.4 L686.3 387.4 L697.2 387.4 L708.2 387.4 L719.1 387.4 L730.1 387.4 L730.1 376.2 L730.1 365.0 L730.1 353.8 L730.1 342.6 L730.1 331.4 L730.1 320.2 L730.1 309.0 L730.1 297.8 L730.1 286.6 L730.1 275.4 L719.1 275.4 L708.2 275.4 L708.2 264.2 L708.2 253.0 L708.2 241.8 L697.2 241.8 L686.2 241.8 L686.2 230.6 L675.3 230.6 L664.3 230.6 L653.4 230.6 L642.4 230.6 L631.5 230.6 L631.5 219.4 L631.5 208.2 L620.5 208.2 L609.6 208.2 L609.6 219.4 L609.6 230.6 L598.6 230.6 L587.6 230.6 L576.7 230.6 L565.7 230.6 L554.8 230.6 L554.8 219.4 L543.8 219.4 L532.9 219.4 L521.9 219.4 L521.9 208.2 L510.9 208.2 L500.0 208.2 L500.0 197.0 L489.0 197.0 L489.0 185.8 L489.0 174.5 L478.1 174.5 L478.1 163.3 L478.1 152.1 L478.1 140.9 L467.1 140.9 L467.1 129.7 L456.2 129.7 L456.2 118.5 L445.2 118.5 L434.3 118.5 L423.3 118.5 L412.3 118.5 L401.4 118.5 L401.4 129.7 L390.4 129.7 L379.5 129.7 L379.5 140.9 L379.5 152.1 L368.5 152.1 L368.5 163.3 L357.6 163.3 L357.6 174.6 L346.6 174.6 L346.6 185.8 L346.6 197.0 L357.6 197.0 L368.5 197.0 L368.5 208.2 L368.5 219.4 L368.5 230.6 L368.5 241.8 L368.5 253.0 L368.5 264.2 L368.5 275.4 L368.5 286.6 L368.5 297.8 L368.5 309.0 L368.5 320.2 L357.6 320.2 L357.6 331.4 L346.6 331.4 L346.6 342.6 L335.7 342.6 L335.7 353.8 L335.7 365.0 L335.7 376.2 L335.7 387.4 L324.7 387.4 L313.7 387.4 L302.8 387.4 L291.8 387.4 L280.9 387.4 L280.9 398.6 L269.9 398.6 L269.9 409.8 Z M565.7 253.0 L576.7 253.0 L576.7 264.2 L565.7 264.2 L565.7 253.0 Z M642.4 499.3 L653.4 499.3 L653.4 510.5 L642.4 510.5 L642.4 499.3 Z M456.2 320.2 L467.1 320.2 L467.1 331.4 L478.1 331.4 L478.1 342.6 L478.1 353.8 L467.1 353.8 L456.2 353.8 L456.2 342.6 L456.2 331.4 L456.2 320.2 Z" fill="#2f8f83" fill-opacity="0.34" stroke="#0e5b52" stroke-width="1.6" />
  <!-- title strip -->
  <rect x="0" y="0" width="1000" height="54" fill="#173042" />
  <text x="20" y="34" font-size="21" font-weight="bold" fill="#ffffff">Adamera Minerals Corp. — Mineral Claims</text>
  <text x="980" y="34" font-size="15" fill="#cfe3df" text-anchor="end">ADZ</text>
  <!-- scale bar -->
  <g transform="translate(839.2625459524297, 596)">
    <rect x="0" y="0" width="60.36872702378512" height="8" fill="#173042" />
    <rect x="60.36872702378512" y="0" width="60.36872702378512" height="8" fill="#ffffff" stroke="#173042" stroke-width="1" />
    <text x="60.36872702378512" y="-6" font-size="12" fill="#173042" text-anchor="middle">5 km</text>
  </g>
  <!-- north arrow -->
  <g transform="translate(956, 92)">
    <circle r="17" fill="#ffffff" stroke="#b9b09a" />
    <path d="M0 -10 L5 7 L0 3 L-5 7 Z" fill="#173042" />
    <text y="14" font-size="9" font-weight="bold" fill="#173042" text-anchor="middle">N</text>
  </g>
  <!-- watermark -->
  <text x="20" y="620" font-size="13" fill="#7d8b8a">Map by Exploration Maps — explorationmaps.com</text>
</svg>