<svg xmlns="http://www.w3.org/2000/svg" viewBox="0 0 1000 640" font-family="Arial, Helvetica, sans-serif">
  <rect width="1000" height="640" fill="#f3efe6" />
  <line x1="200" y1="0" x2="200" y2="640" stroke="#d9d2c0" stroke-width="0.7" />
  <line x1="0" y1="128" x2="1000" y2="128" stroke="#d9d2c0" stroke-width="0.7" />
  <line x1="400" y1="0" x2="400" y2="640" stroke="#d9d2c0" stroke-width="0.7" />
  <line x1="0" y1="256" x2="1000" y2="256" stroke="#d9d2c0" stroke-width="0.7" />
  <line x1="600" y1="0" x2="600" y2="640" stroke="#d9d2c0" stroke-width="0.7" />
  <line x1="0" y1="384" x2="1000" y2="384" stroke="#d9d2c0" stroke-width="0.7" />
  <line x1="800" y1="0" x2="800" y2="640" stroke="#d9d2c0" stroke-width="0.7" />
  <line x1="0" y1="512" x2="1000" y2="512" stroke="#d9d2c0" stroke-width="0.7" />
  <path d="M304.5 269.8 L304.5 257.2 L292.6 257.2 L292.6 269.8 L304.5 269.8 Z" fill="#2f8f83" fill-opacity="0.34" stroke="#0e5b52" stroke-width="1.6" />
  <path d="M387.4 181.6 L375.6 181.6 L375.6 194.2 L387.4 194.2 L387.4 206.8 L399.3 206.8 L399.3 194.2 L399.3 181.6 L387.4 181.6 Z" fill="#2f8f83" fill-opacity="0.34" stroke="#0e5b52" stroke-width="1.6" />
  <path d="M671.8 282.4 L671.8 295.0 L683.7 295.0 L683.7 282.4 L683.7 269.8 L671.8 269.8 L671.8 282.4 Z" fill="#2f8f83" fill-opacity="0.34" stroke="#0e5b52" stroke-width="1.6" />
  <path d="M695.5 282.4 L695.5 269.8 L683.7 269.8 L683.7 282.4 L695.5 282.4 Z" fill="#2f8f83" fill-opacity="0.34" stroke="#0e5b52" stroke-width="1.6" />
  <path d="M660.0 282.4 L660.0 295.0 L671.8 295.0 L671.8 282.4 L671.8 269.8 L660.0 269.8 L660.0 282.4 Z" fill="#2f8f83" fill-opacity="0.34" stroke="#0e5b52" stroke-width="1.6" />
  <path d="M328.2 181.6 L328.2 194.2 L340.0 194.2 L340.0 206.8 L351.9 206.8 L351.9 219.4 L363.7 219.4 L375.6 219.4 L375.6 232.0 L387.4 232.0 L387.4 244.6 L399.3 244.6 L411.1 244.6 L411.1 232.0 L399.3 232.0 L399.3 219.4 L399.3 206.8 L387.4 206.8 L387.4 194.2 L375.6 194.2 L375.6 181.6 L363.7 181.6 L351.9 181.6 L340.0 181.6 L340.0 168.9 L328.2 168.9 L328.2 181.6 Z" fill="#2f8f83" fill-opacity="0.34" stroke="#0e5b52" stroke-width="1.6" />
  <path d="M517.8 181.6 L517.8 194.2 L517.8 206.8 L529.6 206.8 L541.5 206.8 L541.5 219.4 L553.3 219.4 L565.2 219.4 L577.0 219.4 L577.0 206.8 L577.0 194.2 L577.0 181.5 L577.0 168.9 L565.2 168.9 L553.3 168.9 L541.5 168.9 L529.6 168.9 L517.8 168.9 L517.8 181.6 Z" fill="#2f8f83" fill-opacity="0.34" stroke="#0e5b52" stroke-width="1.6" />
  <path d="M399.3 168.9 L387.4 168.9 L387.4 181.6 L399.3 181.6 L411.1 181.6 L423.0 181.6 L434.8 181.6 L446.7 181.6 L458.5 181.6 L470.4 181.6 L482.2 181.6 L494.1 181.6 L505.9 181.6 L517.8 181.6 L517.8 168.9 L505.9 168.9 L494.1 168.9 L482.2 168.9 L470.4 168.9 L458.5 168.9 L446.7 168.9 L434.8 168.9 L423.0 168.9 L411.1 168.9 L399.3 168.9 Z" fill="#2f8f83" fill-opacity="0.34" stroke="#0e5b52" stroke-width="1.6" />
  <path d="M423.0 194.2 L423.0 206.8 L434.8 206.8 L446.7 206.8 L446.7 194.2 L446.7 181.6 L434.8 181.6 L423.0 181.6 L423.0 194.2 Z" fill="#2f8f83" fill-opacity="0.34" stroke="#0e5b52" stroke-width="1.6" />
  <path d="M399.3 131.1 L399.3 143.7 L399.3 156.3 L411.1 156.3 L411.1 168.9 L423.0 168.9 L434.8 168.9 L434.8 156.3 L423.0 156.3 L423.0 143.7 L411.1 143.7 L411.1 131.1 L411.1 118.5 L399.3 118.5 L399.3 131.1 Z" fill="#2f8f83" fill-opacity="0.34" stroke="#0e5b52" stroke-width="1.6" />
  <path d="M695.5 295.0 L695.5 282.4 L683.7 282.4 L683.7 295.0 L695.5 295.0 Z" fill="#2f8f83" fill-opacity="0.34" stroke="#0e5b52" stroke-width="1.6" />
  <path d="M660.0 282.4 L660.0 269.8 L648.1 269.8 L648.1 282.4 L660.0 282.4 Z" fill="#2f8f83" fill-opacity="0.34" stroke="#0e5b52" stroke-width="1.6" />
  <path d="M683.7 307.6 L683.7 295.0 L671.8 295.0 L671.8 307.6 L683.7 307.6 Z" fill="#2f8f83" fill-opacity="0.34" stroke="#0e5b52" stroke-width="1.6" />
  <path d="M660.0 295.0 L660.0 282.4 L648.1 282.4 L648.1 295.0 L660.0 295.0 Z" fill="#2f8f83" fill-opacity="0.34" stroke="#0e5b52" stroke-width="1.6" />
  <path d="M707.4 295.0 L707.4 282.4 L695.5 282.4 L695.5 295.0 L707.4 295.0 Z" fill="#2f8f83" fill-opacity="0.34" stroke="#0e5b52" stroke-width="1.6" />
  <path d="M707.4 282.4 L707.4 269.8 L695.5 269.8 L695.5 282.4 L707.4 282.4 Z" fill="#2f8f83" fill-opacity="0.34" stroke="#0e5b52" stroke-width="1.6" />
  <path d="M304.5 181.6 L292.6 181.6 L292.6 194.2 L304.5 194.2 L304.5 206.8 L316.3 206.8 L328.2 206.8 L328.2 219.4 L340.0 219.4 L351.9 219.4 L351.9 206.8 L340.0 206.8 L340.0 194.2 L328.2 194.2 L316.3 194.2 L316.3 181.6 L316.3 168.9 L304.5 168.9 L304.5 181.6 Z" fill="#2f8f83" fill-opacity="0.34" stroke="#0e5b52" stroke-width="1.6" />
  <path d="M399.3 244.6 L387.4 244.6 L387.4 257.2 L399.3 257.2 L411.1 257.2 L423.0 257.2 L423.0 244.6 L411.1 244.6 L399.3 244.6 Z" fill="#2f8f83" fill-opacity="0.34" stroke="#0e5b52" stroke-width="1.6" />
  <path d="M387.4 131.1 L387.4 143.7 L387.4 156.3 L387.4 168.9 L399.3 168.9 L411.1 168.9 L411.1 156.3 L399.3 156.3 L399.3 143.7 L399.3 131.1 L399.3 118.5 L387.4 118.5 L387.4 131.1 Z" fill="#2f8f83" fill-opacity="0.34" stroke="#0e5b52" stroke-width="1.6" />
  <path d="M340.0 156.3 L328.2 156.3 L328.2 168.9 L340.0 168.9 L340.0 181.6 L351.9 181.6 L363.7 181.6 L375.6 181.6 L387.4 181.6 L387.4 168.9 L375.6 168.9 L363.7 168.9 L351.9 168.9 L351.9 156.3 L340.0 156.3 Z" fill="#2f8f83" fill-opacity="0.34" stroke="#0e5b52" stroke-width="1.6" />
  <path d="M411.1 131.1 L411.1 143.7 L423.0 143.7 L423.0 156.3 L434.8 156.3 L434.8 168.9 L446.7 168.9 L458.5 168.9 L470.4 168.9 L470.4 156.3 L458.5 156.3 L446.7 156.3 L446.7 143.7 L434.8 143.7 L434.8 131.1 L434.8 118.5 L423.0 118.5 L411.1 118.5 L411.1 131.1 Z" fill="#2f8f83" fill-opacity="0.34" stroke="#0e5b52" stroke-width="1.6" />
  <path d="M399.3 194.2 L399.3 206.8 L399.3 219.4 L399.3 232.0 L411.1 232.0 L411.1 244.6 L423.0 244.6 L423.0 257.2 L411.1 257.2 L399.3 257.2 L399.3 269.8 L411.1 269.8 L423.0 269.8 L434.8 269.8 L434.8 257.2 L434.8 244.6 L434.8 232.0 L446.7 232.0 L446.7 219.4 L446.7 206.8 L434.8 206.8 L423.0 206.8 L423.0 194.2 L423.0 181.6 L411.1 181.6 L399.3 181.6 L399.3 194.2 Z" fill="#2f8f83" fill-opacity="0.34" stroke="#0e5b52" stroke-width="1.6" />
  <path d="M328.2 131.1 L328.2 143.7 L328.2 156.3 L340.0 156.3 L351.9 156.3 L351.9 168.9 L363.7 168.9 L375.6 168.9 L387.4 168.9 L387.4 156.3 L387.4 143.7 L387.4 131.1 L387.4 118.5 L375.6 118.5 L363.7 118.5 L351.9 118.5 L340.0 118.5 L328.2 118.5 L328.2 131.1 Z" fill="#2f8f83" fill-opacity="0.34" stroke="#0e5b52" stroke-width="1.6" />
  <path d="M280.8 257.2 L280.8 269.8 L280.8 282.4 L292.6 282.4 L304.5 282.4 L316.3 282.4 L316.3 269.8 L316.3 257.2 L316.3 244.6 L304.5 244.6 L304.5 232.0 L304.5 219.4 L316.3 219.4 L328.2 219.4 L328.2 206.8 L316.3 206.8 L304.5 206.8 L304.5 194.2 L292.6 194.2 L292.6 206.8 L292.6 219.4 L292.6 232.0 L292.6 244.6 L280.8 244.6 L280.8 257.2 Z M292.6 257.2 L304.5 257.2 L304.5 269.8 L292.6 269.8 L292.6 257.2 Z" fill="#2f8f83" fill-opacity="0.34" stroke="#0e5b52" stroke-width="1.6" />
  <path d="M458.5 143.7 L446.7 143.7 L446.7 156.3 L458.5 156.3 L470.4 156.3 L470.4 168.9 L482.2 168.9 L494.1 168.9 L505.9 168.9 L517.8 168.9 L529.6 168.9 L541.5 168.9 L553.3 168.9 L565.2 168.9 L577.0 168.9 L588.9 168.9 L588.9 156.3 L577.0 156.3 L565.2 156.3 L553.3 156.3 L541.5 156.3 L529.6 156.3 L517.8 156.3 L505.9 156.3 L494.1 156.3 L482.2 156.3 L482.2 143.7 L470.4 143.7 L458.5 143.7 Z" fill="#2f8f83" fill-opacity="0.34" stroke="#0e5b52" stroke-width="1.6" />
  <path d="M577.0 181.5 L577.0 194.2 L577.0 206.8 L577.0 219.4 L588.9 219.4 L588.9 232.0 L600.7 232.0 L600.7 244.6 L600.7 257.2 L612.6 257.2 L612.6 269.8 L624.4 269.8 L624.4 282.4 L636.3 282.4 L636.3 295.0 L648.1 295.0 L648.1 282.4 L648.1 269.8 L660.0 269.8 L660.0 257.2 L660.0 244.6 L660.0 232.0 L648.1 232.0 L648.1 219.4 L636.3 219.4 L636.3 206.8 L624.4 206.8 L624.4 194.2 L612.6 194.2 L612.6 181.5 L600.7 181.5 L600.7 168.9 L588.9 168.9 L577.0 168.9 L577.0 181.5 Z" fill="#2f8f83" fill-opacity="0.34" stroke="#0e5b52" stroke-width="1.6" />
  <path d="M648.1 307.6 L660.0 307.6 L660.0 320.2 L671.8 320.2 L671.8 332.8 L671.8 345.4 L671.8 358.0 L683.7 358.0 L695.5 358.0 L695.5 345.4 L695.5 332.8 L695.5 320.2 L707.4 320.2 L719.2 320.2 L719.2 332.8 L731.1 332.8 L731.1 320.2 L731.1 307.6 L731.1 295.0 L719.2 295.0 L719.2 282.4 L719.2 269.8 L731.1 269.8 L731.0 257.2 L731.0 244.6 L731.0 232.0 L719.2 232.0 L707.4 232.0 L695.5 232.0 L683.7 232.0 L671.8 232.0 L660.0 232.0 L660.0 244.6 L660.0 257.2 L660.0 269.8 L671.8 269.8 L683.7 269.8 L695.5 269.8 L707.4 269.8 L707.4 282.4 L707.4 295.0 L695.5 295.0 L683.7 295.0 L683.7 307.6 L671.8 307.6 L671.8 295.0 L660.0 295.0 L648.1 295.0 L648.1 307.6 Z" fill="#2f8f83" fill-opacity="0.34" stroke="#0e5b52" stroke-width="1.6" />
  <path d="M494.1 194.2 L494.1 206.8 L494.1 219.4 L505.9 219.4 L505.9 232.0 L505.9 244.6 L517.8 244.6 L529.6 244.6 L541.5 244.6 L553.3 244.6 L565.2 244.6 L577.0 244.6 L588.9 244.6 L600.7 244.6 L600.7 232.0 L588.9 232.0 L588.9 219.4 L577.0 219.4 L565.2 219.4 L553.3 219.4 L541.5 219.4 L541.5 206.8 L529.6 206.8 L517.8 206.8 L517.8 194.2 L517.8 181.6 L505.9 181.6 L494.1 181.6 L494.1 194.2 Z" fill="#2f8f83" fill-opacity="0.34" stroke="#0e5b52" stroke-width="1.6" />
  <path d="M660.0 332.8 L660.0 345.4 L660.0 358.0 L671.8 358.0 L671.8 345.4 L671.8 332.8 L671.8 320.2 L660.0 320.2 L660.0 332.8 Z" fill="#2f8f83" fill-opacity="0.34" stroke="#0e5b52" stroke-width="1.6" />
  <path d="M624.4 295.0 L624.4 307.6 L636.3 307.6 L636.3 320.2 L648.1 320.2 L648.1 332.8 L660.0 332.8 L660.0 320.2 L660.0 307.6 L648.1 307.6 L648.1 295.0 L636.3 295.0 L636.3 282.4 L624.4 282.4 L624.4 295.0 Z" fill="#2f8f83" fill-opacity="0.34" stroke="#0e5b52" stroke-width="1.6" />
  <path d="M707.4 320.2 L695.5 320.2 L695.5 332.8 L707.4 332.8 L719.2 332.8 L719.2 320.2 L707.4 320.2 Z" fill="#2f8f83" fill-opacity="0.34" stroke="#0e5b52" stroke-width="1.6" />
  <path d="M719.2 282.4 L719.2 295.0 L731.1 295.0 L731.1 282.4 L731.1 269.8 L719.2 269.8 L719.2 282.4 Z" fill="#2f8f83" fill-opacity="0.34" stroke="#0e5b52" stroke-width="1.6" />
  <path d="M660.0 370.6 L660.0 383.2 L660.0 395.8 L660.0 408.4 L671.8 408.4 L671.8 421.0 L671.8 433.6 L671.8 446.2 L683.7 446.2 L683.7 458.8 L683.7 471.4 L683.7 483.9 L683.7 496.5 L695.5 496.5 L695.5 509.1 L707.4 509.1 L707.4 496.5 L707.4 483.9 L695.5 483.9 L695.5 471.4 L695.5 458.8 L695.5 446.2 L695.5 433.6 L683.7 433.6 L683.7 421.0 L683.7 408.4 L683.7 395.8 L671.8 395.8 L671.8 383.2 L671.8 370.6 L671.8 358.0 L660.0 358.0 L660.0 370.6 Z" fill="#2f8f83" fill-opacity="0.34" stroke="#0e5b52" stroke-width="1.6" />
  <path d="M707.4 509.1 L695.5 509.1 L695.5 521.7 L707.4 521.7 L719.2 521.7 L719.2 509.1 L707.4 509.1 Z" fill="#2f8f83" fill-opacity="0.34" stroke="#0e5b52" stroke-width="1.6" />
  <path d="M328.2 219.4 L316.3 219.4 L316.3 232.0 L328.2 232.0 L340.0 232.0 L351.9 232.0 L363.7 232.0 L363.7 244.6 L375.6 244.6 L375.6 257.2 L375.6 269.8 L387.4 269.8 L387.4 282.4 L399.3 282.4 L411.1 282.4 L411.1 269.8 L399.3 269.8 L399.3 257.2 L387.4 257.2 L387.4 244.6 L387.4 232.0 L375.6 232.0 L375.6 219.4 L363.7 219.4 L351.9 219.4 L340.0 219.4 L328.2 219.4 Z" fill="#2f8f83" fill-opacity="0.34" stroke="#0e5b52" stroke-width="1.6" />
  <path d="M268.9 168.9 L268.9 181.6 L268.9 194.2 L268.9 206.8 L268.9 219.4 L268.9 232.0 L268.9 244.6 L268.9 257.2 L268.9 269.8 L280.8 269.8 L280.8 257.2 L280.8 244.6 L292.6 244.6 L292.6 232.0 L292.6 219.4 L292.6 206.8 L292.6 194.2 L292.6 181.6 L292.6 168.9 L292.6 156.3 L280.8 156.3 L268.9 156.3 L268.9 168.9 Z" fill="#2f8f83" fill-opacity="0.34" stroke="#0e5b52" stroke-width="1.6" />
  <path d="M446.7 194.2 L446.7 206.8 L446.7 219.4 L458.5 219.4 L470.4 219.4 L482.2 219.4 L494.1 219.4 L494.1 206.8 L494.1 194.2 L494.1 181.6 L482.2 181.6 L470.4 181.6 L458.5 181.6 L446.7 181.6 L446.7 194.2 Z" fill="#2f8f83" fill-opacity="0.34" stroke="#0e5b52" stroke-width="1.6" />
  <path d="M600.7 156.3 L588.9 156.3 L588.9 168.9 L600.7 168.9 L600.7 181.5 L612.6 181.5 L612.6 194.2 L624.4 194.2 L624.4 206.8 L636.3 206.8 L636.3 219.4 L648.1 219.4 L648.1 232.0 L660.0 232.0 L671.8 232.0 L683.7 232.0 L695.5 232.0 L695.5 219.4 L683.7 219.4 L671.8 219.4 L660.0 219.4 L660.0 206.8 L648.1 206.8 L648.1 194.2 L636.3 194.2 L636.3 181.5 L624.4 181.5 L624.4 168.9 L612.6 168.9 L612.6 156.3 L600.7 156.3 Z" fill="#2f8f83" fill-opacity="0.34" stroke="#0e5b52" stroke-width="1.6" />
  <path d="M624.4 156.3 L612.6 156.3 L612.6 168.9 L624.4 168.9 L624.4 181.5 L636.3 181.5 L636.3 194.2 L648.1 194.2 L648.1 206.8 L660.0 206.8 L660.0 219.4 L671.8 219.4 L683.7 219.4 L695.5 219.4 L695.5 232.0 L707.4 232.0 L719.2 232.0 L731.0 232.0 L731.0 219.4 L719.2 219.4 L707.4 219.4 L707.4 206.8 L695.5 206.8 L683.7 206.8 L683.7 194.2 L671.8 194.2 L660.0 194.2 L660.0 181.5 L648.1 181.5 L648.1 168.9 L636.3 168.9 L636.3 156.3 L624.4 156.3 Z" fill="#2f8f83" fill-opacity="0.34" stroke="#0e5b52" stroke-width="1.6" />
  <path d="M434.8 131.1 L434.8 143.7 L446.7 143.7 L458.5 143.7 L470.4 143.7 L482.2 143.7 L482.2 156.3 L494.1 156.3 L505.9 156.3 L517.8 156.3 L529.6 156.3 L541.5 156.3 L553.3 156.3 L565.2 156.3 L577.0 156.3 L588.9 156.3 L600.7 156.3 L612.6 156.3 L624.4 156.3 L624.4 143.7 L612.6 143.7 L600.7 143.7 L588.9 143.7 L577.0 143.7 L565.2 143.7 L553.3 143.7 L541.5 143.7 L529.6 143.7 L517.8 143.7 L505.9 143.7 L505.9 131.1 L494.1 131.1 L494.1 118.5 L482.2 118.5 L470.4 118.5 L458.5 118.5 L446.7 118.5 L434.8 118.5 L434.8 131.1 Z" fill="#2f8f83" fill-opacity="0.34" stroke="#0e5b52" stroke-width="1.6" />
  <path d="M411.1 282.4 L411.1 295.0 L423.0 295.0 L434.8 295.0 L446.7 295.0 L458.5 295.0 L458.5 282.4 L458.5 269.8 L458.5 257.2 L458.5 244.6 L470.4 244.6 L482.2 244.6 L494.1 244.6 L505.9 244.6 L505.9 232.0 L505.9 219.4 L494.1 219.4 L482.2 219.4 L470.4 219.4 L458.5 219.4 L446.7 219.4 L446.7 232.0 L434.8 232.0 L434.8 244.6 L434.8 257.2 L434.8 269.8 L423.0 269.8 L411.1 269.8 L411.1 282.4 Z" fill="#2f8f83" fill-opacity="0.34" stroke="#0e5b52" stroke-width="1.6" />
  <path d="M577.0 257.2 L588.9 257.2 L588.9 269.8 L600.7 269.8 L600.7 282.4 L612.6 282.4 L612.6 295.0 L612.6 307.6 L624.4 307.6 L624.4 295.0 L624.4 282.4 L624.4 269.8 L612.6 269.8 L612.6 257.2 L600.7 257.2 L600.7 244.6 L588.9 244.6 L577.0 244.6 L577.0 257.2 Z" fill="#2f8f83" fill-opacity="0.34" stroke="#0e5b52" stroke-width="1.6" />
  <path d="M494.1 118.5 L494.1 131.1 L505.9 131.1 L505.9 143.7 L517.8 143.7 L529.6 143.7 L541.5 143.7 L553.3 143.7 L565.2 143.7 L577.0 143.7 L588.9 143.7 L600.7 143.7 L612.6 143.7 L624.4 143.7 L624.4 156.3 L636.3 156.3 L636.3 168.9 L648.1 168.9 L648.1 181.5 L660.0 181.5 L660.0 194.2 L671.8 194.2 L683.7 194.2 L683.7 181.5 L671.8 181.5 L671.8 168.9 L660.0 168.9 L660.0 156.3 L648.1 156.3 L648.1 143.7 L636.3 143.7 L636.3 131.1 L624.4 131.1 L612.6 131.1 L600.7 131.1 L588.9 131.1 L577.0 131.1 L565.2 131.1 L553.3 131.1 L541.5 131.1 L541.5 118.5 L529.6 118.5 L517.8 118.5 L505.9 118.5 L494.1 118.5 Z" fill="#2f8f83" fill-opacity="0.34" stroke="#0e5b52" stroke-width="1.6" />
  <!-- title strip -->
  <rect x="0" y="0" width="1000" height="54" fill="#173042" />
  <text x="20" y="34" font-size="21" font-weight="bold" fill="#ffffff">Affinity Metals Corp. — Mineral Claims</text>
  <text x="980" y="34" font-size="15" fill="#cfe3df" text-anchor="end">AFF</text>
  <!-- scale bar -->
  <g transform="translate(824.1652061578486, 596)">
    <rect x="0" y="0" width="67.91739692107568" height="8" fill="#173042" />
    <rect x="67.91739692107568" y="0" width="67.91739692107568" height="8" fill="#ffffff" stroke="#173042" stroke-width="1" />
    <text x="67.91739692107568" y="-6" font-size="12" fill="#173042" text-anchor="middle">5 km</text>
  </g>
  <!-- north arrow -->
  <g transform="translate(956, 92)">
    <circle r="17" fill="#ffffff" stroke="#b9b09a" />
    <path d="M0 -10 L5 7 L0 3 L-5 7 Z" fill="#173042" />
    <text y="14" font-size="9" font-weight="bold" fill="#173042" text-anchor="middle">N</text>
  </g>
  <!-- watermark -->
  <text x="20" y="620" font-size="13" fill="#7d8b8a">Map by Exploration Maps — explorationmaps.com</text>
</svg>