<svg xmlns="http://www.w3.org/2000/svg" viewBox="0 0 1000 640" font-family="Arial, Helvetica, sans-serif">
  <rect width="1000" height="640" fill="#f3efe6" />
  <line x1="200" y1="0" x2="200" y2="640" stroke="#d9d2c0" stroke-width="0.7" />
  <line x1="0" y1="128" x2="1000" y2="128" stroke="#d9d2c0" stroke-width="0.7" />
  <line x1="400" y1="0" x2="400" y2="640" stroke="#d9d2c0" stroke-width="0.7" />
  <line x1="0" y1="256" x2="1000" y2="256" stroke="#d9d2c0" stroke-width="0.7" />
  <line x1="600" y1="0" x2="600" y2="640" stroke="#d9d2c0" stroke-width="0.7" />
  <line x1="0" y1="384" x2="1000" y2="384" stroke="#d9d2c0" stroke-width="0.7" />
  <line x1="800" y1="0" x2="800" y2="640" stroke="#d9d2c0" stroke-width="0.7" />
  <line x1="0" y1="512" x2="1000" y2="512" stroke="#d9d2c0" stroke-width="0.7" />
  <path d="M573.4 504.3 L573.8 504.3 L573.8 504.2 L575.2 504.2 L575.2 503.6 L573.8 503.6 L573.8 503.9 L573.2 503.9 L573.2 504.1 L573.0 504.1 L573.0 504.3 L573.1 504.3 L573.2 504.2 L573.4 504.3 Z" fill="#2f8f83" fill-opacity="0.34" stroke="#0e5b52" stroke-width="1.6" />
  <path d="M577.0 503.6 L576.1 503.6 L575.2 503.6 L575.2 503.8 L575.5 503.8 L575.5 504.2 L575.5 504.2 L575.5 504.2 L575.2 504.2 L575.2 504.3 L575.5 504.3 L575.8 504.3 L575.8 504.2 L575.8 504.2 L577.0 504.2 L577.0 504.0 L577.0 503.6 Z" fill="#2f8f83" fill-opacity="0.34" stroke="#0e5b52" stroke-width="1.6" />
  <path d="M576.2 504.3 L576.3 504.3 L576.2 504.2 L576.2 504.2 L576.1 504.3 L576.2 504.3 Z" fill="#2f8f83" fill-opacity="0.34" stroke="#0e5b52" stroke-width="1.6" />
  <path d="M576.8 505.0 L577.2 505.1 L578.4 505.1 L578.4 504.7 L578.3 504.7 L578.4 504.4 L578.4 504.2 L578.1 504.1 L578.1 504.0 L577.0 504.0 L577.0 504.2 L576.9 504.2 L576.9 504.2 L576.8 504.5 L576.8 504.8 L576.7 504.9 L576.8 505.0 Z" fill="#2f8f83" fill-opacity="0.34" stroke="#0e5b52" stroke-width="1.6" />
  <path d="M576.1 503.6 L576.1 503.0 L575.2 503.0 L575.2 503.6 L576.1 503.6 L576.1 503.6 Z" fill="#2f8f83" fill-opacity="0.34" stroke="#0e5b52" stroke-width="1.6" />
  <path d="M575.2 503.0 L575.2 502.8 L573.9 502.8 L573.8 502.8 L573.8 502.9 L573.8 503.6 L575.2 503.6 L575.2 503.0 Z" fill="#2f8f83" fill-opacity="0.34" stroke="#0e5b52" stroke-width="1.6" />
  <path d="M575.5 504.3 L575.2 504.3 L575.2 504.4 L575.4 504.4 L575.4 504.5 L575.5 504.5 L575.5 504.3 Z" fill="#2f8f83" fill-opacity="0.34" stroke="#0e5b52" stroke-width="1.6" />
  <path d="M575.5 504.5 L575.4 504.5 L575.4 504.7 L575.4 504.8 L575.5 504.8 L575.5 504.5 Z" fill="#2f8f83" fill-opacity="0.34" stroke="#0e5b52" stroke-width="1.6" />
  <path d="M575.8 504.2 L575.8 504.3 L575.5 504.3 L575.5 504.5 L575.9 504.5 L575.9 504.2 L575.9 504.2 L575.8 504.2 Z" fill="#2f8f83" fill-opacity="0.34" stroke="#0e5b52" stroke-width="1.6" />
  <path d="M575.9 504.5 L575.5 504.5 L575.5 504.8 L575.8 504.8 L575.9 504.8 L575.9 504.5 Z" fill="#2f8f83" fill-opacity="0.34" stroke="#0e5b52" stroke-width="1.6" />
  <path d="M576.2 504.2 L575.9 504.2 L575.9 504.2 L575.9 504.5 L576.1 504.5 L576.2 504.5 L576.2 504.3 L576.1 504.3 L576.2 504.2 L576.2 504.2 L576.2 504.2 Z" fill="#2f8f83" fill-opacity="0.34" stroke="#0e5b52" stroke-width="1.6" />
  <path d="M576.2 504.8 L576.2 504.5 L576.1 504.5 L575.9 504.5 L575.9 504.8 L576.1 504.8 L576.2 504.8 Z" fill="#2f8f83" fill-opacity="0.34" stroke="#0e5b52" stroke-width="1.6" />
  <path d="M576.6 504.5 L576.6 504.2 L576.2 504.2 L576.2 504.2 L576.3 504.3 L576.2 504.3 L576.2 504.5 L576.6 504.5 Z" fill="#2f8f83" fill-opacity="0.34" stroke="#0e5b52" stroke-width="1.6" />
  <path d="M576.6 504.7 L576.6 504.5 L576.2 504.5 L576.2 504.8 L576.6 504.8 L576.6 504.7 Z" fill="#2f8f83" fill-opacity="0.34" stroke="#0e5b52" stroke-width="1.6" />
  <path d="M576.8 504.5 L576.9 504.2 L576.6 504.2 L576.6 504.5 L576.8 504.5 Z" fill="#2f8f83" fill-opacity="0.34" stroke="#0e5b52" stroke-width="1.6" />
  <path d="M576.8 504.8 L576.8 504.5 L576.6 504.5 L576.6 504.7 L576.6 504.8 L576.8 504.8 Z" fill="#2f8f83" fill-opacity="0.34" stroke="#0e5b52" stroke-width="1.6" />
  <path d="M575.2 504.2 L575.5 504.2 L575.5 504.2 L575.5 504.2 L575.5 503.8 L575.2 503.8 L575.2 504.2 L575.2 504.2 Z" fill="#2f8f83" fill-opacity="0.34" stroke="#0e5b52" stroke-width="1.6" />
  <path d="M575.4 505.9 L573.9 505.9 L573.9 507.4 L575.4 507.4 L575.4 505.9 Z" fill="#2f8f83" fill-opacity="0.34" stroke="#0e5b52" stroke-width="1.6" />
  <path d="M576.8 504.8 L576.6 504.8 L576.6 504.7 L576.6 504.8 L576.2 504.8 L576.1 504.8 L576.1 505.1 L575.8 505.1 L575.8 504.8 L575.5 504.8 L575.4 504.8 L575.4 504.7 L575.4 504.7 L575.4 506.6 L576.8 506.6 L576.8 505.0 L576.7 504.9 L576.8 504.8 Z" fill="#2f8f83" fill-opacity="0.34" stroke="#0e5b52" stroke-width="1.6" />
  <path d="M561.0 497.5 L561.2 497.4 L561.4 497.3 L561.6 497.5 L561.9 497.7 L561.6 498.0 L561.8 498.3 L561.5 498.4 L561.3 498.1 L561.4 498.1 L561.1 498.1 L561.0 497.8 L561.0 497.8 L561.0 498.4 L561.1 498.4 L561.1 498.4 L562.5 498.4 L562.5 496.6 L561.0 496.6 L561.0 497.5 Z" fill="#2f8f83" fill-opacity="0.34" stroke="#0e5b52" stroke-width="1.6" />
  <path d="M563.3 499.5 L563.3 498.4 L563.3 498.4 L562.5 498.4 L562.5 498.4 L562.5 498.4 L561.1 498.4 L561.1 499.5 L563.3 499.5 Z" fill="#2f8f83" fill-opacity="0.34" stroke="#0e5b52" stroke-width="1.6" />
  <path d="M564.0 496.6 L564.0 496.6 L562.5 496.6 L562.5 496.6 L562.5 498.4 L563.3 498.4 L563.3 498.2 L564.0 498.2 L564.0 498.2 L564.0 496.6 Z" fill="#2f8f83" fill-opacity="0.34" stroke="#0e5b52" stroke-width="1.6" />
  <path d="M564.0 498.2 L563.3 498.2 L563.3 498.4 L563.3 498.4 L563.3 499.5 L563.3 500.5 L564.4 500.5 L564.4 498.2 L564.0 498.2 L564.0 498.2 Z" fill="#2f8f83" fill-opacity="0.34" stroke="#0e5b52" stroke-width="1.6" />
  <path d="M565.5 500.5 L565.5 498.2 L565.5 498.2 L564.4 498.2 L564.4 500.5 L564.7 500.5 L565.5 500.5 L565.5 500.5 Z" fill="#2f8f83" fill-opacity="0.34" stroke="#0e5b52" stroke-width="1.6" />
  <path d="M562.5 494.8 L562.5 494.7 L562.5 494.4 L562.5 494.4 L562.1 494.4 L562.1 494.8 L562.5 494.8 Z" fill="#2f8f83" fill-opacity="0.34" stroke="#0e5b52" stroke-width="1.6" />
  <path d="M564.0 503.2 L563.7 503.2 L563.7 503.5 L564.0 503.5 L564.0 503.2 Z" fill="#2f8f83" fill-opacity="0.34" stroke="#0e5b52" stroke-width="1.6" />
  <path d="M563.7 503.5 L563.7 503.2 L563.3 503.2 L563.3 503.5 L563.7 503.5 Z" fill="#2f8f83" fill-opacity="0.34" stroke="#0e5b52" stroke-width="1.6" />
  <path d="M569.5 500.3 L567.6 500.3 L567.6 501.8 L569.5 501.8 L569.5 500.3 Z" fill="#2f8f83" fill-opacity="0.34" stroke="#0e5b52" stroke-width="1.6" />
  <path d="M571.7 502.9 L570.6 502.9 L570.6 502.9 L570.7 502.9 L570.7 504.4 L570.7 504.7 L571.7 504.7 L571.7 504.0 L571.7 502.9 Z" fill="#2f8f83" fill-opacity="0.34" stroke="#0e5b52" stroke-width="1.6" />
  <path d="M570.6 502.9 L570.2 502.9 L568.9 502.9 L568.9 504.4 L570.2 504.4 L570.7 504.4 L570.7 502.9 L570.6 502.9 Z" fill="#2f8f83" fill-opacity="0.34" stroke="#0e5b52" stroke-width="1.6" />
  <path d="M578.4 504.0 L578.4 505.1 L580.6 505.1 L580.6 504.0 L578.4 504.0 Z" fill="#2f8f83" fill-opacity="0.34" stroke="#0e5b52" stroke-width="1.6" />
  <path d="M562.0 501.1 L564.7 501.1 L564.7 500.5 L564.4 500.5 L563.3 500.5 L563.3 500.4 L561.8 500.4 L561.8 500.5 L562.0 500.5 L562.0 501.1 Z" fill="#2f8f83" fill-opacity="0.34" stroke="#0e5b52" stroke-width="1.6" />
  <path d="M564.7 501.1 L562.0 501.1 L562.0 501.8 L564.7 501.8 L564.7 501.1 Z" fill="#2f8f83" fill-opacity="0.34" stroke="#0e5b52" stroke-width="1.6" />
  <path d="M564.7 501.8 L562.0 501.8 L562.0 502.5 L564.7 502.5 L564.7 502.5 L564.7 502.1 L564.7 502.1 L564.7 501.9 L564.7 501.9 L564.7 501.8 Z" fill="#2f8f83" fill-opacity="0.34" stroke="#0e5b52" stroke-width="1.6" />
  <path d="M570.7 504.7 L570.7 505.7 L571.7 505.7 L571.7 504.7 L571.7 504.7 L571.7 504.7 L570.7 504.7 Z" fill="#2f8f83" fill-opacity="0.34" stroke="#0e5b52" stroke-width="1.6" />
  <path d="M571.7 504.7 L571.7 504.7 L571.7 504.7 L571.7 504.0 L571.7 504.0 L571.7 504.7 L571.7 504.7 Z" fill="#2f8f83" fill-opacity="0.34" stroke="#0e5b52" stroke-width="1.6" />
  <path d="M566.9 498.7 L566.9 498.7 L566.9 497.2 L565.5 497.2 L565.5 498.2 L565.5 498.2 L565.5 498.7 L566.9 498.7 Z" fill="#2f8f83" fill-opacity="0.34" stroke="#0e5b52" stroke-width="1.6" />
  <path d="M563.3 500.4 L563.3 499.5 L561.1 499.5 L561.1 500.4 L561.1 500.5 L561.8 500.5 L561.8 500.4 L563.3 500.4 Z" fill="#2f8f83" fill-opacity="0.34" stroke="#0e5b52" stroke-width="1.6" />
  <path d="M578.4 506.5 L578.4 505.1 L576.9 505.1 L576.9 506.6 L577.1 506.6 L577.1 506.5 L578.4 506.5 Z" fill="#2f8f83" fill-opacity="0.34" stroke="#0e5b52" stroke-width="1.6" />
  <path d="M575.0 507.5 L575.0 507.8 L575.0 508.1 L575.0 508.5 L575.3 508.5 L575.6 508.5 L576.0 508.5 L576.3 508.5 L576.6 508.5 L576.9 508.5 L577.2 508.5 L577.6 508.5 L577.9 508.5 L578.2 508.5 L578.5 508.5 L578.8 508.5 L578.8 508.1 L578.8 507.8 L578.8 507.5 L578.8 507.1 L578.8 506.8 L578.8 506.4 L578.5 506.4 L578.2 506.4 L577.9 506.4 L577.6 506.4 L577.2 506.4 L576.9 506.4 L576.9 506.8 L576.6 506.8 L576.3 506.8 L576.0 506.8 L575.6 506.8 L575.3 506.8 L575.3 507.1 L575.0 507.1 L575.0 507.5 Z" fill="#2f8f83" fill-opacity="0.34" stroke="#0e5b52" stroke-width="1.6" />
  <path d="M575.0 508.8 L575.0 509.2 L575.0 509.5 L575.0 509.8 L575.0 510.2 L575.3 510.2 L575.6 510.2 L576.0 510.2 L576.3 510.2 L576.6 510.2 L576.9 510.2 L576.9 510.5 L577.2 510.5 L577.6 510.5 L577.9 510.5 L578.2 510.5 L578.5 510.5 L578.8 510.5 L578.8 510.2 L578.8 509.8 L578.8 509.5 L578.8 509.2 L578.8 508.8 L578.8 508.5 L578.5 508.5 L578.2 508.5 L577.9 508.5 L577.6 508.5 L577.2 508.5 L576.9 508.5 L576.6 508.5 L576.3 508.5 L576.0 508.5 L575.6 508.5 L575.3 508.5 L575.0 508.5 L575.0 508.8 Z" fill="#2f8f83" fill-opacity="0.34" stroke="#0e5b52" stroke-width="1.6" />
  <path d="M567.3 500.0 L567.0 500.0 L567.0 500.3 L567.3 500.3 L567.6 500.3 L567.9 500.3 L568.2 500.3 L568.6 500.3 L568.9 500.3 L569.2 500.3 L569.5 500.3 L569.9 500.3 L570.2 500.3 L570.2 500.0 L569.9 500.0 L569.5 500.0 L569.2 500.0 L568.9 500.0 L568.6 500.0 L568.2 500.0 L567.9 500.0 L567.6 500.0 L567.3 500.0 Z" fill="#2f8f83" fill-opacity="0.34" stroke="#0e5b52" stroke-width="1.6" />
  <path d="M565.4 498.9 L565.4 499.3 L565.4 499.6 L565.4 500.0 L565.4 500.3 L565.4 500.6 L565.7 500.6 L566.0 500.6 L566.0 500.3 L566.3 500.3 L566.6 500.3 L567.0 500.3 L567.0 500.0 L567.0 499.6 L567.0 499.3 L567.0 498.9 L567.0 498.6 L566.6 498.6 L566.3 498.6 L566.0 498.6 L565.7 498.6 L565.4 498.6 L565.4 498.9 Z" fill="#2f8f83" fill-opacity="0.34" stroke="#0e5b52" stroke-width="1.6" />
  <path d="M563.8 496.9 L563.8 497.2 L563.8 497.6 L563.8 497.9 L563.8 498.2 L564.1 498.2 L564.4 498.2 L564.7 498.2 L565.0 498.2 L565.4 498.2 L565.7 498.2 L565.7 497.9 L565.7 497.6 L565.7 497.2 L565.7 496.9 L565.7 496.5 L565.4 496.5 L565.0 496.5 L564.7 496.5 L564.4 496.5 L564.1 496.5 L563.8 496.5 L563.8 496.9 Z" fill="#2f8f83" fill-opacity="0.34" stroke="#0e5b52" stroke-width="1.6" />
  <path d="M562.5 495.2 L562.5 495.5 L562.5 495.9 L562.5 496.2 L562.5 496.5 L562.5 496.9 L562.8 496.9 L563.1 496.9 L563.4 496.9 L563.8 496.9 L563.8 496.5 L564.1 496.5 L564.1 496.2 L564.1 495.9 L564.1 495.5 L564.1 495.2 L564.1 494.8 L564.1 494.5 L563.8 494.5 L563.4 494.5 L563.4 494.8 L563.1 494.8 L562.8 494.8 L562.5 494.8 L562.5 495.2 Z" fill="#2f8f83" fill-opacity="0.34" stroke="#0e5b52" stroke-width="1.6" />
  <path d="M571.8 502.0 L571.8 502.3 L571.8 502.7 L572.1 502.7 L572.4 502.7 L572.7 502.7 L573.1 502.7 L573.4 502.7 L573.7 502.7 L574.0 502.7 L574.0 502.3 L574.0 502.0 L574.0 501.7 L573.7 501.7 L573.4 501.7 L573.1 501.7 L572.7 501.7 L572.4 501.7 L572.1 501.7 L571.8 501.7 L571.8 502.0 Z" fill="#2f8f83" fill-opacity="0.34" stroke="#0e5b52" stroke-width="1.6" />
  <path d="M571.5 501.3 L571.5 501.7 L571.8 501.7 L572.1 501.7 L572.4 501.7 L572.7 501.7 L573.1 501.7 L573.4 501.7 L573.7 501.7 L574.0 501.7 L574.0 501.3 L574.0 501.0 L573.7 501.0 L573.4 501.0 L573.1 501.0 L572.7 501.0 L572.4 501.0 L572.1 501.0 L571.8 501.0 L571.5 501.0 L571.5 501.3 Z" fill="#2f8f83" fill-opacity="0.34" stroke="#0e5b52" stroke-width="1.6" />
  <path d="M574.0 502.0 L574.0 502.3 L574.0 502.7 L574.4 502.7 L574.7 502.7 L575.0 502.7 L575.3 502.7 L575.3 502.3 L575.3 502.0 L575.3 501.7 L575.0 501.7 L574.7 501.7 L574.4 501.7 L574.0 501.7 L574.0 502.0 Z" fill="#2f8f83" fill-opacity="0.34" stroke="#0e5b52" stroke-width="1.6" />
  <path d="M575.3 502.3 L575.3 502.7 L575.6 502.7 L576.0 502.7 L576.3 502.7 L576.6 502.7 L576.9 502.7 L577.2 502.7 L577.6 502.7 L577.9 502.7 L578.2 502.7 L578.5 502.7 L578.8 502.7 L579.2 502.7 L579.2 502.3 L579.2 502.0 L578.8 502.0 L578.5 502.0 L578.2 502.0 L577.9 502.0 L577.6 502.0 L577.2 502.0 L576.9 502.0 L576.6 502.0 L576.3 502.0 L576.0 502.0 L575.6 502.0 L575.3 502.0 L575.3 502.3 Z" fill="#2f8f83" fill-opacity="0.34" stroke="#0e5b52" stroke-width="1.6" />
  <path d="M581.4 507.1 L581.4 507.5 L581.4 507.8 L581.4 508.1 L581.7 508.1 L582.1 508.1 L582.4 508.1 L582.7 508.1 L583.0 508.1 L583.3 508.1 L583.3 507.8 L583.3 507.5 L583.3 507.1 L583.3 506.8 L583.0 506.8 L582.7 506.8 L582.4 506.8 L582.1 506.8 L581.7 506.8 L581.4 506.8 L581.4 507.1 Z" fill="#2f8f83" fill-opacity="0.34" stroke="#0e5b52" stroke-width="1.6" />
  <path d="M578.8 507.8 L578.8 508.1 L578.8 508.5 L578.8 508.8 L579.2 508.8 L579.5 508.8 L579.8 508.8 L580.1 508.8 L580.5 508.8 L580.5 508.5 L580.5 508.1 L580.5 507.8 L580.5 507.5 L580.1 507.5 L579.8 507.5 L579.5 507.5 L579.2 507.5 L578.8 507.5 L578.8 507.8 Z" fill="#2f8f83" fill-opacity="0.34" stroke="#0e5b52" stroke-width="1.6" />
  <path d="M580.5 508.5 L580.5 508.8 L580.5 509.2 L580.8 509.2 L581.1 509.2 L581.4 509.2 L581.7 509.2 L582.1 509.2 L582.4 509.2 L582.7 509.2 L582.7 508.8 L582.7 508.5 L582.7 508.1 L582.4 508.1 L582.1 508.1 L581.7 508.1 L581.4 508.1 L581.1 508.1 L580.8 508.1 L580.5 508.1 L580.5 508.5 Z" fill="#2f8f83" fill-opacity="0.34" stroke="#0e5b52" stroke-width="1.6" />
  <path d="M578.8 501.7 L578.5 501.7 L578.5 502.0 L578.8 502.0 L579.2 502.0 L579.2 502.3 L579.2 502.7 L579.5 502.7 L579.8 502.7 L580.1 502.7 L580.5 502.7 L580.5 502.3 L580.5 502.0 L580.8 502.0 L581.1 502.0 L581.4 502.0 L581.4 502.3 L581.4 502.7 L581.7 502.7 L581.7 502.3 L581.7 502.0 L581.7 501.7 L581.4 501.7 L581.1 501.7 L580.8 501.7 L580.5 501.7 L580.1 501.7 L579.8 501.7 L579.5 501.7 L579.2 501.7 L578.8 501.7 Z" fill="#2f8f83" fill-opacity="0.34" stroke="#0e5b52" stroke-width="1.6" />
  <path d="M578.8 509.2 L578.8 509.5 L578.8 509.8 L578.8 510.2 L579.2 510.2 L579.5 510.2 L579.8 510.2 L580.1 510.2 L580.5 510.2 L580.5 509.8 L580.5 509.5 L580.5 509.2 L580.5 508.8 L580.1 508.8 L579.8 508.8 L579.5 508.8 L579.2 508.8 L578.8 508.8 L578.8 509.2 Z" fill="#2f8f83" fill-opacity="0.34" stroke="#0e5b52" stroke-width="1.6" />
  <path d="M579.2 510.2 L578.8 510.2 L578.8 510.5 L579.2 510.5 L579.5 510.5 L579.8 510.5 L580.1 510.5 L580.5 510.5 L580.8 510.5 L581.1 510.5 L581.4 510.5 L581.7 510.5 L582.1 510.5 L582.1 510.2 L582.1 509.8 L582.1 509.5 L582.1 509.2 L581.7 509.2 L581.4 509.2 L581.1 509.2 L580.8 509.2 L580.5 509.2 L580.5 509.5 L580.5 509.8 L580.5 510.2 L580.1 510.2 L579.8 510.2 L579.5 510.2 L579.2 510.2 Z" fill="#2f8f83" fill-opacity="0.34" stroke="#0e5b52" stroke-width="1.6" />
  <path d="M574.0 508.1 L574.0 508.5 L574.4 508.5 L574.4 508.8 L574.7 508.8 L574.7 508.5 L574.7 508.1 L574.7 507.8 L574.4 507.8 L574.0 507.8 L574.0 508.1 Z" fill="#2f8f83" fill-opacity="0.34" stroke="#0e5b52" stroke-width="1.6" />
  <path d="M573.1 509.2 L573.1 509.5 L573.4 509.5 L573.7 509.5 L574.0 509.5 L574.4 509.5 L574.7 509.5 L575.0 509.5 L575.0 509.2 L575.0 508.8 L575.0 508.5 L574.7 508.5 L574.7 508.8 L574.4 508.8 L574.4 508.5 L574.0 508.5 L574.0 508.8 L573.7 508.8 L573.4 508.8 L573.1 508.8 L573.1 509.2 Z" fill="#2f8f83" fill-opacity="0.34" stroke="#0e5b52" stroke-width="1.6" />
  <path d="M580.1 510.9 L580.1 511.2 L580.5 511.2 L580.8 511.2 L581.1 511.2 L581.4 511.2 L581.7 511.2 L582.1 511.2 L582.4 511.2 L582.7 511.2 L582.7 510.9 L582.7 510.5 L582.7 510.2 L582.7 509.8 L582.7 509.5 L582.7 509.2 L582.4 509.2 L582.1 509.2 L582.1 509.5 L582.1 509.8 L582.1 510.2 L582.1 510.5 L581.7 510.5 L581.4 510.5 L581.1 510.5 L580.8 510.5 L580.5 510.5 L580.1 510.5 L580.1 510.9 Z" fill="#2f8f83" fill-opacity="0.34" stroke="#0e5b52" stroke-width="1.6" />
  <path d="M558.3 499.6 L558.3 500.0 L558.6 500.0 L558.9 500.0 L558.9 500.3 L558.9 500.6 L559.3 500.6 L559.6 500.6 L559.6 500.3 L559.9 500.3 L559.9 500.0 L559.9 499.6 L559.9 499.3 L559.6 499.3 L559.3 499.3 L558.9 499.3 L558.6 499.3 L558.3 499.3 L558.3 499.6 Z" fill="#2f8f83" fill-opacity="0.34" stroke="#0e5b52" stroke-width="1.6" />
  <path d="M559.6 500.6 L559.6 501.0 L559.6 501.3 L559.6 501.7 L559.6 502.0 L559.6 502.3 L559.9 502.3 L559.9 502.0 L559.9 501.7 L559.9 501.3 L559.9 501.0 L559.9 500.6 L559.9 500.3 L559.6 500.3 L559.6 500.6 Z" fill="#2f8f83" fill-opacity="0.34" stroke="#0e5b52" stroke-width="1.6" />
  <path d="M559.9 498.6 L559.9 498.9 L559.9 499.3 L559.9 499.6 L559.9 500.0 L559.9 500.3 L559.9 500.6 L560.2 500.6 L560.5 500.6 L560.9 500.6 L561.2 500.6 L561.2 500.3 L561.2 500.0 L561.2 499.6 L561.2 499.3 L561.2 498.9 L561.2 498.6 L561.2 498.2 L560.9 498.2 L560.5 498.2 L560.2 498.2 L559.9 498.2 L559.9 498.6 Z" fill="#2f8f83" fill-opacity="0.34" stroke="#0e5b52" stroke-width="1.6" />
  <path d="M559.9 503.0 L559.9 503.4 L559.9 503.7 L559.9 504.0 L559.9 504.4 L559.9 504.7 L559.9 505.1 L559.9 505.4 L559.9 505.8 L560.2 505.8 L560.5 505.8 L560.9 505.8 L561.2 505.8 L561.2 505.4 L561.2 505.1 L560.9 505.1 L560.9 504.7 L560.9 504.4 L560.9 504.0 L560.9 503.7 L560.9 503.4 L560.9 503.0 L560.9 502.7 L560.5 502.7 L560.2 502.7 L559.9 502.7 L559.9 503.0 Z" fill="#2f8f83" fill-opacity="0.34" stroke="#0e5b52" stroke-width="1.6" />
  <path d="M559.9 501.0 L559.9 501.3 L559.9 501.7 L559.9 502.0 L559.9 502.3 L559.9 502.7 L560.2 502.7 L560.5 502.7 L560.9 502.7 L560.9 502.3 L560.9 502.0 L560.9 501.7 L560.9 501.3 L560.9 501.0 L560.9 500.6 L560.5 500.6 L560.2 500.6 L559.9 500.6 L559.9 501.0 Z" fill="#2f8f83" fill-opacity="0.34" stroke="#0e5b52" stroke-width="1.6" />
  <path d="M573.1 504.4 L573.1 504.7 L573.1 505.1 L573.1 505.4 L573.1 505.8 L573.1 506.1 L573.4 506.1 L573.7 506.1 L574.0 506.1 L574.4 506.1 L574.7 506.1 L575.0 506.1 L575.3 506.1 L575.3 505.8 L575.3 505.4 L575.3 505.1 L575.3 504.7 L575.3 504.4 L575.3 504.0 L575.0 504.0 L574.7 504.0 L574.4 504.0 L574.0 504.0 L573.7 504.0 L573.4 504.0 L573.1 504.0 L573.1 504.4 Z" fill="#2f8f83" fill-opacity="0.34" stroke="#0e5b52" stroke-width="1.6" />
  <path d="M571.5 503.0 L571.5 503.4 L571.5 503.7 L571.5 504.0 L571.8 504.0 L572.1 504.0 L572.4 504.0 L572.7 504.0 L573.1 504.0 L573.4 504.0 L573.7 504.0 L574.0 504.0 L574.0 503.7 L574.0 503.4 L574.0 503.0 L574.0 502.7 L573.7 502.7 L573.4 502.7 L573.1 502.7 L572.7 502.7 L572.4 502.7 L572.1 502.7 L571.8 502.7 L571.5 502.7 L571.5 503.0 Z" fill="#2f8f83" fill-opacity="0.34" stroke="#0e5b52" stroke-width="1.6" />
  <path d="M576.0 503.0 L576.0 503.4 L576.0 503.7 L576.3 503.7 L576.6 503.7 L576.9 503.7 L576.9 504.0 L577.2 504.0 L577.6 504.0 L577.9 504.0 L578.2 504.0 L578.5 504.0 L578.5 503.7 L578.5 503.4 L578.5 503.0 L578.5 502.7 L578.2 502.7 L577.9 502.7 L577.6 502.7 L577.2 502.7 L576.9 502.7 L576.6 502.7 L576.3 502.7 L576.0 502.7 L576.0 503.0 Z" fill="#2f8f83" fill-opacity="0.34" stroke="#0e5b52" stroke-width="1.6" />
  <path d="M580.5 502.3 L580.5 502.7 L580.5 503.0 L580.5 503.4 L580.5 503.7 L580.5 504.0 L580.5 504.4 L580.5 504.7 L580.5 505.1 L580.5 505.4 L580.8 505.4 L581.1 505.4 L581.4 505.4 L581.4 505.1 L581.4 504.7 L581.4 504.4 L581.4 504.0 L581.4 503.7 L581.4 503.4 L581.4 503.0 L581.4 502.7 L581.4 502.3 L581.4 502.0 L581.1 502.0 L580.8 502.0 L580.5 502.0 L580.5 502.3 Z" fill="#2f8f83" fill-opacity="0.34" stroke="#0e5b52" stroke-width="1.6" />
  <path d="M562.8 494.5 L562.8 494.8 L563.1 494.8 L563.4 494.8 L563.4 494.5 L563.4 494.1 L563.1 494.1 L562.8 494.1 L562.8 494.5 Z" fill="#2f8f83" fill-opacity="0.34" stroke="#0e5b52" stroke-width="1.6" />
  <path d="M579.5 505.4 L579.5 505.8 L579.5 506.1 L579.5 506.4 L579.5 506.8 L579.5 507.1 L579.5 507.5 L579.8 507.5 L580.1 507.5 L580.5 507.5 L580.8 507.5 L580.8 507.1 L580.8 506.8 L580.8 506.4 L580.8 506.1 L580.8 505.8 L580.8 505.4 L580.5 505.4 L580.5 505.1 L580.1 505.1 L579.8 505.1 L579.5 505.1 L579.5 505.4 Z" fill="#2f8f83" fill-opacity="0.34" stroke="#0e5b52" stroke-width="1.6" />
  <path d="M578.2 505.4 L578.2 505.8 L578.2 506.1 L578.2 506.4 L578.5 506.4 L578.8 506.4 L578.8 506.8 L578.8 507.1 L578.8 507.5 L579.2 507.5 L579.5 507.5 L579.5 507.1 L579.5 506.8 L579.5 506.4 L579.5 506.1 L579.5 505.8 L579.5 505.4 L579.5 505.1 L579.2 505.1 L578.8 505.1 L578.5 505.1 L578.2 505.1 L578.2 505.4 Z" fill="#2f8f83" fill-opacity="0.34" stroke="#0e5b52" stroke-width="1.6" />
  <path d="M580.5 507.8 L580.5 508.1 L580.8 508.1 L581.1 508.1 L581.4 508.1 L581.4 507.8 L581.4 507.5 L581.4 507.1 L581.4 506.8 L581.4 506.4 L581.4 506.1 L581.4 505.8 L581.4 505.4 L581.1 505.4 L580.8 505.4 L580.8 505.8 L580.8 506.1 L580.8 506.4 L580.8 506.8 L580.8 507.1 L580.8 507.5 L580.5 507.5 L580.5 507.8 Z" fill="#2f8f83" fill-opacity="0.34" stroke="#0e5b52" stroke-width="1.6" />
  <path d="M581.4 505.4 L581.4 505.8 L581.4 506.1 L581.4 506.4 L581.4 506.8 L581.7 506.8 L582.1 506.8 L582.4 506.8 L582.7 506.8 L583.0 506.8 L583.3 506.8 L583.3 506.4 L583.3 506.1 L583.3 505.8 L583.3 505.4 L583.3 505.1 L583.0 505.1 L582.7 505.1 L582.4 505.1 L582.1 505.1 L581.7 505.1 L581.4 505.1 L581.4 505.4 Z" fill="#2f8f83" fill-opacity="0.34" stroke="#0e5b52" stroke-width="1.6" />
  <path d="M581.4 503.0 L581.4 503.4 L581.4 503.7 L581.4 504.0 L581.4 504.4 L581.4 504.7 L581.4 505.1 L581.7 505.1 L582.1 505.1 L582.4 505.1 L582.7 505.1 L582.7 504.7 L582.7 504.4 L582.7 504.0 L582.7 503.7 L582.7 503.4 L582.7 503.0 L582.7 502.7 L582.4 502.7 L582.1 502.7 L581.7 502.7 L581.4 502.7 L581.4 503.0 Z" fill="#2f8f83" fill-opacity="0.34" stroke="#0e5b52" stroke-width="1.6" />
  <path d="M568.9 506.1 L568.9 506.4 L568.9 506.8 L568.9 507.1 L568.9 507.5 L568.9 507.8 L569.2 507.8 L569.5 507.8 L569.9 507.8 L570.2 507.8 L570.5 507.8 L570.5 507.5 L570.5 507.1 L570.5 506.8 L570.5 506.4 L570.5 506.1 L570.5 505.8 L570.2 505.8 L569.9 505.8 L569.5 505.8 L569.2 505.8 L568.9 505.8 L568.9 506.1 Z" fill="#2f8f83" fill-opacity="0.34" stroke="#0e5b52" stroke-width="1.6" />
  <path d="M578.5 503.0 L578.5 503.4 L578.5 503.7 L578.5 504.0 L578.8 504.0 L579.2 504.0 L579.5 504.0 L579.8 504.0 L580.1 504.0 L580.5 504.0 L580.5 503.7 L580.5 503.4 L580.5 503.0 L580.5 502.7 L580.1 502.7 L579.8 502.7 L579.5 502.7 L579.2 502.7 L578.8 502.7 L578.5 502.7 L578.5 503.0 Z" fill="#2f8f83" fill-opacity="0.34" stroke="#0e5b52" stroke-width="1.6" />
  <path d="M573.1 506.4 L573.1 506.8 L573.1 507.1 L573.1 507.5 L573.1 507.8 L573.1 508.1 L573.1 508.5 L573.1 508.8 L573.4 508.8 L573.7 508.8 L574.0 508.8 L574.0 508.5 L574.0 508.1 L574.0 507.8 L574.0 507.5 L574.0 507.1 L574.0 506.8 L574.0 506.4 L574.0 506.1 L573.7 506.1 L573.4 506.1 L573.1 506.1 L573.1 506.4 Z" fill="#2f8f83" fill-opacity="0.34" stroke="#0e5b52" stroke-width="1.6" />
  <path d="M567.0 504.4 L567.0 504.7 L567.0 505.1 L567.0 505.4 L567.3 505.4 L567.3 505.8 L567.3 506.1 L567.6 506.1 L567.9 506.1 L568.2 506.1 L568.6 506.1 L568.9 506.1 L568.9 505.8 L568.9 505.4 L568.9 505.1 L568.9 504.7 L568.9 504.4 L568.9 504.0 L568.6 504.0 L568.2 504.0 L567.9 504.0 L567.6 504.0 L567.3 504.0 L567.0 504.0 L567.0 504.4 Z" fill="#2f8f83" fill-opacity="0.34" stroke="#0e5b52" stroke-width="1.6" />
  <path d="M570.5 506.4 L570.5 506.8 L570.8 506.8 L571.1 506.8 L571.5 506.8 L571.8 506.8 L572.1 506.8 L572.4 506.8 L572.7 506.8 L573.1 506.8 L573.1 506.4 L573.1 506.1 L573.1 505.8 L572.7 505.8 L572.4 505.8 L572.1 505.8 L571.8 505.8 L571.8 506.1 L571.5 506.1 L571.1 506.1 L570.8 506.1 L570.5 506.1 L570.5 506.4 Z" fill="#2f8f83" fill-opacity="0.34" stroke="#0e5b52" stroke-width="1.6" />
  <path d="M569.2 500.6 L569.2 501.0 L569.2 501.3 L569.2 501.7 L569.2 502.0 L569.5 502.0 L569.9 502.0 L570.2 502.0 L570.5 502.0 L570.8 502.0 L571.1 502.0 L571.5 502.0 L571.5 501.7 L571.5 501.3 L571.5 501.0 L571.5 500.6 L571.5 500.3 L571.1 500.3 L570.8 500.3 L570.5 500.3 L570.2 500.3 L569.9 500.3 L569.5 500.3 L569.2 500.3 L569.2 500.6 Z" fill="#2f8f83" fill-opacity="0.34" stroke="#0e5b52" stroke-width="1.6" />
  <path d="M569.2 502.3 L569.2 502.7 L569.2 503.0 L569.5 503.0 L569.9 503.0 L570.2 503.0 L570.5 503.0 L570.8 503.0 L571.1 503.0 L571.5 503.0 L571.5 502.7 L571.8 502.7 L571.8 502.3 L571.8 502.0 L571.8 501.7 L571.5 501.7 L571.5 502.0 L571.1 502.0 L570.8 502.0 L570.5 502.0 L570.2 502.0 L569.9 502.0 L569.5 502.0 L569.2 502.0 L569.2 502.3 Z" fill="#2f8f83" fill-opacity="0.34" stroke="#0e5b52" stroke-width="1.6" />
  <path d="M560.9 501.0 L560.9 501.3 L560.9 501.7 L560.9 502.0 L560.9 502.3 L560.9 502.7 L561.2 502.7 L561.5 502.7 L561.8 502.7 L562.1 502.7 L562.1 502.3 L562.1 502.0 L562.1 501.7 L562.1 501.3 L562.1 501.0 L562.1 500.6 L562.1 500.3 L561.8 500.3 L561.5 500.3 L561.2 500.3 L561.2 500.6 L560.9 500.6 L560.9 501.0 Z" fill="#2f8f83" fill-opacity="0.34" stroke="#0e5b52" stroke-width="1.6" />
  <path d="M562.5 502.3 L562.1 502.3 L562.1 502.7 L562.5 502.7 L562.8 502.7 L563.1 502.7 L563.1 503.0 L563.1 503.4 L563.4 503.4 L563.8 503.4 L564.1 503.4 L564.4 503.4 L564.7 503.4 L564.7 503.0 L564.7 502.7 L564.7 502.3 L564.4 502.3 L564.1 502.3 L563.8 502.3 L563.4 502.3 L563.1 502.3 L562.8 502.3 L562.5 502.3 Z" fill="#2f8f83" fill-opacity="0.34" stroke="#0e5b52" stroke-width="1.6" />
  <path d="M571.1 505.8 L570.8 505.8 L570.8 506.1 L571.1 506.1 L571.5 506.1 L571.5 505.8 L571.1 505.8 Z" fill="#2f8f83" fill-opacity="0.34" stroke="#0e5b52" stroke-width="1.6" />
  <path d="M568.9 504.4 L568.9 504.7 L568.9 505.1 L568.9 505.4 L568.9 505.8 L569.2 505.8 L569.5 505.8 L569.9 505.8 L570.2 505.8 L570.5 505.8 L570.5 506.1 L570.8 506.1 L570.8 505.8 L570.8 505.4 L570.8 505.1 L570.8 504.7 L570.8 504.4 L570.8 504.0 L570.5 504.0 L570.2 504.0 L569.9 504.0 L569.5 504.0 L569.2 504.0 L568.9 504.0 L568.9 504.4 Z" fill="#2f8f83" fill-opacity="0.34" stroke="#0e5b52" stroke-width="1.6" />
  <path d="M571.5 504.4 L571.5 504.7 L571.5 505.1 L571.5 505.4 L571.5 505.8 L571.5 506.1 L571.8 506.1 L571.8 505.8 L572.1 505.8 L572.4 505.8 L572.7 505.8 L573.1 505.8 L573.1 505.4 L573.1 505.1 L573.1 504.7 L573.1 504.4 L573.1 504.0 L572.7 504.0 L572.4 504.0 L572.1 504.0 L571.8 504.0 L571.5 504.0 L571.5 504.4 Z" fill="#2f8f83" fill-opacity="0.34" stroke="#0e5b52" stroke-width="1.6" />
  <path d="M562.5 494.5 L562.5 494.8 L562.8 494.8 L562.8 494.5 L562.8 494.1 L562.5 494.1 L562.5 494.5 Z" fill="#2f8f83" fill-opacity="0.34" stroke="#0e5b52" stroke-width="1.6" />
  <path d="M575.6 506.4 L575.3 506.4 L575.3 506.8 L575.6 506.8 L576.0 506.8 L576.3 506.8 L576.6 506.8 L576.9 506.8 L576.9 506.4 L576.9 506.1 L576.9 505.8 L576.9 505.4 L576.9 505.1 L577.2 505.1 L577.2 504.7 L576.9 504.7 L576.6 504.7 L576.6 505.1 L576.6 505.4 L576.6 505.8 L576.6 506.1 L576.6 506.4 L576.3 506.4 L576.0 506.4 L575.6 506.4 Z" fill="#2f8f83" fill-opacity="0.34" stroke="#0e5b52" stroke-width="1.6" />
  <path d="M574.4 502.7 L574.0 502.7 L574.0 503.0 L574.4 503.0 L574.7 503.0 L575.0 503.0 L575.3 503.0 L575.6 503.0 L576.0 503.0 L576.0 502.7 L575.6 502.7 L575.3 502.7 L575.0 502.7 L574.7 502.7 L574.4 502.7 Z" fill="#2f8f83" fill-opacity="0.34" stroke="#0e5b52" stroke-width="1.6" />
  <path d="M575.3 504.7 L575.3 505.1 L575.3 505.4 L575.3 505.8 L575.3 506.1 L575.6 506.1 L575.6 505.8 L575.6 505.4 L575.6 505.1 L575.6 504.7 L575.6 504.4 L575.3 504.4 L575.3 504.7 Z" fill="#2f8f83" fill-opacity="0.34" stroke="#0e5b52" stroke-width="1.6" />
  <path d="M577.2 505.4 L577.2 505.1 L576.9 505.1 L576.9 505.4 L577.2 505.4 Z" fill="#2f8f83" fill-opacity="0.34" stroke="#0e5b52" stroke-width="1.6" />
  <path d="M578.5 504.4 L578.5 504.0 L578.2 504.0 L578.2 504.4 L578.5 504.4 Z" fill="#2f8f83" fill-opacity="0.34" stroke="#0e5b52" stroke-width="1.6" />
  <path d="M578.5 504.7 L578.5 504.4 L578.2 504.4 L578.2 504.7 L578.5 504.7 Z" fill="#2f8f83" fill-opacity="0.34" stroke="#0e5b52" stroke-width="1.6" />
  <path d="M559.6 498.6 L559.6 498.9 L559.6 499.3 L559.9 499.3 L559.9 498.9 L559.9 498.6 L559.9 498.2 L559.6 498.2 L559.6 498.6 Z" fill="#2f8f83" fill-opacity="0.34" stroke="#0e5b52" stroke-width="1.6" />
  <path d="M574.0 507.5 L574.0 507.8 L574.4 507.8 L574.7 507.8 L574.7 507.5 L574.7 507.1 L574.4 507.1 L574.0 507.1 L574.0 507.5 Z" fill="#2f8f83" fill-opacity="0.34" stroke="#0e5b52" stroke-width="1.6" />
  <path d="M567.3 502.7 L567.3 503.0 L567.3 503.4 L567.6 503.4 L567.9 503.4 L568.2 503.4 L568.6 503.4 L568.9 503.4 L568.9 503.0 L569.2 503.0 L569.2 502.7 L569.2 502.3 L569.2 502.0 L569.2 501.7 L568.9 501.7 L568.6 501.7 L568.2 501.7 L567.9 501.7 L567.9 502.0 L567.9 502.3 L567.6 502.3 L567.3 502.3 L567.3 502.7 Z" fill="#2f8f83" fill-opacity="0.34" stroke="#0e5b52" stroke-width="1.6" />
  <path d="M567.3 503.7 L567.3 504.0 L567.6 504.0 L567.9 504.0 L568.2 504.0 L568.6 504.0 L568.9 504.0 L568.9 503.7 L568.9 503.4 L568.6 503.4 L568.2 503.4 L567.9 503.4 L567.6 503.4 L567.3 503.4 L567.3 503.7 Z" fill="#2f8f83" fill-opacity="0.34" stroke="#0e5b52" stroke-width="1.6" />
  <path d="M574.7 507.5 L574.7 507.8 L574.7 508.1 L574.7 508.5 L575.0 508.5 L575.0 508.1 L575.0 507.8 L575.0 507.5 L575.0 507.1 L574.7 507.1 L574.7 507.5 Z" fill="#2f8f83" fill-opacity="0.34" stroke="#0e5b52" stroke-width="1.6" />
  <path d="M432.1 149.0 L432.1 149.4 L432.4 149.4 L432.7 149.4 L433.0 149.4 L433.4 149.4 L433.7 149.4 L433.7 149.0 L433.7 148.6 L433.7 148.3 L433.7 147.9 L433.4 147.9 L433.0 147.9 L432.7 147.9 L432.4 147.9 L432.1 147.9 L432.1 148.3 L432.1 148.6 L432.1 149.0 Z" fill="#2f8f83" fill-opacity="0.34" stroke="#0e5b52" stroke-width="1.6" />
  <path d="M575.0 510.9 L575.0 511.2 L575.0 511.5 L575.0 511.9 L574.7 511.9 L574.7 512.2 L575.0 512.2 L575.3 512.2 L575.6 512.2 L576.0 512.2 L576.3 512.2 L576.6 512.2 L576.6 512.6 L576.9 512.6 L577.2 512.6 L577.6 512.6 L577.9 512.6 L578.2 512.6 L578.2 512.2 L578.2 511.9 L578.2 511.5 L578.2 511.2 L578.2 510.9 L577.9 510.9 L577.6 510.9 L577.2 510.9 L576.9 510.9 L576.6 510.9 L576.3 510.9 L576.3 510.5 L576.0 510.5 L575.6 510.5 L575.3 510.5 L575.0 510.5 L575.0 510.9 Z" fill="#2f8f83" fill-opacity="0.34" stroke="#0e5b52" stroke-width="1.6" />
  <path d="M575.0 512.2 L574.7 512.2 L574.7 512.6 L575.0 512.6 L575.0 512.9 L575.0 513.2 L575.3 513.2 L575.6 513.2 L576.0 513.2 L576.3 513.2 L576.6 513.2 L576.9 513.2 L577.2 513.2 L577.6 513.2 L577.9 513.2 L578.2 513.2 L578.5 513.2 L578.8 513.2 L579.2 513.2 L579.2 513.6 L579.2 513.9 L579.5 513.9 L579.8 513.9 L580.1 513.9 L580.5 513.9 L580.5 513.6 L580.5 513.2 L580.8 513.2 L580.8 512.9 L581.1 512.9 L581.4 512.9 L581.4 512.6 L581.7 512.6 L582.1 512.6 L582.4 512.6 L582.7 512.6 L583.0 512.6 L583.0 512.2 L583.0 511.9 L583.0 511.5 L582.7 511.5 L582.7 511.2 L582.4 511.2 L582.1 511.2 L581.7 511.2 L581.4 511.2 L581.1 511.2 L581.1 511.5 L581.1 511.9 L581.1 512.2 L581.1 512.6 L580.8 512.6 L580.5 512.6 L580.1 512.6 L579.8 512.6 L579.5 512.6 L579.2 512.6 L578.8 512.6 L578.5 512.6 L578.2 512.6 L577.9 512.6 L577.6 512.6 L577.2 512.6 L576.9 512.6 L576.6 512.6 L576.6 512.2 L576.3 512.2 L576.0 512.2 L575.6 512.2 L575.3 512.2 L575.0 512.2 Z" fill="#2f8f83" fill-opacity="0.34" stroke="#0e5b52" stroke-width="1.6" />
  <path d="M575.3 510.2 L575.0 510.2 L575.0 510.5 L575.3 510.5 L575.6 510.5 L576.0 510.5 L576.3 510.5 L576.3 510.9 L576.6 510.9 L576.9 510.9 L577.2 510.9 L577.6 510.9 L577.9 510.9 L578.2 510.9 L578.2 511.2 L578.2 511.5 L578.2 511.9 L578.2 512.2 L578.2 512.6 L578.5 512.6 L578.8 512.6 L579.2 512.6 L579.5 512.6 L579.8 512.6 L580.1 512.6 L580.5 512.6 L580.8 512.6 L581.1 512.6 L581.1 512.2 L581.1 511.9 L581.1 511.5 L581.1 511.2 L580.8 511.2 L580.5 511.2 L580.1 511.2 L580.1 510.9 L580.1 510.5 L579.8 510.5 L579.5 510.5 L579.2 510.5 L578.8 510.5 L578.5 510.5 L578.2 510.5 L577.9 510.5 L577.6 510.5 L577.2 510.5 L576.9 510.5 L576.9 510.2 L576.6 510.2 L576.3 510.2 L576.0 510.2 L575.6 510.2 L575.3 510.2 Z" fill="#2f8f83" fill-opacity="0.34" stroke="#0e5b52" stroke-width="1.6" />
  <path d="M572.7 510.9 L573.1 510.9 L573.1 511.2 L573.1 511.5 L573.1 511.9 L573.4 511.9 L573.7 511.9 L574.0 511.9 L574.4 511.9 L574.7 511.9 L575.0 511.9 L575.0 511.5 L575.0 511.2 L575.0 510.9 L575.0 510.5 L574.7 510.5 L574.4 510.5 L574.0 510.5 L573.7 510.5 L573.4 510.5 L573.1 510.5 L572.7 510.5 L572.7 510.9 Z" fill="#2f8f83" fill-opacity="0.34" stroke="#0e5b52" stroke-width="1.6" />
  <path d="M573.1 512.2 L573.1 512.6 L573.1 512.9 L573.4 512.9 L573.4 512.6 L573.7 512.6 L574.0 512.6 L574.0 512.9 L574.0 513.2 L574.4 513.2 L574.7 513.2 L574.7 513.6 L574.7 513.9 L575.0 513.9 L575.3 513.9 L575.6 513.9 L576.0 513.9 L576.0 513.6 L576.0 513.2 L575.6 513.2 L575.3 513.2 L575.0 513.2 L575.0 512.9 L575.0 512.6 L574.7 512.6 L574.7 512.2 L574.7 511.9 L574.4 511.9 L574.0 511.9 L573.7 511.9 L573.4 511.9 L573.1 511.9 L573.1 512.2 Z" fill="#2f8f83" fill-opacity="0.34" stroke="#0e5b52" stroke-width="1.6" />
  <path d="M571.8 512.9 L571.8 513.2 L572.1 513.2 L572.4 513.2 L572.7 513.2 L573.1 513.2 L573.4 513.2 L573.7 513.2 L574.0 513.2 L574.0 512.9 L574.0 512.6 L573.7 512.6 L573.4 512.6 L573.4 512.9 L573.1 512.9 L573.1 512.6 L573.1 512.2 L573.1 511.9 L573.1 511.5 L573.1 511.2 L573.1 510.9 L572.7 510.9 L572.7 510.5 L572.4 510.5 L572.1 510.5 L572.1 510.9 L572.4 510.9 L572.4 511.2 L572.4 511.5 L572.4 511.9 L572.4 512.2 L572.4 512.6 L572.1 512.6 L571.8 512.6 L571.8 512.9 Z" fill="#2f8f83" fill-opacity="0.34" stroke="#0e5b52" stroke-width="1.6" />
  <path d="M561.8 494.1 L561.8 494.5 L561.8 494.8 L562.1 494.8 L562.1 494.5 L562.5 494.5 L562.5 494.1 L562.5 493.8 L562.1 493.8 L561.8 493.8 L561.8 494.1 Z" fill="#2f8f83" fill-opacity="0.34" stroke="#0e5b52" stroke-width="1.6" />
  <path d="M576.0 504.7 L575.6 504.7 L575.6 505.1 L576.0 505.1 L576.3 505.1 L576.3 504.7 L576.0 504.7 Z" fill="#2f8f83" fill-opacity="0.34" stroke="#0e5b52" stroke-width="1.6" />
  <path d="M578.5 499.6 L578.5 500.0 L578.5 500.3 L578.5 500.6 L578.5 501.0 L578.5 501.3 L578.5 501.7 L578.8 501.7 L579.2 501.7 L579.5 501.7 L579.5 501.3 L579.5 501.0 L579.5 500.6 L579.5 500.3 L579.5 500.0 L579.5 499.6 L579.8 499.6 L579.8 499.3 L579.8 498.9 L579.5 498.9 L579.2 498.9 L578.8 498.9 L578.8 499.3 L578.5 499.3 L578.5 499.6 Z" fill="#2f8f83" fill-opacity="0.34" stroke="#0e5b52" stroke-width="1.6" />
  <path d="M576.0 500.6 L576.0 501.0 L576.3 501.0 L576.6 501.0 L576.9 501.0 L577.2 501.0 L577.6 501.0 L577.9 501.0 L578.2 501.0 L578.5 501.0 L578.5 500.6 L578.5 500.3 L578.5 500.0 L578.5 499.6 L578.2 499.6 L577.9 499.6 L577.6 499.6 L577.2 499.6 L576.9 499.6 L576.9 500.0 L576.9 500.3 L576.6 500.3 L576.6 500.6 L576.3 500.6 L576.3 500.3 L576.0 500.3 L576.0 500.6 Z" fill="#2f8f83" fill-opacity="0.34" stroke="#0e5b52" stroke-width="1.6" />
  <path d="M575.3 500.0 L575.6 500.0 L575.6 500.3 L576.0 500.3 L576.3 500.3 L576.3 500.6 L576.6 500.6 L576.6 500.3 L576.9 500.3 L576.9 500.0 L576.9 499.6 L577.2 499.6 L577.6 499.6 L577.9 499.6 L578.2 499.6 L578.5 499.6 L578.5 499.3 L578.8 499.3 L578.8 498.9 L578.5 498.9 L578.2 498.9 L577.9 498.9 L577.6 498.9 L577.2 498.9 L576.9 498.9 L576.6 498.9 L576.3 498.9 L576.3 499.3 L576.3 499.6 L576.0 499.6 L575.6 499.6 L575.3 499.6 L575.3 500.0 Z" fill="#2f8f83" fill-opacity="0.34" stroke="#0e5b52" stroke-width="1.6" />
  <path d="M576.0 513.6 L576.0 513.9 L576.3 513.9 L576.6 513.9 L576.9 513.9 L577.2 513.9 L577.2 513.6 L577.2 513.2 L576.9 513.2 L576.6 513.2 L576.3 513.2 L576.0 513.2 L576.0 513.6 Z" fill="#2f8f83" fill-opacity="0.34" stroke="#0e5b52" stroke-width="1.6" />
  <path d="M576.0 505.1 L575.6 505.1 L575.6 505.4 L576.0 505.4 L576.3 505.4 L576.3 505.1 L576.0 505.1 Z" fill="#2f8f83" fill-opacity="0.34" stroke="#0e5b52" stroke-width="1.6" />
  <path d="M573.1 509.8 L573.1 510.2 L573.1 510.5 L573.4 510.5 L573.7 510.5 L574.0 510.5 L574.4 510.5 L574.7 510.5 L575.0 510.5 L575.0 510.2 L575.0 509.8 L575.0 509.5 L574.7 509.5 L574.4 509.5 L574.0 509.5 L573.7 509.5 L573.4 509.5 L573.1 509.5 L573.1 509.8 Z" fill="#2f8f83" fill-opacity="0.34" stroke="#0e5b52" stroke-width="1.6" />
  <path d="M582.7 508.5 L582.7 508.8 L582.7 509.2 L582.7 509.5 L582.7 509.8 L582.7 510.2 L583.0 510.2 L583.0 509.8 L583.0 509.5 L583.0 509.2 L583.0 508.8 L583.3 508.8 L583.3 508.5 L583.7 508.5 L583.7 508.1 L583.7 507.8 L584.0 507.8 L584.3 507.8 L584.6 507.8 L584.6 507.5 L584.6 507.1 L584.9 507.1 L585.3 507.1 L585.3 506.8 L584.9 506.8 L584.6 506.8 L584.3 506.8 L584.0 506.8 L583.7 506.8 L583.3 506.8 L583.3 507.1 L583.3 507.5 L583.3 507.8 L583.3 508.1 L583.0 508.1 L582.7 508.1 L582.7 508.5 Z" fill="#2f8f83" fill-opacity="0.34" stroke="#0e5b52" stroke-width="1.6" />
  <path d="M572.7 507.1 L572.7 507.5 L572.7 507.8 L572.7 508.1 L572.7 508.5 L572.7 508.8 L572.7 509.2 L572.7 509.5 L572.7 509.8 L572.7 510.2 L572.7 510.5 L573.1 510.5 L573.1 510.2 L573.1 509.8 L573.1 509.5 L573.1 509.2 L573.1 508.8 L573.1 508.5 L573.1 508.1 L573.1 507.8 L573.1 507.5 L573.1 507.1 L573.1 506.8 L572.7 506.8 L572.7 507.1 Z" fill="#2f8f83" fill-opacity="0.34" stroke="#0e5b52" stroke-width="1.6" />
  <path d="M576.6 501.3 L576.6 501.7 L576.6 502.0 L576.9 502.0 L577.2 502.0 L577.6 502.0 L577.9 502.0 L578.2 502.0 L578.5 502.0 L578.5 501.7 L578.5 501.3 L578.5 501.0 L578.2 501.0 L577.9 501.0 L577.6 501.0 L577.2 501.0 L576.9 501.0 L576.6 501.0 L576.6 501.3 Z" fill="#2f8f83" fill-opacity="0.34" stroke="#0e5b52" stroke-width="1.6" />
  <path d="M575.3 514.3 L575.3 514.6 L575.3 514.9 L575.3 515.3 L575.3 515.6 L575.6 515.6 L576.0 515.6 L576.3 515.6 L576.6 515.6 L576.9 515.6 L577.2 515.6 L577.6 515.6 L577.9 515.6 L578.2 515.6 L578.5 515.6 L578.5 515.3 L578.5 514.9 L578.2 514.9 L577.9 514.9 L577.9 514.6 L577.6 514.6 L577.6 514.3 L577.2 514.3 L577.2 513.9 L576.9 513.9 L576.6 513.9 L576.3 513.9 L576.0 513.9 L575.6 513.9 L575.3 513.9 L575.3 514.3 Z" fill="#2f8f83" fill-opacity="0.34" stroke="#0e5b52" stroke-width="1.6" />
  <path d="M574.0 513.6 L574.0 513.9 L574.0 514.3 L574.0 514.6 L574.0 514.9 L574.0 515.3 L574.0 515.6 L574.0 516.0 L574.0 516.3 L574.0 516.6 L574.4 516.6 L574.7 516.6 L575.0 516.6 L575.3 516.6 L575.3 516.3 L575.3 516.0 L575.3 515.6 L575.3 515.3 L575.3 514.9 L575.3 514.6 L575.3 514.3 L575.3 513.9 L575.0 513.9 L574.7 513.9 L574.7 513.6 L574.7 513.2 L574.4 513.2 L574.0 513.2 L574.0 513.6 Z" fill="#2f8f83" fill-opacity="0.34" stroke="#0e5b52" stroke-width="1.6" />
  <path d="M578.5 515.3 L578.5 515.6 L578.5 516.0 L578.5 516.3 L578.5 516.6 L578.5 517.0 L578.8 517.0 L579.2 517.0 L579.2 517.3 L579.5 517.3 L579.5 517.0 L579.5 516.6 L579.5 516.3 L579.5 516.0 L579.5 515.6 L579.2 515.6 L579.2 515.3 L578.8 515.3 L578.8 514.9 L578.5 514.9 L578.5 515.3 Z" fill="#2f8f83" fill-opacity="0.34" stroke="#0e5b52" stroke-width="1.6" />
  <path d="M570.5 508.8 L570.5 509.2 L570.5 509.5 L570.5 509.8 L570.5 510.2 L570.5 510.5 L570.8 510.5 L571.1 510.5 L571.5 510.5 L571.8 510.5 L572.1 510.5 L572.4 510.5 L572.7 510.5 L572.7 510.2 L572.7 509.8 L572.7 509.5 L572.7 509.2 L572.7 508.8 L572.7 508.5 L572.7 508.1 L572.4 508.1 L572.1 508.1 L571.8 508.1 L571.5 508.1 L571.1 508.1 L570.8 508.1 L570.8 508.5 L570.5 508.5 L570.5 508.8 Z" fill="#2f8f83" fill-opacity="0.34" stroke="#0e5b52" stroke-width="1.6" />
  <path d="M570.5 507.1 L570.5 507.5 L570.5 507.8 L570.5 508.1 L570.8 508.1 L571.1 508.1 L571.5 508.1 L571.8 508.1 L572.1 508.1 L572.4 508.1 L572.7 508.1 L572.7 507.8 L572.7 507.5 L572.7 507.1 L572.7 506.8 L572.4 506.8 L572.1 506.8 L571.8 506.8 L571.5 506.8 L571.1 506.8 L570.8 506.8 L570.5 506.8 L570.5 507.1 Z" fill="#2f8f83" fill-opacity="0.34" stroke="#0e5b52" stroke-width="1.6" />
  <path d="M432.4 147.9 L432.7 147.9 L433.0 147.9 L433.4 147.9 L433.7 147.9 L433.7 147.5 L433.7 147.1 L433.4 147.1 L433.0 147.1 L432.7 147.1 L432.4 147.1 L432.4 147.5 L432.1 147.5 L432.1 147.9 L432.4 147.9 Z" fill="#2f8f83" fill-opacity="0.34" stroke="#0e5b52" stroke-width="1.6" />
  <path d="M433.7 150.1 L433.7 150.5 L434.0 150.5 L434.0 150.1 L434.0 149.8 L434.0 149.4 L434.0 149.0 L434.0 148.6 L434.0 148.3 L434.0 147.9 L434.0 147.5 L434.0 147.1 L433.7 147.1 L433.7 147.5 L433.7 147.9 L433.7 148.3 L433.7 148.6 L433.7 149.0 L433.7 149.4 L433.7 149.8 L433.7 150.1 Z" fill="#2f8f83" fill-opacity="0.34" stroke="#0e5b52" stroke-width="1.6" />
  <path d="M431.8 150.1 L431.8 150.5 L432.1 150.5 L432.4 150.5 L432.7 150.5 L433.0 150.5 L433.4 150.5 L433.7 150.5 L433.7 150.1 L433.7 149.8 L433.7 149.4 L433.4 149.4 L433.0 149.4 L432.7 149.4 L432.4 149.4 L432.1 149.4 L432.1 149.0 L432.1 148.6 L432.1 148.3 L432.1 147.9 L431.8 147.9 L431.8 148.3 L431.8 148.6 L431.8 149.0 L431.8 149.4 L431.8 149.8 L431.8 150.1 Z" fill="#2f8f83" fill-opacity="0.34" stroke="#0e5b52" stroke-width="1.6" />
  <path d="M431.4 146.8 L431.4 147.1 L431.8 147.1 L432.1 147.1 L432.4 147.1 L432.7 147.1 L433.0 147.1 L433.4 147.1 L433.7 147.1 L434.0 147.1 L434.0 146.8 L434.0 146.4 L433.7 146.4 L433.4 146.4 L433.0 146.4 L432.7 146.4 L432.4 146.4 L432.1 146.4 L431.8 146.4 L431.4 146.4 L431.4 146.8 Z" fill="#2f8f83" fill-opacity="0.34" stroke="#0e5b52" stroke-width="1.6" />
  <path d="M430.8 149.0 L430.8 149.4 L431.1 149.4 L431.4 149.4 L431.8 149.4 L431.8 149.0 L431.8 148.6 L431.8 148.3 L431.8 147.9 L431.8 147.5 L431.4 147.5 L431.1 147.5 L431.1 147.1 L430.8 147.1 L430.8 147.5 L430.8 147.9 L430.8 148.3 L430.8 148.6 L430.8 149.0 Z" fill="#2f8f83" fill-opacity="0.34" stroke="#0e5b52" stroke-width="1.6" />
  <path d="M434.0 150.1 L434.0 150.5 L434.3 150.5 L434.6 150.5 L434.6 150.1 L434.6 149.8 L434.6 149.4 L434.6 149.0 L434.6 148.6 L434.6 148.3 L434.6 147.9 L434.6 147.5 L434.6 147.1 L434.3 147.1 L434.0 147.1 L434.0 147.5 L434.0 147.9 L434.0 148.3 L434.0 148.6 L434.0 149.0 L434.0 149.4 L434.0 149.8 L434.0 150.1 Z" fill="#2f8f83" fill-opacity="0.34" stroke="#0e5b52" stroke-width="1.6" />
  <path d="M430.5 143.4 L430.5 143.8 L430.8 143.8 L431.1 143.8 L431.1 143.4 L431.1 143.0 L430.8 143.0 L430.5 143.0 L430.5 143.4 Z" fill="#2f8f83" fill-opacity="0.34" stroke="#0e5b52" stroke-width="1.6" />
  <path d="M430.1 143.8 L430.1 144.1 L430.5 144.1 L430.8 144.1 L431.1 144.1 L431.4 144.1 L431.4 143.8 L431.4 143.4 L431.4 143.0 L431.4 142.6 L431.1 142.6 L430.8 142.6 L430.5 142.6 L430.1 142.6 L430.1 143.0 L430.1 143.4 L430.1 143.8 Z M430.5 143.4 L430.5 143.0 L430.8 143.0 L431.1 143.0 L431.1 143.4 L431.1 143.8 L430.8 143.8 L430.5 143.8 L430.5 143.4 Z" fill="#2f8f83" fill-opacity="0.34" stroke="#0e5b52" stroke-width="1.6" />
  <path d="M423.7 133.6 L423.7 134.0 L424.0 134.0 L424.0 133.6 L424.4 133.6 L424.4 134.0 L424.7 134.0 L424.7 133.6 L424.7 133.2 L425.0 133.2 L425.3 133.2 L425.3 132.8 L425.3 132.5 L425.0 132.5 L424.7 132.5 L424.4 132.5 L424.0 132.5 L423.7 132.5 L423.7 132.8 L423.7 133.2 L423.7 133.6 Z" fill="#2f8f83" fill-opacity="0.34" stroke="#0e5b52" stroke-width="1.6" />
  <path d="M423.1 135.1 L423.1 135.5 L423.4 135.5 L423.7 135.5 L424.0 135.5 L424.4 135.5 L424.7 135.5 L425.0 135.5 L425.3 135.5 L425.7 135.5 L426.0 135.5 L426.0 135.1 L426.0 134.7 L426.0 134.3 L426.0 134.0 L426.0 133.6 L426.0 133.2 L426.0 132.8 L426.0 132.5 L426.0 132.1 L425.6 132.1 L425.6 132.5 L425.6 132.8 L425.6 133.2 L425.7 133.6 L425.7 134.0 L425.7 134.3 L425.7 134.7 L425.3 134.7 L425.0 134.7 L424.7 134.7 L424.4 134.7 L424.0 134.7 L423.7 134.7 L423.7 134.3 L423.7 134.0 L423.4 134.0 L423.1 134.0 L423.1 134.3 L423.1 134.7 L423.1 135.1 Z" fill="#2f8f83" fill-opacity="0.34" stroke="#0e5b52" stroke-width="1.6" />
  <path d="M582.7 510.9 L582.7 511.2 L582.7 511.5 L583.0 511.5 L583.0 511.2 L583.0 510.9 L583.0 510.5 L582.7 510.5 L582.7 510.9 Z" fill="#2f8f83" fill-opacity="0.34" stroke="#0e5b52" stroke-width="1.6" />
  <path d="M583.3 509.2 L583.3 508.8 L583.0 508.8 L583.0 509.2 L583.3 509.2 Z" fill="#2f8f83" fill-opacity="0.34" stroke="#0e5b52" stroke-width="1.6" />
  <path d="M583.7 508.8 L583.7 508.5 L583.3 508.5 L583.3 508.8 L583.7 508.8 Z" fill="#2f8f83" fill-opacity="0.34" stroke="#0e5b52" stroke-width="1.6" />
  <path d="M578.2 504.4 L578.2 504.0 L577.9 504.0 L577.9 504.4 L578.2 504.4 Z" fill="#2f8f83" fill-opacity="0.34" stroke="#0e5b52" stroke-width="1.6" />
  <path d="M576.0 504.0 L575.6 504.0 L575.6 504.4 L576.0 504.4 L576.3 504.4 L576.6 504.4 L576.9 504.4 L577.2 504.4 L577.2 504.0 L576.9 504.0 L576.6 504.0 L576.3 504.0 L576.0 504.0 Z" fill="#2f8f83" fill-opacity="0.34" stroke="#0e5b52" stroke-width="1.6" />
  <path d="M576.9 505.8 L576.9 506.1 L576.9 506.4 L577.2 506.4 L577.2 506.1 L577.2 505.8 L577.2 505.4 L576.9 505.4 L576.9 505.8 Z" fill="#2f8f83" fill-opacity="0.34" stroke="#0e5b52" stroke-width="1.6" />
  <path d="M424.0 134.7 L424.4 134.7 L424.7 134.7 L425.0 134.7 L425.3 134.7 L425.7 134.7 L425.7 134.3 L425.3 134.3 L425.0 134.3 L424.7 134.3 L424.4 134.3 L424.0 134.3 L423.7 134.3 L423.7 134.7 L424.0 134.7 Z" fill="#2f8f83" fill-opacity="0.34" stroke="#0e5b52" stroke-width="1.6" />
  <path d="M424.4 132.5 L424.7 132.5 L425.0 132.5 L425.3 132.5 L425.6 132.5 L425.6 132.1 L425.3 132.1 L425.0 132.1 L424.7 132.1 L424.4 132.1 L424.0 132.1 L424.0 132.5 L424.4 132.5 Z" fill="#2f8f83" fill-opacity="0.34" stroke="#0e5b52" stroke-width="1.6" />
  <path d="M423.1 133.6 L423.1 134.0 L423.4 134.0 L423.4 133.6 L423.7 133.6 L423.7 133.2 L423.7 132.8 L423.7 132.5 L424.0 132.5 L424.0 132.1 L423.7 132.1 L423.4 132.1 L423.1 132.1 L423.1 132.5 L423.1 132.8 L423.1 133.2 L423.1 133.6 Z" fill="#2f8f83" fill-opacity="0.34" stroke="#0e5b52" stroke-width="1.6" />
  <path d="M426.0 135.1 L426.0 135.5 L426.3 135.5 L426.6 135.5 L426.6 135.1 L426.6 134.7 L426.6 134.3 L426.6 134.0 L426.6 133.6 L426.6 133.2 L426.6 132.8 L426.6 132.5 L426.6 132.1 L426.3 132.1 L426.0 132.1 L426.0 132.5 L426.0 132.8 L426.0 133.2 L426.0 133.6 L426.0 134.0 L426.0 134.3 L426.0 134.7 L426.0 135.1 Z" fill="#2f8f83" fill-opacity="0.34" stroke="#0e5b52" stroke-width="1.6" />
  <path d="M432.4 150.9 L432.4 151.3 L432.7 151.3 L433.0 151.3 L433.4 151.3 L433.7 151.3 L434.0 151.3 L434.3 151.3 L434.6 151.3 L435.0 151.3 L435.3 151.3 L435.3 150.9 L435.3 150.5 L435.3 150.1 L435.3 149.8 L435.3 149.4 L435.3 149.0 L435.3 148.6 L435.3 148.3 L435.3 147.9 L435.3 147.5 L435.3 147.1 L435.3 146.8 L435.3 146.4 L435.0 146.4 L434.6 146.4 L434.3 146.4 L434.0 146.4 L434.0 146.8 L434.0 147.1 L434.3 147.1 L434.6 147.1 L434.6 147.5 L434.6 147.9 L434.6 148.3 L434.6 148.6 L434.6 149.0 L434.6 149.4 L434.6 149.8 L434.6 150.1 L434.6 150.5 L434.3 150.5 L434.0 150.5 L433.7 150.5 L433.4 150.5 L433.0 150.5 L432.7 150.5 L432.4 150.5 L432.4 150.9 Z" fill="#2f8f83" fill-opacity="0.34" stroke="#0e5b52" stroke-width="1.6" />
  <path d="M428.2 145.6 L428.2 146.0 L428.5 146.0 L428.5 145.6 L428.5 145.3 L428.5 144.9 L428.5 144.5 L428.5 144.1 L428.5 143.8 L428.5 143.4 L428.9 143.4 L429.2 143.4 L429.5 143.4 L429.8 143.4 L430.1 143.4 L430.1 143.0 L430.1 142.6 L430.5 142.6 L430.8 142.6 L431.1 142.6 L431.4 142.6 L431.4 143.0 L431.4 143.4 L431.4 143.8 L431.4 144.1 L431.4 144.5 L431.4 144.9 L431.4 145.3 L431.4 145.6 L431.4 146.0 L431.4 146.4 L431.8 146.4 L432.1 146.4 L432.4 146.4 L432.7 146.4 L433.0 146.4 L433.4 146.4 L433.7 146.4 L434.0 146.4 L434.0 146.0 L434.0 145.6 L434.0 145.3 L434.0 144.9 L434.0 144.5 L434.0 144.1 L433.7 144.1 L433.4 144.1 L433.0 144.1 L432.7 144.1 L432.7 143.8 L432.7 143.4 L432.7 143.0 L432.7 142.6 L432.7 142.3 L432.4 142.3 L432.1 142.3 L431.8 142.3 L431.4 142.3 L431.1 142.3 L430.8 142.3 L430.5 142.3 L430.1 142.3 L429.8 142.3 L429.5 142.3 L429.2 142.3 L428.9 142.3 L428.5 142.3 L428.2 142.3 L428.2 142.6 L428.2 143.0 L428.2 143.4 L428.2 143.8 L428.2 144.1 L428.2 144.5 L428.2 144.9 L428.2 145.3 L428.2 145.6 Z" fill="#2f8f83" fill-opacity="0.34" stroke="#0e5b52" stroke-width="1.6" />
  <path d="M429.5 141.9 L429.5 142.3 L429.8 142.3 L430.1 142.3 L430.5 142.3 L430.8 142.3 L431.1 142.3 L431.4 142.3 L431.4 141.9 L431.4 141.5 L431.4 141.1 L431.4 140.8 L431.1 140.8 L430.8 140.8 L430.5 140.8 L430.1 140.8 L429.8 140.8 L429.5 140.8 L429.5 141.1 L429.5 141.5 L429.5 141.9 Z" fill="#2f8f83" fill-opacity="0.34" stroke="#0e5b52" stroke-width="1.6" />
  <path d="M424.0 142.3 L424.0 142.6 L424.4 142.6 L424.7 142.6 L425.0 142.6 L425.3 142.6 L425.7 142.6 L426.0 142.6 L426.3 142.6 L426.6 142.6 L426.9 142.6 L427.3 142.6 L427.6 142.6 L427.9 142.6 L428.2 142.6 L428.2 142.3 L427.9 142.3 L427.6 142.3 L427.3 142.3 L426.9 142.3 L426.6 142.3 L426.3 142.3 L426.3 141.9 L426.3 141.5 L426.3 141.1 L426.3 140.8 L426.3 140.4 L426.0 140.4 L425.7 140.4 L425.3 140.4 L425.0 140.4 L424.7 140.4 L424.4 140.4 L424.0 140.4 L424.0 140.8 L424.0 141.1 L424.0 141.5 L424.0 141.9 L424.0 142.3 Z" fill="#2f8f83" fill-opacity="0.34" stroke="#0e5b52" stroke-width="1.6" />
  <path d="M427.9 145.6 L427.9 146.0 L428.2 146.0 L428.2 145.6 L428.2 145.3 L428.2 144.9 L428.2 144.5 L428.2 144.1 L428.2 143.8 L428.2 143.4 L428.2 143.0 L428.2 142.6 L427.9 142.6 L427.9 143.0 L427.9 143.4 L427.9 143.8 L427.9 144.1 L427.9 144.5 L427.9 144.9 L427.9 145.3 L427.9 145.6 Z" fill="#2f8f83" fill-opacity="0.34" stroke="#0e5b52" stroke-width="1.6" />
  <path d="M426.3 141.9 L426.3 142.3 L426.6 142.3 L426.6 141.9 L426.6 141.5 L426.6 141.1 L426.6 140.8 L426.6 140.4 L426.3 140.4 L426.3 140.8 L426.3 141.1 L426.3 141.5 L426.3 141.9 Z" fill="#2f8f83" fill-opacity="0.34" stroke="#0e5b52" stroke-width="1.6" />
  <path d="M429.8 140.8 L430.1 140.8 L430.5 140.8 L430.8 140.8 L431.1 140.8 L431.4 140.8 L431.4 140.4 L431.1 140.4 L430.8 140.4 L430.5 140.4 L430.1 140.4 L429.8 140.4 L429.5 140.4 L429.5 140.8 L429.8 140.8 Z" fill="#2f8f83" fill-opacity="0.34" stroke="#0e5b52" stroke-width="1.6" />
  <path d="M426.9 137.7 L426.9 138.1 L427.3 138.1 L427.6 138.1 L427.9 138.1 L428.2 138.1 L428.5 138.1 L428.9 138.1 L429.2 138.1 L429.2 137.7 L429.2 137.4 L429.2 137.0 L429.2 136.6 L429.2 136.2 L429.2 135.9 L428.9 135.9 L428.5 135.9 L428.2 135.9 L427.9 135.9 L427.6 135.9 L427.3 135.9 L426.9 135.9 L426.9 136.2 L426.9 136.6 L426.9 137.0 L426.9 137.4 L426.9 137.7 Z" fill="#2f8f83" fill-opacity="0.34" stroke="#0e5b52" stroke-width="1.6" />
  <path d="M426.0 131.7 L426.0 132.1 L426.3 132.1 L426.6 132.1 L426.6 132.5 L426.6 132.8 L426.6 133.2 L426.6 133.6 L426.6 134.0 L426.9 134.0 L427.3 134.0 L427.6 134.0 L427.9 134.0 L428.2 134.0 L428.5 134.0 L428.5 133.6 L428.5 133.2 L428.5 132.8 L428.5 132.5 L428.5 132.1 L428.5 131.7 L428.5 131.3 L428.5 131.0 L428.5 130.6 L428.5 130.2 L428.5 129.8 L428.5 129.4 L428.5 129.1 L428.2 129.1 L427.9 129.1 L427.6 129.1 L427.3 129.1 L426.9 129.1 L426.6 129.1 L426.3 129.1 L426.0 129.1 L426.0 129.4 L426.0 129.8 L426.0 130.2 L426.0 130.6 L426.0 131.0 L426.0 131.3 L426.0 131.7 Z" fill="#2f8f83" fill-opacity="0.34" stroke="#0e5b52" stroke-width="1.6" />
  <path d="M583.7 508.1 L583.7 508.5 L584.0 508.5 L584.0 508.1 L584.0 507.8 L583.7 507.8 L583.7 508.1 Z" fill="#2f8f83" fill-opacity="0.34" stroke="#0e5b52" stroke-width="1.6" />
  <path d="M584.9 507.5 L584.9 507.1 L584.6 507.1 L584.6 507.5 L584.9 507.5 Z" fill="#2f8f83" fill-opacity="0.34" stroke="#0e5b52" stroke-width="1.6" />
  <path d="M434.3 146.4 L434.6 146.4 L435.0 146.4 L435.3 146.4 L435.3 146.8 L435.3 147.1 L435.3 147.5 L435.3 147.9 L435.3 148.3 L435.3 148.6 L435.3 149.0 L435.3 149.4 L435.3 149.8 L435.6 149.8 L435.9 149.8 L436.2 149.8 L436.6 149.8 L436.9 149.8 L437.2 149.8 L437.5 149.8 L437.5 149.4 L437.5 149.0 L437.5 148.6 L437.5 148.3 L437.5 147.9 L437.5 147.5 L437.5 147.1 L437.5 146.8 L437.5 146.4 L437.2 146.4 L437.2 146.0 L436.9 146.0 L436.6 146.0 L436.6 145.6 L436.2 145.6 L435.9 145.6 L435.6 145.6 L435.3 145.6 L435.0 145.6 L434.6 145.6 L434.6 146.0 L434.3 146.0 L434.0 146.0 L434.0 146.4 L434.3 146.4 Z" fill="#2f8f83" fill-opacity="0.34" stroke="#0e5b52" stroke-width="1.6" />
  <path d="M435.3 155.0 L435.3 155.4 L435.6 155.4 L435.6 155.8 L435.9 155.8 L436.3 155.8 L436.3 156.1 L436.6 156.1 L436.9 156.1 L437.2 156.1 L437.5 156.1 L437.9 156.1 L438.2 156.1 L438.2 155.8 L438.5 155.8 L438.5 155.4 L438.5 155.0 L438.5 154.6 L438.8 154.6 L438.8 154.3 L438.8 153.9 L438.8 153.5 L438.8 153.1 L438.8 152.8 L438.5 152.8 L438.2 152.8 L437.9 152.8 L437.5 152.8 L437.2 152.8 L436.9 152.8 L436.6 152.8 L436.3 152.8 L435.9 152.8 L435.6 152.8 L435.6 152.4 L435.6 152.0 L435.6 151.6 L435.6 151.3 L435.6 150.9 L435.3 150.9 L435.3 151.3 L435.3 151.6 L435.3 152.0 L435.3 152.4 L435.3 152.8 L435.3 153.1 L435.3 153.5 L435.3 153.9 L435.3 154.3 L435.3 154.6 L435.3 155.0 Z" fill="#2f8f83" fill-opacity="0.34" stroke="#0e5b52" stroke-width="1.6" />
  <path d="M435.3 150.5 L435.3 150.9 L435.6 150.9 L435.6 151.3 L435.6 151.6 L435.6 152.0 L435.6 152.4 L435.6 152.8 L435.9 152.8 L436.3 152.8 L436.6 152.8 L436.9 152.8 L437.2 152.8 L437.5 152.8 L437.9 152.8 L438.2 152.8 L438.5 152.8 L438.8 152.8 L439.1 152.8 L439.1 152.4 L439.5 152.4 L439.5 152.0 L439.8 152.0 L439.8 151.6 L439.8 151.3 L439.8 150.9 L439.8 150.5 L439.5 150.5 L439.1 150.5 L438.8 150.5 L438.8 150.1 L438.8 149.8 L438.5 149.8 L438.2 149.8 L437.9 149.8 L437.5 149.8 L437.2 149.8 L436.9 149.8 L436.6 149.8 L436.2 149.8 L435.9 149.8 L435.6 149.8 L435.3 149.8 L435.3 150.1 L435.3 150.5 Z" fill="#2f8f83" fill-opacity="0.34" stroke="#0e5b52" stroke-width="1.6" />
  <path d="M435.6 158.4 L435.6 158.8 L435.9 158.8 L436.3 158.8 L436.6 158.8 L436.9 158.8 L437.2 158.8 L437.5 158.8 L437.9 158.8 L438.2 158.8 L438.5 158.8 L438.5 158.4 L438.5 158.0 L438.5 157.6 L438.5 157.3 L438.5 156.9 L438.5 156.5 L438.5 156.1 L438.5 155.8 L438.2 155.8 L438.2 156.1 L437.9 156.1 L437.5 156.1 L437.2 156.1 L436.9 156.1 L436.6 156.1 L436.3 156.1 L436.3 155.8 L435.9 155.8 L435.6 155.8 L435.6 156.1 L435.6 156.5 L435.6 156.9 L435.6 157.3 L435.6 157.6 L435.6 158.0 L435.6 158.4 Z" fill="#2f8f83" fill-opacity="0.34" stroke="#0e5b52" stroke-width="1.6" />
  <path d="M438.5 158.4 L438.5 158.8 L438.8 158.8 L439.1 158.8 L439.5 158.8 L439.5 158.4 L439.5 158.0 L439.5 157.6 L439.5 157.3 L439.5 156.9 L439.5 156.5 L439.5 156.1 L439.1 156.1 L438.8 156.1 L438.5 156.1 L438.5 156.5 L438.5 156.9 L438.5 157.3 L438.5 157.6 L438.5 158.0 L438.5 158.4 Z" fill="#2f8f83" fill-opacity="0.34" stroke="#0e5b52" stroke-width="1.6" />
  <path d="M439.5 158.4 L439.5 158.8 L439.8 158.8 L440.1 158.8 L440.4 158.8 L440.7 158.8 L441.1 158.8 L441.4 158.8 L441.7 158.8 L441.7 158.4 L441.7 158.0 L441.7 157.6 L441.7 157.3 L441.7 156.9 L441.7 156.5 L441.7 156.1 L441.4 156.1 L441.1 156.1 L440.7 156.1 L440.4 156.1 L440.1 156.1 L439.8 156.1 L439.5 156.1 L439.5 156.5 L439.5 156.9 L439.5 157.3 L439.5 157.6 L439.5 158.0 L439.5 158.4 Z" fill="#2f8f83" fill-opacity="0.34" stroke="#0e5b52" stroke-width="1.6" />
  <path d="M426.9 135.5 L426.9 135.9 L427.3 135.9 L427.3 135.5 L427.3 135.1 L426.9 135.1 L426.6 135.1 L426.6 135.5 L426.9 135.5 Z" fill="#2f8f83" fill-opacity="0.34" stroke="#0e5b52" stroke-width="1.6" />
  <path d="M428.9 140.4 L428.9 140.8 L429.2 140.8 L429.5 140.8 L429.5 140.4 L429.2 140.4 L429.2 140.0 L429.2 139.6 L429.2 139.2 L429.2 138.9 L429.2 138.5 L429.2 138.1 L428.9 138.1 L428.9 138.5 L428.9 138.9 L428.9 139.2 L428.9 139.6 L428.9 140.0 L428.9 140.4 Z" fill="#2f8f83" fill-opacity="0.34" stroke="#0e5b52" stroke-width="1.6" />
  <path d="M438.8 161.8 L438.8 162.1 L439.1 162.1 L439.1 161.8 L439.1 161.4 L439.1 161.0 L439.1 160.6 L439.1 160.3 L439.1 159.9 L439.1 159.5 L439.1 159.1 L439.1 158.8 L438.8 158.8 L438.8 159.1 L438.8 159.5 L438.8 159.9 L438.8 160.3 L438.8 160.6 L438.8 161.0 L438.8 161.4 L438.8 161.8 Z" fill="#2f8f83" fill-opacity="0.34" stroke="#0e5b52" stroke-width="1.6" />
  <path d="M436.9 159.1 L436.9 159.5 L437.2 159.5 L437.5 159.5 L437.9 159.5 L438.2 159.5 L438.5 159.5 L438.8 159.5 L438.8 159.1 L438.8 158.8 L438.5 158.8 L438.2 158.8 L437.9 158.8 L437.5 158.8 L437.2 158.8 L436.9 158.8 L436.9 159.1 Z" fill="#2f8f83" fill-opacity="0.34" stroke="#0e5b52" stroke-width="1.6" />
  <path d="M416.3 133.2 L416.3 133.6 L416.7 133.6 L417.0 133.6 L417.3 133.6 L417.6 133.6 L417.9 133.6 L418.3 133.6 L418.6 133.6 L418.9 133.6 L419.2 133.6 L419.5 133.6 L419.9 133.6 L420.2 133.6 L420.5 133.6 L420.8 133.6 L421.2 133.6 L421.5 133.6 L421.8 133.6 L422.1 133.6 L422.1 133.2 L422.1 132.8 L422.1 132.5 L422.4 132.5 L422.8 132.5 L423.1 132.5 L423.1 132.1 L422.8 132.1 L422.4 132.1 L422.1 132.1 L422.1 131.7 L421.8 131.7 L421.5 131.7 L421.2 131.7 L420.8 131.7 L420.5 131.7 L420.2 131.7 L419.9 131.7 L419.5 131.7 L419.2 131.7 L418.9 131.7 L418.6 131.7 L418.3 131.7 L417.9 131.7 L417.6 131.7 L417.3 131.7 L417.0 131.7 L416.7 131.7 L416.3 131.7 L416.3 132.1 L416.3 132.5 L416.3 132.8 L416.3 133.2 Z" fill="#2f8f83" fill-opacity="0.34" stroke="#0e5b52" stroke-width="1.6" />
  <path d="M416.3 127.6 L416.3 127.9 L416.7 127.9 L417.0 127.9 L417.3 127.9 L417.6 127.9 L417.9 127.9 L418.3 127.9 L418.6 127.9 L418.9 127.9 L419.2 127.9 L419.5 127.9 L419.9 127.9 L420.2 127.9 L420.5 127.9 L420.8 127.9 L421.2 127.9 L421.5 127.9 L421.8 127.9 L422.1 127.9 L422.1 127.6 L422.1 127.2 L422.1 126.8 L422.1 126.4 L422.1 126.0 L421.8 126.0 L421.5 126.0 L421.2 126.0 L420.8 126.0 L420.5 126.0 L420.2 126.0 L419.9 126.0 L419.5 126.0 L419.2 126.0 L418.9 126.0 L418.6 126.0 L418.3 126.0 L417.9 126.0 L417.6 126.0 L417.3 126.0 L417.0 126.0 L416.7 126.0 L416.3 126.0 L416.3 126.4 L416.3 126.8 L416.3 127.2 L416.3 127.6 Z" fill="#2f8f83" fill-opacity="0.34" stroke="#0e5b52" stroke-width="1.6" />
  <path d="M416.3 131.3 L416.3 131.7 L416.7 131.7 L417.0 131.7 L417.3 131.7 L417.6 131.7 L417.9 131.7 L418.3 131.7 L418.6 131.7 L418.9 131.7 L419.2 131.7 L419.5 131.7 L419.9 131.7 L420.2 131.7 L420.5 131.7 L420.8 131.7 L421.2 131.7 L421.5 131.7 L421.8 131.7 L422.1 131.7 L422.1 131.3 L422.1 131.0 L422.1 130.6 L422.1 130.2 L422.1 129.8 L421.8 129.8 L421.5 129.8 L421.2 129.8 L420.8 129.8 L420.5 129.8 L420.2 129.8 L419.9 129.8 L419.5 129.8 L419.2 129.8 L418.9 129.8 L418.6 129.8 L418.3 129.8 L417.9 129.8 L417.6 129.8 L417.3 129.8 L417.0 129.8 L416.7 129.8 L416.3 129.8 L416.3 130.2 L416.3 130.6 L416.3 131.0 L416.3 131.3 Z" fill="#2f8f83" fill-opacity="0.34" stroke="#0e5b52" stroke-width="1.6" />
  <path d="M416.3 125.7 L416.3 126.0 L416.7 126.0 L417.0 126.0 L417.3 126.0 L417.6 126.0 L417.9 126.0 L418.3 126.0 L418.6 126.0 L418.9 126.0 L419.2 126.0 L419.5 126.0 L419.9 126.0 L420.2 126.0 L420.5 126.0 L420.8 126.0 L421.2 126.0 L421.5 126.0 L421.8 126.0 L422.1 126.0 L422.1 125.7 L422.1 125.3 L422.1 124.9 L422.1 124.5 L422.1 124.2 L421.8 124.2 L421.5 124.2 L421.2 124.2 L420.8 124.2 L420.5 124.2 L420.2 124.2 L419.9 124.2 L419.5 124.2 L419.2 124.2 L418.9 124.2 L418.6 124.2 L418.3 124.2 L417.9 124.2 L417.6 124.2 L417.3 124.2 L417.0 124.2 L416.7 124.2 L416.3 124.2 L416.3 124.5 L416.3 124.9 L416.3 125.3 L416.3 125.7 Z" fill="#2f8f83" fill-opacity="0.34" stroke="#0e5b52" stroke-width="1.6" />
  <path d="M416.3 129.4 L416.3 129.8 L416.7 129.8 L417.0 129.8 L417.3 129.8 L417.6 129.8 L417.9 129.8 L418.3 129.8 L418.6 129.8 L418.9 129.8 L419.2 129.8 L419.5 129.8 L419.9 129.8 L420.2 129.8 L420.5 129.8 L420.8 129.8 L421.2 129.8 L421.5 129.8 L421.8 129.8 L422.1 129.8 L422.1 129.4 L422.1 129.1 L422.1 128.7 L422.1 128.3 L422.1 127.9 L421.8 127.9 L421.5 127.9 L421.2 127.9 L420.8 127.9 L420.5 127.9 L420.2 127.9 L419.9 127.9 L419.5 127.9 L419.2 127.9 L418.9 127.9 L418.6 127.9 L418.3 127.9 L417.9 127.9 L417.6 127.9 L417.3 127.9 L417.0 127.9 L416.7 127.9 L416.3 127.9 L416.3 128.3 L416.3 128.7 L416.3 129.1 L416.3 129.4 Z" fill="#2f8f83" fill-opacity="0.34" stroke="#0e5b52" stroke-width="1.6" />
  <path d="M416.3 123.8 L416.3 124.2 L416.7 124.2 L417.0 124.2 L417.3 124.2 L417.6 124.2 L417.9 124.2 L418.3 124.2 L418.6 124.2 L418.9 124.2 L419.2 124.2 L419.5 124.2 L419.9 124.2 L420.2 124.2 L420.5 124.2 L420.8 124.2 L421.2 124.2 L421.5 124.2 L421.8 124.2 L422.1 124.2 L422.1 123.8 L422.1 123.4 L422.1 123.0 L422.1 122.6 L422.1 122.3 L421.8 122.3 L421.5 122.3 L421.2 122.3 L420.8 122.3 L420.5 122.3 L420.2 122.3 L419.9 122.3 L419.5 122.3 L419.2 122.3 L418.9 122.3 L418.6 122.3 L418.3 122.3 L417.9 122.3 L417.6 122.3 L417.3 122.3 L417.0 122.3 L416.7 122.3 L416.3 122.3 L416.3 122.6 L416.3 123.0 L416.3 123.4 L416.3 123.8 Z" fill="#2f8f83" fill-opacity="0.34" stroke="#0e5b52" stroke-width="1.6" />
  <path d="M416.3 121.9 L416.3 122.3 L416.7 122.3 L417.0 122.3 L417.3 122.3 L417.6 122.3 L417.9 122.3 L418.3 122.3 L418.6 122.3 L418.9 122.3 L419.2 122.3 L419.5 122.3 L419.9 122.3 L420.2 122.3 L420.5 122.3 L420.8 122.3 L421.2 122.3 L421.5 122.3 L421.8 122.3 L422.1 122.3 L422.1 121.9 L422.1 121.5 L421.8 121.5 L421.5 121.5 L421.2 121.5 L420.8 121.5 L420.5 121.5 L420.2 121.5 L419.9 121.5 L419.5 121.5 L419.2 121.5 L418.9 121.5 L418.6 121.5 L418.3 121.5 L417.9 121.5 L417.6 121.5 L417.3 121.5 L417.0 121.5 L416.7 121.5 L416.3 121.5 L416.3 121.9 Z" fill="#2f8f83" fill-opacity="0.34" stroke="#0e5b52" stroke-width="1.6" />
  <path d="M426.3 155.4 L426.3 155.8 L426.6 155.8 L426.9 155.8 L427.3 155.8 L427.6 155.8 L427.9 155.8 L427.9 155.4 L427.9 155.0 L427.9 154.7 L427.9 154.3 L427.9 153.9 L427.6 153.9 L427.3 153.9 L427.3 154.3 L426.9 154.3 L426.6 154.3 L426.3 154.3 L426.3 154.7 L426.3 155.0 L426.3 155.4 Z" fill="#2f8f83" fill-opacity="0.34" stroke="#0e5b52" stroke-width="1.6" />
  <path d="M428.2 153.9 L427.9 153.9 L427.9 154.3 L428.2 154.3 L428.2 153.9 Z" fill="#2f8f83" fill-opacity="0.34" stroke="#0e5b52" stroke-width="1.6" />
  <path d="M426.0 155.8 L426.0 156.2 L426.3 156.2 L426.6 156.2 L426.9 156.2 L427.3 156.2 L427.3 155.8 L426.9 155.8 L426.6 155.8 L426.3 155.8 L426.3 155.4 L426.3 155.0 L426.3 154.7 L426.0 154.7 L426.0 155.0 L426.0 155.4 L426.0 155.8 Z" fill="#2f8f83" fill-opacity="0.34" stroke="#0e5b52" stroke-width="1.6" />
  <path d="M427.9 153.5 L427.9 153.9 L428.2 153.9 L428.2 154.3 L428.5 154.3 L428.9 154.3 L428.9 153.9 L429.2 153.9 L429.2 153.5 L429.2 153.2 L429.2 152.8 L429.2 152.4 L428.9 152.4 L428.5 152.4 L428.2 152.4 L427.9 152.4 L427.9 152.8 L427.9 153.2 L427.9 153.5 Z" fill="#2f8f83" fill-opacity="0.34" stroke="#0e5b52" stroke-width="1.6" />
  <path d="M431.8 141.9 L431.4 141.9 L431.4 142.3 L431.8 142.3 L431.8 141.9 Z" fill="#2f8f83" fill-opacity="0.34" stroke="#0e5b52" stroke-width="1.6" />
  <path d="M430.8 147.1 L430.5 147.1 L430.5 147.5 L430.8 147.5 L430.8 147.1 Z" fill="#2f8f83" fill-opacity="0.34" stroke="#0e5b52" stroke-width="1.6" />
  <path d="M421.8 134.0 L421.8 134.3 L422.1 134.3 L422.1 134.0 L422.1 133.6 L421.8 133.6 L421.8 134.0 Z" fill="#2f8f83" fill-opacity="0.34" stroke="#0e5b52" stroke-width="1.6" />
  <path d="M431.8 149.4 L431.4 149.4 L431.4 149.8 L431.8 149.8 L431.8 149.4 Z" fill="#2f8f83" fill-opacity="0.34" stroke="#0e5b52" stroke-width="1.6" />
  <path d="M426.6 128.7 L426.3 128.7 L426.3 129.1 L426.6 129.1 L426.6 128.7 Z" fill="#2f8f83" fill-opacity="0.34" stroke="#0e5b52" stroke-width="1.6" />
  <path d="M435.3 153.1 L435.0 153.1 L435.0 153.5 L435.3 153.5 L435.3 153.1 Z" fill="#2f8f83" fill-opacity="0.34" stroke="#0e5b52" stroke-width="1.6" />
  <path d="M433.0 143.8 L432.7 143.8 L432.7 144.1 L433.0 144.1 L433.0 143.8 Z" fill="#2f8f83" fill-opacity="0.34" stroke="#0e5b52" stroke-width="1.6" />
  <path d="M435.6 155.4 L435.3 155.4 L435.3 155.8 L435.6 155.8 L435.6 155.4 Z" fill="#2f8f83" fill-opacity="0.34" stroke="#0e5b52" stroke-width="1.6" />
  <path d="M431.1 158.8 L431.1 159.1 L431.4 159.1 L431.4 159.5 L431.8 159.5 L432.1 159.5 L432.1 159.1 L432.4 159.1 L432.7 159.1 L433.0 159.1 L433.4 159.1 L433.7 159.1 L434.0 159.1 L434.3 159.1 L434.6 159.1 L435.0 159.1 L435.3 159.1 L435.6 159.1 L435.6 158.8 L435.6 158.4 L435.6 158.0 L435.6 157.6 L435.6 157.3 L435.3 157.3 L435.0 157.3 L434.6 157.3 L434.3 157.3 L434.0 157.3 L433.7 157.3 L433.4 157.3 L433.0 157.3 L432.7 157.3 L432.4 157.3 L432.1 157.3 L431.8 157.3 L431.4 157.3 L431.4 157.6 L431.4 158.0 L431.1 158.0 L431.1 158.4 L431.1 158.8 Z" fill="#2f8f83" fill-opacity="0.34" stroke="#0e5b52" stroke-width="1.6" />
  <path d="M427.9 142.6 L427.6 142.6 L427.6 143.0 L427.9 143.0 L427.9 142.6 Z" fill="#2f8f83" fill-opacity="0.34" stroke="#0e5b52" stroke-width="1.6" />
  <path d="M438.5 155.8 L438.5 156.1 L438.8 156.1 L439.1 156.1 L439.5 156.1 L439.8 156.1 L439.8 155.8 L439.8 155.4 L439.8 155.0 L439.5 155.0 L439.5 154.6 L439.5 154.3 L439.5 153.9 L439.5 153.5 L439.1 153.5 L438.8 153.5 L438.8 153.9 L438.8 154.3 L438.8 154.6 L438.5 154.6 L438.5 155.0 L438.5 155.4 L438.5 155.8 Z" fill="#2f8f83" fill-opacity="0.34" stroke="#0e5b52" stroke-width="1.6" />
  <path d="M442.0 157.6 L442.0 157.3 L441.7 157.3 L441.7 157.6 L442.0 157.6 Z" fill="#2f8f83" fill-opacity="0.34" stroke="#0e5b52" stroke-width="1.6" />
  <path d="M440.1 168.5 L439.8 168.5 L439.8 168.9 L440.1 168.9 L440.1 168.5 Z" fill="#2f8f83" fill-opacity="0.34" stroke="#0e5b52" stroke-width="1.6" />
  <path d="M436.3 167.7 L436.3 168.1 L436.6 168.1 L436.9 168.1 L437.2 168.1 L437.5 168.1 L437.9 168.1 L438.2 168.1 L438.5 168.1 L438.8 168.1 L439.1 168.1 L439.1 167.7 L439.1 167.4 L439.1 167.0 L439.1 166.6 L439.1 166.3 L439.1 165.9 L439.1 165.5 L439.1 165.1 L439.1 164.8 L438.8 164.8 L438.5 164.8 L438.2 164.8 L437.9 164.8 L437.5 164.8 L437.2 164.8 L437.2 164.4 L437.2 164.0 L437.2 163.6 L437.2 163.3 L437.2 162.9 L437.5 162.9 L437.9 162.9 L437.9 162.5 L437.9 162.1 L438.2 162.1 L438.5 162.1 L438.8 162.1 L438.8 161.8 L438.5 161.8 L438.2 161.8 L437.9 161.8 L437.5 161.8 L437.5 162.1 L437.5 162.5 L437.2 162.5 L436.9 162.5 L436.9 162.9 L436.9 163.3 L436.9 163.6 L436.9 164.0 L436.9 164.4 L436.9 164.8 L436.6 164.8 L436.3 164.8 L436.3 165.1 L436.3 165.5 L436.3 165.9 L436.3 166.3 L436.3 166.6 L436.3 167.0 L436.3 167.4 L436.3 167.7 Z" fill="#2f8f83" fill-opacity="0.34" stroke="#0e5b52" stroke-width="1.6" />
  <path d="M437.2 172.2 L437.2 172.6 L437.5 172.6 L437.5 172.2 L437.5 171.9 L437.5 171.5 L437.5 171.1 L437.5 170.7 L437.2 170.7 L437.2 171.1 L437.2 171.5 L437.2 171.9 L437.2 172.2 Z" fill="#2f8f83" fill-opacity="0.34" stroke="#0e5b52" stroke-width="1.6" />
  <path d="M437.2 174.5 L437.2 174.8 L437.5 174.8 L437.5 174.5 L437.5 174.1 L437.5 173.7 L437.5 173.3 L437.5 173.0 L437.5 172.6 L437.2 172.6 L437.2 173.0 L437.2 173.3 L437.2 173.7 L437.2 174.1 L437.2 174.5 Z" fill="#2f8f83" fill-opacity="0.34" stroke="#0e5b52" stroke-width="1.6" />
  <path d="M437.2 170.4 L437.2 170.7 L437.5 170.7 L437.5 170.4 L437.5 170.0 L437.5 169.6 L437.5 169.2 L437.5 168.9 L437.9 168.9 L438.2 168.9 L438.5 168.9 L438.8 168.9 L439.1 168.9 L439.5 168.9 L439.8 168.9 L439.8 168.5 L439.5 168.5 L439.1 168.5 L439.1 168.1 L438.8 168.1 L438.8 168.5 L438.5 168.5 L438.2 168.5 L437.9 168.5 L437.5 168.5 L437.2 168.5 L437.2 168.9 L437.2 169.2 L437.2 169.6 L437.2 170.0 L437.2 170.4 Z" fill="#2f8f83" fill-opacity="0.34" stroke="#0e5b52" stroke-width="1.6" />
  <path d="M439.5 148.6 L439.5 149.0 L439.8 149.0 L440.1 149.0 L440.4 149.0 L440.7 149.0 L440.7 148.6 L440.7 148.3 L440.7 147.9 L440.4 147.9 L440.1 147.9 L439.8 147.9 L439.5 147.9 L439.5 148.3 L439.5 148.6 Z" fill="#2f8f83" fill-opacity="0.34" stroke="#0e5b52" stroke-width="1.6" />
  <path d="M433.4 163.6 L433.4 164.0 L433.7 164.0 L434.0 164.0 L434.3 164.0 L434.6 164.0 L435.0 164.0 L435.3 164.0 L435.6 164.0 L435.9 164.0 L436.3 164.0 L436.6 164.0 L436.9 164.0 L436.9 163.6 L436.9 163.3 L436.9 162.9 L436.9 162.5 L437.2 162.5 L437.5 162.5 L437.5 162.1 L437.5 161.8 L437.9 161.8 L438.2 161.8 L438.5 161.8 L438.8 161.8 L438.8 161.4 L438.5 161.4 L438.2 161.4 L437.9 161.4 L437.5 161.4 L437.2 161.4 L436.9 161.4 L436.6 161.4 L436.3 161.4 L435.9 161.4 L435.9 161.8 L435.9 162.1 L435.9 162.5 L435.6 162.5 L435.3 162.5 L435.0 162.5 L434.6 162.5 L434.3 162.5 L434.0 162.5 L433.7 162.5 L433.4 162.5 L433.4 162.9 L433.4 163.3 L433.4 163.6 Z" fill="#2f8f83" fill-opacity="0.34" stroke="#0e5b52" stroke-width="1.6" />
  <path d="M435.9 161.0 L435.9 161.4 L436.3 161.4 L436.6 161.4 L436.9 161.4 L437.2 161.4 L437.5 161.4 L437.9 161.4 L438.2 161.4 L438.5 161.4 L438.8 161.4 L438.8 161.0 L438.8 160.6 L438.8 160.3 L438.8 159.9 L438.8 159.5 L438.5 159.5 L438.2 159.5 L437.9 159.5 L437.5 159.5 L437.2 159.5 L436.9 159.5 L436.9 159.1 L436.9 158.8 L436.6 158.8 L436.3 158.8 L435.9 158.8 L435.6 158.8 L435.6 159.1 L435.9 159.1 L435.9 159.5 L435.9 159.9 L435.9 160.3 L435.9 160.6 L435.9 161.0 Z" fill="#2f8f83" fill-opacity="0.34" stroke="#0e5b52" stroke-width="1.6" />
  <path d="M433.7 168.5 L433.7 168.9 L434.0 168.9 L434.3 168.9 L434.6 168.9 L435.0 168.9 L435.3 168.9 L435.3 168.5 L435.6 168.5 L435.9 168.5 L435.9 168.1 L436.3 168.1 L436.3 167.7 L436.3 167.4 L436.3 167.0 L436.3 166.6 L436.3 166.3 L436.3 165.9 L436.3 165.5 L436.3 165.1 L436.3 164.8 L436.6 164.8 L436.9 164.8 L436.9 164.4 L436.6 164.4 L436.3 164.4 L435.9 164.4 L435.6 164.4 L435.3 164.4 L435.0 164.4 L434.6 164.4 L434.3 164.4 L434.0 164.4 L433.7 164.4 L433.7 164.8 L433.7 165.1 L433.7 165.5 L433.7 165.9 L433.7 166.3 L433.7 166.6 L433.7 167.0 L433.7 167.4 L433.7 167.7 L433.7 168.1 L433.7 168.5 Z" fill="#2f8f83" fill-opacity="0.34" stroke="#0e5b52" stroke-width="1.6" />
  <path d="M434.0 164.4 L434.3 164.4 L434.6 164.4 L435.0 164.4 L435.3 164.4 L435.6 164.4 L435.9 164.4 L436.3 164.4 L436.6 164.4 L436.9 164.4 L436.9 164.0 L436.6 164.0 L436.3 164.0 L435.9 164.0 L435.6 164.0 L435.3 164.0 L435.0 164.0 L434.6 164.0 L434.3 164.0 L434.0 164.0 L433.7 164.0 L433.7 164.4 L434.0 164.4 Z" fill="#2f8f83" fill-opacity="0.34" stroke="#0e5b52" stroke-width="1.6" />
  <path d="M437.5 163.6 L437.2 163.6 L437.2 164.0 L437.5 164.0 L437.5 163.6 Z" fill="#2f8f83" fill-opacity="0.34" stroke="#0e5b52" stroke-width="1.6" />
  <path d="M422.1 134.3 L421.8 134.3 L421.8 134.7 L422.1 134.7 L422.1 134.3 Z" fill="#2f8f83" fill-opacity="0.34" stroke="#0e5b52" stroke-width="1.6" />
  <path d="M442.0 158.0 L442.0 157.6 L441.7 157.6 L441.7 158.0 L442.0 158.0 Z" fill="#2f8f83" fill-opacity="0.34" stroke="#0e5b52" stroke-width="1.6" />
  <path d="M422.1 137.0 L422.1 137.4 L422.4 137.4 L422.8 137.4 L423.1 137.4 L423.1 137.0 L423.1 136.6 L423.1 136.2 L423.1 135.9 L423.1 135.5 L423.1 135.1 L423.1 134.7 L423.1 134.3 L423.1 134.0 L423.1 133.6 L423.1 133.2 L423.1 132.8 L423.1 132.5 L422.8 132.5 L422.4 132.5 L422.1 132.5 L422.1 132.8 L422.1 133.2 L422.1 133.6 L422.1 134.0 L422.1 134.3 L422.1 134.7 L422.1 135.1 L422.1 135.5 L422.1 135.9 L422.1 136.2 L422.1 136.6 L422.1 137.0 Z" fill="#2f8f83" fill-opacity="0.34" stroke="#0e5b52" stroke-width="1.6" />
  <path d="M427.6 138.1 L427.3 138.1 L427.3 138.5 L427.6 138.5 L427.6 138.1 Z" fill="#2f8f83" fill-opacity="0.34" stroke="#0e5b52" stroke-width="1.6" />
  <path d="M426.0 135.9 L426.3 135.9 L426.6 135.9 L426.6 136.2 L426.6 136.6 L426.6 137.0 L426.6 137.4 L426.9 137.4 L426.9 137.0 L426.9 136.6 L426.9 136.2 L426.9 135.9 L426.9 135.5 L426.6 135.5 L426.3 135.5 L426.0 135.5 L425.7 135.5 L425.7 135.9 L426.0 135.9 Z" fill="#2f8f83" fill-opacity="0.34" stroke="#0e5b52" stroke-width="1.6" />
  <path d="M426.6 141.9 L426.6 142.3 L426.9 142.3 L427.3 142.3 L427.6 142.3 L427.9 142.3 L428.2 142.3 L428.5 142.3 L428.9 142.3 L429.2 142.3 L429.5 142.3 L429.5 141.9 L429.5 141.5 L429.5 141.1 L429.5 140.8 L429.2 140.8 L428.9 140.8 L428.9 140.4 L428.9 140.0 L428.9 139.6 L428.9 139.2 L428.9 138.9 L428.9 138.5 L428.9 138.1 L428.5 138.1 L428.2 138.1 L427.9 138.1 L427.6 138.1 L427.6 138.5 L427.6 138.9 L427.6 139.2 L427.6 139.6 L427.6 140.0 L427.6 140.4 L427.3 140.4 L426.9 140.4 L426.6 140.4 L426.6 140.8 L426.6 141.1 L426.6 141.5 L426.6 141.9 Z" fill="#2f8f83" fill-opacity="0.34" stroke="#0e5b52" stroke-width="1.6" />
  <path d="M435.9 180.4 L435.9 180.8 L436.3 180.8 L436.3 181.2 L436.3 181.5 L436.6 181.5 L436.6 181.2 L436.6 180.8 L436.6 180.4 L436.3 180.4 L436.3 180.1 L436.6 180.1 L436.6 179.7 L436.9 179.7 L436.9 179.3 L436.9 178.9 L437.2 178.9 L437.5 178.9 L437.5 178.6 L437.5 178.2 L437.5 177.8 L437.5 177.4 L437.5 177.1 L437.5 176.7 L437.5 176.3 L437.5 176.0 L437.5 175.6 L437.5 175.2 L437.5 174.8 L437.2 174.8 L437.2 175.2 L437.2 175.6 L437.2 176.0 L437.2 176.3 L437.2 176.7 L437.2 177.1 L437.2 177.4 L437.2 177.8 L437.2 178.2 L437.2 178.6 L436.9 178.6 L436.6 178.6 L436.6 178.9 L436.6 179.3 L436.3 179.3 L436.3 179.7 L435.9 179.7 L435.9 180.1 L435.9 180.4 Z" fill="#2f8f83" fill-opacity="0.34" stroke="#0e5b52" stroke-width="1.6" />
  <path d="M437.9 147.9 L438.2 147.9 L438.5 147.9 L438.8 147.9 L439.1 147.9 L439.5 147.9 L439.8 147.9 L440.1 147.9 L440.4 147.9 L440.7 147.9 L440.7 147.5 L440.4 147.5 L440.1 147.5 L439.8 147.5 L439.5 147.5 L439.1 147.5 L438.8 147.5 L438.5 147.5 L438.2 147.5 L437.9 147.5 L437.5 147.5 L437.5 147.9 L437.9 147.9 Z" fill="#2f8f83" fill-opacity="0.34" stroke="#0e5b52" stroke-width="1.6" />
  <path d="M436.6 181.5 L436.3 181.5 L436.3 181.9 L436.6 181.9 L436.6 181.5 Z" fill="#2f8f83" fill-opacity="0.34" stroke="#0e5b52" stroke-width="1.6" />
  <path d="M426.9 137.4 L426.6 137.4 L426.6 137.7 L426.9 137.7 L426.9 137.4 Z" fill="#2f8f83" fill-opacity="0.34" stroke="#0e5b52" stroke-width="1.6" />
  <path d="M426.0 154.3 L426.0 154.7 L426.3 154.7 L426.3 154.3 L426.6 154.3 L426.9 154.3 L427.3 154.3 L427.3 153.9 L427.6 153.9 L427.9 153.9 L427.9 153.5 L427.6 153.5 L427.3 153.5 L426.9 153.5 L426.9 153.9 L426.6 153.9 L426.3 153.9 L426.0 153.9 L426.0 154.3 Z" fill="#2f8f83" fill-opacity="0.34" stroke="#0e5b52" stroke-width="1.6" />
  <path d="M441.7 158.4 L441.7 158.8 L441.7 159.1 L441.7 159.5 L441.7 159.9 L441.7 160.3 L441.7 160.6 L442.0 160.6 L442.4 160.6 L442.7 160.6 L443.0 160.6 L443.3 160.6 L443.6 160.6 L444.0 160.6 L444.3 160.6 L444.6 160.6 L444.9 160.6 L444.9 160.3 L444.9 159.9 L444.9 159.5 L444.9 159.1 L444.9 158.8 L444.9 158.4 L444.9 158.0 L444.9 157.6 L444.6 157.6 L444.3 157.6 L444.0 157.6 L443.6 157.6 L443.3 157.6 L443.0 157.6 L442.7 157.6 L442.4 157.6 L442.0 157.6 L442.0 158.0 L441.7 158.0 L441.7 158.4 Z" fill="#2f8f83" fill-opacity="0.34" stroke="#0e5b52" stroke-width="1.6" />
  <path d="M441.7 155.0 L441.7 155.4 L441.7 155.8 L441.7 156.1 L441.7 156.5 L441.7 156.9 L441.7 157.3 L442.0 157.3 L442.0 157.6 L442.4 157.6 L442.7 157.6 L443.0 157.6 L443.3 157.6 L443.6 157.6 L444.0 157.6 L444.0 157.3 L444.0 156.9 L444.0 156.5 L444.0 156.1 L444.0 155.8 L444.0 155.4 L444.0 155.0 L444.0 154.6 L443.6 154.6 L443.3 154.6 L443.0 154.6 L442.7 154.6 L442.4 154.6 L442.0 154.6 L441.7 154.6 L441.7 155.0 Z" fill="#2f8f83" fill-opacity="0.34" stroke="#0e5b52" stroke-width="1.6" />
  <path d="M437.5 149.4 L437.5 149.8 L437.9 149.8 L438.2 149.8 L438.5 149.8 L438.8 149.8 L438.8 150.1 L438.8 150.5 L439.1 150.5 L439.5 150.5 L439.8 150.5 L439.8 150.9 L439.8 151.3 L439.8 151.6 L439.8 152.0 L440.1 152.0 L440.4 152.0 L440.7 152.0 L441.1 152.0 L441.1 151.6 L441.1 151.3 L441.1 150.9 L441.1 150.5 L441.1 150.1 L441.1 149.8 L441.1 149.4 L441.1 149.0 L441.1 148.6 L441.1 148.3 L441.1 147.9 L440.7 147.9 L440.7 148.3 L440.7 148.6 L440.7 149.0 L440.4 149.0 L440.1 149.0 L439.8 149.0 L439.5 149.0 L439.5 148.6 L439.5 148.3 L439.5 147.9 L439.1 147.9 L438.8 147.9 L438.5 147.9 L438.2 147.9 L437.9 147.9 L437.5 147.9 L437.5 148.3 L437.5 148.6 L437.5 149.0 L437.5 149.4 Z" fill="#2f8f83" fill-opacity="0.34" stroke="#0e5b52" stroke-width="1.6" />
  <path d="M427.9 150.9 L427.9 151.3 L428.2 151.3 L428.5 151.3 L428.9 151.3 L429.2 151.3 L429.5 151.3 L429.8 151.3 L430.1 151.3 L430.5 151.3 L430.8 151.3 L430.8 150.9 L430.8 150.5 L430.8 150.1 L430.8 149.8 L430.8 149.4 L430.8 149.0 L430.8 148.6 L430.8 148.3 L430.8 147.9 L430.8 147.5 L430.5 147.5 L430.5 147.1 L430.1 147.1 L429.8 147.1 L429.5 147.1 L429.2 147.1 L428.9 147.1 L428.5 147.1 L428.2 147.1 L427.9 147.1 L427.9 147.5 L427.9 147.9 L427.9 148.3 L427.9 148.6 L427.9 149.0 L427.9 149.4 L427.9 149.8 L427.9 150.1 L427.9 150.5 L427.9 150.9 Z" fill="#2f8f83" fill-opacity="0.34" stroke="#0e5b52" stroke-width="1.6" />
  <path d="M430.8 152.8 L430.8 153.2 L431.1 153.2 L431.4 153.2 L431.8 153.2 L432.1 153.2 L432.4 153.2 L432.7 153.2 L433.0 153.2 L433.4 153.1 L433.7 153.1 L434.0 153.1 L434.3 153.1 L434.6 153.1 L435.0 153.1 L435.3 153.1 L435.3 152.8 L435.3 152.4 L435.3 152.0 L435.3 151.6 L435.3 151.3 L435.0 151.3 L434.6 151.3 L434.3 151.3 L434.0 151.3 L433.7 151.3 L433.4 151.3 L433.0 151.3 L432.7 151.3 L432.4 151.3 L432.4 150.9 L432.4 150.5 L432.1 150.5 L431.8 150.5 L431.8 150.1 L431.8 149.8 L431.4 149.8 L431.4 149.4 L431.1 149.4 L430.8 149.4 L430.8 149.8 L430.8 150.1 L430.8 150.5 L430.8 150.9 L430.8 151.3 L431.1 151.3 L431.1 151.6 L431.1 152.0 L430.8 152.0 L430.8 152.4 L430.8 152.8 Z" fill="#2f8f83" fill-opacity="0.34" stroke="#0e5b52" stroke-width="1.6" />
  <path d="M430.8 153.5 L430.8 153.9 L431.1 153.9 L431.4 153.9 L431.8 153.9 L432.1 153.9 L432.1 154.3 L432.1 154.7 L432.1 155.0 L432.1 155.4 L432.4 155.4 L432.7 155.4 L433.0 155.4 L433.4 155.4 L433.7 155.4 L434.0 155.4 L434.3 155.4 L434.6 155.4 L435.0 155.4 L435.3 155.4 L435.3 155.0 L435.3 154.6 L435.3 154.3 L435.3 153.9 L435.3 153.5 L435.0 153.5 L435.0 153.1 L434.6 153.1 L434.3 153.1 L434.0 153.1 L433.7 153.1 L433.4 153.1 L433.0 153.2 L432.7 153.2 L432.4 153.2 L432.1 153.2 L431.8 153.2 L431.4 153.2 L431.1 153.2 L430.8 153.2 L430.8 153.5 Z" fill="#2f8f83" fill-opacity="0.34" stroke="#0e5b52" stroke-width="1.6" />
  <path d="M429.5 156.9 L429.5 157.3 L429.8 157.3 L430.1 157.3 L430.5 157.3 L430.8 157.3 L431.1 157.3 L431.4 157.3 L431.8 157.3 L432.1 157.3 L432.4 157.3 L432.7 157.3 L433.0 157.3 L433.4 157.3 L433.7 157.3 L434.0 157.3 L434.3 157.3 L434.6 157.3 L435.0 157.3 L435.3 157.3 L435.6 157.3 L435.6 156.9 L435.6 156.5 L435.6 156.1 L435.6 155.8 L435.3 155.8 L435.3 155.4 L435.0 155.4 L434.6 155.4 L434.3 155.4 L434.0 155.4 L433.7 155.4 L433.4 155.4 L433.0 155.4 L432.7 155.4 L432.4 155.4 L432.1 155.4 L432.1 155.8 L431.8 155.8 L431.4 155.8 L431.1 155.8 L430.8 155.8 L430.5 155.8 L430.1 155.8 L429.8 155.8 L429.8 156.1 L429.5 156.1 L429.5 156.5 L429.5 156.9 Z" fill="#2f8f83" fill-opacity="0.34" stroke="#0e5b52" stroke-width="1.6" />
  <path d="M436.6 181.2 L436.6 181.5 L436.9 181.5 L437.2 181.5 L437.5 181.5 L437.9 181.5 L438.2 181.5 L438.5 181.5 L438.8 181.5 L439.1 181.5 L439.5 181.5 L439.8 181.5 L439.8 181.2 L439.8 180.8 L439.8 180.4 L439.8 180.1 L439.8 179.7 L439.8 179.3 L439.8 178.9 L439.5 178.9 L439.1 178.9 L438.8 178.9 L438.5 178.9 L438.2 178.9 L437.9 178.9 L437.5 178.9 L437.2 178.9 L436.9 178.9 L436.9 179.3 L436.9 179.7 L436.6 179.7 L436.6 180.1 L436.3 180.1 L436.3 180.4 L436.6 180.4 L436.6 180.8 L436.6 181.2 Z" fill="#2f8f83" fill-opacity="0.34" stroke="#0e5b52" stroke-width="1.6" />
  <path d="M435.6 183.8 L435.6 184.1 L435.9 184.1 L436.3 184.1 L436.3 184.5 L436.3 184.9 L436.3 185.3 L436.6 185.3 L436.9 185.3 L436.9 184.9 L437.2 184.9 L437.2 184.5 L437.5 184.5 L437.9 184.5 L437.9 184.1 L438.2 184.1 L438.5 184.1 L438.8 184.1 L438.8 184.5 L439.1 184.5 L439.5 184.5 L439.5 184.1 L439.5 183.8 L439.5 183.4 L439.5 183.0 L439.1 183.0 L438.8 183.0 L438.5 183.0 L438.5 182.7 L438.5 182.3 L438.8 182.3 L439.1 182.3 L439.1 181.9 L439.1 181.5 L438.8 181.5 L438.5 181.5 L438.2 181.5 L437.9 181.5 L437.5 181.5 L437.2 181.5 L436.9 181.5 L436.6 181.5 L436.6 181.9 L436.3 181.9 L436.3 181.5 L435.9 181.5 L435.6 181.5 L435.6 181.9 L435.6 182.3 L435.6 182.7 L435.6 183.0 L435.6 183.4 L435.6 183.8 Z" fill="#2f8f83" fill-opacity="0.34" stroke="#0e5b52" stroke-width="1.6" />
  <path d="M437.5 170.4 L437.5 170.7 L437.9 170.7 L438.2 170.7 L438.5 170.7 L438.8 170.7 L439.1 170.7 L439.5 170.7 L439.8 170.7 L439.8 170.4 L439.8 170.0 L439.8 169.6 L439.8 169.2 L439.8 168.9 L439.5 168.9 L439.1 168.9 L438.8 168.9 L438.5 168.9 L438.2 168.9 L437.9 168.9 L437.5 168.9 L437.5 169.2 L437.5 169.6 L437.5 170.0 L437.5 170.4 Z" fill="#2f8f83" fill-opacity="0.34" stroke="#0e5b52" stroke-width="1.6" />
  <path d="M439.8 170.4 L439.8 170.7 L440.1 170.7 L440.4 170.7 L440.7 170.7 L441.1 170.7 L441.4 170.7 L441.7 170.7 L442.0 170.7 L442.0 170.4 L442.0 170.0 L442.0 169.6 L442.0 169.2 L442.0 168.9 L442.0 168.5 L441.7 168.5 L441.4 168.5 L441.1 168.5 L440.7 168.5 L440.4 168.5 L440.1 168.5 L440.1 168.9 L439.8 168.9 L439.8 169.2 L439.8 169.6 L439.8 170.0 L439.8 170.4 Z M441.7 169.6 L441.7 169.2 L441.7 169.6 L441.7 170.0 L441.7 169.6 Z" fill="#2f8f83" fill-opacity="0.34" stroke="#0e5b52" stroke-width="1.6" />
  <path d="M437.5 172.2 L437.5 172.6 L437.9 172.6 L438.2 172.6 L438.5 172.6 L438.8 172.6 L439.1 172.6 L439.5 172.6 L439.8 172.6 L440.1 172.6 L440.4 172.6 L440.7 172.6 L441.1 172.6 L441.4 172.6 L441.7 172.6 L441.7 172.6 L442.0 172.6 L442.4 172.6 L442.4 172.2 L442.0 172.2 L442.0 171.9 L442.0 171.5 L442.0 171.1 L442.0 170.7 L441.7 170.7 L441.4 170.7 L441.1 170.7 L440.7 170.7 L440.4 170.7 L440.1 170.7 L439.8 170.7 L439.5 170.7 L439.1 170.7 L438.8 170.7 L438.5 170.7 L438.2 170.7 L437.9 170.7 L437.5 170.7 L437.5 171.1 L437.5 171.5 L437.5 171.9 L437.5 172.2 Z M441.7 170.7 L441.7 171.1 L441.7 171.5 L441.7 171.1 L441.7 170.7 Z" fill="#2f8f83" fill-opacity="0.34" stroke="#0e5b52" stroke-width="1.6" />
  <path d="M437.5 174.5 L437.5 174.8 L437.9 174.8 L438.2 174.8 L438.5 174.8 L438.8 174.8 L439.1 174.8 L439.5 174.8 L439.8 174.8 L440.1 174.8 L440.4 174.8 L440.7 174.8 L441.1 174.8 L441.4 174.8 L441.7 174.8 L442.0 174.8 L442.4 174.8 L442.4 174.5 L442.4 174.1 L442.4 173.7 L442.4 173.3 L442.4 173.0 L442.4 172.6 L442.0 172.6 L441.7 172.6 L441.7 172.6 L441.4 172.6 L441.1 172.6 L440.7 172.6 L440.4 172.6 L440.1 172.6 L439.8 172.6 L439.5 172.6 L439.1 172.6 L438.8 172.6 L438.5 172.6 L438.2 172.6 L437.9 172.6 L437.5 172.6 L437.5 173.0 L437.5 173.3 L437.5 173.7 L437.5 174.1 L437.5 174.5 Z" fill="#2f8f83" fill-opacity="0.34" stroke="#0e5b52" stroke-width="1.6" />
  <path d="M437.2 164.4 L437.2 164.8 L437.5 164.8 L437.9 164.8 L438.2 164.8 L438.5 164.8 L438.8 164.8 L439.1 164.8 L439.5 164.8 L439.8 164.8 L440.1 164.8 L440.1 164.4 L440.1 164.0 L440.1 163.6 L439.8 163.6 L439.5 163.6 L439.1 163.6 L438.8 163.6 L438.8 163.3 L438.5 163.3 L438.2 163.3 L437.9 163.3 L437.9 163.6 L437.5 163.6 L437.5 164.0 L437.2 164.0 L437.2 164.4 Z" fill="#2f8f83" fill-opacity="0.34" stroke="#0e5b52" stroke-width="1.6" />
  <path d="M439.5 154.6 L439.5 155.0 L439.8 155.0 L439.8 155.4 L439.8 155.8 L439.8 156.1 L440.1 156.1 L440.4 156.1 L440.7 156.1 L441.1 156.1 L441.4 156.1 L441.7 156.1 L441.7 155.8 L441.7 155.4 L441.7 155.0 L441.7 154.6 L441.7 154.3 L441.4 154.3 L441.1 154.3 L440.7 154.3 L440.4 154.3 L440.1 154.3 L439.8 154.3 L439.8 153.9 L439.8 153.5 L439.5 153.5 L439.5 153.9 L439.5 154.3 L439.5 154.6 Z" fill="#2f8f83" fill-opacity="0.34" stroke="#0e5b52" stroke-width="1.6" />
  <path d="M432.7 143.4 L432.7 143.8 L433.0 143.8 L433.0 144.1 L433.4 144.1 L433.7 144.1 L434.0 144.1 L434.0 144.5 L434.0 144.9 L434.0 145.3 L434.0 145.6 L434.0 146.0 L434.3 146.0 L434.6 146.0 L434.6 145.6 L435.0 145.6 L435.3 145.6 L435.6 145.6 L435.6 145.3 L435.6 144.9 L435.6 144.5 L435.6 144.1 L435.6 143.8 L435.6 143.4 L435.6 143.0 L435.3 143.0 L435.0 143.0 L434.6 143.0 L434.3 143.0 L434.0 143.0 L433.7 143.0 L433.4 143.0 L433.0 143.0 L432.7 143.0 L432.7 143.4 Z" fill="#2f8f83" fill-opacity="0.34" stroke="#0e5b52" stroke-width="1.6" />
  <path d="M426.6 143.8 L426.6 144.1 L426.9 144.1 L426.9 144.5 L426.9 144.9 L427.3 144.9 L427.3 145.3 L427.6 145.3 L427.6 145.6 L427.6 146.0 L427.9 146.0 L427.9 145.6 L427.9 145.3 L427.9 144.9 L427.9 144.5 L427.9 144.1 L427.9 143.8 L427.9 143.4 L427.9 143.0 L427.6 143.0 L427.6 142.6 L427.3 142.6 L426.9 142.6 L426.6 142.6 L426.6 143.0 L426.6 143.4 L426.6 143.8 Z" fill="#2f8f83" fill-opacity="0.34" stroke="#0e5b52" stroke-width="1.6" />
  <path d="M429.2 140.0 L429.2 140.4 L429.5 140.4 L429.8 140.4 L430.1 140.4 L430.5 140.4 L430.8 140.4 L431.1 140.4 L431.4 140.4 L431.4 140.8 L431.4 141.1 L431.4 141.5 L431.4 141.9 L431.8 141.9 L431.8 141.5 L431.8 141.1 L431.8 140.7 L431.8 140.4 L431.8 140.0 L431.8 139.6 L431.8 139.2 L431.4 139.2 L431.1 139.2 L430.8 139.2 L430.5 139.2 L430.1 139.2 L429.8 139.2 L429.5 139.2 L429.2 139.2 L429.2 139.6 L429.2 140.0 Z" fill="#2f8f83" fill-opacity="0.34" stroke="#0e5b52" stroke-width="1.6" />
  <path d="M426.3 128.3 L426.3 128.7 L426.6 128.7 L426.6 129.1 L426.9 129.1 L427.3 129.1 L427.6 129.1 L427.9 129.1 L428.2 129.1 L428.5 129.1 L428.5 129.4 L428.5 129.8 L428.5 130.2 L428.5 130.6 L428.5 131.0 L428.5 131.3 L428.9 131.3 L429.2 131.3 L429.5 131.3 L429.8 131.3 L430.1 131.3 L430.1 131.0 L430.1 130.6 L430.1 130.2 L430.1 129.8 L430.1 129.4 L430.1 129.1 L430.1 128.7 L430.1 128.3 L430.1 127.9 L430.1 127.6 L429.8 127.6 L429.5 127.6 L429.2 127.6 L428.9 127.6 L428.5 127.6 L428.2 127.6 L427.9 127.6 L427.6 127.6 L427.3 127.6 L426.9 127.6 L426.6 127.6 L426.3 127.6 L426.3 127.9 L426.3 128.3 Z" fill="#2f8f83" fill-opacity="0.34" stroke="#0e5b52" stroke-width="1.6" />
  <path d="M423.1 140.0 L423.1 140.4 L423.4 140.4 L423.7 140.4 L424.0 140.4 L424.4 140.4 L424.7 140.4 L425.0 140.4 L425.3 140.4 L425.7 140.4 L426.0 140.4 L426.3 140.4 L426.6 140.4 L426.9 140.4 L427.3 140.4 L427.6 140.4 L427.6 140.0 L427.6 139.6 L427.6 139.2 L427.6 138.9 L427.6 138.5 L427.3 138.5 L427.3 138.1 L426.9 138.1 L426.6 138.1 L426.3 138.1 L426.0 138.1 L425.7 138.1 L425.3 138.1 L425.0 138.1 L424.7 138.1 L424.4 138.1 L424.0 138.1 L423.7 138.1 L423.4 138.1 L423.1 138.1 L423.1 138.5 L423.1 138.9 L423.1 139.2 L423.1 139.6 L423.1 140.0 Z" fill="#2f8f83" fill-opacity="0.34" stroke="#0e5b52" stroke-width="1.6" />
  <path d="M423.1 137.7 L423.1 138.1 L423.4 138.1 L423.7 138.1 L424.0 138.1 L424.4 138.1 L424.7 138.1 L425.0 138.1 L425.3 138.1 L425.7 138.1 L426.0 138.1 L426.3 138.1 L426.6 138.1 L426.9 138.1 L426.9 137.7 L426.6 137.7 L426.6 137.4 L426.3 137.4 L426.0 137.4 L425.7 137.4 L425.3 137.4 L425.0 137.4 L424.7 137.4 L424.4 137.4 L424.0 137.4 L423.7 137.4 L423.4 137.4 L423.1 137.4 L423.1 137.7 Z" fill="#2f8f83" fill-opacity="0.34" stroke="#0e5b52" stroke-width="1.6" />
  <path d="M423.1 137.0 L423.1 137.4 L423.4 137.4 L423.7 137.4 L424.0 137.4 L424.4 137.4 L424.7 137.4 L425.0 137.4 L425.3 137.4 L425.7 137.4 L426.0 137.4 L426.3 137.4 L426.6 137.4 L426.6 137.0 L426.6 136.6 L426.6 136.2 L426.6 135.9 L426.3 135.9 L426.0 135.9 L425.7 135.9 L425.7 135.5 L425.3 135.5 L425.0 135.5 L424.7 135.5 L424.4 135.5 L424.0 135.5 L423.7 135.5 L423.4 135.5 L423.1 135.5 L423.1 135.9 L423.1 136.2 L423.1 136.6 L423.1 137.0 Z" fill="#2f8f83" fill-opacity="0.34" stroke="#0e5b52" stroke-width="1.6" />
  <path d="M417.9 135.5 L417.9 135.9 L418.3 135.9 L418.6 135.9 L418.9 135.9 L419.2 135.9 L419.2 136.2 L419.2 136.6 L419.5 136.6 L419.9 136.6 L420.2 136.6 L420.5 136.6 L420.8 136.6 L421.2 136.6 L421.5 136.6 L421.8 136.6 L422.1 136.6 L422.1 136.2 L422.1 135.9 L422.1 135.5 L422.1 135.1 L422.1 134.7 L421.8 134.7 L421.8 134.3 L421.5 134.3 L421.2 134.3 L420.8 134.3 L420.5 134.3 L420.2 134.3 L419.9 134.3 L419.5 134.3 L419.2 134.3 L418.9 134.3 L418.6 134.3 L418.3 134.3 L417.9 134.3 L417.9 134.7 L417.9 135.1 L417.9 135.5 Z" fill="#2f8f83" fill-opacity="0.34" stroke="#0e5b52" stroke-width="1.6" />
  <path d="M415.7 134.0 L415.7 134.3 L416.0 134.3 L416.3 134.3 L416.7 134.3 L417.0 134.3 L417.3 134.3 L417.6 134.3 L417.9 134.3 L418.3 134.3 L418.6 134.3 L418.9 134.3 L419.2 134.3 L419.5 134.3 L419.9 134.3 L420.2 134.3 L420.5 134.3 L420.8 134.3 L421.2 134.3 L421.5 134.3 L421.8 134.3 L421.8 134.0 L421.8 133.6 L421.5 133.6 L421.2 133.6 L420.8 133.6 L420.5 133.6 L420.2 133.6 L419.9 133.6 L419.5 133.6 L419.2 133.6 L418.9 133.6 L418.6 133.6 L418.3 133.6 L417.9 133.6 L417.6 133.6 L417.3 133.6 L417.0 133.6 L416.7 133.6 L416.3 133.6 L416.3 133.2 L416.3 132.8 L416.3 132.5 L416.3 132.1 L416.3 131.7 L416.3 131.3 L416.3 131.0 L416.3 130.6 L416.3 130.2 L416.3 129.8 L416.3 129.4 L416.3 129.1 L416.3 128.7 L416.3 128.3 L416.3 127.9 L416.0 127.9 L415.7 127.9 L415.7 128.3 L415.7 128.7 L415.7 129.1 L415.7 129.4 L415.7 129.8 L415.7 130.2 L415.7 130.6 L415.7 131.0 L415.7 131.3 L415.7 131.7 L415.7 132.1 L415.7 132.5 L415.7 132.8 L415.7 133.2 L415.7 133.6 L415.7 134.0 Z" fill="#2f8f83" fill-opacity="0.34" stroke="#0e5b52" stroke-width="1.6" />
  <path d="M437.5 147.1 L437.5 147.5 L437.9 147.5 L438.2 147.5 L438.5 147.5 L438.8 147.5 L439.1 147.5 L439.5 147.5 L439.8 147.5 L440.1 147.5 L440.4 147.5 L440.7 147.5 L440.7 147.9 L441.1 147.9 L441.1 148.3 L441.1 148.6 L441.1 149.0 L441.1 149.4 L441.1 149.8 L441.4 149.8 L441.7 149.8 L441.7 149.4 L441.4 149.4 L441.4 149.0 L441.4 148.6 L441.4 148.3 L441.4 147.9 L441.4 147.5 L441.4 147.1 L441.4 146.8 L441.1 146.8 L441.1 146.4 L440.7 146.4 L440.7 146.0 L440.4 146.0 L440.1 146.0 L439.8 146.0 L439.5 146.0 L439.1 146.0 L438.8 146.0 L438.5 146.0 L438.2 146.0 L437.9 146.0 L437.5 146.0 L437.2 146.0 L437.2 146.4 L437.5 146.4 L437.5 146.8 L437.5 147.1 Z" fill="#2f8f83" fill-opacity="0.34" stroke="#0e5b52" stroke-width="1.6" />
  <path d="M422.1 131.7 L422.1 132.1 L422.4 132.1 L422.8 132.1 L423.1 132.1 L423.4 132.1 L423.7 132.1 L424.0 132.1 L424.4 132.1 L424.7 132.1 L425.0 132.1 L425.3 132.1 L425.6 132.1 L426.0 132.1 L426.0 131.7 L426.0 131.3 L426.0 131.0 L426.0 130.6 L426.0 130.2 L426.0 129.8 L426.0 129.4 L426.0 129.1 L425.6 129.1 L425.3 129.1 L425.0 129.1 L424.7 129.1 L424.4 129.1 L424.0 129.1 L423.7 129.1 L423.4 129.1 L423.1 129.1 L422.8 129.1 L422.4 129.1 L422.1 129.1 L422.1 129.4 L422.1 129.8 L422.1 130.2 L422.1 130.6 L422.1 131.0 L422.1 131.3 L422.1 131.7 Z" fill="#2f8f83" fill-opacity="0.34" stroke="#0e5b52" stroke-width="1.6" />
  <path d="M422.1 128.7 L422.1 129.1 L422.4 129.1 L422.8 129.1 L423.1 129.1 L423.4 129.1 L423.7 129.1 L424.0 129.1 L424.4 129.1 L424.7 129.1 L425.0 129.1 L425.3 129.1 L425.6 129.1 L426.0 129.1 L426.3 129.1 L426.3 128.7 L426.3 128.3 L426.3 127.9 L426.3 127.6 L426.0 127.6 L425.6 127.6 L425.3 127.6 L425.0 127.6 L424.7 127.6 L424.4 127.6 L424.0 127.6 L423.7 127.6 L423.4 127.6 L423.1 127.6 L422.8 127.6 L422.4 127.6 L422.1 127.6 L422.1 127.9 L422.1 128.3 L422.1 128.7 Z" fill="#2f8f83" fill-opacity="0.34" stroke="#0e5b52" stroke-width="1.6" />
  <path d="M426.6 134.7 L426.6 135.1 L426.9 135.1 L427.3 135.1 L427.3 135.5 L427.3 135.9 L427.6 135.9 L427.9 135.9 L428.2 135.9 L428.5 135.9 L428.5 135.5 L428.5 135.1 L428.5 134.7 L428.5 134.3 L428.5 134.0 L428.2 134.0 L427.9 134.0 L427.6 134.0 L427.3 134.0 L426.9 134.0 L426.6 134.0 L426.6 134.3 L426.6 134.7 Z" fill="#2f8f83" fill-opacity="0.34" stroke="#0e5b52" stroke-width="1.6" />
  <path d="M575.3 516.0 L575.3 516.3 L575.3 516.6 L575.6 516.6 L575.6 517.0 L575.6 517.3 L575.6 517.7 L575.6 518.0 L575.6 518.3 L576.0 518.3 L576.3 518.3 L576.6 518.3 L576.6 518.0 L576.6 517.7 L576.6 517.3 L576.6 517.0 L576.6 516.6 L576.6 516.3 L576.9 516.3 L577.2 516.3 L577.2 516.0 L577.6 516.0 L577.9 516.0 L578.2 516.0 L578.5 516.0 L578.5 515.6 L578.2 515.6 L577.9 515.6 L577.6 515.6 L577.2 515.6 L576.9 515.6 L576.6 515.6 L576.3 515.6 L576.0 515.6 L575.6 515.6 L575.3 515.6 L575.3 516.0 Z" fill="#2f8f83" fill-opacity="0.34" stroke="#0e5b52" stroke-width="1.6" />
  <path d="M576.0 519.4 L576.0 519.7 L576.0 520.0 L576.3 520.0 L576.3 520.4 L576.3 520.7 L576.6 520.7 L576.6 521.1 L576.6 521.4 L576.9 521.4 L577.2 521.4 L577.6 521.4 L577.6 521.7 L577.9 521.7 L578.2 521.7 L578.2 522.1 L578.5 522.1 L578.5 522.4 L578.5 522.8 L578.5 523.1 L578.8 523.1 L578.8 523.4 L578.8 523.8 L578.8 524.1 L578.8 524.5 L579.2 524.5 L579.5 524.5 L579.8 524.5 L580.1 524.5 L580.5 524.5 L580.8 524.5 L581.1 524.5 L581.1 524.1 L581.1 523.8 L580.8 523.8 L580.8 523.4 L580.5 523.4 L580.5 523.1 L580.1 523.1 L580.1 522.8 L579.8 522.8 L579.8 522.4 L579.5 522.4 L579.5 522.1 L579.2 522.1 L579.2 521.7 L579.2 521.4 L578.8 521.4 L578.8 521.1 L578.5 521.1 L578.5 520.7 L578.2 520.7 L578.2 520.4 L577.9 520.4 L577.9 520.0 L577.9 519.7 L577.6 519.7 L577.6 519.4 L577.6 519.0 L577.6 518.7 L577.6 518.3 L577.6 518.0 L577.2 518.0 L577.2 518.3 L577.2 518.7 L577.2 519.0 L576.9 519.0 L576.6 519.0 L576.3 519.0 L576.0 519.0 L576.0 519.4 Z" fill="#2f8f83" fill-opacity="0.34" stroke="#0e5b52" stroke-width="1.6" />
  <path d="M577.9 517.7 L577.9 518.0 L577.6 518.0 L577.6 518.3 L577.9 518.3 L578.2 518.3 L578.2 518.0 L578.2 517.7 L578.5 517.7 L578.5 517.3 L578.5 517.0 L578.5 516.6 L578.2 516.6 L578.2 517.0 L578.2 517.3 L577.9 517.3 L577.9 517.7 Z" fill="#2f8f83" fill-opacity="0.34" stroke="#0e5b52" stroke-width="1.6" />
  <path d="M566.0 500.6 L566.0 501.0 L566.0 501.3 L566.0 501.7 L566.3 501.7 L566.6 501.7 L567.0 501.7 L567.3 501.7 L567.6 501.7 L567.6 501.3 L567.6 501.0 L567.6 500.6 L567.6 500.3 L567.3 500.3 L567.0 500.3 L566.6 500.3 L566.3 500.3 L566.0 500.3 L566.0 500.6 Z" fill="#2f8f83" fill-opacity="0.34" stroke="#0e5b52" stroke-width="1.6" />
  <path d="M581.7 502.0 L581.7 502.3 L581.7 502.7 L582.1 502.7 L582.1 502.3 L582.1 502.0 L582.1 501.7 L581.7 501.7 L581.7 502.0 Z" fill="#2f8f83" fill-opacity="0.34" stroke="#0e5b52" stroke-width="1.6" />
  <path d="M582.7 504.7 L582.7 505.1 L583.0 505.1 L583.3 505.1 L583.3 505.4 L583.3 505.8 L583.3 506.1 L583.3 506.4 L583.3 506.8 L583.7 506.8 L584.0 506.8 L584.3 506.8 L584.6 506.8 L584.9 506.8 L585.3 506.8 L585.6 506.8 L585.9 506.8 L586.2 506.8 L586.6 506.8 L586.9 506.8 L586.9 506.4 L586.9 506.1 L587.2 506.1 L587.2 505.8 L587.5 505.8 L587.5 505.4 L587.8 505.4 L587.8 505.1 L587.8 504.7 L588.2 504.7 L588.2 504.4 L587.8 504.4 L587.5 504.4 L587.2 504.4 L586.9 504.4 L586.6 504.4 L586.2 504.4 L585.9 504.4 L585.6 504.4 L585.3 504.4 L584.9 504.4 L584.6 504.4 L584.3 504.4 L584.0 504.4 L583.7 504.4 L583.3 504.4 L583.0 504.4 L582.7 504.4 L582.7 504.7 Z" fill="#2f8f83" fill-opacity="0.34" stroke="#0e5b52" stroke-width="1.6" />
  <path d="M582.1 502.0 L582.1 502.3 L582.1 502.7 L582.4 502.7 L582.7 502.7 L582.7 503.0 L582.7 503.4 L582.7 503.7 L582.7 504.0 L582.7 504.4 L583.0 504.4 L583.3 504.4 L583.7 504.4 L584.0 504.4 L584.3 504.4 L584.6 504.4 L584.9 504.4 L585.3 504.4 L585.6 504.4 L585.9 504.4 L586.2 504.4 L586.6 504.4 L586.9 504.4 L587.2 504.4 L587.5 504.4 L587.8 504.4 L588.2 504.4 L588.2 504.0 L588.2 503.7 L587.8 503.7 L587.5 503.7 L587.5 503.4 L587.2 503.4 L586.9 503.4 L586.6 503.4 L586.6 503.0 L586.2 503.0 L586.2 502.7 L585.9 502.7 L585.6 502.7 L585.6 502.3 L585.3 502.3 L584.9 502.3 L584.9 502.0 L584.6 502.0 L584.3 502.0 L584.3 501.7 L584.0 501.7 L583.7 501.7 L583.3 501.7 L583.0 501.7 L582.7 501.7 L582.4 501.7 L582.1 501.7 L582.1 502.0 Z" fill="#2f8f83" fill-opacity="0.34" stroke="#0e5b52" stroke-width="1.6" />
  <path d="M422.1 127.2 L422.1 127.6 L422.4 127.6 L422.8 127.6 L423.1 127.6 L423.4 127.6 L423.7 127.6 L424.0 127.6 L424.4 127.6 L424.7 127.6 L425.0 127.6 L425.3 127.6 L425.6 127.6 L426.0 127.6 L426.3 127.6 L426.3 127.2 L426.3 126.8 L426.3 126.4 L426.3 126.0 L426.0 126.0 L425.6 126.0 L425.3 126.0 L425.0 126.0 L424.7 126.0 L424.4 126.0 L424.0 126.0 L423.7 126.0 L423.4 126.0 L423.1 126.0 L422.8 126.0 L422.4 126.0 L422.1 126.0 L422.1 126.4 L422.1 126.8 L422.1 127.2 Z" fill="#2f8f83" fill-opacity="0.34" stroke="#0e5b52" stroke-width="1.6" />
  <path d="M414.4 127.6 L414.4 127.9 L414.7 127.9 L415.1 127.9 L415.4 127.9 L415.7 127.9 L416.0 127.9 L416.3 127.9 L416.3 127.6 L416.3 127.2 L416.3 126.8 L416.3 126.4 L416.3 126.0 L416.3 125.7 L416.3 125.3 L416.3 124.9 L416.3 124.5 L416.3 124.2 L416.0 124.2 L415.7 124.2 L415.4 124.2 L415.1 124.2 L414.7 124.2 L414.4 124.2 L414.4 124.5 L414.4 124.9 L414.4 125.3 L414.4 125.7 L414.4 126.0 L414.4 126.4 L414.4 126.8 L414.4 127.2 L414.4 127.6 Z" fill="#2f8f83" fill-opacity="0.34" stroke="#0e5b52" stroke-width="1.6" />
  <path d="M411.8 124.9 L411.8 125.3 L412.2 125.3 L412.5 125.3 L412.8 125.3 L413.1 125.3 L413.1 125.7 L413.1 126.0 L413.1 126.4 L413.4 126.4 L413.8 126.4 L414.1 126.4 L414.4 126.4 L414.4 126.0 L414.4 125.7 L414.4 125.3 L414.4 124.9 L414.4 124.5 L414.4 124.2 L414.4 123.8 L414.4 123.4 L414.4 123.0 L414.4 122.6 L414.1 122.6 L413.8 122.6 L413.4 122.6 L413.1 122.6 L412.8 122.6 L412.5 122.6 L412.2 122.6 L411.8 122.6 L411.8 123.0 L411.8 123.4 L411.8 123.8 L411.8 124.2 L411.8 124.5 L411.8 124.9 Z" fill="#2f8f83" fill-opacity="0.34" stroke="#0e5b52" stroke-width="1.6" />
  <path d="M435.6 145.3 L435.6 145.6 L435.9 145.6 L436.2 145.6 L436.6 145.6 L436.6 146.0 L436.9 146.0 L437.2 146.0 L437.5 146.0 L437.9 146.0 L438.2 146.0 L438.5 146.0 L438.8 146.0 L439.1 146.0 L439.5 146.0 L439.5 145.6 L439.5 145.3 L439.5 144.9 L439.5 144.5 L439.5 144.1 L439.5 143.8 L439.5 143.4 L439.5 143.0 L439.1 143.0 L438.8 143.0 L438.5 143.0 L438.2 143.0 L437.9 143.0 L437.5 143.0 L437.2 143.0 L436.9 143.0 L436.6 143.0 L436.2 143.0 L435.9 143.0 L435.6 143.0 L435.6 143.4 L435.6 143.8 L435.6 144.1 L435.6 144.5 L435.6 144.9 L435.6 145.3 Z" fill="#2f8f83" fill-opacity="0.34" stroke="#0e5b52" stroke-width="1.6" />
  <path d="M432.7 142.6 L432.7 143.0 L433.0 143.0 L433.4 143.0 L433.7 143.0 L434.0 143.0 L434.3 143.0 L434.6 143.0 L435.0 143.0 L435.3 143.0 L435.6 143.0 L435.9 143.0 L436.2 143.0 L436.6 143.0 L436.9 143.0 L437.2 143.0 L437.5 143.0 L437.9 143.0 L437.9 142.6 L437.9 142.3 L437.9 141.9 L437.9 141.5 L437.9 141.1 L437.9 140.7 L437.5 140.7 L437.2 140.7 L436.9 140.7 L436.6 140.7 L436.2 140.7 L435.9 140.7 L435.6 140.7 L435.3 140.7 L435.0 140.7 L434.6 140.7 L434.3 140.7 L434.0 140.7 L433.7 140.7 L433.7 141.1 L433.4 141.1 L433.0 141.1 L432.7 141.1 L432.7 141.5 L432.7 141.9 L432.7 142.3 L432.7 142.6 Z" fill="#2f8f83" fill-opacity="0.34" stroke="#0e5b52" stroke-width="1.6" />
  <path d="M429.2 138.9 L429.2 139.2 L429.5 139.2 L429.8 139.2 L430.1 139.2 L430.5 139.2 L430.8 139.2 L431.1 139.2 L431.4 139.2 L431.8 139.2 L431.8 138.9 L432.1 138.9 L432.4 138.9 L432.7 138.9 L433.0 138.9 L433.0 139.2 L433.0 139.6 L433.0 140.0 L433.4 140.0 L433.7 140.0 L433.7 140.4 L433.7 140.7 L434.0 140.7 L434.3 140.7 L434.6 140.7 L435.0 140.7 L435.3 140.7 L435.6 140.7 L435.9 140.7 L436.2 140.7 L436.6 140.7 L436.9 140.7 L437.2 140.7 L437.5 140.7 L437.9 140.7 L437.9 140.4 L437.9 140.0 L437.9 139.6 L437.5 139.6 L437.2 139.6 L437.2 139.2 L436.9 139.2 L436.6 139.2 L436.2 139.2 L435.9 139.2 L435.9 138.9 L435.9 138.5 L435.6 138.5 L435.3 138.5 L435.0 138.5 L434.6 138.5 L434.3 138.5 L434.0 138.5 L433.7 138.5 L433.4 138.5 L433.0 138.5 L432.7 138.5 L432.4 138.5 L432.1 138.5 L431.8 138.5 L431.4 138.5 L431.1 138.5 L430.8 138.5 L430.5 138.5 L430.1 138.5 L429.8 138.5 L429.5 138.5 L429.2 138.5 L429.2 138.9 Z" fill="#2f8f83" fill-opacity="0.34" stroke="#0e5b52" stroke-width="1.6" />
  <path d="M439.5 145.6 L439.5 146.0 L439.8 146.0 L440.1 146.0 L440.4 146.0 L440.4 145.6 L440.4 145.3 L440.4 144.9 L440.4 144.5 L440.4 144.1 L440.4 143.8 L440.4 143.4 L440.4 143.0 L440.1 143.0 L439.8 143.0 L439.5 143.0 L439.5 143.4 L439.5 143.8 L439.5 144.1 L439.5 144.5 L439.5 144.9 L439.5 145.3 L439.5 145.6 Z" fill="#2f8f83" fill-opacity="0.34" stroke="#0e5b52" stroke-width="1.6" />
  <!-- title strip -->
  <rect x="0" y="0" width="1000" height="54" fill="#173042" />
  <text x="20" y="34" font-size="21" font-weight="bold" fill="#ffffff">Amarc Resources Ltd. — Mineral Claims</text>
  <text x="980" y="34" font-size="15" fill="#cfe3df" text-anchor="end">AHR</text>
  <!-- scale bar -->
  <g transform="translate(910, 596)">
    <rect x="0" y="0" width="25" height="8" fill="#173042" />
    <rect x="25" y="0" width="25" height="8" fill="#ffffff" stroke="#173042" stroke-width="1" />
    <text x="25" y="-6" font-size="12" fill="#173042" text-anchor="middle">50 km</text>
  </g>
  <!-- north arrow -->
  <g transform="translate(956, 92)">
    <circle r="17" fill="#ffffff" stroke="#b9b09a" />
    <path d="M0 -10 L5 7 L0 3 L-5 7 Z" fill="#173042" />
    <text y="14" font-size="9" font-weight="bold" fill="#173042" text-anchor="middle">N</text>
  </g>
  <!-- watermark -->
  <text x="20" y="620" font-size="13" fill="#7d8b8a">Map by Exploration Maps — explorationmaps.com</text>
</svg>