<svg xmlns="http://www.w3.org/2000/svg" viewBox="0 0 1000 640" font-family="Arial, Helvetica, sans-serif">
  <rect width="1000" height="640" fill="#f3efe6" />
  <line x1="200" y1="0" x2="200" y2="640" stroke="#d9d2c0" stroke-width="0.7" />
  <line x1="0" y1="128" x2="1000" y2="128" stroke="#d9d2c0" stroke-width="0.7" />
  <line x1="400" y1="0" x2="400" y2="640" stroke="#d9d2c0" stroke-width="0.7" />
  <line x1="0" y1="256" x2="1000" y2="256" stroke="#d9d2c0" stroke-width="0.7" />
  <line x1="600" y1="0" x2="600" y2="640" stroke="#d9d2c0" stroke-width="0.7" />
  <line x1="0" y1="384" x2="1000" y2="384" stroke="#d9d2c0" stroke-width="0.7" />
  <line x1="800" y1="0" x2="800" y2="640" stroke="#d9d2c0" stroke-width="0.7" />
  <line x1="0" y1="512" x2="1000" y2="512" stroke="#d9d2c0" stroke-width="0.7" />
  <path d="M435.9 176.7 L435.9 179.3 L435.9 182.0 L435.9 184.6 L435.9 187.2 L438.3 187.2 L440.8 187.2 L443.3 187.2 L445.7 187.2 L448.2 187.2 L448.2 184.6 L448.2 182.0 L448.2 179.3 L448.2 176.7 L448.2 174.1 L445.7 174.1 L443.3 174.1 L440.8 174.1 L438.3 174.1 L435.9 174.1 L435.9 176.7 Z" fill="#2f8f83" fill-opacity="0.34" stroke="#0e5b52" stroke-width="1.6" />
  <path d="M453.1 195.1 L453.1 197.8 L455.6 197.8 L458.1 197.8 L458.1 195.1 L458.1 192.5 L455.6 192.5 L453.1 192.5 L453.1 195.1 Z" fill="#2f8f83" fill-opacity="0.34" stroke="#0e5b52" stroke-width="1.6" />
  <path d="M416.1 187.2 L416.1 189.9 L418.6 189.9 L421.1 189.9 L423.5 189.9 L426.0 189.9 L428.5 189.9 L430.9 189.9 L433.4 189.9 L435.9 189.9 L438.3 189.9 L440.8 189.9 L443.3 189.9 L445.7 189.9 L448.2 189.9 L450.7 189.9 L450.7 187.2 L453.1 187.2 L455.6 187.2 L458.1 187.2 L460.5 187.2 L463.0 187.2 L465.5 187.2 L467.9 187.2 L470.4 187.2 L472.9 187.2 L472.9 184.6 L472.9 182.0 L472.9 179.3 L472.9 176.7 L472.9 174.1 L470.4 174.1 L467.9 174.1 L465.5 174.1 L463.0 174.1 L460.5 174.1 L458.1 174.1 L455.6 174.1 L453.1 174.1 L450.7 174.1 L448.2 174.1 L448.2 176.7 L448.2 179.3 L448.2 182.0 L448.2 184.6 L448.2 187.2 L445.7 187.2 L443.3 187.2 L440.8 187.2 L438.3 187.2 L435.9 187.2 L435.9 184.6 L435.9 182.0 L435.9 179.3 L435.9 176.7 L435.9 174.1 L433.4 174.1 L430.9 174.1 L428.5 174.1 L426.0 174.1 L423.5 174.1 L421.1 174.1 L418.6 174.1 L418.6 176.7 L418.6 179.3 L418.6 182.0 L418.6 184.6 L416.1 184.6 L416.1 187.2 Z" fill="#2f8f83" fill-opacity="0.34" stroke="#0e5b52" stroke-width="1.6" />
  <path d="M416.1 192.5 L416.1 195.1 L416.1 197.8 L416.1 200.4 L418.6 200.4 L421.1 200.4 L423.5 200.4 L426.0 200.4 L428.5 200.4 L430.9 200.4 L433.4 200.4 L435.9 200.4 L438.3 200.4 L440.8 200.4 L443.3 200.4 L445.7 200.4 L448.2 200.4 L450.7 200.4 L453.1 200.4 L455.6 200.4 L458.1 200.4 L460.5 200.4 L463.0 200.4 L465.5 200.4 L467.9 200.4 L470.4 200.4 L472.9 200.4 L472.9 197.8 L472.9 195.1 L472.9 192.5 L472.9 189.9 L472.9 187.2 L470.4 187.2 L467.9 187.2 L465.5 187.2 L463.0 187.2 L460.5 187.2 L458.1 187.2 L455.6 187.2 L453.1 187.2 L450.7 187.2 L450.7 189.9 L448.2 189.9 L445.7 189.9 L443.3 189.9 L440.8 189.9 L438.3 189.9 L435.9 189.9 L433.4 189.9 L430.9 189.9 L428.5 189.9 L426.0 189.9 L423.5 189.9 L421.1 189.9 L418.6 189.9 L416.1 189.9 L416.1 192.5 Z M453.1 192.5 L455.6 192.5 L458.1 192.5 L458.1 195.1 L458.1 197.8 L455.6 197.8 L453.1 197.8 L453.1 195.1 L453.1 192.5 Z" fill="#2f8f83" fill-opacity="0.34" stroke="#0e5b52" stroke-width="1.6" />
  <path d="M416.1 203.0 L416.1 205.6 L416.1 208.3 L416.1 210.9 L416.1 213.5 L416.1 216.2 L416.1 218.8 L416.1 221.4 L418.6 221.4 L421.1 221.4 L421.1 218.8 L421.1 216.2 L421.1 213.5 L421.1 210.9 L423.5 210.9 L426.0 210.9 L428.5 210.9 L430.9 210.9 L433.4 210.9 L435.9 210.9 L438.3 210.9 L440.8 210.9 L443.3 210.9 L445.7 210.9 L448.2 210.9 L450.7 210.9 L453.1 210.9 L455.6 210.9 L458.1 210.9 L460.5 210.9 L463.0 210.9 L465.5 210.9 L467.9 210.9 L470.4 210.9 L472.9 210.9 L472.9 208.3 L472.9 205.6 L472.9 203.0 L472.9 200.4 L470.4 200.4 L467.9 200.4 L465.5 200.4 L463.0 200.4 L460.5 200.4 L458.1 200.4 L455.6 200.4 L453.1 200.4 L450.7 200.4 L448.2 200.4 L445.7 200.4 L443.3 200.4 L440.8 200.4 L438.3 200.4 L435.9 200.4 L433.4 200.4 L430.9 200.4 L428.5 200.4 L426.0 200.4 L423.5 200.4 L421.1 200.4 L418.6 200.4 L416.1 200.4 L416.1 203.0 Z" fill="#2f8f83" fill-opacity="0.34" stroke="#0e5b52" stroke-width="1.6" />
  <path d="M421.1 213.5 L421.1 216.2 L421.1 218.8 L421.1 221.4 L423.5 221.4 L426.0 221.4 L428.5 221.4 L430.9 221.4 L433.4 221.4 L435.9 221.4 L438.3 221.4 L440.8 221.4 L443.3 221.4 L445.7 221.4 L448.2 221.4 L450.7 221.4 L453.1 221.4 L453.1 224.0 L455.6 224.0 L458.1 224.0 L458.1 226.7 L460.5 226.7 L463.0 226.7 L465.5 226.7 L467.9 226.7 L470.4 226.7 L472.9 226.7 L472.9 224.0 L472.9 221.4 L472.9 218.8 L472.9 216.2 L472.9 213.5 L472.9 210.9 L470.4 210.9 L467.9 210.9 L465.5 210.9 L463.0 210.9 L460.5 210.9 L458.1 210.9 L455.6 210.9 L453.1 210.9 L450.7 210.9 L448.2 210.9 L445.7 210.9 L443.3 210.9 L440.8 210.9 L438.3 210.9 L435.9 210.9 L433.4 210.9 L430.9 210.9 L428.5 210.9 L426.0 210.9 L423.5 210.9 L421.1 210.9 L421.1 213.5 Z" fill="#2f8f83" fill-opacity="0.34" stroke="#0e5b52" stroke-width="1.6" />
  <path d="M418.6 163.6 L418.6 166.2 L418.6 168.8 L418.6 171.4 L418.6 174.1 L421.1 174.1 L423.5 174.1 L426.0 174.1 L428.5 174.1 L430.9 174.1 L433.4 174.1 L435.9 174.1 L438.3 174.1 L440.8 174.1 L443.3 174.1 L445.7 174.1 L448.2 174.1 L450.7 174.1 L453.1 174.1 L455.6 174.1 L458.1 174.1 L460.5 174.1 L463.0 174.1 L465.5 174.1 L467.9 174.1 L467.9 171.4 L467.9 168.8 L467.9 166.2 L467.9 163.6 L467.9 160.9 L465.5 160.9 L463.0 160.9 L460.5 160.9 L458.1 160.9 L455.6 160.9 L453.1 160.9 L450.7 160.9 L448.2 160.9 L445.7 160.9 L443.3 160.9 L440.8 160.9 L438.3 160.9 L435.9 160.9 L433.4 160.9 L430.9 160.9 L428.5 160.9 L426.0 160.9 L423.5 160.9 L421.1 160.9 L418.6 160.9 L418.6 163.6 Z" fill="#2f8f83" fill-opacity="0.34" stroke="#0e5b52" stroke-width="1.6" />
  <path d="M428.5 224.0 L428.5 226.7 L428.5 229.3 L430.9 229.3 L433.4 229.3 L435.9 229.3 L438.3 229.3 L440.8 229.3 L443.3 229.3 L445.7 229.3 L448.2 229.3 L450.7 229.3 L450.7 226.7 L448.2 226.7 L445.7 226.7 L445.7 224.0 L445.7 221.4 L443.3 221.4 L440.8 221.4 L438.3 221.4 L435.9 221.4 L433.4 221.4 L430.9 221.4 L428.5 221.4 L428.5 224.0 Z" fill="#2f8f83" fill-opacity="0.34" stroke="#0e5b52" stroke-width="1.6" />
  <path d="M514.8 266.0 L512.3 266.0 L512.3 268.7 L514.8 268.7 L514.8 266.0 Z" fill="#2f8f83" fill-opacity="0.34" stroke="#0e5b52" stroke-width="1.6" />
  <path d="M482.7 258.2 L482.7 260.8 L482.7 263.4 L482.7 266.0 L485.2 266.0 L487.7 266.0 L490.1 266.0 L490.1 263.4 L492.6 263.4 L495.1 263.4 L497.5 263.4 L497.5 266.0 L497.5 268.7 L500.0 268.7 L500.0 271.3 L502.5 271.3 L502.5 273.9 L502.5 276.5 L504.9 276.5 L504.9 279.1 L507.4 279.1 L507.4 281.8 L509.9 281.8 L509.9 284.4 L512.3 284.4 L512.3 287.0 L512.3 289.6 L512.3 292.3 L512.3 294.9 L512.3 297.5 L512.3 300.1 L514.8 300.1 L517.3 300.1 L519.7 300.1 L519.7 297.5 L519.7 294.9 L522.2 294.9 L522.2 292.3 L522.2 289.6 L524.7 289.6 L524.7 287.0 L524.7 284.4 L524.7 281.8 L522.2 281.8 L519.7 281.8 L519.7 279.1 L517.3 279.1 L517.3 276.5 L514.8 276.5 L514.8 273.9 L514.8 271.3 L514.8 268.7 L512.3 268.7 L509.9 268.7 L509.9 266.0 L507.4 266.0 L504.9 266.0 L502.5 266.0 L502.5 263.4 L500.0 263.4 L500.0 260.8 L497.5 260.8 L497.5 258.2 L497.5 255.5 L495.1 255.5 L492.6 255.5 L490.1 255.5 L487.7 255.5 L485.2 255.5 L482.7 255.5 L482.7 258.2 Z" fill="#2f8f83" fill-opacity="0.34" stroke="#0e5b52" stroke-width="1.6" />
  <path d="M450.7 229.3 L448.2 229.3 L448.2 231.9 L450.7 231.9 L450.7 234.5 L453.1 234.5 L453.1 237.2 L453.1 239.8 L455.6 239.8 L458.1 239.8 L460.5 239.8 L460.5 242.4 L463.0 242.4 L465.5 242.4 L467.9 242.4 L470.4 242.4 L472.9 242.4 L472.9 245.0 L472.9 247.7 L472.9 250.3 L475.3 250.3 L477.8 250.3 L480.3 250.3 L480.3 252.9 L480.3 255.5 L480.3 258.2 L482.7 258.2 L482.7 255.5 L482.7 252.9 L482.7 250.3 L482.7 247.7 L480.3 247.7 L477.8 247.7 L475.3 247.7 L475.3 245.0 L475.3 242.4 L475.3 239.8 L472.9 239.8 L470.4 239.8 L467.9 239.8 L465.5 239.8 L463.0 239.8 L463.0 237.2 L460.5 237.2 L458.1 237.2 L455.6 237.2 L455.6 234.5 L455.6 231.9 L453.1 231.9 L453.1 229.3 L450.7 229.3 Z" fill="#2f8f83" fill-opacity="0.34" stroke="#0e5b52" stroke-width="1.6" />
  <path d="M438.3 229.3 L435.9 229.3 L435.9 231.9 L438.3 231.9 L438.3 234.5 L440.8 234.5 L440.8 237.2 L440.8 239.8 L443.3 239.8 L443.3 242.4 L445.7 242.4 L445.7 245.0 L445.7 247.7 L448.2 247.7 L448.2 250.3 L450.7 250.3 L450.7 252.9 L453.1 252.9 L453.1 255.5 L455.6 255.5 L458.1 255.5 L458.1 258.2 L460.5 258.2 L463.0 258.2 L465.5 258.2 L467.9 258.2 L470.4 258.2 L472.9 258.2 L475.3 258.2 L477.8 258.2 L480.3 258.2 L480.3 255.5 L480.3 252.9 L480.3 250.3 L477.8 250.3 L475.3 250.3 L472.9 250.3 L472.9 247.7 L472.9 245.0 L472.9 242.4 L470.4 242.4 L467.9 242.4 L465.5 242.4 L463.0 242.4 L460.5 242.4 L460.5 239.8 L458.1 239.8 L455.6 239.8 L453.1 239.8 L453.1 237.2 L453.1 234.5 L450.7 234.5 L450.7 231.9 L448.2 231.9 L448.2 229.3 L445.7 229.3 L443.3 229.3 L440.8 229.3 L438.3 229.3 Z" fill="#2f8f83" fill-opacity="0.34" stroke="#0e5b52" stroke-width="1.6" />
  <path d="M537.0 281.8 L534.5 281.8 L534.5 284.4 L537.0 284.4 L539.5 284.4 L539.5 287.0 L539.5 289.6 L541.9 289.6 L541.9 292.3 L544.4 292.3 L546.9 292.3 L549.3 292.3 L551.8 292.3 L554.3 292.3 L554.3 294.9 L556.7 294.9 L559.2 294.9 L561.7 294.9 L561.7 297.5 L561.7 300.1 L564.1 300.1 L566.6 300.1 L566.6 297.5 L566.6 294.9 L566.6 292.3 L566.6 289.6 L566.6 287.0 L569.1 287.0 L571.5 287.0 L571.5 284.4 L571.5 281.8 L571.5 279.1 L571.5 276.5 L571.5 273.9 L569.1 273.9 L566.6 273.9 L564.1 273.9 L561.7 273.9 L559.2 273.9 L556.7 273.9 L554.3 273.9 L551.8 273.9 L549.3 273.9 L549.3 276.5 L546.9 276.5 L546.9 279.1 L544.4 279.1 L544.4 281.8 L541.9 281.8 L539.5 281.8 L537.0 281.8 Z" fill="#2f8f83" fill-opacity="0.34" stroke="#0e5b52" stroke-width="1.6" />
  <path d="M492.6 344.6 L492.6 347.2 L492.6 349.9 L492.6 352.5 L492.6 355.1 L492.6 357.7 L492.6 360.3 L495.1 360.3 L497.5 360.3 L500.0 360.3 L502.5 360.3 L504.9 360.3 L507.4 360.3 L509.9 360.3 L512.3 360.3 L512.3 357.7 L512.3 355.1 L514.8 355.1 L514.8 352.5 L517.3 352.5 L517.3 349.9 L517.3 347.2 L519.7 347.2 L519.7 344.6 L519.7 342.0 L517.3 342.0 L514.8 342.0 L512.3 342.0 L509.9 342.0 L507.4 342.0 L504.9 342.0 L502.5 342.0 L500.0 342.0 L497.5 342.0 L495.1 342.0 L492.6 342.0 L492.6 344.6 Z" fill="#2f8f83" fill-opacity="0.34" stroke="#0e5b52" stroke-width="1.6" />
  <path d="M534.5 271.3 L534.5 273.9 L534.5 276.5 L534.5 279.1 L537.0 279.1 L537.0 276.5 L539.5 276.5 L539.5 273.9 L539.5 271.3 L539.5 268.7 L537.0 268.7 L534.5 268.7 L534.5 271.3 Z" fill="#2f8f83" fill-opacity="0.34" stroke="#0e5b52" stroke-width="1.6" />
  <path d="M514.8 368.2 L514.8 370.8 L514.8 373.4 L517.3 373.4 L517.3 376.0 L517.3 378.6 L517.3 381.2 L517.3 383.8 L519.7 383.8 L519.7 386.5 L522.2 386.5 L522.2 389.1 L524.7 389.1 L524.7 391.7 L524.7 394.3 L527.1 394.3 L529.6 394.3 L532.1 394.3 L532.1 391.7 L534.5 391.7 L537.0 391.7 L539.5 391.7 L541.9 391.7 L541.9 389.1 L541.9 386.5 L541.9 383.8 L541.9 381.2 L541.9 378.6 L541.9 376.0 L539.5 376.0 L539.5 373.4 L537.0 373.4 L537.0 370.8 L534.5 370.8 L534.5 368.2 L534.5 365.6 L532.1 365.6 L532.1 362.9 L532.1 360.3 L532.1 357.7 L529.6 357.7 L527.1 357.7 L527.1 360.3 L527.1 362.9 L524.7 362.9 L522.2 362.9 L519.7 362.9 L519.7 365.6 L517.3 365.6 L514.8 365.6 L514.8 368.2 Z" fill="#2f8f83" fill-opacity="0.34" stroke="#0e5b52" stroke-width="1.6" />
  <path d="M487.7 373.4 L485.2 373.4 L485.2 376.0 L487.7 376.0 L490.1 376.0 L492.6 376.0 L495.1 376.0 L497.5 376.0 L500.0 376.0 L502.5 376.0 L504.9 376.0 L507.4 376.0 L507.4 378.6 L507.4 381.2 L507.4 383.8 L507.4 386.5 L507.4 389.1 L507.4 391.7 L507.4 394.3 L507.4 396.9 L507.4 399.5 L509.9 399.5 L509.9 402.1 L512.3 402.1 L514.8 402.1 L517.3 402.1 L519.7 402.1 L519.7 404.7 L522.2 404.7 L524.7 404.7 L527.1 404.7 L527.1 407.4 L529.6 407.4 L532.1 407.4 L534.5 407.4 L537.0 407.4 L537.0 404.7 L537.0 402.1 L537.0 399.5 L537.0 396.9 L539.5 396.9 L541.9 396.9 L541.9 394.3 L541.9 391.7 L539.5 391.7 L537.0 391.7 L537.0 394.3 L534.5 394.3 L532.1 394.3 L529.6 394.3 L527.1 394.3 L524.7 394.3 L524.7 391.7 L524.7 389.1 L522.2 389.1 L522.2 386.5 L519.7 386.5 L519.7 383.8 L517.3 383.8 L517.3 381.2 L517.3 378.6 L517.3 376.0 L517.3 373.4 L514.8 373.4 L512.3 373.4 L509.9 373.4 L507.4 373.4 L504.9 373.4 L502.5 373.4 L500.0 373.4 L497.5 373.4 L495.1 373.4 L492.6 373.4 L490.1 373.4 L487.7 373.4 Z" fill="#2f8f83" fill-opacity="0.34" stroke="#0e5b52" stroke-width="1.6" />
  <path d="M509.9 404.7 L509.9 407.4 L509.9 410.0 L509.9 412.6 L509.9 415.2 L512.3 415.2 L514.8 415.2 L517.3 415.2 L517.3 417.8 L517.3 420.4 L519.7 420.4 L522.2 420.4 L524.7 420.4 L527.1 420.4 L529.6 420.4 L529.6 417.8 L529.6 415.2 L529.6 412.6 L529.6 410.0 L529.6 407.4 L527.1 407.4 L527.1 404.7 L524.7 404.7 L522.2 404.7 L519.7 404.7 L519.7 402.1 L517.3 402.1 L514.8 402.1 L512.3 402.1 L509.9 402.1 L509.9 404.7 Z" fill="#2f8f83" fill-opacity="0.34" stroke="#0e5b52" stroke-width="1.6" />
  <path d="M541.9 302.7 L541.9 305.4 L541.9 308.0 L544.4 308.0 L544.4 310.6 L546.9 310.6 L549.3 310.6 L551.8 310.6 L551.8 308.0 L551.8 305.4 L549.3 305.4 L546.9 305.4 L546.9 302.7 L546.9 300.1 L544.4 300.1 L541.9 300.1 L541.9 302.7 Z" fill="#2f8f83" fill-opacity="0.34" stroke="#0e5b52" stroke-width="1.6" />
  <path d="M532.1 260.8 L532.1 263.4 L532.1 266.0 L534.5 266.0 L534.5 268.7 L537.0 268.7 L539.5 268.7 L539.5 271.3 L539.5 273.9 L539.5 276.5 L537.0 276.5 L537.0 279.1 L537.0 281.8 L539.5 281.8 L541.9 281.8 L544.4 281.8 L544.4 279.1 L546.9 279.1 L546.9 276.5 L549.3 276.5 L549.3 273.9 L551.8 273.9 L554.3 273.9 L556.7 273.9 L559.2 273.9 L561.7 273.9 L564.1 273.9 L566.6 273.9 L569.1 273.9 L569.1 271.3 L569.1 268.7 L571.5 268.7 L571.5 266.0 L571.5 263.4 L571.5 260.8 L571.5 258.2 L569.1 258.2 L566.6 258.2 L564.1 258.2 L561.7 258.2 L559.2 258.2 L556.7 258.2 L554.3 258.2 L551.8 258.2 L549.3 258.2 L546.9 258.2 L544.4 258.2 L541.9 258.2 L539.5 258.2 L537.0 258.2 L534.5 258.2 L532.1 258.2 L532.1 260.8 Z" fill="#2f8f83" fill-opacity="0.34" stroke="#0e5b52" stroke-width="1.6" />
  <path d="M556.7 242.4 L556.7 245.0 L556.7 247.7 L556.7 250.3 L556.7 252.9 L556.7 255.5 L556.7 258.2 L559.2 258.2 L561.7 258.2 L564.1 258.2 L566.6 258.2 L569.1 258.2 L571.5 258.2 L571.5 260.8 L571.5 263.4 L571.5 266.0 L571.5 268.7 L574.0 268.7 L574.0 266.0 L576.5 266.0 L578.9 266.0 L578.9 263.4 L578.9 260.8 L578.9 258.2 L578.9 255.5 L578.9 252.9 L576.5 252.9 L574.0 252.9 L571.5 252.9 L571.5 250.3 L571.5 247.7 L571.5 245.0 L571.5 242.4 L571.5 239.8 L569.1 239.8 L566.6 239.8 L564.1 239.8 L561.7 239.8 L559.2 239.8 L556.7 239.8 L556.7 242.4 Z" fill="#2f8f83" fill-opacity="0.34" stroke="#0e5b52" stroke-width="1.6" />
  <path d="M549.3 237.2 L549.3 239.8 L549.3 242.4 L549.3 245.0 L551.8 245.0 L554.3 245.0 L556.7 245.0 L556.7 242.4 L556.7 239.8 L559.2 239.8 L561.7 239.8 L564.1 239.8 L566.6 239.8 L569.1 239.8 L571.5 239.8 L571.5 242.4 L571.5 245.0 L571.5 247.7 L571.5 250.3 L571.5 252.9 L574.0 252.9 L576.5 252.9 L578.9 252.9 L578.9 255.5 L578.9 258.2 L578.9 260.8 L578.9 263.4 L578.9 266.0 L581.4 266.0 L581.4 268.7 L583.9 268.7 L586.3 268.7 L586.3 266.0 L586.3 263.4 L586.3 260.8 L586.3 258.2 L586.3 255.5 L586.3 252.9 L583.9 252.9 L583.9 250.3 L583.9 247.7 L581.4 247.7 L581.4 245.0 L581.4 242.4 L581.4 239.8 L581.4 237.2 L581.4 234.5 L578.9 234.5 L576.5 234.5 L574.0 234.5 L571.5 234.5 L569.1 234.5 L566.6 234.5 L564.1 234.5 L561.7 234.5 L559.2 234.5 L556.7 234.5 L554.3 234.5 L551.8 234.5 L549.3 234.5 L549.3 237.2 Z" fill="#2f8f83" fill-opacity="0.34" stroke="#0e5b52" stroke-width="1.6" />
  <path d="M546.9 231.9 L546.9 234.5 L546.9 237.2 L549.3 237.2 L549.3 234.5 L551.8 234.5 L554.3 234.5 L556.7 234.5 L559.2 234.5 L561.7 234.5 L561.7 231.9 L561.7 229.3 L559.2 229.3 L556.7 229.3 L554.3 229.3 L551.8 229.3 L549.3 229.3 L546.9 229.3 L546.9 231.9 Z" fill="#2f8f83" fill-opacity="0.34" stroke="#0e5b52" stroke-width="1.6" />
  <path d="M541.9 255.5 L541.9 258.2 L544.4 258.2 L546.9 258.2 L549.3 258.2 L551.8 258.2 L554.3 258.2 L556.7 258.2 L556.7 255.5 L556.7 252.9 L556.7 250.3 L556.7 247.7 L556.7 245.0 L554.3 245.0 L551.8 245.0 L549.3 245.0 L549.3 247.7 L549.3 250.3 L549.3 252.9 L546.9 252.9 L544.4 252.9 L541.9 252.9 L541.9 255.5 Z" fill="#2f8f83" fill-opacity="0.34" stroke="#0e5b52" stroke-width="1.6" />
  <path d="M537.0 279.1 L534.5 279.1 L534.5 281.8 L537.0 281.8 L537.0 279.1 Z" fill="#2f8f83" fill-opacity="0.34" stroke="#0e5b52" stroke-width="1.6" />
  <path d="M490.1 412.6 L490.1 415.2 L490.1 417.8 L492.6 417.8 L495.1 417.8 L497.5 417.8 L497.5 420.4 L497.5 423.0 L497.5 425.6 L497.5 428.2 L495.1 428.2 L495.1 430.8 L495.1 433.4 L495.1 436.1 L495.1 438.7 L497.5 438.7 L500.0 438.7 L500.0 441.3 L500.0 443.9 L502.5 443.9 L504.9 443.9 L507.4 443.9 L509.9 443.9 L512.3 443.9 L514.8 443.9 L517.3 443.9 L519.7 443.9 L522.2 443.9 L522.2 441.3 L522.2 438.7 L522.2 436.1 L522.2 433.4 L522.2 430.8 L519.7 430.8 L517.3 430.8 L514.8 430.8 L512.3 430.8 L509.9 430.8 L507.4 430.8 L504.9 430.8 L504.9 428.2 L504.9 425.6 L507.4 425.6 L507.4 423.0 L509.9 423.0 L512.3 423.0 L512.3 420.4 L512.3 417.8 L512.3 415.2 L509.9 415.2 L509.9 412.6 L509.9 410.0 L507.4 410.0 L504.9 410.0 L502.5 410.0 L500.0 410.0 L497.5 410.0 L495.1 410.0 L492.6 410.0 L490.1 410.0 L490.1 412.6 Z" fill="#2f8f83" fill-opacity="0.34" stroke="#0e5b52" stroke-width="1.6" />
  <path d="M519.7 362.9 L517.3 362.9 L517.3 365.6 L519.7 365.6 L519.7 362.9 Z" fill="#2f8f83" fill-opacity="0.34" stroke="#0e5b52" stroke-width="1.6" />
  <path d="M504.9 428.2 L504.9 430.8 L507.4 430.8 L509.9 430.8 L512.3 430.8 L512.3 428.2 L512.3 425.6 L512.3 423.0 L509.9 423.0 L507.4 423.0 L507.4 425.6 L504.9 425.6 L504.9 428.2 Z" fill="#2f8f83" fill-opacity="0.34" stroke="#0e5b52" stroke-width="1.6" />
  <path d="M586.3 268.7 L586.3 271.3 L586.3 273.9 L588.8 273.9 L588.8 276.5 L591.3 276.5 L591.3 273.9 L591.3 271.3 L591.3 268.7 L588.8 268.7 L588.8 266.0 L586.3 266.0 L586.3 268.7 Z" fill="#2f8f83" fill-opacity="0.34" stroke="#0e5b52" stroke-width="1.6" />
  <path d="M512.3 258.2 L512.3 260.8 L512.3 263.4 L514.8 263.4 L514.8 260.8 L514.8 258.2 L514.8 255.5 L512.3 255.5 L512.3 258.2 Z" fill="#2f8f83" fill-opacity="0.34" stroke="#0e5b52" stroke-width="1.6" />
  <path d="M512.3 266.0 L509.9 266.0 L509.9 268.7 L512.3 268.7 L512.3 266.0 Z" fill="#2f8f83" fill-opacity="0.34" stroke="#0e5b52" stroke-width="1.6" />
  <path d="M453.1 155.7 L453.1 158.3 L453.1 160.9 L455.6 160.9 L458.1 160.9 L460.5 160.9 L463.0 160.9 L465.5 160.9 L467.9 160.9 L467.9 163.6 L467.9 166.2 L467.9 168.8 L467.9 171.4 L467.9 174.1 L470.4 174.1 L472.9 174.1 L472.9 171.4 L472.9 168.8 L472.9 166.2 L472.9 163.6 L475.3 163.6 L475.3 160.9 L475.3 158.3 L475.3 155.7 L475.3 153.0 L475.3 150.4 L475.3 147.8 L475.3 145.1 L475.3 142.5 L475.3 139.8 L472.9 139.8 L470.4 139.8 L470.4 142.5 L467.9 142.5 L465.5 142.5 L465.5 145.1 L463.0 145.1 L463.0 147.8 L460.5 147.8 L460.5 150.4 L460.5 153.0 L458.1 153.0 L455.6 153.0 L453.1 153.0 L453.1 155.7 Z" fill="#2f8f83" fill-opacity="0.34" stroke="#0e5b52" stroke-width="1.6" />
  <path d="M411.2 142.5 L411.2 145.1 L413.7 145.1 L413.7 147.8 L413.7 150.4 L416.1 150.4 L416.1 153.0 L416.1 155.7 L418.6 155.7 L418.6 158.3 L421.1 158.3 L421.1 160.9 L423.5 160.9 L426.0 160.9 L428.5 160.9 L430.9 160.9 L433.4 160.9 L435.9 160.9 L438.3 160.9 L440.8 160.9 L440.8 158.3 L440.8 155.7 L440.8 153.0 L443.3 153.0 L445.7 153.0 L445.7 155.7 L443.3 155.7 L443.3 158.3 L443.3 160.9 L445.7 160.9 L448.2 160.9 L450.7 160.9 L453.1 160.9 L453.1 158.3 L453.1 155.7 L453.1 153.0 L455.6 153.0 L458.1 153.0 L460.5 153.0 L460.5 150.4 L458.1 150.4 L455.6 150.4 L453.1 150.4 L450.7 150.4 L448.2 150.4 L445.7 150.4 L445.7 147.8 L443.3 147.8 L440.8 147.8 L440.8 145.1 L440.8 142.5 L438.3 142.5 L435.9 142.5 L433.4 142.5 L430.9 142.5 L430.9 139.8 L428.5 139.8 L426.0 139.8 L423.5 139.8 L421.1 139.8 L418.6 139.8 L416.1 139.9 L413.7 139.9 L411.2 139.9 L411.2 142.5 Z" fill="#2f8f83" fill-opacity="0.34" stroke="#0e5b52" stroke-width="1.6" />
  <path d="M406.3 129.3 L406.3 131.9 L406.3 134.6 L408.7 134.6 L408.7 137.2 L408.7 139.9 L411.2 139.9 L413.7 139.9 L416.1 139.9 L418.6 139.8 L421.1 139.8 L423.5 139.8 L426.0 139.8 L428.5 139.8 L430.9 139.8 L430.9 142.5 L433.4 142.5 L435.9 142.5 L438.3 142.5 L438.3 139.8 L438.3 137.2 L438.3 134.6 L438.3 131.9 L438.3 129.3 L440.8 129.3 L443.3 129.3 L445.7 129.3 L448.2 129.3 L448.2 126.7 L445.7 126.7 L443.3 126.7 L440.8 126.7 L440.8 124.0 L438.3 124.0 L435.9 124.0 L435.9 121.4 L433.4 121.4 L430.9 121.4 L428.5 121.4 L426.0 121.4 L426.0 118.8 L423.5 118.8 L421.1 118.8 L418.6 118.8 L416.1 118.8 L413.7 118.8 L411.2 118.8 L411.2 121.4 L408.7 121.4 L408.7 124.0 L408.7 126.7 L406.3 126.7 L406.3 129.3 Z" fill="#2f8f83" fill-opacity="0.34" stroke="#0e5b52" stroke-width="1.6" />
  <path d="M438.3 131.9 L438.3 134.6 L438.3 137.2 L438.3 139.8 L438.3 142.5 L440.8 142.5 L440.8 145.1 L440.8 147.8 L443.3 147.8 L445.7 147.8 L445.7 150.4 L448.2 150.4 L450.7 150.4 L453.1 150.4 L455.6 150.4 L458.1 150.4 L460.5 150.4 L460.5 147.8 L463.0 147.8 L463.0 145.1 L465.5 145.1 L465.5 142.5 L465.5 139.8 L465.5 137.2 L465.5 134.6 L465.5 131.9 L465.5 129.3 L463.0 129.3 L460.5 129.3 L458.1 129.3 L455.6 129.3 L455.6 126.7 L453.1 126.7 L450.7 126.7 L448.2 126.7 L448.2 129.3 L445.7 129.3 L443.3 129.3 L440.8 129.3 L438.3 129.3 L438.3 131.9 Z" fill="#2f8f83" fill-opacity="0.34" stroke="#0e5b52" stroke-width="1.6" />
  <path d="M467.9 281.8 L467.9 284.4 L470.4 284.4 L470.4 287.0 L470.4 289.6 L472.9 289.6 L472.9 292.3 L472.9 294.9 L472.9 297.5 L475.3 297.5 L475.3 300.1 L475.3 302.7 L477.8 302.7 L477.8 305.4 L477.8 308.0 L480.3 308.0 L482.7 308.0 L485.2 308.0 L487.7 308.0 L490.1 308.0 L492.6 308.0 L495.1 308.0 L497.5 308.0 L497.5 305.4 L497.5 302.7 L497.5 300.1 L497.5 297.5 L497.5 294.9 L497.5 292.3 L497.5 289.6 L495.1 289.6 L495.1 287.0 L492.6 287.0 L492.6 284.4 L490.1 284.4 L490.1 281.8 L487.7 281.8 L487.7 279.2 L485.2 279.2 L482.7 279.2 L480.3 279.2 L477.8 279.2 L475.3 279.2 L472.9 279.2 L470.4 279.2 L467.9 279.2 L467.9 281.8 Z" fill="#2f8f83" fill-opacity="0.34" stroke="#0e5b52" stroke-width="1.6" />
  <path d="M467.9 276.5 L465.5 276.5 L465.5 279.2 L467.9 279.2 L470.4 279.2 L472.9 279.2 L475.3 279.2 L477.8 279.2 L480.3 279.2 L482.7 279.2 L485.2 279.2 L487.7 279.2 L487.7 281.8 L490.1 281.8 L490.1 284.4 L492.6 284.4 L492.6 287.0 L495.1 287.0 L495.1 289.6 L497.5 289.6 L497.5 292.3 L497.5 294.9 L497.5 297.5 L497.5 300.1 L497.5 302.7 L497.5 305.4 L497.5 308.0 L495.1 308.0 L492.6 308.0 L490.1 308.0 L487.7 308.0 L487.7 310.6 L487.7 313.2 L490.1 313.2 L492.6 313.2 L495.1 313.2 L497.5 313.2 L500.0 313.2 L502.5 313.2 L502.5 310.6 L502.5 308.0 L504.9 308.0 L504.9 305.4 L507.4 305.4 L509.9 305.4 L509.9 302.7 L512.3 302.7 L512.3 300.1 L512.3 297.5 L512.3 294.9 L512.3 292.3 L512.3 289.6 L512.3 287.0 L512.3 284.4 L509.9 284.4 L509.9 281.8 L507.4 281.8 L507.4 279.1 L504.9 279.1 L504.9 276.5 L502.5 276.5 L500.0 276.5 L497.5 276.5 L495.1 276.5 L492.6 276.5 L490.1 276.5 L487.7 276.5 L485.2 276.5 L482.7 276.5 L480.3 276.5 L477.8 276.5 L475.3 276.5 L472.9 276.5 L470.4 276.5 L467.9 276.5 Z" fill="#2f8f83" fill-opacity="0.34" stroke="#0e5b52" stroke-width="1.6" />
  <path d="M465.5 131.9 L465.5 134.6 L465.5 137.2 L465.5 139.8 L465.5 142.5 L467.9 142.5 L470.4 142.5 L470.4 139.8 L472.9 139.8 L475.3 139.8 L477.8 139.8 L477.8 137.2 L480.3 137.2 L480.3 134.6 L482.7 134.6 L482.7 131.9 L485.2 131.9 L485.2 129.3 L487.7 129.3 L487.7 126.7 L487.7 124.0 L485.2 124.0 L485.2 126.7 L482.7 126.7 L480.3 126.7 L477.8 126.7 L475.3 126.7 L472.9 126.7 L472.9 129.3 L470.4 129.3 L467.9 129.3 L465.5 129.3 L465.5 131.9 Z" fill="#2f8f83" fill-opacity="0.34" stroke="#0e5b52" stroke-width="1.6" />
  <path d="M569.1 271.3 L569.1 273.9 L571.5 273.9 L571.5 276.5 L571.5 279.1 L571.5 281.8 L571.5 284.4 L571.5 287.0 L574.0 287.0 L576.5 287.0 L578.9 287.0 L581.4 287.0 L583.9 287.0 L586.3 287.0 L588.8 287.0 L591.3 287.0 L593.7 287.0 L593.7 284.4 L593.7 281.8 L593.7 279.1 L593.7 276.5 L593.7 273.9 L591.3 273.9 L591.3 276.5 L588.8 276.5 L588.8 273.9 L586.3 273.9 L586.3 271.3 L586.3 268.7 L583.9 268.7 L581.4 268.7 L581.4 266.0 L578.9 266.0 L576.5 266.0 L574.0 266.0 L574.0 268.7 L571.5 268.7 L569.1 268.7 L569.1 271.3 Z" fill="#2f8f83" fill-opacity="0.34" stroke="#0e5b52" stroke-width="1.6" />
  <path d="M519.7 273.9 L519.7 276.5 L522.2 276.5 L522.2 273.9 L522.2 271.3 L519.7 271.3 L519.7 273.9 Z" fill="#2f8f83" fill-opacity="0.34" stroke="#0e5b52" stroke-width="1.6" />
  <path d="M517.3 263.4 L514.8 263.4 L514.8 266.0 L517.3 266.0 L519.7 266.0 L519.7 263.4 L517.3 263.4 Z" fill="#2f8f83" fill-opacity="0.34" stroke="#0e5b52" stroke-width="1.6" />
  <path d="M507.4 255.5 L507.4 258.2 L507.4 260.8 L507.4 263.4 L509.9 263.4 L512.3 263.4 L512.3 260.8 L512.3 258.2 L512.3 255.5 L512.3 252.9 L509.9 252.9 L507.4 252.9 L507.4 255.5 Z" fill="#2f8f83" fill-opacity="0.34" stroke="#0e5b52" stroke-width="1.6" />
  <path d="M507.4 260.8 L504.9 260.8 L504.9 263.4 L507.4 263.4 L507.4 260.8 Z" fill="#2f8f83" fill-opacity="0.34" stroke="#0e5b52" stroke-width="1.6" />
  <path d="M514.8 263.4 L512.3 263.4 L512.3 266.0 L514.8 266.0 L514.8 263.4 Z" fill="#2f8f83" fill-opacity="0.34" stroke="#0e5b52" stroke-width="1.6" />
  <path d="M502.5 260.8 L500.0 260.8 L500.0 263.4 L502.5 263.4 L502.5 266.0 L504.9 266.0 L507.4 266.0 L507.4 263.4 L504.9 263.4 L504.9 260.8 L502.5 260.8 Z" fill="#2f8f83" fill-opacity="0.34" stroke="#0e5b52" stroke-width="1.6" />
  <path d="M509.9 263.4 L507.4 263.4 L507.4 266.0 L509.9 266.0 L512.3 266.0 L512.3 263.4 L509.9 263.4 Z" fill="#2f8f83" fill-opacity="0.34" stroke="#0e5b52" stroke-width="1.6" />
  <path d="M509.9 250.3 L507.4 250.3 L507.4 252.9 L509.9 252.9 L512.3 252.9 L512.3 250.3 L509.9 250.3 Z" fill="#2f8f83" fill-opacity="0.34" stroke="#0e5b52" stroke-width="1.6" />
  <path d="M546.9 483.0 L546.9 485.6 L546.9 488.2 L546.9 490.8 L546.9 493.4 L546.9 496.0 L546.9 498.6 L546.9 501.2 L546.9 503.8 L546.9 506.4 L546.9 509.0 L546.9 511.6 L549.3 511.6 L549.3 514.2 L549.3 516.8 L551.8 516.8 L554.3 516.8 L556.7 516.8 L559.2 516.8 L559.2 514.2 L561.7 514.2 L564.1 514.2 L564.1 511.6 L566.6 511.6 L569.1 511.6 L569.1 509.0 L571.5 509.0 L574.0 509.0 L574.0 506.4 L576.5 506.4 L578.9 506.4 L578.9 503.8 L576.5 503.8 L574.0 503.8 L571.5 503.8 L571.5 501.2 L571.5 498.6 L569.1 498.6 L569.1 496.0 L566.6 496.0 L566.6 493.4 L564.1 493.4 L564.1 490.8 L561.7 490.8 L559.2 490.8 L559.2 488.2 L556.7 488.2 L556.7 485.6 L554.3 485.6 L554.3 483.0 L551.8 483.0 L549.3 483.0 L549.3 480.4 L546.9 480.4 L546.9 483.0 Z" fill="#2f8f83" fill-opacity="0.34" stroke="#0e5b52" stroke-width="1.6" />
  <path d="M524.7 483.0 L524.7 485.6 L524.7 488.2 L527.1 488.2 L527.1 490.8 L527.1 493.4 L529.6 493.4 L529.6 496.0 L529.6 498.6 L532.1 498.6 L532.1 501.2 L534.5 501.2 L534.5 503.8 L534.5 506.4 L537.0 506.4 L537.0 509.0 L537.0 511.6 L539.5 511.6 L539.5 514.2 L539.5 516.8 L541.9 516.8 L541.9 519.4 L541.9 522.0 L544.4 522.0 L544.4 519.4 L546.9 519.4 L549.3 519.4 L549.3 516.8 L549.3 514.2 L549.3 511.6 L546.9 511.6 L546.9 509.0 L546.9 506.4 L546.9 503.8 L546.9 501.2 L546.9 498.6 L546.9 496.0 L546.9 493.4 L546.9 490.8 L546.9 488.2 L546.9 485.6 L546.9 483.0 L546.9 480.4 L544.4 480.4 L541.9 480.4 L541.9 477.7 L539.5 477.7 L537.0 477.7 L534.5 477.7 L534.5 475.1 L532.1 475.1 L529.6 475.1 L529.6 477.7 L529.6 480.4 L527.1 480.4 L524.7 480.4 L524.7 483.0 Z" fill="#2f8f83" fill-opacity="0.34" stroke="#0e5b52" stroke-width="1.6" />
  <path d="M512.3 446.5 L512.3 449.1 L512.3 451.7 L514.8 451.7 L517.3 451.7 L517.3 454.3 L517.3 456.9 L517.3 459.5 L517.3 462.1 L517.3 464.7 L517.3 467.3 L519.7 467.3 L519.7 469.9 L519.7 472.5 L519.7 475.1 L522.2 475.1 L522.2 477.7 L522.2 480.4 L524.7 480.4 L527.1 480.4 L529.6 480.4 L529.6 477.7 L529.6 475.1 L529.6 472.5 L529.6 469.9 L529.6 467.3 L529.6 464.7 L529.6 462.1 L529.6 459.5 L529.6 456.9 L529.6 454.3 L529.6 451.7 L529.6 449.1 L529.6 446.5 L529.6 443.9 L529.6 441.3 L529.6 438.7 L529.6 436.1 L529.6 433.4 L529.6 430.8 L529.6 428.2 L529.6 425.6 L529.6 423.0 L529.6 420.4 L527.1 420.4 L524.7 420.4 L522.2 420.4 L519.7 420.4 L519.7 423.0 L519.7 425.6 L519.7 428.2 L519.7 430.8 L522.2 430.8 L522.2 433.4 L522.2 436.1 L522.2 438.7 L522.2 441.3 L522.2 443.9 L519.7 443.9 L517.3 443.9 L514.8 443.9 L512.3 443.9 L512.3 446.5 Z" fill="#2f8f83" fill-opacity="0.34" stroke="#0e5b52" stroke-width="1.6" />
  <path d="M522.2 503.8 L522.2 506.4 L522.2 509.0 L522.2 511.6 L522.2 514.2 L524.7 514.2 L524.7 516.8 L524.7 519.4 L527.1 519.4 L527.1 522.0 L529.6 522.0 L532.1 522.0 L534.5 522.0 L537.0 522.0 L539.5 522.0 L541.9 522.0 L541.9 519.4 L541.9 516.8 L539.5 516.8 L539.5 514.2 L539.5 511.6 L537.0 511.6 L537.0 509.0 L537.0 506.4 L534.5 506.4 L534.5 503.8 L534.5 501.2 L532.1 501.2 L532.1 498.6 L529.6 498.6 L529.6 496.0 L529.6 493.4 L527.1 493.4 L527.1 490.8 L527.1 488.2 L524.7 488.2 L524.7 490.8 L524.7 493.4 L524.7 496.0 L524.7 498.6 L524.7 501.2 L522.2 501.2 L522.2 503.8 Z" fill="#2f8f83" fill-opacity="0.34" stroke="#0e5b52" stroke-width="1.6" />
  <!-- title strip -->
  <rect x="0" y="0" width="1000" height="54" fill="#173042" />
  <text x="20" y="34" font-size="21" font-weight="bold" fill="#ffffff">Golden Sky Minerals Corp. — Mineral Claims</text>
  <text x="980" y="34" font-size="15" fill="#cfe3df" text-anchor="end">AUEN</text>
  <!-- scale bar -->
  <g transform="translate(847.1070850972678, 596)">
    <rect x="0" y="0" width="56.446457451366065" height="8" fill="#173042" />
    <rect x="56.446457451366065" y="0" width="56.446457451366065" height="8" fill="#ffffff" stroke="#173042" stroke-width="1" />
    <text x="56.446457451366065" y="-6" font-size="12" fill="#173042" text-anchor="middle">20 km</text>
  </g>
  <!-- north arrow -->
  <g transform="translate(956, 92)">
    <circle r="17" fill="#ffffff" stroke="#b9b09a" />
    <path d="M0 -10 L5 7 L0 3 L-5 7 Z" fill="#173042" />
    <text y="14" font-size="9" font-weight="bold" fill="#173042" text-anchor="middle">N</text>
  </g>
  <!-- watermark -->
  <text x="20" y="620" font-size="13" fill="#7d8b8a">Map by Exploration Maps — explorationmaps.com</text>
</svg>