<svg xmlns="http://www.w3.org/2000/svg" viewBox="0 0 1000 640" font-family="Arial, Helvetica, sans-serif">
  <rect width="1000" height="640" fill="#f3efe6" />
  <line x1="200" y1="0" x2="200" y2="640" stroke="#d9d2c0" stroke-width="0.7" />
  <line x1="0" y1="128" x2="1000" y2="128" stroke="#d9d2c0" stroke-width="0.7" />
  <line x1="400" y1="0" x2="400" y2="640" stroke="#d9d2c0" stroke-width="0.7" />
  <line x1="0" y1="256" x2="1000" y2="256" stroke="#d9d2c0" stroke-width="0.7" />
  <line x1="600" y1="0" x2="600" y2="640" stroke="#d9d2c0" stroke-width="0.7" />
  <line x1="0" y1="384" x2="1000" y2="384" stroke="#d9d2c0" stroke-width="0.7" />
  <line x1="800" y1="0" x2="800" y2="640" stroke="#d9d2c0" stroke-width="0.7" />
  <line x1="0" y1="512" x2="1000" y2="512" stroke="#d9d2c0" stroke-width="0.7" />
  <path d="M408.0 146.6 L406.6 146.6 L406.5 146.6 L406.5 147.0 L406.6 147.0 L406.8 147.0 L406.8 147.9 L408.0 147.9 L408.0 146.6 Z" fill="#2f8f83" fill-opacity="0.34" stroke="#0e5b52" stroke-width="1.6" />
  <path d="M408.0 147.9 L406.8 147.9 L406.8 148.2 L406.7 148.2 L406.7 148.2 L406.7 148.3 L406.7 149.1 L407.9 149.1 L407.9 148.5 L408.0 148.5 L408.0 147.9 Z" fill="#2f8f83" fill-opacity="0.34" stroke="#0e5b52" stroke-width="1.6" />
  <path d="M407.9 149.1 L406.7 149.1 L406.7 149.1 L406.7 149.9 L407.9 149.9 L407.9 149.1 Z" fill="#2f8f83" fill-opacity="0.34" stroke="#0e5b52" stroke-width="1.6" />
  <path d="M407.9 149.9 L406.7 149.9 L406.7 150.0 L406.7 150.2 L407.9 150.2 L407.9 150.0 L407.9 149.9 Z" fill="#2f8f83" fill-opacity="0.34" stroke="#0e5b52" stroke-width="1.6" />
  <path d="M491.0 524.2 L491.0 524.5 L491.2 524.5 L491.4 524.5 L491.7 524.5 L491.9 524.5 L492.1 524.5 L492.4 524.5 L492.6 524.5 L492.9 524.5 L493.1 524.5 L493.3 524.5 L493.6 524.5 L493.8 524.5 L493.8 524.7 L493.6 524.7 L493.6 525.0 L493.3 525.0 L493.1 525.0 L493.1 525.2 L493.1 525.4 L493.3 525.4 L493.6 525.4 L493.8 525.4 L494.0 525.4 L494.0 525.2 L494.0 525.0 L494.0 524.7 L494.0 524.5 L494.0 524.2 L494.0 524.0 L494.0 523.7 L494.0 523.5 L494.0 523.2 L493.8 523.2 L493.8 523.0 L493.8 522.7 L493.6 522.7 L493.6 523.0 L493.6 523.2 L493.6 523.5 L493.8 523.5 L493.8 523.7 L493.8 524.0 L493.6 524.0 L493.3 524.0 L493.1 524.0 L493.1 523.7 L493.3 523.7 L493.3 523.5 L493.1 523.5 L493.1 523.2 L493.1 523.0 L493.3 523.0 L493.3 522.7 L493.3 522.5 L493.3 522.3 L493.3 522.0 L493.1 522.0 L492.9 522.0 L492.6 522.0 L492.6 521.8 L492.6 521.5 L492.4 521.5 L492.1 521.5 L492.1 521.8 L492.1 522.0 L491.9 522.0 L491.7 522.0 L491.4 522.0 L491.4 522.3 L491.4 522.5 L491.2 522.5 L491.0 522.5 L491.0 522.7 L491.0 523.0 L491.0 523.2 L491.0 523.5 L491.0 523.7 L491.0 524.0 L491.0 524.2 Z" fill="#2f8f83" fill-opacity="0.34" stroke="#0e5b52" stroke-width="1.6" />
  <path d="M408.3 131.0 L408.3 131.3 L408.6 131.3 L408.6 131.6 L408.8 131.6 L409.0 131.6 L409.3 131.6 L409.5 131.6 L409.7 131.6 L410.0 131.6 L410.2 131.6 L410.5 131.6 L410.7 131.6 L410.9 131.6 L411.2 131.6 L411.4 131.6 L411.4 131.3 L411.4 131.0 L411.4 130.7 L411.6 130.7 L411.9 130.7 L412.1 130.7 L412.3 130.7 L412.6 130.7 L412.8 130.7 L413.0 130.7 L413.0 130.4 L412.8 130.4 L412.6 130.4 L412.6 130.1 L412.6 129.9 L412.3 129.9 L412.1 129.9 L411.9 129.9 L411.9 129.6 L411.9 129.3 L411.6 129.3 L411.4 129.3 L411.2 129.3 L411.2 129.0 L411.2 128.7 L410.9 128.7 L410.7 128.7 L410.5 128.7 L410.5 129.0 L410.7 129.0 L410.7 129.3 L410.7 129.6 L410.9 129.6 L410.9 129.9 L411.2 129.9 L411.2 130.1 L411.2 130.4 L411.2 130.7 L410.9 130.7 L410.7 130.7 L410.5 130.7 L410.2 130.7 L410.0 130.7 L409.7 130.7 L409.5 130.7 L409.3 130.7 L409.0 130.7 L408.8 130.7 L408.6 130.7 L408.3 130.7 L408.3 131.0 Z" fill="#2f8f83" fill-opacity="0.34" stroke="#0e5b52" stroke-width="1.6" />
  <path d="M409.5 127.9 L409.5 128.2 L409.7 128.2 L409.7 128.4 L410.0 128.4 L410.2 128.4 L410.5 128.4 L410.5 128.7 L410.7 128.7 L410.9 128.7 L411.2 128.7 L411.2 129.0 L411.2 129.3 L411.4 129.3 L411.6 129.3 L411.9 129.3 L411.9 129.6 L411.9 129.9 L412.1 129.9 L412.3 129.9 L412.3 129.6 L412.3 129.3 L412.3 129.0 L412.6 129.0 L412.8 129.0 L413.0 129.0 L413.0 129.3 L413.0 129.6 L413.0 129.9 L412.8 129.9 L412.6 129.9 L412.6 130.1 L412.6 130.4 L412.8 130.4 L413.0 130.4 L413.0 130.7 L413.3 130.7 L413.5 130.7 L413.7 130.7 L414.0 130.7 L414.2 130.7 L414.4 130.7 L414.7 130.7 L414.9 130.7 L415.1 130.7 L415.4 130.7 L415.4 130.4 L415.1 130.4 L414.9 130.4 L414.9 130.1 L414.9 129.9 L414.7 129.9 L414.4 129.9 L414.4 129.6 L414.4 129.3 L414.2 129.3 L414.0 129.3 L414.0 129.0 L414.0 128.7 L413.7 128.7 L413.5 128.7 L413.3 128.7 L413.3 128.4 L413.3 128.2 L413.0 128.2 L413.0 127.9 L413.0 127.6 L412.8 127.6 L412.6 127.6 L412.3 127.6 L412.1 127.6 L411.9 127.6 L411.6 127.6 L411.4 127.6 L411.2 127.6 L410.9 127.6 L410.7 127.6 L410.5 127.6 L410.2 127.6 L410.0 127.6 L409.7 127.6 L409.5 127.6 L409.3 127.6 L409.3 127.9 L409.5 127.9 Z" fill="#2f8f83" fill-opacity="0.34" stroke="#0e5b52" stroke-width="1.6" />
  <path d="M410.5 127.3 L410.5 127.6 L410.7 127.6 L410.9 127.6 L411.2 127.6 L411.4 127.6 L411.6 127.6 L411.9 127.6 L412.1 127.6 L412.3 127.6 L412.6 127.6 L412.8 127.6 L413.0 127.6 L413.0 127.9 L413.0 128.2 L413.3 128.2 L413.3 128.4 L413.3 128.7 L413.5 128.7 L413.7 128.7 L414.0 128.7 L414.0 128.4 L414.0 128.2 L414.0 127.9 L414.0 127.6 L414.0 127.3 L413.7 127.3 L413.5 127.3 L413.3 127.3 L413.0 127.3 L413.0 127.0 L412.8 127.0 L412.6 127.0 L412.3 127.0 L412.1 127.0 L411.9 127.0 L411.6 127.0 L411.4 127.0 L411.2 127.0 L410.9 127.0 L410.7 127.0 L410.5 127.0 L410.2 127.0 L410.2 127.3 L410.5 127.3 Z" fill="#2f8f83" fill-opacity="0.34" stroke="#0e5b52" stroke-width="1.6" />
  <path d="M409.0 125.6 L409.0 125.9 L409.3 125.9 L409.3 126.2 L409.5 126.2 L409.5 126.4 L409.7 126.4 L409.7 126.7 L410.0 126.7 L410.0 127.0 L410.2 127.0 L410.5 127.0 L410.7 127.0 L410.9 127.0 L411.2 127.0 L411.4 127.0 L411.6 127.0 L411.9 127.0 L412.1 127.0 L412.3 127.0 L412.6 127.0 L412.8 127.0 L413.0 127.0 L413.0 126.7 L413.0 126.4 L413.0 126.2 L413.0 125.9 L413.0 125.6 L413.0 125.3 L412.8 125.3 L412.6 125.3 L412.3 125.3 L412.1 125.3 L411.9 125.3 L411.6 125.3 L411.4 125.3 L411.2 125.3 L410.9 125.3 L410.7 125.3 L410.5 125.3 L410.2 125.3 L410.0 125.3 L409.7 125.3 L409.5 125.3 L409.3 125.3 L409.0 125.3 L408.8 125.3 L408.8 125.6 L409.0 125.6 Z" fill="#2f8f83" fill-opacity="0.34" stroke="#0e5b52" stroke-width="1.6" />
  <path d="M410.2 125.0 L410.2 125.3 L410.5 125.3 L410.7 125.3 L410.9 125.3 L411.2 125.3 L411.4 125.3 L411.6 125.3 L411.9 125.3 L412.1 125.3 L412.3 125.3 L412.6 125.3 L412.8 125.3 L413.0 125.3 L413.0 125.6 L413.0 125.9 L413.0 126.2 L413.0 126.4 L413.0 126.7 L413.0 127.0 L413.0 127.3 L413.3 127.3 L413.5 127.3 L413.5 127.0 L413.5 126.7 L413.5 126.4 L413.5 126.2 L413.5 125.9 L413.5 125.6 L413.5 125.3 L413.5 125.0 L413.5 124.7 L413.5 124.5 L413.7 124.5 L414.0 124.5 L414.2 124.5 L414.4 124.5 L414.4 124.2 L414.4 123.9 L414.4 123.6 L414.2 123.6 L414.0 123.6 L413.7 123.6 L413.5 123.6 L413.3 123.6 L413.0 123.6 L412.8 123.6 L412.6 123.6 L412.3 123.6 L412.1 123.6 L411.9 123.6 L411.6 123.6 L411.4 123.6 L411.2 123.6 L410.9 123.6 L410.7 123.6 L410.5 123.6 L410.2 123.6 L410.2 123.9 L410.2 124.2 L410.2 124.5 L410.2 124.7 L410.2 125.0 Z" fill="#2f8f83" fill-opacity="0.34" stroke="#0e5b52" stroke-width="1.6" />
  <path d="M410.2 123.3 L410.2 123.6 L410.5 123.6 L410.7 123.6 L410.9 123.6 L411.2 123.6 L411.4 123.6 L411.6 123.6 L411.9 123.6 L412.1 123.6 L412.3 123.6 L412.6 123.6 L412.8 123.6 L413.0 123.6 L413.3 123.6 L413.5 123.6 L413.7 123.6 L414.0 123.6 L414.2 123.6 L414.4 123.6 L414.4 123.9 L414.4 124.2 L414.4 124.5 L414.7 124.5 L414.9 124.5 L415.1 124.5 L415.4 124.5 L415.6 124.5 L415.9 124.5 L416.1 124.5 L416.3 124.5 L416.3 124.7 L416.6 124.7 L416.8 124.7 L417.0 124.7 L417.3 124.7 L417.5 124.7 L417.7 124.7 L417.7 124.5 L417.7 124.2 L417.7 123.9 L417.7 123.6 L417.5 123.6 L417.3 123.6 L417.0 123.6 L416.8 123.6 L416.6 123.6 L416.3 123.6 L416.3 123.3 L416.3 123.0 L416.3 122.7 L416.1 122.7 L415.9 122.7 L415.6 122.7 L415.4 122.7 L415.1 122.7 L414.9 122.7 L414.7 122.7 L414.4 122.7 L414.2 122.7 L414.0 122.7 L413.7 122.7 L413.5 122.7 L413.3 122.7 L413.0 122.7 L412.8 122.7 L412.6 122.7 L412.3 122.7 L412.1 122.7 L411.9 122.7 L411.6 122.7 L411.4 122.7 L411.2 122.7 L410.9 122.7 L410.7 122.7 L410.5 122.7 L410.2 122.7 L410.2 123.0 L410.2 123.3 Z" fill="#2f8f83" fill-opacity="0.34" stroke="#0e5b52" stroke-width="1.6" />
  <path d="M413.5 127.0 L413.5 127.3 L413.7 127.3 L414.0 127.3 L414.2 127.3 L414.4 127.3 L414.7 127.3 L414.9 127.3 L415.1 127.3 L415.4 127.3 L415.6 127.3 L415.9 127.3 L416.1 127.3 L416.3 127.3 L416.6 127.3 L416.8 127.3 L417.0 127.3 L417.3 127.3 L417.5 127.3 L417.7 127.3 L417.7 127.0 L417.7 126.7 L417.7 126.4 L417.7 126.2 L417.7 125.9 L417.5 125.9 L417.3 125.9 L417.0 125.9 L416.8 125.9 L416.6 125.9 L416.3 125.9 L416.3 125.6 L416.3 125.3 L416.3 125.0 L416.3 124.7 L416.3 124.5 L416.1 124.5 L415.9 124.5 L415.6 124.5 L415.4 124.5 L415.1 124.5 L414.9 124.5 L414.7 124.5 L414.4 124.5 L414.2 124.5 L414.0 124.5 L413.7 124.5 L413.5 124.5 L413.5 124.7 L413.5 125.0 L413.5 125.3 L413.5 125.6 L413.5 125.9 L413.5 126.2 L413.5 126.4 L413.5 126.7 L413.5 127.0 Z" fill="#2f8f83" fill-opacity="0.34" stroke="#0e5b52" stroke-width="1.6" />
  <path d="M414.0 129.0 L414.0 129.3 L414.2 129.3 L414.4 129.3 L414.4 129.6 L414.4 129.9 L414.7 129.9 L414.9 129.9 L414.9 130.1 L414.9 130.4 L415.1 130.4 L415.4 130.4 L415.4 130.1 L415.4 129.9 L415.4 129.6 L415.4 129.3 L415.4 129.0 L415.6 129.0 L415.9 129.0 L415.9 128.7 L415.9 128.4 L415.9 128.2 L415.9 127.9 L415.9 127.6 L415.9 127.3 L415.6 127.3 L415.4 127.3 L415.1 127.3 L414.9 127.3 L414.7 127.3 L414.4 127.3 L414.2 127.3 L414.0 127.3 L414.0 127.6 L414.0 127.9 L414.0 128.2 L414.0 128.4 L414.0 128.7 L414.0 129.0 Z" fill="#2f8f83" fill-opacity="0.34" stroke="#0e5b52" stroke-width="1.6" />
  <path d="M415.4 131.6 L415.4 131.9 L415.6 131.9 L415.9 131.9 L416.1 131.9 L416.3 131.9 L416.6 131.9 L416.8 131.9 L416.8 132.1 L416.8 132.4 L416.8 132.7 L417.0 132.7 L417.3 132.7 L417.5 132.7 L417.7 132.7 L418.0 132.7 L418.2 132.7 L418.4 132.7 L418.7 132.7 L418.9 132.7 L419.1 132.7 L419.1 132.4 L419.1 132.1 L419.1 131.9 L419.4 131.9 L419.6 131.9 L419.8 131.9 L419.8 131.6 L419.8 131.3 L419.8 131.0 L419.8 130.7 L419.8 130.4 L419.8 130.1 L419.8 129.9 L419.6 129.9 L419.4 129.9 L419.1 129.9 L418.9 129.9 L418.7 129.9 L418.7 129.6 L418.7 129.3 L418.4 129.3 L418.2 129.3 L418.0 129.3 L417.7 129.3 L417.5 129.3 L417.5 129.6 L417.5 129.9 L417.5 130.1 L417.3 130.1 L417.3 129.9 L417.3 129.6 L417.3 129.3 L417.3 129.0 L417.0 129.0 L416.8 129.0 L416.6 129.0 L416.3 129.0 L416.1 129.0 L415.9 129.0 L415.6 129.0 L415.4 129.0 L415.4 129.3 L415.4 129.6 L415.4 129.9 L415.4 130.1 L415.4 130.4 L415.4 130.7 L415.4 131.0 L415.4 131.3 L415.4 131.6 Z" fill="#2f8f83" fill-opacity="0.34" stroke="#0e5b52" stroke-width="1.6" />
  <path d="M415.4 133.3 L415.4 133.6 L415.6 133.6 L415.9 133.6 L416.1 133.6 L416.3 133.6 L416.6 133.6 L416.8 133.6 L417.0 133.6 L417.3 133.6 L417.5 133.6 L417.7 133.6 L417.7 133.8 L417.7 134.1 L417.7 134.4 L417.7 134.7 L417.7 135.0 L417.7 135.3 L417.7 135.5 L418.0 135.5 L418.2 135.5 L418.4 135.5 L418.7 135.5 L418.9 135.5 L419.1 135.5 L419.1 135.3 L419.1 135.0 L419.1 134.7 L419.1 134.4 L419.1 134.1 L419.1 133.8 L419.1 133.6 L419.1 133.3 L419.1 133.0 L419.1 132.7 L418.9 132.7 L418.7 132.7 L418.4 132.7 L418.2 132.7 L418.0 132.7 L417.7 132.7 L417.5 132.7 L417.3 132.7 L417.0 132.7 L416.8 132.7 L416.8 132.4 L416.8 132.1 L416.8 131.9 L416.6 131.9 L416.3 131.9 L416.1 131.9 L415.9 131.9 L415.6 131.9 L415.4 131.9 L415.4 132.1 L415.4 132.4 L415.4 132.7 L415.4 133.0 L415.4 133.3 Z" fill="#2f8f83" fill-opacity="0.34" stroke="#0e5b52" stroke-width="1.6" />
  <path d="M414.0 135.0 L414.0 135.3 L414.2 135.3 L414.4 135.3 L414.7 135.3 L414.9 135.3 L415.1 135.3 L415.1 135.0 L415.4 135.0 L415.6 135.0 L415.9 135.0 L416.1 135.0 L416.3 135.0 L416.6 135.0 L416.8 135.0 L416.8 135.3 L417.0 135.3 L417.0 135.5 L417.3 135.5 L417.5 135.5 L417.7 135.5 L417.7 135.3 L417.7 135.0 L417.7 134.7 L417.7 134.4 L417.7 134.1 L417.7 133.8 L417.7 133.6 L417.5 133.6 L417.3 133.6 L417.0 133.6 L416.8 133.6 L416.6 133.6 L416.3 133.6 L416.1 133.6 L415.9 133.6 L415.6 133.6 L415.4 133.6 L415.1 133.6 L414.9 133.6 L414.7 133.6 L414.4 133.6 L414.2 133.6 L414.0 133.6 L414.0 133.8 L414.0 134.1 L414.0 134.4 L414.0 134.7 L414.0 135.0 Z" fill="#2f8f83" fill-opacity="0.34" stroke="#0e5b52" stroke-width="1.6" />
  <path d="M415.9 128.7 L415.9 129.0 L416.1 129.0 L416.3 129.0 L416.6 129.0 L416.8 129.0 L417.0 129.0 L417.3 129.0 L417.3 128.7 L417.3 128.4 L417.3 128.2 L417.5 128.2 L417.7 128.2 L418.0 128.2 L418.2 128.2 L418.4 128.2 L418.7 128.2 L418.7 127.9 L418.7 127.6 L418.7 127.3 L418.4 127.3 L418.4 127.0 L418.4 126.7 L418.4 126.4 L418.4 126.2 L418.4 125.9 L418.2 125.9 L418.0 125.9 L417.7 125.9 L417.7 126.2 L417.7 126.4 L417.7 126.7 L417.7 127.0 L417.7 127.3 L417.5 127.3 L417.3 127.3 L417.0 127.3 L416.8 127.3 L416.6 127.3 L416.3 127.3 L416.1 127.3 L415.9 127.3 L415.9 127.6 L415.9 127.9 L415.9 128.2 L415.9 128.4 L415.9 128.7 Z" fill="#2f8f83" fill-opacity="0.34" stroke="#0e5b52" stroke-width="1.6" />
  <path d="M416.3 125.6 L416.3 125.9 L416.6 125.9 L416.8 125.9 L417.0 125.9 L417.3 125.9 L417.5 125.9 L417.7 125.9 L418.0 125.9 L418.2 125.9 L418.4 125.9 L418.4 125.6 L418.4 125.3 L418.4 125.0 L418.7 125.0 L418.9 125.0 L419.1 125.0 L419.4 125.0 L419.6 125.0 L419.8 125.0 L420.1 125.0 L420.3 125.0 L420.3 124.7 L420.3 124.5 L420.3 124.2 L420.3 123.9 L420.3 123.6 L420.1 123.6 L419.8 123.6 L419.6 123.6 L419.4 123.6 L419.1 123.6 L418.9 123.6 L418.7 123.6 L418.4 123.6 L418.2 123.6 L418.0 123.6 L417.7 123.6 L417.7 123.9 L417.7 124.2 L417.7 124.5 L417.7 124.7 L417.5 124.7 L417.3 124.7 L417.0 124.7 L416.8 124.7 L416.6 124.7 L416.3 124.7 L416.3 125.0 L416.3 125.3 L416.3 125.6 Z" fill="#2f8f83" fill-opacity="0.34" stroke="#0e5b52" stroke-width="1.6" />
  <path d="M418.4 126.4 L418.4 126.7 L418.7 126.7 L418.9 126.7 L419.1 126.7 L419.4 126.7 L419.6 126.7 L419.8 126.7 L420.1 126.7 L420.3 126.7 L420.5 126.7 L420.8 126.7 L421.0 126.7 L421.2 126.7 L421.2 126.4 L421.2 126.2 L421.2 125.9 L421.2 125.6 L421.2 125.3 L421.2 125.0 L421.2 124.7 L421.2 124.5 L421.2 124.2 L421.2 123.9 L421.2 123.6 L421.0 123.6 L420.8 123.6 L420.5 123.6 L420.3 123.6 L420.3 123.9 L420.3 124.2 L420.3 124.5 L420.3 124.7 L420.3 125.0 L420.1 125.0 L419.8 125.0 L419.6 125.0 L419.4 125.0 L419.1 125.0 L418.9 125.0 L418.7 125.0 L418.4 125.0 L418.4 125.3 L418.4 125.6 L418.4 125.9 L418.4 126.2 L418.4 126.4 Z" fill="#2f8f83" fill-opacity="0.34" stroke="#0e5b52" stroke-width="1.6" />
  <path d="M417.3 129.9 L417.3 130.1 L417.5 130.1 L417.5 129.9 L417.5 129.6 L417.5 129.3 L417.7 129.3 L418.0 129.3 L418.2 129.3 L418.4 129.3 L418.7 129.3 L418.7 129.6 L418.7 129.9 L418.9 129.9 L419.1 129.9 L419.4 129.9 L419.6 129.9 L419.8 129.9 L419.8 129.6 L419.8 129.3 L419.8 129.0 L420.1 129.0 L420.1 128.7 L420.1 128.4 L420.1 128.2 L420.1 127.9 L420.1 127.6 L420.1 127.3 L420.3 127.3 L420.5 127.3 L420.8 127.3 L421.0 127.3 L421.2 127.3 L421.2 127.0 L421.2 126.7 L421.0 126.7 L420.8 126.7 L420.5 126.7 L420.3 126.7 L420.1 126.7 L419.8 126.7 L419.6 126.7 L419.4 126.7 L419.1 126.7 L418.9 126.7 L418.7 126.7 L418.4 126.7 L418.4 127.0 L418.4 127.3 L418.7 127.3 L418.7 127.6 L418.7 127.9 L418.7 128.2 L418.4 128.2 L418.2 128.2 L418.0 128.2 L417.7 128.2 L417.5 128.2 L417.3 128.2 L417.3 128.4 L417.3 128.7 L417.3 129.0 L417.3 129.3 L417.3 129.6 L417.3 129.9 Z" fill="#2f8f83" fill-opacity="0.34" stroke="#0e5b52" stroke-width="1.6" />
  <path d="M419.8 129.9 L419.8 130.1 L420.1 130.1 L420.3 130.1 L420.5 130.1 L420.8 130.1 L421.0 130.1 L421.0 129.9 L421.0 129.6 L421.0 129.3 L421.0 129.0 L421.2 129.0 L421.5 129.0 L421.7 129.0 L422.0 129.0 L422.0 128.7 L422.0 128.4 L422.2 128.4 L422.4 128.4 L422.7 128.4 L422.9 128.4 L422.9 128.2 L422.9 127.9 L422.9 127.6 L422.9 127.3 L422.9 127.0 L422.9 126.7 L422.7 126.7 L422.4 126.7 L422.2 126.7 L422.0 126.7 L421.7 126.7 L421.5 126.7 L421.2 126.7 L421.2 127.0 L421.2 127.3 L421.0 127.3 L420.8 127.3 L420.5 127.3 L420.3 127.3 L420.1 127.3 L420.1 127.6 L420.1 127.9 L420.1 128.2 L420.1 128.4 L420.1 128.7 L420.1 129.0 L419.8 129.0 L419.8 129.3 L419.8 129.6 L419.8 129.9 Z" fill="#2f8f83" fill-opacity="0.34" stroke="#0e5b52" stroke-width="1.6" />
  <path d="M419.8 131.6 L419.8 131.9 L420.1 131.9 L420.3 131.9 L420.5 131.9 L420.8 131.9 L421.0 131.9 L421.2 131.9 L421.5 131.9 L421.7 131.9 L422.0 131.9 L422.2 131.9 L422.4 131.9 L422.7 131.9 L422.9 131.9 L422.9 131.6 L422.9 131.3 L422.9 131.0 L422.9 130.7 L422.9 130.4 L422.9 130.1 L422.9 129.9 L422.9 129.6 L422.9 129.3 L422.9 129.0 L422.9 128.7 L422.9 128.4 L422.7 128.4 L422.4 128.4 L422.2 128.4 L422.0 128.4 L422.0 128.7 L422.0 129.0 L421.7 129.0 L421.5 129.0 L421.2 129.0 L421.0 129.0 L421.0 129.3 L421.0 129.6 L421.0 129.9 L421.0 130.1 L420.8 130.1 L420.5 130.1 L420.3 130.1 L420.1 130.1 L419.8 130.1 L419.8 130.4 L419.8 130.7 L419.8 131.0 L419.8 131.3 L419.8 131.6 Z" fill="#2f8f83" fill-opacity="0.34" stroke="#0e5b52" stroke-width="1.6" />
  <path d="M590.7 225.3 L590.7 225.6 L590.7 225.9 L590.7 226.1 L590.7 226.4 L590.7 226.7 L590.7 227.0 L590.7 227.2 L591.0 227.2 L591.2 227.2 L591.4 227.2 L591.7 227.2 L591.9 227.2 L592.1 227.2 L592.4 227.2 L592.6 227.2 L592.8 227.2 L592.8 227.0 L592.8 226.7 L592.8 226.4 L592.6 226.4 L592.4 226.4 L592.1 226.4 L591.9 226.4 L591.7 226.4 L591.4 226.4 L591.2 226.4 L591.2 226.1 L591.2 225.9 L591.2 225.6 L591.2 225.3 L591.4 225.3 L591.7 225.3 L591.9 225.3 L591.9 225.0 L591.7 225.0 L591.4 225.0 L591.2 225.0 L591.0 225.0 L590.7 225.0 L590.7 225.3 Z" fill="#2f8f83" fill-opacity="0.34" stroke="#0e5b52" stroke-width="1.6" />
  <path d="M590.7 223.9 L590.7 224.2 L590.7 224.5 L590.7 224.8 L590.7 225.0 L591.0 225.0 L591.2 225.0 L591.4 225.0 L591.7 225.0 L591.9 225.0 L591.9 224.8 L591.9 224.5 L591.9 224.2 L591.9 223.9 L591.7 223.9 L591.4 223.9 L591.4 223.7 L591.2 223.7 L591.0 223.7 L590.7 223.7 L590.7 223.9 Z" fill="#2f8f83" fill-opacity="0.34" stroke="#0e5b52" stroke-width="1.6" />
  <path d="M591.4 223.7 L591.4 223.9 L591.7 223.9 L591.9 223.9 L591.9 224.2 L591.9 224.5 L591.9 224.8 L591.9 225.0 L592.1 225.0 L592.4 225.0 L592.6 225.0 L592.6 224.8 L592.8 224.8 L592.8 224.5 L592.8 224.2 L592.8 223.9 L592.8 223.7 L592.8 223.4 L592.6 223.4 L592.4 223.4 L592.1 223.4 L591.9 223.4 L591.7 223.4 L591.4 223.4 L591.4 223.7 Z" fill="#2f8f83" fill-opacity="0.34" stroke="#0e5b52" stroke-width="1.6" />
  <path d="M591.7 225.6 L591.7 225.9 L591.9 225.9 L591.9 225.6 L592.1 225.6 L592.4 225.6 L592.6 225.6 L592.8 225.6 L593.1 225.6 L593.3 225.6 L593.5 225.6 L593.8 225.6 L593.8 225.3 L593.8 225.0 L593.8 224.8 L594.0 224.8 L594.2 224.8 L594.5 224.8 L594.5 224.5 L594.2 224.5 L594.2 224.2 L594.0 224.2 L594.0 223.9 L593.8 223.9 L593.8 223.7 L593.5 223.7 L593.3 223.7 L593.3 223.4 L593.1 223.4 L592.8 223.4 L592.8 223.7 L592.8 223.9 L592.8 224.2 L592.8 224.5 L592.8 224.8 L592.6 224.8 L592.6 225.0 L592.4 225.0 L592.1 225.0 L591.9 225.0 L591.9 225.3 L591.7 225.3 L591.7 225.6 Z" fill="#2f8f83" fill-opacity="0.34" stroke="#0e5b52" stroke-width="1.6" />
  <path d="M406.0 158.1 L406.0 158.4 L406.2 158.4 L406.5 158.4 L406.7 158.4 L406.9 158.4 L406.9 158.7 L406.9 159.0 L406.9 159.3 L406.9 159.5 L406.9 159.8 L406.9 160.1 L407.2 160.1 L407.4 160.1 L407.6 160.1 L407.9 160.1 L408.1 160.1 L408.3 160.1 L408.6 160.1 L408.8 160.1 L408.8 159.8 L408.8 159.5 L408.8 159.3 L408.8 159.0 L408.8 158.7 L408.8 158.4 L408.8 158.1 L408.8 157.9 L408.8 157.6 L408.8 157.3 L408.6 157.3 L408.3 157.3 L408.3 157.0 L408.3 156.7 L408.3 156.5 L408.3 156.2 L408.1 156.2 L407.9 156.2 L407.9 155.9 L407.9 155.6 L407.6 155.6 L407.4 155.6 L407.2 155.6 L406.9 155.6 L406.7 155.6 L406.5 155.6 L406.2 155.6 L406.0 155.6 L406.0 155.9 L406.0 156.2 L406.0 156.5 L406.0 156.7 L406.0 157.0 L406.0 157.3 L406.0 157.6 L406.0 157.9 L406.0 158.1 Z" fill="#2f8f83" fill-opacity="0.34" stroke="#0e5b52" stroke-width="1.6" />
  <path d="M408.8 160.1 L409.0 160.1 L409.0 160.4 L409.0 160.7 L409.0 161.0 L409.0 161.2 L409.0 161.5 L409.3 161.5 L409.5 161.5 L409.7 161.5 L410.0 161.5 L410.2 161.5 L410.2 161.2 L410.2 161.0 L410.2 160.7 L410.2 160.4 L410.2 160.1 L410.2 159.8 L410.2 159.5 L410.2 159.3 L410.2 159.0 L410.2 158.7 L410.2 158.4 L410.2 158.1 L410.2 157.9 L410.2 157.6 L410.2 157.3 L410.2 157.0 L410.0 157.0 L410.0 157.3 L409.7 157.3 L409.5 157.3 L409.3 157.3 L409.0 157.3 L408.8 157.3 L408.8 157.6 L408.8 157.9 L408.8 158.1 L408.8 158.4 L408.8 158.7 L408.8 159.0 L408.8 159.3 L408.8 159.5 L408.8 159.8 L408.8 160.1 Z" fill="#2f8f83" fill-opacity="0.34" stroke="#0e5b52" stroke-width="1.6" />
  <path d="M406.2 155.3 L406.2 155.6 L406.5 155.6 L406.7 155.6 L406.9 155.6 L407.2 155.6 L407.4 155.6 L407.6 155.6 L407.9 155.6 L407.9 155.9 L407.9 156.2 L408.1 156.2 L408.3 156.2 L408.6 156.2 L408.6 155.9 L408.6 155.6 L408.6 155.3 L408.6 155.0 L408.6 154.8 L408.6 154.5 L408.6 154.2 L408.3 154.2 L408.1 154.2 L407.9 154.2 L407.6 154.2 L407.4 154.2 L407.2 154.2 L406.9 154.2 L406.7 154.2 L406.5 154.2 L406.2 154.2 L406.2 154.5 L406.2 154.8 L406.2 155.0 L406.2 155.3 Z" fill="#2f8f83" fill-opacity="0.34" stroke="#0e5b52" stroke-width="1.6" />
  <path d="M408.3 157.0 L408.3 157.3 L408.6 157.3 L408.8 157.3 L409.0 157.3 L409.3 157.3 L409.5 157.3 L409.7 157.3 L410.0 157.3 L410.0 157.0 L410.0 156.7 L410.0 156.5 L410.0 156.2 L410.0 155.9 L410.0 155.6 L410.0 155.3 L410.0 155.0 L410.0 154.8 L410.0 154.5 L410.0 154.2 L409.7 154.2 L409.5 154.2 L409.3 154.2 L409.0 154.2 L408.8 154.2 L408.6 154.2 L408.6 154.5 L408.6 154.8 L408.6 155.0 L408.6 155.3 L408.6 155.6 L408.6 155.9 L408.6 156.2 L408.3 156.2 L408.3 156.5 L408.3 156.7 L408.3 157.0 Z" fill="#2f8f83" fill-opacity="0.34" stroke="#0e5b52" stroke-width="1.6" />
  <path d="M405.5 152.5 L405.5 152.8 L405.8 152.8 L405.8 153.1 L405.8 153.4 L405.8 153.6 L405.8 153.9 L405.8 154.2 L406.0 154.2 L406.2 154.2 L406.5 154.2 L406.7 154.2 L406.9 154.2 L407.2 154.2 L407.4 154.2 L407.6 154.2 L407.9 154.2 L407.9 153.9 L407.9 153.6 L407.9 153.4 L407.9 153.1 L407.9 152.8 L408.1 152.8 L408.1 152.5 L408.1 152.2 L408.1 151.9 L408.1 151.7 L408.1 151.4 L407.9 151.4 L407.9 151.1 L407.6 151.1 L407.4 151.1 L407.2 151.1 L406.9 151.1 L406.7 151.1 L406.7 151.4 L406.5 151.4 L406.2 151.4 L406.0 151.4 L405.8 151.4 L405.8 151.7 L405.5 151.7 L405.5 151.9 L405.5 152.2 L405.5 152.5 Z" fill="#2f8f83" fill-opacity="0.34" stroke="#0e5b52" stroke-width="1.6" />
  <path d="M407.9 153.9 L407.9 154.2 L408.1 154.2 L408.3 154.2 L408.6 154.2 L408.8 154.2 L409.0 154.2 L409.3 154.2 L409.5 154.2 L409.7 154.2 L410.0 154.2 L410.2 154.2 L410.2 153.9 L410.2 153.6 L410.2 153.4 L410.2 153.1 L410.2 152.8 L410.2 152.5 L410.2 152.2 L410.2 151.9 L410.2 151.7 L410.2 151.4 L410.0 151.4 L409.7 151.4 L409.5 151.4 L409.3 151.4 L409.0 151.4 L408.8 151.4 L408.6 151.4 L408.3 151.4 L408.1 151.4 L408.1 151.7 L408.1 151.9 L408.1 152.2 L408.1 152.5 L408.1 152.8 L407.9 152.8 L407.9 153.1 L407.9 153.4 L407.9 153.6 L407.9 153.9 Z" fill="#2f8f83" fill-opacity="0.34" stroke="#0e5b52" stroke-width="1.6" />
  <path d="M406.7 150.8 L406.7 151.1 L406.9 151.1 L407.2 151.1 L407.4 151.1 L407.6 151.1 L407.9 151.1 L407.9 151.4 L408.1 151.4 L408.3 151.4 L408.6 151.4 L408.8 151.4 L409.0 151.4 L409.3 151.4 L409.5 151.4 L409.7 151.4 L410.0 151.4 L410.2 151.4 L410.2 151.1 L410.5 151.1 L410.7 151.1 L410.9 151.1 L411.2 151.1 L411.2 150.8 L411.2 150.5 L410.9 150.5 L410.7 150.5 L410.5 150.5 L410.2 150.5 L410.0 150.5 L409.7 150.5 L409.5 150.5 L409.3 150.5 L409.0 150.5 L409.0 150.3 L409.0 150.0 L409.0 149.7 L409.0 149.4 L409.0 149.1 L409.0 148.8 L409.0 148.6 L408.8 148.6 L408.6 148.6 L408.3 148.6 L408.1 148.6 L407.9 148.6 L407.9 148.8 L407.9 149.1 L407.9 149.4 L407.9 149.7 L407.9 150.0 L407.6 150.0 L407.4 150.0 L407.2 150.0 L406.9 150.0 L406.7 150.0 L406.7 150.3 L406.7 150.5 L406.7 150.8 Z" fill="#2f8f83" fill-opacity="0.34" stroke="#0e5b52" stroke-width="1.6" />
  <path d="M411.2 150.8 L411.2 151.1 L411.4 151.1 L411.6 151.1 L411.9 151.1 L412.1 151.1 L412.3 151.1 L412.6 151.1 L412.8 151.1 L413.0 151.1 L413.3 151.1 L413.3 151.4 L413.3 151.7 L413.3 151.9 L413.3 152.2 L413.3 152.5 L413.3 152.8 L413.5 152.8 L413.5 153.1 L413.5 153.4 L413.5 153.6 L413.5 153.9 L413.7 153.9 L414.0 153.9 L414.2 153.9 L414.4 153.9 L414.7 153.9 L414.7 153.6 L414.7 153.4 L414.7 153.1 L414.9 153.1 L414.9 152.8 L415.1 152.8 L415.1 152.5 L415.1 152.2 L415.1 151.9 L415.1 151.7 L415.1 151.4 L415.1 151.1 L415.1 150.8 L415.1 150.5 L415.1 150.3 L415.1 150.0 L415.1 149.7 L415.1 149.4 L415.1 149.1 L415.1 148.8 L415.1 148.6 L414.9 148.6 L414.7 148.6 L414.4 148.6 L414.2 148.6 L414.0 148.6 L413.7 148.6 L413.5 148.6 L413.3 148.6 L413.0 148.6 L412.8 148.6 L412.6 148.6 L412.3 148.6 L412.1 148.6 L411.9 148.6 L411.6 148.6 L411.4 148.6 L411.2 148.6 L411.2 148.8 L411.2 149.1 L411.2 149.4 L411.2 149.7 L411.2 150.0 L411.2 150.3 L411.2 150.5 L411.2 150.8 Z" fill="#2f8f83" fill-opacity="0.34" stroke="#0e5b52" stroke-width="1.6" />
  <path d="M410.2 153.9 L410.2 154.2 L410.5 154.2 L410.7 154.2 L410.7 153.9 L410.9 153.9 L411.2 153.9 L411.4 153.9 L411.6 153.9 L411.9 153.9 L412.1 153.9 L412.3 153.9 L412.6 153.9 L412.8 153.9 L413.0 153.9 L413.3 153.9 L413.5 153.9 L413.5 153.6 L413.5 153.4 L413.5 153.1 L413.5 152.8 L413.3 152.8 L413.3 152.5 L413.3 152.2 L413.3 151.9 L413.3 151.7 L413.3 151.4 L413.3 151.1 L413.0 151.1 L412.8 151.1 L412.6 151.1 L412.3 151.1 L412.1 151.1 L411.9 151.1 L411.6 151.1 L411.4 151.1 L411.2 151.1 L410.9 151.1 L410.7 151.1 L410.5 151.1 L410.2 151.1 L410.2 151.4 L410.2 151.7 L410.2 151.9 L410.2 152.2 L410.2 152.5 L410.2 152.8 L410.2 153.1 L410.2 153.4 L410.2 153.6 L410.2 153.9 Z" fill="#2f8f83" fill-opacity="0.34" stroke="#0e5b52" stroke-width="1.6" />
  <path d="M410.0 156.2 L410.2 156.2 L410.5 156.2 L410.7 156.2 L410.9 156.2 L411.2 156.2 L411.4 156.2 L411.4 155.9 L411.4 155.6 L411.4 155.3 L411.6 155.3 L411.9 155.3 L412.1 155.3 L412.1 155.0 L412.3 155.0 L412.6 155.0 L412.8 155.0 L413.0 155.0 L413.0 154.8 L413.3 154.8 L413.5 154.8 L413.7 154.8 L413.7 154.5 L414.0 154.5 L414.0 154.2 L414.2 154.2 L414.4 154.2 L414.7 154.2 L414.7 153.9 L414.4 153.9 L414.2 153.9 L414.0 153.9 L413.7 153.9 L413.5 153.9 L413.3 153.9 L413.0 153.9 L412.8 153.9 L412.6 153.9 L412.3 153.9 L412.1 153.9 L411.9 153.9 L411.6 153.9 L411.4 153.9 L411.2 153.9 L410.9 153.9 L410.7 153.9 L410.7 154.2 L410.5 154.2 L410.2 154.2 L410.0 154.2 L410.0 154.5 L410.0 154.8 L410.0 155.0 L410.0 155.3 L410.0 155.6 L410.0 155.9 L410.0 156.2 Z" fill="#2f8f83" fill-opacity="0.34" stroke="#0e5b52" stroke-width="1.6" />
  <path d="M499.7 517.6 L499.7 517.8 L499.9 517.8 L500.1 517.8 L500.4 517.8 L500.6 517.8 L500.8 517.8 L501.1 517.8 L501.3 517.8 L501.5 517.8 L501.5 518.1 L501.8 518.1 L502.0 518.1 L502.2 518.1 L502.5 518.1 L502.7 518.1 L502.9 518.1 L503.2 518.1 L503.4 518.1 L503.4 517.8 L503.4 517.6 L503.4 517.3 L503.6 517.3 L503.6 517.1 L503.6 516.9 L503.6 516.6 L503.9 516.6 L504.1 516.6 L504.4 516.6 L504.6 516.6 L504.8 516.6 L505.1 516.6 L505.3 516.6 L505.5 516.6 L505.8 516.6 L506.0 516.6 L506.0 516.4 L506.0 516.1 L506.0 515.9 L506.0 515.6 L506.0 515.4 L506.0 515.1 L506.0 514.9 L506.0 514.6 L506.2 514.6 L506.5 514.6 L506.7 514.6 L506.9 514.6 L507.2 514.6 L507.2 514.4 L507.2 514.1 L506.9 514.1 L506.7 514.1 L506.7 513.9 L506.5 513.9 L506.5 513.7 L506.5 513.4 L506.2 513.4 L506.2 513.2 L506.0 513.2 L505.8 513.2 L505.5 513.2 L505.3 513.2 L505.1 513.2 L504.8 513.2 L504.6 513.2 L504.4 513.2 L504.1 513.2 L503.9 513.2 L503.6 513.2 L503.6 513.4 L503.6 513.7 L503.6 513.9 L503.6 514.1 L503.6 514.4 L503.6 514.6 L503.6 514.9 L503.6 515.1 L503.9 515.1 L503.9 515.4 L503.9 515.6 L503.6 515.6 L503.4 515.6 L503.2 515.6 L502.9 515.6 L502.7 515.6 L502.5 515.6 L502.2 515.6 L502.0 515.6 L501.8 515.6 L501.5 515.6 L501.5 515.9 L501.5 516.1 L501.5 516.4 L501.5 516.6 L501.3 516.6 L501.1 516.6 L500.8 516.6 L500.6 516.6 L500.4 516.6 L500.1 516.6 L499.9 516.6 L499.7 516.6 L499.7 516.9 L499.7 517.1 L499.7 517.3 L499.7 517.6 Z" fill="#2f8f83" fill-opacity="0.34" stroke="#0e5b52" stroke-width="1.6" />
  <path d="M498.0 519.3 L498.0 519.6 L498.2 519.6 L498.5 519.6 L498.7 519.6 L499.0 519.6 L499.2 519.6 L499.4 519.6 L499.7 519.6 L499.9 519.6 L500.1 519.6 L500.4 519.6 L500.6 519.6 L500.8 519.6 L500.8 519.8 L500.8 520.0 L501.1 520.0 L501.3 520.0 L501.3 519.8 L501.3 519.6 L501.1 519.6 L501.1 519.3 L501.1 519.1 L501.1 518.8 L501.1 518.6 L501.1 518.3 L501.1 518.1 L501.3 518.1 L501.5 518.1 L501.5 517.8 L501.3 517.8 L501.1 517.8 L500.8 517.8 L500.6 517.8 L500.4 517.8 L500.1 517.8 L499.9 517.8 L499.7 517.8 L499.7 517.6 L499.7 517.3 L499.7 517.1 L499.7 516.9 L499.7 516.6 L499.4 516.6 L499.2 516.6 L499.0 516.6 L498.7 516.6 L498.5 516.6 L498.2 516.6 L498.0 516.6 L498.0 516.9 L498.0 517.1 L498.0 517.3 L498.0 517.6 L498.0 517.8 L498.0 518.1 L498.0 518.3 L498.0 518.6 L498.0 518.8 L498.0 519.1 L498.0 519.3 Z" fill="#2f8f83" fill-opacity="0.34" stroke="#0e5b52" stroke-width="1.6" />
  <path d="M495.2 522.7 L495.2 523.0 L495.4 523.0 L495.4 522.7 L495.7 522.7 L495.9 522.7 L495.9 522.5 L495.9 522.3 L495.9 522.0 L495.9 521.8 L495.9 521.5 L495.9 521.3 L495.9 521.0 L495.9 520.8 L495.9 520.5 L495.9 520.3 L495.9 520.0 L495.9 519.8 L495.9 519.6 L496.1 519.6 L496.4 519.6 L496.6 519.6 L496.8 519.6 L497.1 519.6 L497.3 519.6 L497.5 519.6 L497.8 519.6 L498.0 519.6 L498.0 519.3 L497.8 519.3 L497.5 519.3 L497.3 519.3 L497.1 519.3 L496.8 519.3 L496.6 519.3 L496.4 519.3 L496.1 519.3 L495.9 519.3 L495.7 519.3 L495.7 519.6 L495.7 519.8 L495.7 520.0 L495.7 520.3 L495.7 520.5 L495.7 520.8 L495.7 521.0 L495.7 521.3 L495.7 521.5 L495.7 521.8 L495.7 522.0 L495.7 522.3 L495.7 522.5 L495.4 522.5 L495.2 522.5 L495.2 522.7 Z" fill="#2f8f83" fill-opacity="0.34" stroke="#0e5b52" stroke-width="1.6" />
  <path d="M495.2 523.7 L495.2 524.0 L495.4 524.0 L495.4 523.7 L495.4 523.5 L495.4 523.2 L495.4 523.0 L495.2 523.0 L495.2 523.2 L495.2 523.5 L495.2 523.7 Z" fill="#2f8f83" fill-opacity="0.34" stroke="#0e5b52" stroke-width="1.6" />
  <path d="M494.5 524.2 L494.5 524.5 L494.7 524.5 L495.0 524.5 L495.2 524.5 L495.2 524.2 L495.2 524.0 L495.2 523.7 L495.0 523.7 L495.0 524.0 L494.7 524.0 L494.5 524.0 L494.5 524.2 Z" fill="#2f8f83" fill-opacity="0.34" stroke="#0e5b52" stroke-width="1.6" />
  <path d="M494.0 524.0 L494.0 524.2 L494.3 524.2 L494.5 524.2 L494.5 524.0 L494.5 523.7 L494.3 523.7 L494.3 523.5 L494.0 523.5 L494.0 523.7 L494.0 524.0 Z" fill="#2f8f83" fill-opacity="0.34" stroke="#0e5b52" stroke-width="1.6" />
  <path d="M520.8 314.2 L520.8 314.5 L521.0 314.5 L521.2 314.5 L521.5 314.5 L521.7 314.5 L522.0 314.5 L522.2 314.5 L522.4 314.5 L522.7 314.5 L522.9 314.5 L523.1 314.5 L523.4 314.5 L523.6 314.5 L523.6 314.2 L523.6 314.0 L523.6 313.7 L523.4 313.7 L523.1 313.7 L522.9 313.7 L522.7 313.7 L522.4 313.7 L522.2 313.7 L522.0 313.7 L521.7 313.7 L521.5 313.7 L521.2 313.7 L521.0 313.7 L520.8 313.7 L520.8 314.0 L520.8 314.2 Z" fill="#2f8f83" fill-opacity="0.34" stroke="#0e5b52" stroke-width="1.6" />
  <path d="M522.9 313.4 L522.9 313.7 L523.1 313.7 L523.4 313.7 L523.6 313.7 L523.6 313.4 L523.6 313.2 L523.6 312.9 L523.6 312.6 L523.6 312.4 L523.6 312.1 L523.6 311.8 L523.6 311.6 L523.6 311.3 L523.6 311.0 L523.6 310.8 L523.4 310.8 L523.1 310.8 L522.9 310.8 L522.9 311.0 L522.9 311.3 L522.9 311.6 L522.9 311.8 L522.9 312.1 L522.9 312.4 L522.9 312.6 L522.9 312.9 L522.9 313.2 L522.9 313.4 Z" fill="#2f8f83" fill-opacity="0.34" stroke="#0e5b52" stroke-width="1.6" />
  <path d="M521.5 311.3 L521.5 311.6 L521.7 311.6 L522.0 311.6 L522.2 311.6 L522.4 311.6 L522.7 311.6 L522.9 311.6 L522.9 311.3 L522.9 311.0 L522.9 310.8 L522.7 310.8 L522.4 310.8 L522.2 310.8 L522.0 310.8 L521.7 310.8 L521.5 310.8 L521.5 311.0 L521.5 311.3 Z" fill="#2f8f83" fill-opacity="0.34" stroke="#0e5b52" stroke-width="1.6" />
  <path d="M519.8 311.0 L520.1 311.0 L520.3 311.0 L520.3 311.3 L520.5 311.3 L520.8 311.3 L521.0 311.3 L521.0 311.6 L521.2 311.6 L521.5 311.6 L521.5 311.3 L521.5 311.0 L521.5 310.8 L521.2 310.8 L521.0 310.8 L520.8 310.8 L520.5 310.8 L520.3 310.8 L520.1 310.8 L519.8 310.8 L519.6 310.8 L519.6 311.0 L519.8 311.0 Z" fill="#2f8f83" fill-opacity="0.34" stroke="#0e5b52" stroke-width="1.6" />
  <path d="M592.8 226.7 L592.8 227.0 L592.8 227.2 L592.8 227.5 L593.1 227.5 L593.3 227.5 L593.5 227.5 L593.8 227.5 L593.8 227.2 L593.8 227.0 L593.8 226.7 L593.8 226.4 L593.5 226.4 L593.3 226.4 L593.1 226.4 L592.8 226.4 L592.8 226.7 Z" fill="#2f8f83" fill-opacity="0.34" stroke="#0e5b52" stroke-width="1.6" />
  <path d="M537.2 222.6 L537.2 222.8 L537.4 222.8 L537.7 222.8 L537.9 222.8 L538.1 222.8 L538.4 222.8 L538.6 222.8 L538.6 222.6 L538.4 222.6 L538.4 222.3 L538.4 222.0 L538.1 222.0 L538.1 221.7 L538.1 221.5 L538.4 221.5 L538.6 221.5 L538.8 221.5 L539.1 221.5 L539.1 221.7 L539.1 222.0 L538.8 222.0 L538.8 222.3 L538.8 222.6 L538.8 222.8 L538.8 223.1 L539.1 223.1 L539.3 223.1 L539.6 223.1 L539.8 223.1 L539.8 222.8 L539.8 222.6 L539.8 222.3 L539.8 222.0 L539.8 221.7 L539.8 221.5 L539.8 221.2 L539.8 220.9 L539.8 220.6 L539.8 220.4 L539.6 220.4 L539.3 220.4 L539.1 220.4 L538.8 220.4 L538.6 220.4 L538.4 220.4 L538.1 220.4 L537.9 220.4 L537.7 220.4 L537.4 220.4 L537.2 220.4 L537.2 220.6 L537.2 220.9 L537.2 221.2 L537.2 221.5 L537.2 221.7 L537.2 222.0 L537.2 222.3 L537.2 222.6 Z" fill="#2f8f83" fill-opacity="0.34" stroke="#0e5b52" stroke-width="1.6" />
  <path d="M537.2 223.1 L537.4 223.1 L537.7 223.1 L537.9 223.1 L538.1 223.1 L538.4 223.1 L538.6 223.1 L538.8 223.1 L538.8 222.8 L538.8 222.6 L538.8 222.3 L538.8 222.0 L539.1 222.0 L539.1 221.7 L539.1 221.5 L538.8 221.5 L538.6 221.5 L538.4 221.5 L538.1 221.5 L538.1 221.7 L538.1 222.0 L538.4 222.0 L538.4 222.3 L538.4 222.6 L538.6 222.6 L538.6 222.8 L538.4 222.8 L538.1 222.8 L537.9 222.8 L537.7 222.8 L537.4 222.8 L537.2 222.8 L537.0 222.8 L537.0 223.1 L537.2 223.1 Z" fill="#2f8f83" fill-opacity="0.34" stroke="#0e5b52" stroke-width="1.6" />
  <path d="M519.6 313.2 L519.6 313.4 L519.8 313.4 L520.1 313.4 L520.1 313.7 L520.3 313.7 L520.3 314.0 L520.3 314.2 L520.3 314.5 L520.5 314.5 L520.8 314.5 L520.8 314.2 L520.8 314.0 L520.8 313.7 L520.8 313.4 L520.8 313.2 L520.8 312.9 L520.8 312.6 L520.5 312.6 L520.3 312.6 L520.1 312.6 L519.8 312.6 L519.6 312.6 L519.6 312.9 L519.6 313.2 Z" fill="#2f8f83" fill-opacity="0.34" stroke="#0e5b52" stroke-width="1.6" />
  <path d="M520.8 313.4 L520.8 313.7 L521.0 313.7 L521.2 313.7 L521.5 313.7 L521.7 313.7 L522.0 313.7 L522.2 313.7 L522.4 313.7 L522.7 313.7 L522.9 313.7 L522.9 313.4 L522.9 313.2 L522.9 312.9 L522.9 312.6 L522.9 312.4 L522.9 312.1 L522.9 311.8 L522.9 311.6 L522.7 311.6 L522.4 311.6 L522.2 311.6 L522.0 311.6 L521.7 311.6 L521.5 311.6 L521.2 311.6 L521.0 311.6 L521.0 311.3 L520.8 311.3 L520.8 311.6 L520.8 311.8 L520.8 312.1 L520.8 312.4 L520.8 312.6 L520.8 312.9 L520.8 313.2 L520.8 313.4 Z" fill="#2f8f83" fill-opacity="0.34" stroke="#0e5b52" stroke-width="1.6" />
  <path d="M518.4 311.6 L518.4 311.8 L518.7 311.8 L518.9 311.8 L518.9 312.1 L519.1 312.1 L519.4 312.1 L519.6 312.1 L519.6 312.4 L519.6 312.6 L519.8 312.6 L520.1 312.6 L520.3 312.6 L520.5 312.6 L520.8 312.6 L520.8 312.4 L520.8 312.1 L520.8 311.8 L520.8 311.6 L520.8 311.3 L520.5 311.3 L520.3 311.3 L520.3 311.0 L520.1 311.0 L519.8 311.0 L519.6 311.0 L519.6 310.8 L519.4 310.8 L519.1 310.8 L518.9 310.8 L518.7 310.8 L518.4 310.8 L518.4 311.0 L518.4 311.3 L518.4 311.6 Z" fill="#2f8f83" fill-opacity="0.34" stroke="#0e5b52" stroke-width="1.6" />
  <path d="M537.0 222.8 L536.7 222.8 L536.7 223.1 L537.0 223.1 L537.0 222.8 Z" fill="#2f8f83" fill-opacity="0.34" stroke="#0e5b52" stroke-width="1.6" />
  <path d="M536.3 223.1 L536.3 223.4 L536.5 223.4 L536.5 223.7 L536.5 223.9 L536.7 223.9 L536.7 223.7 L536.7 223.4 L536.7 223.1 L536.5 223.1 L536.5 222.8 L536.5 222.6 L536.3 222.6 L536.3 222.8 L536.3 223.1 Z" fill="#2f8f83" fill-opacity="0.34" stroke="#0e5b52" stroke-width="1.6" />
  <path d="M480.2 523.7 L480.4 523.7 L480.6 523.7 L480.9 523.7 L481.1 523.7 L481.3 523.7 L481.6 523.7 L481.8 523.7 L482.1 523.7 L482.3 523.7 L482.5 523.7 L482.8 523.7 L483.0 523.7 L483.2 523.7 L483.5 523.7 L483.7 523.7 L483.9 523.7 L484.2 523.7 L484.4 523.7 L484.6 523.7 L484.9 523.7 L485.1 523.7 L485.3 523.7 L485.6 523.7 L485.8 523.7 L486.0 523.7 L486.3 523.7 L486.5 523.7 L486.7 523.7 L487.0 523.7 L487.2 523.7 L487.5 523.7 L487.7 523.7 L487.9 523.7 L488.2 523.7 L488.4 523.7 L488.6 523.7 L488.9 523.7 L489.1 523.7 L489.3 523.7 L489.6 523.7 L489.8 523.7 L490.0 523.7 L490.3 523.7 L490.5 523.7 L490.5 524.0 L490.5 524.2 L490.5 524.5 L490.5 524.7 L490.5 525.0 L490.7 525.0 L490.7 524.7 L490.7 524.5 L490.7 524.2 L490.7 524.0 L490.7 523.7 L490.7 523.5 L490.5 523.5 L490.3 523.5 L490.0 523.5 L489.8 523.5 L489.6 523.5 L489.3 523.5 L489.1 523.5 L488.9 523.5 L488.6 523.5 L488.4 523.5 L488.2 523.5 L487.9 523.5 L487.7 523.5 L487.5 523.5 L487.2 523.5 L487.0 523.5 L486.7 523.5 L486.5 523.5 L486.3 523.5 L486.0 523.5 L485.8 523.5 L485.6 523.5 L485.3 523.5 L485.1 523.5 L484.9 523.5 L484.6 523.5 L484.4 523.5 L484.2 523.5 L483.9 523.5 L483.7 523.5 L483.5 523.5 L483.2 523.5 L483.0 523.5 L482.8 523.5 L482.5 523.5 L482.3 523.5 L482.1 523.5 L481.8 523.5 L481.6 523.5 L481.3 523.5 L481.1 523.5 L480.9 523.5 L480.6 523.5 L480.4 523.5 L480.2 523.5 L479.9 523.5 L479.9 523.7 L480.2 523.7 Z" fill="#2f8f83" fill-opacity="0.34" stroke="#0e5b52" stroke-width="1.6" />
  <path d="M536.7 222.8 L536.5 222.8 L536.5 223.1 L536.7 223.1 L536.7 222.8 Z" fill="#2f8f83" fill-opacity="0.34" stroke="#0e5b52" stroke-width="1.6" />
  <path d="M410.0 156.7 L410.0 157.0 L410.2 157.0 L410.5 157.0 L410.7 157.0 L410.9 157.0 L411.2 157.0 L411.4 157.0 L411.6 157.0 L411.6 156.7 L411.6 156.5 L411.6 156.2 L411.4 156.2 L411.2 156.2 L410.9 156.2 L410.7 156.2 L410.5 156.2 L410.2 156.2 L410.0 156.2 L410.0 156.5 L410.0 156.7 Z" fill="#2f8f83" fill-opacity="0.34" stroke="#0e5b52" stroke-width="1.6" />
  <path d="M478.1 520.3 L478.1 520.5 L478.3 520.5 L478.3 520.3 L478.5 520.3 L478.8 520.3 L478.8 520.5 L479.0 520.5 L479.2 520.5 L479.5 520.5 L479.5 520.3 L479.5 520.0 L479.5 519.8 L479.5 519.6 L479.5 519.3 L479.2 519.3 L479.0 519.3 L478.8 519.3 L478.8 519.1 L478.5 519.1 L478.3 519.1 L478.3 518.8 L478.1 518.8 L478.1 519.1 L478.1 519.3 L478.1 519.6 L478.1 519.8 L478.1 520.0 L478.1 520.3 Z" fill="#2f8f83" fill-opacity="0.34" stroke="#0e5b52" stroke-width="1.6" />
  <path d="M479.5 520.8 L479.5 521.0 L479.7 521.0 L479.9 521.0 L479.9 521.3 L479.9 521.5 L479.9 521.8 L480.2 521.8 L480.4 521.8 L480.4 521.5 L480.4 521.3 L480.4 521.0 L480.4 520.8 L480.4 520.5 L480.4 520.3 L480.2 520.3 L479.9 520.3 L479.9 520.0 L479.9 519.8 L479.7 519.8 L479.7 519.6 L479.7 519.3 L479.5 519.3 L479.5 519.6 L479.5 519.8 L479.5 520.0 L479.5 520.3 L479.5 520.5 L479.5 520.8 Z" fill="#2f8f83" fill-opacity="0.34" stroke="#0e5b52" stroke-width="1.6" />
  <path d="M536.5 225.9 L536.5 226.1 L536.7 226.1 L537.0 226.1 L537.2 226.1 L537.2 226.4 L537.2 226.7 L537.4 226.7 L537.4 227.0 L537.4 227.2 L537.4 227.5 L537.4 227.8 L537.4 228.1 L537.4 228.3 L537.7 228.3 L537.9 228.3 L538.1 228.3 L538.4 228.3 L538.4 228.6 L538.6 228.6 L538.8 228.6 L539.1 228.6 L539.1 228.9 L539.1 229.1 L539.1 229.4 L539.3 229.4 L539.6 229.4 L539.8 229.4 L540.0 229.4 L540.0 229.7 L540.0 230.0 L540.0 230.2 L540.0 230.5 L540.3 230.5 L540.5 230.5 L540.5 230.2 L540.3 230.2 L540.3 230.0 L540.3 229.7 L540.3 229.4 L540.3 229.1 L540.0 229.1 L539.8 229.1 L539.6 229.1 L539.3 229.1 L539.3 228.9 L539.3 228.6 L539.3 228.3 L539.1 228.3 L538.8 228.3 L538.6 228.3 L538.6 228.0 L538.4 228.1 L538.1 228.1 L537.9 228.1 L537.7 228.1 L537.7 227.8 L537.7 227.5 L537.7 227.2 L537.7 227.0 L537.7 226.7 L537.7 226.4 L537.4 226.4 L537.4 226.1 L537.4 225.9 L537.2 225.9 L537.0 225.9 L536.7 225.9 L536.7 225.6 L536.7 225.3 L536.7 225.0 L536.7 224.8 L536.7 224.5 L536.7 224.2 L536.5 224.2 L536.5 224.5 L536.5 224.8 L536.5 225.0 L536.5 225.3 L536.5 225.6 L536.5 225.9 Z" fill="#2f8f83" fill-opacity="0.34" stroke="#0e5b52" stroke-width="1.6" />
  <path d="M536.7 223.9 L536.5 223.9 L536.5 224.2 L536.7 224.2 L536.7 223.9 Z" fill="#2f8f83" fill-opacity="0.34" stroke="#0e5b52" stroke-width="1.6" />
  <path d="M540.3 233.8 L540.3 234.1 L540.5 234.1 L540.5 234.3 L540.7 234.3 L541.0 234.3 L541.0 234.6 L541.2 234.6 L541.2 234.9 L541.2 235.2 L541.0 235.2 L541.0 235.4 L540.7 235.4 L540.5 235.4 L540.5 235.7 L540.5 236.0 L540.5 236.2 L540.7 236.2 L541.0 236.2 L541.2 236.2 L541.2 236.0 L541.4 236.0 L541.7 236.0 L541.7 236.2 L541.9 236.2 L541.9 236.0 L542.1 236.0 L542.1 236.2 L542.4 236.2 L542.6 236.2 L542.8 236.2 L542.8 236.5 L542.8 236.8 L543.1 236.8 L543.1 237.1 L543.3 237.1 L543.3 237.3 L543.3 237.6 L543.3 237.9 L543.5 237.9 L543.8 237.9 L543.8 238.2 L543.8 238.4 L543.8 238.7 L543.8 239.0 L544.0 239.0 L544.0 239.2 L544.0 239.5 L544.0 239.8 L543.8 239.8 L543.5 239.8 L543.3 239.8 L543.3 240.1 L543.1 240.1 L542.8 240.1 L542.6 240.1 L542.6 239.8 L542.4 239.8 L542.4 239.5 L542.4 239.2 L542.1 239.2 L542.1 239.0 L541.9 239.0 L541.7 239.0 L541.4 239.0 L541.4 238.7 L541.2 238.7 L541.2 238.4 L541.0 238.4 L541.0 238.7 L541.0 239.0 L541.0 239.3 L541.0 239.5 L541.0 239.8 L541.0 240.1 L541.0 240.3 L541.0 240.6 L541.0 240.9 L541.2 240.9 L541.4 240.9 L541.7 240.9 L541.7 241.2 L541.9 241.2 L541.9 241.4 L541.9 241.7 L541.9 242.0 L542.1 242.0 L542.4 242.0 L542.4 242.2 L542.6 242.2 L542.8 242.2 L543.1 242.2 L543.1 242.5 L543.1 242.8 L543.3 242.8 L543.5 242.8 L543.5 242.5 L543.8 242.5 L544.0 242.5 L544.2 242.5 L544.2 242.8 L544.5 242.8 L544.7 242.8 L544.7 242.5 L544.7 242.2 L544.7 242.0 L544.5 242.0 L544.5 241.7 L544.2 241.7 L544.0 241.7 L543.8 241.7 L543.5 241.7 L543.3 241.7 L543.3 242.0 L543.1 242.0 L542.8 242.0 L542.8 241.7 L542.8 241.4 L542.8 241.2 L542.8 240.9 L543.1 240.9 L543.3 240.9 L543.3 240.6 L543.3 240.3 L543.5 240.3 L543.5 240.1 L543.8 240.1 L544.0 240.1 L544.0 240.3 L544.2 240.3 L544.2 240.1 L544.2 239.8 L544.2 239.5 L544.2 239.2 L544.2 239.0 L544.2 238.7 L544.0 238.7 L544.0 238.4 L544.0 238.2 L544.0 237.9 L544.0 237.6 L543.8 237.6 L543.8 237.3 L543.8 237.1 L543.8 236.8 L543.8 236.5 L543.8 236.2 L544.0 236.2 L544.0 236.0 L544.0 235.7 L544.0 235.4 L544.0 235.2 L544.0 234.9 L544.0 234.6 L544.0 234.3 L544.0 234.1 L544.0 233.8 L544.0 233.5 L544.0 233.2 L544.0 233.0 L544.0 232.7 L544.0 232.4 L543.8 232.4 L543.8 232.2 L543.8 231.9 L543.8 231.6 L543.8 231.3 L544.0 231.3 L544.2 231.3 L544.5 231.3 L544.7 231.3 L545.0 231.3 L545.2 231.3 L545.4 231.3 L545.7 231.3 L545.7 231.1 L545.7 230.8 L545.7 230.5 L545.7 230.2 L545.7 230.0 L545.7 229.7 L545.7 229.4 L545.7 229.1 L545.7 228.9 L545.4 228.9 L545.2 228.9 L545.0 228.9 L544.7 228.9 L544.5 228.9 L544.2 228.9 L544.0 228.9 L543.8 228.9 L543.5 228.9 L543.3 228.9 L543.1 228.9 L542.8 228.9 L542.8 229.1 L542.8 229.4 L542.8 229.7 L542.8 230.0 L542.6 230.0 L542.4 230.0 L542.1 230.0 L541.9 230.0 L541.7 230.0 L541.4 230.0 L541.4 230.2 L541.2 230.2 L541.0 230.2 L540.7 230.2 L540.5 230.2 L540.5 230.5 L540.5 230.8 L540.7 230.8 L540.7 231.1 L540.7 231.3 L540.7 231.6 L540.7 231.9 L540.5 231.9 L540.5 232.2 L540.5 232.4 L540.5 232.7 L540.3 232.7 L540.3 233.0 L540.3 233.2 L540.3 233.5 L540.3 233.8 Z" fill="#2f8f83" fill-opacity="0.34" stroke="#0e5b52" stroke-width="1.6" />
  <path d="M537.4 225.6 L537.2 225.6 L537.2 225.9 L537.4 225.9 L537.4 225.6 Z" fill="#2f8f83" fill-opacity="0.34" stroke="#0e5b52" stroke-width="1.6" />
  <path d="M410.2 159.3 L410.2 159.5 L410.5 159.5 L410.7 159.5 L410.9 159.5 L411.2 159.5 L411.4 159.5 L411.4 159.3 L411.4 159.0 L411.4 158.7 L411.2 158.7 L410.9 158.7 L410.7 158.7 L410.5 158.7 L410.2 158.7 L410.2 159.0 L410.2 159.3 Z" fill="#2f8f83" fill-opacity="0.34" stroke="#0e5b52" stroke-width="1.6" />
  <path d="M410.2 158.4 L410.2 158.7 L410.5 158.7 L410.7 158.7 L410.9 158.7 L411.2 158.7 L411.2 158.4 L411.2 158.1 L411.2 157.9 L410.9 157.9 L410.7 157.9 L410.5 157.9 L410.2 157.9 L410.2 158.1 L410.2 158.4 Z" fill="#2f8f83" fill-opacity="0.34" stroke="#0e5b52" stroke-width="1.6" />
  <path d="M411.4 155.9 L411.4 156.2 L411.6 156.2 L411.9 156.2 L412.1 156.2 L412.3 156.2 L412.6 156.2 L412.6 155.9 L412.6 155.6 L412.6 155.3 L412.3 155.3 L412.1 155.3 L411.9 155.3 L411.6 155.3 L411.4 155.3 L411.4 155.6 L411.4 155.9 Z" fill="#2f8f83" fill-opacity="0.34" stroke="#0e5b52" stroke-width="1.6" />
  <path d="M593.8 225.0 L593.8 225.3 L594.0 225.3 L594.2 225.3 L594.5 225.3 L594.5 225.0 L594.5 224.8 L594.2 224.8 L594.0 224.8 L593.8 224.8 L593.8 225.0 Z" fill="#2f8f83" fill-opacity="0.34" stroke="#0e5b52" stroke-width="1.6" />
  <path d="M592.8 225.6 L592.6 225.6 L592.6 225.9 L592.8 225.9 L593.1 225.9 L593.1 225.6 L592.8 225.6 Z" fill="#2f8f83" fill-opacity="0.34" stroke="#0e5b52" stroke-width="1.6" />
  <path d="M593.5 225.9 L593.5 226.1 L593.5 226.4 L593.8 226.4 L593.8 226.1 L593.8 225.9 L593.8 225.6 L593.5 225.6 L593.5 225.9 Z" fill="#2f8f83" fill-opacity="0.34" stroke="#0e5b52" stroke-width="1.6" />
  <path d="M491.0 523.5 L490.7 523.5 L490.7 523.7 L491.0 523.7 L491.0 523.5 Z" fill="#2f8f83" fill-opacity="0.34" stroke="#0e5b52" stroke-width="1.6" />
  <!-- title strip -->
  <rect x="0" y="0" width="1000" height="54" fill="#173042" />
  <text x="20" y="34" font-size="21" font-weight="bold" fill="#ffffff">ArcWest Exploration Inc. — Mineral Claims</text>
  <text x="980" y="34" font-size="15" fill="#cfe3df" text-anchor="end">AWX</text>
  <!-- scale bar -->
  <g transform="translate(910, 596)">
    <rect x="0" y="0" width="25" height="8" fill="#173042" />
    <rect x="25" y="0" width="25" height="8" fill="#ffffff" stroke="#173042" stroke-width="1" />
    <text x="25" y="-6" font-size="12" fill="#173042" text-anchor="middle">50 km</text>
  </g>
  <!-- north arrow -->
  <g transform="translate(956, 92)">
    <circle r="17" fill="#ffffff" stroke="#b9b09a" />
    <path d="M0 -10 L5 7 L0 3 L-5 7 Z" fill="#173042" />
    <text y="14" font-size="9" font-weight="bold" fill="#173042" text-anchor="middle">N</text>
  </g>
  <!-- watermark -->
  <text x="20" y="620" font-size="13" fill="#7d8b8a">Map by Exploration Maps — explorationmaps.com</text>
</svg>