<svg xmlns="http://www.w3.org/2000/svg" viewBox="0 0 1000 640" font-family="Arial, Helvetica, sans-serif">
  <rect width="1000" height="640" fill="#f3efe6" />
  <line x1="200" y1="0" x2="200" y2="640" stroke="#d9d2c0" stroke-width="0.7" />
  <line x1="0" y1="128" x2="1000" y2="128" stroke="#d9d2c0" stroke-width="0.7" />
  <line x1="400" y1="0" x2="400" y2="640" stroke="#d9d2c0" stroke-width="0.7" />
  <line x1="0" y1="256" x2="1000" y2="256" stroke="#d9d2c0" stroke-width="0.7" />
  <line x1="600" y1="0" x2="600" y2="640" stroke="#d9d2c0" stroke-width="0.7" />
  <line x1="0" y1="384" x2="1000" y2="384" stroke="#d9d2c0" stroke-width="0.7" />
  <line x1="800" y1="0" x2="800" y2="640" stroke="#d9d2c0" stroke-width="0.7" />
  <line x1="0" y1="512" x2="1000" y2="512" stroke="#d9d2c0" stroke-width="0.7" />
  <path d="M841.9 377.7 L841.9 376.9 L841.2 376.9 L841.2 377.7 L841.9 377.7 Z" fill="#2f8f83" fill-opacity="0.34" stroke="#0e5b52" stroke-width="1.6" />
  <path d="M842.6 377.7 L842.6 376.9 L841.9 376.9 L841.9 377.7 L842.6 377.7 Z" fill="#2f8f83" fill-opacity="0.34" stroke="#0e5b52" stroke-width="1.6" />
  <path d="M838.4 378.4 L838.4 377.7 L837.7 377.7 L837.7 378.4 L838.4 378.4 Z" fill="#2f8f83" fill-opacity="0.34" stroke="#0e5b52" stroke-width="1.6" />
  <path d="M839.1 378.4 L839.1 377.7 L838.4 377.7 L838.4 378.4 L839.1 378.4 Z" fill="#2f8f83" fill-opacity="0.34" stroke="#0e5b52" stroke-width="1.6" />
  <path d="M839.8 378.4 L839.8 377.7 L839.1 377.7 L839.1 378.4 L839.8 378.4 Z" fill="#2f8f83" fill-opacity="0.34" stroke="#0e5b52" stroke-width="1.6" />
  <path d="M840.5 378.4 L840.5 377.7 L839.8 377.7 L839.8 378.4 L840.5 378.4 Z" fill="#2f8f83" fill-opacity="0.34" stroke="#0e5b52" stroke-width="1.6" />
  <path d="M841.2 378.4 L841.2 377.7 L840.5 377.7 L840.5 378.4 L841.2 378.4 Z" fill="#2f8f83" fill-opacity="0.34" stroke="#0e5b52" stroke-width="1.6" />
  <path d="M841.9 378.4 L841.9 377.7 L841.2 377.7 L841.2 378.4 L841.9 378.4 Z" fill="#2f8f83" fill-opacity="0.34" stroke="#0e5b52" stroke-width="1.6" />
  <path d="M842.6 378.4 L842.6 377.7 L841.9 377.7 L841.9 378.4 L842.6 378.4 Z" fill="#2f8f83" fill-opacity="0.34" stroke="#0e5b52" stroke-width="1.6" />
  <path d="M838.4 379.1 L838.4 378.4 L837.7 378.4 L837.7 379.1 L838.4 379.1 Z" fill="#2f8f83" fill-opacity="0.34" stroke="#0e5b52" stroke-width="1.6" />
  <path d="M839.1 379.1 L839.1 378.4 L838.4 378.4 L838.4 379.1 L839.1 379.1 Z" fill="#2f8f83" fill-opacity="0.34" stroke="#0e5b52" stroke-width="1.6" />
  <path d="M839.8 379.1 L839.8 378.4 L839.1 378.4 L839.1 379.1 L839.8 379.1 Z" fill="#2f8f83" fill-opacity="0.34" stroke="#0e5b52" stroke-width="1.6" />
  <path d="M840.5 379.1 L840.5 378.4 L839.8 378.4 L839.8 379.1 L840.5 379.1 Z" fill="#2f8f83" fill-opacity="0.34" stroke="#0e5b52" stroke-width="1.6" />
  <path d="M841.2 379.1 L841.2 378.4 L840.5 378.4 L840.5 379.1 L841.2 379.1 Z" fill="#2f8f83" fill-opacity="0.34" stroke="#0e5b52" stroke-width="1.6" />
  <path d="M841.9 379.1 L841.9 378.4 L841.2 378.4 L841.2 379.1 L841.9 379.1 Z" fill="#2f8f83" fill-opacity="0.34" stroke="#0e5b52" stroke-width="1.6" />
  <path d="M842.6 379.1 L842.6 378.4 L841.9 378.4 L841.9 379.1 L842.6 379.1 Z" fill="#2f8f83" fill-opacity="0.34" stroke="#0e5b52" stroke-width="1.6" />
  <path d="M843.3 378.4 L843.3 377.7 L842.6 377.7 L842.6 378.4 L843.3 378.4 Z" fill="#2f8f83" fill-opacity="0.34" stroke="#0e5b52" stroke-width="1.6" />
  <path d="M845.4 377.7 L845.4 376.9 L844.7 376.9 L844.7 377.7 L845.4 377.7 Z" fill="#2f8f83" fill-opacity="0.34" stroke="#0e5b52" stroke-width="1.6" />
  <path d="M846.1 376.9 L846.1 376.2 L845.4 376.2 L845.4 376.9 L846.1 376.9 Z" fill="#2f8f83" fill-opacity="0.34" stroke="#0e5b52" stroke-width="1.6" />
  <path d="M846.8 377.7 L846.8 376.9 L846.1 376.9 L846.1 377.7 L846.8 377.7 Z" fill="#2f8f83" fill-opacity="0.34" stroke="#0e5b52" stroke-width="1.6" />
  <path d="M843.3 376.9 L843.3 376.2 L842.6 376.2 L842.6 376.9 L843.3 376.9 Z" fill="#2f8f83" fill-opacity="0.34" stroke="#0e5b52" stroke-width="1.6" />
  <path d="M844.0 378.4 L844.0 377.7 L843.3 377.7 L843.3 378.4 L844.0 378.4 Z" fill="#2f8f83" fill-opacity="0.34" stroke="#0e5b52" stroke-width="1.6" />
  <path d="M844.0 377.7 L844.0 376.9 L843.3 376.9 L843.3 377.7 L844.0 377.7 Z" fill="#2f8f83" fill-opacity="0.34" stroke="#0e5b52" stroke-width="1.6" />
  <path d="M844.7 378.4 L844.7 377.7 L844.0 377.7 L844.0 378.4 L844.7 378.4 Z" fill="#2f8f83" fill-opacity="0.34" stroke="#0e5b52" stroke-width="1.6" />
  <path d="M846.8 378.4 L846.8 377.7 L846.1 377.7 L846.1 378.4 L846.8 378.4 Z" fill="#2f8f83" fill-opacity="0.34" stroke="#0e5b52" stroke-width="1.6" />
  <path d="M843.3 377.7 L843.3 376.9 L842.6 376.9 L842.6 377.7 L843.3 377.7 Z" fill="#2f8f83" fill-opacity="0.34" stroke="#0e5b52" stroke-width="1.6" />
  <path d="M846.1 378.4 L846.1 377.7 L845.4 377.7 L845.4 378.4 L846.1 378.4 Z" fill="#2f8f83" fill-opacity="0.34" stroke="#0e5b52" stroke-width="1.6" />
  <path d="M846.8 376.9 L846.8 376.2 L846.1 376.2 L846.1 376.9 L846.8 376.9 Z" fill="#2f8f83" fill-opacity="0.34" stroke="#0e5b52" stroke-width="1.6" />
  <path d="M844.0 376.9 L844.0 376.2 L843.3 376.2 L843.3 376.9 L844.0 376.9 Z" fill="#2f8f83" fill-opacity="0.34" stroke="#0e5b52" stroke-width="1.6" />
  <path d="M844.7 377.7 L844.7 376.9 L844.0 376.9 L844.0 377.7 L844.7 377.7 Z" fill="#2f8f83" fill-opacity="0.34" stroke="#0e5b52" stroke-width="1.6" />
  <path d="M845.4 376.9 L845.4 376.2 L844.7 376.2 L844.7 376.9 L845.4 376.9 Z" fill="#2f8f83" fill-opacity="0.34" stroke="#0e5b52" stroke-width="1.6" />
  <path d="M844.7 376.9 L844.7 376.2 L844.0 376.2 L844.0 376.9 L844.7 376.9 Z" fill="#2f8f83" fill-opacity="0.34" stroke="#0e5b52" stroke-width="1.6" />
  <path d="M845.4 378.4 L845.4 377.7 L844.7 377.7 L844.7 378.4 L845.4 378.4 Z" fill="#2f8f83" fill-opacity="0.34" stroke="#0e5b52" stroke-width="1.6" />
  <path d="M846.1 377.7 L846.1 376.9 L845.4 376.9 L845.4 377.7 L846.1 377.7 Z" fill="#2f8f83" fill-opacity="0.34" stroke="#0e5b52" stroke-width="1.6" />
  <path d="M838.4 377.7 L838.4 376.9 L837.7 376.9 L837.7 377.7 L838.4 377.7 Z" fill="#2f8f83" fill-opacity="0.34" stroke="#0e5b52" stroke-width="1.6" />
  <path d="M839.1 377.7 L839.1 376.9 L838.4 376.9 L838.4 377.7 L839.1 377.7 Z" fill="#2f8f83" fill-opacity="0.34" stroke="#0e5b52" stroke-width="1.6" />
  <path d="M839.8 377.7 L839.8 376.9 L839.1 376.9 L839.1 377.7 L839.8 377.7 Z" fill="#2f8f83" fill-opacity="0.34" stroke="#0e5b52" stroke-width="1.6" />
  <path d="M840.5 377.7 L840.5 376.9 L839.8 376.9 L839.8 377.7 L840.5 377.7 Z" fill="#2f8f83" fill-opacity="0.34" stroke="#0e5b52" stroke-width="1.6" />
  <path d="M841.2 377.7 L841.2 376.9 L840.5 376.9 L840.5 377.7 L841.2 377.7 Z" fill="#2f8f83" fill-opacity="0.34" stroke="#0e5b52" stroke-width="1.6" />
  <path d="M501.7 217.8 L501.7 218.5 L502.4 218.5 L503.1 218.5 L503.8 218.5 L503.8 217.8 L504.5 217.8 L505.2 217.8 L505.2 217.1 L505.2 216.3 L505.9 216.3 L505.9 215.6 L505.2 215.6 L505.2 214.9 L504.5 214.9 L503.8 214.9 L503.1 214.9 L502.4 214.9 L502.4 215.6 L501.7 215.6 L501.7 216.3 L501.7 217.1 L501.7 217.8 Z" fill="#2f8f83" fill-opacity="0.34" stroke="#0e5b52" stroke-width="1.6" />
  <path d="M155.3 241.6 L155.3 242.4 L156.0 242.4 L156.7 242.4 L157.4 242.4 L158.1 242.4 L158.1 241.6 L158.8 241.6 L158.8 240.9 L159.5 240.9 L159.5 240.2 L160.2 240.2 L160.2 239.5 L160.9 239.5 L160.9 238.8 L160.2 238.8 L160.2 238.0 L159.5 238.0 L158.8 238.0 L158.8 238.8 L158.1 238.8 L158.1 239.5 L157.4 239.5 L156.7 239.5 L156.7 240.2 L156.0 240.2 L156.0 240.9 L155.3 240.9 L155.3 241.6 Z" fill="#2f8f83" fill-opacity="0.34" stroke="#0e5b52" stroke-width="1.6" />
  <path d="M153.2 240.2 L153.2 240.9 L153.9 240.9 L154.6 240.9 L155.3 240.9 L156.0 240.9 L156.0 240.2 L156.0 239.5 L156.0 238.8 L156.0 238.0 L155.3 238.0 L154.6 238.0 L154.6 238.8 L153.9 238.8 L153.2 238.8 L153.2 239.5 L153.2 240.2 Z" fill="#2f8f83" fill-opacity="0.34" stroke="#0e5b52" stroke-width="1.6" />
  <path d="M156.0 239.5 L156.0 240.2 L156.7 240.2 L156.7 239.5 L157.4 239.5 L158.1 239.5 L158.1 238.8 L158.8 238.8 L158.8 238.0 L159.5 238.0 L160.2 238.0 L160.2 237.3 L159.5 237.3 L158.8 237.3 L158.1 237.3 L157.4 237.3 L156.7 237.3 L156.0 237.3 L156.0 238.0 L156.0 238.8 L156.0 239.5 Z" fill="#2f8f83" fill-opacity="0.34" stroke="#0e5b52" stroke-width="1.6" />
  <path d="M158.8 242.4 L159.5 242.4 L160.2 242.4 L160.9 242.4 L161.6 242.4 L161.6 241.6 L162.3 241.6 L162.3 240.9 L162.3 240.2 L161.6 240.2 L161.6 239.5 L161.6 238.8 L160.9 238.8 L160.9 239.5 L160.2 239.5 L160.2 240.2 L159.5 240.2 L159.5 240.9 L158.8 240.9 L158.8 241.6 L158.1 241.6 L158.1 242.4 L158.8 242.4 Z" fill="#2f8f83" fill-opacity="0.34" stroke="#0e5b52" stroke-width="1.6" />
  <path d="M644.5 417.3 L644.5 418.0 L645.2 418.0 L645.9 418.0 L646.6 418.0 L646.6 417.3 L646.6 416.6 L646.6 415.9 L646.6 415.2 L646.6 414.5 L646.6 413.8 L646.6 413.1 L646.6 412.4 L645.9 412.4 L645.2 412.4 L644.5 412.4 L644.5 413.1 L644.5 413.8 L644.5 414.5 L644.5 415.2 L644.5 415.9 L644.5 416.6 L644.5 417.3 Z" fill="#2f8f83" fill-opacity="0.34" stroke="#0e5b52" stroke-width="1.6" />
  <path d="M646.6 417.3 L646.6 418.0 L647.3 418.0 L648.0 418.0 L648.7 418.0 L648.7 417.3 L648.7 416.6 L648.7 415.9 L648.7 415.2 L648.7 414.5 L648.7 413.8 L648.7 413.1 L648.7 412.4 L648.0 412.4 L647.3 412.4 L646.6 412.4 L646.6 413.1 L646.6 413.8 L646.6 414.5 L646.6 415.2 L646.6 415.9 L646.6 416.6 L646.6 417.3 Z" fill="#2f8f83" fill-opacity="0.34" stroke="#0e5b52" stroke-width="1.6" />
  <path d="M648.7 417.3 L648.7 418.0 L649.4 418.0 L650.1 418.0 L650.1 417.3 L650.1 416.6 L650.1 415.9 L650.8 415.9 L650.8 415.2 L651.5 415.2 L651.5 414.5 L651.5 413.8 L651.5 413.1 L651.5 412.4 L650.8 412.4 L650.1 412.4 L649.4 412.4 L648.7 412.4 L648.7 413.1 L648.7 413.8 L648.7 414.5 L648.7 415.2 L648.7 415.9 L648.7 416.6 L648.7 417.3 Z" fill="#2f8f83" fill-opacity="0.34" stroke="#0e5b52" stroke-width="1.6" />
  <path d="M641.7 410.3 L641.7 411.0 L642.4 411.0 L642.4 411.7 L642.4 412.4 L643.1 412.4 L643.1 413.1 L643.8 413.1 L644.5 413.1 L644.5 412.4 L645.2 412.4 L645.9 412.4 L646.6 412.4 L646.6 411.7 L646.6 411.0 L645.9 411.0 L645.2 411.0 L645.2 410.3 L644.5 410.3 L643.8 410.3 L643.8 409.6 L643.1 409.6 L642.4 409.6 L641.7 409.6 L641.7 410.3 Z" fill="#2f8f83" fill-opacity="0.34" stroke="#0e5b52" stroke-width="1.6" />
  <path d="M642.4 419.5 L643.1 419.5 L643.8 419.5 L644.5 419.5 L644.5 418.7 L644.5 418.0 L644.5 417.3 L644.5 416.6 L643.8 416.6 L643.8 417.3 L643.1 417.3 L643.1 418.0 L642.4 418.0 L642.4 418.7 L641.7 418.7 L641.7 419.5 L642.4 419.5 Z" fill="#2f8f83" fill-opacity="0.34" stroke="#0e5b52" stroke-width="1.6" />
  <path d="M655.7 423.7 L655.7 424.4 L656.4 424.4 L657.1 424.4 L657.8 424.4 L658.5 424.4 L659.2 424.4 L659.2 423.7 L659.2 423.0 L659.2 422.3 L658.5 422.3 L657.8 422.3 L657.1 422.3 L656.4 422.3 L655.7 422.3 L655.7 423.0 L655.7 423.7 Z" fill="#2f8f83" fill-opacity="0.34" stroke="#0e5b52" stroke-width="1.6" />
  <path d="M659.2 425.1 L659.2 425.8 L659.9 425.8 L660.6 425.8 L661.3 425.8 L662.0 425.8 L662.7 425.8 L663.4 425.8 L664.1 425.8 L664.1 425.1 L664.8 425.1 L664.8 424.4 L665.5 424.4 L665.5 423.7 L664.8 423.7 L664.1 423.7 L663.4 423.7 L662.7 423.7 L662.0 423.7 L661.3 423.7 L660.6 423.7 L659.9 423.7 L659.2 423.7 L659.2 424.4 L659.2 425.1 Z" fill="#2f8f83" fill-opacity="0.34" stroke="#0e5b52" stroke-width="1.6" />
  <path d="M659.2 423.0 L659.2 423.7 L659.9 423.7 L660.6 423.7 L661.3 423.7 L662.0 423.7 L662.7 423.7 L663.4 423.7 L663.4 423.0 L663.4 422.3 L663.4 421.6 L662.7 421.6 L662.0 421.6 L661.3 421.6 L660.6 421.6 L659.9 421.6 L659.2 421.6 L659.2 422.3 L659.2 423.0 Z" fill="#2f8f83" fill-opacity="0.34" stroke="#0e5b52" stroke-width="1.6" />
  <path d="M639.6 422.3 L639.6 423.0 L640.3 423.0 L641.0 423.0 L641.7 423.0 L642.4 423.0 L642.4 422.3 L642.4 421.6 L642.4 420.9 L643.1 420.9 L643.8 420.9 L644.5 420.9 L644.5 420.2 L644.5 419.5 L643.8 419.5 L643.1 419.5 L642.4 419.5 L641.7 419.5 L641.0 419.5 L640.3 419.5 L640.3 420.2 L639.6 420.2 L639.6 420.9 L639.6 421.6 L639.6 422.3 Z" fill="#2f8f83" fill-opacity="0.34" stroke="#0e5b52" stroke-width="1.6" />
  <path d="M644.5 419.5 L644.5 420.2 L645.2 420.2 L645.9 420.2 L646.6 420.2 L647.3 420.2 L648.0 420.2 L648.7 420.2 L649.4 420.2 L650.1 420.2 L650.1 419.5 L650.1 418.7 L650.1 418.0 L649.4 418.0 L648.7 418.0 L648.0 418.0 L647.3 418.0 L646.6 418.0 L645.9 418.0 L645.2 418.0 L644.5 418.0 L644.5 418.7 L644.5 419.5 Z" fill="#2f8f83" fill-opacity="0.34" stroke="#0e5b52" stroke-width="1.6" />
  <path d="M645.2 420.9 L645.9 420.9 L645.9 421.6 L645.9 422.3 L646.6 422.3 L647.3 422.3 L648.0 422.3 L648.0 421.6 L648.7 421.6 L649.4 421.6 L649.4 422.3 L650.1 422.3 L650.1 421.6 L650.1 420.9 L650.1 420.2 L649.4 420.2 L648.7 420.2 L648.0 420.2 L647.3 420.2 L646.6 420.2 L645.9 420.2 L645.2 420.2 L644.5 420.2 L644.5 420.9 L645.2 420.9 Z" fill="#2f8f83" fill-opacity="0.34" stroke="#0e5b52" stroke-width="1.6" />
  <path d="M650.1 421.6 L650.1 422.3 L650.8 422.3 L651.5 422.3 L652.2 422.3 L652.9 422.3 L652.9 421.6 L652.9 420.9 L652.9 420.2 L652.9 419.5 L652.2 419.5 L651.5 419.5 L650.8 419.5 L650.1 419.5 L650.1 420.2 L650.1 420.9 L650.1 421.6 Z" fill="#2f8f83" fill-opacity="0.34" stroke="#0e5b52" stroke-width="1.6" />
  <path d="M652.9 421.6 L652.9 422.3 L653.6 422.3 L654.3 422.3 L655.0 422.3 L655.7 422.3 L656.4 422.3 L657.1 422.3 L657.1 421.6 L656.4 421.6 L655.7 421.6 L655.7 420.9 L655.0 420.9 L655.0 420.2 L654.3 420.2 L653.6 420.2 L652.9 420.2 L652.9 420.9 L652.9 421.6 Z" fill="#2f8f83" fill-opacity="0.34" stroke="#0e5b52" stroke-width="1.6" />
  <path d="M650.1 418.7 L650.1 419.5 L650.8 419.5 L651.5 419.5 L652.2 419.5 L652.9 419.5 L652.9 418.7 L652.9 418.0 L652.9 417.3 L652.9 416.6 L652.9 415.9 L652.9 415.2 L652.2 415.2 L651.5 415.2 L650.8 415.2 L650.8 415.9 L650.1 415.9 L650.1 416.6 L650.1 417.3 L650.1 418.0 L650.1 418.7 Z" fill="#2f8f83" fill-opacity="0.34" stroke="#0e5b52" stroke-width="1.6" />
  <path d="M652.9 419.5 L652.9 420.2 L653.6 420.2 L654.3 420.2 L655.0 420.2 L655.0 419.5 L655.0 418.7 L655.0 418.0 L655.0 417.3 L655.0 416.6 L655.7 416.6 L656.4 416.6 L656.4 415.9 L655.7 415.9 L655.0 415.9 L654.3 415.9 L653.6 415.9 L652.9 415.9 L652.9 416.6 L652.9 417.3 L652.9 418.0 L652.9 418.7 L652.9 419.5 Z" fill="#2f8f83" fill-opacity="0.34" stroke="#0e5b52" stroke-width="1.6" />
  <!-- title strip -->
  <rect x="0" y="0" width="1000" height="54" fill="#173042" />
  <text x="20" y="34" font-size="21" font-weight="bold" fill="#ffffff">Benton Resources Inc. — Mineral Claims</text>
  <text x="980" y="34" font-size="15" fill="#cfe3df" text-anchor="end">BEX</text>
  <!-- scale bar -->
  <g transform="translate(882.9348343265426, 596)">
    <rect x="0" y="0" width="38.53258283672871" height="8" fill="#173042" />
    <rect x="38.53258283672871" y="0" width="38.53258283672871" height="8" fill="#ffffff" stroke="#173042" stroke-width="1" />
    <text x="38.53258283672871" y="-6" font-size="12" fill="#173042" text-anchor="middle">50 km</text>
  </g>
  <!-- north arrow -->
  <g transform="translate(956, 92)">
    <circle r="17" fill="#ffffff" stroke="#b9b09a" />
    <path d="M0 -10 L5 7 L0 3 L-5 7 Z" fill="#173042" />
    <text y="14" font-size="9" font-weight="bold" fill="#173042" text-anchor="middle">N</text>
  </g>
  <!-- watermark -->
  <text x="20" y="620" font-size="13" fill="#7d8b8a">Map by Exploration Maps — explorationmaps.com</text>
</svg>