<svg xmlns="http://www.w3.org/2000/svg" viewBox="0 0 1000 640" font-family="Arial, Helvetica, sans-serif">
  <rect width="1000" height="640" fill="#f3efe6" />
  <line x1="200" y1="0" x2="200" y2="640" stroke="#d9d2c0" stroke-width="0.7" />
  <line x1="0" y1="128" x2="1000" y2="128" stroke="#d9d2c0" stroke-width="0.7" />
  <line x1="400" y1="0" x2="400" y2="640" stroke="#d9d2c0" stroke-width="0.7" />
  <line x1="0" y1="256" x2="1000" y2="256" stroke="#d9d2c0" stroke-width="0.7" />
  <line x1="600" y1="0" x2="600" y2="640" stroke="#d9d2c0" stroke-width="0.7" />
  <line x1="0" y1="384" x2="1000" y2="384" stroke="#d9d2c0" stroke-width="0.7" />
  <line x1="800" y1="0" x2="800" y2="640" stroke="#d9d2c0" stroke-width="0.7" />
  <line x1="0" y1="512" x2="1000" y2="512" stroke="#d9d2c0" stroke-width="0.7" />
  <path d="M155.2 318.3 L155.1 318.3 L155.1 318.5 L155.2 318.5 L155.2 318.6 L155.4 318.6 L155.4 318.8 L155.5 318.8 L155.7 318.8 L155.7 318.6 L155.5 318.6 L155.5 318.5 L155.4 318.5 L155.4 318.3 L155.2 318.3 Z" fill="#2f8f83" fill-opacity="0.34" stroke="#0e5b52" stroke-width="1.6" />
  <path d="M154.2 310.3 L154.2 310.4 L154.2 310.6 L154.2 310.7 L154.2 310.9 L154.4 310.9 L154.5 310.9 L154.7 310.9 L154.8 310.9 L154.9 310.9 L155.1 310.9 L155.2 310.9 L155.4 310.9 L155.5 310.9 L155.7 310.9 L155.8 310.9 L156.0 310.9 L156.1 310.9 L156.1 310.7 L156.1 310.6 L156.1 310.4 L156.1 310.3 L156.1 310.2 L156.0 310.2 L155.8 310.2 L155.7 310.2 L155.5 310.2 L155.4 310.2 L155.2 310.2 L155.1 310.2 L154.9 310.2 L154.8 310.2 L154.7 310.2 L154.5 310.2 L154.4 310.2 L154.2 310.2 L154.2 310.3 Z" fill="#2f8f83" fill-opacity="0.34" stroke="#0e5b52" stroke-width="1.6" />
  <path d="M209.4 329.7 L209.2 329.7 L209.2 329.9 L209.4 329.9 L209.4 329.7 Z" fill="#2f8f83" fill-opacity="0.34" stroke="#0e5b52" stroke-width="1.6" />
  <path d="M155.2 316.9 L155.2 317.0 L155.2 317.1 L155.4 317.1 L155.5 317.1 L155.5 317.3 L155.7 317.3 L155.8 317.3 L156.0 317.3 L156.0 317.1 L156.1 317.1 L156.1 317.3 L156.2 317.3 L156.4 317.3 L156.5 317.3 L156.7 317.3 L156.7 317.4 L156.7 317.6 L156.7 317.7 L156.8 317.7 L157.0 317.7 L157.1 317.7 L157.1 317.6 L157.2 317.6 L157.2 317.4 L157.2 317.3 L157.1 317.3 L157.1 317.1 L157.0 317.1 L157.0 317.0 L156.8 317.0 L156.8 316.9 L156.8 316.7 L156.8 316.6 L156.7 316.6 L156.7 316.4 L156.5 316.4 L156.5 316.3 L156.4 316.3 L156.4 316.1 L156.2 316.1 L156.1 316.1 L156.0 316.1 L155.8 316.1 L155.7 316.1 L155.7 316.3 L155.5 316.3 L155.5 316.4 L155.4 316.4 L155.4 316.6 L155.4 316.7 L155.2 316.7 L155.2 316.9 Z" fill="#2f8f83" fill-opacity="0.34" stroke="#0e5b52" stroke-width="1.6" />
  <path d="M153.2 312.4 L153.2 312.5 L153.2 312.7 L153.4 312.7 L153.4 312.8 L153.5 312.8 L153.5 313.0 L153.7 313.0 L153.7 313.1 L153.8 313.1 L153.8 313.3 L153.9 313.3 L154.1 313.3 L154.2 313.3 L154.2 313.1 L154.2 313.0 L154.2 312.8 L154.2 312.7 L154.2 312.5 L154.2 312.4 L154.2 312.2 L154.4 312.2 L154.5 312.2 L154.5 312.1 L154.7 312.1 L154.7 311.9 L154.8 311.9 L154.8 311.8 L154.7 311.8 L154.5 311.8 L154.4 311.8 L154.2 311.8 L154.1 311.8 L153.9 311.8 L153.9 311.9 L153.8 311.9 L153.7 311.9 L153.5 311.9 L153.5 312.1 L153.5 312.2 L153.4 312.2 L153.2 312.2 L153.2 312.4 Z" fill="#2f8f83" fill-opacity="0.34" stroke="#0e5b52" stroke-width="1.6" />
  <path d="M153.9 311.0 L153.9 311.2 L153.9 311.3 L153.9 311.5 L153.9 311.6 L153.9 311.8 L154.1 311.8 L154.2 311.8 L154.4 311.8 L154.5 311.8 L154.7 311.8 L154.8 311.8 L154.9 311.8 L154.9 311.6 L155.1 311.6 L155.1 311.5 L155.2 311.5 L155.2 311.3 L155.4 311.3 L155.4 311.2 L155.5 311.2 L155.7 311.2 L155.7 311.0 L155.8 311.0 L155.8 310.9 L155.7 310.9 L155.5 310.9 L155.4 310.9 L155.2 310.9 L155.1 310.9 L154.9 310.9 L154.8 310.9 L154.7 310.9 L154.5 310.9 L154.4 310.9 L154.2 310.9 L154.1 310.9 L153.9 310.9 L153.9 311.0 Z" fill="#2f8f83" fill-opacity="0.34" stroke="#0e5b52" stroke-width="1.6" />
  <path d="M844.6 312.4 L844.6 312.5 L844.8 312.5 L844.8 312.7 L844.9 312.7 L844.9 312.5 L845.1 312.5 L845.2 312.5 L845.2 312.4 L845.2 312.2 L845.1 312.2 L845.1 312.1 L845.1 311.9 L845.1 311.8 L845.1 311.6 L844.9 311.6 L844.9 311.8 L844.9 311.9 L844.9 312.1 L844.8 312.1 L844.6 312.1 L844.6 312.2 L844.6 312.4 Z" fill="#2f8f83" fill-opacity="0.34" stroke="#0e5b52" stroke-width="1.6" />
  <path d="M845.1 312.1 L845.1 312.2 L845.2 312.2 L845.2 312.4 L845.3 312.4 L845.3 312.2 L845.3 312.1 L845.5 312.1 L845.6 312.1 L845.8 312.1 L845.8 311.9 L845.8 311.8 L845.8 311.6 L845.8 311.5 L845.8 311.3 L845.6 311.3 L845.6 311.5 L845.5 311.5 L845.3 311.5 L845.3 311.6 L845.2 311.6 L845.1 311.6 L845.1 311.8 L845.1 311.9 L845.1 312.1 Z" fill="#2f8f83" fill-opacity="0.34" stroke="#0e5b52" stroke-width="1.6" />
  <path d="M845.8 311.3 L845.8 311.5 L845.9 311.5 L846.1 311.5 L846.2 311.5 L846.3 311.5 L846.5 311.5 L846.6 311.5 L846.8 311.5 L846.8 311.3 L846.8 311.2 L846.8 311.0 L846.6 311.0 L846.5 311.0 L846.3 311.0 L846.2 311.0 L846.1 311.0 L845.9 311.0 L845.8 311.0 L845.8 311.2 L845.8 311.3 Z" fill="#2f8f83" fill-opacity="0.34" stroke="#0e5b52" stroke-width="1.6" />
  <path d="M845.8 311.9 L845.8 312.1 L845.9 312.1 L846.1 312.1 L846.2 312.1 L846.2 311.9 L846.3 311.9 L846.3 311.8 L846.5 311.8 L846.6 311.8 L846.8 311.8 L846.8 311.6 L846.8 311.5 L846.6 311.5 L846.5 311.5 L846.3 311.5 L846.2 311.5 L846.1 311.5 L845.9 311.5 L845.8 311.5 L845.8 311.6 L845.8 311.8 L845.8 311.9 Z" fill="#2f8f83" fill-opacity="0.34" stroke="#0e5b52" stroke-width="1.6" />
  <!-- title strip -->
  <rect x="0" y="0" width="1000" height="54" fill="#173042" />
  <text x="20" y="34" font-size="21" font-weight="bold" fill="#ffffff">Cascade Copper Corp. — Mineral Claims</text>
  <text x="980" y="34" font-size="15" fill="#cfe3df" text-anchor="end">CASC</text>
  <!-- scale bar -->
  <g transform="translate(910, 596)">
    <rect x="0" y="0" width="25" height="8" fill="#173042" />
    <rect x="25" y="0" width="25" height="8" fill="#ffffff" stroke="#173042" stroke-width="1" />
    <text x="25" y="-6" font-size="12" fill="#173042" text-anchor="middle">50 km</text>
  </g>
  <!-- north arrow -->
  <g transform="translate(956, 92)">
    <circle r="17" fill="#ffffff" stroke="#b9b09a" />
    <path d="M0 -10 L5 7 L0 3 L-5 7 Z" fill="#173042" />
    <text y="14" font-size="9" font-weight="bold" fill="#173042" text-anchor="middle">N</text>
  </g>
  <!-- watermark -->
  <text x="20" y="620" font-size="13" fill="#7d8b8a">Map by Exploration Maps — explorationmaps.com</text>
</svg>