<svg xmlns="http://www.w3.org/2000/svg" viewBox="0 0 1000 640" font-family="Arial, Helvetica, sans-serif">
  <rect width="1000" height="640" fill="#f3efe6" />
  <line x1="200" y1="0" x2="200" y2="640" stroke="#d9d2c0" stroke-width="0.7" />
  <line x1="0" y1="128" x2="1000" y2="128" stroke="#d9d2c0" stroke-width="0.7" />
  <line x1="400" y1="0" x2="400" y2="640" stroke="#d9d2c0" stroke-width="0.7" />
  <line x1="0" y1="256" x2="1000" y2="256" stroke="#d9d2c0" stroke-width="0.7" />
  <line x1="600" y1="0" x2="600" y2="640" stroke="#d9d2c0" stroke-width="0.7" />
  <line x1="0" y1="384" x2="1000" y2="384" stroke="#d9d2c0" stroke-width="0.7" />
  <line x1="800" y1="0" x2="800" y2="640" stroke="#d9d2c0" stroke-width="0.7" />
  <line x1="0" y1="512" x2="1000" y2="512" stroke="#d9d2c0" stroke-width="0.7" />
  <path d="M369.5 477.3 L369.3 477.2 L369.2 477.3 L369.3 477.5 L369.3 477.5 L369.4 477.4 L369.4 477.4 L369.5 477.3 Z" fill="#2f8f83" fill-opacity="0.34" stroke="#0e5b52" stroke-width="1.6" />
  <path d="M369.8 477.5 L369.6 477.5 L369.6 477.7 L369.8 477.7 L369.8 477.5 Z" fill="#2f8f83" fill-opacity="0.34" stroke="#0e5b52" stroke-width="1.6" />
  <path d="M369.5 479.8 L369.5 480.0 L369.6 480.0 L369.8 480.0 L370.0 480.0 L370.2 480.0 L370.2 479.8 L370.0 479.8 L369.8 479.8 L369.6 479.8 L369.6 479.6 L369.6 479.4 L369.6 479.2 L369.6 479.0 L369.5 479.0 L369.5 479.2 L369.5 479.4 L369.5 479.6 L369.5 479.8 Z" fill="#2f8f83" fill-opacity="0.34" stroke="#0e5b52" stroke-width="1.6" />
  <path d="M369.5 480.5 L369.5 480.7 L369.6 480.7 L369.8 480.7 L370.0 480.7 L370.2 480.7 L370.4 480.7 L370.6 480.7 L370.6 480.5 L370.6 480.3 L370.6 480.2 L370.4 480.2 L370.4 480.0 L370.2 480.0 L370.0 480.0 L369.8 480.0 L369.6 480.0 L369.5 480.0 L369.5 480.2 L369.5 480.3 L369.5 480.5 Z" fill="#2f8f83" fill-opacity="0.34" stroke="#0e5b52" stroke-width="1.6" />
  <path d="M370.6 480.5 L370.6 480.7 L370.7 480.7 L370.9 480.7 L371.1 480.7 L371.3 480.7 L371.5 480.7 L371.6 480.7 L371.6 480.5 L371.5 480.5 L371.3 480.5 L371.1 480.5 L371.1 480.3 L370.9 480.3 L370.9 480.2 L370.7 480.2 L370.6 480.2 L370.6 480.3 L370.6 480.5 Z" fill="#2f8f83" fill-opacity="0.34" stroke="#0e5b52" stroke-width="1.6" />
  <path d="M371.3 479.8 L371.3 480.0 L371.5 480.0 L371.5 480.2 L371.6 480.2 L371.6 480.0 L371.6 479.8 L371.6 479.6 L371.5 479.6 L371.5 479.4 L371.5 479.2 L371.5 479.0 L371.3 479.0 L371.1 479.0 L371.1 479.2 L371.3 479.2 L371.3 479.4 L371.3 479.6 L371.3 479.8 Z" fill="#2f8f83" fill-opacity="0.34" stroke="#0e5b52" stroke-width="1.6" />
  <path d="M370.2 478.1 L370.2 478.3 L370.4 478.3 L370.6 478.3 L370.6 478.1 L370.6 477.9 L370.6 477.7 L370.6 477.5 L370.4 477.5 L370.4 477.7 L370.2 477.7 L370.2 477.9 L370.2 478.1 Z" fill="#2f8f83" fill-opacity="0.34" stroke="#0e5b52" stroke-width="1.6" />
  <path d="M368.0 476.7 L368.0 476.9 L368.2 476.9 L368.4 476.9 L368.6 476.9 L368.7 476.9 L368.7 476.7 L368.7 476.5 L368.6 476.5 L368.6 476.4 L368.4 476.4 L368.2 476.4 L368.0 476.4 L368.0 476.5 L368.0 476.7 Z" fill="#2f8f83" fill-opacity="0.34" stroke="#0e5b52" stroke-width="1.6" />
  <path d="M367.3 480.2 L367.3 480.3 L367.5 480.3 L367.7 480.3 L367.8 480.3 L368.0 480.3 L368.2 480.3 L368.4 480.3 L368.4 480.2 L368.4 480.0 L368.2 480.0 L368.0 480.0 L367.8 480.0 L367.7 480.0 L367.5 480.0 L367.3 480.0 L367.3 480.2 Z" fill="#2f8f83" fill-opacity="0.34" stroke="#0e5b52" stroke-width="1.6" />
  <path d="M368.9 480.5 L368.9 480.7 L369.1 480.7 L369.3 480.7 L369.5 480.7 L369.5 480.5 L369.5 480.3 L369.3 480.3 L369.1 480.3 L368.9 480.3 L368.9 480.5 Z" fill="#2f8f83" fill-opacity="0.34" stroke="#0e5b52" stroke-width="1.6" />
  <path d="M368.0 477.3 L368.0 477.5 L368.2 477.5 L368.4 477.5 L368.6 477.5 L368.7 477.5 L368.7 477.3 L368.7 477.1 L368.7 476.9 L368.6 476.9 L368.4 476.9 L368.2 476.9 L368.0 476.9 L368.0 477.1 L368.0 477.3 Z" fill="#2f8f83" fill-opacity="0.34" stroke="#0e5b52" stroke-width="1.6" />
  <path d="M368.4 480.5 L368.4 480.7 L368.6 480.7 L368.7 480.7 L368.9 480.7 L368.9 480.5 L368.9 480.3 L368.7 480.3 L368.6 480.3 L368.4 480.3 L368.4 480.5 Z" fill="#2f8f83" fill-opacity="0.34" stroke="#0e5b52" stroke-width="1.6" />
  <path d="M367.3 479.8 L367.3 480.0 L367.5 480.0 L367.7 480.0 L367.8 480.0 L368.0 480.0 L368.2 480.0 L368.4 480.0 L368.4 479.8 L368.4 479.6 L368.4 479.4 L368.2 479.4 L368.0 479.4 L367.8 479.4 L367.7 479.4 L367.5 479.4 L367.3 479.4 L367.3 479.6 L367.3 479.8 Z" fill="#2f8f83" fill-opacity="0.34" stroke="#0e5b52" stroke-width="1.6" />
  <path d="M368.4 479.8 L368.4 480.0 L368.6 480.0 L368.7 480.0 L368.9 480.0 L369.1 480.0 L369.3 480.0 L369.5 480.0 L369.5 479.8 L369.5 479.6 L369.5 479.4 L369.3 479.4 L369.1 479.4 L368.9 479.4 L368.7 479.4 L368.6 479.4 L368.4 479.4 L368.4 479.6 L368.4 479.8 Z" fill="#2f8f83" fill-opacity="0.34" stroke="#0e5b52" stroke-width="1.6" />
  <path d="M367.3 480.5 L367.3 480.7 L367.5 480.7 L367.7 480.7 L367.8 480.7 L368.0 480.7 L368.2 480.7 L368.4 480.7 L368.4 480.5 L368.4 480.3 L368.2 480.3 L368.0 480.3 L367.8 480.3 L367.7 480.3 L367.5 480.3 L367.3 480.3 L367.3 480.5 Z" fill="#2f8f83" fill-opacity="0.34" stroke="#0e5b52" stroke-width="1.6" />
  <path d="M367.8 478.1 L367.8 478.3 L368.0 478.3 L368.2 478.3 L368.4 478.3 L368.6 478.3 L368.7 478.3 L368.7 478.1 L368.7 477.9 L368.7 477.7 L368.7 477.5 L368.6 477.5 L368.4 477.5 L368.2 477.5 L368.0 477.5 L367.8 477.5 L367.8 477.7 L367.8 477.9 L367.8 478.1 Z" fill="#2f8f83" fill-opacity="0.34" stroke="#0e5b52" stroke-width="1.6" />
  <path d="M368.7 478.3 L368.7 478.4 L368.9 478.4 L369.1 478.4 L369.3 478.4 L369.5 478.4 L369.5 478.3 L369.3 478.3 L369.3 478.1 L369.1 478.1 L369.1 477.9 L368.9 477.9 L368.9 477.7 L368.7 477.7 L368.7 477.9 L368.7 478.1 L368.7 478.3 Z" fill="#2f8f83" fill-opacity="0.34" stroke="#0e5b52" stroke-width="1.6" />
  <path d="M367.8 478.8 L367.8 479.0 L368.0 479.0 L368.2 479.0 L368.4 479.0 L368.6 479.0 L368.7 479.0 L368.7 478.8 L368.7 478.6 L368.7 478.4 L368.7 478.3 L368.6 478.3 L368.4 478.3 L368.2 478.3 L368.0 478.3 L367.8 478.3 L367.8 478.4 L367.8 478.6 L367.8 478.8 Z" fill="#2f8f83" fill-opacity="0.34" stroke="#0e5b52" stroke-width="1.6" />
  <path d="M368.7 478.8 L368.7 479.0 L368.9 479.0 L369.1 479.0 L369.3 479.0 L369.5 479.0 L369.6 479.0 L369.6 478.8 L369.6 478.6 L369.6 478.4 L369.5 478.4 L369.3 478.4 L369.1 478.4 L368.9 478.4 L368.7 478.4 L368.7 478.6 L368.7 478.8 Z" fill="#2f8f83" fill-opacity="0.34" stroke="#0e5b52" stroke-width="1.6" />
  <path d="M368.6 479.2 L368.6 479.4 L368.7 479.4 L368.9 479.4 L369.1 479.4 L369.3 479.4 L369.5 479.4 L369.5 479.2 L369.5 479.0 L369.3 479.0 L369.1 479.0 L368.9 479.0 L368.7 479.0 L368.6 479.0 L368.6 479.2 Z" fill="#2f8f83" fill-opacity="0.34" stroke="#0e5b52" stroke-width="1.6" />
  <path d="M367.5 479.2 L367.5 479.4 L367.7 479.4 L367.8 479.4 L368.0 479.4 L368.2 479.4 L368.4 479.4 L368.6 479.4 L368.6 479.2 L368.6 479.0 L368.4 479.0 L368.2 479.0 L368.0 479.0 L367.8 479.0 L367.8 478.8 L367.7 478.8 L367.7 479.0 L367.5 479.0 L367.5 479.2 Z" fill="#2f8f83" fill-opacity="0.34" stroke="#0e5b52" stroke-width="1.6" />
  <path d="M369.1 478.1 L369.3 478.1 L369.3 478.3 L369.5 478.3 L369.5 478.4 L369.6 478.4 L369.6 478.6 L369.6 478.8 L369.6 479.0 L369.6 479.2 L369.6 479.4 L369.6 479.6 L369.8 479.6 L370.0 479.6 L370.2 479.6 L370.4 479.6 L370.6 479.6 L370.7 479.6 L370.7 479.4 L370.7 479.2 L370.7 479.0 L370.7 478.8 L370.7 478.6 L370.7 478.4 L370.7 478.3 L370.6 478.3 L370.4 478.3 L370.2 478.3 L370.2 478.1 L370.2 477.9 L370.2 477.7 L370.0 477.7 L369.8 477.7 L369.6 477.7 L369.5 477.7 L369.3 477.7 L369.1 477.7 L368.9 477.7 L368.9 477.9 L369.1 477.9 L369.1 478.1 Z" fill="#2f8f83" fill-opacity="0.34" stroke="#0e5b52" stroke-width="1.6" />
  <path d="M370.6 478.1 L370.6 478.3 L370.7 478.3 L370.7 478.4 L370.7 478.6 L370.7 478.8 L370.7 479.0 L370.7 479.2 L370.7 479.4 L370.7 479.6 L370.7 479.8 L370.7 480.0 L370.7 480.2 L370.9 480.2 L370.9 480.3 L371.1 480.3 L371.1 480.5 L371.3 480.5 L371.5 480.5 L371.6 480.5 L371.6 480.3 L371.6 480.2 L371.5 480.2 L371.5 480.0 L371.3 480.0 L371.3 479.8 L371.3 479.6 L371.3 479.4 L371.3 479.2 L371.1 479.2 L371.1 479.0 L370.9 479.0 L370.9 478.8 L370.9 478.6 L370.9 478.4 L370.9 478.3 L370.9 478.1 L370.9 477.9 L370.9 477.7 L370.9 477.5 L370.9 477.3 L370.9 477.1 L370.7 477.1 L370.6 477.1 L370.6 477.3 L370.4 477.3 L370.4 477.5 L370.6 477.5 L370.6 477.7 L370.6 477.9 L370.6 478.1 Z" fill="#2f8f83" fill-opacity="0.34" stroke="#0e5b52" stroke-width="1.6" />
  <path d="M284.1 196.7 L284.1 196.9 L284.3 196.9 L284.5 196.9 L284.7 196.9 L284.9 196.9 L285.0 196.9 L285.2 196.9 L285.4 196.9 L285.6 196.9 L285.6 196.7 L285.6 196.5 L285.6 196.3 L285.8 196.3 L285.8 196.0 L285.6 196.0 L285.6 195.8 L285.4 195.8 L285.2 195.8 L285.2 196.0 L285.0 196.0 L284.9 196.0 L284.9 195.8 L284.9 195.6 L284.9 195.4 L284.9 195.2 L284.9 195.0 L284.9 194.7 L284.9 194.5 L284.9 194.3 L285.0 194.3 L285.2 194.3 L285.2 194.1 L285.2 193.9 L285.2 193.7 L285.2 193.4 L285.0 193.4 L284.9 193.4 L284.7 193.4 L284.5 193.4 L284.3 193.4 L284.1 193.4 L284.1 193.7 L284.1 193.9 L284.1 194.1 L284.1 194.3 L284.1 194.5 L284.1 194.7 L284.1 195.0 L284.1 195.2 L284.1 195.4 L284.1 195.6 L284.1 195.8 L284.1 196.0 L284.1 196.3 L284.1 196.5 L284.1 196.7 Z" fill="#2f8f83" fill-opacity="0.34" stroke="#0e5b52" stroke-width="1.6" />
  <path d="M282.9 196.7 L282.9 196.9 L283.0 196.9 L283.2 196.9 L283.4 196.9 L283.6 196.9 L283.8 196.9 L283.9 196.9 L284.1 196.9 L284.1 196.7 L284.1 196.5 L284.1 196.3 L284.1 196.0 L284.1 195.8 L284.1 195.6 L284.1 195.4 L284.1 195.2 L284.1 195.0 L284.1 194.7 L284.1 194.5 L284.1 194.3 L284.1 194.1 L284.1 193.9 L284.1 193.7 L284.1 193.4 L283.9 193.4 L283.8 193.4 L283.6 193.4 L283.6 193.7 L283.6 193.9 L283.6 194.1 L283.4 194.1 L283.2 194.1 L283.0 194.1 L282.9 194.1 L282.9 194.3 L282.9 194.5 L282.9 194.7 L282.9 195.0 L282.9 195.2 L282.9 195.4 L282.9 195.6 L282.9 195.8 L282.9 196.0 L282.9 196.3 L282.9 196.5 L282.9 196.7 Z" fill="#2f8f83" fill-opacity="0.34" stroke="#0e5b52" stroke-width="1.6" />
  <path d="M281.4 196.7 L281.4 196.9 L281.6 196.9 L281.8 196.9 L281.9 196.9 L282.1 196.9 L282.3 196.9 L282.5 196.9 L282.7 196.9 L282.9 196.9 L282.9 196.7 L282.9 196.5 L282.9 196.3 L282.9 196.0 L282.9 195.8 L282.9 195.6 L282.9 195.4 L282.9 195.2 L282.9 195.0 L282.9 194.7 L282.9 194.5 L282.9 194.3 L282.9 194.1 L282.7 194.1 L282.5 194.1 L282.3 194.1 L282.1 194.1 L281.9 194.1 L281.8 194.1 L281.8 194.3 L281.8 194.5 L281.8 194.7 L281.8 195.0 L281.8 195.2 L281.8 195.4 L281.8 195.6 L281.8 195.8 L281.8 196.0 L281.6 196.0 L281.4 196.0 L281.4 196.3 L281.4 196.5 L281.4 196.7 Z" fill="#2f8f83" fill-opacity="0.34" stroke="#0e5b52" stroke-width="1.6" />
  <path d="M278.0 196.7 L278.0 196.9 L278.1 196.9 L278.3 196.9 L278.5 196.9 L278.7 196.9 L278.9 196.9 L279.0 196.9 L279.2 196.9 L279.4 196.9 L279.6 196.9 L279.8 196.9 L280.0 196.9 L280.1 196.9 L280.3 196.9 L280.5 196.9 L280.7 196.9 L280.9 196.9 L281.0 196.9 L281.2 196.9 L281.4 196.9 L281.4 196.7 L281.4 196.5 L281.4 196.3 L281.4 196.0 L281.2 196.0 L281.0 196.0 L280.9 196.0 L280.7 196.0 L280.5 196.0 L280.3 196.0 L280.1 196.0 L280.0 196.0 L279.8 196.0 L279.6 196.0 L279.4 196.0 L279.2 196.0 L279.0 196.0 L278.9 196.0 L278.7 196.0 L278.5 196.0 L278.3 196.0 L278.1 196.0 L278.0 196.0 L278.0 196.3 L278.0 196.5 L278.0 196.7 Z" fill="#2f8f83" fill-opacity="0.34" stroke="#0e5b52" stroke-width="1.6" />
  <path d="M365.7 476.2 L365.7 476.4 L365.8 476.4 L365.8 476.6 L365.8 476.7 L366.0 476.7 L366.2 476.7 L366.4 476.7 L366.6 476.7 L366.7 476.7 L366.9 476.7 L367.1 476.7 L367.3 476.7 L367.5 476.7 L367.7 476.7 L367.8 476.7 L368.0 476.7 L368.0 476.5 L368.0 476.4 L368.2 476.4 L368.4 476.4 L368.6 476.4 L368.6 476.5 L368.7 476.5 L368.7 476.4 L368.7 476.2 L368.6 476.2 L368.6 476.0 L368.4 476.0 L368.2 476.0 L368.2 475.8 L368.0 475.8 L368.0 475.6 L367.8 475.6 L367.8 475.4 L367.7 475.4 L367.7 475.2 L367.5 475.2 L367.3 475.2 L367.1 475.2 L366.9 475.2 L366.7 475.2 L366.6 475.2 L366.4 475.2 L366.2 475.2 L366.2 475.4 L366.2 475.6 L366.2 475.8 L366.2 476.0 L366.0 476.0 L365.8 476.0 L365.7 476.0 L365.7 476.2 Z" fill="#2f8f83" fill-opacity="0.34" stroke="#0e5b52" stroke-width="1.6" />
  <path d="M368.6 480.9 L368.6 481.1 L368.7 481.1 L368.9 481.1 L369.1 481.1 L369.3 481.1 L369.5 481.1 L369.6 481.1 L369.8 481.1 L370.0 481.1 L370.2 481.1 L370.4 481.1 L370.6 481.1 L370.6 481.3 L370.6 481.5 L370.6 481.7 L370.6 481.9 L370.6 482.0 L370.6 482.2 L370.7 482.2 L370.9 482.2 L371.1 482.2 L371.3 482.2 L371.5 482.2 L371.6 482.2 L371.8 482.2 L372.0 482.2 L372.0 482.0 L372.0 481.9 L372.0 481.7 L372.0 481.5 L372.0 481.3 L372.0 481.1 L372.0 480.9 L372.0 480.7 L372.0 480.5 L372.0 480.3 L372.0 480.2 L371.8 480.2 L371.6 480.2 L371.6 480.3 L371.6 480.5 L371.6 480.7 L371.5 480.7 L371.3 480.7 L371.1 480.7 L370.9 480.7 L370.7 480.7 L370.6 480.7 L370.4 480.7 L370.2 480.7 L370.0 480.7 L369.8 480.7 L369.6 480.7 L369.5 480.7 L369.3 480.7 L369.1 480.7 L368.9 480.7 L368.7 480.7 L368.6 480.7 L368.6 480.9 Z" fill="#2f8f83" fill-opacity="0.34" stroke="#0e5b52" stroke-width="1.6" />
  <path d="M365.8 477.5 L366.0 477.5 L366.2 477.5 L366.2 477.7 L366.2 477.9 L366.4 477.9 L366.4 478.1 L366.4 478.3 L366.6 478.3 L366.6 478.4 L366.6 478.6 L366.7 478.6 L366.9 478.6 L367.1 478.6 L367.3 478.6 L367.5 478.6 L367.7 478.6 L367.8 478.6 L367.8 478.4 L367.8 478.3 L367.8 478.1 L367.8 477.9 L367.8 477.7 L367.8 477.5 L368.0 477.5 L368.0 477.3 L368.0 477.1 L368.0 476.9 L368.0 476.7 L367.8 476.7 L367.7 476.7 L367.5 476.7 L367.3 476.7 L367.1 476.7 L366.9 476.7 L366.7 476.7 L366.6 476.7 L366.4 476.7 L366.2 476.7 L366.0 476.7 L365.8 476.7 L365.8 476.9 L365.8 477.1 L365.8 477.3 L365.8 477.5 Z" fill="#2f8f83" fill-opacity="0.34" stroke="#0e5b52" stroke-width="1.6" />
  <path d="M372.0 482.0 L372.0 482.2 L372.2 482.2 L372.4 482.2 L372.6 482.2 L372.7 482.2 L372.9 482.2 L373.1 482.2 L373.3 482.2 L373.3 482.0 L373.3 481.9 L373.3 481.7 L373.3 481.5 L373.3 481.3 L373.3 481.1 L373.1 481.1 L372.9 481.1 L372.9 480.9 L372.7 480.9 L372.6 480.9 L372.6 480.7 L372.4 480.7 L372.4 480.5 L372.4 480.3 L372.4 480.2 L372.2 480.2 L372.0 480.2 L372.0 480.3 L372.0 480.5 L372.0 480.7 L372.0 480.9 L372.0 481.1 L372.0 481.3 L372.0 481.5 L372.0 481.7 L372.0 481.9 L372.0 482.0 Z" fill="#2f8f83" fill-opacity="0.34" stroke="#0e5b52" stroke-width="1.6" />
  <path d="M366.6 479.2 L366.6 479.4 L366.7 479.4 L366.7 479.6 L366.7 479.8 L366.7 480.0 L366.7 480.2 L366.7 480.3 L366.9 480.3 L366.9 480.5 L367.1 480.5 L367.1 480.7 L367.3 480.7 L367.3 480.5 L367.3 480.3 L367.3 480.2 L367.3 480.0 L367.3 479.8 L367.3 479.6 L367.3 479.4 L367.5 479.4 L367.5 479.2 L367.5 479.0 L367.7 479.0 L367.7 478.8 L367.8 478.8 L367.8 478.6 L367.7 478.6 L367.5 478.6 L367.3 478.6 L367.1 478.6 L366.9 478.6 L366.7 478.6 L366.6 478.6 L366.6 478.8 L366.6 479.0 L366.6 479.2 Z" fill="#2f8f83" fill-opacity="0.34" stroke="#0e5b52" stroke-width="1.6" />
  <path d="M370.9 478.8 L370.9 479.0 L371.1 479.0 L371.3 479.0 L371.5 479.0 L371.5 478.8 L371.5 478.6 L371.5 478.4 L371.5 478.3 L371.5 478.1 L371.5 477.9 L371.5 477.7 L371.5 477.5 L371.5 477.3 L371.5 477.1 L371.3 477.1 L371.1 477.1 L370.9 477.1 L370.9 477.3 L370.9 477.5 L370.9 477.7 L370.9 477.9 L370.9 478.1 L370.9 478.3 L370.9 478.4 L370.9 478.6 L370.9 478.8 Z" fill="#2f8f83" fill-opacity="0.34" stroke="#0e5b52" stroke-width="1.6" />
  <path d="M276.7 193.0 L276.9 193.0 L276.9 193.2 L276.9 193.4 L276.9 193.7 L277.0 193.7 L277.0 193.9 L277.0 194.1 L277.0 194.3 L277.0 194.5 L277.2 194.5 L277.2 194.7 L277.2 195.0 L277.2 195.2 L277.2 195.4 L277.4 195.4 L277.4 195.6 L277.4 195.8 L277.4 196.0 L277.6 196.0 L277.6 196.3 L277.6 196.5 L277.6 196.7 L277.8 196.7 L277.8 196.9 L278.0 196.9 L278.0 196.7 L278.0 196.5 L278.0 196.3 L278.0 196.0 L278.0 195.8 L278.1 195.8 L278.1 195.6 L278.1 195.4 L278.0 195.4 L277.8 195.4 L277.8 195.2 L277.8 195.0 L277.8 194.7 L277.8 194.5 L277.8 194.3 L277.8 194.1 L277.8 193.9 L277.8 193.7 L277.8 193.4 L277.8 193.2 L277.8 193.0 L277.8 192.8 L277.6 192.8 L277.4 192.8 L277.2 192.8 L277.0 192.8 L276.9 192.8 L276.9 192.6 L276.7 192.6 L276.7 192.8 L276.7 193.0 Z" fill="#2f8f83" fill-opacity="0.34" stroke="#0e5b52" stroke-width="1.6" />
  <path d="M283.0 197.8 L283.0 198.0 L283.2 198.0 L283.4 198.0 L283.6 198.0 L283.8 198.0 L283.9 198.0 L284.1 198.0 L284.3 198.0 L284.5 198.0 L284.7 198.0 L284.7 197.8 L284.7 197.6 L284.7 197.3 L284.7 197.1 L284.7 196.9 L284.5 196.9 L284.3 196.9 L284.1 196.9 L283.9 196.9 L283.8 196.9 L283.6 196.9 L283.4 196.9 L283.2 196.9 L283.0 196.9 L283.0 197.1 L283.0 197.3 L283.0 197.6 L283.0 197.8 Z" fill="#2f8f83" fill-opacity="0.34" stroke="#0e5b52" stroke-width="1.6" />
  <path d="M344.8 461.9 L344.8 462.1 L345.0 462.1 L345.1 462.1 L345.3 462.1 L345.5 462.1 L345.7 462.1 L345.9 462.1 L346.0 462.1 L346.2 462.1 L346.2 461.9 L346.2 461.7 L346.2 461.5 L346.2 461.3 L346.0 461.3 L345.9 461.3 L345.7 461.3 L345.5 461.3 L345.3 461.3 L345.1 461.3 L345.0 461.3 L344.8 461.3 L344.8 461.5 L344.8 461.7 L344.8 461.9 Z" fill="#2f8f83" fill-opacity="0.34" stroke="#0e5b52" stroke-width="1.6" />
  <path d="M372.7 480.7 L372.6 480.7 L372.6 480.9 L372.7 480.9 L372.7 480.7 Z" fill="#2f8f83" fill-opacity="0.34" stroke="#0e5b52" stroke-width="1.6" />
  <path d="M368.7 480.3 L368.9 480.3 L369.1 480.3 L369.3 480.3 L369.5 480.3 L369.5 480.2 L369.5 480.0 L369.3 480.0 L369.1 480.0 L368.9 480.0 L368.7 480.0 L368.7 480.2 L368.6 480.2 L368.6 480.3 L368.7 480.3 Z" fill="#2f8f83" fill-opacity="0.34" stroke="#0e5b52" stroke-width="1.6" />
  <path d="M369.1 477.3 L369.1 477.5 L369.3 477.5 L369.5 477.5 L369.5 477.3 L369.5 477.1 L369.3 477.1 L369.1 477.1 L369.1 477.3 Z" fill="#2f8f83" fill-opacity="0.34" stroke="#0e5b52" stroke-width="1.6" />
  <path d="M368.6 480.7 L368.4 480.7 L368.4 480.9 L368.6 480.9 L368.6 480.7 Z" fill="#2f8f83" fill-opacity="0.34" stroke="#0e5b52" stroke-width="1.6" />
  <path d="M276.5 191.5 L276.5 191.7 L276.7 191.7 L276.7 191.9 L276.7 192.1 L276.7 192.3 L276.7 192.6 L276.9 192.6 L276.9 192.8 L277.0 192.8 L277.2 192.8 L277.4 192.8 L277.6 192.8 L277.8 192.8 L277.8 192.6 L277.8 192.3 L277.8 192.1 L277.8 191.9 L277.8 191.7 L277.8 191.5 L277.8 191.3 L277.8 191.0 L277.8 190.8 L277.8 190.6 L277.8 190.4 L277.8 190.2 L277.8 189.9 L277.8 189.7 L277.8 189.5 L277.6 189.5 L277.4 189.5 L277.2 189.5 L277.0 189.5 L276.9 189.5 L276.7 189.5 L276.5 189.5 L276.5 189.7 L276.5 189.9 L276.5 190.2 L276.5 190.4 L276.5 190.6 L276.5 190.8 L276.5 191.0 L276.5 191.3 L276.5 191.5 Z" fill="#2f8f83" fill-opacity="0.34" stroke="#0e5b52" stroke-width="1.6" />
  <path d="M341.3 460.7 L341.3 460.9 L341.5 460.9 L341.7 460.9 L341.7 461.1 L341.9 461.1 L342.1 461.1 L342.2 461.1 L342.2 461.3 L342.4 461.3 L342.4 461.5 L342.6 461.5 L342.6 461.7 L342.8 461.7 L342.8 461.9 L342.8 462.1 L343.0 462.1 L343.1 462.1 L343.3 462.1 L343.5 462.1 L343.7 462.1 L343.9 462.1 L344.0 462.1 L344.2 462.1 L344.4 462.1 L344.6 462.1 L344.8 462.1 L344.8 461.9 L344.8 461.7 L344.8 461.5 L344.8 461.3 L344.8 461.1 L344.8 460.9 L344.6 460.9 L344.6 460.7 L344.4 460.7 L344.2 460.7 L344.0 460.7 L343.9 460.7 L343.7 460.7 L343.5 460.7 L343.3 460.7 L343.1 460.7 L343.0 460.7 L342.8 460.7 L342.6 460.7 L342.4 460.7 L342.2 460.7 L342.1 460.7 L342.1 460.5 L341.9 460.5 L341.7 460.5 L341.5 460.5 L341.3 460.5 L341.3 460.7 Z" fill="#2f8f83" fill-opacity="0.34" stroke="#0e5b52" stroke-width="1.6" />
  <path d="M340.8 460.3 L340.8 460.5 L341.0 460.5 L341.1 460.5 L341.1 460.7 L341.3 460.7 L341.3 460.5 L341.5 460.5 L341.7 460.5 L341.9 460.5 L342.1 460.5 L342.1 460.7 L342.2 460.7 L342.4 460.7 L342.6 460.7 L342.8 460.7 L343.0 460.7 L343.1 460.7 L343.3 460.7 L343.5 460.7 L343.7 460.7 L343.9 460.7 L344.0 460.7 L344.2 460.7 L344.4 460.7 L344.6 460.7 L344.6 460.5 L344.6 460.3 L344.6 460.2 L344.6 460.0 L344.6 459.8 L344.6 459.6 L344.6 459.4 L344.4 459.4 L344.2 459.4 L344.0 459.4 L343.9 459.4 L343.7 459.4 L343.5 459.4 L343.5 459.6 L343.5 459.8 L343.3 459.8 L343.1 459.8 L343.0 459.8 L342.8 459.8 L342.6 459.8 L342.4 459.8 L342.2 459.8 L342.1 459.8 L341.9 459.8 L341.7 459.8 L341.5 459.8 L341.5 460.0 L341.5 460.2 L341.5 460.3 L341.3 460.3 L341.1 460.3 L341.0 460.3 L341.0 460.2 L340.8 460.2 L340.8 460.3 Z" fill="#2f8f83" fill-opacity="0.34" stroke="#0e5b52" stroke-width="1.6" />
  <path d="M343.9 459.2 L343.9 459.4 L344.0 459.4 L344.2 459.4 L344.4 459.4 L344.6 459.4 L344.6 459.2 L344.6 459.0 L344.6 458.8 L344.6 458.6 L344.6 458.4 L344.4 458.4 L344.4 458.2 L344.4 458.1 L344.2 458.1 L344.2 457.9 L344.0 457.9 L344.0 458.1 L344.0 458.2 L344.0 458.4 L343.9 458.4 L343.9 458.6 L343.9 458.8 L343.9 459.0 L343.9 459.2 Z" fill="#2f8f83" fill-opacity="0.34" stroke="#0e5b52" stroke-width="1.6" />
  <path d="M372.4 320.2 L372.2 320.2 L372.2 320.4 L372.4 320.4 L372.4 320.2 Z" fill="#2f8f83" fill-opacity="0.34" stroke="#0e5b52" stroke-width="1.6" />
  <path d="M365.1 474.5 L364.9 474.5 L364.9 474.7 L365.1 474.7 L365.1 474.5 Z" fill="#2f8f83" fill-opacity="0.34" stroke="#0e5b52" stroke-width="1.6" />
  <path d="M365.8 475.0 L365.7 475.0 L365.7 475.2 L365.8 475.2 L365.8 475.0 Z" fill="#2f8f83" fill-opacity="0.34" stroke="#0e5b52" stroke-width="1.6" />
  <path d="M364.7 474.8 L364.9 474.8 L364.9 474.7 L364.7 474.7 L364.6 474.7 L364.6 474.8 L364.7 474.8 Z" fill="#2f8f83" fill-opacity="0.34" stroke="#0e5b52" stroke-width="1.6" />
  <path d="M365.1 474.7 L364.9 474.7 L364.9 474.8 L365.1 474.8 L365.1 474.7 Z" fill="#2f8f83" fill-opacity="0.34" stroke="#0e5b52" stroke-width="1.6" />
  <path d="M365.8 475.4 L366.0 475.4 L366.0 475.2 L366.0 475.0 L365.8 475.0 L365.8 475.2 L365.7 475.2 L365.7 475.4 L365.8 475.4 Z" fill="#2f8f83" fill-opacity="0.34" stroke="#0e5b52" stroke-width="1.6" />
  <path d="M365.3 474.7 L365.1 474.7 L365.1 474.8 L365.3 474.8 L365.3 474.7 Z" fill="#2f8f83" fill-opacity="0.34" stroke="#0e5b52" stroke-width="1.6" />
  <path d="M364.6 475.0 L364.6 475.2 L364.7 475.2 L364.9 475.2 L365.1 475.2 L365.1 475.4 L365.3 475.4 L365.5 475.4 L365.5 475.6 L365.5 475.8 L365.7 475.8 L365.7 476.0 L365.8 476.0 L366.0 476.0 L366.2 476.0 L366.2 475.8 L366.2 475.6 L366.2 475.4 L366.2 475.2 L366.2 475.0 L366.0 475.0 L366.0 474.8 L365.8 474.8 L365.8 474.7 L365.7 474.7 L365.7 474.5 L365.7 474.3 L365.5 474.3 L365.5 474.1 L365.3 474.1 L365.1 474.1 L364.9 474.1 L364.7 474.1 L364.6 474.1 L364.6 474.3 L364.6 474.5 L364.6 474.7 L364.7 474.7 L364.9 474.7 L364.9 474.5 L365.1 474.5 L365.1 474.7 L365.3 474.7 L365.3 474.8 L365.1 474.8 L364.9 474.8 L364.7 474.8 L364.6 474.8 L364.6 475.0 Z M366.0 475.0 L366.0 475.2 L366.0 475.4 L365.8 475.4 L365.7 475.4 L365.7 475.2 L365.5 475.2 L365.5 475.0 L365.7 475.0 L365.8 475.0 L366.0 475.0 Z" fill="#2f8f83" fill-opacity="0.34" stroke="#0e5b52" stroke-width="1.6" />
  <path d="M705.7 498.6 L705.7 498.8 L705.7 499.0 L705.7 499.2 L705.7 499.4 L705.7 499.6 L705.7 499.8 L705.7 500.0 L705.7 500.1 L705.7 500.3 L705.7 500.5 L705.9 500.5 L706.1 500.5 L706.3 500.5 L706.4 500.5 L706.6 500.5 L706.8 500.5 L707.0 500.5 L707.2 500.5 L707.3 500.5 L707.5 500.5 L707.7 500.5 L707.7 500.3 L707.9 500.3 L708.1 500.3 L708.2 500.3 L708.4 500.3 L708.6 500.3 L708.6 500.5 L708.6 500.7 L708.6 500.9 L708.6 501.1 L708.8 501.1 L709.0 501.1 L709.2 501.1 L709.3 501.1 L709.3 500.9 L709.3 500.7 L709.3 500.5 L709.3 500.3 L709.2 500.3 L709.0 500.3 L709.0 500.1 L708.8 500.1 L708.6 500.1 L708.6 500.0 L708.4 500.0 L708.2 500.0 L708.1 500.0 L707.9 500.0 L707.7 500.0 L707.5 500.0 L707.5 500.1 L707.5 500.3 L707.3 500.3 L707.2 500.3 L707.0 500.3 L706.8 500.3 L706.8 500.1 L706.8 500.0 L706.8 499.8 L706.8 499.6 L706.8 499.4 L706.8 499.2 L706.8 499.0 L706.8 498.8 L706.8 498.6 L706.8 498.5 L706.6 498.5 L706.4 498.5 L706.3 498.5 L706.1 498.5 L705.9 498.5 L705.7 498.5 L705.7 498.6 Z M709.0 500.5 L709.2 500.5 L709.2 500.7 L709.0 500.7 L709.0 500.5 Z" fill="#2f8f83" fill-opacity="0.34" stroke="#0e5b52" stroke-width="1.6" />
  <path d="M705.7 497.7 L705.7 497.9 L705.7 498.1 L705.7 498.3 L705.7 498.5 L705.9 498.5 L706.1 498.5 L706.3 498.5 L706.4 498.5 L706.6 498.5 L706.6 498.3 L706.6 498.1 L706.6 497.9 L706.6 497.7 L706.6 497.5 L706.4 497.5 L706.3 497.5 L706.1 497.5 L705.9 497.5 L705.7 497.5 L705.7 497.7 Z" fill="#2f8f83" fill-opacity="0.34" stroke="#0e5b52" stroke-width="1.6" />
  <path d="M706.8 498.6 L706.8 498.8 L706.8 499.0 L706.8 499.2 L706.8 499.4 L706.8 499.6 L706.8 499.8 L706.8 500.0 L706.8 500.1 L706.8 500.3 L707.0 500.3 L707.0 500.1 L707.0 500.0 L707.0 499.8 L707.0 499.6 L707.0 499.4 L707.0 499.2 L707.0 499.0 L707.0 498.8 L707.0 498.6 L707.0 498.5 L706.8 498.5 L706.8 498.6 Z" fill="#2f8f83" fill-opacity="0.34" stroke="#0e5b52" stroke-width="1.6" />
  <path d="M369.6 318.7 L369.6 318.9 L369.8 318.9 L370.0 318.9 L370.0 318.7 L370.0 318.5 L370.0 318.3 L369.8 318.3 L369.6 318.3 L369.6 318.5 L369.6 318.7 Z" fill="#2f8f83" fill-opacity="0.34" stroke="#0e5b52" stroke-width="1.6" />
  <path d="M369.6 318.7 L369.5 318.7 L369.5 318.9 L369.6 318.9 L369.6 318.7 Z" fill="#2f8f83" fill-opacity="0.34" stroke="#0e5b52" stroke-width="1.6" />
  <path d="M368.9 318.3 L368.9 318.5 L369.1 318.5 L369.1 318.3 L369.1 318.1 L368.9 318.1 L368.9 318.3 Z" fill="#2f8f83" fill-opacity="0.34" stroke="#0e5b52" stroke-width="1.6" />
  <path d="M369.3 318.1 L369.3 318.3 L369.5 318.3 L369.6 318.3 L369.8 318.3 L370.0 318.3 L370.0 318.5 L370.2 318.5 L370.2 318.3 L370.2 318.1 L370.2 317.9 L370.0 317.9 L369.8 317.9 L369.6 317.9 L369.5 317.9 L369.3 317.9 L369.3 318.1 Z" fill="#2f8f83" fill-opacity="0.34" stroke="#0e5b52" stroke-width="1.6" />
  <path d="M367.3 318.1 L367.3 318.3 L367.5 318.3 L367.6 318.3 L367.8 318.3 L368.0 318.3 L368.2 318.3 L368.4 318.3 L368.6 318.3 L368.7 318.3 L368.9 318.3 L368.9 318.1 L368.9 317.9 L369.1 317.9 L369.3 317.9 L369.5 317.9 L369.6 317.9 L369.8 317.9 L370.0 317.9 L370.2 317.9 L370.2 317.7 L370.2 317.5 L370.0 317.5 L369.8 317.5 L369.6 317.5 L369.5 317.5 L369.3 317.5 L369.1 317.5 L368.9 317.5 L368.7 317.5 L368.6 317.5 L368.4 317.5 L368.2 317.5 L368.0 317.5 L367.8 317.5 L367.6 317.5 L367.5 317.5 L367.3 317.5 L367.3 317.7 L367.3 317.9 L367.3 318.1 Z" fill="#2f8f83" fill-opacity="0.34" stroke="#0e5b52" stroke-width="1.6" />
  <path d="M369.3 318.5 L369.3 318.7 L369.5 318.7 L369.5 318.5 L369.6 318.5 L369.6 318.3 L369.5 318.3 L369.3 318.3 L369.3 318.5 Z" fill="#2f8f83" fill-opacity="0.34" stroke="#0e5b52" stroke-width="1.6" />
  <path d="M369.6 318.5 L369.5 318.5 L369.5 318.7 L369.6 318.7 L369.6 318.5 Z" fill="#2f8f83" fill-opacity="0.34" stroke="#0e5b52" stroke-width="1.6" />
  <path d="M370.0 318.7 L370.0 318.9 L370.2 318.9 L370.2 318.7 L370.2 318.5 L370.0 318.5 L370.0 318.7 Z" fill="#2f8f83" fill-opacity="0.34" stroke="#0e5b52" stroke-width="1.6" />
  <path d="M369.3 318.5 L369.1 318.5 L369.1 318.7 L369.3 318.7 L369.3 318.5 Z" fill="#2f8f83" fill-opacity="0.34" stroke="#0e5b52" stroke-width="1.6" />
  <path d="M369.1 318.3 L369.1 318.5 L369.3 318.5 L369.3 318.3 L369.3 318.1 L369.3 317.9 L369.1 317.9 L368.9 317.9 L368.9 318.1 L369.1 318.1 L369.1 318.3 Z" fill="#2f8f83" fill-opacity="0.34" stroke="#0e5b52" stroke-width="1.6" />
  <path d="M705.5 497.7 L705.5 497.9 L705.5 498.1 L705.5 498.3 L705.5 498.5 L705.5 498.6 L705.5 498.8 L705.5 499.0 L705.5 499.2 L705.5 499.4 L705.5 499.6 L705.7 499.6 L705.7 499.4 L705.7 499.2 L705.7 499.0 L705.7 498.8 L705.7 498.6 L705.7 498.5 L705.7 498.3 L705.7 498.1 L705.7 497.9 L705.7 497.7 L705.7 497.5 L705.5 497.5 L705.5 497.7 Z" fill="#2f8f83" fill-opacity="0.34" stroke="#0e5b52" stroke-width="1.6" />
  <path d="M709.3 500.7 L709.3 500.9 L709.3 501.1 L709.5 501.1 L709.7 501.1 L709.9 501.1 L709.9 501.3 L709.9 501.5 L709.9 501.6 L709.9 501.8 L710.1 501.8 L710.2 501.8 L710.4 501.8 L710.6 501.8 L710.8 501.8 L711.0 501.8 L711.2 501.8 L711.3 501.8 L711.5 501.8 L711.7 501.8 L711.9 501.8 L711.9 502.0 L711.9 502.2 L712.1 502.2 L712.1 502.0 L712.1 501.8 L712.1 501.6 L712.1 501.5 L712.1 501.3 L712.1 501.1 L712.1 500.9 L712.1 500.7 L712.1 500.5 L711.9 500.5 L711.7 500.5 L711.5 500.5 L711.3 500.5 L711.2 500.5 L711.0 500.5 L710.8 500.5 L710.6 500.5 L710.4 500.5 L710.2 500.5 L710.1 500.5 L709.9 500.5 L709.7 500.5 L709.5 500.5 L709.3 500.5 L709.3 500.7 Z" fill="#2f8f83" fill-opacity="0.34" stroke="#0e5b52" stroke-width="1.6" />
  <path d="M707.3 498.8 L707.3 499.0 L707.3 499.2 L707.3 499.4 L707.3 499.6 L707.3 499.8 L707.3 500.0 L707.3 500.1 L707.3 500.3 L707.5 500.3 L707.5 500.1 L707.5 500.0 L707.7 500.0 L707.9 500.0 L708.1 500.0 L708.2 500.0 L708.4 500.0 L708.6 500.0 L708.6 500.1 L708.8 500.1 L709.0 500.1 L709.0 500.3 L709.2 500.3 L709.3 500.3 L709.3 500.5 L709.5 500.5 L709.7 500.5 L709.9 500.5 L710.1 500.5 L710.2 500.5 L710.4 500.5 L710.6 500.5 L710.8 500.5 L710.8 500.3 L710.6 500.3 L710.4 500.3 L710.4 500.1 L710.2 500.1 L710.1 500.1 L709.9 500.1 L709.7 500.1 L709.7 500.0 L709.5 500.0 L709.5 499.8 L709.3 499.8 L709.2 499.8 L709.2 499.6 L709.0 499.6 L708.8 499.6 L708.6 499.6 L708.6 499.4 L708.6 499.2 L708.6 499.0 L708.6 498.8 L708.6 498.6 L708.4 498.6 L708.2 498.6 L708.1 498.6 L707.9 498.6 L707.7 498.6 L707.5 498.6 L707.3 498.6 L707.3 498.8 Z" fill="#2f8f83" fill-opacity="0.34" stroke="#0e5b52" stroke-width="1.6" />
  <path d="M364.6 475.6 L364.6 475.8 L364.7 475.8 L364.9 475.8 L365.1 475.8 L365.3 475.8 L365.3 475.6 L365.3 475.4 L365.1 475.4 L364.9 475.4 L364.7 475.4 L364.7 475.2 L364.6 475.2 L364.6 475.4 L364.6 475.6 Z" fill="#2f8f83" fill-opacity="0.34" stroke="#0e5b52" stroke-width="1.6" />
  <path d="M364.9 475.4 L365.1 475.4 L365.1 475.2 L364.9 475.2 L364.7 475.2 L364.7 475.4 L364.9 475.4 Z" fill="#2f8f83" fill-opacity="0.34" stroke="#0e5b52" stroke-width="1.6" />
  <path d="M706.1 497.3 L706.1 497.5 L706.3 497.5 L706.4 497.5 L706.6 497.5 L706.6 497.3 L706.6 497.1 L706.4 497.1 L706.3 497.1 L706.1 497.1 L706.1 497.3 Z" fill="#2f8f83" fill-opacity="0.34" stroke="#0e5b52" stroke-width="1.6" />
  <path d="M705.5 499.8 L705.5 500.0 L705.5 500.1 L705.5 500.3 L705.5 500.5 L705.7 500.5 L705.7 500.3 L705.7 500.1 L705.7 500.0 L705.7 499.8 L705.7 499.6 L705.5 499.6 L705.5 499.8 Z" fill="#2f8f83" fill-opacity="0.34" stroke="#0e5b52" stroke-width="1.6" />
  <path d="M384.9 486.4 L385.1 486.4 L385.3 486.4 L385.3 486.2 L385.1 486.2 L384.9 486.2 L384.7 486.2 L384.7 486.4 L384.9 486.4 Z" fill="#2f8f83" fill-opacity="0.34" stroke="#0e5b52" stroke-width="1.6" />
  <path d="M384.9 486.6 L385.1 486.6 L385.3 486.6 L385.4 486.6 L385.4 486.4 L385.4 486.2 L385.4 486.0 L385.3 486.0 L385.1 486.0 L384.9 486.0 L384.7 486.0 L384.7 486.2 L384.9 486.2 L385.1 486.2 L385.3 486.2 L385.3 486.4 L385.1 486.4 L384.9 486.4 L384.7 486.4 L384.7 486.6 L384.9 486.6 Z" fill="#2f8f83" fill-opacity="0.34" stroke="#0e5b52" stroke-width="1.6" />
  <path d="M323.0 351.4 L322.8 351.4 L322.8 351.6 L323.0 351.6 L323.0 351.4 Z" fill="#2f8f83" fill-opacity="0.34" stroke="#0e5b52" stroke-width="1.6" />
  <path d="M322.1 350.8 L322.3 350.8 L322.3 350.6 L322.1 350.6 L321.9 350.6 L321.9 350.8 L322.1 350.8 Z" fill="#2f8f83" fill-opacity="0.34" stroke="#0e5b52" stroke-width="1.6" />
  <path d="M322.4 350.0 L322.4 350.2 L322.6 350.2 L322.8 350.2 L322.8 350.0 L322.8 349.8 L322.6 349.8 L322.4 349.8 L322.4 350.0 Z" fill="#2f8f83" fill-opacity="0.34" stroke="#0e5b52" stroke-width="1.6" />
  <path d="M322.6 349.8 L322.8 349.8 L323.0 349.8 L323.2 349.8 L323.2 349.6 L323.2 349.4 L323.2 349.2 L323.0 349.2 L322.8 349.2 L322.8 349.4 L322.6 349.4 L322.6 349.6 L322.4 349.6 L322.4 349.8 L322.6 349.8 Z" fill="#2f8f83" fill-opacity="0.34" stroke="#0e5b52" stroke-width="1.6" />
  <path d="M323.0 350.8 L322.8 350.8 L322.8 351.0 L323.0 351.0 L323.0 350.8 Z" fill="#2f8f83" fill-opacity="0.34" stroke="#0e5b52" stroke-width="1.6" />
  <path d="M322.6 351.6 L322.6 351.8 L322.8 351.8 L322.8 351.6 L322.8 351.4 L322.8 351.2 L322.8 351.0 L322.6 351.0 L322.4 351.0 L322.4 351.2 L322.6 351.2 L322.6 351.4 L322.6 351.6 Z" fill="#2f8f83" fill-opacity="0.34" stroke="#0e5b52" stroke-width="1.6" />
  <path d="M322.3 350.0 L322.3 350.2 L322.4 350.2 L322.4 350.0 L322.4 349.8 L322.3 349.8 L322.3 350.0 Z" fill="#2f8f83" fill-opacity="0.34" stroke="#0e5b52" stroke-width="1.6" />
  <path d="M322.8 350.0 L322.8 350.2 L323.0 350.2 L323.0 350.0 L323.0 349.8 L322.8 349.8 L322.8 350.0 Z" fill="#2f8f83" fill-opacity="0.34" stroke="#0e5b52" stroke-width="1.6" />
  <path d="M322.4 351.0 L322.6 351.0 L322.8 351.0 L322.8 350.8 L322.8 350.6 L322.8 350.4 L322.8 350.2 L322.6 350.2 L322.4 350.2 L322.3 350.2 L322.3 350.4 L322.4 350.4 L322.6 350.4 L322.6 350.6 L322.6 350.8 L322.4 350.8 L322.3 350.8 L322.3 351.0 L322.4 351.0 Z" fill="#2f8f83" fill-opacity="0.34" stroke="#0e5b52" stroke-width="1.6" />
  <path d="M323.0 351.6 L322.8 351.6 L322.8 351.8 L323.0 351.8 L323.0 351.6 Z" fill="#2f8f83" fill-opacity="0.34" stroke="#0e5b52" stroke-width="1.6" />
  <path d="M321.7 351.0 L321.7 351.2 L321.9 351.2 L322.1 351.2 L322.1 351.4 L322.3 351.4 L322.4 351.4 L322.4 351.6 L322.4 351.8 L322.4 352.0 L322.6 352.0 L322.8 352.0 L323.0 352.0 L323.2 352.0 L323.4 352.0 L323.4 351.8 L323.4 351.6 L323.4 351.4 L323.4 351.2 L323.4 351.0 L323.2 351.0 L323.2 350.8 L323.2 350.6 L323.2 350.4 L323.2 350.2 L323.2 350.0 L323.4 350.0 L323.4 349.8 L323.4 349.6 L323.4 349.4 L323.4 349.2 L323.4 349.0 L323.2 349.0 L323.0 349.0 L322.8 349.0 L322.6 349.0 L322.6 349.2 L322.4 349.2 L322.4 349.4 L322.3 349.4 L322.3 349.6 L322.1 349.6 L322.1 349.8 L322.1 350.0 L322.1 350.2 L322.1 350.4 L321.9 350.4 L321.7 350.4 L321.7 350.6 L321.7 350.8 L321.7 351.0 Z M323.0 349.2 L323.2 349.2 L323.2 349.4 L323.2 349.6 L323.2 349.8 L323.0 349.8 L323.0 350.0 L323.0 350.2 L322.8 350.2 L322.8 350.4 L322.8 350.6 L322.8 350.8 L323.0 350.8 L323.0 351.0 L323.0 351.2 L323.2 351.2 L323.2 351.4 L323.2 351.6 L323.2 351.8 L323.0 351.8 L322.8 351.8 L322.6 351.8 L322.6 351.6 L322.6 351.4 L322.6 351.2 L322.4 351.2 L322.3 351.2 L322.3 351.0 L322.1 351.0 L321.9 351.0 L321.9 350.8 L321.9 350.6 L322.1 350.6 L322.3 350.6 L322.3 350.4 L322.3 350.2 L322.3 350.0 L322.3 349.8 L322.4 349.8 L322.4 349.6 L322.6 349.6 L322.6 349.4 L322.8 349.4 L322.8 349.2 L323.0 349.2 Z" fill="#2f8f83" fill-opacity="0.34" stroke="#0e5b52" stroke-width="1.6" />
  <path d="M322.1 351.0 L322.3 351.0 L322.3 350.8 L322.1 350.8 L321.9 350.8 L321.9 351.0 L322.1 351.0 Z" fill="#2f8f83" fill-opacity="0.34" stroke="#0e5b52" stroke-width="1.6" />
  <path d="M322.4 351.0 L322.3 351.0 L322.3 351.2 L322.4 351.2 L322.4 351.0 Z" fill="#2f8f83" fill-opacity="0.34" stroke="#0e5b52" stroke-width="1.6" />
  <path d="M362.0 466.3 L362.0 466.5 L362.2 466.5 L362.2 466.7 L362.4 466.7 L362.4 466.5 L362.6 466.5 L362.6 466.3 L362.6 466.1 L362.4 466.1 L362.4 465.9 L362.4 465.7 L362.2 465.7 L362.0 465.7 L362.0 465.9 L362.0 466.1 L362.0 466.3 Z" fill="#2f8f83" fill-opacity="0.34" stroke="#0e5b52" stroke-width="1.6" />
  <path d="M385.3 494.1 L385.3 494.3 L385.4 494.3 L385.6 494.3 L385.8 494.3 L386.0 494.3 L386.2 494.3 L386.4 494.3 L386.4 494.1 L386.4 493.9 L386.4 493.8 L386.4 493.6 L386.2 493.6 L386.0 493.6 L385.8 493.6 L385.6 493.6 L385.4 493.6 L385.4 493.8 L385.4 493.9 L385.3 493.9 L385.3 494.1 Z" fill="#2f8f83" fill-opacity="0.34" stroke="#0e5b52" stroke-width="1.6" />
  <path d="M711.5 499.6 L711.5 499.8 L711.5 500.0 L711.5 500.1 L711.5 500.3 L711.5 500.5 L711.7 500.5 L711.9 500.5 L712.1 500.5 L712.1 500.3 L712.1 500.1 L712.1 500.0 L712.1 499.8 L712.1 499.6 L712.1 499.4 L711.9 499.4 L711.7 499.4 L711.5 499.4 L711.5 499.6 Z" fill="#2f8f83" fill-opacity="0.34" stroke="#0e5b52" stroke-width="1.6" />
  <path d="M711.0 500.3 L710.8 500.3 L710.8 500.5 L711.0 500.5 L711.2 500.5 L711.2 500.3 L711.0 500.3 Z" fill="#2f8f83" fill-opacity="0.34" stroke="#0e5b52" stroke-width="1.6" />
  <path d="M710.6 500.1 L710.4 500.1 L710.4 500.3 L710.6 500.3 L710.6 500.1 Z" fill="#2f8f83" fill-opacity="0.34" stroke="#0e5b52" stroke-width="1.6" />
  <path d="M710.8 500.1 L710.6 500.1 L710.6 500.3 L710.8 500.3 L711.0 500.3 L711.0 500.1 L710.8 500.1 Z" fill="#2f8f83" fill-opacity="0.34" stroke="#0e5b52" stroke-width="1.6" />
  <path d="M711.0 500.1 L711.0 500.3 L711.2 500.3 L711.2 500.1 L711.2 500.0 L711.0 500.0 L711.0 500.1 Z" fill="#2f8f83" fill-opacity="0.34" stroke="#0e5b52" stroke-width="1.6" />
  <path d="M368.6 480.9 L368.4 480.9 L368.4 481.1 L368.6 481.1 L368.6 480.9 Z" fill="#2f8f83" fill-opacity="0.34" stroke="#0e5b52" stroke-width="1.6" />
  <path d="M344.6 460.7 L344.6 460.9 L344.8 460.9 L344.8 461.1 L344.8 461.3 L345.0 461.3 L345.1 461.3 L345.3 461.3 L345.5 461.3 L345.7 461.3 L345.9 461.3 L346.0 461.3 L346.2 461.3 L346.4 461.3 L346.4 461.1 L346.4 460.9 L346.4 460.7 L346.4 460.5 L346.2 460.5 L346.0 460.5 L345.9 460.5 L345.9 460.3 L345.9 460.2 L345.9 460.0 L345.9 459.8 L345.9 459.6 L345.9 459.4 L345.9 459.2 L345.9 459.0 L345.9 458.8 L345.9 458.6 L345.9 458.4 L345.9 458.2 L345.7 458.2 L345.5 458.2 L345.3 458.2 L345.1 458.2 L345.0 458.2 L344.8 458.2 L344.6 458.2 L344.4 458.2 L344.4 458.4 L344.6 458.4 L344.6 458.6 L344.6 458.8 L344.6 459.0 L344.6 459.2 L344.6 459.4 L344.6 459.6 L344.6 459.8 L344.6 460.0 L344.6 460.2 L344.6 460.3 L344.6 460.5 L344.6 460.7 Z" fill="#2f8f83" fill-opacity="0.34" stroke="#0e5b52" stroke-width="1.6" />
  <path d="M710.4 499.2 L710.4 499.4 L710.4 499.6 L710.6 499.6 L710.6 499.8 L710.6 500.0 L710.8 500.0 L711.0 500.0 L711.2 500.0 L711.2 499.8 L711.2 499.6 L711.2 499.4 L711.2 499.2 L711.2 499.0 L711.0 499.0 L710.8 499.0 L710.8 499.2 L710.8 499.4 L710.6 499.4 L710.6 499.2 L710.6 499.0 L710.4 499.0 L710.4 499.2 Z" fill="#2f8f83" fill-opacity="0.34" stroke="#0e5b52" stroke-width="1.6" />
  <path d="M365.7 475.0 L365.5 475.0 L365.5 475.2 L365.7 475.2 L365.7 475.0 Z" fill="#2f8f83" fill-opacity="0.34" stroke="#0e5b52" stroke-width="1.6" />
  <path d="M384.4 486.0 L384.4 486.2 L384.5 486.2 L384.5 486.4 L384.5 486.6 L384.5 486.8 L384.7 486.8 L384.9 486.8 L385.1 486.8 L385.3 486.8 L385.4 486.8 L385.6 486.8 L385.6 486.6 L385.6 486.4 L385.4 486.4 L385.4 486.6 L385.3 486.6 L385.1 486.6 L384.9 486.6 L384.7 486.6 L384.7 486.4 L384.7 486.2 L384.7 486.0 L384.9 486.0 L385.1 486.0 L385.1 485.8 L384.9 485.8 L384.7 485.8 L384.5 485.8 L384.4 485.8 L384.4 486.0 Z" fill="#2f8f83" fill-opacity="0.34" stroke="#0e5b52" stroke-width="1.6" />
  <path d="M432.5 293.2 L432.5 293.4 L432.6 293.4 L432.8 293.4 L432.8 293.2 L432.8 293.0 L432.6 293.0 L432.5 293.0 L432.5 293.2 Z" fill="#2f8f83" fill-opacity="0.34" stroke="#0e5b52" stroke-width="1.6" />
  <path d="M432.1 292.8 L432.1 293.0 L432.1 293.2 L432.1 293.4 L432.1 293.6 L432.1 293.8 L432.1 294.0 L432.1 294.2 L432.1 294.5 L432.3 294.5 L432.5 294.5 L432.6 294.5 L432.8 294.5 L433.0 294.5 L433.2 294.5 L433.4 294.5 L433.6 294.5 L433.6 294.2 L433.6 294.0 L433.6 293.8 L433.7 293.8 L433.9 293.8 L434.1 293.8 L434.1 293.6 L434.3 293.6 L434.5 293.6 L434.6 293.6 L434.6 293.4 L434.6 293.2 L434.6 293.0 L434.6 292.8 L434.5 292.8 L434.5 292.6 L434.5 292.4 L434.3 292.4 L434.1 292.4 L433.9 292.4 L433.7 292.4 L433.7 292.6 L433.6 292.6 L433.4 292.6 L433.2 292.6 L433.0 292.6 L432.8 292.6 L432.6 292.6 L432.5 292.6 L432.3 292.6 L432.1 292.6 L432.1 292.8 Z M433.2 293.0 L433.4 293.0 L433.6 293.0 L433.6 293.2 L433.6 293.4 L433.4 293.4 L433.2 293.4 L433.2 293.2 L433.2 293.0 Z M432.5 293.0 L432.6 293.0 L432.8 293.0 L432.8 293.2 L432.8 293.4 L432.6 293.4 L432.5 293.4 L432.5 293.2 L432.5 293.0 Z" fill="#2f8f83" fill-opacity="0.34" stroke="#0e5b52" stroke-width="1.6" />
  <path d="M296.8 232.7 L296.8 232.9 L297.0 232.9 L297.2 232.9 L297.2 233.1 L297.2 233.3 L297.2 233.5 L297.2 233.7 L297.4 233.7 L297.4 233.9 L297.4 234.2 L297.4 234.4 L297.2 234.4 L297.2 234.6 L297.2 234.8 L297.2 235.0 L297.2 235.2 L297.2 235.4 L297.4 235.4 L297.4 235.6 L297.4 235.9 L297.6 235.9 L297.6 235.6 L297.6 235.4 L297.6 235.2 L297.6 235.0 L297.8 235.0 L297.8 234.8 L297.9 234.8 L297.9 235.0 L297.9 235.2 L297.9 235.4 L297.9 235.6 L297.8 235.6 L297.8 235.9 L297.8 236.1 L297.6 236.1 L297.4 236.1 L297.2 236.1 L297.2 236.3 L297.2 236.5 L297.4 236.5 L297.4 236.7 L297.6 236.7 L297.8 236.7 L297.8 236.5 L297.9 236.5 L297.9 236.3 L298.1 236.3 L298.1 236.1 L298.1 235.9 L298.3 235.9 L298.3 235.6 L298.3 235.4 L298.3 235.2 L298.1 235.2 L298.1 235.0 L298.1 234.8 L298.1 234.6 L298.1 234.4 L298.1 234.2 L298.1 233.9 L298.1 233.7 L297.9 233.7 L297.9 233.5 L297.9 233.3 L297.9 233.1 L297.8 233.1 L297.8 232.9 L297.8 232.7 L297.8 232.4 L297.8 232.2 L297.6 232.2 L297.4 232.2 L297.2 232.2 L297.2 232.4 L297.0 232.4 L297.0 232.2 L297.0 232.0 L296.8 232.0 L296.8 232.2 L296.8 232.4 L296.8 232.7 Z" fill="#2f8f83" fill-opacity="0.34" stroke="#0e5b52" stroke-width="1.6" />
  <path d="M297.2 238.4 L297.2 238.6 L297.4 238.6 L297.4 238.4 L297.6 238.4 L297.8 238.4 L297.8 238.2 L297.8 238.0 L297.9 238.0 L297.9 237.8 L298.1 237.8 L298.1 237.6 L298.3 237.6 L298.3 237.4 L298.3 237.1 L298.5 237.1 L298.5 236.9 L298.5 236.7 L298.5 236.5 L298.3 236.5 L298.3 236.7 L298.1 236.7 L298.1 236.9 L297.9 236.9 L297.9 237.1 L297.8 237.1 L297.8 237.4 L297.6 237.4 L297.6 237.6 L297.6 237.8 L297.6 238.0 L297.4 238.0 L297.4 238.2 L297.2 238.2 L297.2 238.4 Z" fill="#2f8f83" fill-opacity="0.34" stroke="#0e5b52" stroke-width="1.6" />
  <path d="M296.8 236.5 L296.8 236.7 L297.0 236.7 L297.0 236.5 L297.0 236.3 L296.8 236.3 L296.8 236.5 Z" fill="#2f8f83" fill-opacity="0.34" stroke="#0e5b52" stroke-width="1.6" />
  <path d="M507.8 463.0 L507.8 463.2 L507.8 463.4 L507.8 463.6 L507.8 463.8 L508.0 463.8 L508.2 463.8 L508.2 463.6 L508.4 463.6 L508.4 463.4 L508.4 463.2 L508.4 463.0 L508.2 463.0 L508.2 462.8 L508.0 462.8 L507.8 462.8 L507.8 463.0 Z" fill="#2f8f83" fill-opacity="0.34" stroke="#0e5b52" stroke-width="1.6" />
  <path d="M721.9 485.4 L721.7 485.4 L721.7 485.6 L721.9 485.6 L721.9 485.8 L721.9 486.0 L721.9 486.2 L722.0 486.2 L722.2 486.2 L722.4 486.2 L722.6 486.2 L722.6 486.0 L722.6 485.8 L722.6 485.6 L722.6 485.4 L722.6 485.3 L722.4 485.3 L722.2 485.3 L722.2 485.4 L722.0 485.4 L721.9 485.4 Z" fill="#2f8f83" fill-opacity="0.34" stroke="#0e5b52" stroke-width="1.6" />
  <path d="M710.8 499.0 L710.6 499.0 L710.6 499.2 L710.8 499.2 L710.8 499.0 Z" fill="#2f8f83" fill-opacity="0.34" stroke="#0e5b52" stroke-width="1.6" />
  <path d="M506.0 462.1 L505.8 462.1 L505.8 462.3 L506.0 462.3 L506.0 462.5 L506.2 462.5 L506.2 462.6 L506.4 462.6 L506.5 462.6 L506.7 462.6 L506.9 462.6 L507.1 462.6 L507.3 462.6 L507.4 462.6 L507.6 462.6 L507.8 462.6 L508.0 462.6 L508.2 462.6 L508.2 462.5 L508.2 462.3 L508.2 462.1 L508.2 461.9 L508.2 461.7 L508.2 461.5 L508.2 461.3 L508.0 461.3 L507.8 461.3 L507.6 461.3 L507.4 461.3 L507.3 461.3 L507.1 461.3 L506.9 461.3 L506.9 461.5 L506.9 461.7 L506.9 461.9 L506.7 461.9 L506.5 461.9 L506.4 461.9 L506.4 462.1 L506.2 462.1 L506.0 462.1 Z" fill="#2f8f83" fill-opacity="0.34" stroke="#0e5b52" stroke-width="1.6" />
  <path d="M506.4 462.8 L506.4 463.0 L506.4 463.2 L506.4 463.4 L506.4 463.6 L506.5 463.6 L506.7 463.6 L506.9 463.6 L506.9 463.8 L506.9 464.0 L507.1 464.0 L507.1 464.2 L507.1 464.4 L507.3 464.4 L507.4 464.4 L507.6 464.4 L507.6 464.2 L507.6 464.0 L507.8 464.0 L508.0 464.0 L508.2 464.0 L508.2 463.8 L508.0 463.8 L507.8 463.8 L507.8 463.6 L507.8 463.4 L507.8 463.2 L507.8 463.0 L507.8 462.8 L508.0 462.8 L508.2 462.8 L508.2 462.6 L508.0 462.6 L507.8 462.6 L507.6 462.6 L507.4 462.6 L507.3 462.6 L507.1 462.6 L506.9 462.6 L506.7 462.6 L506.5 462.6 L506.4 462.6 L506.4 462.8 Z" fill="#2f8f83" fill-opacity="0.34" stroke="#0e5b52" stroke-width="1.6" />
  <path d="M507.6 464.2 L507.6 464.4 L507.8 464.4 L507.8 464.6 L508.0 464.6 L508.2 464.6 L508.4 464.6 L508.5 464.6 L508.5 464.7 L508.7 464.7 L508.7 464.6 L508.7 464.4 L508.5 464.4 L508.5 464.2 L508.4 464.2 L508.4 464.0 L508.4 463.8 L508.4 463.6 L508.2 463.6 L508.2 463.8 L508.2 464.0 L508.0 464.0 L507.8 464.0 L507.6 464.0 L507.6 464.2 Z" fill="#2f8f83" fill-opacity="0.34" stroke="#0e5b52" stroke-width="1.6" />
  <path d="M368.9 254.5 L368.9 254.7 L369.1 254.7 L369.3 254.7 L369.5 254.7 L369.6 254.7 L369.8 254.7 L369.8 254.5 L369.8 254.3 L369.8 254.1 L369.8 253.9 L369.6 253.9 L369.5 253.9 L369.3 253.9 L369.1 253.9 L368.9 253.9 L368.9 254.1 L368.9 254.3 L368.9 254.5 Z" fill="#2f8f83" fill-opacity="0.34" stroke="#0e5b52" stroke-width="1.6" />
  <path d="M296.5 226.9 L296.5 227.1 L296.7 227.1 L296.7 227.3 L296.7 227.5 L296.7 227.7 L296.8 227.7 L296.8 228.0 L296.8 228.2 L297.0 228.2 L297.2 228.2 L297.4 228.2 L297.6 228.2 L297.8 228.2 L297.9 228.2 L298.1 228.2 L298.3 228.2 L298.5 228.2 L298.7 228.2 L298.8 228.2 L299.0 228.2 L299.2 228.2 L299.4 228.2 L299.6 228.2 L299.7 228.2 L299.9 228.2 L300.1 228.2 L300.3 228.2 L300.3 228.0 L300.1 228.0 L299.9 228.0 L299.9 227.7 L299.7 227.7 L299.6 227.7 L299.4 227.7 L299.2 227.7 L299.0 227.7 L298.8 227.7 L298.7 227.7 L298.5 227.7 L298.3 227.7 L298.1 227.7 L297.9 227.7 L297.8 227.7 L297.6 227.7 L297.4 227.7 L297.2 227.7 L297.0 227.7 L297.0 227.5 L297.0 227.3 L297.0 227.1 L297.0 226.9 L297.0 226.7 L297.0 226.5 L297.0 226.2 L297.0 226.0 L297.0 225.8 L297.0 225.6 L297.0 225.4 L297.0 225.2 L297.0 225.0 L297.0 224.7 L297.0 224.5 L297.0 224.3 L296.8 224.3 L296.7 224.3 L296.7 224.5 L296.7 224.7 L296.7 225.0 L296.7 225.2 L296.7 225.4 L296.7 225.6 L296.5 225.6 L296.5 225.8 L296.5 226.0 L296.5 226.2 L296.5 226.5 L296.5 226.7 L296.5 226.9 Z" fill="#2f8f83" fill-opacity="0.34" stroke="#0e5b52" stroke-width="1.6" />
  <path d="M296.3 224.1 L296.3 224.3 L296.5 224.3 L296.5 224.1 L296.5 223.9 L296.5 223.7 L296.5 223.5 L296.5 223.2 L296.3 223.2 L296.3 223.5 L296.3 223.7 L296.3 223.9 L296.3 224.1 Z" fill="#2f8f83" fill-opacity="0.34" stroke="#0e5b52" stroke-width="1.6" />
  <path d="M385.3 130.9 L385.3 131.1 L385.4 131.1 L385.6 131.1 L385.8 131.1 L386.0 131.1 L386.2 131.1 L386.3 131.1 L386.5 131.1 L386.7 131.1 L386.9 131.1 L387.1 131.1 L387.3 131.1 L387.4 131.1 L387.4 130.9 L387.4 130.6 L387.3 130.6 L387.3 130.4 L387.3 130.2 L387.1 130.2 L387.1 130.0 L387.1 129.7 L386.9 129.7 L386.9 129.5 L386.7 129.5 L386.7 129.3 L386.5 129.3 L386.5 129.1 L386.5 128.8 L386.3 128.8 L386.3 128.6 L386.2 128.6 L386.0 128.6 L385.8 128.6 L385.6 128.6 L385.4 128.6 L385.4 128.8 L385.4 129.1 L385.4 129.3 L385.4 129.5 L385.4 129.7 L385.4 130.0 L385.6 130.0 L385.6 130.2 L385.8 130.2 L385.8 130.4 L385.6 130.4 L385.6 130.6 L385.4 130.6 L385.3 130.6 L385.3 130.9 Z" fill="#2f8f83" fill-opacity="0.34" stroke="#0e5b52" stroke-width="1.6" />
  <path d="M379.4 125.0 L379.4 125.2 L379.6 125.2 L379.6 125.5 L379.6 125.7 L379.6 125.9 L379.8 125.9 L379.8 126.1 L380.0 126.1 L380.2 126.1 L380.2 126.4 L380.4 126.4 L380.4 126.6 L380.5 126.6 L380.5 126.4 L380.5 126.1 L380.5 125.9 L380.5 125.7 L380.5 125.5 L380.5 125.2 L380.5 125.0 L380.5 124.8 L380.5 124.6 L380.5 124.3 L380.5 124.1 L380.4 124.1 L380.2 124.1 L380.0 124.1 L379.8 124.1 L379.6 124.1 L379.4 124.1 L379.4 124.3 L379.4 124.6 L379.4 124.8 L379.4 125.0 Z" fill="#2f8f83" fill-opacity="0.34" stroke="#0e5b52" stroke-width="1.6" />
  <path d="M361.5 466.3 L361.7 466.3 L361.8 466.3 L362.0 466.3 L362.0 466.1 L362.0 465.9 L361.8 465.9 L361.8 466.1 L361.7 466.1 L361.5 466.1 L361.3 466.1 L361.3 466.3 L361.5 466.3 Z" fill="#2f8f83" fill-opacity="0.34" stroke="#0e5b52" stroke-width="1.6" />
  <path d="M361.5 466.5 L361.5 466.7 L361.7 466.7 L361.7 466.5 L361.7 466.3 L361.5 466.3 L361.5 466.5 Z" fill="#2f8f83" fill-opacity="0.34" stroke="#0e5b52" stroke-width="1.6" />
  <path d="M361.8 466.7 L362.0 466.7 L362.0 466.5 L361.8 466.5 L361.7 466.5 L361.7 466.7 L361.8 466.7 Z" fill="#2f8f83" fill-opacity="0.34" stroke="#0e5b52" stroke-width="1.6" />
  <path d="M362.2 466.5 L362.0 466.5 L362.0 466.7 L362.2 466.7 L362.2 466.5 Z" fill="#2f8f83" fill-opacity="0.34" stroke="#0e5b52" stroke-width="1.6" />
  <path d="M361.8 466.5 L362.0 466.5 L362.0 466.3 L361.8 466.3 L361.7 466.3 L361.7 466.5 L361.8 466.5 Z" fill="#2f8f83" fill-opacity="0.34" stroke="#0e5b52" stroke-width="1.6" />
  <path d="M362.0 465.7 L361.8 465.7 L361.8 465.9 L362.0 465.9 L362.0 465.7 Z" fill="#2f8f83" fill-opacity="0.34" stroke="#0e5b52" stroke-width="1.6" />
  <path d="M360.4 465.1 L360.4 465.3 L360.6 465.3 L360.6 465.1 L360.6 464.9 L360.4 464.9 L360.4 465.1 Z" fill="#2f8f83" fill-opacity="0.34" stroke="#0e5b52" stroke-width="1.6" />
  <path d="M359.5 465.7 L359.5 465.9 L359.7 465.9 L359.8 465.9 L360.0 465.9 L360.0 465.7 L360.2 465.7 L360.4 465.7 L360.6 465.7 L360.8 465.7 L360.9 465.7 L361.1 465.7 L361.3 465.7 L361.5 465.7 L361.5 465.5 L361.5 465.3 L361.5 465.1 L361.3 465.1 L361.3 464.9 L361.3 464.7 L361.1 464.7 L360.9 464.7 L360.8 464.7 L360.6 464.7 L360.4 464.7 L360.2 464.7 L360.2 464.9 L360.2 465.1 L360.2 465.3 L360.2 465.5 L360.0 465.5 L359.8 465.5 L359.7 465.5 L359.5 465.5 L359.5 465.7 Z M360.4 464.9 L360.6 464.9 L360.6 465.1 L360.6 465.3 L360.4 465.3 L360.4 465.1 L360.4 464.9 Z" fill="#2f8f83" fill-opacity="0.34" stroke="#0e5b52" stroke-width="1.6" />
  <path d="M360.2 465.9 L360.4 465.9 L360.6 465.9 L360.8 465.9 L360.9 465.9 L361.1 465.9 L361.3 465.9 L361.3 466.1 L361.5 466.1 L361.7 466.1 L361.8 466.1 L361.8 465.9 L361.8 465.7 L361.8 465.5 L361.8 465.3 L361.8 465.1 L361.8 464.9 L361.8 464.7 L361.7 464.7 L361.5 464.7 L361.3 464.7 L361.3 464.9 L361.3 465.1 L361.5 465.1 L361.5 465.3 L361.5 465.5 L361.5 465.7 L361.3 465.7 L361.1 465.7 L360.9 465.7 L360.8 465.7 L360.6 465.7 L360.4 465.7 L360.2 465.7 L360.0 465.7 L360.0 465.9 L360.2 465.9 Z" fill="#2f8f83" fill-opacity="0.34" stroke="#0e5b52" stroke-width="1.6" />
  <path d="M507.6 464.4 L507.4 464.4 L507.4 464.6 L507.6 464.6 L507.8 464.6 L507.8 464.4 L507.6 464.4 Z" fill="#2f8f83" fill-opacity="0.34" stroke="#0e5b52" stroke-width="1.6" />
  <path d="M433.4 292.4 L433.2 292.4 L433.2 292.6 L433.4 292.6 L433.6 292.6 L433.7 292.6 L433.7 292.4 L433.6 292.4 L433.4 292.4 Z" fill="#2f8f83" fill-opacity="0.34" stroke="#0e5b52" stroke-width="1.6" />
  <path d="M359.3 465.3 L359.3 465.5 L359.5 465.5 L359.7 465.5 L359.8 465.5 L360.0 465.5 L360.2 465.5 L360.2 465.3 L360.2 465.1 L360.2 464.9 L360.2 464.7 L360.0 464.7 L359.8 464.7 L359.7 464.7 L359.5 464.7 L359.3 464.7 L359.3 464.9 L359.3 465.1 L359.3 465.3 Z M359.5 465.1 L359.5 464.9 L359.7 464.9 L359.7 465.1 L359.8 465.1 L359.8 465.3 L359.7 465.3 L359.5 465.3 L359.5 465.1 Z" fill="#2f8f83" fill-opacity="0.34" stroke="#0e5b52" stroke-width="1.6" />
  <path d="M359.8 465.1 L359.7 465.1 L359.7 465.3 L359.8 465.3 L359.8 465.1 Z" fill="#2f8f83" fill-opacity="0.34" stroke="#0e5b52" stroke-width="1.6" />
  <path d="M296.5 225.4 L296.5 225.6 L296.7 225.6 L296.7 225.4 L296.7 225.2 L296.5 225.2 L296.5 225.4 Z" fill="#2f8f83" fill-opacity="0.34" stroke="#0e5b52" stroke-width="1.6" />
  <path d="M296.7 223.9 L296.7 223.7 L296.5 223.7 L296.5 223.9 L296.7 223.9 Z" fill="#2f8f83" fill-opacity="0.34" stroke="#0e5b52" stroke-width="1.6" />
  <path d="M294.3 237.6 L294.3 237.8 L294.5 237.8 L294.7 237.8 L294.8 237.8 L295.0 237.8 L295.0 237.6 L295.0 237.4 L295.0 237.1 L295.0 236.9 L295.0 236.7 L294.8 236.7 L294.8 236.5 L294.7 236.5 L294.5 236.5 L294.5 236.7 L294.3 236.7 L294.3 236.9 L294.3 237.1 L294.3 237.4 L294.3 237.6 Z" fill="#2f8f83" fill-opacity="0.34" stroke="#0e5b52" stroke-width="1.6" />
  <path d="M362.0 465.7 L362.2 465.7 L362.2 465.5 L362.0 465.5 L361.8 465.5 L361.8 465.7 L362.0 465.7 Z" fill="#2f8f83" fill-opacity="0.34" stroke="#0e5b52" stroke-width="1.6" />
  <path d="M362.0 465.5 L362.2 465.5 L362.2 465.7 L362.4 465.7 L362.4 465.9 L362.4 466.1 L362.6 466.1 L362.6 466.3 L362.6 466.5 L362.7 466.5 L362.9 466.5 L363.1 466.5 L363.3 466.5 L363.3 466.7 L363.5 466.7 L363.7 466.7 L363.8 466.7 L363.8 466.5 L363.7 466.5 L363.7 466.3 L363.5 466.3 L363.5 466.1 L363.3 466.1 L363.1 466.1 L362.9 466.1 L362.9 465.9 L362.9 465.7 L362.9 465.5 L362.9 465.3 L362.7 465.3 L362.6 465.3 L362.4 465.3 L362.2 465.3 L362.0 465.3 L361.8 465.3 L361.8 465.5 L362.0 465.5 Z" fill="#2f8f83" fill-opacity="0.34" stroke="#0e5b52" stroke-width="1.6" />
  <path d="M712.1 502.0 L712.1 502.2 L712.2 502.2 L712.2 502.4 L712.2 502.6 L712.2 502.8 L712.2 503.0 L712.1 503.0 L711.9 503.0 L711.9 503.2 L712.1 503.2 L712.2 503.2 L712.4 503.2 L712.4 503.0 L712.4 502.8 L712.4 502.6 L712.4 502.4 L712.4 502.2 L712.4 502.0 L712.2 502.0 L712.2 501.8 L712.1 501.8 L712.1 502.0 Z" fill="#2f8f83" fill-opacity="0.34" stroke="#0e5b52" stroke-width="1.6" />
  <path d="M431.6 292.4 L431.6 292.6 L431.6 292.8 L431.6 293.0 L431.6 293.2 L431.6 293.4 L431.6 293.6 L431.6 293.8 L431.6 294.0 L431.6 294.2 L431.6 294.5 L431.6 294.7 L431.6 294.9 L431.6 295.1 L431.6 295.3 L431.6 295.5 L431.7 295.5 L431.7 295.3 L431.7 295.1 L431.7 294.9 L431.7 294.7 L431.9 294.7 L431.9 294.5 L432.1 294.5 L432.1 294.2 L432.1 294.0 L432.1 293.8 L432.1 293.6 L432.1 293.4 L432.1 293.2 L432.1 293.0 L432.1 292.8 L432.1 292.6 L432.3 292.6 L432.5 292.6 L432.6 292.6 L432.8 292.6 L433.0 292.6 L433.2 292.6 L433.2 292.4 L433.4 292.4 L433.6 292.4 L433.7 292.4 L433.9 292.4 L434.1 292.4 L434.3 292.4 L434.5 292.4 L434.6 292.4 L434.8 292.4 L435.0 292.4 L435.0 292.2 L435.0 292.0 L434.8 292.0 L434.6 292.0 L434.6 292.2 L434.5 292.2 L434.3 292.2 L434.1 292.2 L433.9 292.2 L433.7 292.2 L433.6 292.2 L433.4 292.2 L433.2 292.2 L433.0 292.2 L432.8 292.2 L432.6 292.2 L432.5 292.2 L432.3 292.2 L432.1 292.2 L431.9 292.2 L431.7 292.2 L431.6 292.2 L431.6 292.4 Z" fill="#2f8f83" fill-opacity="0.34" stroke="#0e5b52" stroke-width="1.6" />
  <path d="M571.0 499.8 L571.0 500.0 L571.0 500.2 L571.0 500.3 L571.0 500.5 L571.2 500.5 L571.4 500.5 L571.5 500.5 L571.7 500.5 L571.9 500.5 L571.9 500.3 L571.9 500.2 L571.9 500.0 L572.1 500.0 L572.3 500.0 L572.4 500.0 L572.6 500.0 L572.8 500.0 L573.0 500.0 L573.0 499.8 L573.0 499.6 L573.0 499.4 L573.0 499.2 L573.0 499.0 L573.0 498.8 L572.8 498.8 L572.6 498.8 L572.4 498.8 L572.3 498.8 L572.1 498.8 L571.9 498.8 L571.7 498.8 L571.7 499.0 L571.7 499.2 L571.7 499.4 L571.7 499.6 L571.5 499.6 L571.4 499.6 L571.2 499.6 L571.0 499.6 L571.0 499.8 Z" fill="#2f8f83" fill-opacity="0.34" stroke="#0e5b52" stroke-width="1.6" />
  <path d="M362.7 466.5 L362.6 466.5 L362.6 466.7 L362.7 466.7 L362.7 466.5 Z" fill="#2f8f83" fill-opacity="0.34" stroke="#0e5b52" stroke-width="1.6" />
  <path d="M363.7 466.7 L363.5 466.7 L363.5 466.8 L363.7 466.8 L363.7 466.7 Z" fill="#2f8f83" fill-opacity="0.34" stroke="#0e5b52" stroke-width="1.6" />
  <path d="M357.8 464.0 L358.0 464.0 L358.2 464.0 L358.2 464.2 L358.4 464.2 L358.6 464.2 L358.8 464.2 L358.8 464.4 L358.9 464.4 L359.1 464.4 L359.3 464.4 L359.5 464.4 L359.5 464.6 L359.7 464.6 L359.8 464.6 L360.0 464.6 L360.2 464.6 L360.4 464.6 L360.4 464.7 L360.6 464.7 L360.8 464.7 L360.9 464.7 L361.1 464.7 L361.3 464.7 L361.5 464.7 L361.5 464.6 L361.5 464.4 L361.7 464.4 L361.8 464.4 L362.0 464.4 L362.2 464.4 L362.4 464.4 L362.4 464.2 L362.4 464.0 L362.4 463.8 L362.2 463.8 L362.0 463.8 L361.8 463.8 L361.7 463.8 L361.5 463.8 L361.3 463.8 L361.1 463.8 L360.9 463.8 L360.8 463.8 L360.6 463.8 L360.4 463.8 L360.2 463.8 L360.0 463.8 L359.8 463.8 L359.7 463.8 L359.5 463.8 L359.3 463.8 L359.1 463.8 L358.9 463.8 L358.8 463.8 L358.6 463.8 L358.4 463.8 L358.2 463.8 L358.0 463.8 L357.8 463.8 L357.7 463.8 L357.7 464.0 L357.8 464.0 Z" fill="#2f8f83" fill-opacity="0.34" stroke="#0e5b52" stroke-width="1.6" />
  <path d="M362.4 464.9 L362.4 465.1 L362.6 465.1 L362.7 465.1 L362.9 465.1 L363.1 465.1 L363.1 464.9 L363.1 464.7 L363.1 464.6 L363.1 464.4 L363.1 464.2 L363.1 464.0 L363.1 463.8 L362.9 463.8 L362.7 463.8 L362.6 463.8 L362.4 463.8 L362.4 464.0 L362.4 464.2 L362.4 464.4 L362.4 464.6 L362.4 464.7 L362.4 464.9 Z" fill="#2f8f83" fill-opacity="0.34" stroke="#0e5b52" stroke-width="1.6" />
  <path d="M364.0 133.6 L364.0 133.8 L364.2 133.8 L364.4 133.8 L364.4 133.6 L364.6 133.6 L364.7 133.6 L364.9 133.6 L365.1 133.6 L365.3 133.6 L365.5 133.6 L365.6 133.6 L365.8 133.6 L366.0 133.6 L366.2 133.6 L366.4 133.6 L366.6 133.6 L366.6 133.3 L366.6 133.1 L366.4 133.1 L366.2 133.1 L366.0 133.1 L365.8 133.1 L365.6 133.1 L365.6 132.9 L365.6 132.7 L365.6 132.4 L365.6 132.2 L365.5 132.2 L365.5 132.0 L365.5 131.8 L365.5 131.5 L365.5 131.3 L365.5 131.1 L365.5 130.9 L365.6 130.9 L365.8 130.9 L365.8 130.6 L366.0 130.6 L366.0 130.4 L365.8 130.4 L365.6 130.4 L365.6 130.6 L365.5 130.6 L365.3 130.6 L365.1 130.6 L364.9 130.6 L364.7 130.6 L364.6 130.6 L364.6 130.9 L364.4 130.9 L364.2 130.9 L364.2 131.1 L364.2 131.3 L364.2 131.5 L364.4 131.5 L364.4 131.8 L364.6 131.8 L364.6 132.0 L364.6 132.2 L364.6 132.4 L364.6 132.7 L364.6 132.9 L364.6 133.1 L364.4 133.1 L364.2 133.1 L364.0 133.1 L364.0 133.3 L364.0 133.6 Z" fill="#2f8f83" fill-opacity="0.34" stroke="#0e5b52" stroke-width="1.6" />
  <path d="M367.6 139.2 L367.6 139.4 L367.8 139.4 L368.0 139.4 L368.2 139.4 L368.4 139.4 L368.6 139.4 L368.7 139.4 L368.9 139.4 L369.1 139.4 L369.3 139.4 L369.5 139.4 L369.6 139.4 L369.8 139.4 L370.0 139.4 L370.2 139.4 L370.4 139.4 L370.4 139.6 L370.5 139.6 L370.7 139.6 L370.7 139.8 L370.9 139.8 L371.1 139.8 L371.1 140.1 L371.3 140.1 L371.3 140.3 L371.5 140.3 L371.6 140.3 L371.8 140.3 L372.0 140.3 L372.2 140.3 L372.4 140.3 L372.5 140.3 L372.5 140.5 L372.7 140.5 L372.9 140.5 L372.9 140.7 L373.1 140.7 L373.3 140.7 L373.5 140.7 L373.5 141.0 L373.6 141.0 L373.6 141.2 L373.8 141.2 L374.0 141.2 L374.2 141.2 L374.2 141.4 L374.4 141.4 L374.4 141.6 L374.5 141.6 L374.7 141.6 L374.9 141.6 L375.1 141.6 L375.3 141.6 L375.3 141.8 L375.3 142.1 L375.5 142.1 L375.5 142.3 L375.6 142.3 L375.6 142.1 L375.6 141.8 L375.6 141.6 L375.5 141.6 L375.5 141.4 L375.3 141.4 L375.1 141.4 L374.9 141.4 L374.7 141.4 L374.5 141.4 L374.5 141.2 L374.4 141.2 L374.4 141.0 L374.2 141.0 L374.0 141.0 L373.8 141.0 L373.8 140.7 L373.6 140.7 L373.6 140.5 L373.5 140.5 L373.3 140.5 L373.1 140.5 L373.1 140.3 L372.9 140.3 L372.7 140.3 L372.7 140.1 L372.5 140.1 L372.4 140.1 L372.2 140.1 L372.0 140.1 L371.8 140.1 L371.6 140.1 L371.5 140.1 L371.5 139.8 L371.5 139.6 L371.3 139.6 L371.3 139.4 L371.1 139.4 L370.9 139.4 L370.9 139.2 L370.9 138.9 L370.7 138.9 L370.5 138.9 L370.5 138.7 L370.5 138.5 L370.4 138.5 L370.2 138.5 L370.0 138.5 L370.0 138.7 L369.8 138.7 L369.6 138.7 L369.5 138.7 L369.3 138.7 L369.1 138.7 L368.9 138.7 L368.7 138.7 L368.6 138.7 L368.4 138.7 L368.2 138.7 L368.0 138.7 L367.8 138.7 L367.6 138.7 L367.6 138.9 L367.6 139.2 Z" fill="#2f8f83" fill-opacity="0.34" stroke="#0e5b52" stroke-width="1.6" />
  <path d="M365.8 135.6 L366.0 135.6 L366.0 135.8 L366.2 135.8 L366.4 135.8 L366.6 135.8 L366.7 135.8 L366.9 135.8 L366.9 136.0 L367.1 136.0 L367.1 136.3 L367.3 136.3 L367.3 136.5 L367.5 136.5 L367.5 136.7 L367.6 136.7 L367.6 136.9 L367.6 137.1 L367.6 137.4 L367.6 137.6 L367.6 137.8 L367.6 138.0 L367.6 138.3 L367.6 138.5 L367.6 138.7 L367.8 138.7 L368.0 138.7 L368.2 138.7 L368.4 138.7 L368.6 138.7 L368.7 138.7 L368.9 138.7 L369.1 138.7 L369.3 138.7 L369.5 138.7 L369.6 138.7 L369.8 138.7 L370.0 138.7 L370.0 138.5 L370.0 138.3 L369.8 138.3 L369.6 138.3 L369.6 138.0 L369.5 138.0 L369.3 138.0 L369.3 137.8 L369.1 137.8 L368.9 137.8 L368.9 137.6 L368.7 137.6 L368.6 137.6 L368.6 137.4 L368.4 137.4 L368.4 137.1 L368.2 137.1 L368.2 136.9 L368.0 136.9 L368.0 136.7 L368.0 136.5 L368.0 136.3 L368.0 136.0 L368.0 135.8 L368.0 135.6 L367.8 135.6 L367.6 135.6 L367.5 135.6 L367.3 135.6 L367.1 135.6 L366.9 135.6 L366.7 135.6 L366.6 135.6 L366.4 135.6 L366.4 135.4 L366.2 135.4 L366.0 135.4 L365.8 135.4 L365.6 135.4 L365.6 135.6 L365.8 135.6 Z" fill="#2f8f83" fill-opacity="0.34" stroke="#0e5b52" stroke-width="1.6" />
  <path d="M364.0 134.5 L364.0 134.7 L364.2 134.7 L364.4 134.7 L364.6 134.7 L364.7 134.7 L364.9 134.7 L365.1 134.7 L365.3 134.7 L365.3 134.9 L365.3 135.1 L365.3 135.4 L365.5 135.4 L365.5 135.6 L365.6 135.6 L365.6 135.4 L365.8 135.4 L366.0 135.4 L366.2 135.4 L366.4 135.4 L366.4 135.1 L366.4 134.9 L366.6 134.9 L366.7 134.9 L366.7 134.7 L366.7 134.5 L366.7 134.2 L366.9 134.2 L366.9 134.0 L367.1 134.0 L367.1 133.8 L367.3 133.8 L367.3 133.6 L367.1 133.6 L366.9 133.6 L366.7 133.6 L366.6 133.6 L366.4 133.6 L366.2 133.6 L366.0 133.6 L365.8 133.6 L365.6 133.6 L365.5 133.6 L365.3 133.6 L365.1 133.6 L364.9 133.6 L364.7 133.6 L364.6 133.6 L364.4 133.6 L364.4 133.8 L364.2 133.8 L364.0 133.8 L364.0 134.0 L364.0 134.2 L364.0 134.5 Z" fill="#2f8f83" fill-opacity="0.34" stroke="#0e5b52" stroke-width="1.6" />
  <path d="M380.5 150.5 L380.5 150.8 L380.7 150.8 L380.7 151.0 L380.9 151.0 L380.9 151.2 L380.9 151.4 L380.9 151.6 L380.7 151.6 L380.7 151.9 L380.9 151.9 L381.1 151.9 L381.1 152.1 L381.3 152.1 L381.3 152.3 L381.3 152.5 L381.3 152.8 L381.3 153.0 L381.3 153.2 L381.3 153.4 L381.3 153.6 L381.3 153.9 L381.3 154.1 L381.3 154.3 L381.4 154.3 L381.6 154.3 L381.8 154.3 L382.0 154.3 L382.2 154.3 L382.3 154.3 L382.5 154.3 L382.7 154.3 L382.9 154.3 L383.1 154.3 L383.3 154.3 L383.3 154.5 L383.3 154.8 L383.3 155.0 L383.3 155.2 L383.3 155.4 L383.3 155.6 L383.3 155.9 L383.3 156.1 L383.3 156.3 L383.3 156.5 L383.3 156.8 L383.3 157.0 L383.3 157.2 L383.4 157.2 L383.6 157.2 L383.8 157.2 L384.0 157.2 L384.2 157.2 L384.3 157.2 L384.5 157.2 L384.7 157.2 L384.9 157.2 L385.1 157.2 L385.3 157.2 L385.4 157.2 L385.6 157.2 L385.8 157.2 L385.8 157.0 L385.8 156.8 L385.6 156.8 L385.4 156.8 L385.3 156.8 L385.1 156.8 L384.9 156.8 L384.7 156.8 L384.5 156.8 L384.3 156.8 L384.2 156.8 L384.0 156.8 L383.8 156.8 L383.6 156.8 L383.6 156.5 L383.6 156.3 L383.6 156.1 L383.6 155.9 L383.6 155.6 L383.6 155.4 L383.6 155.2 L383.6 155.0 L383.6 154.8 L383.6 154.5 L383.6 154.3 L383.6 154.1 L383.6 153.9 L383.4 153.9 L383.3 153.9 L383.1 153.9 L382.9 153.9 L382.7 153.9 L382.5 153.9 L382.3 153.9 L382.2 153.9 L382.0 153.9 L381.8 153.9 L381.6 153.9 L381.4 153.9 L381.4 153.6 L381.4 153.4 L381.4 153.2 L381.4 153.0 L381.4 152.8 L381.4 152.5 L381.4 152.3 L381.4 152.1 L381.4 151.9 L381.3 151.9 L381.3 151.6 L381.1 151.6 L381.1 151.4 L381.1 151.2 L381.1 151.0 L381.1 150.8 L381.1 150.5 L381.1 150.3 L380.9 150.3 L380.7 150.3 L380.5 150.3 L380.5 150.5 Z" fill="#2f8f83" fill-opacity="0.34" stroke="#0e5b52" stroke-width="1.6" />
  <path d="M385.4 163.8 L385.4 164.1 L385.6 164.1 L385.8 164.1 L386.0 164.1 L386.2 164.1 L386.3 164.1 L386.5 164.1 L386.7 164.1 L386.7 164.3 L386.7 164.5 L386.7 164.7 L386.7 164.9 L386.7 165.2 L386.7 165.4 L386.7 165.6 L386.7 165.8 L386.7 166.0 L386.7 166.3 L386.9 166.3 L387.1 166.3 L387.3 166.3 L387.4 166.3 L387.6 166.3 L387.8 166.3 L388.0 166.3 L388.2 166.3 L388.2 166.5 L388.3 166.5 L388.5 166.5 L388.7 166.5 L388.7 166.3 L388.7 166.0 L388.5 166.0 L388.5 165.8 L388.3 165.8 L388.3 165.6 L388.2 165.6 L388.2 165.4 L388.2 165.2 L388.0 165.2 L387.8 165.2 L387.8 164.9 L387.6 164.9 L387.4 164.9 L387.4 164.7 L387.3 164.7 L387.3 164.5 L387.3 164.3 L387.1 164.3 L387.1 164.1 L386.9 164.1 L386.9 163.8 L386.7 163.8 L386.7 163.6 L386.5 163.6 L386.3 163.6 L386.2 163.6 L386.0 163.6 L385.8 163.6 L385.6 163.6 L385.6 163.4 L385.6 163.2 L385.6 162.9 L385.6 162.7 L385.6 162.5 L385.6 162.3 L385.6 162.1 L385.6 161.8 L385.6 161.6 L385.6 161.4 L385.6 161.2 L385.6 161.0 L385.6 160.7 L385.6 160.5 L385.8 160.5 L386.0 160.5 L386.0 160.3 L386.0 160.1 L385.8 160.1 L385.8 160.3 L385.6 160.3 L385.4 160.3 L385.4 160.5 L385.4 160.7 L385.4 161.0 L385.4 161.2 L385.4 161.4 L385.4 161.6 L385.4 161.8 L385.4 162.1 L385.4 162.3 L385.4 162.5 L385.4 162.7 L385.4 162.9 L385.4 163.2 L385.4 163.4 L385.4 163.6 L385.4 163.8 Z" fill="#2f8f83" fill-opacity="0.34" stroke="#0e5b52" stroke-width="1.6" />
  <path d="M383.8 166.0 L383.8 166.3 L384.0 166.3 L384.2 166.3 L384.3 166.3 L384.5 166.3 L384.7 166.3 L384.9 166.3 L385.1 166.3 L385.3 166.3 L385.4 166.3 L385.6 166.3 L385.8 166.3 L386.0 166.3 L386.2 166.3 L386.3 166.3 L386.5 166.3 L386.7 166.3 L386.7 166.0 L386.7 165.8 L386.7 165.6 L386.7 165.4 L386.7 165.2 L386.7 164.9 L386.7 164.7 L386.7 164.5 L386.7 164.3 L386.7 164.1 L386.5 164.1 L386.5 164.3 L386.5 164.5 L386.5 164.7 L386.5 164.9 L386.3 164.9 L386.2 164.9 L386.0 164.9 L385.8 164.9 L385.6 164.9 L385.4 164.9 L385.3 164.9 L385.1 164.9 L384.9 164.9 L384.7 164.9 L384.5 164.9 L384.3 164.9 L384.2 164.9 L384.0 164.9 L383.8 164.9 L383.8 165.2 L383.8 165.4 L383.8 165.6 L383.8 165.8 L383.8 166.0 Z" fill="#2f8f83" fill-opacity="0.34" stroke="#0e5b52" stroke-width="1.6" />
  <path d="M380.5 164.1 L380.5 164.3 L380.7 164.3 L380.9 164.3 L381.1 164.3 L381.3 164.3 L381.4 164.3 L381.6 164.3 L381.8 164.3 L382.0 164.3 L382.2 164.3 L382.3 164.3 L382.3 164.5 L382.3 164.7 L382.5 164.7 L382.7 164.7 L382.9 164.7 L383.1 164.7 L383.3 164.7 L383.4 164.7 L383.6 164.7 L383.8 164.7 L383.8 164.9 L384.0 164.9 L384.2 164.9 L384.3 164.9 L384.3 164.7 L384.2 164.7 L384.2 164.5 L384.2 164.3 L384.0 164.3 L383.8 164.3 L383.6 164.3 L383.6 164.1 L383.4 164.1 L383.3 164.1 L383.3 163.8 L383.1 163.8 L382.9 163.8 L382.7 163.8 L382.7 163.6 L382.5 163.6 L382.5 163.4 L382.5 163.2 L382.5 162.9 L382.3 162.9 L382.2 162.9 L382.0 162.9 L381.8 162.9 L381.6 162.9 L381.4 162.9 L381.3 162.9 L381.1 162.9 L380.9 162.9 L380.7 162.9 L380.5 162.9 L380.5 163.2 L380.5 163.4 L380.5 163.6 L380.5 163.8 L380.5 164.1 Z" fill="#2f8f83" fill-opacity="0.34" stroke="#0e5b52" stroke-width="1.6" />
  <path d="M382.5 163.4 L382.5 163.6 L382.7 163.6 L382.7 163.8 L382.9 163.8 L383.1 163.8 L383.3 163.8 L383.3 164.1 L383.4 164.1 L383.6 164.1 L383.6 164.3 L383.8 164.3 L384.0 164.3 L384.2 164.3 L384.2 164.5 L384.2 164.7 L384.3 164.7 L384.3 164.9 L384.5 164.9 L384.7 164.9 L384.9 164.9 L385.1 164.9 L385.3 164.9 L385.4 164.9 L385.6 164.9 L385.8 164.9 L386.0 164.9 L386.2 164.9 L386.3 164.9 L386.5 164.9 L386.5 164.7 L386.5 164.5 L386.5 164.3 L386.5 164.1 L386.3 164.1 L386.2 164.1 L386.0 164.1 L385.8 164.1 L385.6 164.1 L385.4 164.1 L385.4 163.8 L385.4 163.6 L385.4 163.4 L385.3 163.4 L385.1 163.4 L384.9 163.4 L384.7 163.4 L384.5 163.4 L384.3 163.4 L384.2 163.4 L384.0 163.4 L383.8 163.4 L383.6 163.4 L383.4 163.4 L383.3 163.4 L383.1 163.4 L382.9 163.4 L382.9 163.2 L382.7 163.2 L382.7 162.9 L382.5 162.9 L382.5 163.2 L382.5 163.4 Z" fill="#2f8f83" fill-opacity="0.34" stroke="#0e5b52" stroke-width="1.6" />
  <path d="M364.2 466.8 L364.2 467.0 L364.4 467.0 L364.6 467.0 L364.6 467.2 L364.7 467.2 L364.7 467.4 L364.6 467.4 L364.6 467.6 L364.7 467.6 L364.9 467.6 L365.1 467.6 L365.1 467.8 L365.3 467.8 L365.3 468.0 L365.3 468.2 L365.5 468.2 L365.7 468.2 L365.8 468.2 L366.0 468.2 L366.2 468.2 L366.4 468.2 L366.6 468.2 L366.7 468.2 L366.9 468.2 L367.1 468.2 L367.3 468.2 L367.5 468.2 L367.7 468.2 L367.8 468.2 L368.0 468.2 L368.2 468.2 L368.4 468.2 L368.6 468.2 L368.7 468.2 L368.9 468.2 L368.9 468.0 L368.9 467.8 L368.9 467.6 L368.9 467.4 L368.7 467.4 L368.6 467.4 L368.4 467.4 L368.2 467.4 L368.0 467.4 L367.8 467.4 L367.7 467.4 L367.5 467.4 L367.3 467.4 L367.1 467.4 L366.9 467.4 L366.7 467.4 L366.6 467.4 L366.4 467.4 L366.2 467.4 L366.0 467.4 L365.8 467.4 L365.7 467.4 L365.5 467.4 L365.5 467.2 L365.5 467.0 L365.3 467.0 L365.1 467.0 L365.1 466.8 L364.9 466.8 L364.7 466.8 L364.6 466.8 L364.4 466.8 L364.4 466.7 L364.2 466.7 L364.0 466.7 L364.0 466.8 L364.2 466.8 Z M365.8 468.0 L365.8 467.8 L366.0 467.8 L366.0 468.0 L365.8 468.0 Z" fill="#2f8f83" fill-opacity="0.34" stroke="#0e5b52" stroke-width="1.6" />
  <path d="M364.6 468.4 L364.6 468.6 L364.7 468.6 L364.9 468.6 L365.1 468.6 L365.3 468.6 L365.5 468.6 L365.7 468.6 L365.8 468.6 L366.0 468.6 L366.2 468.6 L366.4 468.6 L366.6 468.6 L366.7 468.6 L366.9 468.6 L367.1 468.6 L367.3 468.6 L367.5 468.6 L367.7 468.6 L367.8 468.6 L368.0 468.6 L368.2 468.6 L368.4 468.6 L368.6 468.6 L368.7 468.6 L368.9 468.6 L368.9 468.4 L368.9 468.2 L368.7 468.2 L368.6 468.2 L368.4 468.2 L368.2 468.2 L368.0 468.2 L367.8 468.2 L367.7 468.2 L367.5 468.2 L367.3 468.2 L367.1 468.2 L366.9 468.2 L366.7 468.2 L366.6 468.2 L366.4 468.2 L366.2 468.2 L366.0 468.2 L365.8 468.2 L365.7 468.2 L365.5 468.2 L365.3 468.2 L365.3 468.0 L365.3 467.8 L365.1 467.8 L365.1 468.0 L365.1 468.2 L364.9 468.2 L364.7 468.2 L364.6 468.2 L364.6 468.4 Z" fill="#2f8f83" fill-opacity="0.34" stroke="#0e5b52" stroke-width="1.6" />
  <path d="M385.8 157.0 L385.8 157.2 L386.0 157.2 L386.2 157.2 L386.3 157.2 L386.5 157.2 L386.7 157.2 L386.7 157.4 L386.7 157.6 L386.7 157.9 L386.7 158.1 L386.7 158.3 L386.7 158.5 L386.7 158.7 L386.7 159.0 L386.7 159.2 L386.7 159.4 L386.7 159.6 L386.7 159.9 L386.9 159.9 L387.1 159.9 L387.3 159.9 L387.4 159.9 L387.6 159.9 L387.8 159.9 L388.0 159.9 L388.2 159.9 L388.2 159.6 L388.2 159.4 L388.2 159.2 L388.2 159.0 L388.2 158.7 L388.2 158.5 L388.0 158.5 L388.0 158.3 L388.0 158.1 L388.0 157.9 L387.8 157.9 L387.8 157.6 L387.8 157.4 L387.8 157.2 L387.8 157.0 L387.8 156.8 L387.6 156.8 L387.4 156.8 L387.3 156.8 L387.3 157.0 L387.1 157.0 L386.9 157.0 L386.7 157.0 L386.5 157.0 L386.3 157.0 L386.2 157.0 L386.0 157.0 L386.0 156.8 L385.8 156.8 L385.8 157.0 Z M387.4 158.3 L387.4 158.1 L387.6 158.1 L387.6 158.3 L387.6 158.5 L387.4 158.5 L387.4 158.3 Z" fill="#2f8f83" fill-opacity="0.34" stroke="#0e5b52" stroke-width="1.6" />
  <path d="M386.0 160.3 L386.0 160.5 L386.2 160.5 L386.3 160.5 L386.5 160.5 L386.7 160.5 L386.7 160.3 L386.7 160.1 L386.7 159.9 L386.7 159.6 L386.7 159.4 L386.7 159.2 L386.7 159.0 L386.7 158.7 L386.7 158.5 L386.7 158.3 L386.7 158.1 L386.7 157.9 L386.7 157.6 L386.7 157.4 L386.7 157.2 L386.5 157.2 L386.3 157.2 L386.2 157.2 L386.0 157.2 L386.0 157.4 L386.0 157.6 L386.0 157.9 L386.0 158.1 L386.0 158.3 L386.0 158.5 L386.0 158.7 L386.0 159.0 L386.0 159.2 L386.0 159.4 L386.0 159.6 L386.0 159.9 L386.0 160.1 L386.0 160.3 Z" fill="#2f8f83" fill-opacity="0.34" stroke="#0e5b52" stroke-width="1.6" />
  <path d="M710.8 500.0 L710.6 500.0 L710.6 500.1 L710.8 500.1 L711.0 500.1 L711.0 500.0 L710.8 500.0 Z" fill="#2f8f83" fill-opacity="0.34" stroke="#0e5b52" stroke-width="1.6" />
  <path d="M504.2 464.4 L504.2 464.6 L504.4 464.6 L504.4 464.7 L504.5 464.7 L504.5 464.9 L504.7 464.9 L504.7 465.1 L504.9 465.1 L504.9 465.3 L505.1 465.3 L505.1 465.5 L505.1 465.7 L505.1 465.9 L505.1 466.1 L505.3 466.1 L505.3 466.3 L505.3 466.5 L505.5 466.5 L505.6 466.5 L505.8 466.5 L506.0 466.5 L506.2 466.5 L506.4 466.5 L506.5 466.5 L506.5 466.3 L506.5 466.1 L506.5 465.9 L506.4 465.9 L506.2 465.9 L506.0 465.9 L505.8 465.9 L505.6 465.9 L505.5 465.9 L505.5 465.7 L505.5 465.5 L505.5 465.3 L505.5 465.1 L505.5 464.9 L505.5 464.7 L505.3 464.7 L505.3 464.6 L505.1 464.6 L505.1 464.4 L504.9 464.4 L504.7 464.4 L504.5 464.4 L504.4 464.4 L504.2 464.4 Z" fill="#2f8f83" fill-opacity="0.34" stroke="#0e5b52" stroke-width="1.6" />
  <path d="M386.0 498.1 L386.0 498.3 L386.2 498.3 L386.2 498.5 L386.2 498.7 L386.2 498.8 L386.4 498.8 L386.5 498.8 L386.7 498.8 L386.9 498.8 L387.1 498.8 L387.1 498.7 L387.1 498.5 L387.1 498.3 L387.3 498.3 L387.3 498.1 L387.3 497.9 L387.3 497.7 L387.3 497.5 L387.3 497.3 L387.3 497.1 L387.4 497.1 L387.4 497.0 L387.4 496.8 L387.4 496.6 L387.4 496.4 L387.4 496.2 L387.3 496.2 L387.3 496.0 L387.1 496.0 L386.9 496.0 L386.7 496.0 L386.5 496.0 L386.4 496.0 L386.4 496.2 L386.2 496.2 L386.2 496.4 L386.2 496.6 L386.0 496.6 L386.0 496.8 L386.0 497.0 L386.0 497.1 L386.0 497.3 L386.0 497.5 L386.0 497.7 L386.0 497.9 L386.0 498.1 Z" fill="#2f8f83" fill-opacity="0.34" stroke="#0e5b52" stroke-width="1.6" />
  <path d="M386.4 493.6 L386.5 493.6 L386.5 493.8 L386.5 493.9 L386.7 493.9 L386.7 494.1 L386.7 494.3 L386.7 494.5 L386.5 494.5 L386.5 494.7 L386.5 494.9 L386.5 495.1 L386.7 495.1 L386.7 495.3 L386.7 495.5 L386.5 495.5 L386.5 495.6 L386.5 495.8 L386.5 496.0 L386.7 496.0 L386.9 496.0 L387.1 496.0 L387.3 496.0 L387.3 496.2 L387.4 496.2 L387.4 496.0 L387.4 495.8 L387.4 495.6 L387.4 495.5 L387.4 495.3 L387.4 495.1 L387.4 494.9 L387.4 494.7 L387.4 494.5 L387.4 494.3 L387.4 494.1 L387.4 493.9 L387.3 493.9 L387.1 493.9 L386.9 493.9 L386.9 493.8 L386.9 493.6 L386.7 493.6 L386.7 493.4 L386.5 493.4 L386.4 493.4 L386.2 493.4 L386.2 493.6 L386.4 493.6 Z" fill="#2f8f83" fill-opacity="0.34" stroke="#0e5b52" stroke-width="1.6" />
  <path d="M623.5 524.4 L623.5 524.6 L623.5 524.8 L623.5 525.0 L623.5 525.2 L623.5 525.4 L623.5 525.5 L623.5 525.7 L623.5 525.9 L623.5 526.1 L623.5 526.3 L623.5 526.5 L623.6 526.5 L623.8 526.5 L624.0 526.5 L624.2 526.5 L624.4 526.5 L624.6 526.5 L624.7 526.5 L624.9 526.5 L624.9 526.3 L624.9 526.1 L624.9 525.9 L624.9 525.7 L624.9 525.5 L624.9 525.4 L624.9 525.2 L624.9 525.0 L624.9 524.8 L624.9 524.6 L624.9 524.4 L624.9 524.2 L624.7 524.2 L624.6 524.2 L624.4 524.2 L624.2 524.2 L624.0 524.2 L623.8 524.2 L623.6 524.2 L623.5 524.2 L623.5 524.4 Z" fill="#2f8f83" fill-opacity="0.34" stroke="#0e5b52" stroke-width="1.6" />
  <path d="M623.5 523.1 L623.5 523.3 L623.5 523.5 L623.5 523.7 L623.5 523.9 L623.5 524.1 L623.5 524.2 L623.6 524.2 L623.8 524.2 L624.0 524.2 L624.2 524.2 L624.4 524.2 L624.6 524.2 L624.7 524.2 L624.9 524.2 L624.9 524.1 L624.9 523.9 L624.9 523.7 L624.9 523.5 L624.9 523.3 L624.9 523.1 L624.9 522.9 L624.7 522.9 L624.6 522.9 L624.4 522.9 L624.2 522.9 L624.0 522.9 L623.8 522.9 L623.6 522.9 L623.5 522.9 L623.5 523.1 Z" fill="#2f8f83" fill-opacity="0.34" stroke="#0e5b52" stroke-width="1.6" />
  <path d="M721.5 485.6 L721.5 485.8 L721.7 485.8 L721.7 486.0 L721.7 486.2 L721.7 486.4 L721.9 486.4 L722.0 486.4 L722.0 486.6 L722.0 486.8 L722.0 487.0 L722.0 487.1 L722.2 487.1 L722.2 487.3 L722.2 487.5 L722.2 487.7 L722.4 487.7 L722.4 487.9 L722.6 487.9 L722.6 488.1 L722.6 488.3 L722.6 488.5 L722.8 488.5 L722.8 488.7 L722.8 488.8 L722.8 489.0 L722.8 489.2 L722.8 489.4 L722.8 489.6 L722.8 489.8 L722.6 489.8 L722.6 490.0 L722.6 490.2 L722.6 490.4 L722.8 490.4 L723.0 490.4 L723.1 490.4 L723.3 490.4 L723.5 490.4 L723.5 490.2 L723.5 490.0 L723.5 489.8 L723.5 489.6 L723.5 489.4 L723.5 489.2 L723.5 489.0 L723.5 488.8 L723.5 488.7 L723.5 488.5 L723.5 488.3 L723.5 488.1 L723.5 487.9 L723.3 487.9 L723.3 487.7 L723.1 487.7 L723.1 487.5 L723.0 487.5 L723.0 487.3 L723.0 487.1 L722.8 487.1 L722.8 487.0 L722.8 486.8 L722.6 486.8 L722.6 486.6 L722.6 486.4 L722.6 486.2 L722.4 486.2 L722.2 486.2 L722.0 486.2 L721.9 486.2 L721.9 486.0 L721.9 485.8 L721.9 485.6 L721.7 485.6 L721.7 485.4 L721.5 485.4 L721.5 485.6 Z" fill="#2f8f83" fill-opacity="0.34" stroke="#0e5b52" stroke-width="1.6" />
  <path d="M499.5 460.7 L499.5 460.9 L499.6 460.9 L499.8 460.9 L499.8 461.1 L499.8 461.3 L500.0 461.3 L500.2 461.3 L500.4 461.3 L500.4 461.5 L500.5 461.5 L500.7 461.5 L500.7 461.7 L500.7 461.9 L500.7 462.1 L500.7 462.3 L500.9 462.3 L501.1 462.3 L501.1 462.5 L501.3 462.5 L501.5 462.5 L501.5 462.6 L501.6 462.6 L501.8 462.6 L501.8 462.8 L502.0 462.8 L502.2 462.8 L502.2 463.0 L502.4 463.0 L502.5 463.0 L502.5 463.2 L502.7 463.2 L502.7 463.4 L502.9 463.4 L503.1 463.4 L503.3 463.4 L503.5 463.4 L503.6 463.4 L503.8 463.4 L503.8 463.6 L503.8 463.8 L503.8 464.0 L503.8 464.2 L503.8 464.4 L504.0 464.4 L504.2 464.4 L504.4 464.4 L504.5 464.4 L504.7 464.4 L504.9 464.4 L505.1 464.4 L505.1 464.6 L505.3 464.6 L505.5 464.6 L505.5 464.4 L505.5 464.2 L505.3 464.2 L505.1 464.2 L504.9 464.2 L504.7 464.2 L504.5 464.2 L504.4 464.2 L504.2 464.2 L504.0 464.2 L504.0 464.0 L504.0 463.8 L504.0 463.6 L504.0 463.4 L504.0 463.2 L503.8 463.2 L503.6 463.2 L503.5 463.2 L503.3 463.2 L503.1 463.2 L502.9 463.2 L502.9 463.0 L502.9 462.8 L502.9 462.6 L502.9 462.5 L502.9 462.3 L502.9 462.1 L502.7 462.1 L502.5 462.1 L502.4 462.1 L502.2 462.1 L502.2 462.3 L502.2 462.5 L502.0 462.5 L501.8 462.5 L501.8 462.3 L501.8 462.1 L501.8 461.9 L501.8 461.7 L501.6 461.7 L501.6 461.5 L501.5 461.5 L501.5 461.3 L501.3 461.3 L501.3 461.1 L501.1 461.1 L501.1 461.3 L500.9 461.3 L500.7 461.3 L500.7 461.1 L500.5 461.1 L500.5 460.9 L500.4 460.9 L500.2 460.9 L500.2 460.7 L500.0 460.7 L500.0 460.5 L499.8 460.5 L499.6 460.5 L499.5 460.5 L499.5 460.7 Z" fill="#2f8f83" fill-opacity="0.34" stroke="#0e5b52" stroke-width="1.6" />
  <path d="M377.1 164.5 L377.1 164.7 L377.3 164.7 L377.4 164.7 L377.4 164.5 L377.6 164.5 L377.6 164.3 L377.6 164.1 L377.8 164.1 L377.8 163.8 L378.0 163.8 L378.0 163.6 L378.2 163.6 L378.2 163.4 L378.2 163.2 L378.2 162.9 L378.0 162.9 L377.8 162.9 L377.6 162.9 L377.4 162.9 L377.3 162.9 L377.1 162.9 L377.1 163.2 L377.1 163.4 L377.1 163.6 L377.1 163.8 L377.1 164.1 L377.1 164.3 L377.1 164.5 Z" fill="#2f8f83" fill-opacity="0.34" stroke="#0e5b52" stroke-width="1.6" />
  <path d="M505.3 463.0 L505.3 463.2 L505.3 463.4 L505.3 463.6 L505.3 463.8 L505.5 463.8 L505.5 464.0 L505.5 464.2 L505.5 464.4 L505.5 464.6 L505.3 464.6 L505.3 464.7 L505.5 464.7 L505.5 464.9 L505.5 465.1 L505.5 465.3 L505.5 465.5 L505.5 465.7 L505.5 465.9 L505.6 465.9 L505.8 465.9 L506.0 465.9 L506.2 465.9 L506.4 465.9 L506.5 465.9 L506.5 465.7 L506.5 465.5 L506.5 465.3 L506.5 465.1 L506.5 464.9 L506.5 464.7 L506.5 464.6 L506.5 464.4 L506.5 464.2 L506.5 464.0 L506.5 463.8 L506.7 463.8 L506.9 463.8 L506.9 463.6 L506.7 463.6 L506.5 463.6 L506.4 463.6 L506.4 463.4 L506.4 463.2 L506.4 463.0 L506.4 462.8 L506.2 462.8 L506.0 462.8 L505.8 462.8 L505.6 462.8 L505.5 462.8 L505.3 462.8 L505.3 463.0 Z" fill="#2f8f83" fill-opacity="0.34" stroke="#0e5b52" stroke-width="1.6" />
  <path d="M374.9 166.3 L374.9 166.5 L375.1 166.5 L375.3 166.5 L375.4 166.5 L375.6 166.5 L375.8 166.5 L376.0 166.5 L376.2 166.5 L376.2 166.3 L376.2 166.0 L376.2 165.8 L376.2 165.6 L376.4 165.6 L376.4 165.4 L376.5 165.4 L376.7 165.4 L376.7 165.2 L376.7 164.9 L376.9 164.9 L377.1 164.9 L377.1 164.7 L376.9 164.7 L376.7 164.7 L376.5 164.7 L376.5 164.9 L376.5 165.2 L376.4 165.2 L376.2 165.2 L376.2 165.4 L376.0 165.4 L375.8 165.4 L375.6 165.4 L375.4 165.4 L375.3 165.4 L375.1 165.4 L374.9 165.4 L374.9 165.6 L374.9 165.8 L374.9 166.0 L374.9 166.3 Z" fill="#2f8f83" fill-opacity="0.34" stroke="#0e5b52" stroke-width="1.6" />
  <path d="M507.1 466.1 L507.1 466.3 L507.3 466.3 L507.4 466.3 L507.4 466.5 L507.6 466.5 L507.6 466.3 L507.6 466.1 L507.6 465.9 L507.4 465.9 L507.3 465.9 L507.1 465.9 L507.1 466.1 Z" fill="#2f8f83" fill-opacity="0.34" stroke="#0e5b52" stroke-width="1.6" />
  <path d="M508.0 465.3 L507.8 465.3 L507.8 465.5 L508.0 465.5 L508.2 465.5 L508.4 465.5 L508.4 465.3 L508.2 465.3 L508.0 465.3 Z" fill="#2f8f83" fill-opacity="0.34" stroke="#0e5b52" stroke-width="1.6" />
  <path d="M507.1 464.4 L506.9 464.4 L506.9 464.6 L507.1 464.6 L507.3 464.6 L507.3 464.7 L507.4 464.7 L507.6 464.7 L507.8 464.7 L507.8 464.9 L507.8 465.1 L507.8 465.3 L508.0 465.3 L508.0 465.1 L508.2 465.1 L508.4 465.1 L508.4 464.9 L508.2 464.9 L508.0 464.9 L508.0 464.7 L508.0 464.6 L507.8 464.6 L507.6 464.6 L507.4 464.6 L507.4 464.4 L507.3 464.4 L507.1 464.4 Z" fill="#2f8f83" fill-opacity="0.34" stroke="#0e5b52" stroke-width="1.6" />
  <path d="M507.4 466.3 L507.3 466.3 L507.3 466.5 L507.4 466.5 L507.4 466.3 Z" fill="#2f8f83" fill-opacity="0.34" stroke="#0e5b52" stroke-width="1.6" />
  <path d="M506.7 464.0 L506.7 464.2 L506.7 464.4 L506.7 464.6 L506.7 464.7 L506.9 464.7 L506.9 464.6 L506.9 464.4 L506.9 464.2 L506.9 464.0 L506.9 463.8 L506.7 463.8 L506.7 464.0 Z" fill="#2f8f83" fill-opacity="0.34" stroke="#0e5b52" stroke-width="1.6" />
  <path d="M506.9 464.2 L506.9 464.4 L507.1 464.4 L507.1 464.2 L507.1 464.0 L506.9 464.0 L506.9 464.2 Z" fill="#2f8f83" fill-opacity="0.34" stroke="#0e5b52" stroke-width="1.6" />
  <path d="M506.5 464.0 L506.5 464.2 L506.5 464.4 L506.5 464.6 L506.5 464.7 L506.5 464.9 L506.5 465.1 L506.5 465.3 L506.5 465.5 L506.5 465.7 L506.5 465.9 L506.7 465.9 L506.9 465.9 L507.1 465.9 L507.3 465.9 L507.4 465.9 L507.6 465.9 L507.8 465.9 L508.0 465.9 L508.2 465.9 L508.4 465.9 L508.5 465.9 L508.5 465.7 L508.5 465.5 L508.5 465.3 L508.5 465.1 L508.5 464.9 L508.5 464.7 L508.5 464.6 L508.4 464.6 L508.2 464.6 L508.0 464.6 L508.0 464.7 L508.0 464.9 L508.2 464.9 L508.4 464.9 L508.4 465.1 L508.2 465.1 L508.2 465.3 L508.4 465.3 L508.4 465.5 L508.2 465.5 L508.0 465.5 L507.8 465.5 L507.8 465.3 L507.8 465.1 L507.8 464.9 L507.8 464.7 L507.6 464.7 L507.4 464.7 L507.3 464.7 L507.3 464.6 L507.1 464.6 L506.9 464.6 L506.9 464.7 L506.7 464.7 L506.7 464.6 L506.7 464.4 L506.7 464.2 L506.7 464.0 L506.7 463.8 L506.5 463.8 L506.5 464.0 Z" fill="#2f8f83" fill-opacity="0.34" stroke="#0e5b52" stroke-width="1.6" />
  <path d="M498.7 460.7 L498.7 460.9 L498.9 460.9 L498.9 460.7 L498.9 460.5 L498.7 460.5 L498.7 460.7 Z" fill="#2f8f83" fill-opacity="0.34" stroke="#0e5b52" stroke-width="1.6" />
  <path d="M376.9 165.2 L377.1 165.2 L377.3 165.2 L377.3 164.9 L377.4 164.9 L377.6 164.9 L377.8 164.9 L378.0 164.9 L378.0 164.7 L378.2 164.7 L378.4 164.7 L378.5 164.7 L378.5 164.5 L378.7 164.5 L378.9 164.5 L379.1 164.5 L379.1 164.3 L379.3 164.3 L379.4 164.3 L379.4 164.1 L379.6 164.1 L379.8 164.1 L380.0 164.1 L380.2 164.1 L380.4 164.1 L380.5 164.1 L380.5 163.8 L380.5 163.6 L380.5 163.4 L380.5 163.2 L380.5 162.9 L380.4 162.9 L380.2 162.9 L380.0 162.9 L379.8 162.9 L379.6 162.9 L379.4 162.9 L379.3 162.9 L379.1 162.9 L378.9 162.9 L378.7 162.9 L378.5 162.9 L378.4 162.9 L378.2 162.9 L378.2 163.2 L378.2 163.4 L378.2 163.6 L378.0 163.6 L378.0 163.8 L377.8 163.8 L377.8 164.1 L377.6 164.1 L377.6 164.3 L377.6 164.5 L377.4 164.5 L377.4 164.7 L377.3 164.7 L377.1 164.7 L377.1 164.9 L376.9 164.9 L376.7 164.9 L376.7 165.2 L376.9 165.2 Z" fill="#2f8f83" fill-opacity="0.34" stroke="#0e5b52" stroke-width="1.6" />
  <path d="M343.0 462.8 L343.0 463.0 L343.1 463.0 L343.3 463.0 L343.5 463.0 L343.7 463.0 L343.9 463.0 L344.0 463.0 L344.2 463.0 L344.4 463.0 L344.4 462.8 L344.6 462.8 L344.8 462.8 L345.0 462.8 L345.1 462.8 L345.3 462.8 L345.5 462.8 L345.7 462.8 L345.9 462.8 L346.0 462.8 L346.2 462.8 L346.4 462.8 L346.4 462.6 L346.4 462.5 L346.4 462.3 L346.4 462.1 L346.4 461.9 L346.2 461.9 L346.2 462.1 L346.0 462.1 L345.9 462.1 L345.7 462.1 L345.5 462.1 L345.3 462.1 L345.1 462.1 L345.0 462.1 L344.8 462.1 L344.6 462.1 L344.4 462.1 L344.2 462.1 L344.0 462.1 L343.9 462.1 L343.7 462.1 L343.5 462.1 L343.3 462.1 L343.1 462.1 L343.0 462.1 L343.0 462.3 L343.0 462.5 L343.0 462.6 L343.0 462.8 Z" fill="#2f8f83" fill-opacity="0.34" stroke="#0e5b52" stroke-width="1.6" />
  <!-- title strip -->
  <rect x="0" y="0" width="1000" height="54" fill="#173042" />
  <text x="20" y="34" font-size="21" font-weight="bold" fill="#ffffff">Coast Copper Corp. — Mineral Claims</text>
  <text x="980" y="34" font-size="15" fill="#cfe3df" text-anchor="end">COCO</text>
  <!-- scale bar -->
  <g transform="translate(910, 596)">
    <rect x="0" y="0" width="25" height="8" fill="#173042" />
    <rect x="25" y="0" width="25" height="8" fill="#ffffff" stroke="#173042" stroke-width="1" />
    <text x="25" y="-6" font-size="12" fill="#173042" text-anchor="middle">50 km</text>
  </g>
  <!-- north arrow -->
  <g transform="translate(956, 92)">
    <circle r="17" fill="#ffffff" stroke="#b9b09a" />
    <path d="M0 -10 L5 7 L0 3 L-5 7 Z" fill="#173042" />
    <text y="14" font-size="9" font-weight="bold" fill="#173042" text-anchor="middle">N</text>
  </g>
  <!-- watermark -->
  <text x="20" y="620" font-size="13" fill="#7d8b8a">Map by Exploration Maps — explorationmaps.com</text>
</svg>