<svg xmlns="http://www.w3.org/2000/svg" viewBox="0 0 1000 640" font-family="Arial, Helvetica, sans-serif">
  <rect width="1000" height="640" fill="#f3efe6" />
  <line x1="200" y1="0" x2="200" y2="640" stroke="#d9d2c0" stroke-width="0.7" />
  <line x1="0" y1="128" x2="1000" y2="128" stroke="#d9d2c0" stroke-width="0.7" />
  <line x1="400" y1="0" x2="400" y2="640" stroke="#d9d2c0" stroke-width="0.7" />
  <line x1="0" y1="256" x2="1000" y2="256" stroke="#d9d2c0" stroke-width="0.7" />
  <line x1="600" y1="0" x2="600" y2="640" stroke="#d9d2c0" stroke-width="0.7" />
  <line x1="0" y1="384" x2="1000" y2="384" stroke="#d9d2c0" stroke-width="0.7" />
  <line x1="800" y1="0" x2="800" y2="640" stroke="#d9d2c0" stroke-width="0.7" />
  <line x1="0" y1="512" x2="1000" y2="512" stroke="#d9d2c0" stroke-width="0.7" />
  <path d="M632.2 497.8 L632.2 497.8 L632.2 497.8 L632.2 497.8 L631.8 497.6 L631.8 497.6 L631.2 497.6 L631.2 498.1 L632.2 497.8 L632.5 498.7 L632.2 498.8 L632.6 498.9 L632.4 499.8 L633.6 499.8 L634.0 499.8 L634.1 499.8 L634.1 499.8 L634.2 499.8 L634.1 499.3 L634.1 499.3 L634.1 499.3 L634.1 499.3 L633.9 498.3 L633.9 498.3 L633.9 498.3 L634.0 498.3 L633.9 497.9 L633.8 497.9 L633.4 498.2 L633.4 498.2 L633.2 497.8 L633.2 497.8 L633.2 497.9 L633.1 498.1 L633.1 498.1 L632.2 497.8 Z" fill="#2f8f83" fill-opacity="0.34" stroke="#0e5b52" stroke-width="1.6" />
  <path d="M631.9 499.8 L631.4 499.6 L631.2 499.5 L631.2 499.8 L631.9 499.8 Z" fill="#2f8f83" fill-opacity="0.34" stroke="#0e5b52" stroke-width="1.6" />
  <path d="M633.6 500.9 L633.6 499.8 L632.4 499.8 L632.3 499.9 L631.9 499.8 L631.2 499.8 L629.3 499.8 L629.3 501.5 L629.4 501.5 L629.4 503.4 L629.4 503.4 L629.3 503.7 L629.3 504.2 L629.4 504.2 L629.4 504.8 L629.3 504.8 L629.3 504.9 L633.6 504.9 L633.6 500.9 Z M631.1 503.4 L631.1 503.4 L631.2 503.6 L631.4 503.7 L631.3 503.9 L630.7 504.5 L630.7 504.5 L630.3 504.0 L630.4 503.6 L630.4 503.6 L631.1 503.4 Z" fill="#2f8f83" fill-opacity="0.34" stroke="#0e5b52" stroke-width="1.6" />
  <path d="M637.9 500.3 L637.9 499.8 L637.9 499.7 L637.9 499.6 L637.9 500.2 L637.9 500.2 L637.7 500.2 L637.2 500.3 L637.2 500.2 L637.0 500.2 L637.3 501.0 L638.0 500.7 L637.9 500.4 L637.9 500.3 Z" fill="#2f8f83" fill-opacity="0.34" stroke="#0e5b52" stroke-width="1.6" />
  <path d="M636.9 500.0 L636.9 500.0 L636.9 500.0 L636.9 500.0 Z" fill="#2f8f83" fill-opacity="0.34" stroke="#0e5b52" stroke-width="1.6" />
  <path d="M627.4 497.8 L627.4 497.6 L626.4 497.6 L626.5 498.7 L627.1 498.7 L627.0 498.2 L626.9 498.1 L626.9 497.8 L627.4 497.8 Z" fill="#2f8f83" fill-opacity="0.34" stroke="#0e5b52" stroke-width="1.6" />
  <path d="M627.3 496.8 L627.3 496.5 L626.4 496.6 L626.4 497.6 L627.4 497.6 L627.4 497.1 L627.3 496.8 Z" fill="#2f8f83" fill-opacity="0.34" stroke="#0e5b52" stroke-width="1.6" />
  <path d="M634.8 501.4 L634.4 501.1 L633.6 501.8 L634.4 502.6 L635.2 501.8 L634.8 501.4 Z" fill="#2f8f83" fill-opacity="0.34" stroke="#0e5b52" stroke-width="1.6" />
  <path d="M636.2 501.4 L635.4 500.7 L634.8 501.4 L635.2 501.8 L635.6 502.2 L636.2 501.4 Z" fill="#2f8f83" fill-opacity="0.34" stroke="#0e5b52" stroke-width="1.6" />
  <path d="M633.2 497.8 L632.2 497.8 L632.2 498.8 L633.2 498.8 L633.2 497.8 Z" fill="#2f8f83" fill-opacity="0.34" stroke="#0e5b52" stroke-width="1.6" />
  <path d="M636.1 515.6 L636.1 516.6 L637.1 516.6 L638.0 516.6 L639.0 516.6 L640.0 516.6 L640.9 516.6 L640.9 515.6 L640.9 514.6 L640.0 514.6 L639.0 514.6 L638.0 514.6 L637.1 514.6 L636.1 514.6 L636.1 515.6 Z" fill="#2f8f83" fill-opacity="0.34" stroke="#0e5b52" stroke-width="1.6" />
  <path d="M633.2 518.6 L633.2 519.6 L633.2 520.6 L633.2 521.6 L633.2 522.5 L634.2 522.5 L635.1 522.5 L636.1 522.5 L637.1 522.5 L638.0 522.5 L638.0 521.6 L638.0 520.6 L638.0 519.6 L638.0 518.6 L637.1 518.6 L636.1 518.6 L635.1 518.6 L635.1 517.6 L634.2 517.6 L633.2 517.6 L633.2 518.6 Z" fill="#2f8f83" fill-opacity="0.34" stroke="#0e5b52" stroke-width="1.6" />
  <path d="M632.2 511.7 L632.2 512.7 L632.2 513.6 L632.2 514.6 L632.2 515.6 L633.2 515.6 L634.2 515.6 L635.1 515.6 L635.1 514.6 L635.1 513.6 L635.1 512.7 L636.1 512.7 L637.1 512.7 L638.0 512.7 L639.0 512.7 L640.0 512.7 L640.9 512.7 L640.9 511.7 L640.9 510.7 L640.0 510.7 L639.0 510.7 L638.0 510.7 L637.1 510.7 L636.1 510.7 L635.1 510.7 L634.2 510.7 L633.2 510.7 L632.2 510.7 L632.2 511.7 Z" fill="#2f8f83" fill-opacity="0.34" stroke="#0e5b52" stroke-width="1.6" />
  <path d="M633.2 515.6 L632.2 515.6 L632.2 516.6 L633.2 516.6 L633.2 517.6 L634.2 517.6 L635.1 517.6 L635.1 518.6 L636.1 518.6 L637.1 518.6 L638.0 518.6 L638.0 519.6 L638.0 520.6 L639.0 520.6 L640.0 520.6 L640.9 520.6 L641.9 520.6 L642.9 520.6 L643.8 520.6 L643.8 519.6 L643.8 518.6 L643.8 517.6 L643.8 516.6 L643.8 515.6 L643.8 514.6 L642.9 514.6 L641.9 514.6 L641.9 513.6 L641.9 512.7 L640.9 512.7 L640.0 512.7 L639.0 512.7 L638.0 512.7 L637.1 512.7 L636.1 512.7 L635.1 512.7 L635.1 513.6 L635.1 514.6 L635.1 515.6 L634.2 515.6 L633.2 515.6 Z M636.1 514.6 L637.1 514.6 L638.0 514.6 L639.0 514.6 L640.0 514.6 L640.9 514.6 L640.9 515.6 L640.9 516.6 L640.0 516.6 L639.0 516.6 L638.0 516.6 L637.1 516.6 L636.1 516.6 L636.1 515.6 L636.1 514.6 Z" fill="#2f8f83" fill-opacity="0.34" stroke="#0e5b52" stroke-width="1.6" />
  <path d="M643.8 516.6 L643.8 517.6 L644.8 517.6 L645.8 517.6 L646.7 517.6 L646.7 516.6 L646.7 515.6 L645.8 515.6 L644.8 515.6 L643.8 515.6 L643.8 516.6 Z" fill="#2f8f83" fill-opacity="0.34" stroke="#0e5b52" stroke-width="1.6" />
  <path d="M642.9 513.6 L641.9 513.6 L641.9 514.6 L642.9 514.6 L643.8 514.6 L643.8 513.6 L642.9 513.6 Z" fill="#2f8f83" fill-opacity="0.34" stroke="#0e5b52" stroke-width="1.6" />
  <path d="M644.8 514.6 L644.8 515.6 L645.8 515.6 L646.7 515.6 L646.7 514.6 L646.7 513.6 L645.8 513.6 L644.8 513.6 L644.8 514.6 Z" fill="#2f8f83" fill-opacity="0.34" stroke="#0e5b52" stroke-width="1.6" />
  <path d="M643.8 518.6 L643.8 519.6 L643.8 520.6 L644.8 520.6 L645.8 520.6 L646.7 520.6 L647.7 520.6 L648.7 520.6 L648.7 521.6 L649.6 521.6 L649.6 520.6 L649.6 519.6 L649.6 518.6 L648.7 518.6 L648.7 517.6 L647.7 517.6 L647.7 516.6 L647.7 515.6 L646.7 515.6 L646.7 516.6 L646.7 517.6 L645.8 517.6 L644.8 517.6 L643.8 517.6 L643.8 518.6 Z" fill="#2f8f83" fill-opacity="0.34" stroke="#0e5b52" stroke-width="1.6" />
  <path d="M629.3 513.6 L629.3 514.6 L629.3 515.6 L629.3 516.6 L629.3 517.6 L630.3 517.6 L631.2 517.6 L632.2 517.6 L633.2 517.6 L633.2 516.6 L632.2 516.6 L632.2 515.6 L632.2 514.6 L632.2 513.6 L632.2 512.7 L631.2 512.7 L630.3 512.7 L629.3 512.7 L629.3 513.6 Z" fill="#2f8f83" fill-opacity="0.34" stroke="#0e5b52" stroke-width="1.6" />
  <path d="M611.9 482.9 L611.9 483.9 L612.8 483.9 L613.8 483.9 L613.8 484.9 L613.8 485.9 L613.8 486.9 L614.8 486.9 L615.7 486.9 L616.7 486.9 L617.7 486.9 L617.7 485.9 L617.7 484.9 L617.7 483.9 L617.7 482.9 L618.7 482.9 L619.6 482.9 L619.6 482.0 L619.6 481.0 L619.6 480.0 L619.6 479.0 L619.6 478.0 L619.6 477.0 L619.6 476.0 L619.6 475.0 L619.6 474.0 L619.6 473.0 L619.6 472.0 L619.6 471.0 L619.6 470.0 L619.6 469.1 L619.6 468.1 L618.7 468.1 L617.7 468.1 L616.7 468.1 L615.7 468.1 L614.8 468.1 L614.8 469.1 L614.8 470.0 L614.8 471.0 L614.8 472.0 L614.8 473.0 L614.8 474.0 L614.8 475.0 L614.8 476.0 L614.8 477.0 L614.8 478.0 L614.8 479.0 L613.8 479.0 L613.8 480.0 L613.8 481.0 L612.8 481.0 L612.8 482.0 L611.9 482.0 L611.9 482.9 Z" fill="#2f8f83" fill-opacity="0.34" stroke="#0e5b52" stroke-width="1.6" />
  <path d="M613.8 487.9 L613.8 488.9 L613.8 489.9 L613.8 490.9 L613.8 491.9 L613.8 492.9 L614.8 492.9 L615.7 492.9 L615.7 491.9 L615.7 490.9 L615.7 489.9 L616.7 489.9 L617.7 489.9 L617.7 488.9 L617.7 487.9 L617.7 486.9 L616.7 486.9 L615.7 486.9 L614.8 486.9 L613.8 486.9 L613.8 487.9 Z" fill="#2f8f83" fill-opacity="0.34" stroke="#0e5b52" stroke-width="1.6" />
  <path d="M609.0 478.0 L609.0 479.0 L609.0 480.0 L609.9 480.0 L609.9 481.0 L609.9 482.0 L609.9 482.9 L609.9 483.9 L610.9 483.9 L611.9 483.9 L611.9 482.9 L611.9 482.0 L612.8 482.0 L612.8 481.0 L613.8 481.0 L613.8 480.0 L613.8 479.0 L614.8 479.0 L614.8 478.0 L614.8 477.0 L613.8 477.0 L612.8 477.0 L611.9 477.0 L610.9 477.0 L609.9 477.0 L609.0 477.0 L609.0 478.0 Z" fill="#2f8f83" fill-opacity="0.34" stroke="#0e5b52" stroke-width="1.6" />
  <path d="M619.6 466.1 L619.6 467.1 L619.6 468.1 L619.6 469.1 L619.6 470.0 L619.6 471.0 L619.6 472.0 L619.6 473.0 L619.6 474.0 L619.6 475.0 L619.6 476.0 L619.6 477.0 L619.6 478.0 L619.6 479.0 L619.6 480.0 L619.6 481.0 L619.6 482.0 L619.6 482.9 L620.6 482.9 L621.6 482.9 L622.5 482.9 L622.5 483.9 L623.5 483.9 L624.5 483.9 L625.4 483.9 L626.4 483.9 L627.4 483.9 L628.3 483.9 L629.3 483.9 L629.3 482.9 L628.3 482.9 L627.4 482.9 L627.4 482.0 L627.4 481.0 L628.3 481.0 L629.3 481.0 L629.3 480.0 L630.3 480.0 L630.3 479.0 L629.3 479.0 L628.3 479.0 L627.4 479.0 L626.4 479.0 L625.4 479.0 L624.5 479.0 L623.5 479.0 L623.5 478.0 L623.5 477.0 L623.5 476.0 L623.5 475.0 L623.5 474.0 L622.5 474.0 L621.6 474.0 L620.6 474.0 L620.6 473.0 L620.6 472.0 L620.6 471.0 L620.6 470.0 L620.6 469.1 L621.6 469.1 L621.6 468.1 L622.5 468.1 L622.5 467.1 L623.5 467.1 L624.5 467.1 L624.5 466.1 L624.5 465.1 L623.5 465.1 L622.5 465.1 L621.6 465.1 L620.6 465.1 L619.6 465.1 L619.6 466.1 Z" fill="#2f8f83" fill-opacity="0.34" stroke="#0e5b52" stroke-width="1.6" />
  <path d="M640.9 508.7 L640.0 508.7 L640.0 509.7 L640.9 509.7 L641.9 509.7 L641.9 508.7 L640.9 508.7 Z" fill="#2f8f83" fill-opacity="0.34" stroke="#0e5b52" stroke-width="1.6" />
  <path d="M344.5 120.4 L344.5 121.4 L344.5 122.4 L345.5 122.4 L346.5 122.4 L347.4 122.4 L348.4 122.4 L349.4 122.4 L349.4 121.4 L349.4 120.4 L349.4 119.3 L348.4 119.3 L347.4 119.3 L346.5 119.3 L345.5 119.3 L344.5 119.3 L344.5 120.4 Z" fill="#2f8f83" fill-opacity="0.34" stroke="#0e5b52" stroke-width="1.6" />
  <path d="M615.7 490.9 L615.7 491.9 L615.7 492.9 L616.7 492.9 L616.7 491.9 L616.7 490.9 L617.7 490.9 L618.7 490.9 L618.7 489.9 L617.7 489.9 L616.7 489.9 L615.7 489.9 L615.7 490.9 Z" fill="#2f8f83" fill-opacity="0.34" stroke="#0e5b52" stroke-width="1.6" />
  <path d="M616.7 491.9 L616.7 492.9 L617.7 492.9 L618.7 492.9 L618.7 491.9 L618.7 490.9 L617.7 490.9 L616.7 490.9 L616.7 491.9 Z" fill="#2f8f83" fill-opacity="0.34" stroke="#0e5b52" stroke-width="1.6" />
  <path d="M618.7 491.9 L618.7 492.9 L619.6 492.9 L619.6 491.9 L619.6 490.9 L618.7 490.9 L618.7 491.9 Z" fill="#2f8f83" fill-opacity="0.34" stroke="#0e5b52" stroke-width="1.6" />
  <path d="M644.8 511.7 L644.8 512.7 L645.8 512.7 L646.7 512.7 L646.7 513.6 L646.7 514.6 L646.7 515.6 L647.7 515.6 L647.7 514.6 L647.7 513.6 L647.7 512.7 L647.7 511.7 L647.7 510.7 L646.7 510.7 L645.8 510.7 L644.8 510.7 L644.8 511.7 Z" fill="#2f8f83" fill-opacity="0.34" stroke="#0e5b52" stroke-width="1.6" />
  <path d="M646.7 508.7 L646.7 509.7 L646.7 510.7 L647.7 510.7 L648.7 510.7 L649.6 510.7 L649.6 509.7 L649.6 508.7 L649.6 507.7 L648.7 507.7 L647.7 507.7 L646.7 507.7 L646.7 508.7 Z" fill="#2f8f83" fill-opacity="0.34" stroke="#0e5b52" stroke-width="1.6" />
  <path d="M646.7 505.7 L646.7 506.7 L646.7 507.7 L647.7 507.7 L648.7 507.7 L649.6 507.7 L649.6 506.7 L649.6 505.7 L649.6 504.7 L648.7 504.7 L647.7 504.7 L646.7 504.7 L646.7 505.7 Z" fill="#2f8f83" fill-opacity="0.34" stroke="#0e5b52" stroke-width="1.6" />
  <path d="M647.7 498.8 L647.7 499.8 L647.7 500.8 L647.7 501.8 L648.7 501.8 L649.6 501.8 L650.6 501.8 L651.6 501.8 L651.6 500.8 L650.6 500.8 L650.6 499.8 L650.6 498.8 L649.6 498.8 L649.6 497.8 L648.7 497.8 L647.7 497.8 L647.7 498.8 Z" fill="#2f8f83" fill-opacity="0.34" stroke="#0e5b52" stroke-width="1.6" />
  <path d="M649.6 502.8 L649.6 503.7 L649.6 504.7 L650.6 504.7 L651.6 504.7 L652.6 504.7 L653.5 504.7 L654.5 504.7 L654.5 503.7 L653.5 503.7 L653.5 502.8 L652.6 502.8 L652.6 501.8 L651.6 501.8 L650.6 501.8 L649.6 501.8 L649.6 502.8 Z" fill="#2f8f83" fill-opacity="0.34" stroke="#0e5b52" stroke-width="1.6" />
  <path d="M649.6 505.7 L649.6 506.7 L650.6 506.7 L651.6 506.7 L652.6 506.7 L653.5 506.7 L654.5 506.7 L655.5 506.7 L655.5 505.7 L654.5 505.7 L654.5 504.7 L653.5 504.7 L652.6 504.7 L651.6 504.7 L650.6 504.7 L649.6 504.7 L649.6 505.7 Z" fill="#2f8f83" fill-opacity="0.34" stroke="#0e5b52" stroke-width="1.6" />
  <path d="M646.7 502.8 L646.7 503.7 L646.7 504.7 L647.7 504.7 L648.7 504.7 L649.6 504.7 L649.6 503.7 L649.6 502.8 L649.6 501.8 L648.7 501.8 L647.7 501.8 L646.7 501.8 L646.7 502.8 Z" fill="#2f8f83" fill-opacity="0.34" stroke="#0e5b52" stroke-width="1.6" />
  <path d="M649.6 507.7 L649.6 508.7 L650.6 508.7 L651.6 508.7 L652.6 508.7 L653.5 508.7 L654.5 508.7 L654.5 507.7 L655.5 507.7 L655.5 506.7 L654.5 506.7 L653.5 506.7 L652.6 506.7 L651.6 506.7 L650.6 506.7 L649.6 506.7 L649.6 507.7 Z" fill="#2f8f83" fill-opacity="0.34" stroke="#0e5b52" stroke-width="1.6" />
  <path d="M631.2 496.8 L630.3 496.8 L630.3 497.8 L631.2 497.8 L632.2 497.8 L632.2 496.8 L631.2 496.8 Z" fill="#2f8f83" fill-opacity="0.34" stroke="#0e5b52" stroke-width="1.6" />
  <path d="M634.2 499.8 L633.2 499.8 L633.2 500.8 L634.2 500.8 L635.1 500.8 L635.1 499.8 L634.2 499.8 Z" fill="#2f8f83" fill-opacity="0.34" stroke="#0e5b52" stroke-width="1.6" />
  <path d="M636.1 499.8 L635.1 499.8 L635.1 500.8 L636.1 500.8 L637.1 500.8 L637.1 499.8 L636.1 499.8 Z" fill="#2f8f83" fill-opacity="0.34" stroke="#0e5b52" stroke-width="1.6" />
  <path d="M637.1 500.8 L636.1 500.8 L636.1 501.8 L637.1 501.8 L638.0 501.8 L638.0 500.8 L637.1 500.8 Z" fill="#2f8f83" fill-opacity="0.34" stroke="#0e5b52" stroke-width="1.6" />
  <path d="M635.1 503.8 L635.1 504.7 L636.1 504.7 L637.1 504.7 L637.1 503.8 L637.1 502.8 L637.1 501.8 L636.1 501.8 L636.1 502.8 L635.1 502.8 L635.1 503.8 Z" fill="#2f8f83" fill-opacity="0.34" stroke="#0e5b52" stroke-width="1.6" />
  <path d="M635.1 501.8 L634.2 501.8 L634.2 502.8 L635.1 502.8 L636.1 502.8 L636.1 501.8 L635.1 501.8 Z" fill="#2f8f83" fill-opacity="0.34" stroke="#0e5b52" stroke-width="1.6" />
  <path d="M633.2 501.8 L633.2 502.8 L633.2 503.8 L634.2 503.8 L635.1 503.8 L635.1 502.8 L634.2 502.8 L634.2 501.8 L634.2 500.8 L633.2 500.8 L633.2 501.8 Z" fill="#2f8f83" fill-opacity="0.34" stroke="#0e5b52" stroke-width="1.6" />
  <path d="M627.4 499.8 L627.4 500.8 L627.4 501.8 L628.3 501.8 L629.3 501.8 L629.3 500.8 L629.3 499.8 L629.3 498.8 L630.3 498.8 L630.3 497.8 L629.3 497.8 L628.3 497.8 L628.3 498.8 L627.4 498.8 L627.4 499.8 Z" fill="#2f8f83" fill-opacity="0.34" stroke="#0e5b52" stroke-width="1.6" />
  <path d="M625.4 497.8 L624.5 497.8 L624.5 498.8 L625.4 498.8 L625.4 499.8 L625.4 500.8 L626.4 500.8 L627.4 500.8 L627.4 499.8 L627.4 498.8 L627.4 497.8 L626.4 497.8 L626.4 496.8 L625.4 496.8 L625.4 497.8 Z" fill="#2f8f83" fill-opacity="0.34" stroke="#0e5b52" stroke-width="1.6" />
  <path d="M625.4 505.7 L625.4 506.7 L626.4 506.7 L626.4 507.7 L627.4 507.7 L628.3 507.7 L629.3 507.7 L630.3 507.7 L631.2 507.7 L632.2 507.7 L632.2 506.7 L632.2 505.7 L632.2 504.7 L631.2 504.7 L630.3 504.7 L629.3 504.7 L628.3 504.7 L627.4 504.7 L626.4 504.7 L625.4 504.7 L625.4 505.7 Z" fill="#2f8f83" fill-opacity="0.34" stroke="#0e5b52" stroke-width="1.6" />
  <path d="M627.4 508.7 L626.4 508.7 L626.4 509.7 L627.4 509.7 L627.4 510.7 L627.4 511.7 L628.3 511.7 L628.3 512.7 L628.3 513.6 L629.3 513.6 L629.3 512.7 L630.3 512.7 L631.2 512.7 L632.2 512.7 L632.2 511.7 L632.2 510.7 L632.2 509.7 L632.2 508.7 L632.2 507.7 L631.2 507.7 L630.3 507.7 L629.3 507.7 L628.3 507.7 L627.4 507.7 L627.4 508.7 Z" fill="#2f8f83" fill-opacity="0.34" stroke="#0e5b52" stroke-width="1.6" />
  <path d="M630.3 496.8 L629.3 496.8 L629.3 497.8 L630.3 497.8 L630.3 496.8 Z" fill="#2f8f83" fill-opacity="0.34" stroke="#0e5b52" stroke-width="1.6" />
  <path d="M630.3 495.8 L630.3 496.8 L631.2 496.8 L631.2 495.8 L631.2 494.8 L630.3 494.8 L630.3 495.8 Z" fill="#2f8f83" fill-opacity="0.34" stroke="#0e5b52" stroke-width="1.6" />
  <path d="M628.3 497.8 L627.4 497.8 L627.4 498.8 L628.3 498.8 L628.3 497.8 Z" fill="#2f8f83" fill-opacity="0.34" stroke="#0e5b52" stroke-width="1.6" />
  <!-- title strip -->
  <rect x="0" y="0" width="1000" height="54" fill="#173042" />
  <text x="20" y="34" font-size="21" font-weight="bold" fill="#ffffff">Canada One Mining Corp. — Mineral Claims</text>
  <text x="980" y="34" font-size="15" fill="#cfe3df" text-anchor="end">CONE</text>
  <!-- scale bar -->
  <g transform="translate(851.6289018355927, 596)">
    <rect x="0" y="0" width="54.185549082203615" height="8" fill="#173042" />
    <rect x="54.185549082203615" y="0" width="54.185549082203615" height="8" fill="#ffffff" stroke="#173042" stroke-width="1" />
    <text x="54.185549082203615" y="-6" font-size="12" fill="#173042" text-anchor="middle">50 km</text>
  </g>
  <!-- north arrow -->
  <g transform="translate(956, 92)">
    <circle r="17" fill="#ffffff" stroke="#b9b09a" />
    <path d="M0 -10 L5 7 L0 3 L-5 7 Z" fill="#173042" />
    <text y="14" font-size="9" font-weight="bold" fill="#173042" text-anchor="middle">N</text>
  </g>
  <!-- watermark -->
  <text x="20" y="620" font-size="13" fill="#7d8b8a">Map by Exploration Maps — explorationmaps.com</text>
</svg>