<svg xmlns="http://www.w3.org/2000/svg" viewBox="0 0 1000 640" font-family="Arial, Helvetica, sans-serif">
  <rect width="1000" height="640" fill="#f3efe6" />
  <line x1="200" y1="0" x2="200" y2="640" stroke="#d9d2c0" stroke-width="0.7" />
  <line x1="0" y1="128" x2="1000" y2="128" stroke="#d9d2c0" stroke-width="0.7" />
  <line x1="400" y1="0" x2="400" y2="640" stroke="#d9d2c0" stroke-width="0.7" />
  <line x1="0" y1="256" x2="1000" y2="256" stroke="#d9d2c0" stroke-width="0.7" />
  <line x1="600" y1="0" x2="600" y2="640" stroke="#d9d2c0" stroke-width="0.7" />
  <line x1="0" y1="384" x2="1000" y2="384" stroke="#d9d2c0" stroke-width="0.7" />
  <line x1="800" y1="0" x2="800" y2="640" stroke="#d9d2c0" stroke-width="0.7" />
  <line x1="0" y1="512" x2="1000" y2="512" stroke="#d9d2c0" stroke-width="0.7" />
  <path d="M268.3 137.3 L268.3 138.1 L269.0 138.1 L269.6 138.1 L269.6 138.9 L270.3 138.9 L270.9 138.9 L271.6 138.9 L272.2 138.9 L272.9 138.9 L273.5 138.9 L274.2 138.9 L274.2 138.1 L274.8 138.1 L274.8 137.3 L274.8 136.4 L274.2 136.4 L273.5 136.4 L272.9 136.4 L272.2 136.4 L271.6 136.4 L270.9 136.4 L270.3 136.4 L269.6 136.4 L269.0 136.4 L268.3 136.4 L268.3 137.3 Z" fill="#2f8f83" fill-opacity="0.34" stroke="#0e5b52" stroke-width="1.6" />
  <path d="M264.4 135.6 L264.4 136.4 L265.1 136.4 L265.7 136.4 L266.4 136.4 L267.0 136.4 L267.7 136.4 L268.3 136.4 L269.0 136.4 L269.6 136.4 L270.3 136.4 L270.3 135.6 L269.6 135.6 L269.6 134.8 L269.0 134.8 L269.0 134.0 L268.3 134.0 L268.3 133.2 L267.7 133.2 L267.7 132.3 L267.0 132.3 L267.0 131.5 L266.4 131.5 L266.4 130.7 L265.7 130.7 L265.1 130.7 L264.4 130.7 L264.4 131.5 L265.1 131.5 L265.1 132.3 L265.1 133.2 L265.1 134.0 L264.4 134.0 L264.4 134.8 L264.4 135.6 Z" fill="#2f8f83" fill-opacity="0.34" stroke="#0e5b52" stroke-width="1.6" />
  <path d="M266.4 131.5 L267.0 131.5 L267.0 132.3 L267.7 132.3 L267.7 133.2 L268.3 133.2 L268.3 134.0 L269.0 134.0 L269.0 134.8 L269.6 134.8 L269.6 135.6 L270.3 135.6 L270.3 136.4 L270.9 136.4 L271.6 136.4 L272.2 136.4 L272.9 136.4 L273.5 136.4 L273.5 135.6 L272.9 135.6 L272.9 134.8 L272.2 134.8 L272.2 134.0 L271.6 134.0 L271.6 133.2 L270.9 133.2 L270.9 132.3 L270.3 132.3 L269.6 132.3 L269.6 131.5 L269.0 131.5 L268.3 131.5 L268.3 130.7 L267.7 130.7 L267.0 130.7 L266.4 130.7 L266.4 131.5 Z" fill="#2f8f83" fill-opacity="0.34" stroke="#0e5b52" stroke-width="1.6" />
  <path d="M729.7 522.3 L729.7 523.1 L730.4 523.1 L731.0 523.1 L731.7 523.1 L732.3 523.1 L733.0 523.1 L733.6 523.1 L733.6 522.3 L733.6 521.6 L733.0 521.6 L732.3 521.6 L731.7 521.6 L731.7 520.8 L731.7 520.0 L731.7 519.2 L731.7 518.4 L732.3 518.4 L733.0 518.4 L733.6 518.4 L733.6 517.7 L733.6 516.9 L733.6 516.1 L733.0 516.1 L732.3 516.1 L731.7 516.1 L731.0 516.1 L730.4 516.1 L729.7 516.1 L729.7 516.9 L729.7 517.7 L729.7 518.4 L729.7 519.2 L729.7 520.0 L729.7 520.8 L729.7 521.6 L729.7 522.3 Z" fill="#2f8f83" fill-opacity="0.34" stroke="#0e5b52" stroke-width="1.6" />
  <path d="M733.6 522.3 L733.6 523.1 L734.3 523.1 L734.9 523.1 L735.6 523.1 L735.6 522.3 L735.6 521.6 L735.6 520.8 L735.6 520.0 L735.6 519.2 L735.6 518.4 L735.6 517.7 L735.6 516.9 L735.6 516.1 L734.9 516.1 L734.3 516.1 L733.6 516.1 L733.6 516.9 L733.6 517.7 L733.6 518.4 L733.6 519.2 L733.6 520.0 L733.6 520.8 L733.6 521.6 L733.6 522.3 Z" fill="#2f8f83" fill-opacity="0.34" stroke="#0e5b52" stroke-width="1.6" />
  <path d="M269.0 145.5 L269.0 146.3 L269.6 146.3 L270.3 146.3 L270.9 146.3 L271.6 146.3 L272.2 146.3 L272.2 145.5 L272.2 144.7 L271.6 144.7 L270.9 144.7 L270.3 144.7 L269.6 144.7 L269.6 143.8 L269.0 143.8 L269.0 144.7 L269.0 145.5 Z" fill="#2f8f83" fill-opacity="0.34" stroke="#0e5b52" stroke-width="1.6" />
  <path d="M272.2 141.4 L272.2 142.2 L272.9 142.2 L272.9 143.0 L272.9 143.8 L273.5 143.8 L274.2 143.8 L274.8 143.8 L275.5 143.8 L275.5 144.7 L276.1 144.7 L276.8 144.7 L276.8 143.8 L276.8 143.0 L276.8 142.2 L276.8 141.4 L276.8 140.6 L276.8 139.7 L276.8 138.9 L276.1 138.9 L275.5 138.9 L274.8 138.9 L274.2 138.9 L273.5 138.9 L272.9 138.9 L272.2 138.9 L272.2 139.7 L272.2 140.6 L272.2 141.4 Z" fill="#2f8f83" fill-opacity="0.34" stroke="#0e5b52" stroke-width="1.6" />
  <path d="M269.0 143.0 L269.0 143.8 L269.6 143.8 L269.6 143.0 L269.6 142.2 L269.6 141.4 L269.6 140.6 L269.6 139.7 L270.3 139.7 L270.9 139.7 L271.6 139.7 L272.2 139.7 L272.2 138.9 L271.6 138.9 L270.9 138.9 L270.3 138.9 L269.6 138.9 L269.6 138.1 L269.0 138.1 L268.3 138.1 L268.3 138.9 L269.0 138.9 L269.0 139.7 L269.0 140.6 L269.0 141.4 L269.0 142.2 L269.0 143.0 Z" fill="#2f8f83" fill-opacity="0.34" stroke="#0e5b52" stroke-width="1.6" />
  <path d="M269.6 141.4 L269.6 142.2 L270.3 142.2 L270.9 142.2 L271.6 142.2 L272.2 142.2 L272.2 141.4 L272.2 140.6 L272.2 139.7 L271.6 139.7 L270.9 139.7 L270.3 139.7 L269.6 139.7 L269.6 140.6 L269.6 141.4 Z" fill="#2f8f83" fill-opacity="0.34" stroke="#0e5b52" stroke-width="1.6" />
  <path d="M269.6 143.8 L269.6 144.7 L270.3 144.7 L270.9 144.7 L271.6 144.7 L272.2 144.7 L272.9 144.7 L272.9 143.8 L272.9 143.0 L272.9 142.2 L272.2 142.2 L271.6 142.2 L270.9 142.2 L270.3 142.2 L269.6 142.2 L269.6 143.0 L269.6 143.8 Z" fill="#2f8f83" fill-opacity="0.34" stroke="#0e5b52" stroke-width="1.6" />
  <path d="M272.2 146.3 L272.2 147.1 L272.9 147.1 L273.5 147.1 L274.2 147.1 L274.8 147.1 L275.5 147.1 L275.5 146.3 L275.5 145.5 L275.5 144.7 L275.5 143.8 L274.8 143.8 L274.2 143.8 L273.5 143.8 L272.9 143.8 L272.9 144.7 L272.2 144.7 L272.2 145.5 L272.2 146.3 Z" fill="#2f8f83" fill-opacity="0.34" stroke="#0e5b52" stroke-width="1.6" />
  <path d="M269.0 131.5 L269.6 131.5 L269.6 132.3 L270.3 132.3 L270.9 132.3 L270.9 133.2 L271.6 133.2 L271.6 134.0 L272.2 134.0 L272.2 134.8 L272.9 134.8 L272.9 135.6 L273.5 135.6 L273.5 136.4 L274.2 136.4 L274.8 136.4 L274.8 137.3 L274.8 138.1 L274.2 138.1 L274.2 138.9 L274.8 138.9 L275.5 138.9 L276.1 138.9 L276.8 138.9 L276.8 139.7 L276.8 140.6 L276.8 141.4 L277.4 141.4 L277.4 142.2 L277.4 143.0 L278.1 143.0 L278.1 142.2 L278.1 141.4 L278.1 140.6 L278.1 139.7 L278.1 138.9 L278.1 138.1 L278.1 137.3 L278.1 136.4 L278.1 135.6 L278.1 134.8 L278.1 134.0 L278.1 133.2 L278.1 132.3 L278.1 131.5 L278.1 130.7 L277.4 130.7 L276.8 130.7 L276.1 130.7 L275.5 130.7 L274.8 130.7 L274.2 130.7 L273.5 130.7 L272.9 130.7 L272.2 130.7 L271.6 130.7 L270.9 130.7 L270.3 130.7 L269.6 130.7 L269.0 130.7 L268.3 130.7 L268.3 131.5 L269.0 131.5 Z" fill="#2f8f83" fill-opacity="0.34" stroke="#0e5b52" stroke-width="1.6" />
  <path d="M267.7 124.9 L267.7 125.7 L268.3 125.7 L269.0 125.7 L269.6 125.7 L270.3 125.7 L270.9 125.7 L271.6 125.7 L272.2 125.7 L272.9 125.7 L273.5 125.7 L274.2 125.7 L274.8 125.7 L275.5 125.7 L276.1 125.7 L276.8 125.7 L277.4 125.7 L278.1 125.7 L278.1 124.9 L278.1 124.1 L278.1 123.3 L278.1 122.4 L277.4 122.4 L276.8 122.4 L276.1 122.4 L275.5 122.4 L274.8 122.4 L274.2 122.4 L273.5 122.4 L272.9 122.4 L272.2 122.4 L271.6 122.4 L270.9 122.4 L270.3 122.4 L269.6 122.4 L269.0 122.4 L268.3 122.4 L267.7 122.4 L267.7 123.3 L267.7 124.1 L267.7 124.9 Z" fill="#2f8f83" fill-opacity="0.34" stroke="#0e5b52" stroke-width="1.6" />
  <path d="M267.7 121.6 L267.7 122.4 L268.3 122.4 L269.0 122.4 L269.6 122.4 L270.3 122.4 L270.9 122.4 L271.6 122.4 L272.2 122.4 L272.9 122.4 L273.5 122.4 L274.2 122.4 L274.8 122.4 L275.5 122.4 L276.1 122.4 L276.8 122.4 L277.4 122.4 L278.1 122.4 L278.1 123.3 L278.1 124.1 L278.1 124.9 L278.1 125.7 L278.7 125.7 L279.4 125.7 L280.0 125.7 L280.7 125.7 L281.3 125.7 L282.0 125.7 L282.6 125.7 L283.3 125.7 L283.3 124.9 L283.3 124.1 L283.3 123.3 L282.6 123.3 L282.6 122.4 L282.6 121.6 L282.6 120.8 L282.6 120.0 L282.0 120.0 L281.3 120.0 L280.7 120.0 L280.0 120.0 L279.4 120.0 L278.7 120.0 L278.1 120.0 L277.4 120.0 L276.8 120.0 L276.1 120.0 L275.5 120.0 L274.8 120.0 L274.2 120.0 L273.5 120.0 L272.9 120.0 L272.2 120.0 L271.6 120.0 L270.9 120.0 L270.3 120.0 L269.6 120.0 L269.0 120.0 L268.3 120.0 L267.7 120.0 L267.7 120.8 L267.7 121.6 Z" fill="#2f8f83" fill-opacity="0.34" stroke="#0e5b52" stroke-width="1.6" />
  <path d="M282.6 122.4 L282.6 123.3 L283.3 123.3 L283.3 124.1 L283.3 124.9 L283.3 125.7 L283.9 125.7 L284.6 125.7 L285.2 125.7 L285.9 125.7 L286.5 125.7 L287.2 125.7 L287.8 125.7 L288.5 125.7 L289.1 125.7 L289.8 125.7 L290.4 125.7 L291.1 125.7 L291.7 125.7 L292.4 125.7 L292.4 124.9 L292.4 124.1 L292.4 123.3 L292.4 122.4 L292.4 121.6 L292.4 120.8 L291.7 120.8 L291.1 120.8 L291.1 120.0 L290.4 120.0 L289.8 120.0 L289.1 120.0 L288.5 120.0 L287.8 120.0 L287.2 120.0 L286.5 120.0 L285.9 120.0 L285.2 120.0 L284.6 120.0 L283.9 120.0 L283.3 120.0 L282.6 120.0 L282.6 120.8 L282.6 121.6 L282.6 122.4 Z" fill="#2f8f83" fill-opacity="0.34" stroke="#0e5b52" stroke-width="1.6" />
  <!-- title strip -->
  <rect x="0" y="0" width="1000" height="54" fill="#173042" />
  <text x="20" y="34" font-size="21" font-weight="bold" fill="#ffffff">Doubleview Gold Corp. — Mineral Claims</text>
  <text x="980" y="34" font-size="15" fill="#cfe3df" text-anchor="end">DBG</text>
  <!-- scale bar -->
  <g transform="translate(873.6256091895204, 596)">
    <rect x="0" y="0" width="43.187195405239805" height="8" fill="#173042" />
    <rect x="43.187195405239805" y="0" width="43.187195405239805" height="8" fill="#ffffff" stroke="#173042" stroke-width="1" />
    <text x="43.187195405239805" y="-6" font-size="12" fill="#173042" text-anchor="middle">50 km</text>
  </g>
  <!-- north arrow -->
  <g transform="translate(956, 92)">
    <circle r="17" fill="#ffffff" stroke="#b9b09a" />
    <path d="M0 -10 L5 7 L0 3 L-5 7 Z" fill="#173042" />
    <text y="14" font-size="9" font-weight="bold" fill="#173042" text-anchor="middle">N</text>
  </g>
  <!-- watermark -->
  <text x="20" y="620" font-size="13" fill="#7d8b8a">Map by Exploration Maps — explorationmaps.com</text>
</svg>