<svg xmlns="http://www.w3.org/2000/svg" viewBox="0 0 1000 640" font-family="Arial, Helvetica, sans-serif">
  <rect width="1000" height="640" fill="#f3efe6" />
  <line x1="200" y1="0" x2="200" y2="640" stroke="#d9d2c0" stroke-width="0.7" />
  <line x1="0" y1="128" x2="1000" y2="128" stroke="#d9d2c0" stroke-width="0.7" />
  <line x1="400" y1="0" x2="400" y2="640" stroke="#d9d2c0" stroke-width="0.7" />
  <line x1="0" y1="256" x2="1000" y2="256" stroke="#d9d2c0" stroke-width="0.7" />
  <line x1="600" y1="0" x2="600" y2="640" stroke="#d9d2c0" stroke-width="0.7" />
  <line x1="0" y1="384" x2="1000" y2="384" stroke="#d9d2c0" stroke-width="0.7" />
  <line x1="800" y1="0" x2="800" y2="640" stroke="#d9d2c0" stroke-width="0.7" />
  <line x1="0" y1="512" x2="1000" y2="512" stroke="#d9d2c0" stroke-width="0.7" />
  <path d="M468.1 185.7 L452.1 185.7 L452.1 202.5 L468.1 202.5 L468.1 185.7 Z" fill="#2f8f83" fill-opacity="0.34" stroke="#0e5b52" stroke-width="1.6" />
  <path d="M452.1 185.7 L436.2 185.7 L436.2 202.5 L452.1 202.5 L452.1 185.7 Z" fill="#2f8f83" fill-opacity="0.34" stroke="#0e5b52" stroke-width="1.6" />
  <path d="M436.2 219.3 L436.2 236.1 L452.1 236.1 L468.1 236.1 L484.0 236.1 L484.0 219.3 L484.0 202.5 L468.1 202.5 L452.1 202.5 L436.2 202.5 L436.2 219.3 Z" fill="#2f8f83" fill-opacity="0.34" stroke="#0e5b52" stroke-width="1.6" />
  <path d="M484.0 185.7 L468.1 185.7 L468.1 202.5 L484.0 202.5 L484.0 185.7 Z" fill="#2f8f83" fill-opacity="0.34" stroke="#0e5b52" stroke-width="1.6" />
  <path d="M468.1 236.1 L452.1 236.1 L452.1 253.0 L468.1 253.0 L468.1 269.8 L484.0 269.8 L500.0 269.8 L500.0 286.6 L515.9 286.6 L531.9 286.6 L547.9 286.6 L547.9 269.8 L547.9 252.9 L547.9 236.1 L547.9 219.3 L531.9 219.3 L531.9 202.5 L531.9 185.7 L515.9 185.7 L515.9 168.9 L500.0 168.9 L484.0 168.9 L468.1 168.9 L468.1 185.7 L484.0 185.7 L484.0 202.5 L484.0 219.3 L484.0 236.1 L468.1 236.1 Z" fill="#2f8f83" fill-opacity="0.34" stroke="#0e5b52" stroke-width="1.6" />
  <path d="M420.2 219.3 L420.2 236.1 L436.2 236.1 L436.2 219.3 L436.2 202.5 L420.2 202.5 L420.2 219.3 Z" fill="#2f8f83" fill-opacity="0.34" stroke="#0e5b52" stroke-width="1.6" />
  <path d="M420.2 303.4 L404.3 303.4 L404.3 320.2 L420.2 320.2 L436.2 320.2 L436.2 303.4 L452.1 303.4 L468.1 303.4 L484.0 303.4 L484.0 286.6 L500.0 286.6 L500.0 269.8 L484.0 269.8 L468.1 269.8 L452.1 269.8 L436.2 269.8 L436.2 286.6 L420.2 286.6 L420.2 303.4 Z" fill="#2f8f83" fill-opacity="0.34" stroke="#0e5b52" stroke-width="1.6" />
  <path d="M468.1 353.8 L452.1 353.8 L452.1 370.6 L468.1 370.6 L484.0 370.6 L500.0 370.6 L515.9 370.6 L515.9 353.8 L531.9 353.8 L531.9 337.0 L515.9 337.0 L500.0 337.0 L484.0 337.0 L484.0 353.8 L468.1 353.8 Z" fill="#2f8f83" fill-opacity="0.34" stroke="#0e5b52" stroke-width="1.6" />
  <path d="M436.2 269.8 L420.2 269.8 L420.2 286.6 L436.2 286.6 L436.2 269.8 Z" fill="#2f8f83" fill-opacity="0.34" stroke="#0e5b52" stroke-width="1.6" />
  <path d="M515.9 370.6 L515.9 387.4 L516.0 404.2 L531.9 404.2 L531.9 420.9 L547.9 420.9 L547.9 404.2 L547.9 387.4 L547.9 370.6 L531.9 370.6 L531.9 353.8 L515.9 353.8 L515.9 370.6 Z" fill="#2f8f83" fill-opacity="0.34" stroke="#0e5b52" stroke-width="1.6" />
  <path d="M500.0 303.4 L500.0 320.2 L500.0 337.0 L515.9 337.0 L515.9 320.2 L515.9 303.4 L515.9 286.6 L500.0 286.6 L500.0 303.4 Z" fill="#2f8f83" fill-opacity="0.34" stroke="#0e5b52" stroke-width="1.6" />
  <path d="M420.2 253.0 L420.2 269.8 L436.2 269.8 L452.1 269.8 L468.1 269.8 L468.1 253.0 L452.1 253.0 L452.1 236.1 L436.2 236.1 L420.2 236.1 L420.2 253.0 Z" fill="#2f8f83" fill-opacity="0.34" stroke="#0e5b52" stroke-width="1.6" />
  <path d="M404.3 337.0 L404.3 353.8 L420.2 353.8 L436.2 353.8 L452.1 353.8 L468.1 353.8 L484.0 353.8 L484.0 337.0 L500.0 337.0 L500.0 320.2 L500.0 303.4 L500.0 286.6 L484.0 286.6 L484.0 303.4 L468.1 303.4 L452.1 303.4 L436.2 303.4 L436.2 320.2 L420.2 320.2 L404.3 320.2 L404.3 337.0 Z" fill="#2f8f83" fill-opacity="0.34" stroke="#0e5b52" stroke-width="1.6" />
  <path d="M547.9 236.1 L547.9 252.9 L547.9 269.8 L547.9 286.6 L547.9 303.4 L563.8 303.4 L579.8 303.4 L595.7 303.4 L611.7 303.4 L627.6 303.4 L627.6 286.6 L627.6 269.8 L627.6 252.9 L627.6 236.1 L627.6 219.3 L611.7 219.3 L595.7 219.3 L579.8 219.3 L563.8 219.3 L547.9 219.3 L547.9 236.1 Z" fill="#2f8f83" fill-opacity="0.34" stroke="#0e5b52" stroke-width="1.6" />
  <path d="M516.0 454.5 L516.0 471.3 L531.9 471.3 L547.9 471.3 L563.8 471.3 L579.8 471.3 L595.7 471.3 L611.7 471.3 L627.6 471.3 L627.6 454.5 L627.6 437.7 L627.6 420.9 L627.6 404.1 L627.6 387.4 L611.7 387.4 L595.7 387.4 L579.8 387.4 L563.8 387.4 L563.8 404.2 L563.8 420.9 L563.8 437.7 L547.9 437.7 L531.9 437.7 L516.0 437.7 L516.0 454.5 Z" fill="#2f8f83" fill-opacity="0.34" stroke="#0e5b52" stroke-width="1.6" />
  <path d="M372.4 269.8 L372.4 286.6 L372.4 303.4 L372.4 320.2 L372.4 337.0 L372.4 353.8 L388.3 353.8 L404.3 353.8 L404.3 337.0 L404.3 320.2 L404.3 303.4 L420.2 303.4 L420.2 286.6 L420.2 269.8 L420.2 253.0 L420.2 236.1 L404.3 236.2 L388.3 236.2 L388.3 253.0 L372.4 253.0 L372.4 269.8 Z" fill="#2f8f83" fill-opacity="0.34" stroke="#0e5b52" stroke-width="1.6" />
  <path d="M388.3 370.6 L388.3 387.4 L388.3 404.2 L388.3 420.9 L404.3 420.9 L420.2 420.9 L436.2 420.9 L452.1 420.9 L468.1 420.9 L484.0 420.9 L500.0 420.9 L500.0 404.2 L484.0 404.2 L468.1 404.2 L452.1 404.2 L452.1 387.4 L436.2 387.4 L436.2 370.6 L436.2 353.8 L420.2 353.8 L404.3 353.8 L388.3 353.8 L388.3 370.6 Z" fill="#2f8f83" fill-opacity="0.34" stroke="#0e5b52" stroke-width="1.6" />
  <path d="M404.3 437.7 L404.3 454.5 L404.3 471.3 L420.2 471.3 L436.2 471.3 L452.1 471.3 L468.1 471.3 L484.0 471.3 L500.0 471.3 L516.0 471.3 L516.0 454.5 L516.0 437.7 L516.0 420.9 L500.0 420.9 L484.0 420.9 L468.1 420.9 L452.1 420.9 L436.2 420.9 L420.2 420.9 L404.3 420.9 L404.3 437.7 Z" fill="#2f8f83" fill-opacity="0.34" stroke="#0e5b52" stroke-width="1.6" />
  <path d="M452.1 488.1 L452.1 504.9 L452.1 521.7 L468.1 521.7 L484.0 521.7 L500.0 521.7 L516.0 521.7 L531.9 521.7 L547.9 521.7 L563.8 521.7 L579.8 521.7 L595.7 521.7 L611.7 521.7 L627.6 521.7 L643.6 521.7 L659.5 521.7 L659.5 504.9 L659.5 488.1 L659.5 471.3 L659.5 454.5 L659.5 437.7 L659.5 420.9 L659.5 404.1 L643.6 404.1 L627.6 404.1 L627.6 420.9 L627.6 437.7 L627.6 454.5 L627.6 471.3 L611.7 471.3 L595.7 471.3 L579.8 471.3 L563.8 471.3 L547.9 471.3 L531.9 471.3 L516.0 471.3 L500.0 471.3 L484.0 471.3 L468.1 471.3 L452.1 471.3 L452.1 488.1 Z" fill="#2f8f83" fill-opacity="0.34" stroke="#0e5b52" stroke-width="1.6" />
  <path d="M340.5 152.1 L340.5 168.9 L340.5 185.7 L340.5 202.5 L340.5 219.3 L356.4 219.3 L372.4 219.3 L372.4 202.5 L388.3 202.5 L404.3 202.5 L404.3 185.7 L404.3 168.9 L404.3 152.1 L404.3 135.3 L388.3 135.3 L372.4 135.3 L356.4 135.3 L340.5 135.3 L340.5 152.1 Z" fill="#2f8f83" fill-opacity="0.34" stroke="#0e5b52" stroke-width="1.6" />
  <path d="M404.3 135.3 L404.3 152.1 L404.3 168.9 L404.3 185.7 L404.3 202.5 L420.2 202.5 L420.2 185.7 L436.2 185.7 L436.2 168.9 L452.1 168.9 L468.1 168.9 L484.0 168.9 L484.0 152.1 L484.0 135.3 L484.0 118.4 L468.1 118.4 L452.1 118.4 L436.2 118.4 L420.2 118.4 L404.3 118.5 L404.3 135.3 Z" fill="#2f8f83" fill-opacity="0.34" stroke="#0e5b52" stroke-width="1.6" />
  <path d="M452.1 370.6 L436.2 370.6 L436.2 387.4 L452.1 387.4 L452.1 404.2 L468.1 404.2 L484.0 404.2 L500.0 404.2 L500.0 420.9 L516.0 420.9 L516.0 437.7 L531.9 437.7 L547.9 437.7 L563.8 437.7 L563.8 420.9 L563.8 404.2 L563.8 387.4 L563.8 370.6 L563.8 353.8 L547.9 353.8 L547.9 337.0 L547.9 320.2 L547.9 303.4 L547.9 286.6 L531.9 286.6 L515.9 286.6 L515.9 303.4 L515.9 320.2 L515.9 337.0 L531.9 337.0 L531.9 353.8 L531.9 370.6 L547.9 370.6 L547.9 387.4 L547.9 404.2 L547.9 420.9 L531.9 420.9 L531.9 404.2 L516.0 404.2 L515.9 387.4 L515.9 370.6 L500.0 370.6 L484.0 370.6 L468.1 370.6 L452.1 370.6 Z" fill="#2f8f83" fill-opacity="0.34" stroke="#0e5b52" stroke-width="1.6" />
  <!-- title strip -->
  <rect x="0" y="0" width="1000" height="54" fill="#173042" />
  <text x="20" y="34" font-size="21" font-weight="bold" fill="#ffffff">District Copper Corp. — Mineral Claims</text>
  <text x="980" y="34" font-size="15" fill="#cfe3df" text-anchor="end">DCOP</text>
  <!-- scale bar -->
  <g transform="translate(778.8895423149875, 596)">
    <rect x="0" y="0" width="90.55522884250625" height="8" fill="#173042" />
    <rect x="90.55522884250625" y="0" width="90.55522884250625" height="8" fill="#ffffff" stroke="#173042" stroke-width="1" />
    <text x="90.55522884250625" y="-6" font-size="12" fill="#173042" text-anchor="middle">5 km</text>
  </g>
  <!-- north arrow -->
  <g transform="translate(956, 92)">
    <circle r="17" fill="#ffffff" stroke="#b9b09a" />
    <path d="M0 -10 L5 7 L0 3 L-5 7 Z" fill="#173042" />
    <text y="14" font-size="9" font-weight="bold" fill="#173042" text-anchor="middle">N</text>
  </g>
  <!-- watermark -->
  <text x="20" y="620" font-size="13" fill="#7d8b8a">Map by Exploration Maps — explorationmaps.com</text>
</svg>