<svg xmlns="http://www.w3.org/2000/svg" viewBox="0 0 1000 640" font-family="Arial, Helvetica, sans-serif">
  <rect width="1000" height="640" fill="#f3efe6" />
  <line x1="200" y1="0" x2="200" y2="640" stroke="#d9d2c0" stroke-width="0.7" />
  <line x1="0" y1="128" x2="1000" y2="128" stroke="#d9d2c0" stroke-width="0.7" />
  <line x1="400" y1="0" x2="400" y2="640" stroke="#d9d2c0" stroke-width="0.7" />
  <line x1="0" y1="256" x2="1000" y2="256" stroke="#d9d2c0" stroke-width="0.7" />
  <line x1="600" y1="0" x2="600" y2="640" stroke="#d9d2c0" stroke-width="0.7" />
  <line x1="0" y1="384" x2="1000" y2="384" stroke="#d9d2c0" stroke-width="0.7" />
  <line x1="800" y1="0" x2="800" y2="640" stroke="#d9d2c0" stroke-width="0.7" />
  <line x1="0" y1="512" x2="1000" y2="512" stroke="#d9d2c0" stroke-width="0.7" />
  <path d="M364.5 266.0 L364.4 265.7 L364.0 265.8 L364.2 266.1 L364.5 266.0 Z" fill="#2f8f83" fill-opacity="0.34" stroke="#0e5b52" stroke-width="1.6" />
  <path d="M365.4 265.1 L365.4 265.4 L365.6 265.4 L365.6 265.7 L365.6 266.0 L365.9 266.0 L365.9 265.7 L365.9 265.4 L365.9 265.1 L365.9 264.8 L365.9 264.4 L365.6 264.4 L365.4 264.4 L365.1 264.4 L365.1 264.8 L365.4 264.8 L365.4 265.1 Z" fill="#2f8f83" fill-opacity="0.34" stroke="#0e5b52" stroke-width="1.6" />
  <path d="M365.9 265.7 L365.9 266.0 L366.2 266.0 L366.5 266.0 L366.7 266.0 L366.7 265.7 L366.7 265.4 L366.7 265.1 L366.7 264.8 L366.7 264.4 L366.7 264.1 L366.5 264.1 L366.2 264.1 L365.9 264.1 L365.9 264.4 L365.9 264.8 L365.9 265.1 L365.9 265.4 L365.9 265.7 Z" fill="#2f8f83" fill-opacity="0.34" stroke="#0e5b52" stroke-width="1.6" />
  <path d="M366.7 265.4 L366.7 265.7 L367.0 265.7 L367.3 265.7 L367.6 265.7 L367.6 265.4 L367.6 265.1 L367.6 264.8 L367.6 264.4 L367.6 264.1 L367.6 263.8 L367.3 263.8 L367.0 263.8 L366.7 263.8 L366.7 264.1 L366.7 264.4 L366.7 264.8 L366.7 265.1 L366.7 265.4 Z" fill="#2f8f83" fill-opacity="0.34" stroke="#0e5b52" stroke-width="1.6" />
  <path d="M372.9 263.5 L372.9 263.8 L373.2 263.8 L373.4 263.8 L373.4 263.5 L373.4 263.2 L373.2 263.2 L372.9 263.2 L372.9 263.5 Z" fill="#2f8f83" fill-opacity="0.34" stroke="#0e5b52" stroke-width="1.6" />
  <path d="M374.3 263.8 L374.3 264.1 L374.6 264.1 L374.8 264.1 L374.8 263.8 L374.8 263.5 L374.6 263.5 L374.3 263.5 L374.3 263.8 Z" fill="#2f8f83" fill-opacity="0.34" stroke="#0e5b52" stroke-width="1.6" />
  <path d="M372.0 264.8 L372.0 265.1 L372.3 265.1 L372.6 265.1 L372.9 265.1 L373.2 265.1 L373.4 265.1 L373.4 264.8 L373.4 264.4 L373.4 264.1 L373.4 263.8 L373.2 263.8 L372.9 263.8 L372.6 263.8 L372.3 263.8 L372.0 263.8 L372.0 264.1 L372.0 264.4 L372.0 264.8 Z" fill="#2f8f83" fill-opacity="0.34" stroke="#0e5b52" stroke-width="1.6" />
  <path d="M373.4 265.1 L373.4 265.4 L373.7 265.4 L374.0 265.4 L374.3 265.4 L374.6 265.4 L374.8 265.4 L374.8 265.1 L374.8 264.8 L374.8 264.4 L374.8 264.1 L374.6 264.1 L374.3 264.1 L374.0 264.1 L373.7 264.1 L373.4 264.1 L373.4 264.4 L373.4 264.8 L373.4 265.1 Z" fill="#2f8f83" fill-opacity="0.34" stroke="#0e5b52" stroke-width="1.6" />
  <path d="M371.8 265.7 L371.8 266.0 L372.0 266.0 L372.3 266.0 L372.6 266.0 L372.9 266.0 L373.2 266.0 L373.4 266.0 L373.4 265.7 L373.4 265.4 L373.4 265.1 L373.2 265.1 L372.9 265.1 L372.6 265.1 L372.3 265.1 L372.0 265.1 L371.8 265.1 L371.8 265.4 L371.8 265.7 Z" fill="#2f8f83" fill-opacity="0.34" stroke="#0e5b52" stroke-width="1.6" />
  <path d="M371.5 266.7 L371.5 267.0 L371.8 267.0 L372.0 267.0 L372.3 267.0 L372.6 267.0 L372.9 267.0 L373.2 267.0 L373.4 267.0 L373.4 266.7 L373.4 266.4 L373.4 266.0 L373.2 266.0 L372.9 266.0 L372.6 266.0 L372.3 266.0 L372.0 266.0 L371.8 266.0 L371.5 266.0 L371.5 266.4 L371.5 266.7 Z" fill="#2f8f83" fill-opacity="0.34" stroke="#0e5b52" stroke-width="1.6" />
  <path d="M373.4 266.7 L373.4 267.0 L373.7 267.0 L374.0 267.0 L374.3 267.0 L374.6 267.0 L374.8 267.0 L374.8 266.7 L374.8 266.4 L374.6 266.4 L374.3 266.4 L374.0 266.4 L373.7 266.4 L373.4 266.4 L373.4 266.7 Z" fill="#2f8f83" fill-opacity="0.34" stroke="#0e5b52" stroke-width="1.6" />
  <path d="M373.4 263.8 L373.4 264.1 L373.7 264.1 L374.0 264.1 L374.3 264.1 L374.3 263.8 L374.3 263.5 L374.6 263.5 L374.6 263.2 L374.6 262.8 L374.6 262.5 L374.6 262.2 L374.6 261.9 L374.3 261.9 L374.0 261.9 L373.7 261.9 L373.4 261.9 L373.4 262.2 L373.4 262.5 L373.4 262.8 L373.4 263.2 L373.4 263.5 L373.4 263.8 Z" fill="#2f8f83" fill-opacity="0.34" stroke="#0e5b52" stroke-width="1.6" />
  <path d="M373.4 266.0 L373.4 266.4 L373.7 266.4 L374.0 266.4 L374.3 266.4 L374.6 266.4 L374.8 266.4 L374.8 266.0 L374.8 265.7 L374.8 265.4 L374.6 265.4 L374.3 265.4 L374.0 265.4 L373.7 265.4 L373.4 265.4 L373.4 265.7 L373.4 266.0 Z" fill="#2f8f83" fill-opacity="0.34" stroke="#0e5b52" stroke-width="1.6" />
  <path d="M365.1 265.7 L365.1 266.0 L365.4 266.0 L365.6 266.0 L365.6 265.7 L365.6 265.4 L365.4 265.4 L365.1 265.4 L365.1 265.7 Z" fill="#2f8f83" fill-opacity="0.34" stroke="#0e5b52" stroke-width="1.6" />
  <path d="M371.2 267.0 L371.2 267.3 L371.5 267.3 L371.8 267.3 L372.0 267.3 L372.0 267.0 L371.8 267.0 L371.5 267.0 L371.5 266.7 L371.5 266.4 L371.5 266.0 L371.8 266.0 L371.8 265.7 L371.5 265.7 L371.2 265.7 L371.2 266.0 L371.2 266.4 L371.2 266.7 L371.2 267.0 Z" fill="#2f8f83" fill-opacity="0.34" stroke="#0e5b52" stroke-width="1.6" />
  <path d="M371.5 267.6 L371.8 267.6 L372.0 267.6 L372.0 267.3 L371.8 267.3 L371.5 267.3 L371.2 267.3 L371.2 267.6 L371.5 267.6 Z" fill="#2f8f83" fill-opacity="0.34" stroke="#0e5b52" stroke-width="1.6" />
  <path d="M365.1 265.1 L365.1 265.4 L365.4 265.4 L365.4 265.1 L365.4 264.8 L365.1 264.8 L364.8 264.8 L364.8 265.1 L365.1 265.1 Z" fill="#2f8f83" fill-opacity="0.34" stroke="#0e5b52" stroke-width="1.6" />
  <path d="M364.5 265.4 L364.5 265.7 L364.8 265.7 L365.1 265.7 L365.1 265.4 L365.1 265.1 L364.8 265.1 L364.5 265.1 L364.5 265.4 Z" fill="#2f8f83" fill-opacity="0.34" stroke="#0e5b52" stroke-width="1.6" />
  <path d="M363.7 265.7 L363.7 266.0 L364.0 266.0 L364.0 265.7 L364.0 265.4 L363.7 265.4 L363.7 265.7 Z" fill="#2f8f83" fill-opacity="0.34" stroke="#0e5b52" stroke-width="1.6" />
  <path d="M363.4 265.7 L363.4 266.0 L363.7 266.0 L363.7 265.7 L363.7 265.4 L363.4 265.4 L363.4 265.7 Z" fill="#2f8f83" fill-opacity="0.34" stroke="#0e5b52" stroke-width="1.6" />
  <path d="M364.2 265.4 L364.2 265.7 L364.5 265.7 L364.5 265.4 L364.5 265.1 L364.2 265.1 L364.2 265.4 Z" fill="#2f8f83" fill-opacity="0.34" stroke="#0e5b52" stroke-width="1.6" />
  <path d="M364.0 265.7 L364.0 266.0 L364.2 266.0 L364.2 265.7 L364.2 265.4 L364.0 265.4 L364.0 265.7 Z" fill="#2f8f83" fill-opacity="0.34" stroke="#0e5b52" stroke-width="1.6" />
  <path d="M364.5 266.0 L364.8 266.0 L364.8 265.7 L364.5 265.7 L364.2 265.7 L364.2 266.0 L364.5 266.0 Z" fill="#2f8f83" fill-opacity="0.34" stroke="#0e5b52" stroke-width="1.6" />
  <path d="M364.8 266.0 L364.8 266.4 L365.1 266.4 L365.4 266.4 L365.4 266.0 L365.1 266.0 L365.1 265.7 L364.8 265.7 L364.8 266.0 Z" fill="#2f8f83" fill-opacity="0.34" stroke="#0e5b52" stroke-width="1.6" />
  <path d="M364.8 266.0 L364.5 266.0 L364.5 266.4 L364.8 266.4 L364.8 266.0 Z" fill="#2f8f83" fill-opacity="0.34" stroke="#0e5b52" stroke-width="1.6" />
  <path d="M370.1 267.3 L370.1 267.6 L370.4 267.6 L370.6 267.6 L370.9 267.6 L371.2 267.6 L371.2 267.3 L371.2 267.0 L370.9 267.0 L370.6 267.0 L370.4 267.0 L370.1 267.0 L370.1 267.3 Z" fill="#2f8f83" fill-opacity="0.34" stroke="#0e5b52" stroke-width="1.6" />
  <path d="M285.6 143.4 L285.6 143.7 L285.9 143.7 L286.2 143.7 L286.5 143.7 L286.7 143.7 L287.0 143.7 L287.3 143.7 L287.3 143.4 L287.3 143.1 L287.3 142.7 L287.0 142.7 L286.7 142.7 L286.5 142.7 L286.2 142.7 L285.9 142.7 L285.6 142.7 L285.6 143.1 L285.6 143.4 Z" fill="#2f8f83" fill-opacity="0.34" stroke="#0e5b52" stroke-width="1.6" />
  <path d="M285.6 144.1 L285.6 144.4 L285.9 144.4 L285.9 144.7 L286.2 144.7 L286.5 144.7 L286.7 144.7 L287.0 144.7 L287.3 144.7 L287.3 144.4 L287.3 144.1 L287.3 143.7 L287.0 143.7 L286.7 143.7 L286.5 143.7 L286.2 143.7 L285.9 143.7 L285.6 143.7 L285.6 144.1 Z" fill="#2f8f83" fill-opacity="0.34" stroke="#0e5b52" stroke-width="1.6" />
  <path d="M372.3 261.6 L372.3 261.9 L372.6 261.9 L372.9 261.9 L373.2 261.9 L373.4 261.9 L373.7 261.9 L374.0 261.9 L374.3 261.9 L374.6 261.9 L374.6 261.6 L374.6 261.2 L374.3 261.2 L374.0 261.2 L373.7 261.2 L373.4 261.2 L373.2 261.2 L372.9 261.2 L372.6 261.2 L372.3 261.2 L372.3 261.6 Z" fill="#2f8f83" fill-opacity="0.34" stroke="#0e5b52" stroke-width="1.6" />
  <path d="M371.8 262.2 L371.8 262.5 L372.0 262.5 L372.3 262.5 L372.6 262.5 L372.9 262.5 L372.9 262.8 L372.9 263.2 L373.2 263.2 L373.4 263.2 L373.4 262.8 L373.4 262.5 L373.4 262.2 L373.4 261.9 L373.2 261.9 L372.9 261.9 L372.6 261.9 L372.3 261.9 L372.0 261.9 L371.8 261.9 L371.8 262.2 Z" fill="#2f8f83" fill-opacity="0.34" stroke="#0e5b52" stroke-width="1.6" />
  <path d="M372.3 260.9 L372.3 261.2 L372.6 261.2 L372.9 261.2 L373.2 261.2 L373.4 261.2 L373.7 261.2 L373.7 260.9 L373.7 260.6 L373.7 260.3 L373.4 260.3 L373.2 260.3 L372.9 260.3 L372.6 260.3 L372.3 260.3 L372.3 260.6 L372.3 260.9 Z" fill="#2f8f83" fill-opacity="0.34" stroke="#0e5b52" stroke-width="1.6" />
  <path d="M373.7 260.3 L373.7 260.6 L374.0 260.6 L374.3 260.6 L374.3 260.9 L374.3 261.2 L374.6 261.2 L374.8 261.2 L374.8 260.9 L374.8 260.6 L374.8 260.3 L374.8 260.0 L374.8 259.6 L374.6 259.6 L374.3 259.6 L374.0 259.6 L373.7 259.6 L373.7 260.0 L373.7 260.3 Z" fill="#2f8f83" fill-opacity="0.34" stroke="#0e5b52" stroke-width="1.6" />
  <path d="M371.8 260.0 L371.8 260.3 L372.0 260.3 L372.3 260.3 L372.6 260.3 L372.9 260.3 L373.2 260.3 L373.4 260.3 L373.7 260.3 L373.7 260.0 L373.7 259.6 L373.4 259.6 L373.2 259.6 L372.9 259.6 L372.6 259.6 L372.3 259.6 L372.0 259.6 L371.8 259.6 L371.8 260.0 Z" fill="#2f8f83" fill-opacity="0.34" stroke="#0e5b52" stroke-width="1.6" />
  <path d="M373.7 260.9 L373.7 261.2 L374.0 261.2 L374.3 261.2 L374.3 260.9 L374.3 260.6 L374.0 260.6 L373.7 260.6 L373.7 260.9 Z" fill="#2f8f83" fill-opacity="0.34" stroke="#0e5b52" stroke-width="1.6" />
  <path d="M371.8 261.6 L371.8 261.9 L372.0 261.9 L372.3 261.9 L372.3 261.6 L372.3 261.2 L372.3 260.9 L372.3 260.6 L372.3 260.3 L372.0 260.3 L371.8 260.3 L371.8 260.6 L371.8 260.9 L371.8 261.2 L371.8 261.6 Z" fill="#2f8f83" fill-opacity="0.34" stroke="#0e5b52" stroke-width="1.6" />
  <path d="M285.6 144.7 L285.6 145.1 L285.9 145.1 L285.9 144.7 L285.9 144.4 L285.6 144.4 L285.6 144.7 Z" fill="#2f8f83" fill-opacity="0.34" stroke="#0e5b52" stroke-width="1.6" />
  <path d="M285.9 145.7 L285.9 145.4 L285.6 145.4 L285.6 145.7 L285.9 145.7 Z" fill="#2f8f83" fill-opacity="0.34" stroke="#0e5b52" stroke-width="1.6" />
  <path d="M285.9 145.4 L285.9 145.1 L285.6 145.1 L285.6 145.4 L285.9 145.4 Z" fill="#2f8f83" fill-opacity="0.34" stroke="#0e5b52" stroke-width="1.6" />
  <path d="M374.6 263.2 L374.6 263.5 L374.8 263.5 L374.8 263.8 L374.8 264.1 L374.8 264.4 L374.8 264.8 L375.1 264.8 L375.4 264.8 L375.4 264.4 L375.4 264.1 L375.4 263.8 L375.4 263.5 L375.4 263.2 L375.4 262.8 L375.4 262.5 L375.4 262.2 L375.1 262.2 L374.8 262.2 L374.6 262.2 L374.6 262.5 L374.6 262.8 L374.6 263.2 Z" fill="#2f8f83" fill-opacity="0.34" stroke="#0e5b52" stroke-width="1.6" />
  <path d="M375.4 263.5 L375.4 263.8 L375.7 263.8 L375.9 263.8 L376.2 263.8 L376.5 263.8 L376.5 263.5 L376.8 263.5 L376.8 263.2 L376.8 262.8 L376.5 262.8 L376.2 262.8 L376.2 262.5 L376.2 262.2 L375.9 262.2 L375.7 262.2 L375.4 262.2 L375.4 262.5 L375.4 262.8 L375.4 263.2 L375.4 263.5 Z" fill="#2f8f83" fill-opacity="0.34" stroke="#0e5b52" stroke-width="1.6" />
  <path d="M375.4 264.4 L375.4 264.8 L375.7 264.8 L375.9 264.8 L376.2 264.8 L376.5 264.8 L376.8 264.8 L376.8 264.4 L376.8 264.1 L376.8 263.8 L376.8 263.5 L376.5 263.5 L376.5 263.8 L376.2 263.8 L375.9 263.8 L375.7 263.8 L375.4 263.8 L375.4 264.1 L375.4 264.4 Z" fill="#2f8f83" fill-opacity="0.34" stroke="#0e5b52" stroke-width="1.6" />
  <path d="M374.6 261.9 L374.6 262.2 L374.8 262.2 L374.8 261.9 L374.8 261.6 L374.8 261.2 L374.6 261.2 L374.6 261.6 L374.6 261.9 Z" fill="#2f8f83" fill-opacity="0.34" stroke="#0e5b52" stroke-width="1.6" />
  <path d="M285.6 139.1 L285.6 139.4 L285.9 139.4 L286.2 139.4 L286.5 139.4 L286.7 139.4 L286.7 139.1 L286.7 138.7 L287.0 138.7 L287.0 138.4 L287.0 138.1 L287.0 137.7 L287.0 137.4 L286.7 137.4 L286.5 137.4 L286.2 137.4 L285.9 137.4 L285.9 137.7 L285.9 138.1 L285.9 138.4 L285.9 138.7 L285.6 138.7 L285.6 139.1 Z" fill="#2f8f83" fill-opacity="0.34" stroke="#0e5b52" stroke-width="1.6" />
  <path d="M285.1 140.1 L285.1 140.4 L285.3 140.4 L285.6 140.4 L285.6 140.7 L285.9 140.7 L286.2 140.7 L286.5 140.7 L286.5 141.1 L286.5 141.4 L286.7 141.4 L286.7 141.1 L286.7 140.7 L286.7 140.4 L286.7 140.1 L286.7 139.7 L286.7 139.4 L286.5 139.4 L286.2 139.4 L285.9 139.4 L285.6 139.4 L285.6 139.7 L285.3 139.7 L285.1 139.7 L285.1 140.1 Z" fill="#2f8f83" fill-opacity="0.34" stroke="#0e5b52" stroke-width="1.6" />
  <path d="M371.8 259.3 L371.8 259.6 L372.0 259.6 L372.3 259.6 L372.6 259.6 L372.9 259.6 L373.2 259.6 L373.4 259.6 L373.7 259.6 L374.0 259.6 L374.3 259.6 L374.6 259.6 L374.8 259.6 L374.8 260.0 L374.8 260.3 L374.8 260.6 L374.8 260.9 L374.8 261.2 L374.8 261.6 L374.8 261.9 L374.8 262.2 L375.1 262.2 L375.4 262.2 L375.7 262.2 L375.9 262.2 L376.2 262.2 L376.2 262.5 L376.2 262.8 L376.5 262.8 L376.8 262.8 L376.8 263.2 L376.8 263.5 L376.8 263.8 L376.8 264.1 L376.8 264.4 L376.8 264.8 L376.5 264.8 L376.2 264.8 L375.9 264.8 L375.7 264.8 L375.4 264.8 L375.1 264.8 L374.8 264.8 L374.8 265.1 L375.1 265.1 L375.4 265.1 L375.7 265.1 L375.9 265.1 L376.2 265.1 L376.5 265.1 L376.8 265.1 L377.1 265.1 L377.3 265.1 L377.3 264.8 L377.3 264.4 L377.3 264.1 L377.3 263.8 L377.3 263.5 L377.3 263.2 L377.3 262.8 L377.3 262.5 L377.3 262.2 L377.3 261.9 L377.3 261.6 L377.3 261.2 L377.1 261.2 L376.8 261.2 L376.5 261.2 L376.2 261.2 L375.9 261.2 L375.7 261.2 L375.7 260.9 L375.7 260.6 L375.7 260.3 L375.7 260.0 L375.7 259.6 L375.7 259.3 L375.7 259.0 L375.4 259.0 L375.1 259.0 L374.8 259.0 L374.6 259.0 L374.3 259.0 L374.0 259.0 L373.7 259.0 L373.4 259.0 L373.2 259.0 L372.9 259.0 L372.6 259.0 L372.3 259.0 L372.0 259.0 L371.8 259.0 L371.5 259.0 L371.5 259.3 L371.8 259.3 Z" fill="#2f8f83" fill-opacity="0.34" stroke="#0e5b52" stroke-width="1.6" />
  <path d="M374.8 266.7 L374.8 267.0 L375.1 267.0 L375.4 267.0 L375.7 267.0 L375.9 267.0 L376.2 267.0 L376.5 267.0 L376.8 267.0 L377.1 267.0 L377.3 267.0 L377.3 266.7 L377.3 266.4 L377.3 266.0 L377.3 265.7 L377.3 265.4 L377.3 265.1 L377.1 265.1 L376.8 265.1 L376.5 265.1 L376.2 265.1 L375.9 265.1 L375.7 265.1 L375.4 265.1 L375.1 265.1 L374.8 265.1 L374.8 265.4 L374.8 265.7 L374.8 266.0 L374.8 266.4 L374.8 266.7 Z" fill="#2f8f83" fill-opacity="0.34" stroke="#0e5b52" stroke-width="1.6" />
  <path d="M360.3 264.4 L360.3 264.8 L360.6 264.8 L360.6 265.1 L360.9 265.1 L360.9 265.4 L361.2 265.4 L361.2 265.7 L361.4 265.7 L361.4 266.0 L361.7 266.0 L362.0 266.0 L362.3 266.0 L362.6 266.0 L362.8 266.0 L363.1 266.0 L363.1 265.7 L363.1 265.4 L363.1 265.1 L363.4 265.1 L363.4 264.8 L363.4 264.4 L363.4 264.1 L363.4 263.8 L363.4 263.5 L363.4 263.2 L363.4 262.8 L363.1 262.8 L362.8 262.8 L362.6 262.8 L362.3 262.8 L362.0 262.8 L361.7 262.8 L361.4 262.8 L361.2 262.8 L360.9 262.8 L360.6 262.8 L360.3 262.8 L360.3 263.2 L360.3 263.5 L360.3 263.8 L360.3 264.1 L360.3 264.4 Z" fill="#2f8f83" fill-opacity="0.34" stroke="#0e5b52" stroke-width="1.6" />
  <path d="M372.9 267.6 L372.9 268.0 L373.2 268.0 L373.4 268.0 L373.7 268.0 L374.0 268.0 L374.0 267.6 L374.0 267.3 L374.0 267.0 L373.7 267.0 L373.4 267.0 L373.2 267.0 L372.9 267.0 L372.9 267.3 L372.9 267.6 Z" fill="#2f8f83" fill-opacity="0.34" stroke="#0e5b52" stroke-width="1.6" />
  <path d="M371.2 269.6 L371.2 269.9 L371.5 269.9 L371.8 269.9 L372.0 269.9 L372.3 269.9 L372.6 269.9 L372.9 269.9 L373.2 269.9 L373.4 269.9 L373.7 269.9 L374.0 269.9 L374.3 269.9 L374.6 269.9 L374.8 269.9 L374.8 269.6 L374.8 269.2 L374.8 268.9 L374.8 268.6 L374.8 268.3 L374.8 268.0 L374.8 267.6 L374.8 267.3 L374.8 267.0 L374.6 267.0 L374.3 267.0 L374.0 267.0 L374.0 267.3 L374.0 267.6 L374.0 268.0 L373.7 268.0 L373.4 268.0 L373.2 268.0 L372.9 268.0 L372.9 267.6 L372.9 267.3 L372.9 267.0 L372.6 267.0 L372.3 267.0 L372.0 267.0 L372.0 267.3 L372.0 267.6 L371.8 267.6 L371.5 267.6 L371.2 267.6 L371.2 268.0 L371.2 268.3 L371.2 268.6 L371.2 268.9 L371.2 269.2 L371.2 269.6 Z" fill="#2f8f83" fill-opacity="0.34" stroke="#0e5b52" stroke-width="1.6" />
  <path d="M355.9 261.9 L356.2 261.9 L356.2 261.6 L355.9 261.6 L355.6 261.6 L355.6 261.9 L355.9 261.9 Z" fill="#2f8f83" fill-opacity="0.34" stroke="#0e5b52" stroke-width="1.6" />
  <path d="M367.9 265.7 L368.1 265.7 L368.4 265.7 L368.7 265.7 L369.0 265.7 L369.3 265.7 L369.5 265.7 L369.8 265.7 L370.1 265.7 L370.4 265.7 L370.6 265.7 L370.9 265.7 L371.2 265.7 L371.5 265.7 L371.8 265.7 L371.8 265.4 L371.5 265.4 L371.2 265.4 L370.9 265.4 L370.6 265.4 L370.4 265.4 L370.1 265.4 L369.8 265.4 L369.5 265.4 L369.3 265.4 L369.0 265.4 L368.7 265.4 L368.4 265.4 L368.1 265.4 L367.9 265.4 L367.6 265.4 L367.6 265.7 L367.9 265.7 Z" fill="#2f8f83" fill-opacity="0.34" stroke="#0e5b52" stroke-width="1.6" />
  <path d="M363.1 265.4 L363.1 265.7 L363.4 265.7 L363.4 265.4 L363.7 265.4 L364.0 265.4 L364.2 265.4 L364.2 265.1 L364.0 265.1 L363.7 265.1 L363.4 265.1 L363.1 265.1 L363.1 265.4 Z" fill="#2f8f83" fill-opacity="0.34" stroke="#0e5b52" stroke-width="1.6" />
  <path d="M354.5 261.9 L354.5 262.2 L354.8 262.2 L355.0 262.2 L355.3 262.2 L355.6 262.2 L355.9 262.2 L356.2 262.2 L356.4 262.2 L356.7 262.2 L357.0 262.2 L357.3 262.2 L357.5 262.2 L357.5 261.9 L357.5 261.6 L357.5 261.2 L357.5 260.9 L357.5 260.6 L357.3 260.6 L357.0 260.6 L356.7 260.6 L356.4 260.6 L356.4 260.3 L356.2 260.3 L356.2 260.6 L356.2 260.9 L355.9 260.9 L355.6 260.9 L355.6 260.6 L355.6 260.3 L355.3 260.3 L355.0 260.3 L354.8 260.3 L354.5 260.3 L354.5 260.6 L354.5 260.9 L354.5 261.2 L354.5 261.6 L354.5 261.9 Z M355.6 261.6 L355.9 261.6 L356.2 261.6 L356.2 261.9 L355.9 261.9 L355.6 261.9 L355.6 261.6 Z" fill="#2f8f83" fill-opacity="0.34" stroke="#0e5b52" stroke-width="1.6" />
  <path d="M354.2 261.2 L354.2 261.6 L354.5 261.6 L354.5 261.2 L354.5 260.9 L354.5 260.6 L354.5 260.3 L354.8 260.3 L355.0 260.3 L355.3 260.3 L355.6 260.3 L355.9 260.3 L356.2 260.3 L356.4 260.3 L356.4 260.0 L356.2 260.0 L355.9 260.0 L355.6 260.0 L355.3 260.0 L355.0 260.0 L354.8 260.0 L354.5 260.0 L354.2 260.0 L354.2 260.3 L354.2 260.6 L354.2 260.9 L354.2 261.2 Z" fill="#2f8f83" fill-opacity="0.34" stroke="#0e5b52" stroke-width="1.6" />
  <path d="M357.5 262.8 L357.5 263.2 L357.8 263.2 L357.8 263.5 L358.1 263.5 L358.4 263.5 L358.4 263.8 L358.7 263.8 L358.7 264.1 L358.9 264.1 L359.2 264.1 L359.2 264.4 L359.5 264.4 L359.8 264.4 L360.1 264.4 L360.1 264.8 L360.3 264.8 L360.3 264.4 L360.3 264.1 L360.3 263.8 L360.3 263.5 L360.3 263.2 L360.3 262.8 L360.6 262.8 L360.9 262.8 L361.2 262.8 L361.2 262.5 L360.9 262.5 L360.9 262.2 L360.6 262.2 L360.6 261.9 L360.3 261.9 L360.1 261.9 L360.1 261.6 L360.1 261.2 L359.8 261.2 L359.5 261.2 L359.2 261.2 L359.2 260.9 L358.9 260.9 L358.7 260.9 L358.4 260.9 L358.4 260.6 L358.1 260.6 L357.8 260.6 L357.5 260.6 L357.5 260.9 L357.5 261.2 L357.5 261.6 L357.5 261.9 L357.5 262.2 L357.5 262.5 L357.5 262.8 Z" fill="#2f8f83" fill-opacity="0.34" stroke="#0e5b52" stroke-width="1.6" />
  <path d="M367.9 262.5 L368.1 262.5 L368.1 262.8 L368.4 262.8 L368.4 263.2 L368.7 263.2 L368.7 263.5 L369.0 263.5 L369.3 263.5 L369.5 263.5 L369.8 263.5 L370.1 263.5 L370.4 263.5 L370.4 263.2 L370.4 262.8 L370.6 262.8 L370.9 262.8 L371.2 262.8 L371.5 262.8 L371.8 262.8 L371.8 262.5 L371.8 262.2 L371.8 261.9 L371.8 261.6 L371.8 261.2 L371.8 260.9 L371.8 260.6 L371.8 260.3 L371.8 260.0 L371.8 259.6 L371.8 259.3 L371.5 259.3 L371.2 259.3 L370.9 259.3 L370.6 259.3 L370.4 259.3 L370.4 259.6 L370.4 260.0 L370.4 260.3 L370.4 260.6 L370.4 260.9 L370.4 261.2 L370.4 261.6 L370.1 261.6 L369.8 261.6 L369.5 261.6 L369.3 261.6 L369.0 261.6 L368.7 261.6 L368.7 261.9 L368.4 261.9 L368.1 261.9 L368.1 262.2 L367.9 262.2 L367.6 262.2 L367.6 262.5 L367.9 262.5 Z" fill="#2f8f83" fill-opacity="0.34" stroke="#0e5b52" stroke-width="1.6" />
  <path d="M367.0 261.6 L367.0 261.9 L367.3 261.9 L367.3 262.2 L367.6 262.2 L367.9 262.2 L368.1 262.2 L368.1 261.9 L368.4 261.9 L368.7 261.9 L368.7 261.6 L369.0 261.6 L369.3 261.6 L369.5 261.6 L369.8 261.6 L370.1 261.6 L370.4 261.6 L370.4 261.2 L370.4 260.9 L370.4 260.6 L370.4 260.3 L370.4 260.0 L370.4 259.6 L370.4 259.3 L370.1 259.3 L369.8 259.3 L369.5 259.3 L369.3 259.3 L369.0 259.3 L369.0 259.0 L368.7 259.0 L368.4 259.0 L368.1 259.0 L367.9 259.0 L367.6 259.0 L367.3 259.0 L367.0 259.0 L367.0 259.3 L367.0 259.6 L367.0 260.0 L367.0 260.3 L367.0 260.6 L367.0 260.9 L367.0 261.2 L367.0 261.6 Z" fill="#2f8f83" fill-opacity="0.34" stroke="#0e5b52" stroke-width="1.6" />
  <path d="M367.3 259.0 L367.6 259.0 L367.9 259.0 L368.1 259.0 L368.4 259.0 L368.7 259.0 L369.0 259.0 L369.0 259.3 L369.3 259.3 L369.5 259.3 L369.8 259.3 L370.1 259.3 L370.4 259.3 L370.6 259.3 L370.9 259.3 L371.2 259.3 L371.5 259.3 L371.5 259.0 L371.8 259.0 L372.0 259.0 L372.3 259.0 L372.6 259.0 L372.9 259.0 L373.2 259.0 L373.4 259.0 L373.7 259.0 L374.0 259.0 L374.3 259.0 L374.6 259.0 L374.8 259.0 L375.1 259.0 L375.1 258.7 L375.1 258.4 L375.1 258.0 L375.1 257.7 L374.8 257.7 L374.6 257.7 L374.3 257.7 L374.0 257.7 L373.7 257.7 L373.4 257.7 L373.2 257.7 L372.9 257.7 L372.6 257.7 L372.3 257.7 L372.0 257.7 L371.8 257.7 L371.5 257.7 L371.5 258.0 L371.5 258.4 L371.2 258.4 L370.9 258.4 L370.6 258.4 L370.4 258.4 L370.1 258.4 L369.8 258.4 L369.5 258.4 L369.3 258.4 L369.0 258.4 L368.7 258.4 L368.4 258.4 L368.1 258.4 L367.9 258.4 L367.9 258.7 L367.6 258.7 L367.3 258.7 L367.0 258.7 L367.0 259.0 L367.3 259.0 Z" fill="#2f8f83" fill-opacity="0.34" stroke="#0e5b52" stroke-width="1.6" />
  <path d="M361.2 262.5 L361.2 262.8 L361.4 262.8 L361.7 262.8 L362.0 262.8 L362.3 262.8 L362.6 262.8 L362.8 262.8 L363.1 262.8 L363.4 262.8 L363.4 263.2 L363.4 263.5 L363.4 263.8 L363.4 264.1 L363.4 264.4 L363.4 264.8 L363.4 265.1 L363.7 265.1 L364.0 265.1 L364.2 265.1 L364.5 265.1 L364.8 265.1 L364.8 264.8 L365.1 264.8 L365.1 264.4 L365.4 264.4 L365.6 264.4 L365.9 264.4 L365.9 264.1 L366.2 264.1 L366.5 264.1 L366.7 264.1 L366.7 263.8 L366.7 263.5 L366.5 263.5 L366.5 263.2 L366.2 263.2 L366.2 262.8 L365.9 262.8 L365.9 262.5 L365.6 262.5 L365.6 262.2 L365.4 262.2 L365.1 262.2 L364.8 262.2 L364.5 262.2 L364.2 262.2 L364.0 262.2 L363.7 262.2 L363.4 262.2 L363.1 262.2 L362.8 262.2 L362.6 262.2 L362.3 262.2 L362.0 262.2 L361.7 262.2 L361.4 262.2 L361.2 262.2 L360.9 262.2 L360.9 262.5 L361.2 262.5 Z" fill="#2f8f83" fill-opacity="0.34" stroke="#0e5b52" stroke-width="1.6" />
  <path d="M373.2 270.5 L373.2 270.8 L373.4 270.8 L373.7 270.8 L373.7 270.5 L373.7 270.2 L373.7 269.9 L373.4 269.9 L373.2 269.9 L373.2 270.2 L373.2 270.5 Z" fill="#2f8f83" fill-opacity="0.34" stroke="#0e5b52" stroke-width="1.6" />
  <path d="M366.2 262.8 L366.2 263.2 L366.5 263.2 L366.5 263.5 L366.7 263.5 L366.7 263.8 L367.0 263.8 L367.3 263.8 L367.6 263.8 L367.6 264.1 L367.6 264.4 L367.9 264.4 L368.1 264.4 L368.4 264.4 L368.7 264.4 L369.0 264.4 L369.0 264.1 L368.7 264.1 L368.4 264.1 L368.4 263.8 L368.4 263.5 L368.7 263.5 L368.7 263.2 L368.4 263.2 L368.4 262.8 L368.1 262.8 L368.1 262.5 L367.9 262.5 L367.6 262.5 L367.6 262.2 L367.3 262.2 L367.3 261.9 L367.0 261.9 L367.0 261.6 L367.0 261.2 L366.7 261.2 L366.5 261.2 L366.2 261.2 L365.9 261.2 L365.9 261.6 L366.2 261.6 L366.2 261.9 L366.2 262.2 L366.2 262.5 L366.2 262.8 Z" fill="#2f8f83" fill-opacity="0.34" stroke="#0e5b52" stroke-width="1.6" />
  <path d="M369.0 264.1 L369.0 264.4 L369.3 264.4 L369.5 264.4 L369.8 264.4 L370.1 264.4 L370.4 264.4 L370.4 264.1 L370.4 263.8 L370.4 263.5 L370.1 263.5 L369.8 263.5 L369.5 263.5 L369.3 263.5 L369.0 263.5 L369.0 263.8 L369.0 264.1 Z" fill="#2f8f83" fill-opacity="0.34" stroke="#0e5b52" stroke-width="1.6" />
  <path d="M370.4 264.1 L370.4 264.4 L370.6 264.4 L370.9 264.4 L371.2 264.4 L371.5 264.4 L371.8 264.4 L372.0 264.4 L372.0 264.1 L372.0 263.8 L372.3 263.8 L372.6 263.8 L372.9 263.8 L372.9 263.5 L372.9 263.2 L372.9 262.8 L372.9 262.5 L372.6 262.5 L372.3 262.5 L372.0 262.5 L371.8 262.5 L371.8 262.8 L371.5 262.8 L371.2 262.8 L370.9 262.8 L370.6 262.8 L370.4 262.8 L370.4 263.2 L370.4 263.5 L370.4 263.8 L370.4 264.1 Z" fill="#2f8f83" fill-opacity="0.34" stroke="#0e5b52" stroke-width="1.6" />
  <path d="M367.6 265.1 L367.6 265.4 L367.9 265.4 L368.1 265.4 L368.4 265.4 L368.7 265.4 L369.0 265.4 L369.3 265.4 L369.5 265.4 L369.8 265.4 L370.1 265.4 L370.4 265.4 L370.6 265.4 L370.9 265.4 L371.2 265.4 L371.5 265.4 L371.8 265.4 L371.8 265.1 L372.0 265.1 L372.0 264.8 L372.0 264.4 L371.8 264.4 L371.5 264.4 L371.2 264.4 L370.9 264.4 L370.6 264.4 L370.4 264.4 L370.1 264.4 L369.8 264.4 L369.5 264.4 L369.3 264.4 L369.0 264.4 L368.7 264.4 L368.4 264.4 L368.1 264.4 L367.9 264.4 L367.6 264.4 L367.6 264.8 L367.6 265.1 Z" fill="#2f8f83" fill-opacity="0.34" stroke="#0e5b52" stroke-width="1.6" />
  <path d="M371.2 270.5 L371.2 270.8 L371.5 270.8 L371.8 270.8 L372.0 270.8 L372.3 270.8 L372.6 270.8 L372.9 270.8 L372.9 271.2 L372.9 271.5 L373.2 271.5 L373.4 271.5 L373.7 271.5 L373.7 271.2 L374.0 271.2 L374.0 270.8 L374.3 270.8 L374.6 270.8 L374.8 270.8 L374.8 270.5 L374.8 270.2 L374.8 269.9 L374.6 269.9 L374.3 269.9 L374.0 269.9 L374.0 270.2 L373.7 270.2 L373.7 270.5 L373.7 270.8 L373.4 270.8 L373.4 271.2 L373.2 271.2 L373.2 270.8 L373.2 270.5 L373.2 270.2 L373.2 269.9 L372.9 269.9 L372.6 269.9 L372.3 269.9 L372.0 269.9 L371.8 269.9 L371.5 269.9 L371.2 269.9 L371.2 270.2 L371.2 270.5 Z" fill="#2f8f83" fill-opacity="0.34" stroke="#0e5b52" stroke-width="1.6" />
  <path d="M304.0 126.0 L304.0 126.4 L304.3 126.4 L304.3 126.7 L304.6 126.7 L304.8 126.7 L305.1 126.7 L305.4 126.7 L305.7 126.7 L306.0 126.7 L306.0 126.4 L306.0 126.0 L306.0 125.7 L306.0 125.4 L306.0 125.0 L306.0 124.7 L306.0 124.4 L306.0 124.0 L306.0 123.7 L306.0 123.4 L306.0 123.0 L306.0 122.7 L306.0 122.4 L306.0 122.0 L305.7 122.0 L305.4 122.0 L305.1 122.0 L304.8 122.0 L304.6 122.0 L304.3 122.0 L304.0 122.0 L304.0 122.4 L304.0 122.7 L304.0 123.0 L304.0 123.4 L304.0 123.7 L304.0 124.0 L304.0 124.4 L304.0 124.7 L304.0 125.0 L304.0 125.4 L304.0 125.7 L304.0 126.0 Z" fill="#2f8f83" fill-opacity="0.34" stroke="#0e5b52" stroke-width="1.6" />
  <path d="M711.0 524.6 L711.0 524.9 L711.3 524.9 L711.6 524.9 L711.9 524.9 L712.2 524.9 L712.4 524.9 L712.7 524.9 L713.0 524.9 L713.3 524.9 L713.5 524.9 L713.8 524.9 L714.1 524.9 L714.4 524.9 L714.7 524.9 L714.9 524.9 L714.9 524.6 L714.9 524.3 L714.9 524.0 L714.9 523.7 L714.9 523.4 L714.9 523.1 L714.9 522.8 L714.9 522.5 L714.9 522.2 L714.9 521.9 L714.9 521.6 L714.9 521.3 L714.9 521.0 L714.9 520.7 L714.9 520.4 L714.9 520.2 L714.9 519.9 L714.7 519.9 L714.4 519.9 L714.4 520.2 L714.4 520.4 L714.4 520.7 L714.4 521.0 L714.4 521.3 L714.4 521.6 L714.4 521.9 L714.4 522.2 L714.4 522.5 L714.4 522.8 L714.4 523.1 L714.4 523.4 L714.4 523.7 L714.4 524.0 L714.4 524.3 L714.1 524.3 L713.8 524.3 L713.5 524.3 L713.3 524.3 L713.0 524.3 L712.7 524.3 L712.4 524.3 L712.2 524.3 L711.9 524.3 L711.6 524.3 L711.3 524.3 L711.0 524.3 L711.0 524.6 Z" fill="#2f8f83" fill-opacity="0.34" stroke="#0e5b52" stroke-width="1.6" />
  <!-- title strip -->
  <rect x="0" y="0" width="1000" height="54" fill="#173042" />
  <text x="20" y="34" font-size="21" font-weight="bold" fill="#ffffff">Decade Resources Ltd. — Mineral Claims</text>
  <text x="980" y="34" font-size="15" fill="#cfe3df" text-anchor="end">DEC</text>
  <!-- scale bar -->
  <g transform="translate(910, 596)">
    <rect x="0" y="0" width="25" height="8" fill="#173042" />
    <rect x="25" y="0" width="25" height="8" fill="#ffffff" stroke="#173042" stroke-width="1" />
    <text x="25" y="-6" font-size="12" fill="#173042" text-anchor="middle">50 km</text>
  </g>
  <!-- north arrow -->
  <g transform="translate(956, 92)">
    <circle r="17" fill="#ffffff" stroke="#b9b09a" />
    <path d="M0 -10 L5 7 L0 3 L-5 7 Z" fill="#173042" />
    <text y="14" font-size="9" font-weight="bold" fill="#173042" text-anchor="middle">N</text>
  </g>
  <!-- watermark -->
  <text x="20" y="620" font-size="13" fill="#7d8b8a">Map by Exploration Maps — explorationmaps.com</text>
</svg>