<svg xmlns="http://www.w3.org/2000/svg" viewBox="0 0 1000 640" font-family="Arial, Helvetica, sans-serif">
  <rect width="1000" height="640" fill="#f3efe6" />
  <line x1="200" y1="0" x2="200" y2="640" stroke="#d9d2c0" stroke-width="0.7" />
  <line x1="0" y1="128" x2="1000" y2="128" stroke="#d9d2c0" stroke-width="0.7" />
  <line x1="400" y1="0" x2="400" y2="640" stroke="#d9d2c0" stroke-width="0.7" />
  <line x1="0" y1="256" x2="1000" y2="256" stroke="#d9d2c0" stroke-width="0.7" />
  <line x1="600" y1="0" x2="600" y2="640" stroke="#d9d2c0" stroke-width="0.7" />
  <line x1="0" y1="384" x2="1000" y2="384" stroke="#d9d2c0" stroke-width="0.7" />
  <line x1="800" y1="0" x2="800" y2="640" stroke="#d9d2c0" stroke-width="0.7" />
  <line x1="0" y1="512" x2="1000" y2="512" stroke="#d9d2c0" stroke-width="0.7" />
  <path d="M512.3 447.0 L510.4 447.0 L510.4 449.0 L512.3 449.0 L514.2 449.0 L514.2 447.0 L512.3 447.0 Z" fill="#2f8f83" fill-opacity="0.34" stroke="#0e5b52" stroke-width="1.6" />
  <path d="M516.1 447.0 L514.2 447.0 L514.2 449.0 L516.1 449.0 L518.0 449.0 L518.0 447.0 L516.1 447.0 Z" fill="#2f8f83" fill-opacity="0.34" stroke="#0e5b52" stroke-width="1.6" />
  <path d="M518.0 449.0 L516.1 449.0 L516.1 450.9 L518.0 450.9 L518.0 449.0 Z" fill="#2f8f83" fill-opacity="0.34" stroke="#0e5b52" stroke-width="1.6" />
  <path d="M516.1 449.0 L514.2 449.0 L514.2 450.9 L516.1 450.9 L516.1 449.0 Z" fill="#2f8f83" fill-opacity="0.34" stroke="#0e5b52" stroke-width="1.6" />
  <path d="M521.8 425.8 L521.8 427.7 L523.6 427.7 L525.5 427.7 L527.4 427.7 L529.3 427.7 L531.2 427.7 L533.1 427.7 L535.0 427.7 L536.9 427.7 L538.8 427.7 L538.8 425.8 L538.8 423.9 L538.8 421.9 L538.8 420.0 L536.9 420.0 L535.0 420.0 L535.0 421.9 L535.0 423.9 L533.1 423.9 L531.2 423.9 L529.3 423.9 L527.4 423.9 L525.5 423.9 L523.6 423.9 L521.8 423.9 L521.8 425.8 Z" fill="#2f8f83" fill-opacity="0.34" stroke="#0e5b52" stroke-width="1.6" />
  <path d="M538.8 425.8 L538.8 427.7 L540.7 427.7 L542.6 427.7 L542.6 425.8 L542.6 423.9 L540.7 423.9 L538.8 423.9 L538.8 425.8 Z" fill="#2f8f83" fill-opacity="0.34" stroke="#0e5b52" stroke-width="1.6" />
  <path d="M516.1 427.7 L516.1 429.7 L518.0 429.7 L519.9 429.7 L521.8 429.7 L521.8 427.7 L521.8 425.8 L519.9 425.8 L518.0 425.8 L516.1 425.8 L516.1 427.7 Z" fill="#2f8f83" fill-opacity="0.34" stroke="#0e5b52" stroke-width="1.6" />
  <path d="M506.6 433.5 L506.6 435.5 L506.6 437.4 L508.5 437.4 L510.4 437.4 L512.3 437.4 L514.2 437.4 L516.1 437.4 L518.0 437.4 L518.0 435.5 L519.9 435.5 L521.8 435.5 L521.8 433.5 L521.8 431.6 L521.8 429.7 L519.9 429.7 L518.0 429.7 L516.1 429.7 L516.1 431.6 L514.2 431.6 L514.2 433.5 L512.3 433.5 L510.4 433.5 L508.5 433.5 L508.5 431.6 L506.6 431.6 L506.6 433.5 Z" fill="#2f8f83" fill-opacity="0.34" stroke="#0e5b52" stroke-width="1.6" />
  <path d="M506.6 439.3 L506.6 441.2 L506.6 443.2 L506.6 445.1 L508.5 445.1 L510.4 445.1 L512.3 445.1 L514.2 445.1 L516.1 445.1 L518.0 445.1 L518.0 443.2 L518.0 441.2 L518.0 439.3 L518.0 437.4 L516.1 437.4 L514.2 437.4 L512.3 437.4 L510.4 437.4 L508.5 437.4 L506.6 437.4 L506.6 439.3 Z" fill="#2f8f83" fill-opacity="0.34" stroke="#0e5b52" stroke-width="1.6" />
  <path d="M504.7 445.1 L502.8 445.1 L502.8 447.0 L504.7 447.0 L504.7 449.0 L506.6 449.0 L506.6 450.9 L508.5 450.9 L508.5 452.8 L508.5 454.7 L510.4 454.7 L512.3 454.7 L514.2 454.7 L516.1 454.7 L518.0 454.7 L518.0 452.8 L518.0 450.9 L516.1 450.9 L514.2 450.9 L514.2 449.0 L512.3 449.0 L510.4 449.0 L510.4 447.0 L512.3 447.0 L514.2 447.0 L516.1 447.0 L518.0 447.0 L518.0 445.1 L516.1 445.1 L514.2 445.1 L512.3 445.1 L510.4 445.1 L508.5 445.1 L506.6 445.1 L504.7 445.1 Z" fill="#2f8f83" fill-opacity="0.34" stroke="#0e5b52" stroke-width="1.6" />
  <path d="M508.5 456.7 L508.5 458.6 L510.4 458.6 L510.4 460.5 L512.3 460.5 L514.2 460.5 L516.1 460.5 L518.0 460.5 L519.9 460.5 L519.9 458.6 L519.9 456.7 L519.9 454.7 L518.0 454.7 L516.1 454.7 L514.2 454.7 L512.3 454.7 L510.4 454.7 L508.5 454.7 L508.5 456.7 Z" fill="#2f8f83" fill-opacity="0.34" stroke="#0e5b52" stroke-width="1.6" />
  <path d="M514.2 460.5 L512.3 460.5 L512.3 462.4 L514.2 462.4 L514.2 464.4 L514.2 466.3 L514.2 468.2 L516.1 468.2 L518.0 468.2 L519.9 468.2 L519.9 466.3 L519.9 464.4 L519.9 462.4 L519.9 460.5 L518.0 460.5 L516.1 460.5 L514.2 460.5 Z" fill="#2f8f83" fill-opacity="0.34" stroke="#0e5b52" stroke-width="1.6" />
  <path d="M504.7 437.4 L504.7 439.3 L504.7 441.2 L504.7 443.2 L504.7 445.1 L506.6 445.1 L506.6 443.2 L506.6 441.2 L506.6 439.3 L506.6 437.4 L506.6 435.5 L504.7 435.5 L504.7 437.4 Z" fill="#2f8f83" fill-opacity="0.34" stroke="#0e5b52" stroke-width="1.6" />
  <path d="M444.2 193.1 L444.2 195.0 L444.2 197.0 L446.1 197.0 L446.1 195.0 L446.1 193.1 L446.1 191.1 L444.2 191.1 L444.2 193.1 Z" fill="#2f8f83" fill-opacity="0.34" stroke="#0e5b52" stroke-width="1.6" />
  <path d="M440.4 189.2 L440.4 191.1 L440.4 193.1 L440.4 195.0 L442.3 195.0 L444.2 195.0 L444.2 193.1 L444.2 191.1 L446.1 191.1 L446.1 193.1 L446.1 195.0 L448.0 195.0 L449.9 195.0 L449.9 193.1 L449.9 191.1 L449.9 189.2 L449.9 187.2 L448.0 187.2 L446.1 187.2 L444.2 187.2 L442.3 187.2 L440.4 187.2 L440.4 189.2 Z" fill="#2f8f83" fill-opacity="0.34" stroke="#0e5b52" stroke-width="1.6" />
  <path d="M440.4 197.0 L440.4 198.9 L440.4 200.9 L440.4 202.8 L442.3 202.8 L444.2 202.8 L446.1 202.8 L448.0 202.8 L449.9 202.8 L449.9 200.9 L449.9 198.9 L449.9 197.0 L449.9 195.0 L448.0 195.0 L446.1 195.0 L446.1 197.0 L444.2 197.0 L444.2 195.0 L442.3 195.0 L440.4 195.0 L440.4 197.0 Z" fill="#2f8f83" fill-opacity="0.34" stroke="#0e5b52" stroke-width="1.6" />
  <path d="M440.4 179.4 L440.4 181.4 L440.4 183.3 L440.4 185.3 L440.4 187.2 L442.3 187.2 L444.2 187.2 L446.1 187.2 L448.0 187.2 L449.9 187.2 L449.9 185.3 L449.9 183.3 L449.9 181.4 L449.9 179.4 L449.9 177.5 L448.0 177.5 L446.1 177.5 L444.2 177.5 L442.3 177.5 L440.4 177.5 L440.4 179.4 Z" fill="#2f8f83" fill-opacity="0.34" stroke="#0e5b52" stroke-width="1.6" />
  <path d="M436.7 179.4 L436.7 181.4 L436.7 183.3 L436.7 185.3 L436.7 187.2 L438.5 187.2 L440.4 187.2 L440.4 185.3 L440.4 183.3 L440.4 181.4 L440.4 179.4 L440.4 177.5 L438.5 177.5 L436.7 177.5 L436.7 179.4 Z" fill="#2f8f83" fill-opacity="0.34" stroke="#0e5b52" stroke-width="1.6" />
  <path d="M436.7 189.2 L436.7 191.1 L436.7 193.1 L436.7 195.0 L436.7 197.0 L436.7 198.9 L436.7 200.9 L436.7 202.8 L438.5 202.8 L440.4 202.8 L440.4 200.9 L440.4 198.9 L440.4 197.0 L440.4 195.0 L440.4 193.1 L440.4 191.1 L440.4 189.2 L440.4 187.2 L438.5 187.2 L436.7 187.2 L436.7 189.2 Z" fill="#2f8f83" fill-opacity="0.34" stroke="#0e5b52" stroke-width="1.6" />
  <path d="M436.7 204.8 L436.7 206.7 L436.7 208.7 L438.5 208.7 L440.4 208.7 L442.3 208.7 L444.2 208.7 L446.1 208.7 L446.1 206.7 L446.1 204.8 L446.1 202.8 L444.2 202.8 L442.3 202.8 L440.4 202.8 L438.5 202.8 L436.7 202.8 L436.7 204.8 Z" fill="#2f8f83" fill-opacity="0.34" stroke="#0e5b52" stroke-width="1.6" />
  <path d="M427.2 173.6 L427.2 175.5 L427.2 177.5 L429.1 177.5 L431.0 177.5 L432.9 177.5 L434.8 177.5 L436.7 177.5 L438.5 177.5 L440.4 177.5 L440.4 175.5 L440.4 173.6 L440.4 171.6 L438.5 171.6 L436.7 171.6 L434.8 171.6 L432.9 171.6 L431.0 171.6 L429.1 171.6 L427.2 171.6 L427.2 173.6 Z" fill="#2f8f83" fill-opacity="0.34" stroke="#0e5b52" stroke-width="1.6" />
  <path d="M427.2 179.4 L427.2 181.4 L427.2 183.3 L427.2 185.3 L429.1 185.3 L431.0 185.3 L432.9 185.3 L434.8 185.3 L436.7 185.3 L436.7 183.3 L436.7 181.4 L436.7 179.4 L436.7 177.5 L434.8 177.5 L432.9 177.5 L431.0 177.5 L429.1 177.5 L427.2 177.5 L427.2 179.4 Z" fill="#2f8f83" fill-opacity="0.34" stroke="#0e5b52" stroke-width="1.6" />
  <path d="M427.2 187.2 L427.2 189.2 L427.2 191.1 L427.2 193.1 L427.2 195.0 L429.1 195.0 L431.0 195.0 L432.9 195.0 L434.8 195.0 L436.7 195.0 L436.7 193.1 L436.7 191.1 L436.7 189.2 L436.7 187.2 L436.7 185.3 L434.8 185.3 L432.9 185.3 L431.0 185.3 L429.1 185.3 L427.2 185.3 L427.2 187.2 Z" fill="#2f8f83" fill-opacity="0.34" stroke="#0e5b52" stroke-width="1.6" />
  <path d="M427.2 197.0 L427.2 198.9 L427.2 200.9 L427.2 202.8 L429.1 202.8 L431.0 202.8 L432.9 202.8 L434.8 202.8 L436.7 202.8 L436.7 200.9 L436.7 198.9 L436.7 197.0 L436.7 195.0 L434.8 195.0 L432.9 195.0 L431.0 195.0 L429.1 195.0 L427.2 195.0 L427.2 197.0 Z" fill="#2f8f83" fill-opacity="0.34" stroke="#0e5b52" stroke-width="1.6" />
  <path d="M427.2 204.8 L427.2 206.7 L427.2 208.7 L429.1 208.7 L431.0 208.7 L432.9 208.7 L434.8 208.7 L436.7 208.7 L436.7 206.7 L436.7 204.8 L436.7 202.8 L434.8 202.8 L432.9 202.8 L431.0 202.8 L429.1 202.8 L427.2 202.8 L427.2 204.8 Z" fill="#2f8f83" fill-opacity="0.34" stroke="#0e5b52" stroke-width="1.6" />
  <path d="M497.2 420.0 L497.2 422.0 L497.2 423.9 L497.2 425.8 L499.1 425.8 L499.1 423.9 L501.0 423.9 L502.8 423.9 L502.8 422.0 L502.8 420.0 L502.8 418.1 L501.0 418.1 L499.1 418.1 L497.2 418.1 L497.2 420.0 Z" fill="#2f8f83" fill-opacity="0.34" stroke="#0e5b52" stroke-width="1.6" />
  <path d="M501.0 439.3 L501.0 441.2 L501.0 443.2 L502.8 443.2 L504.7 443.2 L504.7 441.2 L504.7 439.3 L504.7 437.4 L502.8 437.4 L501.0 437.4 L501.0 439.3 Z" fill="#2f8f83" fill-opacity="0.34" stroke="#0e5b52" stroke-width="1.6" />
  <path d="M501.0 423.9 L499.1 423.9 L499.1 425.8 L501.0 425.8 L502.8 425.8 L502.8 423.9 L501.0 423.9 Z" fill="#2f8f83" fill-opacity="0.34" stroke="#0e5b52" stroke-width="1.6" />
  <path d="M502.8 433.5 L502.8 435.5 L502.8 437.4 L504.7 437.4 L504.7 435.5 L504.7 433.5 L504.7 431.6 L502.8 431.6 L502.8 433.5 Z" fill="#2f8f83" fill-opacity="0.34" stroke="#0e5b52" stroke-width="1.6" />
  <path d="M497.2 427.7 L497.2 429.7 L497.2 431.6 L499.1 431.6 L501.0 431.6 L501.0 433.5 L501.0 435.5 L501.0 437.4 L502.8 437.4 L502.8 435.5 L502.8 433.5 L502.8 431.6 L502.8 429.7 L501.0 429.7 L499.1 429.7 L499.1 427.7 L499.1 425.8 L497.2 425.8 L497.2 427.7 Z" fill="#2f8f83" fill-opacity="0.34" stroke="#0e5b52" stroke-width="1.6" />
  <path d="M552.0 408.4 L552.0 410.4 L552.0 412.3 L552.0 414.2 L552.0 416.2 L553.9 416.2 L555.8 416.2 L557.7 416.2 L559.6 416.2 L561.5 416.2 L561.5 414.2 L561.5 412.3 L561.5 410.4 L561.5 408.4 L561.5 406.5 L559.6 406.5 L557.7 406.5 L555.8 406.5 L553.9 406.5 L552.0 406.5 L552.0 408.4 Z" fill="#2f8f83" fill-opacity="0.34" stroke="#0e5b52" stroke-width="1.6" />
  <path d="M518.0 437.4 L518.0 439.3 L518.0 441.2 L518.0 443.2 L518.0 445.1 L518.0 447.0 L518.0 449.0 L518.0 450.9 L518.0 452.8 L518.0 454.7 L519.9 454.7 L521.8 454.7 L521.8 452.8 L521.8 450.9 L521.8 449.0 L521.8 447.0 L521.8 445.1 L521.8 443.2 L521.8 441.2 L521.8 439.3 L521.8 437.4 L521.8 435.5 L519.9 435.5 L518.0 435.5 L518.0 437.4 Z" fill="#2f8f83" fill-opacity="0.34" stroke="#0e5b52" stroke-width="1.6" />
  <path d="M514.2 470.1 L514.2 472.1 L514.2 474.0 L516.1 474.0 L518.0 474.0 L519.9 474.0 L521.8 474.0 L521.8 472.1 L521.8 470.1 L521.8 468.2 L521.8 466.3 L521.8 464.4 L521.8 462.4 L521.8 460.5 L521.8 458.6 L521.8 456.7 L521.8 454.7 L519.9 454.7 L519.9 456.7 L519.9 458.6 L519.9 460.5 L519.9 462.4 L519.9 464.4 L519.9 466.3 L519.9 468.2 L518.0 468.2 L516.1 468.2 L514.2 468.2 L514.2 470.1 Z" fill="#2f8f83" fill-opacity="0.34" stroke="#0e5b52" stroke-width="1.6" />
  <path d="M508.5 460.5 L508.5 462.4 L508.5 464.4 L508.5 466.3 L508.5 468.2 L508.5 470.1 L508.5 472.1 L508.5 474.0 L510.4 474.0 L512.3 474.0 L514.2 474.0 L514.2 472.1 L514.2 470.1 L514.2 468.2 L514.2 466.3 L514.2 464.4 L514.2 462.4 L512.3 462.4 L512.3 460.5 L510.4 460.5 L510.4 458.6 L508.5 458.6 L508.5 460.5 Z" fill="#2f8f83" fill-opacity="0.34" stroke="#0e5b52" stroke-width="1.6" />
  <path d="M508.5 475.9 L508.5 477.8 L510.4 477.8 L512.3 477.8 L514.2 477.8 L516.1 477.8 L518.0 477.8 L519.9 477.8 L521.8 477.8 L521.8 475.9 L521.8 474.0 L519.9 474.0 L518.0 474.0 L516.1 474.0 L514.2 474.0 L512.3 474.0 L510.4 474.0 L508.5 474.0 L508.5 475.9 Z" fill="#2f8f83" fill-opacity="0.34" stroke="#0e5b52" stroke-width="1.6" />
  <path d="M521.8 464.4 L521.8 466.3 L521.8 468.2 L521.8 470.1 L521.8 472.1 L521.8 474.0 L521.8 475.9 L521.8 477.8 L523.6 477.8 L525.5 477.8 L525.5 475.9 L525.5 474.0 L525.5 472.1 L525.5 470.1 L525.5 468.2 L525.5 466.3 L525.5 464.4 L525.5 462.4 L523.6 462.4 L521.8 462.4 L521.8 464.4 Z" fill="#2f8f83" fill-opacity="0.34" stroke="#0e5b52" stroke-width="1.6" />
  <path d="M508.5 479.8 L508.5 481.7 L510.4 481.7 L512.3 481.7 L514.2 481.7 L516.1 481.7 L518.0 481.7 L519.9 481.7 L521.8 481.7 L523.6 481.7 L525.5 481.7 L525.5 479.8 L525.5 477.8 L523.6 477.8 L521.8 477.8 L519.9 477.8 L518.0 477.8 L516.1 477.8 L514.2 477.8 L512.3 477.8 L510.4 477.8 L508.5 477.8 L508.5 479.8 Z" fill="#2f8f83" fill-opacity="0.34" stroke="#0e5b52" stroke-width="1.6" />
  <path d="M504.7 483.6 L504.7 485.5 L506.6 485.5 L508.5 485.5 L510.4 485.5 L512.3 485.5 L514.2 485.5 L516.1 485.5 L518.0 485.5 L519.9 485.5 L521.8 485.5 L523.6 485.5 L525.5 485.5 L525.5 483.6 L525.5 481.7 L523.6 481.7 L521.8 481.7 L519.9 481.7 L518.0 481.7 L516.1 481.7 L514.2 481.7 L512.3 481.7 L510.4 481.7 L508.5 481.7 L506.6 481.7 L504.7 481.7 L504.7 483.6 Z" fill="#2f8f83" fill-opacity="0.34" stroke="#0e5b52" stroke-width="1.6" />
  <path d="M504.7 487.5 L504.7 489.4 L506.6 489.4 L508.5 489.4 L510.4 489.4 L512.3 489.4 L514.2 489.4 L516.1 489.4 L518.0 489.4 L519.9 489.4 L521.8 489.4 L523.6 489.4 L525.5 489.4 L525.5 487.5 L525.5 485.5 L523.6 485.5 L521.8 485.5 L519.9 485.5 L518.0 485.5 L516.1 485.5 L514.2 485.5 L512.3 485.5 L510.4 485.5 L508.5 485.5 L506.6 485.5 L504.7 485.5 L504.7 487.5 Z" fill="#2f8f83" fill-opacity="0.34" stroke="#0e5b52" stroke-width="1.6" />
  <path d="M504.7 491.3 L504.7 493.2 L504.7 495.2 L506.6 495.2 L508.5 495.2 L510.4 495.2 L512.3 495.2 L514.2 495.2 L514.2 493.2 L514.2 491.3 L514.2 489.4 L512.3 489.4 L510.4 489.4 L508.5 489.4 L506.6 489.4 L504.7 489.4 L504.7 491.3 Z" fill="#2f8f83" fill-opacity="0.34" stroke="#0e5b52" stroke-width="1.6" />
  <path d="M514.2 491.3 L514.2 493.2 L514.2 495.2 L516.1 495.2 L518.0 495.2 L519.9 495.2 L521.8 495.2 L523.6 495.2 L525.5 495.2 L525.5 493.2 L525.5 491.3 L525.5 489.4 L523.6 489.4 L521.8 489.4 L519.9 489.4 L518.0 489.4 L516.1 489.4 L514.2 489.4 L514.2 491.3 Z" fill="#2f8f83" fill-opacity="0.34" stroke="#0e5b52" stroke-width="1.6" />
  <path d="M508.5 497.1 L508.5 499.0 L510.4 499.0 L512.3 499.0 L514.2 499.0 L516.1 499.0 L518.0 499.0 L519.9 499.0 L521.8 499.0 L523.6 499.0 L525.5 499.0 L525.5 497.1 L525.5 495.2 L523.6 495.2 L521.8 495.2 L519.9 495.2 L518.0 495.2 L516.1 495.2 L514.2 495.2 L512.3 495.2 L510.4 495.2 L508.5 495.2 L508.5 497.1 Z" fill="#2f8f83" fill-opacity="0.34" stroke="#0e5b52" stroke-width="1.6" />
  <path d="M493.4 497.1 L493.4 499.0 L495.3 499.0 L497.2 499.0 L499.1 499.0 L501.0 499.0 L502.8 499.0 L504.7 499.0 L506.6 499.0 L508.5 499.0 L508.5 497.1 L508.5 495.2 L506.6 495.2 L504.7 495.2 L502.8 495.2 L501.0 495.2 L499.1 495.2 L497.2 495.2 L495.3 495.2 L493.4 495.2 L493.4 497.1 Z" fill="#2f8f83" fill-opacity="0.34" stroke="#0e5b52" stroke-width="1.6" />
  <path d="M512.3 500.9 L512.3 502.9 L512.3 504.8 L514.2 504.8 L516.1 504.8 L518.0 504.8 L519.9 504.8 L521.8 504.8 L523.6 504.8 L525.5 504.8 L525.5 502.9 L525.5 500.9 L525.5 499.0 L523.6 499.0 L521.8 499.0 L519.9 499.0 L518.0 499.0 L516.1 499.0 L514.2 499.0 L512.3 499.0 L512.3 500.9 Z" fill="#2f8f83" fill-opacity="0.34" stroke="#0e5b52" stroke-width="1.6" />
  <path d="M499.1 500.9 L499.1 502.9 L499.1 504.8 L501.0 504.8 L502.8 504.8 L504.7 504.8 L506.6 504.8 L508.5 504.8 L510.4 504.8 L512.3 504.8 L512.3 502.9 L512.3 500.9 L512.3 499.0 L510.4 499.0 L508.5 499.0 L506.6 499.0 L504.7 499.0 L502.8 499.0 L501.0 499.0 L499.1 499.0 L499.1 500.9 Z" fill="#2f8f83" fill-opacity="0.34" stroke="#0e5b52" stroke-width="1.6" />
  <path d="M485.8 500.9 L485.8 502.9 L485.8 504.8 L487.7 504.8 L489.6 504.8 L491.5 504.8 L493.4 504.8 L495.3 504.8 L497.2 504.8 L499.1 504.8 L499.1 502.9 L499.1 500.9 L499.1 499.0 L497.2 499.0 L495.3 499.0 L493.4 499.0 L491.5 499.0 L489.6 499.0 L487.7 499.0 L485.8 499.0 L485.8 500.9 Z" fill="#2f8f83" fill-opacity="0.34" stroke="#0e5b52" stroke-width="1.6" />
  <path d="M472.6 500.9 L472.6 502.9 L472.6 504.8 L474.5 504.8 L476.4 504.8 L478.3 504.8 L480.2 504.8 L482.0 504.8 L483.9 504.8 L485.8 504.8 L485.8 502.9 L485.8 500.9 L485.8 499.0 L483.9 499.0 L482.0 499.0 L480.2 499.0 L478.3 499.0 L476.4 499.0 L474.5 499.0 L472.6 499.0 L472.6 500.9 Z" fill="#2f8f83" fill-opacity="0.34" stroke="#0e5b52" stroke-width="1.6" />
  <path d="M512.3 506.7 L512.3 508.6 L512.3 510.6 L514.2 510.6 L516.1 510.6 L518.0 510.6 L518.0 508.6 L518.0 506.7 L519.9 506.7 L519.9 508.6 L519.9 510.6 L521.8 510.6 L523.6 510.6 L525.5 510.6 L525.5 508.6 L525.5 506.7 L525.5 504.8 L523.6 504.8 L521.8 504.8 L519.9 504.8 L518.0 504.8 L516.1 504.8 L514.2 504.8 L512.3 504.8 L512.3 506.7 Z" fill="#2f8f83" fill-opacity="0.34" stroke="#0e5b52" stroke-width="1.6" />
  <path d="M472.6 506.7 L472.6 508.6 L472.6 510.6 L474.5 510.6 L476.4 510.6 L478.3 510.6 L480.2 510.6 L482.0 510.6 L483.9 510.6 L485.8 510.6 L485.8 508.6 L485.8 506.7 L485.8 504.8 L483.9 504.8 L482.0 504.8 L480.2 504.8 L478.3 504.8 L476.4 504.8 L474.5 504.8 L472.6 504.8 L472.6 506.7 Z" fill="#2f8f83" fill-opacity="0.34" stroke="#0e5b52" stroke-width="1.6" />
  <path d="M485.8 506.7 L485.8 508.6 L485.8 510.6 L487.7 510.6 L489.6 510.6 L491.5 510.6 L493.4 510.6 L495.3 510.6 L497.2 510.6 L499.1 510.6 L499.1 508.6 L499.1 506.7 L499.1 504.8 L497.2 504.8 L495.3 504.8 L493.4 504.8 L491.5 504.8 L489.6 504.8 L487.7 504.8 L485.8 504.8 L485.8 506.7 Z" fill="#2f8f83" fill-opacity="0.34" stroke="#0e5b52" stroke-width="1.6" />
  <path d="M499.1 506.7 L499.1 508.6 L499.1 510.6 L501.0 510.6 L502.8 510.6 L504.7 510.6 L506.6 510.6 L508.5 510.6 L510.4 510.6 L512.3 510.6 L512.3 508.6 L512.3 506.7 L512.3 504.8 L510.4 504.8 L508.5 504.8 L506.6 504.8 L504.7 504.8 L502.8 504.8 L501.0 504.8 L499.1 504.8 L499.1 506.7 Z" fill="#2f8f83" fill-opacity="0.34" stroke="#0e5b52" stroke-width="1.6" />
  <path d="M512.3 512.5 L512.3 514.4 L512.3 516.3 L514.2 516.3 L516.1 516.3 L518.0 516.3 L518.0 514.4 L518.0 512.5 L519.9 512.5 L519.9 514.4 L519.9 516.3 L521.8 516.3 L523.6 516.3 L525.5 516.3 L525.5 514.4 L525.5 512.5 L525.5 510.6 L523.6 510.6 L521.8 510.6 L519.9 510.6 L518.0 510.6 L516.1 510.6 L514.2 510.6 L512.3 510.6 L512.3 512.5 Z" fill="#2f8f83" fill-opacity="0.34" stroke="#0e5b52" stroke-width="1.6" />
  <path d="M512.3 518.2 L512.3 520.2 L512.3 522.1 L514.2 522.1 L516.1 522.1 L518.0 522.1 L519.9 522.1 L521.8 522.1 L523.6 522.1 L525.5 522.1 L525.5 520.2 L525.5 518.2 L525.5 516.3 L523.6 516.3 L521.8 516.3 L519.9 516.3 L518.0 516.3 L516.1 516.3 L514.2 516.3 L512.3 516.3 L512.3 518.2 Z" fill="#2f8f83" fill-opacity="0.34" stroke="#0e5b52" stroke-width="1.6" />
  <path d="M472.6 512.5 L472.6 514.4 L472.6 516.3 L474.5 516.3 L476.4 516.3 L478.3 516.3 L480.2 516.3 L482.0 516.3 L483.9 516.3 L485.8 516.3 L485.8 514.4 L485.8 512.5 L485.8 510.6 L483.9 510.6 L482.0 510.6 L480.2 510.6 L478.3 510.6 L476.4 510.6 L474.5 510.6 L472.6 510.6 L472.6 512.5 Z" fill="#2f8f83" fill-opacity="0.34" stroke="#0e5b52" stroke-width="1.6" />
  <path d="M499.1 512.5 L499.1 514.4 L499.1 516.3 L501.0 516.3 L502.8 516.3 L504.7 516.3 L506.6 516.3 L508.5 516.3 L510.4 516.3 L512.3 516.3 L512.3 514.4 L512.3 512.5 L512.3 510.6 L510.4 510.6 L508.5 510.6 L506.6 510.6 L504.7 510.6 L502.8 510.6 L501.0 510.6 L499.1 510.6 L499.1 512.5 Z" fill="#2f8f83" fill-opacity="0.34" stroke="#0e5b52" stroke-width="1.6" />
  <path d="M485.8 512.5 L485.8 514.4 L485.8 516.3 L487.7 516.3 L489.6 516.3 L491.5 516.3 L493.4 516.3 L495.3 516.3 L497.2 516.3 L499.1 516.3 L499.1 514.4 L499.1 512.5 L499.1 510.6 L497.2 510.6 L495.3 510.6 L493.4 510.6 L491.5 510.6 L489.6 510.6 L487.7 510.6 L485.8 510.6 L485.8 512.5 Z" fill="#2f8f83" fill-opacity="0.34" stroke="#0e5b52" stroke-width="1.6" />
  <path d="M499.1 518.2 L499.1 520.2 L499.1 522.1 L501.0 522.1 L502.8 522.1 L504.7 522.1 L506.6 522.1 L508.5 522.1 L510.4 522.1 L512.3 522.1 L512.3 520.2 L512.3 518.2 L512.3 516.3 L510.4 516.3 L508.5 516.3 L506.6 516.3 L504.7 516.3 L502.8 516.3 L501.0 516.3 L499.1 516.3 L499.1 518.2 Z" fill="#2f8f83" fill-opacity="0.34" stroke="#0e5b52" stroke-width="1.6" />
  <path d="M485.8 518.2 L485.8 520.2 L485.8 522.1 L487.7 522.1 L489.6 522.1 L491.5 522.1 L493.4 522.1 L495.3 522.1 L497.2 522.1 L499.1 522.1 L499.1 520.2 L499.1 518.2 L499.1 516.3 L497.2 516.3 L495.3 516.3 L493.4 516.3 L491.5 516.3 L489.6 516.3 L487.7 516.3 L485.8 516.3 L485.8 518.2 Z" fill="#2f8f83" fill-opacity="0.34" stroke="#0e5b52" stroke-width="1.6" />
  <path d="M472.6 518.2 L472.6 520.2 L472.6 522.1 L474.5 522.1 L476.4 522.1 L478.3 522.1 L480.2 522.1 L482.0 522.1 L483.9 522.1 L485.8 522.1 L485.8 520.2 L485.8 518.2 L485.8 516.3 L483.9 516.3 L482.0 516.3 L480.2 516.3 L478.3 516.3 L476.4 516.3 L474.5 516.3 L472.6 516.3 L472.6 518.2 Z" fill="#2f8f83" fill-opacity="0.34" stroke="#0e5b52" stroke-width="1.6" />
  <path d="M417.7 179.4 L417.7 181.4 L419.6 181.4 L421.5 181.4 L423.4 181.4 L425.3 181.4 L427.2 181.4 L427.2 179.4 L427.2 177.5 L427.2 175.5 L427.2 173.6 L427.2 171.6 L425.3 171.6 L425.3 169.7 L423.4 169.7 L423.4 171.6 L423.4 173.6 L423.4 175.5 L423.4 177.5 L421.5 177.5 L419.6 177.5 L417.7 177.5 L417.7 179.4 Z" fill="#2f8f83" fill-opacity="0.34" stroke="#0e5b52" stroke-width="1.6" />
  <path d="M417.7 183.3 L417.7 185.3 L417.7 187.2 L417.7 189.2 L419.6 189.2 L421.5 189.2 L423.4 189.2 L425.3 189.2 L427.2 189.2 L427.2 187.2 L427.2 185.3 L427.2 183.3 L427.2 181.4 L425.3 181.4 L423.4 181.4 L421.5 181.4 L419.6 181.4 L417.7 181.4 L417.7 183.3 Z" fill="#2f8f83" fill-opacity="0.34" stroke="#0e5b52" stroke-width="1.6" />
  <path d="M417.7 191.1 L417.7 193.1 L417.7 195.0 L417.7 197.0 L417.7 198.9 L419.6 198.9 L421.5 198.9 L423.4 198.9 L425.3 198.9 L427.2 198.9 L427.2 197.0 L427.2 195.0 L427.2 193.1 L427.2 191.1 L427.2 189.2 L425.3 189.2 L423.4 189.2 L421.5 189.2 L419.6 189.2 L417.7 189.2 L417.7 191.1 Z" fill="#2f8f83" fill-opacity="0.34" stroke="#0e5b52" stroke-width="1.6" />
  <path d="M417.7 200.9 L417.7 202.8 L417.7 204.8 L417.7 206.7 L417.7 208.7 L419.6 208.7 L421.5 208.7 L423.4 208.7 L425.3 208.7 L427.2 208.7 L427.2 206.7 L427.2 204.8 L427.2 202.8 L427.2 200.9 L427.2 198.9 L425.3 198.9 L423.4 198.9 L421.5 198.9 L419.6 198.9 L417.7 198.9 L417.7 200.9 Z" fill="#2f8f83" fill-opacity="0.34" stroke="#0e5b52" stroke-width="1.6" />
  <path d="M601.2 128.6 L601.2 130.6 L601.2 132.6 L601.2 134.5 L601.2 136.5 L603.1 136.5 L605.0 136.5 L606.8 136.5 L608.7 136.5 L610.6 136.5 L610.6 134.5 L610.6 132.6 L610.6 130.6 L610.6 128.6 L610.6 126.7 L608.7 126.7 L606.8 126.7 L605.0 126.7 L603.1 126.7 L601.2 126.7 L601.2 128.6 Z" fill="#2f8f83" fill-opacity="0.34" stroke="#0e5b52" stroke-width="1.6" />
  <path d="M601.2 120.8 L601.2 122.8 L601.2 124.7 L601.2 126.7 L603.1 126.7 L605.0 126.7 L606.8 126.7 L608.7 126.7 L610.6 126.7 L610.6 124.7 L610.6 122.8 L610.6 120.8 L610.6 118.9 L608.7 118.9 L606.8 118.9 L605.0 118.9 L603.1 118.9 L601.2 118.9 L601.2 120.8 Z" fill="#2f8f83" fill-opacity="0.34" stroke="#0e5b52" stroke-width="1.6" />
  <path d="M593.6 128.6 L593.6 130.6 L593.6 132.6 L593.6 134.5 L593.6 136.5 L595.5 136.5 L597.4 136.5 L599.3 136.5 L601.2 136.5 L601.2 134.5 L601.2 132.6 L601.2 130.6 L601.2 128.6 L601.2 126.7 L599.3 126.7 L597.4 126.7 L595.5 126.7 L593.6 126.7 L593.6 128.6 Z" fill="#2f8f83" fill-opacity="0.34" stroke="#0e5b52" stroke-width="1.6" />
  <path d="M593.6 120.8 L593.6 122.8 L593.6 124.7 L593.6 126.7 L595.5 126.7 L597.4 126.7 L599.3 126.7 L601.2 126.7 L601.2 124.7 L601.2 122.8 L601.2 120.8 L601.2 118.9 L599.3 118.9 L597.4 118.9 L595.5 118.9 L593.6 118.9 L593.6 120.8 Z" fill="#2f8f83" fill-opacity="0.34" stroke="#0e5b52" stroke-width="1.6" />
  <path d="M586.0 148.2 L586.0 150.1 L586.0 152.1 L586.0 154.1 L587.9 154.1 L589.8 154.1 L591.7 154.0 L593.6 154.0 L595.5 154.0 L595.5 152.1 L595.5 150.1 L593.6 150.1 L593.6 148.2 L593.6 146.2 L593.6 144.3 L593.6 142.3 L593.6 140.4 L591.7 140.4 L589.8 140.4 L589.8 142.3 L589.8 144.3 L589.8 146.2 L589.8 148.2 L587.9 148.2 L587.9 146.2 L586.0 146.2 L586.0 148.2 Z" fill="#2f8f83" fill-opacity="0.34" stroke="#0e5b52" stroke-width="1.6" />
  <path d="M584.2 132.6 L584.2 134.5 L584.2 136.5 L584.2 138.4 L584.2 140.4 L586.0 140.4 L587.9 140.4 L589.8 140.4 L591.7 140.4 L593.6 140.4 L593.6 138.4 L593.6 136.5 L593.6 134.5 L593.6 132.6 L593.6 130.6 L591.7 130.6 L589.8 130.6 L587.9 130.6 L586.0 130.6 L584.2 130.6 L584.2 132.6 Z" fill="#2f8f83" fill-opacity="0.34" stroke="#0e5b52" stroke-width="1.6" />
  <path d="M584.2 124.7 L584.2 126.7 L584.2 128.7 L584.2 130.6 L586.0 130.6 L587.9 130.6 L589.8 130.6 L591.7 130.6 L593.6 130.6 L593.6 128.6 L593.6 126.7 L593.6 124.7 L593.6 122.8 L591.7 122.8 L589.8 122.8 L587.9 122.8 L586.0 122.8 L584.2 122.8 L584.2 124.7 Z" fill="#2f8f83" fill-opacity="0.34" stroke="#0e5b52" stroke-width="1.6" />
  <path d="M576.6 146.2 L576.6 148.2 L576.6 150.1 L576.6 152.1 L576.6 154.1 L578.5 154.1 L580.4 154.1 L582.3 154.1 L584.2 154.1 L586.0 154.1 L586.0 152.1 L586.0 150.1 L586.0 148.2 L586.0 146.2 L586.0 144.3 L584.2 144.3 L582.3 144.3 L580.4 144.3 L578.5 144.3 L576.6 144.3 L576.6 146.2 Z" fill="#2f8f83" fill-opacity="0.34" stroke="#0e5b52" stroke-width="1.6" />
  <path d="M576.6 134.5 L576.6 136.5 L576.6 138.4 L576.6 140.4 L576.6 142.3 L576.6 144.3 L578.5 144.3 L580.4 144.3 L582.3 144.3 L584.2 144.3 L586.0 144.3 L586.0 142.3 L584.2 142.3 L584.2 140.4 L584.2 138.4 L584.2 136.5 L584.2 134.5 L584.2 132.6 L582.3 132.6 L580.4 132.6 L578.5 132.6 L576.6 132.6 L576.6 134.5 Z" fill="#2f8f83" fill-opacity="0.34" stroke="#0e5b52" stroke-width="1.6" />
  <path d="M576.6 124.7 L576.6 126.7 L576.6 128.7 L576.6 130.6 L576.6 132.6 L578.5 132.6 L580.4 132.6 L582.3 132.6 L584.2 132.6 L584.2 130.6 L584.2 128.7 L584.2 126.7 L584.2 124.7 L584.2 122.8 L582.3 122.8 L580.4 122.8 L578.5 122.8 L576.6 122.8 L576.6 124.7 Z" fill="#2f8f83" fill-opacity="0.34" stroke="#0e5b52" stroke-width="1.6" />
  <path d="M565.2 148.2 L565.2 150.1 L565.2 152.1 L565.2 154.1 L567.1 154.1 L569.0 154.1 L570.9 154.1 L572.8 154.1 L574.7 154.1 L576.6 154.1 L576.6 152.1 L576.6 150.1 L576.6 148.2 L576.6 146.2 L574.7 146.2 L572.8 146.2 L570.9 146.2 L569.0 146.2 L567.1 146.2 L565.2 146.2 L565.2 148.2 Z" fill="#2f8f83" fill-opacity="0.34" stroke="#0e5b52" stroke-width="1.6" />
  <path d="M565.2 140.4 L565.2 142.3 L565.2 144.3 L565.2 146.2 L567.1 146.2 L569.0 146.2 L570.9 146.2 L572.8 146.2 L574.7 146.2 L576.6 146.2 L576.6 144.3 L576.6 142.3 L576.6 140.4 L576.6 138.4 L574.7 138.4 L572.8 138.4 L570.9 138.4 L569.0 138.4 L567.1 138.4 L565.2 138.4 L565.2 140.4 Z" fill="#2f8f83" fill-opacity="0.34" stroke="#0e5b52" stroke-width="1.6" />
  <path d="M565.2 132.6 L565.2 134.5 L565.2 136.5 L565.2 138.4 L567.1 138.4 L569.0 138.4 L570.9 138.4 L572.8 138.4 L574.7 138.4 L576.6 138.4 L576.6 136.5 L576.6 134.5 L576.6 132.6 L576.6 130.6 L574.7 130.6 L572.8 130.6 L570.9 130.6 L569.0 130.6 L567.1 130.6 L565.2 130.6 L565.2 132.6 Z" fill="#2f8f83" fill-opacity="0.34" stroke="#0e5b52" stroke-width="1.6" />
  <path d="M565.2 124.7 L565.2 126.7 L565.2 128.7 L565.2 130.6 L567.1 130.6 L569.0 130.6 L570.9 130.6 L572.8 130.6 L574.7 130.6 L576.6 130.6 L576.6 128.7 L576.6 126.7 L576.6 124.7 L576.6 122.8 L574.7 122.8 L572.8 122.8 L570.9 122.8 L569.0 122.8 L567.1 122.8 L565.2 122.8 L565.2 124.7 Z" fill="#2f8f83" fill-opacity="0.34" stroke="#0e5b52" stroke-width="1.6" />
  <path d="M555.8 148.2 L555.8 150.1 L555.8 152.1 L555.8 154.1 L557.7 154.1 L559.6 154.1 L561.5 154.1 L563.3 154.1 L565.2 154.1 L565.2 152.1 L565.2 150.1 L565.2 148.2 L565.2 146.2 L563.3 146.2 L561.5 146.2 L559.6 146.2 L557.7 146.2 L555.8 146.2 L555.8 148.2 Z" fill="#2f8f83" fill-opacity="0.34" stroke="#0e5b52" stroke-width="1.6" />
  <path d="M555.8 140.4 L555.8 142.3 L555.8 144.3 L555.8 146.2 L557.7 146.2 L559.6 146.2 L561.5 146.2 L563.3 146.2 L565.2 146.2 L565.2 144.3 L565.2 142.3 L565.2 140.4 L565.2 138.4 L563.3 138.4 L561.5 138.4 L559.6 138.4 L557.7 138.4 L555.8 138.4 L555.8 140.4 Z" fill="#2f8f83" fill-opacity="0.34" stroke="#0e5b52" stroke-width="1.6" />
  <path d="M555.8 132.6 L555.8 134.5 L555.8 136.5 L555.8 138.4 L557.7 138.4 L559.6 138.4 L561.5 138.4 L563.3 138.4 L565.2 138.4 L565.2 136.5 L565.2 134.5 L565.2 132.6 L565.2 130.6 L563.3 130.6 L561.5 130.6 L559.6 130.6 L557.7 130.6 L555.8 130.6 L555.8 132.6 Z" fill="#2f8f83" fill-opacity="0.34" stroke="#0e5b52" stroke-width="1.6" />
  <path d="M555.8 124.7 L555.8 126.7 L555.8 128.7 L555.8 130.6 L557.7 130.6 L559.6 130.6 L561.5 130.6 L563.3 130.6 L565.2 130.6 L565.2 128.7 L565.2 126.7 L565.2 124.7 L565.2 122.8 L563.3 122.8 L561.5 122.8 L559.6 122.8 L557.7 122.8 L555.8 122.8 L555.8 124.7 Z" fill="#2f8f83" fill-opacity="0.34" stroke="#0e5b52" stroke-width="1.6" />
  <path d="M550.1 134.5 L550.1 136.5 L550.1 138.4 L548.2 138.4 L548.2 140.4 L550.1 140.4 L552.0 140.4 L553.9 140.4 L555.8 140.4 L555.8 138.4 L555.8 136.5 L555.8 134.5 L555.8 132.6 L555.8 130.6 L555.8 128.7 L553.9 128.7 L552.0 128.7 L552.0 130.6 L552.0 132.6 L550.1 132.6 L550.1 134.5 Z" fill="#2f8f83" fill-opacity="0.34" stroke="#0e5b52" stroke-width="1.6" />
  <path d="M548.2 142.3 L548.2 144.3 L548.2 146.2 L548.2 148.2 L548.2 150.2 L550.1 150.2 L552.0 150.2 L553.9 150.2 L555.8 150.1 L555.8 148.2 L555.8 146.2 L555.8 144.3 L555.8 142.3 L555.8 140.4 L553.9 140.4 L552.0 140.4 L550.1 140.4 L548.2 140.4 L548.2 142.3 Z" fill="#2f8f83" fill-opacity="0.34" stroke="#0e5b52" stroke-width="1.6" />
  <path d="M548.2 152.1 L548.2 154.1 L548.2 156.0 L548.2 158.0 L550.1 158.0 L552.0 158.0 L553.9 158.0 L555.8 158.0 L555.8 156.0 L555.8 154.1 L555.8 152.1 L555.8 150.1 L553.9 150.2 L552.0 150.2 L550.1 150.2 L548.2 150.2 L548.2 152.1 Z" fill="#2f8f83" fill-opacity="0.34" stroke="#0e5b52" stroke-width="1.6" />
  <path d="M535.0 154.1 L535.0 156.0 L535.0 158.0 L536.9 158.0 L538.8 158.0 L540.7 158.0 L542.5 158.0 L544.4 158.0 L546.3 158.0 L548.2 158.0 L548.2 156.0 L548.2 154.1 L548.2 152.1 L546.3 152.1 L544.4 152.1 L542.5 152.1 L540.7 152.1 L538.8 152.1 L536.9 152.1 L535.0 152.1 L535.0 154.1 Z" fill="#2f8f83" fill-opacity="0.34" stroke="#0e5b52" stroke-width="1.6" />
  <path d="M535.0 148.2 L535.0 150.2 L535.0 152.1 L536.9 152.1 L538.8 152.1 L540.7 152.1 L542.5 152.1 L544.4 152.1 L546.3 152.1 L548.2 152.1 L548.2 150.2 L548.2 148.2 L548.2 146.2 L546.3 146.2 L544.4 146.2 L542.5 146.2 L540.7 146.2 L538.8 146.2 L536.9 146.2 L535.0 146.2 L535.0 148.2 Z" fill="#2f8f83" fill-opacity="0.34" stroke="#0e5b52" stroke-width="1.6" />
  <path d="M535.0 142.3 L535.0 144.3 L535.0 146.2 L536.9 146.2 L538.8 146.2 L540.7 146.2 L542.5 146.2 L544.4 146.2 L546.3 146.2 L548.2 146.2 L548.2 144.3 L548.2 142.3 L548.2 140.4 L546.3 140.4 L544.4 140.4 L542.5 140.4 L540.7 140.4 L538.8 140.4 L536.9 140.4 L535.0 140.4 L535.0 142.3 Z" fill="#2f8f83" fill-opacity="0.34" stroke="#0e5b52" stroke-width="1.6" />
  <path d="M535.0 136.5 L535.0 138.4 L535.0 140.4 L536.9 140.4 L538.8 140.4 L540.7 140.4 L542.5 140.4 L544.4 140.4 L546.3 140.4 L548.2 140.4 L548.2 138.4 L550.1 138.4 L550.1 136.5 L550.1 134.5 L548.2 134.5 L546.3 134.5 L544.4 134.5 L542.5 134.5 L540.7 134.5 L538.8 134.5 L536.9 134.5 L535.0 134.5 L535.0 136.5 Z" fill="#2f8f83" fill-opacity="0.34" stroke="#0e5b52" stroke-width="1.6" />
  <path d="M410.2 189.2 L410.2 191.1 L410.2 193.1 L410.2 195.0 L410.2 197.0 L412.1 197.0 L414.0 197.0 L415.9 197.0 L417.7 197.0 L417.7 195.0 L417.7 193.1 L417.7 191.1 L417.7 189.2 L417.7 187.2 L415.9 187.2 L414.0 187.2 L412.1 187.2 L410.2 187.2 L410.2 189.2 Z" fill="#2f8f83" fill-opacity="0.34" stroke="#0e5b52" stroke-width="1.6" />
  <path d="M398.8 198.9 L398.8 200.9 L398.8 202.8 L398.8 204.8 L400.7 204.8 L402.6 204.8 L404.5 204.8 L406.4 204.8 L408.3 204.8 L410.2 204.8 L410.2 202.8 L410.2 200.9 L410.2 198.9 L410.2 197.0 L408.3 197.0 L406.4 197.0 L404.5 197.0 L402.6 197.0 L400.7 197.0 L398.8 197.0 L398.8 198.9 Z" fill="#2f8f83" fill-opacity="0.34" stroke="#0e5b52" stroke-width="1.6" />
  <path d="M398.8 230.1 L398.8 232.0 L398.8 234.0 L398.8 235.9 L400.7 235.9 L402.6 235.9 L404.5 235.9 L406.4 235.9 L408.3 235.9 L410.2 235.9 L410.2 234.0 L410.2 232.0 L410.2 230.1 L410.2 228.1 L408.3 228.1 L406.4 228.1 L404.5 228.1 L402.6 228.1 L400.7 228.1 L398.8 228.1 L398.8 230.1 Z" fill="#2f8f83" fill-opacity="0.34" stroke="#0e5b52" stroke-width="1.6" />
  <path d="M410.2 198.9 L410.2 200.9 L410.2 202.8 L410.2 204.8 L410.2 206.7 L410.2 208.7 L412.1 208.7 L414.0 208.7 L415.9 208.7 L417.7 208.7 L417.7 206.7 L417.7 204.8 L417.7 202.8 L417.7 200.9 L417.7 198.9 L417.7 197.0 L415.9 197.0 L414.0 197.0 L412.1 197.0 L410.2 197.0 L410.2 198.9 Z" fill="#2f8f83" fill-opacity="0.34" stroke="#0e5b52" stroke-width="1.6" />
  <path d="M410.2 210.6 L410.2 212.6 L410.2 214.5 L410.2 216.5 L410.2 218.4 L410.2 220.4 L412.1 220.4 L414.0 220.4 L415.9 220.4 L417.7 220.4 L417.7 218.4 L417.7 216.5 L417.7 214.5 L417.7 212.6 L417.7 210.6 L417.7 208.7 L415.9 208.7 L414.0 208.7 L412.1 208.7 L410.2 208.7 L410.2 210.6 Z" fill="#2f8f83" fill-opacity="0.34" stroke="#0e5b52" stroke-width="1.6" />
  <path d="M410.2 222.3 L410.2 224.2 L410.2 226.2 L410.2 228.1 L412.1 228.1 L414.0 228.1 L415.9 228.1 L417.7 228.1 L417.7 226.2 L417.7 224.2 L417.7 222.3 L417.7 220.4 L415.9 220.4 L414.0 220.4 L412.1 220.4 L410.2 220.4 L410.2 222.3 Z" fill="#2f8f83" fill-opacity="0.34" stroke="#0e5b52" stroke-width="1.6" />
  <path d="M410.2 230.1 L410.2 232.0 L410.2 234.0 L410.2 235.9 L412.1 235.9 L414.0 235.9 L415.9 235.9 L417.7 235.9 L417.7 234.0 L417.7 232.0 L417.7 230.1 L417.7 228.1 L415.9 228.1 L414.0 228.1 L412.1 228.1 L410.2 228.1 L410.2 230.1 Z" fill="#2f8f83" fill-opacity="0.34" stroke="#0e5b52" stroke-width="1.6" />
  <path d="M398.8 206.7 L398.8 208.7 L398.8 210.6 L398.8 212.6 L400.7 212.6 L402.6 212.6 L404.5 212.6 L406.4 212.6 L408.3 212.6 L410.2 212.6 L410.2 210.6 L410.2 208.7 L410.2 206.7 L410.2 204.8 L408.3 204.8 L406.4 204.8 L404.5 204.8 L402.6 204.8 L400.7 204.8 L398.8 204.8 L398.8 206.7 Z" fill="#2f8f83" fill-opacity="0.34" stroke="#0e5b52" stroke-width="1.6" />
  <path d="M398.8 214.5 L398.8 216.5 L398.8 218.4 L398.8 220.4 L400.7 220.4 L402.6 220.4 L404.5 220.4 L406.4 220.4 L408.3 220.4 L410.2 220.4 L410.2 218.4 L410.2 216.5 L410.2 214.5 L410.2 212.6 L408.3 212.6 L406.4 212.6 L404.5 212.6 L402.6 212.6 L400.7 212.6 L398.8 212.6 L398.8 214.5 Z" fill="#2f8f83" fill-opacity="0.34" stroke="#0e5b52" stroke-width="1.6" />
  <path d="M398.8 222.3 L398.8 224.2 L398.8 226.2 L398.8 228.1 L400.7 228.1 L402.6 228.1 L404.5 228.1 L406.4 228.1 L408.3 228.1 L410.2 228.1 L410.2 226.2 L410.2 224.2 L410.2 222.3 L410.2 220.4 L408.3 220.4 L406.4 220.4 L404.5 220.4 L402.6 220.4 L400.7 220.4 L398.8 220.4 L398.8 222.3 Z" fill="#2f8f83" fill-opacity="0.34" stroke="#0e5b52" stroke-width="1.6" />
  <path d="M417.7 210.6 L417.7 212.6 L417.7 214.5 L417.7 216.5 L417.7 218.4 L419.6 218.4 L421.5 218.4 L423.4 218.4 L425.3 218.4 L427.2 218.4 L427.2 216.5 L427.2 214.5 L427.2 212.6 L427.2 210.6 L427.2 208.7 L425.3 208.7 L423.4 208.7 L421.5 208.7 L419.6 208.7 L417.7 208.7 L417.7 210.6 Z" fill="#2f8f83" fill-opacity="0.34" stroke="#0e5b52" stroke-width="1.6" />
  <path d="M417.7 220.4 L417.7 222.3 L417.7 224.2 L417.7 226.2 L417.7 228.1 L419.6 228.1 L421.5 228.1 L423.4 228.1 L425.3 228.1 L427.2 228.1 L427.2 226.2 L427.2 224.2 L427.2 222.3 L427.2 220.4 L427.2 218.4 L425.3 218.4 L423.4 218.4 L421.5 218.4 L419.6 218.4 L417.7 218.4 L417.7 220.4 Z" fill="#2f8f83" fill-opacity="0.34" stroke="#0e5b52" stroke-width="1.6" />
  <path d="M417.7 230.1 L417.7 232.0 L417.7 234.0 L417.7 235.9 L419.6 235.9 L421.5 235.9 L423.4 235.9 L425.3 235.9 L427.2 235.9 L427.2 234.0 L427.2 232.0 L427.2 230.1 L427.2 228.1 L425.3 228.1 L423.4 228.1 L421.5 228.1 L419.6 228.1 L417.7 228.1 L417.7 230.1 Z" fill="#2f8f83" fill-opacity="0.34" stroke="#0e5b52" stroke-width="1.6" />
  <path d="M389.4 237.9 L389.4 239.8 L389.4 241.8 L389.4 243.7 L389.4 245.7 L391.3 245.7 L393.2 245.7 L395.1 245.7 L396.9 245.7 L398.8 245.7 L398.8 243.7 L398.8 241.8 L398.8 239.8 L398.8 237.9 L398.8 235.9 L396.9 235.9 L395.0 235.9 L393.2 235.9 L391.3 235.9 L389.4 235.9 L389.4 237.9 Z" fill="#2f8f83" fill-opacity="0.34" stroke="#0e5b52" stroke-width="1.6" />
  <path d="M398.8 237.9 L398.8 239.8 L398.8 241.8 L398.8 243.7 L398.8 245.7 L400.7 245.7 L402.6 245.7 L404.5 245.7 L406.4 245.7 L408.3 245.7 L408.3 243.7 L408.3 241.8 L408.3 239.8 L408.3 237.9 L408.3 235.9 L406.4 235.9 L404.5 235.9 L402.6 235.9 L400.7 235.9 L398.8 235.9 L398.8 237.9 Z" fill="#2f8f83" fill-opacity="0.34" stroke="#0e5b52" stroke-width="1.6" />
  <path d="M408.3 237.9 L408.3 239.8 L408.3 241.8 L408.3 243.7 L408.3 245.7 L410.2 245.7 L412.1 245.7 L414.0 245.7 L415.9 245.7 L417.7 245.7 L417.7 243.7 L417.7 241.8 L417.7 239.8 L417.7 237.9 L417.7 235.9 L415.9 235.9 L414.0 235.9 L412.1 235.9 L410.2 235.9 L408.3 235.9 L408.3 237.9 Z" fill="#2f8f83" fill-opacity="0.34" stroke="#0e5b52" stroke-width="1.6" />
  <path d="M417.7 237.9 L417.7 239.8 L417.7 241.8 L417.7 243.7 L417.7 245.7 L419.6 245.7 L421.5 245.7 L423.4 245.7 L425.3 245.7 L427.2 245.7 L427.2 243.7 L427.2 241.8 L427.2 239.8 L427.2 237.9 L427.2 235.9 L425.3 235.9 L423.4 235.9 L421.5 235.9 L419.6 235.9 L417.7 235.9 L417.7 237.9 Z" fill="#2f8f83" fill-opacity="0.34" stroke="#0e5b52" stroke-width="1.6" />
  <path d="M427.2 237.9 L427.2 239.8 L427.2 241.8 L427.2 243.7 L427.2 245.7 L429.1 245.7 L431.0 245.7 L432.9 245.7 L434.8 245.7 L434.8 243.7 L434.8 241.8 L434.8 239.8 L434.8 237.9 L434.8 235.9 L432.9 235.9 L431.0 235.9 L429.1 235.9 L427.2 235.9 L427.2 237.9 Z" fill="#2f8f83" fill-opacity="0.34" stroke="#0e5b52" stroke-width="1.6" />
  <path d="M389.4 247.6 L389.4 249.5 L389.4 251.5 L389.4 253.4 L389.4 255.4 L391.3 255.4 L393.2 255.4 L395.1 255.4 L396.9 255.4 L398.8 255.4 L398.8 253.4 L398.8 251.5 L398.8 249.5 L398.8 247.6 L398.8 245.7 L396.9 245.7 L395.1 245.7 L393.2 245.7 L391.3 245.7 L389.4 245.7 L389.4 247.6 Z" fill="#2f8f83" fill-opacity="0.34" stroke="#0e5b52" stroke-width="1.6" />
  <path d="M398.8 247.6 L398.8 249.5 L398.8 251.5 L398.8 253.4 L398.8 255.4 L400.7 255.4 L402.6 255.4 L404.5 255.4 L406.4 255.4 L408.3 255.4 L408.3 253.4 L408.3 251.5 L408.3 249.5 L408.3 247.6 L408.3 245.7 L406.4 245.7 L404.5 245.7 L402.6 245.7 L400.7 245.7 L398.8 245.7 L398.8 247.6 Z" fill="#2f8f83" fill-opacity="0.34" stroke="#0e5b52" stroke-width="1.6" />
  <path d="M408.3 247.6 L408.3 249.5 L408.3 251.5 L408.3 253.4 L408.3 255.4 L410.2 255.4 L412.1 255.4 L414.0 255.4 L415.9 255.4 L417.7 255.4 L417.7 253.4 L417.7 251.5 L417.7 249.5 L417.7 247.6 L417.7 245.7 L415.9 245.7 L414.0 245.7 L412.1 245.7 L410.2 245.7 L408.3 245.7 L408.3 247.6 Z" fill="#2f8f83" fill-opacity="0.34" stroke="#0e5b52" stroke-width="1.6" />
  <path d="M417.7 247.6 L417.7 249.5 L417.7 251.5 L417.7 253.4 L417.7 255.4 L419.6 255.4 L421.5 255.4 L423.4 255.4 L425.3 255.4 L427.2 255.4 L427.2 253.4 L427.2 251.5 L427.2 249.5 L427.2 247.6 L427.2 245.7 L425.3 245.7 L423.4 245.7 L421.5 245.7 L419.6 245.7 L417.7 245.7 L417.7 247.6 Z" fill="#2f8f83" fill-opacity="0.34" stroke="#0e5b52" stroke-width="1.6" />
  <path d="M389.4 257.3 L389.4 259.3 L389.4 261.2 L389.4 263.2 L389.4 265.1 L391.3 265.1 L393.2 265.1 L395.1 265.1 L396.9 265.1 L398.8 265.1 L398.8 263.2 L398.8 261.2 L398.8 259.3 L398.8 257.3 L398.8 255.4 L396.9 255.4 L395.1 255.4 L393.2 255.4 L391.3 255.4 L389.4 255.4 L389.4 257.3 Z" fill="#2f8f83" fill-opacity="0.34" stroke="#0e5b52" stroke-width="1.6" />
  <path d="M398.8 257.3 L398.8 259.3 L398.8 261.2 L398.8 263.2 L398.8 265.1 L400.7 265.1 L402.6 265.1 L404.5 265.1 L406.4 265.1 L408.3 265.1 L408.3 263.2 L408.3 261.2 L408.3 259.3 L408.3 257.3 L408.3 255.4 L406.4 255.4 L404.5 255.4 L402.6 255.4 L400.7 255.4 L398.8 255.4 L398.8 257.3 Z" fill="#2f8f83" fill-opacity="0.34" stroke="#0e5b52" stroke-width="1.6" />
  <path d="M408.3 257.3 L408.3 259.3 L408.3 261.2 L408.3 263.2 L408.3 265.1 L410.2 265.1 L412.1 265.1 L414.0 265.1 L415.9 265.1 L417.7 265.1 L417.7 263.2 L417.7 261.2 L417.7 259.3 L417.7 257.3 L417.7 255.4 L415.9 255.4 L414.0 255.4 L412.1 255.4 L410.2 255.4 L408.3 255.4 L408.3 257.3 Z" fill="#2f8f83" fill-opacity="0.34" stroke="#0e5b52" stroke-width="1.6" />
  <path d="M417.7 257.3 L417.7 259.3 L417.7 261.2 L417.7 263.2 L417.7 265.1 L419.6 265.1 L421.5 265.1 L423.4 265.1 L425.3 265.1 L427.2 265.1 L427.2 263.1 L427.2 261.2 L427.2 259.3 L427.2 257.3 L427.2 255.4 L425.3 255.4 L423.4 255.4 L421.5 255.4 L419.6 255.4 L417.7 255.4 L417.7 257.3 Z" fill="#2f8f83" fill-opacity="0.34" stroke="#0e5b52" stroke-width="1.6" />
  <path d="M389.4 267.0 L389.4 269.0 L389.4 270.9 L389.4 272.9 L389.4 274.8 L391.3 274.8 L393.2 274.8 L395.1 274.8 L396.9 274.8 L398.8 274.8 L398.8 272.9 L398.8 270.9 L398.8 269.0 L398.8 267.0 L398.8 265.1 L396.9 265.1 L395.1 265.1 L393.2 265.1 L391.3 265.1 L389.4 265.1 L389.4 267.0 Z" fill="#2f8f83" fill-opacity="0.34" stroke="#0e5b52" stroke-width="1.6" />
  <path d="M398.8 267.0 L398.8 269.0 L398.8 270.9 L398.8 272.9 L398.8 274.8 L400.7 274.8 L402.6 274.8 L404.5 274.8 L406.4 274.8 L408.3 274.8 L408.3 272.9 L408.3 270.9 L408.3 269.0 L408.3 267.0 L408.3 265.1 L406.4 265.1 L404.5 265.1 L402.6 265.1 L400.7 265.1 L398.8 265.1 L398.8 267.0 Z" fill="#2f8f83" fill-opacity="0.34" stroke="#0e5b52" stroke-width="1.6" />
  <path d="M408.3 267.0 L408.3 269.0 L408.3 270.9 L408.3 272.9 L408.3 274.8 L410.2 274.8 L412.1 274.8 L414.0 274.8 L415.9 274.8 L417.7 274.8 L419.6 274.8 L421.5 274.8 L423.4 274.8 L425.3 274.8 L427.2 274.8 L427.2 272.9 L427.2 270.9 L427.2 269.0 L427.2 267.0 L427.2 265.1 L425.3 265.1 L423.4 265.1 L421.5 265.1 L419.6 265.1 L417.7 265.1 L415.9 265.1 L414.0 265.1 L412.1 265.1 L410.2 265.1 L408.3 265.1 L408.3 267.0 Z" fill="#2f8f83" fill-opacity="0.34" stroke="#0e5b52" stroke-width="1.6" />
  <path d="M389.4 276.8 L389.4 278.7 L389.4 280.6 L389.4 282.6 L389.4 284.5 L391.3 284.5 L393.2 284.5 L395.1 284.5 L396.9 284.5 L398.8 284.5 L400.7 284.5 L402.6 284.5 L404.5 284.5 L406.4 284.5 L408.3 284.5 L408.3 282.6 L408.3 280.6 L408.3 278.7 L408.3 276.8 L408.3 274.8 L406.4 274.8 L404.5 274.8 L402.6 274.8 L400.7 274.8 L398.8 274.8 L396.9 274.8 L395.1 274.8 L393.2 274.8 L391.3 274.8 L389.4 274.8 L389.4 276.8 Z" fill="#2f8f83" fill-opacity="0.34" stroke="#0e5b52" stroke-width="1.6" />
  <path d="M408.3 276.8 L408.3 278.7 L408.3 280.6 L408.3 282.6 L408.3 284.5 L410.2 284.5 L412.1 284.5 L414.0 284.5 L415.9 284.5 L417.7 284.5 L419.6 284.5 L421.5 284.5 L423.4 284.5 L425.3 284.5 L427.2 284.5 L427.2 282.6 L427.2 280.6 L427.2 278.7 L427.2 276.7 L427.2 274.8 L425.3 274.8 L423.4 274.8 L421.5 274.8 L419.6 274.8 L417.7 274.8 L415.9 274.8 L414.0 274.8 L412.1 274.8 L410.2 274.8 L408.3 274.8 L408.3 276.8 Z" fill="#2f8f83" fill-opacity="0.34" stroke="#0e5b52" stroke-width="1.6" />
  <path d="M389.4 286.5 L389.4 288.4 L389.4 290.3 L389.4 292.3 L389.4 294.2 L391.3 294.2 L393.2 294.2 L395.1 294.2 L396.9 294.2 L398.8 294.2 L400.7 294.2 L402.6 294.2 L404.5 294.2 L406.4 294.2 L408.3 294.2 L408.3 292.3 L408.3 290.3 L408.3 288.4 L408.3 286.5 L408.3 284.5 L406.4 284.5 L404.5 284.5 L402.6 284.5 L400.7 284.5 L398.8 284.5 L396.9 284.5 L395.1 284.5 L393.2 284.5 L391.3 284.5 L389.4 284.5 L389.4 286.5 Z" fill="#2f8f83" fill-opacity="0.34" stroke="#0e5b52" stroke-width="1.6" />
  <path d="M408.3 286.5 L408.3 288.4 L408.3 290.3 L408.3 292.3 L408.3 294.2 L410.2 294.2 L412.1 294.2 L414.0 294.2 L415.9 294.2 L417.7 294.2 L419.6 294.2 L421.5 294.2 L423.4 294.2 L425.3 294.2 L427.2 294.2 L427.2 292.3 L427.2 290.3 L427.2 288.4 L427.2 286.5 L427.2 284.5 L425.3 284.5 L423.4 284.5 L421.5 284.5 L419.6 284.5 L417.7 284.5 L415.9 284.5 L414.0 284.5 L412.1 284.5 L410.2 284.5 L408.3 284.5 L408.3 286.5 Z" fill="#2f8f83" fill-opacity="0.34" stroke="#0e5b52" stroke-width="1.6" />
  <path d="M389.4 296.2 L389.4 298.1 L389.4 300.0 L389.4 302.0 L389.4 303.9 L391.3 303.9 L393.2 303.9 L395.1 303.9 L396.9 303.9 L398.8 303.9 L400.7 303.9 L402.6 303.9 L404.5 303.9 L406.4 303.9 L408.3 303.9 L408.3 302.0 L408.3 300.0 L408.3 298.1 L408.3 296.2 L408.3 294.2 L406.4 294.2 L404.5 294.2 L402.6 294.2 L400.7 294.2 L398.8 294.2 L396.9 294.2 L395.1 294.2 L393.2 294.2 L391.3 294.2 L389.4 294.2 L389.4 296.2 Z" fill="#2f8f83" fill-opacity="0.34" stroke="#0e5b52" stroke-width="1.6" />
  <path d="M408.3 296.2 L408.3 298.1 L408.3 300.0 L408.3 302.0 L408.3 303.9 L410.2 303.9 L412.1 303.9 L414.0 303.9 L415.9 303.9 L417.7 303.9 L419.6 303.9 L421.5 303.9 L423.4 303.9 L423.4 302.0 L425.3 302.0 L427.2 302.0 L427.2 300.0 L427.2 298.1 L427.2 296.2 L427.2 294.2 L425.3 294.2 L423.4 294.2 L421.5 294.2 L419.6 294.2 L417.7 294.2 L415.9 294.2 L414.0 294.2 L412.1 294.2 L410.2 294.2 L408.3 294.2 L408.3 296.2 Z" fill="#2f8f83" fill-opacity="0.34" stroke="#0e5b52" stroke-width="1.6" />
  <path d="M395.0 230.1 L395.0 232.0 L395.0 234.0 L395.0 235.9 L396.9 235.9 L398.8 235.9 L398.8 234.0 L398.8 232.0 L398.8 230.1 L398.8 228.1 L396.9 228.1 L395.0 228.1 L395.0 230.1 Z" fill="#2f8f83" fill-opacity="0.34" stroke="#0e5b52" stroke-width="1.6" />
  <path d="M504.7 433.5 L504.7 435.5 L506.6 435.5 L506.6 433.5 L506.6 431.6 L504.7 431.6 L504.7 433.5 Z" fill="#2f8f83" fill-opacity="0.34" stroke="#0e5b52" stroke-width="1.6" />
  <path d="M586.0 140.4 L584.2 140.4 L584.2 142.3 L586.0 142.3 L586.0 144.3 L587.9 144.3 L589.8 144.3 L589.8 142.3 L589.8 140.4 L587.9 140.4 L586.0 140.4 Z" fill="#2f8f83" fill-opacity="0.34" stroke="#0e5b52" stroke-width="1.6" />
  <path d="M587.9 144.3 L586.0 144.3 L586.0 146.2 L587.9 146.2 L587.9 148.2 L589.8 148.2 L589.8 146.2 L589.8 144.3 L587.9 144.3 Z" fill="#2f8f83" fill-opacity="0.34" stroke="#0e5b52" stroke-width="1.6" />
  <path d="M499.1 427.7 L499.1 429.7 L501.0 429.7 L502.8 429.7 L502.8 427.7 L502.8 425.8 L501.0 425.8 L499.1 425.8 L499.1 427.7 Z" fill="#2f8f83" fill-opacity="0.34" stroke="#0e5b52" stroke-width="1.6" />
  <path d="M544.4 423.9 L542.6 423.9 L542.6 425.8 L544.4 425.8 L546.3 425.8 L548.2 425.8 L548.2 423.9 L548.2 421.9 L550.1 421.9 L552.0 421.9 L552.0 420.0 L553.9 420.0 L553.9 418.1 L553.9 416.2 L552.0 416.2 L552.0 418.1 L550.1 418.1 L550.1 420.0 L548.2 420.0 L546.3 420.0 L546.3 421.9 L546.3 423.9 L544.4 423.9 Z" fill="#2f8f83" fill-opacity="0.34" stroke="#0e5b52" stroke-width="1.6" />
  <!-- title strip -->
  <rect x="0" y="0" width="1000" height="54" fill="#173042" />
  <text x="20" y="34" font-size="21" font-weight="bold" fill="#ffffff">DLP Resources Inc. — Mineral Claims</text>
  <text x="980" y="34" font-size="15" fill="#cfe3df" text-anchor="end">DLP</text>
  <!-- scale bar -->
  <g transform="translate(751.0434448406029, 596)">
    <rect x="0" y="0" width="104.47827757969857" height="8" fill="#173042" />
    <rect x="104.47827757969857" y="0" width="104.47827757969857" height="8" fill="#ffffff" stroke="#173042" stroke-width="1" />
    <text x="104.47827757969857" y="-6" font-size="12" fill="#173042" text-anchor="middle">50 km</text>
  </g>
  <!-- north arrow -->
  <g transform="translate(956, 92)">
    <circle r="17" fill="#ffffff" stroke="#b9b09a" />
    <path d="M0 -10 L5 7 L0 3 L-5 7 Z" fill="#173042" />
    <text y="14" font-size="9" font-weight="bold" fill="#173042" text-anchor="middle">N</text>
  </g>
  <!-- watermark -->
  <text x="20" y="620" font-size="13" fill="#7d8b8a">Map by Exploration Maps — explorationmaps.com</text>
</svg>