<svg xmlns="http://www.w3.org/2000/svg" viewBox="0 0 1000 640" font-family="Arial, Helvetica, sans-serif">
  <rect width="1000" height="640" fill="#f3efe6" />
  <line x1="200" y1="0" x2="200" y2="640" stroke="#d9d2c0" stroke-width="0.7" />
  <line x1="0" y1="128" x2="1000" y2="128" stroke="#d9d2c0" stroke-width="0.7" />
  <line x1="400" y1="0" x2="400" y2="640" stroke="#d9d2c0" stroke-width="0.7" />
  <line x1="0" y1="256" x2="1000" y2="256" stroke="#d9d2c0" stroke-width="0.7" />
  <line x1="600" y1="0" x2="600" y2="640" stroke="#d9d2c0" stroke-width="0.7" />
  <line x1="0" y1="384" x2="1000" y2="384" stroke="#d9d2c0" stroke-width="0.7" />
  <line x1="800" y1="0" x2="800" y2="640" stroke="#d9d2c0" stroke-width="0.7" />
  <line x1="0" y1="512" x2="1000" y2="512" stroke="#d9d2c0" stroke-width="0.7" />
  <path d="M481.7 315.0 L486.2 315.0 L486.2 314.7 L471.6 314.7 L471.5 314.7 L435.8 314.8 L435.8 315.3 L435.8 322.3 L435.8 332.4 L435.8 352.6 L435.8 355.2 L469.3 355.2 L479.4 355.2 L486.2 355.2 L486.2 355.2 L486.2 355.2 L486.2 345.4 L481.7 345.4 L481.7 315.0 Z" fill="#2f8f83" fill-opacity="0.34" stroke="#0e5b52" stroke-width="1.6" />
  <path d="M511.9 345.4 L511.9 315.0 L501.8 315.0 L501.8 315.0 L481.7 315.0 L481.7 345.4 L486.2 345.4 L490.6 345.4 L509.6 345.4 L511.9 345.4 Z" fill="#2f8f83" fill-opacity="0.34" stroke="#0e5b52" stroke-width="1.6" />
  <path d="M471.7 395.0 L471.8 395.0 L510.7 395.0 L510.7 364.7 L509.6 364.7 L489.5 364.7 L479.4 364.7 L469.3 364.7 L451.6 364.7 L451.5 364.7 L451.5 382.9 L451.5 395.0 L471.7 395.0 Z" fill="#2f8f83" fill-opacity="0.34" stroke="#0e5b52" stroke-width="1.6" />
  <path d="M499.8 346.0 L499.8 355.2 L509.0 355.2 L509.0 345.9 L499.8 346.0 Z" fill="#2f8f83" fill-opacity="0.34" stroke="#0e5b52" stroke-width="1.6" />
  <path d="M499.8 355.2 L499.8 346.0 L490.6 346.0 L490.6 346.0 L490.6 355.2 L499.8 355.2 Z" fill="#2f8f83" fill-opacity="0.34" stroke="#0e5b52" stroke-width="1.6" />
  <path d="M489.3 355.2 L489.5 355.2 L489.7 355.2 L490.6 355.2 L490.6 346.0 L490.6 345.4 L486.2 345.4 L486.2 355.2 L486.2 355.2 L489.3 355.2 Z" fill="#2f8f83" fill-opacity="0.34" stroke="#0e5b52" stroke-width="1.6" />
  <path d="M510.7 395.0 L471.8 395.0 L471.7 395.0 L471.8 429.0 L471.8 433.5 L471.8 436.1 L487.0 436.1 L487.2 445.5 L492.6 445.5 L492.8 436.0 L495.3 436.1 L505.4 436.1 L512.0 436.1 L512.0 433.5 L512.0 409.4 L510.7 409.4 L510.7 395.0 Z" fill="#2f8f83" fill-opacity="0.34" stroke="#0e5b52" stroke-width="1.6" />
  <path d="M633.1 354.8 L633.1 334.6 L633.1 334.1 L633.2 324.5 L633.2 314.4 L631.5 314.4 L631.4 314.4 L629.4 314.4 L629.4 314.4 L592.8 314.4 L592.8 314.4 L592.8 354.8 L633.1 354.8 Z" fill="#2f8f83" fill-opacity="0.34" stroke="#0e5b52" stroke-width="1.6" />
  <path d="M633.1 389.1 L633.1 354.8 L592.8 354.8 L592.8 361.0 L592.8 395.3 L594.1 395.3 L594.1 389.1 L633.1 389.1 Z" fill="#2f8f83" fill-opacity="0.34" stroke="#0e5b52" stroke-width="1.6" />
  <path d="M519.7 354.8 L529.8 354.8 L533.3 354.8 L543.4 354.8 L552.5 354.8 L552.5 314.4 L552.5 314.3 L552.5 314.3 L542.2 314.3 L542.2 314.3 L512.1 314.4 L512.1 354.8 L519.7 354.8 Z" fill="#2f8f83" fill-opacity="0.34" stroke="#0e5b52" stroke-width="1.6" />
  <path d="M553.5 354.8 L563.6 354.8 L573.7 354.8 L583.7 354.8 L592.8 354.8 L592.8 314.4 L592.8 314.4 L589.1 314.4 L582.3 314.4 L552.5 314.4 L552.4 314.4 L552.5 354.8 L552.5 354.8 L552.5 354.8 L553.5 354.8 Z" fill="#2f8f83" fill-opacity="0.34" stroke="#0e5b52" stroke-width="1.6" />
  <path d="M369.1 382.9 L369.1 382.9 L375.4 382.9 L381.0 382.9 L391.1 382.9 L401.2 383.0 L401.2 382.9 L401.2 366.0 L401.2 352.6 L401.2 332.4 L401.2 332.4 L371.0 332.4 L360.9 332.4 L360.9 334.3 L360.9 354.5 L360.9 356.0 L360.9 368.5 L360.9 371.6 L360.9 381.0 L360.9 382.9 L369.1 382.9 Z" fill="#2f8f83" fill-opacity="0.34" stroke="#0e5b52" stroke-width="1.6" />
  <path d="M391.1 413.3 L391.1 403.2 L381.0 403.2 L381.0 413.3 L391.1 413.3 Z" fill="#2f8f83" fill-opacity="0.34" stroke="#0e5b52" stroke-width="1.6" />
  <path d="M401.2 413.3 L401.2 403.2 L391.1 403.2 L391.1 413.3 L401.2 413.3 Z" fill="#2f8f83" fill-opacity="0.34" stroke="#0e5b52" stroke-width="1.6" />
  <path d="M391.1 403.2 L391.1 393.0 L381.0 393.0 L381.0 403.2 L391.1 403.2 Z" fill="#2f8f83" fill-opacity="0.34" stroke="#0e5b52" stroke-width="1.6" />
  <path d="M401.2 403.2 L401.2 393.0 L391.1 393.0 L391.1 403.2 L401.2 403.2 Z" fill="#2f8f83" fill-opacity="0.34" stroke="#0e5b52" stroke-width="1.6" />
  <path d="M391.1 393.0 L391.1 382.9 L391.1 382.9 L381.0 382.9 L381.0 382.9 L381.0 391.3 L381.0 391.9 L381.0 391.9 L381.0 393.0 L391.1 393.0 Z" fill="#2f8f83" fill-opacity="0.34" stroke="#0e5b52" stroke-width="1.6" />
  <path d="M401.2 393.0 L401.2 383.0 L401.2 382.9 L391.1 382.9 L391.1 382.9 L391.1 393.0 L401.2 393.0 Z" fill="#2f8f83" fill-opacity="0.34" stroke="#0e5b52" stroke-width="1.6" />
  <path d="M628.1 263.8 L628.1 234.4 L618.0 234.3 L587.7 234.3 L587.7 264.7 L589.1 264.7 L589.1 263.8 L628.1 263.8 Z" fill="#2f8f83" fill-opacity="0.34" stroke="#0e5b52" stroke-width="1.6" />
  <path d="M363.1 391.9 L357.2 383.7 L356.6 383.0 L349.6 383.0 L339.5 383.0 L330.6 383.0 L330.6 384.8 L330.6 413.3 L350.8 413.3 L381.0 413.3 L381.0 413.3 L381.0 391.9 L381.0 391.9 L381.0 391.3 L377.2 394.1 L369.1 400.1 L363.1 391.9 Z" fill="#2f8f83" fill-opacity="0.34" stroke="#0e5b52" stroke-width="1.6" />
  <path d="M401.2 453.7 L401.2 413.3 L391.1 413.3 L381.0 413.3 L381.0 413.3 L350.8 413.3 L350.8 413.3 L350.8 453.7 L401.2 453.7 Z" fill="#2f8f83" fill-opacity="0.34" stroke="#0e5b52" stroke-width="1.6" />
  <path d="M360.9 324.2 L360.9 314.0 L310.4 314.0 L310.4 354.5 L335.9 354.5 L333.4 351.1 L341.5 345.1 L349.7 339.1 L355.6 347.3 L360.9 354.5 L360.9 334.3 L360.9 332.4 L360.9 324.2 Z" fill="#2f8f83" fill-opacity="0.34" stroke="#0e5b52" stroke-width="1.6" />
  <path d="M371.0 324.2 L371.0 314.0 L360.9 314.0 L360.9 324.2 L371.0 324.2 Z" fill="#2f8f83" fill-opacity="0.34" stroke="#0e5b52" stroke-width="1.6" />
  <path d="M371.0 332.4 L371.0 324.2 L360.9 324.2 L360.9 332.4 L371.0 332.4 Z" fill="#2f8f83" fill-opacity="0.34" stroke="#0e5b52" stroke-width="1.6" />
  <path d="M339.3 359.2 L335.9 354.5 L329.4 354.5 L329.4 364.6 L339.5 364.6 L339.5 359.4 L339.3 359.2 Z" fill="#2f8f83" fill-opacity="0.34" stroke="#0e5b52" stroke-width="1.6" />
  <path d="M339.5 374.7 L339.5 364.6 L329.4 364.6 L329.4 374.7 L339.5 374.7 Z" fill="#2f8f83" fill-opacity="0.34" stroke="#0e5b52" stroke-width="1.6" />
  <path d="M339.5 383.0 L339.5 374.7 L329.4 374.7 L329.4 384.8 L330.6 384.8 L330.6 383.0 L339.5 383.0 Z" fill="#2f8f83" fill-opacity="0.34" stroke="#0e5b52" stroke-width="1.6" />
  <path d="M345.3 367.4 L343.3 364.6 L339.5 364.6 L339.5 374.7 L349.6 374.7 L349.6 373.3 L345.3 367.4 Z" fill="#2f8f83" fill-opacity="0.34" stroke="#0e5b52" stroke-width="1.6" />
  <path d="M349.6 383.0 L349.6 374.7 L339.5 374.7 L339.5 383.0 L349.6 383.0 Z" fill="#2f8f83" fill-opacity="0.34" stroke="#0e5b52" stroke-width="1.6" />
  <path d="M431.2 263.8 L431.1 214.1 L422.9 214.1 L390.8 214.1 L390.8 264.8 L422.9 264.7 L431.2 264.8 L431.2 263.8 Z" fill="#2f8f83" fill-opacity="0.34" stroke="#0e5b52" stroke-width="1.6" />
  <path d="M629.0 343.7 L629.0 353.1 L629.0 362.5 L629.0 371.9 L637.6 371.9 L646.3 371.9 L654.9 371.9 L663.6 371.9 L663.6 362.5 L663.6 353.1 L663.6 343.7 L663.6 334.4 L654.9 334.4 L646.3 334.4 L637.6 334.4 L629.0 334.4 L629.0 343.7 Z" fill="#2f8f83" fill-opacity="0.34" stroke="#0e5b52" stroke-width="1.6" />
  <path d="M351.8 296.9 L351.8 306.2 L351.8 315.6 L360.5 315.6 L369.1 315.6 L369.1 325.0 L369.1 334.4 L377.8 334.4 L386.4 334.4 L395.1 334.4 L395.1 325.0 L403.8 325.0 L412.4 325.0 L421.1 325.0 L429.7 325.0 L429.7 315.6 L421.1 315.6 L412.4 315.6 L403.8 315.6 L395.1 315.6 L395.1 306.2 L395.1 296.9 L395.1 287.5 L386.4 287.5 L377.8 287.5 L369.1 287.5 L360.5 287.5 L351.8 287.5 L351.8 296.9 Z" fill="#2f8f83" fill-opacity="0.34" stroke="#0e5b52" stroke-width="1.6" />
  <path d="M585.6 456.2 L585.6 465.6 L594.3 465.6 L594.3 456.2 L594.3 446.8 L585.6 446.8 L585.6 456.2 Z" fill="#2f8f83" fill-opacity="0.34" stroke="#0e5b52" stroke-width="1.6" />
  <path d="M481.7 428.1 L473.1 428.1 L473.1 437.5 L481.7 437.5 L481.7 446.8 L490.4 446.8 L499.0 446.8 L499.0 437.5 L507.7 437.5 L507.7 446.8 L516.4 446.8 L516.4 437.5 L516.4 428.1 L516.4 418.7 L516.4 409.4 L507.7 409.4 L507.7 418.7 L507.7 428.1 L499.0 428.1 L490.4 428.1 L481.7 428.1 Z" fill="#2f8f83" fill-opacity="0.34" stroke="#0e5b52" stroke-width="1.6" />
  <path d="M585.6 371.9 L585.6 381.2 L585.6 390.6 L585.6 400.0 L585.6 409.4 L585.6 418.7 L585.6 428.1 L585.6 437.5 L577.0 437.5 L577.0 446.8 L585.6 446.8 L594.3 446.8 L594.3 437.5 L594.3 428.1 L594.3 418.7 L594.3 409.4 L594.3 400.0 L594.3 390.6 L594.3 381.2 L594.3 371.9 L594.3 362.5 L585.6 362.5 L585.6 371.9 Z" fill="#2f8f83" fill-opacity="0.34" stroke="#0e5b52" stroke-width="1.6" />
  <path d="M360.5 446.8 L351.8 446.8 L351.8 456.2 L360.5 456.2 L369.1 456.2 L377.8 456.2 L386.4 456.2 L395.1 456.2 L403.8 456.2 L403.8 446.8 L403.8 437.5 L395.1 437.5 L395.1 446.8 L386.4 446.8 L377.8 446.8 L369.1 446.8 L360.5 446.8 Z" fill="#2f8f83" fill-opacity="0.34" stroke="#0e5b52" stroke-width="1.6" />
  <path d="M585.6 174.9 L585.6 184.2 L585.6 193.6 L594.3 193.6 L603.0 193.6 L611.6 193.6 L611.6 184.2 L611.6 174.9 L611.6 165.5 L603.0 165.5 L594.3 165.5 L585.6 165.5 L585.6 174.9 Z" fill="#2f8f83" fill-opacity="0.34" stroke="#0e5b52" stroke-width="1.6" />
  <path d="M386.4 127.9 L386.4 137.3 L386.4 146.7 L386.4 156.1 L386.4 165.5 L386.4 174.9 L395.1 174.9 L403.8 174.9 L412.4 174.9 L421.1 174.9 L429.7 174.9 L429.7 165.5 L429.7 156.1 L429.7 146.7 L429.7 137.3 L429.7 127.9 L429.7 118.5 L421.1 118.5 L412.4 118.5 L403.8 118.5 L395.1 118.5 L386.4 118.5 L386.4 127.9 Z" fill="#2f8f83" fill-opacity="0.34" stroke="#0e5b52" stroke-width="1.6" />
  <path d="M386.4 184.2 L386.4 193.6 L386.4 203.0 L386.4 212.4 L395.1 212.4 L395.1 221.8 L403.8 221.8 L412.4 221.8 L421.1 221.8 L429.7 221.8 L429.7 212.4 L429.7 203.0 L429.7 193.6 L429.7 184.2 L429.7 174.9 L421.1 174.9 L412.4 174.9 L403.8 174.9 L395.1 174.9 L386.4 174.9 L386.4 184.2 Z" fill="#2f8f83" fill-opacity="0.34" stroke="#0e5b52" stroke-width="1.6" />
  <path d="M351.8 174.9 L351.8 184.3 L351.8 193.6 L351.8 203.0 L351.8 212.4 L360.5 212.4 L369.1 212.4 L377.8 212.4 L386.4 212.4 L386.4 203.0 L386.4 193.6 L386.4 184.2 L386.4 174.9 L386.4 165.5 L377.8 165.5 L369.1 165.5 L360.5 165.5 L351.8 165.5 L351.8 174.9 Z" fill="#2f8f83" fill-opacity="0.34" stroke="#0e5b52" stroke-width="1.6" />
  <path d="M343.1 127.9 L343.1 137.3 L343.1 146.7 L343.1 156.1 L343.1 165.5 L351.8 165.5 L360.5 165.5 L369.1 165.5 L377.8 165.5 L386.4 165.5 L386.4 156.1 L386.4 146.7 L386.4 137.3 L386.4 127.9 L386.4 118.5 L377.8 118.5 L369.1 118.5 L360.5 118.5 L351.8 118.5 L343.1 118.5 L343.1 127.9 Z" fill="#2f8f83" fill-opacity="0.34" stroke="#0e5b52" stroke-width="1.6" />
  <path d="M429.7 306.2 L429.7 315.6 L438.4 315.6 L447.1 315.6 L455.7 315.6 L464.4 315.6 L473.1 315.6 L473.1 306.2 L473.1 296.9 L464.4 296.9 L455.7 296.9 L447.1 296.9 L438.4 296.9 L429.7 296.9 L429.7 306.2 Z" fill="#2f8f83" fill-opacity="0.34" stroke="#0e5b52" stroke-width="1.6" />
  <path d="M473.1 306.2 L473.1 315.6 L481.7 315.6 L490.4 315.6 L499.0 315.6 L507.7 315.6 L507.7 306.2 L507.7 296.9 L499.0 296.9 L490.4 296.9 L481.7 296.9 L473.1 296.9 L473.1 306.2 Z" fill="#2f8f83" fill-opacity="0.34" stroke="#0e5b52" stroke-width="1.6" />
  <path d="M507.7 306.2 L507.7 315.6 L516.4 315.6 L525.0 315.6 L533.7 315.6 L542.3 315.6 L542.3 306.2 L542.3 296.9 L533.7 296.9 L525.0 296.9 L516.4 296.9 L507.7 296.9 L507.7 306.2 Z" fill="#2f8f83" fill-opacity="0.34" stroke="#0e5b52" stroke-width="1.6" />
  <path d="M542.3 306.2 L542.3 315.6 L551.0 315.6 L559.7 315.6 L568.3 315.6 L577.0 315.6 L585.6 315.6 L585.6 306.2 L585.6 296.9 L577.0 296.9 L568.3 296.9 L559.7 296.9 L551.0 296.9 L542.3 296.9 L542.3 306.2 Z" fill="#2f8f83" fill-opacity="0.34" stroke="#0e5b52" stroke-width="1.6" />
  <path d="M395.1 268.7 L395.1 278.1 L395.1 287.5 L395.1 296.9 L395.1 306.2 L395.1 315.6 L403.8 315.6 L412.4 315.6 L421.1 315.6 L429.7 315.6 L429.7 306.2 L429.7 296.9 L429.7 287.5 L429.7 278.1 L429.7 268.7 L429.7 259.3 L421.1 259.3 L412.4 259.3 L403.8 259.3 L395.1 259.3 L395.1 268.7 Z" fill="#2f8f83" fill-opacity="0.34" stroke="#0e5b52" stroke-width="1.6" />
  <path d="M507.7 127.9 L507.7 137.3 L507.7 146.7 L507.7 156.1 L507.7 165.5 L507.7 174.9 L516.4 174.9 L525.0 174.9 L533.7 174.9 L542.3 174.9 L551.0 174.9 L559.7 174.9 L559.7 165.5 L559.7 156.1 L559.7 146.7 L559.7 137.3 L559.7 127.9 L559.7 118.5 L551.0 118.5 L542.3 118.5 L533.7 118.5 L525.0 118.5 L516.4 118.5 L507.7 118.5 L507.7 127.9 Z" fill="#2f8f83" fill-opacity="0.34" stroke="#0e5b52" stroke-width="1.6" />
  <path d="M533.7 184.2 L533.7 193.6 L542.3 193.6 L551.0 193.6 L559.7 193.6 L568.3 193.6 L577.0 193.6 L585.6 193.6 L585.6 184.2 L585.6 174.9 L585.6 165.5 L577.0 165.5 L568.3 165.5 L559.7 165.5 L559.7 174.9 L551.0 174.9 L542.3 174.9 L533.7 174.9 L533.7 184.2 Z" fill="#2f8f83" fill-opacity="0.34" stroke="#0e5b52" stroke-width="1.6" />
  <path d="M559.7 127.9 L559.7 137.3 L559.7 146.7 L559.7 156.1 L559.7 165.5 L568.3 165.5 L577.0 165.5 L585.6 165.5 L594.3 165.5 L594.3 156.1 L594.3 146.7 L594.3 137.3 L594.3 127.9 L594.3 118.5 L585.6 118.5 L577.0 118.5 L568.3 118.5 L559.7 118.5 L559.7 127.9 Z" fill="#2f8f83" fill-opacity="0.34" stroke="#0e5b52" stroke-width="1.6" />
  <path d="M594.3 296.9 L585.6 296.9 L585.6 306.2 L594.3 306.2 L594.3 296.9 Z" fill="#2f8f83" fill-opacity="0.34" stroke="#0e5b52" stroke-width="1.6" />
  <path d="M490.4 184.2 L490.4 193.6 L490.4 203.0 L490.4 212.4 L499.0 212.4 L499.0 221.8 L507.7 221.8 L516.4 221.8 L525.0 221.8 L533.7 221.8 L542.3 221.8 L542.3 212.4 L542.3 203.0 L542.3 193.6 L533.7 193.6 L533.7 184.2 L533.7 174.9 L525.0 174.9 L516.4 174.9 L507.7 174.9 L499.0 174.9 L490.4 174.9 L490.4 184.2 Z" fill="#2f8f83" fill-opacity="0.34" stroke="#0e5b52" stroke-width="1.6" />
  <path d="M542.3 203.0 L542.3 212.4 L542.3 221.8 L542.3 231.2 L551.0 231.2 L559.7 231.2 L559.7 240.6 L568.3 240.6 L577.0 240.6 L585.6 240.6 L594.3 240.6 L594.3 231.2 L594.3 221.8 L594.3 212.4 L594.3 203.0 L594.3 193.6 L585.6 193.6 L577.0 193.6 L568.3 193.6 L559.7 193.6 L551.0 193.6 L542.3 193.6 L542.3 203.0 Z" fill="#2f8f83" fill-opacity="0.34" stroke="#0e5b52" stroke-width="1.6" />
  <path d="M559.7 250.0 L559.7 259.3 L568.3 259.3 L577.0 259.3 L585.6 259.3 L594.3 259.3 L594.3 250.0 L594.3 240.6 L585.6 240.6 L577.0 240.6 L568.3 240.6 L559.7 240.6 L559.7 250.0 Z" fill="#2f8f83" fill-opacity="0.34" stroke="#0e5b52" stroke-width="1.6" />
  <path d="M473.1 184.2 L473.1 193.6 L473.1 203.0 L473.1 212.4 L481.7 212.4 L490.4 212.4 L490.4 203.0 L490.4 193.6 L490.4 184.2 L490.4 174.9 L481.7 174.9 L473.1 174.9 L473.1 184.2 Z" fill="#2f8f83" fill-opacity="0.34" stroke="#0e5b52" stroke-width="1.6" />
  <path d="M594.3 203.0 L594.3 212.4 L594.3 221.8 L594.3 231.2 L594.3 240.6 L603.0 240.6 L611.6 240.6 L620.3 240.6 L620.3 231.2 L620.3 221.8 L620.3 212.4 L620.3 203.0 L620.3 193.6 L611.6 193.6 L603.0 193.6 L594.3 193.6 L594.3 203.0 Z" fill="#2f8f83" fill-opacity="0.34" stroke="#0e5b52" stroke-width="1.6" />
  <path d="M360.5 221.8 L360.5 231.2 L369.1 231.2 L377.8 231.2 L386.4 231.2 L386.4 240.6 L386.4 250.0 L386.4 259.3 L386.4 268.7 L386.4 278.1 L386.4 287.5 L395.1 287.5 L395.1 278.1 L395.1 268.7 L395.1 259.3 L395.1 250.0 L395.1 240.6 L395.1 231.2 L395.1 221.8 L395.1 212.4 L386.4 212.4 L377.8 212.4 L369.1 212.4 L360.5 212.4 L360.5 221.8 Z" fill="#2f8f83" fill-opacity="0.34" stroke="#0e5b52" stroke-width="1.6" />
  <path d="M360.5 240.6 L360.5 250.0 L360.5 259.3 L360.5 268.7 L360.5 278.1 L360.5 287.5 L369.1 287.5 L377.8 287.5 L386.4 287.5 L386.4 278.1 L386.4 268.7 L386.4 259.3 L386.4 250.0 L386.4 240.6 L386.4 231.2 L377.8 231.2 L369.1 231.2 L360.5 231.2 L360.5 240.6 Z" fill="#2f8f83" fill-opacity="0.34" stroke="#0e5b52" stroke-width="1.6" />
  <path d="M551.0 362.5 L551.0 371.9 L551.0 381.2 L551.0 390.6 L551.0 400.0 L551.0 409.4 L559.7 409.4 L568.3 409.4 L577.0 409.4 L585.6 409.4 L585.6 400.0 L585.6 390.6 L585.6 381.2 L585.6 371.9 L585.6 362.5 L594.3 362.5 L594.3 353.1 L585.6 353.1 L577.0 353.1 L568.3 353.1 L559.7 353.1 L551.0 353.1 L551.0 362.5 Z" fill="#2f8f83" fill-opacity="0.34" stroke="#0e5b52" stroke-width="1.6" />
  <path d="M507.7 381.2 L507.7 390.6 L507.7 400.0 L507.7 409.4 L516.4 409.4 L525.0 409.4 L533.7 409.4 L542.3 409.4 L551.0 409.4 L551.0 400.0 L551.0 390.6 L551.0 381.2 L551.0 371.9 L551.0 362.5 L551.0 353.1 L542.3 353.1 L533.7 353.1 L525.0 353.1 L516.4 353.1 L516.4 362.5 L516.4 371.9 L507.7 371.9 L507.7 381.2 Z" fill="#2f8f83" fill-opacity="0.34" stroke="#0e5b52" stroke-width="1.6" />
  <path d="M525.0 409.4 L516.4 409.4 L516.4 418.7 L525.0 418.7 L533.7 418.7 L542.3 418.7 L551.0 418.7 L559.7 418.7 L568.3 418.7 L577.0 418.7 L577.0 409.4 L568.3 409.4 L559.7 409.4 L551.0 409.4 L542.3 409.4 L533.7 409.4 L525.0 409.4 Z" fill="#2f8f83" fill-opacity="0.34" stroke="#0e5b52" stroke-width="1.6" />
  <path d="M516.4 428.1 L516.4 437.5 L516.4 446.8 L525.0 446.8 L533.7 446.8 L542.3 446.8 L551.0 446.8 L559.7 446.8 L568.3 446.8 L577.0 446.8 L577.0 437.5 L577.0 428.1 L577.0 418.7 L568.3 418.7 L559.7 418.7 L551.0 418.7 L542.3 418.7 L533.7 418.7 L525.0 418.7 L516.4 418.7 L516.4 428.1 Z" fill="#2f8f83" fill-opacity="0.34" stroke="#0e5b52" stroke-width="1.6" />
  <path d="M577.0 418.7 L577.0 428.1 L577.0 437.5 L585.6 437.5 L585.6 428.1 L585.6 418.7 L585.6 409.4 L577.0 409.4 L577.0 418.7 Z" fill="#2f8f83" fill-opacity="0.34" stroke="#0e5b52" stroke-width="1.6" />
  <path d="M473.1 362.5 L473.1 371.9 L481.7 371.9 L490.4 371.9 L499.0 371.9 L507.7 371.9 L516.4 371.9 L516.4 362.5 L516.4 353.1 L516.4 343.7 L507.7 343.8 L499.0 343.7 L490.4 343.8 L490.4 353.1 L481.7 353.1 L473.1 353.1 L473.1 362.5 Z" fill="#2f8f83" fill-opacity="0.34" stroke="#0e5b52" stroke-width="1.6" />
  <path d="M481.7 146.7 L481.7 156.1 L481.7 165.5 L481.7 174.9 L490.4 174.9 L499.0 174.9 L507.7 174.9 L507.7 165.5 L507.7 156.1 L507.7 146.7 L507.7 137.3 L499.0 137.3 L490.4 137.3 L481.7 137.3 L481.7 146.7 Z" fill="#2f8f83" fill-opacity="0.34" stroke="#0e5b52" stroke-width="1.6" />
  <path d="M481.7 127.9 L481.7 137.3 L490.4 137.3 L499.0 137.3 L507.7 137.3 L507.7 127.9 L507.7 118.5 L499.0 118.5 L490.4 118.5 L481.7 118.5 L481.7 127.9 Z" fill="#2f8f83" fill-opacity="0.34" stroke="#0e5b52" stroke-width="1.6" />
  <path d="M412.4 456.2 L403.8 456.2 L403.8 465.6 L412.4 465.6 L412.4 456.2 Z" fill="#2f8f83" fill-opacity="0.34" stroke="#0e5b52" stroke-width="1.6" />
  <path d="M663.6 343.7 L663.6 353.1 L663.6 362.5 L663.6 371.9 L672.3 371.9 L680.9 371.9 L680.9 362.5 L680.9 353.1 L680.9 343.7 L680.9 334.4 L672.3 334.4 L663.6 334.4 L663.6 343.7 Z" fill="#2f8f83" fill-opacity="0.34" stroke="#0e5b52" stroke-width="1.6" />
  <path d="M568.3 456.2 L568.3 465.6 L577.0 465.6 L585.6 465.6 L585.6 456.2 L585.6 446.8 L577.0 446.8 L568.3 446.8 L568.3 456.2 Z" fill="#2f8f83" fill-opacity="0.34" stroke="#0e5b52" stroke-width="1.6" />
  <path d="M663.6 325.0 L654.9 325.0 L654.9 334.4 L663.6 334.4 L672.3 334.4 L680.9 334.4 L680.9 343.7 L680.9 353.1 L680.9 362.5 L680.9 371.9 L680.9 381.2 L680.9 390.6 L689.6 390.6 L689.6 381.2 L689.6 371.9 L689.6 362.5 L689.6 353.1 L689.6 343.7 L689.6 334.4 L689.6 325.0 L680.9 325.0 L672.3 325.0 L663.6 325.0 Z" fill="#2f8f83" fill-opacity="0.34" stroke="#0e5b52" stroke-width="1.6" />
  <path d="M525.0 456.2 L525.0 465.6 L533.7 465.6 L542.3 465.6 L551.0 465.6 L559.7 465.6 L568.3 465.6 L568.3 456.2 L568.3 446.8 L559.7 446.8 L551.0 446.8 L542.3 446.8 L533.7 446.8 L525.0 446.8 L525.0 456.2 Z" fill="#2f8f83" fill-opacity="0.34" stroke="#0e5b52" stroke-width="1.6" />
  <path d="M499.0 446.8 L499.0 456.2 L499.0 465.6 L507.7 465.6 L516.4 465.6 L525.0 465.6 L525.0 456.2 L525.0 446.8 L516.4 446.8 L507.7 446.8 L507.7 437.5 L499.0 437.5 L499.0 446.8 Z" fill="#2f8f83" fill-opacity="0.34" stroke="#0e5b52" stroke-width="1.6" />
  <path d="M412.4 446.8 L403.8 446.8 L403.8 456.2 L412.4 456.2 L412.4 465.6 L421.1 465.6 L429.7 465.6 L438.4 465.6 L447.1 465.6 L455.7 465.6 L464.4 465.6 L473.1 465.6 L481.7 465.6 L490.4 465.6 L499.0 465.6 L499.0 456.2 L499.0 446.8 L490.4 446.8 L481.7 446.8 L481.7 437.5 L473.1 437.5 L464.4 437.5 L455.7 437.5 L447.1 437.5 L447.1 446.8 L438.4 446.8 L429.7 446.8 L421.1 446.8 L412.4 446.8 Z" fill="#2f8f83" fill-opacity="0.34" stroke="#0e5b52" stroke-width="1.6" />
  <path d="M646.3 371.9 L637.6 371.9 L637.6 381.2 L646.3 381.2 L654.9 381.2 L663.6 381.2 L672.3 381.2 L680.9 381.2 L680.9 371.9 L672.3 371.9 L663.6 371.9 L654.9 371.9 L646.3 371.9 Z" fill="#2f8f83" fill-opacity="0.34" stroke="#0e5b52" stroke-width="1.6" />
  <path d="M594.3 306.2 L594.3 315.6 L603.0 315.6 L611.6 315.6 L620.3 315.6 L629.0 315.6 L629.0 306.2 L629.0 296.9 L629.0 287.5 L629.0 278.1 L629.0 268.7 L629.0 259.3 L620.3 259.3 L611.6 259.3 L603.0 259.3 L603.0 268.7 L603.0 278.1 L603.0 287.5 L603.0 296.9 L594.3 296.9 L594.3 306.2 Z" fill="#2f8f83" fill-opacity="0.34" stroke="#0e5b52" stroke-width="1.6" />
  <path d="M594.3 306.2 L585.6 306.2 L585.6 315.6 L594.3 315.6 L594.3 306.2 Z" fill="#2f8f83" fill-opacity="0.34" stroke="#0e5b52" stroke-width="1.6" />
  <path d="M646.3 381.2 L637.6 381.2 L637.6 390.6 L646.3 390.6 L654.9 390.6 L663.6 390.6 L672.3 390.6 L680.9 390.6 L680.9 381.2 L672.3 381.2 L663.6 381.2 L654.9 381.2 L646.3 381.2 Z" fill="#2f8f83" fill-opacity="0.34" stroke="#0e5b52" stroke-width="1.6" />
  <path d="M637.6 381.2 L629.0 381.2 L629.0 390.6 L637.6 390.6 L637.6 381.2 Z" fill="#2f8f83" fill-opacity="0.34" stroke="#0e5b52" stroke-width="1.6" />
  <path d="M637.6 371.9 L629.0 371.9 L629.0 381.2 L637.6 381.2 L637.6 371.9 Z" fill="#2f8f83" fill-opacity="0.34" stroke="#0e5b52" stroke-width="1.6" />
  <path d="M412.4 381.2 L412.4 390.6 L421.1 390.6 L421.1 400.0 L421.1 409.4 L421.1 418.7 L429.7 418.7 L438.4 418.7 L438.4 409.4 L447.1 409.4 L447.1 400.0 L447.1 390.6 L447.1 381.2 L447.1 371.9 L438.4 371.9 L438.4 362.5 L429.7 362.5 L421.1 362.5 L421.1 371.9 L412.4 371.9 L412.4 381.2 Z" fill="#2f8f83" fill-opacity="0.34" stroke="#0e5b52" stroke-width="1.6" />
  <path d="M403.8 325.0 L395.1 325.0 L395.1 334.4 L403.8 334.4 L403.8 343.8 L403.8 353.1 L403.8 362.5 L403.8 371.9 L403.8 381.2 L403.8 390.6 L403.8 400.0 L403.8 409.4 L403.8 418.7 L403.8 428.1 L403.8 437.5 L403.8 446.8 L412.4 446.8 L421.1 446.8 L429.7 446.8 L438.4 446.8 L447.1 446.8 L447.1 437.5 L455.7 437.5 L464.4 437.5 L473.1 437.5 L473.1 428.1 L473.1 418.7 L473.1 409.4 L473.1 400.0 L464.4 400.0 L464.4 390.6 L455.7 390.6 L455.7 381.2 L455.7 371.9 L464.4 371.9 L464.4 362.5 L464.4 353.1 L455.7 353.1 L447.1 353.1 L438.4 353.1 L438.4 343.8 L438.4 334.4 L438.4 325.0 L438.4 315.6 L429.7 315.6 L429.7 325.0 L421.1 325.0 L412.4 325.0 L403.8 325.0 Z M421.1 362.5 L429.7 362.5 L438.4 362.5 L438.4 371.9 L447.1 371.9 L447.1 381.2 L447.1 390.6 L447.1 400.0 L447.1 409.4 L438.4 409.4 L438.4 418.7 L429.7 418.7 L421.1 418.7 L421.1 409.4 L421.1 400.0 L421.1 390.6 L412.4 390.6 L412.4 381.2 L412.4 371.9 L421.1 371.9 L421.1 362.5 Z" fill="#2f8f83" fill-opacity="0.34" stroke="#0e5b52" stroke-width="1.6" />
  <path d="M473.1 390.6 L464.4 390.6 L464.4 400.0 L473.1 400.0 L473.1 390.6 Z" fill="#2f8f83" fill-opacity="0.34" stroke="#0e5b52" stroke-width="1.6" />
  <path d="M464.4 362.5 L464.4 371.9 L473.1 371.9 L473.1 362.5 L473.1 353.1 L464.4 353.1 L464.4 362.5 Z" fill="#2f8f83" fill-opacity="0.34" stroke="#0e5b52" stroke-width="1.6" />
  <path d="M473.1 287.5 L473.1 296.9 L481.7 296.9 L490.4 296.9 L499.0 296.9 L507.7 296.9 L516.4 296.9 L516.4 287.5 L516.4 278.1 L507.7 278.1 L499.0 278.1 L490.4 278.1 L481.7 278.1 L473.1 278.1 L473.1 287.5 Z" fill="#2f8f83" fill-opacity="0.34" stroke="#0e5b52" stroke-width="1.6" />
  <path d="M542.3 474.9 L542.3 484.3 L551.0 484.3 L551.0 474.9 L551.0 465.6 L542.3 465.6 L542.3 474.9 Z" fill="#2f8f83" fill-opacity="0.34" stroke="#0e5b52" stroke-width="1.6" />
  <path d="M447.1 278.1 L447.1 287.5 L455.7 287.5 L464.4 287.5 L473.1 287.5 L473.1 278.1 L473.1 268.7 L464.4 268.7 L455.7 268.7 L447.1 268.7 L447.1 278.1 Z" fill="#2f8f83" fill-opacity="0.34" stroke="#0e5b52" stroke-width="1.6" />
  <path d="M429.7 184.2 L429.7 193.6 L429.7 203.0 L429.7 212.4 L429.7 221.8 L438.4 221.8 L447.1 221.8 L455.7 221.8 L464.4 221.8 L473.1 221.8 L481.7 221.8 L490.4 221.8 L499.0 221.8 L499.0 212.4 L490.4 212.4 L481.7 212.4 L473.1 212.4 L473.1 203.0 L473.1 193.6 L473.1 184.2 L473.1 174.9 L464.4 174.9 L455.7 174.9 L447.1 174.9 L438.4 174.9 L429.7 174.9 L429.7 184.2 Z" fill="#2f8f83" fill-opacity="0.34" stroke="#0e5b52" stroke-width="1.6" />
  <path d="M438.4 221.8 L429.7 221.8 L429.7 231.2 L438.4 231.2 L447.1 231.2 L455.7 231.2 L455.7 240.6 L455.7 250.0 L455.7 259.3 L455.7 268.7 L464.4 268.7 L473.1 268.7 L473.1 278.1 L481.7 278.1 L490.4 278.1 L490.4 268.7 L490.4 259.3 L490.4 250.0 L490.4 240.6 L490.4 231.2 L490.4 221.8 L481.7 221.8 L473.1 221.8 L464.4 221.8 L455.7 221.8 L447.1 221.8 L438.4 221.8 Z" fill="#2f8f83" fill-opacity="0.34" stroke="#0e5b52" stroke-width="1.6" />
  <path d="M490.4 231.2 L490.4 240.6 L490.4 250.0 L490.4 259.3 L490.4 268.7 L490.4 278.1 L499.0 278.1 L507.7 278.1 L516.4 278.1 L516.4 268.7 L516.4 259.3 L516.4 250.0 L516.4 240.6 L516.4 231.2 L516.4 221.8 L507.7 221.8 L499.0 221.8 L490.4 221.8 L490.4 231.2 Z" fill="#2f8f83" fill-opacity="0.34" stroke="#0e5b52" stroke-width="1.6" />
  <path d="M516.4 231.2 L516.4 240.6 L516.4 250.0 L516.4 259.3 L516.4 268.7 L516.4 278.1 L516.4 287.5 L516.4 296.9 L525.0 296.9 L533.7 296.9 L542.3 296.9 L542.3 287.5 L542.3 278.1 L542.3 268.7 L542.3 259.3 L542.3 250.0 L542.3 240.6 L542.3 231.2 L542.3 221.8 L533.7 221.8 L525.0 221.8 L516.4 221.8 L516.4 231.2 Z" fill="#2f8f83" fill-opacity="0.34" stroke="#0e5b52" stroke-width="1.6" />
  <path d="M542.3 240.6 L542.3 250.0 L542.3 259.3 L542.3 268.7 L542.3 278.1 L542.3 287.5 L542.3 296.9 L551.0 296.9 L559.7 296.9 L568.3 296.9 L568.3 287.5 L568.3 278.1 L568.3 268.7 L568.3 259.3 L559.7 259.3 L559.7 250.0 L559.7 240.6 L559.7 231.2 L551.0 231.2 L542.3 231.2 L542.3 240.6 Z" fill="#2f8f83" fill-opacity="0.34" stroke="#0e5b52" stroke-width="1.6" />
  <path d="M568.3 268.7 L568.3 278.1 L568.3 287.5 L568.3 296.9 L577.0 296.9 L585.6 296.9 L594.3 296.9 L603.0 296.9 L603.0 287.5 L603.0 278.1 L603.0 268.7 L603.0 259.3 L594.3 259.3 L585.6 259.3 L577.0 259.3 L568.3 259.3 L568.3 268.7 Z" fill="#2f8f83" fill-opacity="0.34" stroke="#0e5b52" stroke-width="1.6" />
  <path d="M334.5 353.1 L334.5 362.5 L334.5 371.9 L343.1 371.9 L343.1 381.2 L351.8 381.2 L351.8 390.6 L360.5 390.6 L360.5 400.0 L369.1 400.0 L377.8 400.0 L386.4 400.0 L386.4 390.6 L386.4 381.2 L377.8 381.2 L369.1 381.2 L360.5 381.2 L360.5 371.9 L360.5 362.5 L360.5 353.1 L360.5 343.8 L351.8 343.8 L351.8 334.4 L343.1 334.4 L343.1 343.8 L334.5 343.8 L334.5 353.1 Z" fill="#2f8f83" fill-opacity="0.34" stroke="#0e5b52" stroke-width="1.6" />
  <path d="M577.0 474.9 L577.0 484.3 L577.0 493.6 L577.0 503.0 L577.0 512.4 L577.0 521.7 L585.6 521.7 L594.3 521.7 L603.0 521.7 L603.0 512.4 L603.0 503.0 L603.0 493.6 L603.0 484.3 L603.0 474.9 L603.0 465.6 L594.3 465.6 L585.6 465.6 L577.0 465.6 L577.0 474.9 Z" fill="#2f8f83" fill-opacity="0.34" stroke="#0e5b52" stroke-width="1.6" />
  <path d="M551.0 474.9 L551.0 484.3 L551.0 493.6 L551.0 503.0 L551.0 512.4 L551.0 521.7 L559.7 521.7 L568.3 521.7 L577.0 521.7 L577.0 512.4 L577.0 503.0 L577.0 493.6 L577.0 484.3 L577.0 474.9 L577.0 465.6 L568.3 465.6 L559.7 465.6 L551.0 465.6 L551.0 474.9 Z" fill="#2f8f83" fill-opacity="0.34" stroke="#0e5b52" stroke-width="1.6" />
  <path d="M516.4 474.9 L516.4 484.3 L516.4 493.6 L516.4 503.0 L516.4 512.4 L516.4 521.7 L525.0 521.7 L533.7 521.7 L542.3 521.7 L551.0 521.7 L551.0 512.4 L551.0 503.0 L551.0 493.6 L551.0 484.3 L542.3 484.3 L542.3 474.9 L542.3 465.6 L533.7 465.6 L525.0 465.6 L516.4 465.6 L516.4 474.9 Z" fill="#2f8f83" fill-opacity="0.34" stroke="#0e5b52" stroke-width="1.6" />
  <path d="M490.4 474.9 L490.4 484.3 L490.4 493.6 L490.4 503.0 L490.4 512.4 L490.4 521.7 L499.0 521.7 L507.7 521.7 L516.4 521.7 L516.4 512.4 L516.4 503.0 L516.4 493.6 L516.4 484.3 L516.4 474.9 L516.4 465.6 L507.7 465.6 L499.0 465.6 L490.4 465.6 L490.4 474.9 Z" fill="#2f8f83" fill-opacity="0.34" stroke="#0e5b52" stroke-width="1.6" />
  <path d="M464.4 474.9 L464.4 484.3 L464.4 493.6 L464.4 503.0 L464.4 512.4 L464.4 521.7 L473.1 521.7 L481.7 521.7 L490.4 521.7 L490.4 512.4 L490.4 503.0 L490.4 493.6 L490.4 484.3 L490.4 474.9 L490.4 465.6 L481.7 465.6 L473.1 465.6 L464.4 465.6 L464.4 474.9 Z" fill="#2f8f83" fill-opacity="0.34" stroke="#0e5b52" stroke-width="1.6" />
  <path d="M438.4 474.9 L438.4 484.3 L438.4 493.6 L438.4 503.0 L438.4 512.4 L438.4 521.7 L447.1 521.7 L455.7 521.7 L464.4 521.7 L464.4 512.4 L464.4 503.0 L464.4 493.6 L464.4 484.3 L464.4 474.9 L464.4 465.6 L455.7 465.6 L447.1 465.6 L438.4 465.6 L438.4 474.9 Z" fill="#2f8f83" fill-opacity="0.34" stroke="#0e5b52" stroke-width="1.6" />
  <path d="M412.4 474.9 L412.4 484.3 L412.4 493.6 L412.4 503.0 L412.4 512.4 L412.4 521.7 L421.1 521.7 L429.7 521.7 L438.4 521.7 L438.4 512.4 L438.4 503.0 L438.4 493.6 L438.4 484.3 L438.4 474.9 L438.4 465.6 L429.7 465.6 L421.1 465.6 L412.4 465.6 L412.4 474.9 Z" fill="#2f8f83" fill-opacity="0.34" stroke="#0e5b52" stroke-width="1.6" />
  <path d="M395.1 465.6 L395.1 474.9 L395.1 484.3 L395.1 493.6 L395.1 503.0 L395.1 512.4 L395.1 521.7 L403.8 521.7 L412.4 521.7 L412.4 512.4 L412.4 503.0 L412.4 493.6 L412.4 484.3 L412.4 474.9 L412.4 465.6 L403.8 465.6 L403.8 456.2 L395.1 456.2 L395.1 465.6 Z" fill="#2f8f83" fill-opacity="0.34" stroke="#0e5b52" stroke-width="1.6" />
  <path d="M395.1 343.8 L395.1 353.1 L395.1 362.5 L395.1 371.9 L395.1 381.2 L395.1 390.6 L395.1 400.0 L395.1 409.4 L395.1 418.7 L395.1 428.1 L395.1 437.5 L403.8 437.5 L403.8 428.1 L403.8 418.7 L403.8 409.4 L403.8 400.0 L403.8 390.6 L403.8 381.2 L403.8 371.9 L403.8 362.5 L403.8 353.1 L403.8 343.8 L403.8 334.4 L395.1 334.4 L395.1 343.8 Z" fill="#2f8f83" fill-opacity="0.34" stroke="#0e5b52" stroke-width="1.6" />
  <path d="M429.7 156.1 L429.7 165.5 L429.7 174.9 L438.4 174.9 L447.1 174.9 L455.7 174.9 L464.4 174.9 L473.1 174.9 L481.7 174.9 L481.7 165.5 L481.7 156.1 L481.7 146.7 L473.1 146.7 L464.4 146.7 L455.7 146.7 L447.1 146.7 L438.4 146.7 L429.7 146.7 L429.7 156.1 Z" fill="#2f8f83" fill-opacity="0.34" stroke="#0e5b52" stroke-width="1.6" />
  <path d="M429.7 127.9 L429.7 137.3 L429.7 146.7 L438.4 146.7 L447.1 146.7 L455.7 146.7 L464.4 146.7 L473.1 146.7 L481.7 146.7 L481.7 137.3 L481.7 127.9 L481.7 118.5 L473.1 118.5 L464.4 118.5 L455.7 118.5 L447.1 118.5 L438.4 118.5 L429.7 118.5 L429.7 127.9 Z" fill="#2f8f83" fill-opacity="0.34" stroke="#0e5b52" stroke-width="1.6" />
  <!-- title strip -->
  <rect x="0" y="0" width="1000" height="54" fill="#173042" />
  <text x="20" y="34" font-size="21" font-weight="bold" fill="#ffffff">Engold Mines Ltd. — Mineral Claims</text>
  <text x="980" y="34" font-size="15" fill="#cfe3df" text-anchor="end">EGM</text>
  <!-- scale bar -->
  <g transform="translate(858.9171436490861, 596)">
    <rect x="0" y="0" width="50.54142817545691" height="8" fill="#173042" />
    <rect x="50.54142817545691" y="0" width="50.54142817545691" height="8" fill="#ffffff" stroke="#173042" stroke-width="1" />
    <text x="50.54142817545691" y="-6" font-size="12" fill="#173042" text-anchor="middle">5 km</text>
  </g>
  <!-- north arrow -->
  <g transform="translate(956, 92)">
    <circle r="17" fill="#ffffff" stroke="#b9b09a" />
    <path d="M0 -10 L5 7 L0 3 L-5 7 Z" fill="#173042" />
    <text y="14" font-size="9" font-weight="bold" fill="#173042" text-anchor="middle">N</text>
  </g>
  <!-- watermark -->
  <text x="20" y="620" font-size="13" fill="#7d8b8a">Map by Exploration Maps — explorationmaps.com</text>
</svg>