<svg xmlns="http://www.w3.org/2000/svg" viewBox="0 0 1000 640" font-family="Arial, Helvetica, sans-serif">
  <rect width="1000" height="640" fill="#f3efe6" />
  <line x1="200" y1="0" x2="200" y2="640" stroke="#d9d2c0" stroke-width="0.7" />
  <line x1="0" y1="128" x2="1000" y2="128" stroke="#d9d2c0" stroke-width="0.7" />
  <line x1="400" y1="0" x2="400" y2="640" stroke="#d9d2c0" stroke-width="0.7" />
  <line x1="0" y1="256" x2="1000" y2="256" stroke="#d9d2c0" stroke-width="0.7" />
  <line x1="600" y1="0" x2="600" y2="640" stroke="#d9d2c0" stroke-width="0.7" />
  <line x1="0" y1="384" x2="1000" y2="384" stroke="#d9d2c0" stroke-width="0.7" />
  <line x1="800" y1="0" x2="800" y2="640" stroke="#d9d2c0" stroke-width="0.7" />
  <line x1="0" y1="512" x2="1000" y2="512" stroke="#d9d2c0" stroke-width="0.7" />
  <path d="M512.0 386.2 L512.0 409.7 L530.8 409.7 L530.8 386.2 L512.0 386.2 Z" fill="#2f8f83" fill-opacity="0.34" stroke="#0e5b52" stroke-width="1.6" />
  <path d="M512.0 386.2 L493.1 386.2 L493.1 409.7 L512.0 409.7 L512.0 386.2 Z" fill="#2f8f83" fill-opacity="0.34" stroke="#0e5b52" stroke-width="1.6" />
  <path d="M512.0 386.2 L512.0 362.6 L493.1 362.6 L493.1 386.2 L512.0 386.2 Z" fill="#2f8f83" fill-opacity="0.34" stroke="#0e5b52" stroke-width="1.6" />
  <path d="M512.0 386.2 L530.8 386.2 L530.8 362.6 L512.0 362.6 L512.0 386.2 Z" fill="#2f8f83" fill-opacity="0.34" stroke="#0e5b52" stroke-width="1.6" />
  <path d="M518.6 327.0 L518.5 327.0 L518.5 327.0 L499.7 327.0 L495.0 327.0 L495.0 345.9 L518.5 345.9 L518.5 345.9 L518.6 327.0 Z" fill="#2f8f83" fill-opacity="0.34" stroke="#0e5b52" stroke-width="1.6" />
  <path d="M495.0 345.9 L495.0 327.0 L471.4 327.0 L471.4 345.9 L495.0 345.9 Z" fill="#2f8f83" fill-opacity="0.34" stroke="#0e5b52" stroke-width="1.6" />
  <path d="M518.5 362.6 L518.5 345.9 L495.0 345.9 L495.0 362.6 L512.0 362.6 L518.5 362.6 Z" fill="#2f8f83" fill-opacity="0.34" stroke="#0e5b52" stroke-width="1.6" />
  <path d="M495.0 362.6 L495.0 345.9 L471.4 345.9 L471.4 364.8 L493.1 364.8 L493.1 362.6 L495.0 362.6 Z" fill="#2f8f83" fill-opacity="0.34" stroke="#0e5b52" stroke-width="1.6" />
  <path d="M495.0 364.8 L480.2 364.8 L480.2 386.9 L498.7 386.9 L498.6 364.8 L495.0 364.8 Z" fill="#2f8f83" fill-opacity="0.34" stroke="#0e5b52" stroke-width="1.6" />
  <path d="M471.4 363.3 L465.2 363.3 L461.4 363.3 L461.4 386.9 L465.2 386.9 L480.2 386.9 L480.2 364.8 L471.4 364.8 L471.4 363.3 Z" fill="#2f8f83" fill-opacity="0.34" stroke="#0e5b52" stroke-width="1.6" />
  <path d="M493.1 386.9 L480.2 386.9 L480.2 410.5 L499.0 410.5 L499.0 409.7 L493.1 409.7 L493.1 386.9 Z" fill="#2f8f83" fill-opacity="0.34" stroke="#0e5b52" stroke-width="1.6" />
  <path d="M480.2 386.9 L465.2 386.9 L461.4 386.9 L461.4 403.8 L461.4 404.9 L461.4 410.5 L465.2 410.5 L470.8 410.5 L480.2 410.5 L480.2 403.8 L480.2 386.9 Z" fill="#2f8f83" fill-opacity="0.34" stroke="#0e5b52" stroke-width="1.6" />
  <path d="M551.5 346.7 L551.5 346.7 L542.1 346.7 L542.1 346.7 L542.1 365.6 L551.5 365.6 L551.5 346.7 Z" fill="#2f8f83" fill-opacity="0.34" stroke="#0e5b52" stroke-width="1.6" />
  <path d="M530.8 365.6 L542.1 365.6 L542.1 346.7 L518.5 346.7 L518.6 362.6 L530.8 362.6 L530.8 365.6 Z" fill="#2f8f83" fill-opacity="0.34" stroke="#0e5b52" stroke-width="1.6" />
  <path d="M556.2 323.1 L537.4 323.1 L537.4 346.7 L537.4 346.7 L542.1 346.7 L551.5 346.7 L556.2 346.7 L556.2 323.1 Z" fill="#2f8f83" fill-opacity="0.34" stroke="#0e5b52" stroke-width="1.6" />
  <path d="M537.4 346.7 L537.4 323.1 L518.5 323.1 L518.5 323.1 L518.5 327.0 L518.5 345.9 L518.5 346.7 L518.5 346.7 L518.5 346.7 L537.4 346.7 L537.4 346.7 Z" fill="#2f8f83" fill-opacity="0.34" stroke="#0e5b52" stroke-width="1.6" />
  <path d="M556.2 299.7 L556.2 299.5 L546.8 299.5 L537.4 299.5 L537.4 304.2 L537.4 323.1 L556.2 323.1 L556.2 299.7 Z" fill="#2f8f83" fill-opacity="0.34" stroke="#0e5b52" stroke-width="1.6" />
  <path d="M537.4 304.2 L518.5 304.2 L518.5 304.2 L518.5 323.1 L518.5 323.1 L537.4 323.1 L537.4 304.2 Z" fill="#2f8f83" fill-opacity="0.34" stroke="#0e5b52" stroke-width="1.6" />
  <path d="M518.5 323.1 L518.5 304.2 L518.5 304.2 L499.7 304.2 L499.7 327.0 L518.5 327.0 L518.5 327.0 L518.5 323.1 Z" fill="#2f8f83" fill-opacity="0.34" stroke="#0e5b52" stroke-width="1.6" />
  <path d="M570.4 313.7 L556.2 313.6 L556.2 337.3 L570.4 337.3 L570.4 313.7 Z" fill="#2f8f83" fill-opacity="0.34" stroke="#0e5b52" stroke-width="1.6" />
  <path d="M575.1 298.7 L575.1 290.0 L556.2 290.0 L556.2 298.7 L556.2 299.5 L556.2 299.7 L556.2 313.6 L570.4 313.7 L575.1 313.7 L575.1 298.7 Z" fill="#2f8f83" fill-opacity="0.34" stroke="#0e5b52" stroke-width="1.6" />
  <path d="M556.2 298.7 L556.2 290.0 L546.8 290.0 L546.8 298.7 L546.8 299.5 L546.8 299.5 L556.2 299.5 L556.2 298.7 Z" fill="#2f8f83" fill-opacity="0.34" stroke="#0e5b52" stroke-width="1.6" />
  <path d="M499.7 327.0 L499.7 322.3 L495.0 322.3 L495.0 327.0 L499.7 327.0 Z" fill="#2f8f83" fill-opacity="0.34" stroke="#0e5b52" stroke-width="1.6" />
  <path d="M499.7 322.3 L499.7 317.5 L495.0 317.6 L495.0 322.3 L499.7 322.3 Z" fill="#2f8f83" fill-opacity="0.34" stroke="#0e5b52" stroke-width="1.6" />
  <path d="M495.0 327.0 L495.0 322.3 L490.2 322.3 L490.2 327.0 L495.0 327.0 Z" fill="#2f8f83" fill-opacity="0.34" stroke="#0e5b52" stroke-width="1.6" />
  <path d="M495.0 322.3 L495.0 317.6 L490.2 317.6 L490.2 322.3 L495.0 322.3 Z" fill="#2f8f83" fill-opacity="0.34" stroke="#0e5b52" stroke-width="1.6" />
  <path d="M428.2 320.8 L428.2 325.2 L431.7 325.2 L435.3 325.2 L438.9 325.2 L442.5 325.2 L446.1 325.2 L449.7 325.2 L453.3 325.2 L456.9 325.2 L456.9 320.8 L456.9 316.4 L456.9 312.0 L453.3 312.0 L449.7 312.0 L446.1 312.0 L442.5 312.0 L438.9 312.0 L435.3 312.0 L431.7 312.0 L428.2 312.0 L428.2 316.4 L428.2 320.8 Z" fill="#2f8f83" fill-opacity="0.34" stroke="#0e5b52" stroke-width="1.6" />
  <path d="M424.6 333.9 L428.2 333.9 L431.7 333.9 L435.3 333.9 L438.9 333.9 L442.5 333.9 L446.1 333.9 L449.7 333.9 L453.3 333.9 L456.9 333.9 L456.9 329.6 L456.9 325.2 L453.3 325.2 L449.7 325.2 L446.1 325.2 L442.5 325.2 L438.9 325.2 L435.3 325.2 L431.7 325.2 L428.2 325.2 L424.6 325.2 L424.6 329.6 L421.0 329.6 L421.0 333.9 L424.6 333.9 Z" fill="#2f8f83" fill-opacity="0.34" stroke="#0e5b52" stroke-width="1.6" />
  <path d="M417.4 342.7 L417.4 347.1 L421.0 347.1 L424.6 347.1 L428.2 347.1 L431.7 347.1 L435.3 347.1 L438.9 347.1 L442.5 347.1 L446.1 347.1 L446.1 342.7 L446.1 338.3 L449.7 338.3 L449.7 333.9 L446.1 333.9 L442.5 333.9 L438.9 333.9 L435.3 333.9 L431.7 333.9 L428.2 333.9 L424.6 333.9 L421.0 333.9 L417.4 333.9 L417.4 338.3 L417.4 342.7 Z" fill="#2f8f83" fill-opacity="0.34" stroke="#0e5b52" stroke-width="1.6" />
  <path d="M532.3 390.9 L532.3 395.2 L535.9 395.2 L535.9 390.9 L535.9 386.5 L539.5 386.5 L539.5 382.1 L539.5 377.7 L539.5 373.4 L543.1 373.4 L543.1 369.0 L539.5 369.0 L535.9 369.0 L532.3 369.0 L532.3 373.4 L532.3 377.7 L532.3 382.1 L532.3 386.5 L532.3 390.9 Z" fill="#2f8f83" fill-opacity="0.34" stroke="#0e5b52" stroke-width="1.6" />
  <path d="M543.1 268.2 L543.1 272.6 L546.7 272.6 L550.3 272.6 L553.9 272.6 L557.5 272.6 L561.1 272.6 L561.1 268.2 L564.7 268.2 L568.3 268.2 L571.8 268.2 L575.4 268.2 L579.0 268.2 L579.0 272.6 L582.6 272.6 L586.2 272.6 L586.2 268.2 L586.2 263.8 L582.6 263.8 L579.0 263.8 L575.4 263.8 L571.8 263.8 L568.3 263.8 L564.7 263.8 L561.1 263.8 L557.5 263.8 L553.9 263.8 L550.3 263.8 L546.7 263.8 L543.1 263.8 L543.1 268.2 Z" fill="#2f8f83" fill-opacity="0.34" stroke="#0e5b52" stroke-width="1.6" />
  <path d="M557.5 228.6 L557.5 233.0 L561.1 233.0 L564.7 233.0 L568.3 233.0 L571.8 233.0 L575.4 233.0 L579.0 233.0 L579.0 237.4 L582.6 237.4 L586.2 237.4 L586.2 233.0 L586.2 228.6 L586.2 224.3 L582.6 224.3 L579.0 224.3 L575.4 224.3 L571.8 224.3 L568.3 224.3 L564.7 224.3 L561.1 224.3 L557.5 224.3 L557.5 228.6 Z" fill="#2f8f83" fill-opacity="0.34" stroke="#0e5b52" stroke-width="1.6" />
  <path d="M514.4 298.9 L514.4 303.3 L518.0 303.3 L521.6 303.3 L525.1 303.3 L528.7 303.3 L532.3 303.3 L535.9 303.3 L535.9 298.9 L539.5 298.9 L543.1 298.9 L543.1 294.5 L543.1 290.1 L539.5 290.1 L535.9 290.1 L532.3 290.1 L528.7 290.1 L525.1 290.1 L521.6 290.1 L518.0 290.1 L514.4 290.1 L514.4 294.5 L514.4 298.9 Z" fill="#2f8f83" fill-opacity="0.34" stroke="#0e5b52" stroke-width="1.6" />
  <path d="M528.7 285.7 L528.7 290.1 L532.3 290.1 L535.9 290.1 L539.5 290.1 L543.1 290.1 L543.1 285.7 L543.1 281.3 L543.1 276.9 L543.1 272.6 L543.1 268.2 L543.1 263.8 L539.5 263.8 L535.9 263.8 L532.3 263.8 L528.7 263.8 L528.7 268.2 L528.7 272.6 L528.7 276.9 L528.7 281.3 L528.7 285.7 Z" fill="#2f8f83" fill-opacity="0.34" stroke="#0e5b52" stroke-width="1.6" />
  <path d="M535.9 259.4 L535.9 263.8 L539.5 263.8 L543.1 263.8 L546.7 263.8 L550.3 263.8 L553.9 263.8 L557.5 263.8 L561.1 263.8 L564.7 263.8 L568.3 263.8 L571.8 263.8 L575.4 263.8 L575.4 259.4 L575.4 255.0 L571.8 255.0 L568.3 255.0 L564.7 255.0 L561.1 255.0 L557.5 255.0 L553.9 255.0 L550.3 255.0 L546.7 255.0 L543.1 255.0 L539.5 255.0 L535.9 255.0 L535.9 259.4 Z" fill="#2f8f83" fill-opacity="0.34" stroke="#0e5b52" stroke-width="1.6" />
  <path d="M543.1 250.6 L543.1 255.0 L546.7 255.0 L550.3 255.0 L553.9 255.0 L557.5 255.0 L561.1 255.0 L564.7 255.0 L568.3 255.0 L571.8 255.0 L575.4 255.0 L575.4 259.4 L575.4 263.8 L579.0 263.8 L579.0 259.4 L579.0 255.0 L579.0 250.6 L579.0 246.2 L575.4 246.2 L571.8 246.2 L568.3 246.2 L564.7 246.2 L561.1 246.2 L557.5 246.2 L553.9 246.2 L550.3 246.2 L546.7 246.2 L543.1 246.2 L543.1 250.6 Z" fill="#2f8f83" fill-opacity="0.34" stroke="#0e5b52" stroke-width="1.6" />
  <path d="M550.3 241.8 L550.3 246.2 L553.9 246.2 L557.5 246.2 L561.1 246.2 L564.7 246.2 L568.3 246.2 L571.8 246.2 L575.4 246.2 L579.0 246.2 L579.0 241.8 L579.0 237.4 L579.0 233.0 L575.4 233.0 L571.8 233.0 L568.3 233.0 L564.7 233.0 L561.1 233.0 L557.5 233.0 L553.9 233.0 L550.3 233.0 L550.3 237.4 L550.3 241.8 Z" fill="#2f8f83" fill-opacity="0.34" stroke="#0e5b52" stroke-width="1.6" />
  <path d="M579.0 259.4 L579.0 263.8 L582.6 263.8 L586.2 263.8 L589.8 263.8 L593.4 263.8 L593.4 259.4 L593.4 255.0 L593.4 250.6 L593.4 246.2 L593.4 241.8 L593.4 237.4 L589.8 237.4 L586.2 237.4 L582.6 237.4 L579.0 237.4 L579.0 241.8 L579.0 246.2 L579.0 250.6 L579.0 255.0 L579.0 259.4 Z" fill="#2f8f83" fill-opacity="0.34" stroke="#0e5b52" stroke-width="1.6" />
  <path d="M586.2 285.7 L586.2 290.1 L589.8 290.1 L593.4 290.1 L597.0 290.1 L600.6 290.1 L604.2 290.1 L607.8 290.1 L607.8 285.7 L611.4 285.7 L611.4 281.3 L615.0 281.3 L618.5 281.3 L618.5 276.9 L618.5 272.6 L615.0 272.6 L611.4 272.6 L607.8 272.6 L604.2 272.6 L600.6 272.6 L597.0 272.6 L597.0 276.9 L597.0 281.3 L593.4 281.3 L589.8 281.3 L586.2 281.3 L586.2 285.7 Z" fill="#2f8f83" fill-opacity="0.34" stroke="#0e5b52" stroke-width="1.6" />
  <path d="M586.2 276.9 L586.2 281.3 L589.8 281.3 L593.4 281.3 L597.0 281.3 L597.0 276.9 L597.0 272.6 L600.6 272.6 L604.2 272.6 L604.2 268.2 L604.2 263.8 L604.2 259.4 L604.2 255.0 L600.6 255.0 L597.0 255.0 L593.4 255.0 L593.4 259.4 L593.4 263.8 L589.8 263.8 L586.2 263.8 L586.2 268.2 L586.2 272.6 L586.2 276.9 Z" fill="#2f8f83" fill-opacity="0.34" stroke="#0e5b52" stroke-width="1.6" />
  <path d="M593.4 250.6 L593.4 255.0 L597.0 255.0 L600.6 255.0 L604.2 255.0 L604.2 259.4 L607.8 259.4 L611.4 259.4 L611.4 255.0 L611.4 250.6 L611.4 246.2 L611.4 241.8 L611.4 237.4 L607.8 237.4 L604.2 237.4 L600.6 237.4 L597.0 237.4 L593.4 237.4 L593.4 241.8 L593.4 246.2 L593.4 250.6 Z" fill="#2f8f83" fill-opacity="0.34" stroke="#0e5b52" stroke-width="1.6" />
  <path d="M604.2 268.2 L604.2 272.6 L607.8 272.6 L611.4 272.6 L615.0 272.6 L618.5 272.6 L618.5 268.2 L618.5 263.8 L618.5 259.4 L618.5 255.0 L618.5 250.6 L622.1 250.6 L622.1 246.2 L622.1 241.8 L622.1 237.4 L618.5 237.4 L615.0 237.4 L611.4 237.4 L611.4 241.8 L611.4 246.2 L611.4 250.6 L611.4 255.0 L611.4 259.4 L607.8 259.4 L604.2 259.4 L604.2 263.8 L604.2 268.2 Z" fill="#2f8f83" fill-opacity="0.34" stroke="#0e5b52" stroke-width="1.6" />
  <path d="M571.8 219.9 L571.8 224.3 L575.4 224.3 L579.0 224.3 L582.6 224.3 L586.2 224.3 L589.8 224.3 L593.4 224.3 L597.0 224.3 L600.6 224.3 L600.6 219.9 L600.6 215.5 L600.6 211.1 L597.0 211.1 L593.4 211.1 L589.8 211.1 L586.2 211.1 L582.6 211.1 L579.0 211.1 L575.4 211.1 L571.9 211.1 L568.3 211.1 L568.3 215.5 L571.8 215.5 L571.8 219.9 Z" fill="#2f8f83" fill-opacity="0.34" stroke="#0e5b52" stroke-width="1.6" />
  <path d="M600.6 219.9 L600.6 224.3 L604.2 224.3 L607.8 224.3 L611.4 224.3 L615.0 224.3 L615.0 228.6 L615.0 233.0 L615.0 237.4 L618.5 237.4 L622.1 237.4 L625.7 237.4 L625.7 233.0 L625.7 228.6 L625.7 224.3 L625.7 219.9 L625.7 215.5 L622.1 215.5 L618.5 215.5 L615.0 215.5 L611.4 215.5 L607.8 215.5 L604.2 215.5 L600.6 215.5 L600.6 219.9 Z" fill="#2f8f83" fill-opacity="0.34" stroke="#0e5b52" stroke-width="1.6" />
  <path d="M568.3 206.7 L568.3 211.1 L571.9 211.1 L575.4 211.1 L579.0 211.1 L582.6 211.1 L586.2 211.1 L586.2 206.7 L586.2 202.3 L586.2 197.9 L586.2 193.5 L586.2 189.1 L586.2 184.7 L582.6 184.7 L579.0 184.7 L575.4 184.7 L575.4 189.1 L571.9 189.1 L571.9 193.5 L571.9 197.9 L571.9 202.3 L568.3 202.3 L568.3 206.7 Z" fill="#2f8f83" fill-opacity="0.34" stroke="#0e5b52" stroke-width="1.6" />
  <path d="M579.0 180.3 L579.0 184.7 L582.6 184.7 L586.2 184.7 L586.2 189.1 L586.2 193.5 L586.2 197.9 L586.2 202.3 L586.2 206.7 L586.2 211.1 L589.8 211.1 L593.4 211.1 L597.0 211.1 L597.0 206.7 L593.4 206.7 L593.4 202.3 L593.4 197.9 L593.4 193.5 L593.4 189.1 L593.4 184.7 L593.4 180.3 L593.4 175.9 L593.4 171.5 L589.8 171.5 L586.2 171.5 L582.6 171.5 L579.0 171.5 L579.0 175.9 L579.0 180.3 Z" fill="#2f8f83" fill-opacity="0.34" stroke="#0e5b52" stroke-width="1.6" />
  <path d="M543.1 294.5 L543.1 298.9 L546.7 298.9 L546.7 294.5 L546.7 290.1 L550.3 290.1 L553.9 290.1 L557.5 290.1 L561.1 290.1 L564.7 290.1 L568.3 290.1 L571.8 290.1 L575.4 290.1 L575.4 294.5 L579.0 294.5 L582.6 294.5 L586.2 294.5 L586.2 290.1 L586.2 285.7 L586.2 281.3 L586.2 276.9 L586.2 272.6 L582.6 272.6 L579.0 272.6 L579.0 268.2 L575.4 268.2 L571.8 268.2 L568.3 268.2 L564.7 268.2 L561.1 268.2 L561.1 272.6 L557.5 272.6 L553.9 272.6 L550.3 272.6 L546.7 272.6 L543.1 272.6 L543.1 276.9 L543.1 281.3 L543.1 285.7 L543.1 290.1 L543.1 294.5 Z" fill="#2f8f83" fill-opacity="0.34" stroke="#0e5b52" stroke-width="1.6" />
  <path d="M485.6 329.6 L489.2 329.6 L492.8 329.6 L492.8 325.2 L492.8 320.8 L496.4 320.8 L500.0 320.8 L500.0 316.4 L496.4 316.4 L492.8 316.4 L489.2 316.4 L489.2 320.8 L489.2 325.2 L485.6 325.2 L482.0 325.2 L482.0 329.6 L485.6 329.6 Z" fill="#2f8f83" fill-opacity="0.34" stroke="#0e5b52" stroke-width="1.6" />
  <path d="M561.1 338.3 L564.7 338.3 L568.3 338.3 L571.8 338.3 L571.8 333.9 L571.8 329.6 L571.8 325.2 L568.3 325.2 L568.3 329.6 L568.3 333.9 L564.7 333.9 L561.1 333.9 L557.5 333.9 L557.5 338.3 L561.1 338.3 Z" fill="#2f8f83" fill-opacity="0.34" stroke="#0e5b52" stroke-width="1.6" />
  <path d="M561.1 342.7 L564.7 342.7 L568.3 342.7 L571.8 342.7 L571.8 347.1 L571.8 351.5 L571.8 355.8 L571.8 360.2 L571.8 364.6 L571.8 369.0 L571.8 373.4 L571.8 377.7 L575.4 377.7 L575.4 373.4 L575.4 369.0 L575.4 364.6 L575.4 360.2 L575.4 355.8 L575.4 351.5 L575.4 347.1 L575.4 342.7 L579.0 342.7 L582.6 342.7 L586.2 342.7 L589.8 342.7 L593.4 342.7 L597.0 342.7 L600.6 342.7 L600.6 338.3 L597.0 338.3 L593.4 338.3 L589.8 338.3 L586.2 338.3 L582.6 338.3 L579.0 338.3 L575.4 338.3 L575.4 333.9 L575.4 329.6 L575.4 325.2 L575.4 320.8 L575.4 316.4 L571.8 316.4 L571.8 320.8 L571.8 325.2 L571.8 329.6 L571.8 333.9 L571.8 338.3 L568.3 338.3 L564.7 338.3 L561.1 338.3 L557.5 338.3 L557.5 342.7 L561.1 342.7 Z" fill="#2f8f83" fill-opacity="0.34" stroke="#0e5b52" stroke-width="1.6" />
  <path d="M575.4 333.9 L575.4 338.3 L579.0 338.3 L582.6 338.3 L586.2 338.3 L589.8 338.3 L593.4 338.3 L593.4 333.9 L593.4 329.6 L593.4 325.2 L593.4 320.8 L589.8 320.8 L586.2 320.8 L582.6 320.8 L579.0 320.8 L575.4 320.8 L575.4 325.2 L575.4 329.6 L575.4 333.9 Z" fill="#2f8f83" fill-opacity="0.34" stroke="#0e5b52" stroke-width="1.6" />
  <path d="M553.9 351.5 L553.9 355.8 L557.5 355.8 L557.5 360.2 L557.5 364.6 L561.1 364.6 L564.7 364.6 L568.3 364.6 L571.8 364.6 L571.8 360.2 L571.8 355.8 L571.8 351.5 L571.8 347.1 L571.8 342.7 L568.3 342.7 L564.7 342.7 L561.1 342.7 L557.5 342.7 L553.9 342.7 L553.9 347.1 L553.9 351.5 Z" fill="#2f8f83" fill-opacity="0.34" stroke="#0e5b52" stroke-width="1.6" />
  <path d="M575.4 355.8 L575.4 360.2 L579.0 360.2 L582.6 360.2 L586.2 360.2 L589.8 360.2 L593.4 360.2 L597.0 360.2 L597.0 355.8 L597.0 351.5 L597.0 347.1 L597.0 342.7 L593.4 342.7 L589.8 342.7 L586.2 342.7 L582.6 342.7 L579.0 342.7 L575.4 342.7 L575.4 347.1 L575.4 351.5 L575.4 355.8 Z" fill="#2f8f83" fill-opacity="0.34" stroke="#0e5b52" stroke-width="1.6" />
  <path d="M579.0 312.0 L579.0 316.4 L582.6 316.4 L586.2 316.4 L589.8 316.4 L593.4 316.4 L593.4 320.8 L593.4 325.2 L593.4 329.6 L593.4 333.9 L597.0 333.9 L600.6 333.9 L600.6 329.6 L600.6 325.2 L600.6 320.8 L600.6 316.4 L600.6 312.0 L604.2 312.0 L604.2 307.6 L600.6 307.6 L597.0 307.6 L593.4 307.6 L593.4 303.3 L589.8 303.3 L586.2 303.3 L582.6 303.3 L579.0 303.3 L579.0 307.6 L579.0 312.0 Z" fill="#2f8f83" fill-opacity="0.34" stroke="#0e5b52" stroke-width="1.6" />
  <path d="M550.3 373.4 L550.3 377.7 L553.9 377.7 L557.5 377.7 L561.1 377.7 L564.7 377.7 L568.3 377.7 L571.8 377.7 L571.8 373.4 L571.8 369.0 L571.8 364.6 L568.3 364.6 L564.7 364.6 L561.1 364.6 L557.5 364.6 L553.9 364.6 L550.3 364.6 L550.3 369.0 L550.3 373.4 Z" fill="#2f8f83" fill-opacity="0.34" stroke="#0e5b52" stroke-width="1.6" />
  <path d="M557.5 342.7 L557.5 338.3 L553.9 338.3 L553.9 342.7 L557.5 342.7 Z" fill="#2f8f83" fill-opacity="0.34" stroke="#0e5b52" stroke-width="1.6" />
  <path d="M575.4 316.4 L575.4 320.8 L579.0 320.8 L582.6 320.8 L586.2 320.8 L589.8 320.8 L593.4 320.8 L593.4 316.4 L589.8 316.4 L586.2 316.4 L582.6 316.4 L579.0 316.4 L579.0 312.0 L579.0 307.6 L579.0 303.3 L579.0 298.9 L575.4 298.9 L575.4 303.3 L575.4 307.6 L575.4 312.0 L575.4 316.4 Z" fill="#2f8f83" fill-opacity="0.34" stroke="#0e5b52" stroke-width="1.6" />
  <path d="M532.3 369.0 L535.9 369.0 L539.5 369.0 L543.1 369.0 L543.1 373.4 L539.5 373.4 L539.5 377.7 L539.5 382.1 L539.5 386.5 L543.1 386.5 L546.7 386.5 L550.3 386.5 L550.3 382.1 L550.3 377.7 L550.3 373.4 L550.3 369.0 L550.3 364.6 L546.7 364.6 L543.1 364.6 L539.5 364.6 L535.9 364.6 L532.3 364.6 L528.7 364.6 L528.7 369.0 L532.3 369.0 Z" fill="#2f8f83" fill-opacity="0.34" stroke="#0e5b52" stroke-width="1.6" />
  <path d="M568.3 320.8 L568.3 325.2 L571.8 325.2 L571.8 320.8 L571.8 316.4 L571.8 312.0 L568.3 312.0 L568.3 316.4 L568.3 320.8 Z" fill="#2f8f83" fill-opacity="0.34" stroke="#0e5b52" stroke-width="1.6" />
  <path d="M550.3 360.2 L550.3 364.6 L553.9 364.6 L557.5 364.6 L557.5 360.2 L557.5 355.8 L553.9 355.8 L553.9 351.5 L553.9 347.1 L550.3 347.1 L550.3 351.5 L550.3 355.8 L550.3 360.2 Z" fill="#2f8f83" fill-opacity="0.34" stroke="#0e5b52" stroke-width="1.6" />
  <path d="M575.4 373.4 L575.4 377.7 L579.0 377.7 L582.6 377.7 L586.2 377.7 L589.8 377.7 L593.4 377.7 L597.0 377.7 L597.0 373.4 L597.0 369.0 L597.0 364.6 L597.0 360.2 L593.4 360.2 L589.8 360.2 L586.2 360.2 L582.6 360.2 L579.0 360.2 L575.4 360.2 L575.4 364.6 L575.4 369.0 L575.4 373.4 Z" fill="#2f8f83" fill-opacity="0.34" stroke="#0e5b52" stroke-width="1.6" />
  <path d="M579.0 298.9 L579.0 303.3 L582.6 303.3 L586.2 303.3 L589.8 303.3 L593.4 303.3 L593.4 307.6 L597.0 307.6 L600.6 307.6 L600.6 303.3 L604.2 303.3 L607.8 303.3 L607.8 298.9 L607.8 294.5 L607.8 290.1 L604.2 290.1 L600.6 290.1 L597.0 290.1 L593.4 290.1 L589.8 290.1 L586.2 290.1 L586.2 294.5 L582.6 294.5 L579.0 294.5 L575.4 294.5 L575.4 298.9 L579.0 298.9 Z" fill="#2f8f83" fill-opacity="0.34" stroke="#0e5b52" stroke-width="1.6" />
  <path d="M575.4 316.4 L575.4 312.0 L571.8 312.0 L571.8 316.4 L575.4 316.4 Z" fill="#2f8f83" fill-opacity="0.34" stroke="#0e5b52" stroke-width="1.6" />
  <path d="M597.0 338.3 L600.6 338.3 L600.6 333.9 L597.0 333.9 L593.4 333.9 L593.4 338.3 L597.0 338.3 Z" fill="#2f8f83" fill-opacity="0.34" stroke="#0e5b52" stroke-width="1.6" />
  <path d="M550.3 382.1 L550.3 386.5 L553.9 386.5 L557.5 386.5 L561.1 386.5 L564.7 386.5 L568.3 386.5 L571.8 386.5 L575.4 386.5 L579.0 386.5 L582.6 386.5 L586.2 386.5 L589.8 386.5 L593.4 386.5 L593.4 382.1 L597.0 382.1 L597.0 377.7 L593.4 377.7 L589.8 377.7 L586.2 377.7 L582.6 377.7 L579.0 377.7 L575.4 377.7 L571.8 377.7 L568.3 377.7 L564.7 377.7 L561.1 377.7 L557.5 377.7 L553.9 377.7 L550.3 377.7 L550.3 382.1 Z" fill="#2f8f83" fill-opacity="0.34" stroke="#0e5b52" stroke-width="1.6" />
  <path d="M557.5 338.3 L557.5 333.9 L553.9 333.9 L553.9 338.3 L557.5 338.3 Z" fill="#2f8f83" fill-opacity="0.34" stroke="#0e5b52" stroke-width="1.6" />
  <path d="M535.9 390.9 L535.9 395.2 L539.5 395.2 L543.1 395.2 L546.7 395.2 L550.3 395.2 L553.9 395.2 L557.5 395.2 L561.1 395.2 L564.7 395.2 L568.3 395.2 L571.8 395.2 L575.4 395.2 L579.0 395.2 L579.0 390.9 L579.0 386.5 L575.4 386.5 L571.8 386.5 L568.3 386.5 L564.7 386.5 L561.1 386.5 L557.5 386.5 L553.9 386.5 L550.3 386.5 L546.7 386.5 L543.1 386.5 L539.5 386.5 L535.9 386.5 L535.9 390.9 Z" fill="#2f8f83" fill-opacity="0.34" stroke="#0e5b52" stroke-width="1.6" />
  <path d="M514.4 285.7 L514.4 290.1 L518.0 290.1 L521.6 290.1 L525.1 290.1 L528.7 290.1 L528.7 285.7 L528.7 281.3 L528.7 276.9 L528.7 272.6 L528.7 268.2 L528.7 263.8 L525.2 263.8 L521.6 263.8 L518.0 263.8 L514.4 263.8 L514.4 268.2 L514.4 272.5 L514.4 276.9 L514.4 281.3 L514.4 285.7 Z" fill="#2f8f83" fill-opacity="0.34" stroke="#0e5b52" stroke-width="1.6" />
  <path d="M413.8 355.8 L413.8 360.2 L417.4 360.2 L421.0 360.2 L424.6 360.2 L428.2 360.2 L431.7 360.2 L435.3 360.2 L438.9 360.2 L442.5 360.2 L442.5 355.8 L442.5 351.5 L442.5 347.1 L438.9 347.1 L435.3 347.1 L431.7 347.1 L428.2 347.1 L424.6 347.1 L421.0 347.1 L417.4 347.1 L413.8 347.1 L413.8 351.5 L413.8 355.8 Z" fill="#2f8f83" fill-opacity="0.34" stroke="#0e5b52" stroke-width="1.6" />
  <path d="M500.0 285.7 L500.0 290.1 L503.6 290.1 L507.2 290.1 L510.8 290.1 L514.4 290.1 L514.4 285.7 L514.4 281.3 L514.4 276.9 L514.4 272.5 L514.4 268.2 L514.4 263.8 L510.8 263.8 L507.2 263.8 L503.6 263.8 L500.0 263.8 L500.0 268.2 L500.0 272.5 L500.0 276.9 L500.0 281.3 L500.0 285.7 Z" fill="#2f8f83" fill-opacity="0.34" stroke="#0e5b52" stroke-width="1.6" />
  <path d="M421.0 373.4 L421.0 377.7 L424.6 377.7 L428.2 377.7 L431.7 377.7 L435.3 377.7 L438.9 377.7 L442.5 377.7 L442.5 373.4 L442.5 369.0 L442.5 364.6 L442.5 360.2 L438.9 360.2 L435.3 360.2 L431.7 360.2 L428.2 360.2 L424.6 360.2 L421.0 360.2 L421.0 364.6 L421.0 369.0 L421.0 373.4 Z" fill="#2f8f83" fill-opacity="0.34" stroke="#0e5b52" stroke-width="1.6" />
  <path d="M471.3 325.2 L471.3 329.6 L474.9 329.6 L478.4 329.6 L482.0 329.6 L482.0 325.2 L485.6 325.2 L489.2 325.2 L489.2 320.8 L489.2 316.4 L492.8 316.4 L496.4 316.4 L500.0 316.4 L500.0 312.0 L500.0 307.6 L500.0 303.3 L496.4 303.3 L492.8 303.3 L489.2 303.3 L489.2 307.6 L485.6 307.6 L485.6 312.0 L482.0 312.0 L478.4 312.0 L478.4 316.4 L474.9 316.4 L474.9 320.8 L471.3 320.8 L471.3 325.2 Z" fill="#2f8f83" fill-opacity="0.34" stroke="#0e5b52" stroke-width="1.6" />
  <path d="M478.5 272.5 L478.5 276.9 L482.0 276.9 L485.6 276.9 L489.2 276.9 L492.8 276.9 L496.4 276.9 L496.4 272.5 L496.4 268.2 L496.4 263.8 L500.0 263.8 L503.6 263.8 L503.6 259.4 L503.6 255.0 L500.0 255.0 L496.4 255.0 L496.4 259.4 L492.8 259.4 L489.2 259.4 L485.6 259.4 L482.0 259.4 L478.5 259.4 L478.5 263.8 L478.5 268.2 L478.5 272.5 Z" fill="#2f8f83" fill-opacity="0.34" stroke="#0e5b52" stroke-width="1.6" />
  <path d="M395.8 373.4 L395.8 377.7 L399.4 377.7 L403.0 377.7 L406.6 377.7 L410.2 377.7 L410.2 373.4 L413.8 373.4 L417.4 373.4 L421.0 373.4 L421.0 369.0 L421.0 364.6 L421.0 360.2 L417.4 360.2 L413.8 360.2 L410.2 360.2 L406.6 360.2 L403.0 360.2 L399.4 360.2 L399.4 364.6 L395.8 364.6 L395.8 369.0 L395.8 373.4 Z" fill="#2f8f83" fill-opacity="0.34" stroke="#0e5b52" stroke-width="1.6" />
  <path d="M410.2 390.9 L410.2 395.2 L413.8 395.2 L417.4 395.2 L421.0 395.2 L424.6 395.2 L428.2 395.2 L431.7 395.2 L431.7 390.9 L431.7 386.5 L431.7 382.1 L431.7 377.7 L428.2 377.7 L424.6 377.7 L421.0 377.7 L417.4 377.7 L413.8 377.7 L410.2 377.7 L410.2 382.1 L410.2 386.5 L410.2 390.9 Z" fill="#2f8f83" fill-opacity="0.34" stroke="#0e5b52" stroke-width="1.6" />
  <path d="M456.9 351.5 L456.9 355.8 L460.5 355.8 L464.1 355.8 L467.7 355.8 L471.3 355.8 L471.3 351.5 L471.3 347.1 L471.3 342.7 L471.3 338.3 L471.3 333.9 L471.3 329.6 L467.7 329.6 L464.1 329.6 L460.5 329.6 L456.9 329.6 L456.9 333.9 L456.9 338.3 L456.9 342.7 L456.9 347.1 L456.9 351.5 Z" fill="#2f8f83" fill-opacity="0.34" stroke="#0e5b52" stroke-width="1.6" />
  <path d="M492.8 298.9 L492.8 303.3 L496.4 303.3 L500.0 303.3 L503.6 303.3 L507.2 303.3 L510.8 303.3 L514.4 303.3 L514.4 298.9 L514.4 294.5 L514.4 290.1 L510.8 290.1 L507.2 290.1 L503.6 290.1 L500.0 290.1 L500.0 285.7 L500.0 281.3 L500.0 276.9 L500.0 272.5 L500.0 268.2 L500.0 263.8 L496.4 263.8 L496.4 268.2 L496.4 272.5 L496.4 276.9 L496.4 281.3 L496.4 285.7 L492.8 285.7 L492.8 290.1 L492.8 294.5 L492.8 298.9 Z" fill="#2f8f83" fill-opacity="0.34" stroke="#0e5b52" stroke-width="1.6" />
  <path d="M388.6 390.9 L388.6 395.2 L392.2 395.2 L395.8 395.2 L399.4 395.2 L403.0 395.2 L406.6 395.2 L410.2 395.2 L410.2 390.9 L410.2 386.5 L410.2 382.1 L410.2 377.7 L406.6 377.7 L403.0 377.7 L399.4 377.7 L395.8 377.7 L392.2 377.7 L388.6 377.7 L388.6 382.1 L388.6 386.5 L388.6 390.9 Z" fill="#2f8f83" fill-opacity="0.34" stroke="#0e5b52" stroke-width="1.6" />
  <path d="M467.7 281.3 L467.7 285.7 L471.3 285.7 L471.3 290.1 L474.9 290.1 L478.5 290.1 L482.0 290.1 L485.6 290.1 L489.2 290.1 L492.8 290.1 L492.8 285.7 L496.4 285.7 L496.4 281.3 L496.4 276.9 L492.8 276.9 L489.2 276.9 L485.6 276.9 L482.0 276.9 L478.5 276.9 L478.5 272.5 L474.9 272.5 L471.3 272.5 L467.7 272.5 L467.7 276.9 L467.7 281.3 Z" fill="#2f8f83" fill-opacity="0.34" stroke="#0e5b52" stroke-width="1.6" />
  <path d="M442.5 355.8 L442.5 360.2 L446.1 360.2 L449.7 360.2 L453.3 360.2 L456.9 360.2 L460.5 360.2 L460.5 355.8 L456.9 355.8 L456.9 351.5 L456.9 347.1 L456.9 342.7 L456.9 338.3 L456.9 333.9 L453.3 333.9 L449.7 333.9 L449.7 338.3 L446.1 338.3 L446.1 342.7 L446.1 347.1 L442.5 347.1 L442.5 351.5 L442.5 355.8 Z" fill="#2f8f83" fill-opacity="0.34" stroke="#0e5b52" stroke-width="1.6" />
  <path d="M413.8 377.7 L417.4 377.7 L421.0 377.7 L421.0 373.4 L417.4 373.4 L413.8 373.4 L410.2 373.4 L410.2 377.7 L413.8 377.7 Z" fill="#2f8f83" fill-opacity="0.34" stroke="#0e5b52" stroke-width="1.6" />
  <path d="M435.3 382.1 L438.9 382.1 L442.5 382.1 L442.5 377.7 L438.9 377.7 L435.3 377.7 L431.7 377.7 L431.7 382.1 L435.3 382.1 Z" fill="#2f8f83" fill-opacity="0.34" stroke="#0e5b52" stroke-width="1.6" />
  <path d="M456.9 325.2 L456.9 329.6 L460.5 329.6 L464.1 329.6 L467.7 329.6 L471.3 329.6 L471.3 325.2 L471.3 320.8 L474.9 320.8 L474.9 316.4 L478.4 316.4 L478.4 312.0 L478.5 307.6 L474.9 307.6 L471.3 307.6 L467.7 307.6 L464.1 307.6 L460.5 307.6 L456.9 307.6 L456.9 312.0 L456.9 316.4 L456.9 320.8 L456.9 325.2 Z" fill="#2f8f83" fill-opacity="0.34" stroke="#0e5b52" stroke-width="1.6" />
  <path d="M421.0 404.0 L421.0 408.4 L424.6 408.4 L428.2 408.4 L431.7 408.4 L431.7 404.0 L431.7 399.6 L431.7 395.2 L428.2 395.2 L424.6 395.2 L421.0 395.2 L421.0 399.6 L421.0 404.0 Z" fill="#2f8f83" fill-opacity="0.34" stroke="#0e5b52" stroke-width="1.6" />
  <path d="M471.3 303.3 L471.3 307.6 L474.9 307.6 L478.5 307.6 L478.4 312.0 L482.0 312.0 L485.6 312.0 L485.6 307.6 L489.2 307.6 L489.2 303.3 L492.8 303.3 L492.8 298.9 L492.8 294.5 L492.8 290.1 L489.2 290.1 L485.6 290.1 L482.0 290.1 L478.5 290.1 L474.9 290.1 L471.3 290.1 L471.3 294.5 L471.3 298.9 L471.3 303.3 Z" fill="#2f8f83" fill-opacity="0.34" stroke="#0e5b52" stroke-width="1.6" />
  <path d="M377.9 399.6 L381.5 399.6 L385.0 399.6 L388.6 399.6 L392.2 399.6 L395.8 399.6 L399.4 399.6 L403.0 399.6 L403.0 395.2 L399.4 395.2 L395.8 395.2 L392.2 395.2 L388.6 395.2 L385.0 395.2 L381.5 395.2 L377.9 395.2 L374.3 395.2 L374.3 399.6 L377.9 399.6 Z" fill="#2f8f83" fill-opacity="0.34" stroke="#0e5b52" stroke-width="1.6" />
  <path d="M503.6 259.4 L503.6 263.8 L507.2 263.8 L510.8 263.8 L514.4 263.8 L518.0 263.8 L521.6 263.8 L525.2 263.8 L528.7 263.8 L532.3 263.8 L535.9 263.8 L535.9 259.4 L535.9 255.0 L532.3 255.0 L528.7 255.0 L525.2 255.0 L521.6 255.0 L518.0 255.0 L514.4 255.0 L510.8 255.0 L507.2 255.0 L503.6 255.0 L503.6 259.4 Z" fill="#2f8f83" fill-opacity="0.34" stroke="#0e5b52" stroke-width="1.6" />
  <path d="M374.3 390.9 L374.3 395.2 L377.9 395.2 L381.5 395.2 L385.0 395.2 L388.6 395.2 L388.6 390.9 L388.6 386.5 L388.6 382.1 L388.6 377.7 L388.6 373.4 L388.6 369.0 L385.0 369.0 L381.5 369.0 L377.9 369.0 L374.3 369.0 L374.3 373.4 L374.3 377.7 L374.3 382.1 L374.3 386.5 L374.3 390.9 Z" fill="#2f8f83" fill-opacity="0.34" stroke="#0e5b52" stroke-width="1.6" />
  <path d="M453.3 303.3 L453.3 307.6 L456.9 307.6 L460.5 307.6 L464.1 307.6 L467.7 307.6 L471.3 307.6 L471.3 303.3 L471.3 298.9 L471.3 294.5 L471.3 290.1 L471.3 285.7 L467.7 285.7 L464.1 285.7 L460.5 285.7 L456.9 285.7 L453.3 285.7 L453.3 290.1 L453.3 294.5 L453.3 298.9 L453.3 303.3 Z" fill="#2f8f83" fill-opacity="0.34" stroke="#0e5b52" stroke-width="1.6" />
  <path d="M395.8 355.8 L395.8 360.2 L399.4 360.2 L403.0 360.2 L406.6 360.2 L410.2 360.2 L413.8 360.2 L413.8 355.8 L413.8 351.5 L413.8 347.1 L417.4 347.1 L417.4 342.7 L417.4 338.3 L417.4 333.9 L413.8 333.9 L410.2 333.9 L406.6 333.9 L406.6 338.3 L406.6 342.7 L406.6 347.1 L403.0 347.1 L399.4 347.1 L395.8 347.1 L395.8 351.5 L395.8 355.8 Z" fill="#2f8f83" fill-opacity="0.34" stroke="#0e5b52" stroke-width="1.6" />
  <path d="M377.9 364.6 L377.9 369.0 L381.5 369.0 L385.0 369.0 L388.6 369.0 L388.6 373.4 L388.6 377.7 L392.2 377.7 L395.8 377.7 L395.8 373.4 L395.8 369.0 L395.8 364.6 L399.4 364.6 L399.4 360.2 L395.8 360.2 L395.8 355.8 L395.8 351.5 L392.2 351.5 L388.6 351.5 L385.0 351.5 L381.5 351.5 L377.9 351.5 L377.9 355.8 L377.9 360.2 L377.9 364.6 Z" fill="#2f8f83" fill-opacity="0.34" stroke="#0e5b52" stroke-width="1.6" />
  <path d="M438.9 307.6 L438.9 312.0 L442.5 312.0 L446.1 312.0 L449.7 312.0 L453.3 312.0 L456.9 312.0 L456.9 307.6 L453.3 307.6 L453.3 303.3 L453.3 298.9 L453.3 294.5 L449.7 294.5 L446.1 294.5 L442.5 294.5 L442.5 298.9 L442.5 303.3 L438.9 303.3 L438.9 307.6 Z" fill="#2f8f83" fill-opacity="0.34" stroke="#0e5b52" stroke-width="1.6" />
  <path d="M525.1 491.4 L525.1 495.7 L528.7 495.7 L532.3 495.7 L535.9 495.7 L539.5 495.7 L539.5 491.4 L539.5 487.0 L539.5 482.6 L539.5 478.3 L539.5 473.9 L543.1 473.9 L543.1 469.5 L539.5 469.5 L535.9 469.5 L532.3 469.5 L528.7 469.5 L525.1 469.5 L525.1 473.9 L525.1 478.3 L525.1 482.6 L525.1 487.0 L525.1 491.4 Z" fill="#2f8f83" fill-opacity="0.34" stroke="#0e5b52" stroke-width="1.6" />
  <path d="M539.5 491.4 L539.5 495.7 L543.1 495.7 L546.7 495.7 L546.7 491.4 L546.7 487.0 L546.7 482.6 L546.7 478.3 L546.7 473.9 L543.1 473.9 L539.5 473.9 L539.5 478.3 L539.5 482.6 L539.5 487.0 L539.5 491.4 Z" fill="#2f8f83" fill-opacity="0.34" stroke="#0e5b52" stroke-width="1.6" />
  <path d="M546.7 473.9 L550.3 473.9 L553.9 473.9 L557.5 473.9 L561.1 473.9 L561.1 469.5 L557.5 469.5 L553.9 469.5 L550.3 469.5 L546.7 469.5 L543.1 469.5 L543.1 473.9 L546.7 473.9 Z" fill="#2f8f83" fill-opacity="0.34" stroke="#0e5b52" stroke-width="1.6" />
  <path d="M503.6 473.9 L503.6 478.3 L507.2 478.3 L510.8 478.3 L514.4 478.3 L518.0 478.3 L521.5 478.3 L525.1 478.3 L525.1 473.9 L525.1 469.5 L525.1 465.2 L521.5 465.2 L518.0 465.2 L514.4 465.2 L510.8 465.2 L507.2 465.2 L503.6 465.2 L503.6 469.5 L503.6 473.9 Z" fill="#2f8f83" fill-opacity="0.34" stroke="#0e5b52" stroke-width="1.6" />
  <path d="M521.6 439.0 L521.6 443.3 L525.1 443.3 L525.1 439.0 L528.7 439.0 L532.3 439.0 L535.9 439.0 L539.5 439.0 L543.1 439.0 L543.1 443.3 L543.1 447.7 L543.1 452.1 L543.1 456.4 L543.1 460.8 L543.1 465.2 L543.1 469.5 L546.7 469.5 L550.3 469.5 L553.9 469.5 L557.5 469.5 L561.1 469.5 L564.7 469.5 L564.7 465.2 L564.7 460.8 L561.1 460.8 L557.5 460.8 L553.9 460.8 L550.3 460.8 L546.7 460.8 L546.7 456.4 L546.7 452.1 L546.7 447.7 L546.7 443.3 L546.7 439.0 L546.7 434.6 L543.1 434.6 L539.5 434.6 L535.9 434.6 L532.3 434.6 L528.7 434.6 L525.1 434.6 L521.6 434.6 L521.6 439.0 Z" fill="#2f8f83" fill-opacity="0.34" stroke="#0e5b52" stroke-width="1.6" />
  <path d="M521.5 460.8 L521.5 465.2 L525.1 465.2 L525.1 460.8 L525.1 456.4 L525.1 452.1 L525.1 447.7 L525.1 443.3 L521.6 443.3 L521.6 447.7 L521.5 452.1 L521.5 456.4 L521.5 460.8 Z" fill="#2f8f83" fill-opacity="0.34" stroke="#0e5b52" stroke-width="1.6" />
  <path d="M525.1 434.6 L528.7 434.6 L532.3 434.6 L535.9 434.6 L539.5 434.6 L543.1 434.6 L546.7 434.6 L546.7 430.2 L543.1 430.2 L539.5 430.2 L535.9 430.2 L532.3 430.2 L528.7 430.2 L525.1 430.2 L521.6 430.2 L521.6 434.6 L525.1 434.6 Z" fill="#2f8f83" fill-opacity="0.34" stroke="#0e5b52" stroke-width="1.6" />
  <path d="M546.7 456.4 L546.7 460.8 L550.3 460.8 L553.9 460.8 L553.9 456.4 L553.9 452.1 L553.9 447.7 L553.9 443.3 L553.9 439.0 L553.9 434.6 L553.9 430.2 L550.3 430.2 L546.7 430.2 L546.7 434.6 L546.7 439.0 L546.7 443.3 L546.7 447.7 L546.7 452.1 L546.7 456.4 Z" fill="#2f8f83" fill-opacity="0.34" stroke="#0e5b52" stroke-width="1.6" />
  <path d="M535.9 430.2 L539.5 430.2 L543.1 430.2 L546.7 430.2 L550.3 430.2 L553.9 430.2 L553.9 425.8 L550.3 425.8 L546.7 425.8 L543.1 425.8 L539.5 425.8 L535.9 425.8 L532.3 425.8 L532.3 430.2 L535.9 430.2 Z" fill="#2f8f83" fill-opacity="0.34" stroke="#0e5b52" stroke-width="1.6" />
  <path d="M471.3 447.7 L471.3 452.1 L474.9 452.1 L478.4 452.1 L478.4 456.4 L478.4 460.8 L482.0 460.8 L485.6 460.8 L489.2 460.8 L489.2 456.4 L489.2 452.1 L489.2 447.7 L489.2 443.3 L489.2 439.0 L485.6 439.0 L482.0 439.0 L478.4 439.0 L474.9 439.0 L474.9 443.3 L471.3 443.3 L471.3 447.7 Z" fill="#2f8f83" fill-opacity="0.34" stroke="#0e5b52" stroke-width="1.6" />
  <path d="M442.5 373.4 L442.5 377.7 L446.1 377.7 L449.7 377.7 L453.3 377.7 L456.9 377.7 L460.5 377.7 L464.1 377.7 L464.1 373.3 L464.1 369.0 L464.1 364.6 L467.7 364.6 L471.3 364.6 L471.3 360.2 L471.3 355.8 L467.7 355.8 L464.1 355.8 L460.5 355.8 L460.5 360.2 L456.9 360.2 L453.3 360.2 L449.7 360.2 L449.7 364.6 L449.7 369.0 L446.1 369.0 L442.5 369.0 L442.5 373.4 Z" fill="#2f8f83" fill-opacity="0.34" stroke="#0e5b52" stroke-width="1.6" />
  <path d="M442.5 364.6 L442.5 369.0 L446.1 369.0 L449.7 369.0 L449.7 364.6 L449.7 360.2 L446.1 360.2 L442.5 360.2 L442.5 364.6 Z" fill="#2f8f83" fill-opacity="0.34" stroke="#0e5b52" stroke-width="1.6" />
  <path d="M553.9 456.4 L553.9 460.8 L557.5 460.8 L561.1 460.8 L564.7 460.8 L564.7 456.4 L564.7 452.1 L564.7 447.7 L564.7 443.3 L564.7 439.0 L564.7 434.6 L564.7 430.2 L564.7 425.8 L561.1 425.8 L557.5 425.8 L553.9 425.8 L553.9 430.2 L553.9 434.6 L553.9 439.0 L553.9 443.3 L553.9 447.7 L553.9 452.1 L553.9 456.4 Z" fill="#2f8f83" fill-opacity="0.34" stroke="#0e5b52" stroke-width="1.6" />
  <path d="M367.1 369.0 L370.7 369.0 L374.3 369.0 L377.9 369.0 L377.9 364.6 L377.9 360.2 L377.9 355.8 L374.3 355.8 L374.3 360.2 L374.3 364.6 L370.7 364.6 L367.1 364.6 L363.5 364.6 L363.5 369.0 L367.1 369.0 Z" fill="#2f8f83" fill-opacity="0.34" stroke="#0e5b52" stroke-width="1.6" />
  <path d="M363.5 404.0 L367.1 404.0 L370.7 404.0 L374.3 404.0 L374.3 399.6 L374.3 395.2 L374.3 390.9 L374.3 386.5 L374.3 382.1 L374.3 377.7 L374.3 373.4 L374.3 369.0 L370.7 369.0 L367.1 369.0 L363.5 369.0 L363.5 373.4 L363.5 377.7 L363.5 382.1 L363.5 386.5 L363.5 390.9 L363.5 395.2 L363.5 399.6 L359.9 399.6 L359.9 404.0 L363.5 404.0 Z" fill="#2f8f83" fill-opacity="0.34" stroke="#0e5b52" stroke-width="1.6" />
  <path d="M352.7 395.2 L352.7 399.6 L356.3 399.6 L356.3 404.0 L359.9 404.0 L359.9 399.6 L363.5 399.6 L363.5 395.2 L363.5 390.9 L363.5 386.5 L363.5 382.1 L363.5 377.7 L363.5 373.4 L363.5 369.0 L363.5 364.6 L359.9 364.6 L356.3 364.6 L352.7 364.6 L352.7 369.0 L352.7 373.4 L352.7 377.7 L352.7 382.1 L352.7 386.5 L352.7 390.9 L352.7 395.2 Z" fill="#2f8f83" fill-opacity="0.34" stroke="#0e5b52" stroke-width="1.6" />
  <path d="M349.1 399.6 L349.1 404.0 L352.7 404.0 L356.3 404.0 L356.3 399.6 L352.7 399.6 L352.7 395.2 L352.7 390.9 L352.7 386.5 L352.7 382.1 L352.7 377.7 L352.7 373.4 L352.7 369.0 L352.7 364.6 L349.1 364.6 L349.1 369.0 L349.1 373.4 L349.1 377.7 L349.1 382.1 L349.1 386.5 L349.1 390.9 L349.1 395.2 L349.1 399.6 Z" fill="#2f8f83" fill-opacity="0.34" stroke="#0e5b52" stroke-width="1.6" />
  <path d="M421.0 421.5 L421.0 425.8 L424.6 425.8 L428.2 425.8 L431.7 425.8 L435.3 425.8 L435.3 421.5 L435.3 417.1 L438.9 417.1 L438.9 412.7 L435.3 412.7 L431.7 412.7 L428.2 412.7 L428.2 408.4 L424.6 408.4 L421.0 408.4 L421.0 412.7 L421.0 417.1 L421.0 421.5 Z" fill="#2f8f83" fill-opacity="0.34" stroke="#0e5b52" stroke-width="1.6" />
  <path d="M532.3 224.3 L532.3 228.6 L535.9 228.6 L539.5 228.6 L539.5 233.0 L543.1 233.0 L546.7 233.0 L550.3 233.0 L553.9 233.0 L557.5 233.0 L557.5 228.6 L553.9 228.6 L550.3 228.6 L546.7 228.6 L546.7 224.3 L546.7 219.9 L546.7 215.5 L546.7 211.1 L546.7 206.7 L543.1 206.7 L539.5 206.7 L535.9 206.7 L532.3 206.7 L532.3 211.1 L532.3 215.5 L532.3 219.9 L532.3 224.3 Z" fill="#2f8f83" fill-opacity="0.34" stroke="#0e5b52" stroke-width="1.6" />
  <path d="M546.7 224.3 L546.7 228.6 L550.3 228.6 L553.9 228.6 L557.5 228.6 L557.5 224.3 L561.1 224.3 L564.7 224.3 L568.3 224.3 L568.3 219.9 L568.3 215.5 L568.3 211.1 L564.7 211.1 L564.7 206.7 L561.1 206.7 L557.5 206.7 L553.9 206.7 L550.3 206.7 L550.3 211.1 L546.7 211.1 L546.7 215.5 L546.7 219.9 L546.7 224.3 Z" fill="#2f8f83" fill-opacity="0.34" stroke="#0e5b52" stroke-width="1.6" />
  <path d="M571.8 219.9 L571.8 215.5 L568.3 215.5 L568.3 219.9 L571.8 219.9 Z" fill="#2f8f83" fill-opacity="0.34" stroke="#0e5b52" stroke-width="1.6" />
  <path d="M546.7 487.0 L546.7 491.4 L550.3 491.4 L553.9 491.4 L557.5 491.4 L561.1 491.4 L564.7 491.4 L564.7 487.0 L564.7 482.6 L564.7 478.3 L564.7 473.9 L561.1 473.9 L557.5 473.9 L553.9 473.9 L550.3 473.9 L546.7 473.9 L546.7 478.3 L546.7 482.6 L546.7 487.0 Z" fill="#2f8f83" fill-opacity="0.34" stroke="#0e5b52" stroke-width="1.6" />
  <path d="M525.1 465.2 L525.1 469.5 L528.7 469.5 L532.3 469.5 L535.9 469.5 L539.5 469.5 L543.1 469.5 L543.1 465.2 L543.1 460.8 L543.1 456.4 L543.1 452.1 L543.1 447.7 L539.5 447.7 L535.9 447.7 L532.3 447.7 L528.7 447.7 L525.1 447.7 L525.1 452.1 L525.1 456.4 L525.1 460.8 L525.1 465.2 Z" fill="#2f8f83" fill-opacity="0.34" stroke="#0e5b52" stroke-width="1.6" />
  <path d="M564.7 495.7 L564.7 491.4 L561.1 491.4 L561.1 495.7 L564.7 495.7 Z" fill="#2f8f83" fill-opacity="0.34" stroke="#0e5b52" stroke-width="1.6" />
  <path d="M564.7 473.9 L564.7 469.5 L561.1 469.5 L561.1 473.9 L564.7 473.9 Z" fill="#2f8f83" fill-opacity="0.34" stroke="#0e5b52" stroke-width="1.6" />
  <path d="M550.3 495.7 L553.9 495.7 L557.5 495.7 L561.1 495.7 L561.1 491.4 L557.5 491.4 L553.9 491.4 L550.3 491.4 L546.7 491.4 L546.7 495.7 L550.3 495.7 Z" fill="#2f8f83" fill-opacity="0.34" stroke="#0e5b52" stroke-width="1.6" />
  <path d="M500.0 491.4 L500.0 495.7 L503.6 495.7 L507.2 495.7 L510.8 495.7 L514.4 495.7 L518.0 495.7 L521.5 495.7 L525.1 495.7 L525.1 491.4 L525.1 487.0 L525.1 482.6 L525.1 478.3 L521.5 478.3 L521.5 482.6 L521.5 487.0 L518.0 487.0 L514.4 487.0 L514.4 482.6 L514.4 478.3 L510.8 478.3 L507.2 478.3 L503.6 478.3 L503.6 473.9 L500.0 473.9 L500.0 478.3 L500.0 482.6 L500.0 487.0 L500.0 491.4 Z" fill="#2f8f83" fill-opacity="0.34" stroke="#0e5b52" stroke-width="1.6" />
  <path d="M492.8 478.3 L492.8 482.6 L496.4 482.6 L500.0 482.6 L500.0 478.3 L500.0 473.9 L496.4 473.9 L492.8 473.9 L492.8 478.3 Z" fill="#2f8f83" fill-opacity="0.34" stroke="#0e5b52" stroke-width="1.6" />
  <path d="M496.4 495.7 L500.0 495.7 L500.0 491.4 L496.4 491.4 L492.8 491.4 L492.8 495.7 L496.4 495.7 Z" fill="#2f8f83" fill-opacity="0.34" stroke="#0e5b52" stroke-width="1.6" />
  <path d="M546.7 500.1 L550.3 500.1 L553.9 500.1 L557.5 500.1 L561.1 500.1 L564.7 500.1 L564.7 495.7 L561.1 495.7 L557.5 495.7 L553.9 495.7 L550.3 495.7 L546.7 495.7 L543.1 495.7 L543.1 500.1 L546.7 500.1 Z" fill="#2f8f83" fill-opacity="0.34" stroke="#0e5b52" stroke-width="1.6" />
  <path d="M528.7 500.1 L532.3 500.1 L535.9 500.1 L539.5 500.1 L543.1 500.1 L543.1 495.7 L539.5 495.7 L535.9 495.7 L532.3 495.7 L528.7 495.7 L525.1 495.7 L525.1 500.1 L528.7 500.1 Z" fill="#2f8f83" fill-opacity="0.34" stroke="#0e5b52" stroke-width="1.6" />
  <path d="M535.9 508.8 L535.9 513.2 L539.5 513.2 L543.1 513.2 L546.7 513.2 L546.7 508.8 L546.7 504.4 L546.7 500.1 L543.1 500.1 L539.5 500.1 L535.9 500.1 L535.9 504.4 L535.9 508.8 Z" fill="#2f8f83" fill-opacity="0.34" stroke="#0e5b52" stroke-width="1.6" />
  <path d="M525.1 443.3 L525.1 447.7 L528.7 447.7 L532.3 447.7 L535.9 447.7 L539.5 447.7 L543.1 447.7 L543.1 443.3 L543.1 439.0 L539.5 439.0 L535.9 439.0 L532.3 439.0 L528.7 439.0 L525.1 439.0 L525.1 443.3 Z" fill="#2f8f83" fill-opacity="0.34" stroke="#0e5b52" stroke-width="1.6" />
  <path d="M503.6 307.6 L507.2 307.6 L510.8 307.6 L514.4 307.6 L518.0 307.6 L518.0 303.3 L514.4 303.3 L510.8 303.3 L507.2 303.3 L503.6 303.3 L500.0 303.3 L500.0 307.6 L503.6 307.6 Z" fill="#2f8f83" fill-opacity="0.34" stroke="#0e5b52" stroke-width="1.6" />
  <path d="M525.1 307.6 L528.7 307.6 L532.3 307.6 L535.9 307.6 L535.9 303.3 L532.3 303.3 L528.7 303.3 L525.1 303.3 L521.6 303.3 L521.6 307.6 L525.1 307.6 Z" fill="#2f8f83" fill-opacity="0.34" stroke="#0e5b52" stroke-width="1.6" />
  <path d="M543.1 303.3 L546.7 303.3 L546.7 298.9 L543.1 298.9 L539.5 298.9 L539.5 303.3 L543.1 303.3 Z" fill="#2f8f83" fill-opacity="0.34" stroke="#0e5b52" stroke-width="1.6" />
  <path d="M514.4 482.6 L514.4 487.0 L518.0 487.0 L521.5 487.0 L521.5 482.6 L521.5 478.3 L518.0 478.3 L514.4 478.3 L514.4 482.6 Z" fill="#2f8f83" fill-opacity="0.34" stroke="#0e5b52" stroke-width="1.6" />
  <path d="M550.3 421.5 L550.3 425.8 L553.9 425.8 L553.9 421.5 L553.9 417.1 L553.9 412.7 L553.9 408.4 L553.9 404.0 L553.9 399.6 L553.9 395.2 L550.3 395.2 L550.3 399.6 L550.3 404.0 L550.3 408.4 L550.3 412.7 L550.3 417.1 L550.3 421.5 Z" fill="#2f8f83" fill-opacity="0.34" stroke="#0e5b52" stroke-width="1.6" />
  <path d="M503.6 473.9 L503.6 469.5 L500.0 469.5 L500.0 473.9 L503.6 473.9 Z" fill="#2f8f83" fill-opacity="0.34" stroke="#0e5b52" stroke-width="1.6" />
  <path d="M431.7 386.5 L431.7 390.9 L435.3 390.9 L438.9 390.9 L442.5 390.9 L442.5 386.5 L442.5 382.1 L438.9 382.1 L435.3 382.1 L431.7 382.1 L431.7 386.5 Z" fill="#2f8f83" fill-opacity="0.34" stroke="#0e5b52" stroke-width="1.6" />
  <path d="M456.9 386.5 L460.5 386.5 L460.5 390.9 L464.1 390.9 L464.1 386.5 L464.1 382.1 L460.5 382.1 L456.9 382.1 L453.3 382.1 L453.3 386.5 L456.9 386.5 Z" fill="#2f8f83" fill-opacity="0.34" stroke="#0e5b52" stroke-width="1.6" />
  <path d="M460.5 404.0 L460.5 408.4 L464.1 408.4 L464.1 404.0 L464.1 399.6 L464.1 395.2 L460.5 395.2 L460.5 399.6 L460.5 404.0 Z" fill="#2f8f83" fill-opacity="0.34" stroke="#0e5b52" stroke-width="1.6" />
  <path d="M564.7 508.8 L568.2 508.8 L568.2 504.4 L564.7 504.4 L561.1 504.4 L561.1 508.8 L564.7 508.8 Z" fill="#2f8f83" fill-opacity="0.34" stroke="#0e5b52" stroke-width="1.6" />
  <path d="M482.0 491.4 L482.0 495.7 L485.6 495.7 L485.6 491.4 L485.6 487.0 L485.6 482.6 L485.6 478.3 L485.6 473.9 L482.0 473.9 L482.0 478.3 L482.0 482.6 L482.0 487.0 L482.0 491.4 Z" fill="#2f8f83" fill-opacity="0.34" stroke="#0e5b52" stroke-width="1.6" />
  <path d="M492.8 487.0 L492.8 491.4 L496.4 491.4 L500.0 491.4 L500.0 487.0 L500.0 482.6 L496.4 482.6 L492.8 482.6 L492.8 487.0 Z" fill="#2f8f83" fill-opacity="0.34" stroke="#0e5b52" stroke-width="1.6" />
  <path d="M489.2 495.7 L492.8 495.7 L492.8 491.4 L489.2 491.4 L485.6 491.4 L485.6 495.7 L489.2 495.7 Z" fill="#2f8f83" fill-opacity="0.34" stroke="#0e5b52" stroke-width="1.6" />
  <path d="M442.5 382.1 L442.5 386.5 L446.1 386.5 L446.1 382.1 L446.1 377.7 L442.5 377.7 L442.5 382.1 Z" fill="#2f8f83" fill-opacity="0.34" stroke="#0e5b52" stroke-width="1.6" />
  <path d="M528.7 390.9 L528.7 395.2 L532.3 395.2 L532.3 390.9 L532.3 386.5 L532.3 382.1 L532.3 377.7 L532.3 373.4 L532.3 369.0 L528.7 369.0 L528.7 373.4 L528.7 377.7 L528.7 382.1 L528.7 386.5 L528.7 390.9 Z" fill="#2f8f83" fill-opacity="0.34" stroke="#0e5b52" stroke-width="1.6" />
  <path d="M543.1 399.6 L543.1 404.0 L546.7 404.0 L546.7 408.4 L546.7 412.7 L550.3 412.7 L550.3 408.4 L550.3 404.0 L550.3 399.6 L550.3 395.2 L546.7 395.2 L543.1 395.2 L543.1 399.6 Z" fill="#2f8f83" fill-opacity="0.34" stroke="#0e5b52" stroke-width="1.6" />
  <path d="M546.7 504.4 L546.7 508.8 L550.3 508.8 L553.9 508.8 L557.5 508.8 L561.1 508.8 L561.1 504.4 L564.7 504.4 L568.2 504.4 L571.8 504.4 L575.4 504.4 L575.4 500.1 L575.4 495.7 L571.8 495.7 L568.2 495.7 L564.7 495.7 L564.7 500.1 L561.1 500.1 L557.5 500.1 L553.9 500.1 L550.3 500.1 L546.7 500.1 L546.7 504.4 Z" fill="#2f8f83" fill-opacity="0.34" stroke="#0e5b52" stroke-width="1.6" />
  <path d="M460.5 382.1 L464.1 382.1 L464.1 377.7 L460.5 377.7 L456.9 377.7 L456.9 382.1 L460.5 382.1 Z" fill="#2f8f83" fill-opacity="0.34" stroke="#0e5b52" stroke-width="1.6" />
  <path d="M464.1 395.2 L464.1 390.9 L460.5 390.9 L460.5 395.2 L464.1 395.2 Z" fill="#2f8f83" fill-opacity="0.34" stroke="#0e5b52" stroke-width="1.6" />
  <path d="M449.7 382.1 L453.3 382.1 L456.9 382.1 L456.9 377.7 L453.3 377.7 L449.7 377.7 L446.1 377.7 L446.1 382.1 L449.7 382.1 Z" fill="#2f8f83" fill-opacity="0.34" stroke="#0e5b52" stroke-width="1.6" />
  <path d="M467.7 412.7 L471.3 412.7 L474.9 412.7 L478.4 412.7 L482.0 412.7 L485.6 412.7 L489.2 412.7 L489.2 408.4 L485.6 408.4 L482.0 408.4 L478.4 408.4 L474.9 408.4 L471.3 408.4 L467.7 408.4 L464.1 408.4 L464.1 412.7 L467.7 412.7 Z" fill="#2f8f83" fill-opacity="0.34" stroke="#0e5b52" stroke-width="1.6" />
  <path d="M564.7 491.4 L564.7 495.7 L568.2 495.7 L571.8 495.7 L575.4 495.7 L575.4 500.1 L575.4 504.4 L579.0 504.4 L579.0 500.1 L579.0 495.7 L579.0 491.4 L582.6 491.4 L586.2 491.4 L589.8 491.4 L593.4 491.4 L593.4 495.7 L597.0 495.7 L597.0 491.4 L597.0 487.0 L597.0 482.6 L597.0 478.3 L593.4 478.3 L589.8 478.3 L586.2 478.3 L582.6 478.3 L579.0 478.3 L579.0 473.9 L579.0 469.5 L579.0 465.2 L579.0 460.8 L575.4 460.8 L571.8 460.8 L568.2 460.8 L564.7 460.8 L564.7 465.2 L564.7 469.5 L564.7 473.9 L564.7 478.3 L564.7 482.6 L564.7 487.0 L564.7 491.4 Z" fill="#2f8f83" fill-opacity="0.34" stroke="#0e5b52" stroke-width="1.6" />
  <path d="M546.7 513.2 L546.7 517.5 L550.3 517.5 L550.3 521.9 L553.9 521.9 L557.5 521.9 L561.1 521.9 L564.7 521.9 L568.2 521.9 L571.8 521.9 L575.4 521.9 L575.4 517.5 L575.4 513.2 L575.4 508.8 L575.4 504.4 L571.8 504.4 L568.2 504.4 L568.2 508.8 L564.7 508.8 L561.1 508.8 L557.5 508.8 L553.9 508.8 L550.3 508.8 L546.7 508.8 L546.7 513.2 Z" fill="#2f8f83" fill-opacity="0.34" stroke="#0e5b52" stroke-width="1.6" />
  <path d="M618.5 276.9 L618.5 281.3 L622.1 281.3 L625.7 281.3 L625.7 285.7 L629.3 285.7 L629.3 290.1 L632.9 290.1 L632.9 294.5 L632.9 298.9 L632.9 303.3 L632.9 307.6 L636.5 307.6 L640.1 307.6 L643.7 307.6 L647.3 307.6 L647.3 303.3 L647.3 298.9 L647.3 294.5 L647.3 290.1 L650.9 290.1 L654.5 290.1 L654.5 285.7 L654.5 281.3 L654.5 276.9 L654.5 272.6 L654.5 268.2 L650.9 268.2 L650.9 263.8 L647.3 263.8 L643.7 263.8 L640.1 263.8 L636.5 263.8 L632.9 263.8 L632.9 259.4 L632.9 255.0 L632.9 250.6 L632.9 246.2 L629.3 246.2 L625.7 246.2 L625.7 241.8 L622.1 241.8 L622.1 246.2 L622.1 250.6 L618.5 250.6 L618.5 255.0 L618.5 259.4 L618.5 263.8 L618.5 268.2 L618.5 272.6 L618.5 276.9 Z" fill="#2f8f83" fill-opacity="0.34" stroke="#0e5b52" stroke-width="1.6" />
  <path d="M571.8 224.3 L571.8 219.9 L568.3 219.9 L568.3 224.3 L571.8 224.3 Z" fill="#2f8f83" fill-opacity="0.34" stroke="#0e5b52" stroke-width="1.6" />
  <path d="M535.9 303.3 L535.9 307.6 L539.5 307.6 L539.5 303.3 L539.5 298.9 L535.9 298.9 L535.9 303.3 Z" fill="#2f8f83" fill-opacity="0.34" stroke="#0e5b52" stroke-width="1.6" />
  <path d="M600.6 338.3 L600.6 342.7 L604.2 342.7 L607.8 342.7 L611.4 342.7 L615.0 342.7 L618.5 342.7 L622.1 342.7 L625.7 342.7 L625.7 338.3 L625.7 333.9 L625.7 329.6 L625.7 325.2 L625.7 320.8 L625.7 316.4 L629.3 316.4 L632.9 316.4 L632.9 312.0 L632.9 307.6 L632.9 303.3 L632.9 298.9 L632.9 294.5 L632.9 290.1 L629.3 290.1 L629.3 285.7 L625.7 285.7 L625.7 281.3 L622.1 281.3 L618.5 281.3 L615.0 281.3 L611.4 281.3 L611.4 285.7 L607.8 285.7 L607.8 290.1 L607.8 294.5 L607.8 298.9 L607.8 303.3 L604.2 303.3 L600.6 303.3 L600.6 307.6 L604.2 307.6 L604.2 312.0 L600.6 312.0 L600.6 316.4 L600.6 320.8 L600.6 325.2 L600.6 329.6 L600.6 333.9 L600.6 338.3 Z" fill="#2f8f83" fill-opacity="0.34" stroke="#0e5b52" stroke-width="1.6" />
  <path d="M338.3 417.1 L338.3 421.5 L341.9 421.5 L345.5 421.5 L349.1 421.5 L352.7 421.5 L356.3 421.5 L359.9 421.5 L363.5 421.5 L367.1 421.5 L370.7 421.5 L374.3 421.5 L377.9 421.5 L381.5 421.5 L385.0 421.5 L385.0 417.1 L388.6 417.1 L392.2 417.1 L395.8 417.1 L399.4 417.1 L403.0 417.1 L406.6 417.1 L410.2 417.1 L413.8 417.1 L417.4 417.1 L421.0 417.1 L421.0 412.7 L421.0 408.4 L421.0 404.0 L421.0 399.6 L421.0 395.2 L417.4 395.2 L413.8 395.2 L410.2 395.2 L406.6 395.2 L403.0 395.2 L403.0 399.6 L399.4 399.6 L395.8 399.6 L392.2 399.6 L388.6 399.6 L385.0 399.6 L381.5 399.6 L377.9 399.6 L374.3 399.6 L374.3 404.0 L370.7 404.0 L367.1 404.0 L363.5 404.0 L359.9 404.0 L356.3 404.0 L352.7 404.0 L349.1 404.0 L345.5 404.0 L341.9 404.0 L338.3 404.0 L338.3 408.4 L338.3 412.7 L338.3 417.1 Z" fill="#2f8f83" fill-opacity="0.34" stroke="#0e5b52" stroke-width="1.6" />
  <path d="M338.3 434.6 L338.3 439.0 L341.9 439.0 L345.5 439.0 L349.1 439.0 L352.7 439.0 L356.3 439.0 L359.9 439.0 L363.5 439.0 L367.1 439.0 L370.7 439.0 L374.3 439.0 L377.9 439.0 L381.5 439.0 L385.0 439.0 L388.6 439.0 L392.2 439.0 L395.8 439.0 L395.8 434.6 L399.4 434.6 L403.0 434.6 L406.6 434.6 L410.2 434.6 L413.8 434.6 L417.4 434.6 L421.0 434.6 L424.6 434.6 L428.2 434.6 L428.2 430.2 L431.7 430.2 L431.7 425.8 L428.2 425.8 L424.6 425.8 L421.0 425.8 L421.0 421.5 L421.0 417.1 L417.4 417.1 L413.8 417.1 L410.2 417.1 L406.6 417.1 L403.0 417.1 L399.4 417.1 L395.8 417.1 L392.2 417.1 L388.6 417.1 L385.0 417.1 L385.0 421.5 L381.5 421.5 L377.9 421.5 L374.3 421.5 L370.7 421.5 L367.1 421.5 L363.5 421.5 L359.9 421.5 L356.3 421.5 L352.7 421.5 L349.1 421.5 L345.5 421.5 L341.9 421.5 L338.3 421.5 L338.3 425.8 L338.3 430.2 L338.3 434.6 Z" fill="#2f8f83" fill-opacity="0.34" stroke="#0e5b52" stroke-width="1.6" />
  <path d="M341.9 443.3 L345.5 443.3 L349.1 443.3 L352.7 443.3 L356.3 443.3 L356.3 447.7 L356.3 452.1 L359.9 452.1 L363.5 452.1 L367.1 452.1 L370.7 452.1 L374.3 452.1 L377.9 452.1 L381.5 452.1 L381.5 456.4 L385.0 456.4 L388.6 456.4 L392.2 456.4 L395.8 456.4 L399.4 456.4 L403.0 456.4 L406.6 456.4 L410.2 456.4 L413.8 456.4 L417.4 456.4 L421.0 456.4 L424.6 456.4 L428.2 456.4 L431.7 456.4 L435.3 456.4 L438.9 456.4 L438.9 452.1 L442.5 452.1 L442.5 447.7 L442.5 443.3 L442.5 439.0 L438.9 439.0 L435.3 439.0 L431.7 439.0 L431.7 443.3 L431.7 447.7 L428.2 447.7 L428.2 443.3 L428.2 439.0 L428.2 434.6 L424.6 434.6 L421.0 434.6 L417.4 434.6 L413.8 434.6 L410.2 434.6 L406.6 434.6 L403.0 434.6 L399.4 434.6 L395.8 434.6 L395.8 439.0 L392.2 439.0 L388.6 439.0 L385.0 439.0 L381.5 439.0 L377.9 439.0 L374.3 439.0 L370.7 439.0 L367.1 439.0 L363.5 439.0 L359.9 439.0 L356.3 439.0 L352.7 439.0 L349.1 439.0 L345.5 439.0 L341.9 439.0 L338.3 439.0 L338.3 443.3 L341.9 443.3 Z" fill="#2f8f83" fill-opacity="0.34" stroke="#0e5b52" stroke-width="1.6" />
  <path d="M349.1 473.9 L349.1 478.3 L352.7 478.3 L356.3 478.3 L359.9 478.3 L363.5 478.3 L367.1 478.3 L370.7 478.3 L370.7 473.9 L374.3 473.9 L377.9 473.9 L381.5 473.9 L385.0 473.9 L388.6 473.9 L392.2 473.9 L395.8 473.9 L395.8 469.5 L395.8 465.2 L395.8 460.8 L395.8 456.4 L392.2 456.4 L388.6 456.4 L385.0 456.4 L381.5 456.4 L381.5 452.1 L377.9 452.1 L374.3 452.1 L370.7 452.1 L367.1 452.1 L363.5 452.1 L359.9 452.1 L356.3 452.1 L356.3 456.4 L352.7 456.4 L349.1 456.4 L349.1 460.8 L349.1 465.2 L349.1 469.5 L349.1 473.9 Z" fill="#2f8f83" fill-opacity="0.34" stroke="#0e5b52" stroke-width="1.6" />
  <path d="M395.8 469.5 L395.8 473.9 L399.4 473.9 L399.4 478.3 L403.0 478.3 L406.6 478.3 L410.2 478.3 L413.8 478.3 L417.4 478.3 L421.0 478.3 L424.6 478.3 L428.2 478.3 L428.2 473.9 L431.7 473.9 L431.7 469.5 L435.3 469.5 L435.3 465.2 L435.3 460.8 L438.9 460.8 L438.9 456.4 L435.3 456.4 L431.7 456.4 L428.2 456.4 L424.6 456.4 L421.0 456.4 L417.4 456.4 L413.8 456.4 L410.2 456.4 L406.6 456.4 L403.0 456.4 L399.4 456.4 L395.8 456.4 L395.8 460.8 L395.8 465.2 L395.8 469.5 Z" fill="#2f8f83" fill-opacity="0.34" stroke="#0e5b52" stroke-width="1.6" />
  <path d="M589.8 447.7 L589.8 452.1 L593.4 452.1 L597.0 452.1 L600.6 452.1 L604.2 452.1 L604.2 447.7 L604.2 443.3 L604.2 439.0 L604.2 434.6 L604.2 430.2 L604.2 425.8 L604.2 421.5 L604.2 417.1 L604.2 412.7 L604.2 408.4 L604.2 404.0 L604.2 399.6 L604.2 395.2 L600.6 395.2 L597.0 395.2 L593.4 395.2 L589.8 395.2 L589.8 399.6 L589.8 404.0 L589.8 408.4 L589.8 412.7 L589.8 417.1 L589.8 421.5 L589.8 425.8 L589.8 430.2 L589.8 434.6 L589.8 439.0 L589.8 443.3 L589.8 447.7 Z" fill="#2f8f83" fill-opacity="0.34" stroke="#0e5b52" stroke-width="1.6" />
  <path d="M625.7 153.9 L625.7 158.3 L629.3 158.3 L632.9 158.3 L636.5 158.3 L640.1 158.3 L643.7 158.3 L643.7 162.7 L643.7 167.1 L643.7 171.5 L643.7 175.9 L643.7 180.3 L643.7 184.7 L643.7 189.1 L643.7 193.5 L647.3 193.5 L647.3 189.1 L647.3 184.7 L647.3 180.3 L647.3 175.9 L647.3 171.5 L647.3 167.1 L647.3 162.7 L647.3 158.3 L647.3 153.9 L647.3 149.5 L647.3 145.1 L643.7 145.1 L640.1 145.1 L636.5 145.1 L632.9 145.1 L629.3 145.1 L625.7 145.1 L625.7 149.5 L625.7 153.9 Z" fill="#2f8f83" fill-opacity="0.34" stroke="#0e5b52" stroke-width="1.6" />
  <path d="M564.7 456.4 L564.7 460.8 L568.2 460.8 L571.8 460.8 L575.4 460.8 L579.0 460.8 L579.0 456.4 L582.6 456.4 L582.6 452.1 L586.2 452.1 L589.8 452.1 L589.8 447.7 L589.8 443.3 L589.8 439.0 L589.8 434.6 L589.8 430.2 L589.8 425.8 L589.8 421.5 L589.8 417.1 L589.8 412.7 L589.8 408.4 L589.8 404.0 L589.8 399.6 L589.8 395.2 L586.2 395.2 L582.6 395.2 L579.0 395.2 L575.4 395.2 L571.8 395.2 L568.3 395.2 L564.7 395.2 L564.7 399.6 L564.7 404.0 L564.7 408.4 L564.7 412.7 L564.7 417.1 L564.7 421.5 L564.7 425.8 L564.7 430.2 L564.7 434.6 L564.7 439.0 L564.7 443.3 L564.7 447.7 L564.7 452.1 L564.7 456.4 Z" fill="#2f8f83" fill-opacity="0.34" stroke="#0e5b52" stroke-width="1.6" />
  <path d="M579.0 390.9 L579.0 395.2 L582.6 395.2 L586.2 395.2 L589.8 395.2 L593.4 395.2 L593.4 390.9 L593.4 386.5 L589.8 386.5 L586.2 386.5 L582.6 386.5 L579.0 386.5 L579.0 390.9 Z" fill="#2f8f83" fill-opacity="0.34" stroke="#0e5b52" stroke-width="1.6" />
  <path d="M593.4 206.7 L597.0 206.7 L597.0 211.1 L600.6 211.1 L600.6 215.5 L604.2 215.5 L607.8 215.5 L607.8 211.1 L607.8 206.7 L607.8 202.3 L607.8 197.9 L607.8 193.5 L607.8 189.1 L607.8 184.7 L607.8 180.3 L607.8 175.9 L607.8 171.5 L607.8 167.1 L607.8 162.7 L607.8 158.3 L607.8 153.9 L607.8 149.5 L607.8 145.1 L607.8 140.7 L607.8 136.3 L607.8 131.9 L607.8 127.5 L607.8 123.1 L607.8 118.7 L604.2 118.7 L600.6 118.7 L597.0 118.7 L597.0 123.1 L597.0 127.5 L597.0 131.9 L597.0 136.3 L597.0 140.7 L597.0 145.1 L597.0 149.5 L597.0 153.9 L597.0 158.3 L597.0 162.7 L597.0 167.1 L597.0 171.5 L593.4 171.5 L593.4 175.9 L593.4 180.3 L593.4 184.7 L593.4 189.1 L593.4 193.5 L593.4 197.9 L593.4 202.3 L593.4 206.7 Z" fill="#2f8f83" fill-opacity="0.34" stroke="#0e5b52" stroke-width="1.6" />
  <path d="M607.8 211.1 L607.8 215.5 L611.4 215.5 L615.0 215.5 L615.0 211.1 L615.0 206.7 L618.5 206.7 L622.1 206.7 L622.1 202.3 L625.7 202.3 L625.7 197.9 L629.3 197.9 L629.3 193.5 L632.9 193.5 L636.5 193.5 L640.1 193.5 L643.7 193.5 L643.7 189.1 L643.7 184.7 L643.7 180.3 L643.7 175.9 L643.7 171.5 L643.7 167.1 L640.1 167.1 L636.5 167.1 L632.9 167.1 L629.3 167.1 L625.7 167.1 L622.1 167.1 L618.6 167.1 L615.0 167.1 L611.4 167.1 L607.8 167.1 L607.8 171.5 L607.8 175.9 L607.8 180.3 L607.8 184.7 L607.8 189.1 L607.8 193.5 L607.8 197.9 L607.8 202.3 L607.8 206.7 L607.8 211.1 Z M611.4 171.5 L615.0 171.5 L615.0 175.9 L611.4 175.9 L611.4 171.5 Z" fill="#2f8f83" fill-opacity="0.34" stroke="#0e5b52" stroke-width="1.6" />
  <path d="M607.8 162.7 L607.8 167.1 L611.4 167.1 L615.0 167.1 L618.6 167.1 L622.1 167.1 L625.7 167.1 L629.3 167.1 L632.9 167.1 L636.5 167.1 L640.1 167.1 L643.7 167.1 L643.7 162.7 L643.7 158.3 L640.1 158.3 L636.5 158.3 L632.9 158.3 L629.3 158.3 L625.7 158.3 L622.1 158.3 L618.6 158.3 L618.6 153.9 L618.6 149.5 L622.1 149.5 L625.7 149.5 L625.7 145.1 L625.7 140.7 L625.7 136.3 L622.1 136.3 L618.6 136.3 L618.6 131.9 L618.6 127.5 L618.6 123.1 L615.0 123.1 L611.4 123.1 L607.8 123.1 L607.8 127.5 L607.8 131.9 L607.8 136.3 L607.8 140.7 L607.8 145.1 L607.8 149.5 L607.8 153.9 L607.8 158.3 L607.8 162.7 Z M611.4 136.3 L611.4 131.9 L615.0 131.9 L615.0 136.3 L611.4 136.3 Z" fill="#2f8f83" fill-opacity="0.34" stroke="#0e5b52" stroke-width="1.6" />
  <path d="M615.0 211.1 L615.0 215.5 L618.5 215.5 L622.1 215.5 L625.7 215.5 L629.3 215.5 L632.9 215.5 L632.9 219.9 L632.9 224.3 L632.9 228.6 L636.5 228.6 L640.1 228.6 L643.7 228.6 L647.3 228.6 L647.3 224.3 L647.3 219.9 L647.3 215.5 L647.3 211.1 L647.3 206.7 L647.3 202.3 L647.3 197.9 L647.3 193.5 L643.7 193.5 L640.1 193.5 L636.5 193.5 L632.9 193.5 L629.3 193.5 L629.3 197.9 L625.7 197.9 L625.7 202.3 L622.1 202.3 L622.1 206.7 L618.5 206.7 L615.0 206.7 L615.0 211.1 Z" fill="#2f8f83" fill-opacity="0.34" stroke="#0e5b52" stroke-width="1.6" />
  <path d="M431.7 478.3 L435.3 478.3 L438.9 478.3 L438.9 473.9 L435.3 473.9 L431.7 473.9 L428.2 473.9 L428.2 478.3 L431.7 478.3 Z" fill="#2f8f83" fill-opacity="0.34" stroke="#0e5b52" stroke-width="1.6" />
  <path d="M632.9 233.0 L632.9 237.4 L636.5 237.4 L640.1 237.4 L643.7 237.4 L647.3 237.4 L650.9 237.4 L654.5 237.4 L658.1 237.4 L658.1 233.0 L658.1 228.6 L654.5 228.6 L650.9 228.6 L647.3 228.6 L643.7 228.6 L640.1 228.6 L636.5 228.6 L632.9 228.6 L632.9 233.0 Z" fill="#2f8f83" fill-opacity="0.34" stroke="#0e5b52" stroke-width="1.6" />
  <path d="M647.3 224.3 L647.3 228.6 L650.9 228.6 L654.5 228.6 L658.1 228.6 L658.1 224.3 L658.1 219.9 L658.1 215.5 L658.1 211.1 L658.1 206.7 L658.1 202.3 L658.1 197.9 L658.1 193.5 L658.1 189.1 L658.1 184.7 L658.1 180.3 L658.1 175.9 L658.1 171.5 L654.5 171.5 L654.5 167.1 L654.5 162.7 L654.5 158.3 L650.9 158.3 L647.3 158.3 L647.3 162.7 L647.3 167.1 L647.3 171.5 L647.3 175.9 L647.3 180.3 L647.3 184.7 L647.3 189.1 L647.3 193.5 L647.3 197.9 L647.3 202.3 L647.3 206.7 L647.3 211.1 L647.3 215.5 L647.3 219.9 L647.3 224.3 Z" fill="#2f8f83" fill-opacity="0.34" stroke="#0e5b52" stroke-width="1.6" />
  <path d="M647.3 303.3 L647.3 307.6 L650.9 307.6 L654.5 307.6 L654.5 303.3 L654.5 298.9 L654.5 294.5 L654.5 290.1 L650.9 290.1 L647.3 290.1 L647.3 294.5 L647.3 298.9 L647.3 303.3 Z" fill="#2f8f83" fill-opacity="0.34" stroke="#0e5b52" stroke-width="1.6" />
  <path d="M622.1 241.8 L625.7 241.8 L625.7 246.2 L629.3 246.2 L632.9 246.2 L632.9 241.8 L632.9 237.4 L632.9 233.0 L632.9 228.6 L632.9 224.3 L632.9 219.9 L632.9 215.5 L629.3 215.5 L625.7 215.5 L625.7 219.9 L625.7 224.3 L625.7 228.6 L625.7 233.0 L625.7 237.4 L622.1 237.4 L622.1 241.8 Z" fill="#2f8f83" fill-opacity="0.34" stroke="#0e5b52" stroke-width="1.6" />
  <path d="M395.8 290.1 L395.8 294.5 L399.4 294.5 L403.0 294.5 L403.0 298.9 L403.0 303.3 L406.6 303.3 L410.2 303.3 L413.8 303.3 L417.4 303.3 L417.4 298.9 L421.0 298.9 L424.6 298.9 L428.2 298.9 L431.8 298.9 L435.3 298.9 L438.9 298.9 L442.5 298.9 L442.5 294.5 L438.9 294.5 L435.3 294.5 L431.8 294.5 L428.2 294.5 L424.6 294.5 L424.6 290.1 L424.6 285.7 L428.2 285.7 L431.8 285.7 L431.8 281.3 L431.8 276.9 L435.3 276.9 L438.9 276.9 L442.5 276.9 L442.5 272.5 L446.1 272.5 L446.1 268.2 L446.1 263.8 L446.1 259.4 L442.5 259.4 L438.9 259.4 L435.3 259.4 L431.8 259.4 L431.8 263.8 L428.2 263.8 L428.2 268.2 L424.6 268.2 L421.0 268.2 L417.4 268.2 L413.8 268.2 L410.2 268.2 L406.6 268.2 L406.6 272.5 L403.0 272.5 L403.0 276.9 L399.4 276.9 L395.8 276.9 L395.8 281.3 L395.8 285.7 L395.8 290.1 Z" fill="#2f8f83" fill-opacity="0.34" stroke="#0e5b52" stroke-width="1.6" />
  <path d="M553.9 421.5 L553.9 425.8 L557.5 425.8 L561.1 425.8 L564.7 425.8 L564.7 421.5 L564.7 417.1 L564.7 412.7 L564.7 408.4 L564.7 404.0 L564.7 399.6 L564.7 395.2 L561.1 395.2 L557.5 395.2 L553.9 395.2 L553.9 399.6 L553.9 404.0 L553.9 408.4 L553.9 412.7 L553.9 417.1 L553.9 421.5 Z" fill="#2f8f83" fill-opacity="0.34" stroke="#0e5b52" stroke-width="1.6" />
  <path d="M593.4 390.9 L593.4 395.2 L597.0 395.2 L600.6 395.2 L604.2 395.2 L604.2 399.6 L604.2 404.0 L607.8 404.0 L611.4 404.0 L611.4 399.6 L615.0 399.6 L618.5 399.6 L618.5 395.2 L622.1 395.2 L622.1 390.9 L625.7 390.9 L625.7 386.5 L629.3 386.5 L629.3 382.1 L629.3 377.7 L625.7 377.7 L622.1 377.7 L618.5 377.7 L615.0 377.7 L611.4 377.7 L607.8 377.7 L604.2 377.7 L600.6 377.7 L597.0 377.7 L597.0 382.1 L593.4 382.1 L593.4 386.5 L593.4 390.9 Z" fill="#2f8f83" fill-opacity="0.34" stroke="#0e5b52" stroke-width="1.6" />
  <path d="M615.0 136.3 L615.0 131.9 L611.4 131.9 L611.4 136.3 L615.0 136.3 Z" fill="#2f8f83" fill-opacity="0.34" stroke="#0e5b52" stroke-width="1.6" />
  <path d="M615.0 404.0 L618.5 404.0 L618.5 399.6 L615.0 399.6 L611.4 399.6 L611.4 404.0 L615.0 404.0 Z" fill="#2f8f83" fill-opacity="0.34" stroke="#0e5b52" stroke-width="1.6" />
  <path d="M632.9 259.4 L632.9 263.8 L636.5 263.8 L636.5 259.4 L636.5 255.0 L636.5 250.6 L632.9 250.6 L632.9 255.0 L632.9 259.4 Z" fill="#2f8f83" fill-opacity="0.34" stroke="#0e5b52" stroke-width="1.6" />
  <path d="M636.5 259.4 L636.5 263.8 L640.1 263.8 L643.7 263.8 L647.3 263.8 L650.9 263.8 L650.9 259.4 L650.9 255.0 L650.9 250.6 L647.3 250.6 L643.7 250.6 L640.1 250.6 L640.1 255.0 L636.5 255.0 L636.5 259.4 Z" fill="#2f8f83" fill-opacity="0.34" stroke="#0e5b52" stroke-width="1.6" />
  <path d="M643.7 250.6 L647.3 250.6 L650.9 250.6 L654.5 250.6 L658.1 250.6 L658.1 246.2 L654.5 246.2 L650.9 246.2 L647.3 246.2 L643.7 246.2 L640.1 246.2 L640.1 250.6 L643.7 250.6 Z" fill="#2f8f83" fill-opacity="0.34" stroke="#0e5b52" stroke-width="1.6" />
  <path d="M643.7 246.2 L647.3 246.2 L650.9 246.2 L654.5 246.2 L658.1 246.2 L658.1 241.8 L654.5 241.8 L650.9 241.8 L647.3 241.8 L643.7 241.8 L640.1 241.8 L640.1 246.2 L643.7 246.2 Z" fill="#2f8f83" fill-opacity="0.34" stroke="#0e5b52" stroke-width="1.6" />
  <path d="M597.0 373.4 L597.0 377.7 L600.6 377.7 L604.2 377.7 L607.8 377.7 L611.4 377.7 L615.0 377.7 L618.5 377.7 L622.1 377.7 L625.7 377.7 L629.3 377.7 L629.3 373.4 L629.3 369.0 L625.7 369.0 L622.1 369.0 L618.5 369.0 L615.0 369.0 L611.4 369.0 L607.8 369.0 L604.2 369.0 L600.6 369.0 L597.0 369.0 L597.0 373.4 Z" fill="#2f8f83" fill-opacity="0.34" stroke="#0e5b52" stroke-width="1.6" />
  <path d="M597.0 364.6 L597.0 369.0 L600.6 369.0 L604.2 369.0 L607.8 369.0 L611.4 369.0 L615.0 369.0 L618.5 369.0 L622.1 369.0 L625.7 369.0 L629.3 369.0 L629.3 364.6 L629.3 360.2 L629.3 355.8 L625.7 355.8 L622.1 355.8 L618.5 355.8 L615.0 355.8 L611.4 355.8 L607.8 355.8 L604.2 355.8 L600.6 355.8 L597.0 355.8 L597.0 360.2 L597.0 364.6 Z" fill="#2f8f83" fill-opacity="0.34" stroke="#0e5b52" stroke-width="1.6" />
  <path d="M597.0 351.5 L597.0 355.8 L600.6 355.8 L604.2 355.8 L607.8 355.8 L611.4 355.8 L615.0 355.8 L618.5 355.8 L622.1 355.8 L625.7 355.8 L625.7 351.5 L625.7 347.1 L625.7 342.7 L622.1 342.7 L618.5 342.7 L615.0 342.7 L611.4 342.7 L607.8 342.7 L604.2 342.7 L600.6 342.7 L597.0 342.7 L597.0 347.1 L597.0 351.5 Z" fill="#2f8f83" fill-opacity="0.34" stroke="#0e5b52" stroke-width="1.6" />
  <path d="M625.7 351.5 L625.7 355.8 L629.3 355.8 L629.3 351.5 L629.3 347.1 L629.3 342.7 L629.3 338.3 L629.3 333.9 L629.3 329.6 L629.3 325.2 L629.3 320.8 L629.3 316.4 L625.7 316.4 L625.7 320.8 L625.7 325.2 L625.7 329.6 L625.7 333.9 L625.7 338.3 L625.7 342.7 L625.7 347.1 L625.7 351.5 Z" fill="#2f8f83" fill-opacity="0.34" stroke="#0e5b52" stroke-width="1.6" />
  <path d="M654.5 294.5 L654.5 298.9 L658.1 298.9 L658.1 294.5 L661.7 294.5 L661.7 290.1 L661.7 285.7 L661.7 281.3 L661.7 276.9 L661.7 272.6 L661.7 268.2 L658.1 268.2 L654.5 268.2 L654.5 272.6 L654.5 276.9 L654.5 281.3 L654.5 285.7 L654.5 290.1 L654.5 294.5 Z" fill="#2f8f83" fill-opacity="0.34" stroke="#0e5b52" stroke-width="1.6" />
  <path d="M629.3 373.4 L629.3 377.7 L632.9 377.7 L636.5 377.7 L636.5 373.4 L636.5 369.0 L636.5 364.6 L636.5 360.2 L636.5 355.8 L636.5 351.5 L636.5 347.1 L636.5 342.7 L636.5 338.3 L636.5 333.9 L636.5 329.6 L636.5 325.2 L636.5 320.8 L636.5 316.4 L632.9 316.4 L629.3 316.4 L629.3 320.8 L629.3 325.2 L629.3 329.6 L629.3 333.9 L629.3 338.3 L629.3 342.7 L629.3 347.1 L629.3 351.5 L629.3 355.8 L629.3 360.2 L629.3 364.6 L629.3 369.0 L629.3 373.4 Z" fill="#2f8f83" fill-opacity="0.34" stroke="#0e5b52" stroke-width="1.6" />
  <path d="M632.9 312.0 L632.9 316.4 L636.5 316.4 L640.1 316.4 L643.7 316.4 L647.3 316.4 L650.9 316.4 L654.5 316.4 L654.5 312.0 L654.5 307.6 L650.9 307.6 L647.3 307.6 L643.7 307.6 L640.1 307.6 L636.5 307.6 L632.9 307.6 L632.9 312.0 Z" fill="#2f8f83" fill-opacity="0.34" stroke="#0e5b52" stroke-width="1.6" />
  <path d="M636.5 246.2 L636.5 241.8 L632.9 241.8 L632.9 246.2 L636.5 246.2 Z" fill="#2f8f83" fill-opacity="0.34" stroke="#0e5b52" stroke-width="1.6" />
  <path d="M615.0 123.1 L615.0 118.7 L611.4 118.7 L611.4 123.1 L615.0 123.1 Z" fill="#2f8f83" fill-opacity="0.34" stroke="#0e5b52" stroke-width="1.6" />
  <path d="M600.6 237.4 L604.2 237.4 L607.8 237.4 L611.4 237.4 L615.0 237.4 L615.0 233.0 L615.0 228.6 L615.0 224.3 L611.4 224.3 L607.8 224.3 L607.8 228.6 L604.2 228.6 L604.2 233.0 L600.6 233.0 L597.0 233.0 L597.0 237.4 L600.6 237.4 Z" fill="#2f8f83" fill-opacity="0.34" stroke="#0e5b52" stroke-width="1.6" />
  <path d="M586.2 233.0 L586.2 237.4 L589.8 237.4 L593.4 237.4 L597.0 237.4 L597.0 233.0 L600.6 233.0 L604.2 233.0 L604.2 228.6 L607.8 228.6 L607.8 224.3 L604.2 224.3 L600.6 224.3 L597.0 224.3 L593.4 224.3 L589.8 224.3 L586.2 224.3 L586.2 228.6 L586.2 233.0 Z" fill="#2f8f83" fill-opacity="0.34" stroke="#0e5b52" stroke-width="1.6" />
  <path d="M474.9 456.4 L474.9 452.1 L471.3 452.1 L471.3 456.4 L474.9 456.4 Z" fill="#2f8f83" fill-opacity="0.34" stroke="#0e5b52" stroke-width="1.6" />
  <path d="M532.3 250.6 L532.3 255.0 L535.9 255.0 L539.5 255.0 L543.1 255.0 L543.1 250.6 L543.1 246.2 L546.7 246.2 L550.3 246.2 L550.3 241.8 L550.3 237.4 L550.3 233.0 L546.7 233.0 L543.1 233.0 L539.5 233.0 L539.5 237.4 L535.9 237.4 L535.9 241.8 L532.3 241.8 L532.3 246.2 L532.3 250.6 Z" fill="#2f8f83" fill-opacity="0.34" stroke="#0e5b52" stroke-width="1.6" />
  <!-- title strip -->
  <rect x="0" y="0" width="1000" height="54" fill="#173042" />
  <text x="20" y="34" font-size="21" font-weight="bold" fill="#ffffff">Enduro Metals Corporation — Mineral Claims</text>
  <text x="980" y="34" font-size="15" fill="#cfe3df" text-anchor="end">ENDR</text>
  <!-- scale bar -->
  <g transform="translate(771.0209482359983, 596)">
    <rect x="0" y="0" width="94.48952588200089" height="8" fill="#173042" />
    <rect x="94.48952588200089" y="0" width="94.48952588200089" height="8" fill="#ffffff" stroke="#173042" stroke-width="1" />
    <text x="94.48952588200089" y="-6" font-size="12" fill="#173042" text-anchor="middle">20 km</text>
  </g>
  <!-- north arrow -->
  <g transform="translate(956, 92)">
    <circle r="17" fill="#ffffff" stroke="#b9b09a" />
    <path d="M0 -10 L5 7 L0 3 L-5 7 Z" fill="#173042" />
    <text y="14" font-size="9" font-weight="bold" fill="#173042" text-anchor="middle">N</text>
  </g>
  <!-- watermark -->
  <text x="20" y="620" font-size="13" fill="#7d8b8a">Map by Exploration Maps — explorationmaps.com</text>
</svg>