<svg xmlns="http://www.w3.org/2000/svg" viewBox="0 0 1000 640" font-family="Arial, Helvetica, sans-serif">
  <rect width="1000" height="640" fill="#f3efe6" />
  <line x1="200" y1="0" x2="200" y2="640" stroke="#d9d2c0" stroke-width="0.7" />
  <line x1="0" y1="128" x2="1000" y2="128" stroke="#d9d2c0" stroke-width="0.7" />
  <line x1="400" y1="0" x2="400" y2="640" stroke="#d9d2c0" stroke-width="0.7" />
  <line x1="0" y1="256" x2="1000" y2="256" stroke="#d9d2c0" stroke-width="0.7" />
  <line x1="600" y1="0" x2="600" y2="640" stroke="#d9d2c0" stroke-width="0.7" />
  <line x1="0" y1="384" x2="1000" y2="384" stroke="#d9d2c0" stroke-width="0.7" />
  <line x1="800" y1="0" x2="800" y2="640" stroke="#d9d2c0" stroke-width="0.7" />
  <line x1="0" y1="512" x2="1000" y2="512" stroke="#d9d2c0" stroke-width="0.7" />
  <path d="M521.9 471.2 L504.0 471.2 L504.0 496.1 L521.9 496.1 L523.8 496.1 L523.8 471.2 L521.9 471.2 Z" fill="#2f8f83" fill-opacity="0.34" stroke="#0e5b52" stroke-width="1.6" />
  <path d="M504.0 459.4 L471.3 459.4 L471.3 466.1 L471.5 466.1 L481.0 466.1 L481.0 469.3 L491.4 469.3 L492.3 469.3 L504.0 469.4 L504.0 459.4 Z" fill="#2f8f83" fill-opacity="0.34" stroke="#0e5b52" stroke-width="1.6" />
  <path d="M469.3 410.0 L463.0 410.0 L463.0 410.6 L468.1 410.6 L468.3 411.1 L474.1 411.0 L473.8 410.6 L484.9 410.6 L502.8 410.6 L502.8 410.0 L469.3 410.0 Z" fill="#2f8f83" fill-opacity="0.34" stroke="#0e5b52" stroke-width="1.6" />
  <path d="M543.7 471.2 L523.8 471.2 L523.8 496.1 L543.7 496.1 L543.7 495.9 L543.7 471.2 Z" fill="#2f8f83" fill-opacity="0.34" stroke="#0e5b52" stroke-width="1.6" />
  <path d="M523.8 496.1 L521.9 496.1 L504.0 496.1 L504.0 496.9 L504.0 503.2 L504.0 503.2 L504.0 503.2 L504.0 520.0 L504.0 521.0 L511.5 521.0 L519.7 521.0 L519.7 521.0 L521.9 521.0 L523.8 521.0 L523.8 503.2 L523.8 496.1 Z" fill="#2f8f83" fill-opacity="0.34" stroke="#0e5b52" stroke-width="1.6" />
  <path d="M469.3 392.3 L469.3 390.5 L467.8 390.5 L459.4 390.5 L457.8 390.5 L457.8 390.0 L449.4 390.0 L449.4 390.2 L449.4 392.3 L449.4 392.3 L449.4 400.0 L449.4 400.0 L459.4 400.0 L469.3 400.0 L469.3 392.3 Z" fill="#2f8f83" fill-opacity="0.34" stroke="#0e5b52" stroke-width="1.6" />
  <path d="M484.9 430.5 L460.0 430.6 L460.1 449.8 L460.1 450.5 L471.3 450.5 L484.9 450.5 L484.9 430.5 Z" fill="#2f8f83" fill-opacity="0.34" stroke="#0e5b52" stroke-width="1.6" />
  <path d="M517.8 343.4 L516.9 343.4 L516.9 339.3 L509.7 339.3 L509.7 350.6 L503.8 350.6 L503.8 362.4 L504.4 362.4 L517.8 362.4 L517.8 362.4 L517.8 343.4 Z" fill="#2f8f83" fill-opacity="0.34" stroke="#0e5b52" stroke-width="1.6" />
  <path d="M507.6 380.5 L467.8 380.5 L467.8 390.5 L469.3 390.5 L507.6 390.5 L507.6 382.0 L507.6 380.5 Z" fill="#2f8f83" fill-opacity="0.34" stroke="#0e5b52" stroke-width="1.6" />
  <path d="M506.3 400.0 L469.3 400.0 L469.3 410.0 L502.8 410.0 L503.9 410.0 L506.3 410.0 L506.3 400.0 Z" fill="#2f8f83" fill-opacity="0.34" stroke="#0e5b52" stroke-width="1.6" />
  <path d="M506.3 398.6 L506.3 392.3 L506.3 392.3 L506.3 392.3 L506.3 390.5 L469.3 390.5 L469.3 392.3 L469.3 400.0 L506.3 400.0 L506.3 398.6 Z" fill="#2f8f83" fill-opacity="0.34" stroke="#0e5b52" stroke-width="1.6" />
  <path d="M507.6 370.5 L503.8 370.5 L502.6 370.5 L467.8 370.5 L467.8 370.5 L467.8 380.5 L507.6 380.5 L507.6 370.5 Z" fill="#2f8f83" fill-opacity="0.34" stroke="#0e5b52" stroke-width="1.6" />
  <path d="M484.9 450.5 L471.3 450.5 L471.3 459.4 L504.0 459.4 L504.0 450.5 L484.9 450.5 Z" fill="#2f8f83" fill-opacity="0.34" stroke="#0e5b52" stroke-width="1.6" />
  <path d="M517.9 373.6 L517.9 367.9 L517.8 362.4 L517.8 362.4 L517.8 362.4 L504.4 362.4 L503.8 362.4 L503.8 370.5 L507.6 370.5 L507.6 380.5 L507.6 382.0 L517.9 382.0 L517.9 373.6 Z" fill="#2f8f83" fill-opacity="0.34" stroke="#0e5b52" stroke-width="1.6" />
  <path d="M460.0 410.6 L460.0 410.6 L460.0 424.0 L460.0 430.6 L484.9 430.5 L484.9 410.6 L473.8 410.6 L474.1 411.0 L468.3 411.1 L468.1 410.6 L463.0 410.6 L460.0 410.6 Z" fill="#2f8f83" fill-opacity="0.34" stroke="#0e5b52" stroke-width="1.6" />
  <path d="M506.3 410.6 L503.9 410.6 L502.8 410.6 L484.9 410.6 L484.9 430.5 L504.0 430.6 L504.0 421.4 L506.3 421.4 L506.3 410.6 Z" fill="#2f8f83" fill-opacity="0.34" stroke="#0e5b52" stroke-width="1.6" />
  <path d="M457.8 380.5 L457.8 370.5 L457.8 370.5 L454.0 370.5 L434.1 370.5 L434.1 370.5 L434.1 390.2 L449.4 390.2 L449.4 390.2 L449.4 390.0 L457.8 390.0 L457.8 380.5 Z" fill="#2f8f83" fill-opacity="0.34" stroke="#0e5b52" stroke-width="1.6" />
  <path d="M543.7 446.3 L523.8 446.3 L523.8 471.2 L543.7 471.2 L543.7 471.0 L543.7 446.3 Z" fill="#2f8f83" fill-opacity="0.34" stroke="#0e5b52" stroke-width="1.6" />
  <path d="M523.8 446.3 L521.9 446.3 L504.0 446.3 L504.0 450.5 L504.0 459.4 L504.0 469.4 L504.0 471.2 L521.9 471.2 L523.8 471.2 L523.8 446.3 Z" fill="#2f8f83" fill-opacity="0.34" stroke="#0e5b52" stroke-width="1.6" />
  <path d="M543.7 446.1 L543.7 435.0 L543.7 421.4 L543.7 421.4 L543.7 421.4 L523.8 421.4 L523.8 446.3 L543.7 446.3 L543.7 446.1 Z" fill="#2f8f83" fill-opacity="0.34" stroke="#0e5b52" stroke-width="1.6" />
  <path d="M506.3 421.4 L504.0 421.4 L504.0 430.6 L504.0 446.3 L521.9 446.3 L523.8 446.3 L523.8 421.4 L523.8 421.4 L521.9 421.4 L506.3 421.4 Z" fill="#2f8f83" fill-opacity="0.34" stroke="#0e5b52" stroke-width="1.6" />
  <path d="M467.8 370.5 L467.8 370.5 L465.3 370.5 L462.8 370.5 L459.4 370.5 L459.2 370.5 L457.8 370.5 L457.8 370.5 L457.8 380.5 L459.4 380.5 L467.8 380.5 L467.8 370.5 Z" fill="#2f8f83" fill-opacity="0.34" stroke="#0e5b52" stroke-width="1.6" />
  <path d="M469.3 400.0 L459.4 400.0 L449.4 400.0 L449.4 400.0 L449.4 405.2 L449.4 410.0 L459.4 410.0 L460.0 410.0 L463.0 410.0 L469.3 410.0 L469.3 400.0 Z" fill="#2f8f83" fill-opacity="0.34" stroke="#0e5b52" stroke-width="1.6" />
  <path d="M449.4 400.0 L449.4 392.3 L449.4 390.2 L449.4 390.2 L434.1 390.2 L434.1 390.2 L419.5 390.2 L419.5 391.2 L419.5 392.3 L419.5 393.0 L419.5 405.2 L420.1 405.2 L420.1 405.2 L438.6 405.2 L449.4 405.2 L449.4 400.0 Z" fill="#2f8f83" fill-opacity="0.34" stroke="#0e5b52" stroke-width="1.6" />
  <path d="M547.5 521.9 L551.3 521.9 L555.2 521.9 L559.0 521.9 L559.0 517.3 L555.2 517.3 L551.3 517.3 L547.5 517.3 L543.7 517.3 L543.7 521.9 L547.5 521.9 Z" fill="#2f8f83" fill-opacity="0.34" stroke="#0e5b52" stroke-width="1.6" />
  <path d="M451.7 360.1 L455.6 360.1 L455.6 364.7 L459.4 364.7 L463.2 364.7 L463.2 360.1 L463.2 355.5 L463.2 350.9 L463.2 346.2 L459.4 346.2 L455.6 346.2 L455.6 350.9 L451.7 350.9 L451.7 355.5 L451.7 360.1 Z" fill="#2f8f83" fill-opacity="0.34" stroke="#0e5b52" stroke-width="1.6" />
  <path d="M547.5 512.6 L547.5 517.3 L551.3 517.3 L555.2 517.3 L559.0 517.3 L562.8 517.3 L566.6 517.3 L570.5 517.3 L570.5 512.6 L570.5 508.0 L570.5 503.4 L570.5 498.8 L566.6 498.8 L562.8 498.8 L559.0 498.8 L555.2 498.8 L551.3 498.8 L547.5 498.8 L547.5 503.4 L547.5 508.0 L547.5 512.6 Z" fill="#2f8f83" fill-opacity="0.34" stroke="#0e5b52" stroke-width="1.6" />
  <path d="M570.5 512.6 L570.5 517.3 L574.3 517.3 L578.1 517.3 L582.0 517.3 L585.8 517.3 L589.6 517.3 L589.6 512.6 L589.6 508.0 L589.6 503.4 L589.6 498.8 L585.8 498.8 L582.0 498.8 L578.1 498.8 L574.3 498.8 L570.5 498.8 L570.5 503.4 L570.5 508.0 L570.5 512.6 Z" fill="#2f8f83" fill-opacity="0.34" stroke="#0e5b52" stroke-width="1.6" />
  <path d="M463.2 350.9 L463.2 355.5 L467.1 355.5 L470.9 355.5 L474.7 355.5 L478.5 355.5 L482.4 355.5 L486.2 355.5 L490.0 355.5 L493.9 355.5 L497.7 355.5 L497.7 350.9 L497.7 346.2 L493.9 346.2 L490.0 346.2 L486.2 346.2 L482.4 346.2 L478.5 346.2 L474.7 346.2 L470.9 346.2 L467.1 346.2 L463.2 346.2 L463.2 350.9 Z" fill="#2f8f83" fill-opacity="0.34" stroke="#0e5b52" stroke-width="1.6" />
  <path d="M497.7 350.9 L497.7 355.5 L501.5 355.5 L501.5 360.1 L501.5 364.7 L501.5 369.4 L501.5 374.0 L505.4 374.0 L505.4 369.4 L505.4 364.7 L505.4 360.1 L505.4 355.5 L505.4 350.9 L501.5 350.9 L501.5 346.2 L497.7 346.2 L497.7 350.9 Z" fill="#2f8f83" fill-opacity="0.34" stroke="#0e5b52" stroke-width="1.6" />
  <path d="M417.3 392.5 L417.3 397.1 L421.1 397.1 L421.1 392.5 L421.1 387.9 L417.3 387.9 L413.4 387.9 L413.4 392.5 L417.3 392.5 Z" fill="#2f8f83" fill-opacity="0.34" stroke="#0e5b52" stroke-width="1.6" />
  <path d="M463.2 411.0 L463.2 406.4 L459.4 406.4 L459.4 411.0 L463.2 411.0 Z" fill="#2f8f83" fill-opacity="0.34" stroke="#0e5b52" stroke-width="1.6" />
  <path d="M462.8 360.5 L459.4 360.5 L454.0 360.5 L454.0 370.5 L454.0 370.5 L457.8 370.5 L459.2 370.5 L459.4 370.5 L462.8 370.5 L462.8 360.5 Z" fill="#2f8f83" fill-opacity="0.34" stroke="#0e5b52" stroke-width="1.6" />
  <path d="M504.0 430.6 L484.9 430.5 L484.9 450.5 L504.0 450.5 L504.0 446.3 L504.0 430.6 Z" fill="#2f8f83" fill-opacity="0.34" stroke="#0e5b52" stroke-width="1.6" />
  <path d="M543.7 496.1 L523.8 496.1 L523.8 503.2 L523.8 521.0 L539.6 521.0 L543.7 521.0 L543.7 517.6 L543.7 503.2 L543.7 496.1 Z" fill="#2f8f83" fill-opacity="0.34" stroke="#0e5b52" stroke-width="1.6" />
  <path d="M467.8 380.5 L459.4 380.5 L457.8 380.5 L457.8 390.0 L457.8 390.5 L459.4 390.5 L467.8 390.5 L467.8 380.5 Z" fill="#2f8f83" fill-opacity="0.34" stroke="#0e5b52" stroke-width="1.6" />
  <path d="M454.0 370.5 L454.0 360.5 L454.0 350.5 L434.1 350.6 L434.1 350.6 L434.1 366.2 L434.1 366.2 L434.1 370.5 L434.1 370.5 L454.0 370.5 L454.0 370.5 Z" fill="#2f8f83" fill-opacity="0.34" stroke="#0e5b52" stroke-width="1.6" />
  <path d="M509.7 339.3 L507.8 339.3 L507.8 335.2 L507.7 326.0 L489.8 326.0 L489.8 350.5 L502.7 350.6 L502.7 350.6 L503.8 350.6 L509.7 350.6 L509.7 339.3 Z" fill="#2f8f83" fill-opacity="0.34" stroke="#0e5b52" stroke-width="1.6" />
  <path d="M527.7 319.3 L521.9 319.3 L509.5 319.3 L509.5 324.2 L509.5 325.1 L507.7 325.1 L507.7 325.1 L507.8 335.2 L507.8 339.3 L507.8 339.3 L516.9 339.3 L521.9 339.3 L526.7 339.3 L527.7 339.3 L527.7 319.3 Z" fill="#2f8f83" fill-opacity="0.34" stroke="#0e5b52" stroke-width="1.6" />
  <path d="M547.6 318.4 L547.6 314.7 L547.6 294.8 L547.6 294.3 L531.2 294.3 L531.1 294.3 L527.7 294.3 L527.7 294.3 L527.7 319.3 L546.6 319.3 L547.6 319.3 L547.6 318.4 Z" fill="#2f8f83" fill-opacity="0.34" stroke="#0e5b52" stroke-width="1.6" />
  <path d="M527.7 294.3 L527.7 294.3 L521.9 294.3 L511.2 294.3 L507.7 294.3 L507.7 294.3 L507.7 296.6 L507.7 300.1 L509.5 300.1 L509.5 319.3 L521.9 319.3 L527.7 319.3 L527.7 294.3 Z" fill="#2f8f83" fill-opacity="0.34" stroke="#0e5b52" stroke-width="1.6" />
  <path d="M511.2 294.3 L521.9 294.3 L527.7 294.3 L531.1 294.3 L531.1 274.3 L512.1 274.3 L511.2 274.3 L511.2 294.3 Z" fill="#2f8f83" fill-opacity="0.34" stroke="#0e5b52" stroke-width="1.6" />
  <path d="M551.2 281.1 L549.6 281.1 L549.6 274.8 L531.2 274.8 L531.2 281.1 L531.2 281.1 L531.2 294.3 L547.6 294.3 L547.6 294.8 L549.6 294.8 L550.0 294.8 L550.0 294.7 L550.0 294.7 L550.0 292.6 L551.2 292.6 L551.2 281.1 Z" fill="#2f8f83" fill-opacity="0.34" stroke="#0e5b52" stroke-width="1.6" />
  <path d="M537.8 362.6 L537.8 343.9 L537.8 343.0 L526.7 343.0 L521.9 343.0 L517.8 343.0 L517.8 343.4 L517.8 362.4 L517.8 362.4 L517.8 362.4 L517.8 367.9 L517.8 367.9 L517.9 367.9 L521.9 367.9 L536.3 367.9 L537.8 367.9 L537.8 362.6 Z" fill="#2f8f83" fill-opacity="0.34" stroke="#0e5b52" stroke-width="1.6" />
  <path d="M569.1 246.0 L539.1 246.0 L539.1 261.0 L540.2 261.0 L546.2 261.0 L569.1 261.0 L569.1 260.6 L569.1 258.2 L569.1 254.3 L569.1 246.0 Z" fill="#2f8f83" fill-opacity="0.34" stroke="#0e5b52" stroke-width="1.6" />
  <path d="M540.2 231.0 L539.1 231.0 L539.1 246.0 L569.1 246.0 L569.1 231.0 L565.3 231.0 L540.2 231.0 Z" fill="#2f8f83" fill-opacity="0.34" stroke="#0e5b52" stroke-width="1.6" />
  <path d="M507.7 325.1 L507.7 325.1 L494.6 325.1 L489.6 325.1 L489.6 320.1 L489.6 315.1 L489.6 301.3 L487.8 301.3 L487.8 325.9 L487.8 326.0 L507.7 326.0 L507.7 325.1 Z" fill="#2f8f83" fill-opacity="0.34" stroke="#0e5b52" stroke-width="1.6" />
  <path d="M532.1 251.6 L530.2 251.6 L530.2 251.6 L530.2 253.7 L521.9 253.7 L512.1 253.7 L512.1 253.7 L512.1 271.6 L521.9 271.6 L529.4 271.6 L529.4 270.6 L529.4 265.1 L532.1 265.0 L532.1 251.6 Z" fill="#2f8f83" fill-opacity="0.34" stroke="#0e5b52" stroke-width="1.6" />
  <path d="M530.2 251.6 L530.2 229.4 L521.9 229.4 L511.2 229.4 L510.2 229.4 L510.2 229.4 L510.2 251.6 L510.2 253.7 L512.1 253.7 L512.1 253.7 L521.9 253.7 L530.2 253.7 L530.2 251.6 Z" fill="#2f8f83" fill-opacity="0.34" stroke="#0e5b52" stroke-width="1.6" />
  <path d="M544.1 203.9 L530.8 203.9 L530.8 204.4 L530.8 208.9 L529.1 208.9 L529.2 228.7 L530.2 228.7 L530.3 229.0 L544.1 228.9 L544.1 203.9 Z" fill="#2f8f83" fill-opacity="0.34" stroke="#0e5b52" stroke-width="1.6" />
  <path d="M545.6 203.9 L544.1 203.9 L544.1 228.9 L560.4 229.0 L564.1 229.0 L564.1 204.2 L564.1 203.9 L545.6 203.9 Z" fill="#2f8f83" fill-opacity="0.34" stroke="#0e5b52" stroke-width="1.6" />
  <path d="M540.2 229.0 L531.2 229.0 L531.2 229.4 L530.2 229.4 L530.2 251.6 L532.1 251.6 L532.1 265.0 L540.2 265.1 L540.2 261.0 L539.1 261.0 L539.1 246.0 L539.1 231.0 L540.2 231.0 L540.2 229.0 Z" fill="#2f8f83" fill-opacity="0.34" stroke="#0e5b52" stroke-width="1.6" />
  <path d="M512.1 253.7 L512.1 253.7 L510.2 253.7 L510.2 251.6 L509.5 251.6 L509.5 253.9 L508.3 253.9 L508.3 253.9 L508.3 254.1 L492.1 254.1 L492.1 258.4 L492.1 263.4 L492.1 271.6 L512.1 271.6 L512.1 253.7 Z" fill="#2f8f83" fill-opacity="0.34" stroke="#0e5b52" stroke-width="1.6" />
  <path d="M512.1 271.6 L492.1 271.6 L492.1 273.4 L492.1 274.8 L492.1 274.9 L492.1 277.9 L492.1 279.8 L492.1 281.1 L492.1 281.1 L492.1 282.9 L492.1 284.8 L492.1 289.8 L492.1 294.8 L492.1 296.6 L494.0 296.6 L507.6 296.6 L507.7 296.6 L507.7 294.3 L507.7 294.3 L507.7 294.3 L507.7 294.3 L507.7 294.3 L507.7 294.3 L507.7 281.1 L507.7 281.1 L507.7 281.1 L507.7 276.2 L511.2 276.2 L511.2 274.3 L511.2 274.3 L512.1 274.3 L512.1 271.6 Z" fill="#2f8f83" fill-opacity="0.34" stroke="#0e5b52" stroke-width="1.6" />
  <path d="M436.4 296.1 L433.0 296.1 L433.0 301.1 L435.3 301.1 L436.4 301.1 L436.4 296.1 Z" fill="#2f8f83" fill-opacity="0.34" stroke="#0e5b52" stroke-width="1.6" />
  <path d="M433.0 296.1 L430.6 296.1 L430.6 301.1 L433.0 301.1 L433.0 296.1 Z" fill="#2f8f83" fill-opacity="0.34" stroke="#0e5b52" stroke-width="1.6" />
  <path d="M436.4 286.1 L433.0 286.1 L433.0 291.1 L436.4 291.1 L436.4 286.1 Z" fill="#2f8f83" fill-opacity="0.34" stroke="#0e5b52" stroke-width="1.6" />
  <path d="M436.5 281.1 L433.0 281.1 L433.0 286.1 L436.4 286.1 L436.5 281.1 Z" fill="#2f8f83" fill-opacity="0.34" stroke="#0e5b52" stroke-width="1.6" />
  <path d="M436.5 276.1 L433.0 276.1 L433.0 281.1 L433.0 281.1 L436.5 281.1 L436.5 281.1 L436.5 276.4 L436.5 276.4 L436.5 276.1 Z" fill="#2f8f83" fill-opacity="0.34" stroke="#0e5b52" stroke-width="1.6" />
  <path d="M511.2 281.1 L511.2 276.2 L507.7 276.2 L507.7 281.1 L507.7 281.1 L507.7 281.1 L507.7 294.3 L507.7 294.3 L507.7 294.3 L507.7 294.3 L511.2 294.3 L511.2 294.3 L511.2 281.1 Z" fill="#2f8f83" fill-opacity="0.34" stroke="#0e5b52" stroke-width="1.6" />
  <path d="M612.6 204.2 L597.9 204.2 L597.9 204.2 L597.9 223.9 L600.3 223.9 L606.3 223.9 L606.3 221.6 L612.6 221.6 L612.6 221.2 L613.7 221.2 L621.1 221.2 L621.1 220.5 L613.7 220.5 L612.6 220.5 L612.6 215.6 L612.6 209.2 L612.6 204.2 Z" fill="#2f8f83" fill-opacity="0.34" stroke="#0e5b52" stroke-width="1.6" />
  <path d="M494.0 299.2 L494.0 299.8 L493.2 299.8 L492.7 299.5 L492.6 299.8 L490.4 299.8 L490.4 315.1 L494.6 315.1 L494.6 320.1 L494.6 324.2 L504.5 324.2 L509.5 324.2 L509.5 324.2 L509.5 319.3 L509.5 310.1 L509.5 300.1 L507.7 300.1 L507.7 299.2 L494.0 299.2 Z" fill="#2f8f83" fill-opacity="0.34" stroke="#0e5b52" stroke-width="1.6" />
  <path d="M507.6 296.6 L494.0 296.6 L494.0 299.2 L507.7 299.2 L507.6 296.6 Z" fill="#2f8f83" fill-opacity="0.34" stroke="#0e5b52" stroke-width="1.6" />
  <path d="M494.6 324.2 L494.6 320.1 L489.6 320.1 L489.6 320.1 L489.6 325.1 L494.6 325.1 L494.6 325.1 L494.6 324.2 Z" fill="#2f8f83" fill-opacity="0.34" stroke="#0e5b52" stroke-width="1.6" />
  <path d="M494.6 315.1 L490.4 315.1 L489.6 315.1 L489.6 315.1 L489.6 320.1 L489.6 320.1 L494.6 320.1 L494.6 315.1 Z" fill="#2f8f83" fill-opacity="0.34" stroke="#0e5b52" stroke-width="1.6" />
  <path d="M469.8 326.0 L464.8 326.0 L464.8 350.5 L469.8 350.5 L469.8 326.0 L469.8 326.0 Z" fill="#2f8f83" fill-opacity="0.34" stroke="#0e5b52" stroke-width="1.6" />
  <path d="M462.8 360.5 L462.8 363.0 L501.9 363.0 L502.0 353.1 L462.8 353.0 L462.8 360.5 Z" fill="#2f8f83" fill-opacity="0.34" stroke="#0e5b52" stroke-width="1.6" />
  <path d="M501.9 363.0 L462.8 363.0 L462.8 370.5 L467.8 370.5 L501.9 370.5 L501.9 363.0 Z" fill="#2f8f83" fill-opacity="0.34" stroke="#0e5b52" stroke-width="1.6" />
  <path d="M462.8 370.5 L462.1 370.5 L462.1 370.5 L462.8 370.5 Z" fill="#2f8f83" fill-opacity="0.34" stroke="#0e5b52" stroke-width="1.6" />
  <path d="M615.2 212.0 L613.7 212.0 L613.7 215.6 L613.7 220.5 L621.1 220.5 L621.1 221.2 L613.7 221.2 L613.7 230.7 L613.7 237.1 L633.7 237.0 L633.7 212.0 L615.2 212.0 Z" fill="#2f8f83" fill-opacity="0.34" stroke="#0e5b52" stroke-width="1.6" />
  <path d="M633.7 237.0 L613.7 237.1 L613.7 260.7 L613.7 262.1 L615.5 262.1 L633.7 262.1 L633.7 262.1 L633.7 237.0 Z" fill="#2f8f83" fill-opacity="0.34" stroke="#0e5b52" stroke-width="1.6" />
  <path d="M580.2 204.2 L564.1 204.2 L564.1 229.0 L560.4 229.0 L560.4 229.3 L565.3 229.3 L580.3 229.3 L580.3 204.2 L580.2 204.2 Z" fill="#2f8f83" fill-opacity="0.34" stroke="#0e5b52" stroke-width="1.6" />
  <path d="M597.9 204.2 L580.3 204.2 L580.3 229.3 L600.3 229.3 L600.3 223.9 L597.9 223.9 L597.9 204.2 Z" fill="#2f8f83" fill-opacity="0.34" stroke="#0e5b52" stroke-width="1.6" />
  <path d="M580.3 229.3 L565.3 229.3 L565.3 231.0 L569.1 231.0 L569.1 246.0 L569.1 254.3 L580.3 254.3 L580.3 229.3 Z" fill="#2f8f83" fill-opacity="0.34" stroke="#0e5b52" stroke-width="1.6" />
  <path d="M600.3 229.3 L580.3 229.3 L580.3 254.3 L590.5 254.3 L599.7 254.3 L600.3 254.3 L600.3 230.7 L600.3 229.3 Z" fill="#2f8f83" fill-opacity="0.34" stroke="#0e5b52" stroke-width="1.6" />
  <path d="M546.2 261.0 L540.2 261.0 L540.2 265.1 L532.1 265.0 L529.4 265.1 L529.4 270.6 L546.2 270.6 L546.2 261.0 Z" fill="#2f8f83" fill-opacity="0.34" stroke="#0e5b52" stroke-width="1.6" />
  <path d="M569.1 260.6 L569.1 261.0 L546.2 261.0 L546.2 270.6 L571.1 270.6 L571.1 260.6 L569.1 260.6 Z" fill="#2f8f83" fill-opacity="0.34" stroke="#0e5b52" stroke-width="1.6" />
  <path d="M521.9 271.6 L512.1 271.6 L512.1 274.3 L521.9 274.3 L531.1 274.3 L531.1 274.8 L531.2 274.8 L546.2 274.8 L546.2 270.6 L529.4 270.6 L529.4 271.6 L521.9 271.6 Z" fill="#2f8f83" fill-opacity="0.34" stroke="#0e5b52" stroke-width="1.6" />
  <path d="M571.1 270.6 L546.2 270.6 L546.2 274.8 L551.2 274.8 L551.2 275.6 L565.6 275.6 L571.1 275.7 L571.1 270.6 Z" fill="#2f8f83" fill-opacity="0.34" stroke="#0e5b52" stroke-width="1.6" />
  <path d="M459.9 318.6 L456.5 318.6 L456.6 321.2 L455.2 321.2 L455.2 325.1 L459.4 325.1 L459.9 325.1 L459.9 318.6 Z" fill="#2f8f83" fill-opacity="0.34" stroke="#0e5b52" stroke-width="1.6" />
  <path d="M432.3 315.5 L425.3 315.5 L425.3 320.5 L425.3 325.5 L426.2 325.5 L426.2 325.1 L430.5 325.1 L446.2 325.1 L455.2 325.1 L455.2 321.2 L452.2 321.2 L432.3 321.2 L432.3 315.5 Z" fill="#2f8f83" fill-opacity="0.34" stroke="#0e5b52" stroke-width="1.6" />
  <path d="M421.0 295.5 L413.5 295.5 L413.5 317.8 L413.5 320.2 L413.5 320.5 L425.3 320.5 L425.3 315.5 L432.3 315.5 L432.2 301.1 L430.6 301.1 L430.6 296.1 L428.0 296.1 L428.0 295.5 L421.0 295.5 Z" fill="#2f8f83" fill-opacity="0.34" stroke="#0e5b52" stroke-width="1.6" />
  <path d="M413.5 320.2 L411.9 320.2 L411.9 337.8 L411.9 345.2 L426.3 345.2 L426.2 325.5 L425.3 325.5 L425.3 320.5 L413.5 320.5 L413.5 320.2 Z" fill="#2f8f83" fill-opacity="0.34" stroke="#0e5b52" stroke-width="1.6" />
  <path d="M426.3 345.2 L412.2 345.2 L412.2 367.7 L412.2 368.0 L412.2 370.2 L414.1 370.2 L432.1 370.2 L432.1 366.2 L432.1 350.0 L426.3 350.0 L426.3 345.2 Z" fill="#2f8f83" fill-opacity="0.34" stroke="#0e5b52" stroke-width="1.6" />
  <path d="M523.8 373.6 L521.9 373.6 L517.9 373.6 L517.9 382.0 L507.6 382.0 L507.6 390.5 L506.3 390.5 L506.3 392.3 L506.3 392.3 L506.3 392.3 L506.3 398.6 L521.9 398.5 L523.8 398.5 L523.8 392.3 L523.8 373.6 Z" fill="#2f8f83" fill-opacity="0.34" stroke="#0e5b52" stroke-width="1.6" />
  <path d="M543.7 398.6 L543.7 396.3 L543.7 377.6 L543.8 373.6 L536.3 373.6 L523.8 373.6 L523.8 392.3 L523.8 398.5 L528.7 398.5 L533.8 398.5 L543.7 398.6 Z" fill="#2f8f83" fill-opacity="0.34" stroke="#0e5b52" stroke-width="1.6" />
  <path d="M523.8 398.5 L521.9 398.5 L506.3 398.6 L506.3 400.0 L506.3 410.0 L503.9 409.9 L503.9 410.0 L503.9 410.6 L503.9 410.7 L506.3 410.6 L506.3 421.4 L521.9 421.4 L521.9 421.4 L523.8 421.4 L523.8 398.5 Z" fill="#2f8f83" fill-opacity="0.34" stroke="#0e5b52" stroke-width="1.6" />
  <path d="M543.7 420.8 L543.7 420.7 L543.7 398.6 L533.8 398.5 L528.7 398.5 L523.8 398.5 L523.8 421.4 L523.8 421.4 L543.7 421.4 L543.7 421.4 L543.7 420.8 Z" fill="#2f8f83" fill-opacity="0.34" stroke="#0e5b52" stroke-width="1.6" />
  <path d="M550.9 446.1 L543.7 446.1 L543.7 446.3 L543.7 471.0 L562.5 471.0 L562.5 446.1 L550.9 446.1 Z" fill="#2f8f83" fill-opacity="0.34" stroke="#0e5b52" stroke-width="1.6" />
  <path d="M580.7 446.1 L562.5 446.1 L562.5 471.0 L582.4 471.0 L582.4 454.6 L581.4 454.6 L581.4 446.1 L580.7 446.1 Z" fill="#2f8f83" fill-opacity="0.34" stroke="#0e5b52" stroke-width="1.6" />
  <path d="M562.5 471.0 L543.7 471.0 L543.7 471.2 L543.7 495.9 L562.5 495.9 L562.5 471.0 Z" fill="#2f8f83" fill-opacity="0.34" stroke="#0e5b52" stroke-width="1.6" />
  <path d="M582.4 471.0 L562.5 471.0 L562.5 495.9 L582.4 495.9 L582.4 471.0 Z" fill="#2f8f83" fill-opacity="0.34" stroke="#0e5b52" stroke-width="1.6" />
  <path d="M434.1 366.2 L432.1 366.2 L432.1 370.2 L414.1 370.2 L414.2 391.2 L415.1 391.2 L419.5 391.2 L419.5 390.2 L434.1 390.2 L434.1 366.2 L434.1 366.2 Z" fill="#2f8f83" fill-opacity="0.34" stroke="#0e5b52" stroke-width="1.6" />
  <path d="M434.1 350.6 L434.1 350.0 L432.1 350.0 L432.1 366.2 L434.1 366.2 L434.1 350.6 Z" fill="#2f8f83" fill-opacity="0.34" stroke="#0e5b52" stroke-width="1.6" />
  <path d="M406.0 236.6 L402.2 236.6 L402.2 249.8 L406.0 249.8 L406.0 249.8 L406.0 236.6 Z" fill="#2f8f83" fill-opacity="0.34" stroke="#0e5b52" stroke-width="1.6" />
  <path d="M396.0 251.6 L396.0 289.9 L406.0 289.9 L406.0 249.8 L402.2 249.8 L402.2 251.6 L399.3 251.6 L396.0 251.6 Z" fill="#2f8f83" fill-opacity="0.34" stroke="#0e5b52" stroke-width="1.6" />
  <path d="M420.6 264.5 L406.0 264.5 L406.0 281.1 L406.0 289.9 L420.6 289.9 L420.6 281.1 L420.6 264.5 Z" fill="#2f8f83" fill-opacity="0.34" stroke="#0e5b52" stroke-width="1.6" />
  <path d="M396.0 288.6 L391.0 288.6 L391.0 292.4 L391.1 311.0 L391.1 318.6 L396.6 318.6 L398.9 318.6 L398.9 317.8 L399.3 317.8 L406.0 317.8 L406.0 289.9 L399.3 289.9 L396.0 289.9 L396.0 288.6 Z" fill="#2f8f83" fill-opacity="0.34" stroke="#0e5b52" stroke-width="1.6" />
  <path d="M420.6 289.9 L406.0 289.9 L406.0 317.8 L413.5 317.8 L413.5 295.5 L421.0 295.5 L421.0 294.5 L420.6 294.5 L420.6 289.9 Z" fill="#2f8f83" fill-opacity="0.34" stroke="#0e5b52" stroke-width="1.6" />
  <path d="M406.0 317.8 L399.3 317.8 L398.9 317.8 L398.9 318.6 L398.9 327.8 L398.9 337.7 L399.3 337.7 L411.9 337.8 L411.9 320.2 L413.5 320.2 L413.5 317.8 L406.0 317.8 Z" fill="#2f8f83" fill-opacity="0.34" stroke="#0e5b52" stroke-width="1.6" />
  <path d="M399.3 367.7 L412.2 367.7 L412.2 345.2 L411.9 345.2 L411.9 337.8 L399.3 337.7 L398.9 337.7 L398.9 367.7 L399.3 367.7 Z" fill="#2f8f83" fill-opacity="0.34" stroke="#0e5b52" stroke-width="1.6" />
  <path d="M500.6 156.2 L471.7 156.2 L471.7 165.0 L470.9 165.0 L470.9 169.6 L492.8 169.6 L492.8 169.6 L492.8 171.2 L492.8 171.2 L492.8 171.2 L495.6 171.2 L495.6 169.6 L495.6 169.6 L495.6 169.6 L495.6 163.6 L500.6 163.5 L500.6 156.2 Z" fill="#2f8f83" fill-opacity="0.34" stroke="#0e5b52" stroke-width="1.6" />
  <path d="M471.7 134.9 L470.9 134.9 L470.9 140.5 L460.3 140.5 L460.3 161.4 L461.3 161.4 L470.9 161.5 L470.9 165.0 L471.7 165.0 L471.7 156.2 L471.7 134.9 Z" fill="#2f8f83" fill-opacity="0.34" stroke="#0e5b52" stroke-width="1.6" />
  <path d="M470.9 134.9 L470.9 130.4 L430.8 130.4 L430.8 137.8 L440.3 137.8 L440.3 137.2 L460.3 137.2 L460.3 140.5 L470.9 140.5 L470.9 134.9 Z" fill="#2f8f83" fill-opacity="0.34" stroke="#0e5b52" stroke-width="1.6" />
  <path d="M430.8 130.4 L404.6 130.4 L404.6 130.5 L399.8 131.5 L399.3 131.6 L394.9 132.6 L390.7 133.5 L390.7 140.5 L399.3 140.5 L401.2 140.5 L401.2 137.8 L421.3 137.8 L430.8 137.8 L430.8 130.4 Z" fill="#2f8f83" fill-opacity="0.34" stroke="#0e5b52" stroke-width="1.6" />
  <path d="M390.7 140.5 L390.7 133.5 L390.0 133.7 L387.6 134.2 L387.6 142.9 L386.5 142.9 L386.5 145.5 L399.3 145.5 L401.2 145.5 L401.2 140.5 L399.3 140.5 L390.7 140.5 Z" fill="#2f8f83" fill-opacity="0.34" stroke="#0e5b52" stroke-width="1.6" />
  <path d="M386.5 142.9 L374.3 142.9 L374.3 157.0 L399.3 157.0 L401.2 157.0 L401.2 145.5 L399.3 145.5 L386.5 145.5 L386.5 142.9 Z" fill="#2f8f83" fill-opacity="0.34" stroke="#0e5b52" stroke-width="1.6" />
  <path d="M401.2 157.0 L399.3 157.0 L374.3 157.0 L374.3 169.6 L374.3 172.0 L392.2 172.0 L392.2 171.5 L399.3 171.4 L401.2 171.4 L401.2 169.6 L401.2 162.9 L401.2 157.0 Z" fill="#2f8f83" fill-opacity="0.34" stroke="#0e5b52" stroke-width="1.6" />
  <path d="M401.2 171.4 L399.3 171.4 L392.2 171.5 L392.2 172.0 L392.2 178.3 L392.2 188.3 L392.2 188.3 L392.2 203.3 L392.2 211.5 L399.3 211.5 L402.2 211.5 L402.2 187.9 L401.2 187.9 L401.2 171.4 Z" fill="#2f8f83" fill-opacity="0.34" stroke="#0e5b52" stroke-width="1.6" />
  <path d="M402.2 211.5 L399.3 211.5 L392.2 211.5 L392.2 218.3 L392.2 218.4 L392.2 233.4 L392.2 247.8 L392.2 251.6 L396.0 251.6 L399.3 251.6 L402.2 251.6 L402.2 249.8 L402.2 236.6 L402.2 211.5 Z" fill="#2f8f83" fill-opacity="0.34" stroke="#0e5b52" stroke-width="1.6" />
  <path d="M615.2 199.2 L580.2 199.2 L580.2 204.2 L580.3 204.2 L612.6 204.2 L612.6 209.2 L615.2 209.2 L615.2 199.2 Z" fill="#2f8f83" fill-opacity="0.34" stroke="#0e5b52" stroke-width="1.6" />
  <path d="M615.2 199.2 L615.2 189.2 L580.2 189.2 L580.2 199.2 L615.2 199.2 Z" fill="#2f8f83" fill-opacity="0.34" stroke="#0e5b52" stroke-width="1.6" />
  <path d="M640.2 199.2 L640.2 189.2 L615.2 189.2 L615.2 199.2 L640.2 199.2 Z" fill="#2f8f83" fill-opacity="0.34" stroke="#0e5b52" stroke-width="1.6" />
  <path d="M640.2 199.2 L615.2 199.2 L615.2 209.2 L615.2 212.0 L633.7 212.0 L640.2 212.0 L640.2 199.2 Z" fill="#2f8f83" fill-opacity="0.34" stroke="#0e5b52" stroke-width="1.6" />
  <path d="M526.7 339.3 L521.9 339.3 L516.9 339.3 L516.9 343.4 L517.8 343.4 L517.8 343.0 L521.9 343.0 L526.7 343.0 L526.7 339.3 Z" fill="#2f8f83" fill-opacity="0.34" stroke="#0e5b52" stroke-width="1.6" />
  <path d="M546.6 319.3 L527.7 319.3 L527.7 339.3 L526.7 339.3 L526.7 343.0 L537.8 343.0 L537.8 343.9 L546.6 343.9 L546.6 342.7 L546.6 319.3 Z" fill="#2f8f83" fill-opacity="0.34" stroke="#0e5b52" stroke-width="1.6" />
  <path d="M550.1 342.7 L546.6 342.7 L546.6 343.9 L537.8 343.9 L537.8 362.6 L551.2 362.6 L551.2 342.7 L550.1 342.7 Z" fill="#2f8f83" fill-opacity="0.34" stroke="#0e5b52" stroke-width="1.6" />
  <path d="M551.2 366.4 L551.2 362.6 L537.8 362.6 L537.8 367.9 L536.3 367.9 L536.3 373.6 L543.8 373.6 L543.7 377.6 L551.2 377.6 L551.2 376.4 L551.2 366.4 Z" fill="#2f8f83" fill-opacity="0.34" stroke="#0e5b52" stroke-width="1.6" />
  <path d="M521.9 373.6 L523.8 373.6 L536.3 373.6 L536.3 367.9 L521.9 367.9 L521.9 373.6 Z" fill="#2f8f83" fill-opacity="0.34" stroke="#0e5b52" stroke-width="1.6" />
  <path d="M521.9 373.6 L521.9 368.0 L517.9 367.9 L517.8 367.9 L517.8 367.9 L517.9 373.6 L521.9 373.6 Z" fill="#2f8f83" fill-opacity="0.34" stroke="#0e5b52" stroke-width="1.6" />
  <path d="M613.7 221.2 L612.6 221.2 L612.6 221.6 L606.3 221.6 L606.3 223.9 L600.3 223.9 L600.3 229.3 L600.3 230.7 L613.7 230.7 L613.7 221.2 Z" fill="#2f8f83" fill-opacity="0.34" stroke="#0e5b52" stroke-width="1.6" />
  <path d="M613.7 215.6 L612.6 215.6 L612.6 220.5 L613.7 220.5 L613.7 215.6 Z" fill="#2f8f83" fill-opacity="0.34" stroke="#0e5b52" stroke-width="1.6" />
  <path d="M613.7 237.1 L613.7 230.7 L600.3 230.7 L600.3 254.3 L599.7 254.3 L599.7 258.2 L599.7 260.6 L599.7 260.7 L613.7 260.7 L613.7 237.1 Z" fill="#2f8f83" fill-opacity="0.34" stroke="#0e5b52" stroke-width="1.6" />
  <path d="M510.2 229.4 L510.2 229.4 L509.5 229.4 L509.5 251.6 L510.2 251.6 L510.2 229.4 Z" fill="#2f8f83" fill-opacity="0.34" stroke="#0e5b52" stroke-width="1.6" />
  <path d="M464.8 350.0 L459.4 350.0 L446.2 350.0 L434.1 350.0 L434.1 350.6 L434.1 350.6 L454.0 350.5 L462.8 350.5 L463.4 350.5 L464.8 350.5 L464.8 350.0 Z" fill="#2f8f83" fill-opacity="0.34" stroke="#0e5b52" stroke-width="1.6" />
  <path d="M452.9 226.1 L444.3 226.1 L444.3 229.2 L450.2 229.2 L450.2 229.1 L452.9 229.1 L452.9 226.1 Z" fill="#2f8f83" fill-opacity="0.34" stroke="#0e5b52" stroke-width="1.6" />
  <path d="M449.4 405.2 L438.6 405.2 L438.6 417.5 L438.6 424.9 L443.5 424.9 L443.5 424.9 L460.0 424.9 L460.0 424.0 L460.0 410.6 L460.0 410.6 L460.0 410.0 L459.4 410.0 L449.4 410.0 L449.4 405.2 Z" fill="#2f8f83" fill-opacity="0.34" stroke="#0e5b52" stroke-width="1.6" />
  <path d="M460.0 424.9 L443.5 424.9 L443.5 442.4 L443.5 449.8 L443.9 449.8 L453.8 449.8 L460.0 449.8 L460.0 424.9 Z" fill="#2f8f83" fill-opacity="0.34" stroke="#0e5b52" stroke-width="1.6" />
  <path d="M493.9 281.3 L493.9 276.7 L490.0 276.7 L490.0 281.3 L493.9 281.3 Z" fill="#2f8f83" fill-opacity="0.34" stroke="#0e5b52" stroke-width="1.6" />
  <path d="M428.7 295.2 L428.7 299.9 L432.6 299.9 L432.6 295.2 L436.4 295.2 L436.4 290.6 L432.6 290.6 L428.7 290.6 L428.7 295.2 Z" fill="#2f8f83" fill-opacity="0.34" stroke="#0e5b52" stroke-width="1.6" />
  <path d="M421.1 295.2 L421.1 299.9 L424.9 299.9 L424.9 295.2 L428.7 295.2 L428.7 290.6 L424.9 290.6 L421.1 290.6 L421.1 295.2 Z" fill="#2f8f83" fill-opacity="0.34" stroke="#0e5b52" stroke-width="1.6" />
  <path d="M432.6 290.6 L436.4 290.6 L436.4 286.0 L432.6 286.0 L428.7 286.0 L428.7 290.6 L432.6 290.6 Z" fill="#2f8f83" fill-opacity="0.34" stroke="#0e5b52" stroke-width="1.6" />
  <path d="M432.6 286.0 L436.4 286.0 L436.4 281.3 L432.6 281.3 L428.7 281.3 L428.7 286.0 L432.6 286.0 Z" fill="#2f8f83" fill-opacity="0.34" stroke="#0e5b52" stroke-width="1.6" />
  <path d="M432.6 281.3 L436.4 281.3 L436.4 276.7 L432.6 276.7 L428.7 276.7 L428.7 281.3 L432.6 281.3 Z" fill="#2f8f83" fill-opacity="0.34" stroke="#0e5b52" stroke-width="1.6" />
  <path d="M436.4 299.9 L436.4 295.2 L432.6 295.2 L432.6 299.9 L436.4 299.9 Z" fill="#2f8f83" fill-opacity="0.34" stroke="#0e5b52" stroke-width="1.6" />
  <path d="M417.3 290.6 L417.3 295.2 L421.1 295.2 L421.1 290.6 L421.1 286.0 L421.1 281.3 L421.1 276.7 L421.1 272.0 L417.3 272.0 L417.3 276.7 L417.3 281.3 L417.3 286.0 L417.3 290.6 Z" fill="#2f8f83" fill-opacity="0.34" stroke="#0e5b52" stroke-width="1.6" />
  <path d="M424.9 290.6 L428.7 290.6 L428.7 286.0 L424.9 286.0 L421.1 286.0 L421.1 290.6 L424.9 290.6 Z" fill="#2f8f83" fill-opacity="0.34" stroke="#0e5b52" stroke-width="1.6" />
  <path d="M560.4 229.0 L540.2 229.0 L540.2 231.0 L565.3 231.0 L565.3 229.3 L560.4 229.3 L560.4 229.0 Z" fill="#2f8f83" fill-opacity="0.34" stroke="#0e5b52" stroke-width="1.6" />
  <path d="M490.4 299.8 L489.0 299.8 L485.8 299.8 L485.8 301.3 L487.8 301.3 L489.6 301.3 L489.6 315.1 L489.6 315.1 L490.4 315.1 L490.4 299.8 Z" fill="#2f8f83" fill-opacity="0.34" stroke="#0e5b52" stroke-width="1.6" />
  <path d="M509.5 324.2 L509.5 324.2 L504.5 324.2 L494.6 324.2 L494.6 325.1 L494.6 325.1 L507.7 325.1 L507.7 325.1 L509.5 325.1 L509.5 324.2 Z" fill="#2f8f83" fill-opacity="0.34" stroke="#0e5b52" stroke-width="1.6" />
  <path d="M446.2 325.1 L430.5 325.1 L426.2 325.1 L426.2 325.5 L426.3 345.2 L426.3 345.2 L426.3 350.0 L432.1 350.0 L434.1 350.0 L446.2 350.0 L446.2 325.1 Z" fill="#2f8f83" fill-opacity="0.34" stroke="#0e5b52" stroke-width="1.6" />
  <path d="M455.2 325.1 L446.2 325.1 L446.2 350.0 L459.4 350.0 L464.8 350.0 L464.8 326.0 L464.8 325.1 L459.9 325.1 L459.4 325.1 L455.2 325.1 Z" fill="#2f8f83" fill-opacity="0.34" stroke="#0e5b52" stroke-width="1.6" />
  <path d="M489.8 326.0 L469.8 326.0 L469.8 350.5 L489.8 350.5 L489.8 326.0 Z" fill="#2f8f83" fill-opacity="0.34" stroke="#0e5b52" stroke-width="1.6" />
  <path d="M547.5 276.7 L547.5 281.3 L551.3 281.3 L551.3 276.7 L551.3 272.0 L547.5 272.0 L547.5 276.7 Z" fill="#2f8f83" fill-opacity="0.34" stroke="#0e5b52" stroke-width="1.6" />
  <path d="M379.0 146.6 L382.8 146.6 L386.6 146.6 L390.4 146.6 L390.4 141.9 L390.4 137.3 L394.3 137.3 L394.3 132.6 L390.4 132.6 L386.6 132.6 L386.6 137.3 L386.6 141.9 L382.8 141.9 L379.0 141.9 L375.1 141.9 L375.1 146.6 L379.0 146.6 Z" fill="#2f8f83" fill-opacity="0.34" stroke="#0e5b52" stroke-width="1.6" />
  <path d="M465.2 274.2 L465.1 274.2 L465.4 274.3 L465.5 274.2 L465.2 274.2 Z" fill="#2f8f83" fill-opacity="0.34" stroke="#0e5b52" stroke-width="1.6" />
  <path d="M462.9 280.1 L458.7 278.6 L458.7 278.6 L462.9 280.2 L462.9 280.2 L462.9 280.2 L462.9 280.1 Z" fill="#2f8f83" fill-opacity="0.34" stroke="#0e5b52" stroke-width="1.6" />
  <path d="M487.8 301.3 L485.8 301.3 L483.3 301.3 L480.8 301.3 L475.8 301.3 L472.2 301.3 L472.1 301.3 L469.8 301.3 L469.8 326.0 L487.8 326.0 L487.8 301.3 Z" fill="#2f8f83" fill-opacity="0.34" stroke="#0e5b52" stroke-width="1.6" />
  <path d="M490.5 273.4 L490.5 268.4 L490.5 266.7 L489.7 266.7 L489.6 266.7 L489.6 266.7 L489.6 266.7 L489.6 266.8 L489.6 266.9 L489.7 274.1 L488.8 274.1 L488.8 276.6 L487.8 276.6 L482.1 276.7 L470.5 276.7 L470.5 281.1 L470.5 281.1 L470.5 289.3 L470.5 291.7 L472.1 291.7 L484.0 291.7 L489.0 291.7 L490.5 291.7 L490.5 289.8 L490.5 284.8 L490.5 282.9 L490.5 281.1 L490.5 281.1 L490.5 279.8 L490.5 277.9 L490.5 274.9 L490.5 274.8 L490.5 273.4 Z" fill="#2f8f83" fill-opacity="0.34" stroke="#0e5b52" stroke-width="1.6" />
  <path d="M450.3 296.8 L450.3 281.1 L450.3 276.4 L450.3 276.4 L448.7 276.4 L440.3 276.4 L436.5 276.4 L436.5 281.1 L436.5 281.1 L436.4 286.1 L436.4 291.1 L436.4 296.1 L436.4 301.1 L435.3 301.1 L435.3 301.4 L450.3 301.4 L450.3 296.8 Z" fill="#2f8f83" fill-opacity="0.34" stroke="#0e5b52" stroke-width="1.6" />
  <path d="M476.3 260.3 L474.3 259.0 L471.9 262.6 L475.7 265.2 L478.0 261.7 L476.3 260.3 Z" fill="#2f8f83" fill-opacity="0.34" stroke="#0e5b52" stroke-width="1.6" />
  <path d="M474.3 259.0 L470.5 256.5 L469.6 257.9 L468.1 260.1 L469.7 261.2 L471.9 262.6 L474.3 259.0 Z" fill="#2f8f83" fill-opacity="0.34" stroke="#0e5b52" stroke-width="1.6" />
  <path d="M475.7 265.2 L471.9 262.6 L469.6 266.6 L473.6 268.9 L475.8 265.0 L475.7 265.2 Z" fill="#2f8f83" fill-opacity="0.34" stroke="#0e5b52" stroke-width="1.6" />
  <path d="M469.7 261.3 L468.0 260.3 L467.7 260.8 L466.0 263.8 L465.7 264.3 L469.2 266.3 L469.6 266.5 L469.6 266.6 L471.9 262.6 L469.7 261.3 Z" fill="#2f8f83" fill-opacity="0.34" stroke="#0e5b52" stroke-width="1.6" />
  <path d="M472.1 291.8 L472.1 291.7 L470.5 291.7 L470.6 289.3 L470.5 289.3 L467.0 289.4 L467.1 294.4 L472.1 294.3 L472.1 291.8 Z" fill="#2f8f83" fill-opacity="0.34" stroke="#0e5b52" stroke-width="1.6" />
  <path d="M472.1 294.3 L467.1 294.4 L467.2 299.4 L472.2 299.3 L472.1 296.8 L472.1 294.3 Z" fill="#2f8f83" fill-opacity="0.34" stroke="#0e5b52" stroke-width="1.6" />
  <path d="M472.2 301.2 L472.2 299.3 L467.2 299.4 L467.2 301.0 L469.8 301.0 L469.8 301.3 L472.1 301.3 L472.2 301.3 L472.2 301.2 Z" fill="#2f8f83" fill-opacity="0.34" stroke="#0e5b52" stroke-width="1.6" />
  <path d="M475.8 291.8 L472.1 291.8 L472.1 294.3 L472.1 296.8 L475.8 296.8 L475.8 291.8 Z" fill="#2f8f83" fill-opacity="0.34" stroke="#0e5b52" stroke-width="1.6" />
  <path d="M475.8 301.2 L475.8 296.8 L472.1 296.8 L472.2 299.3 L472.2 301.2 L472.2 301.3 L475.8 301.3 L475.8 301.2 Z" fill="#2f8f83" fill-opacity="0.34" stroke="#0e5b52" stroke-width="1.6" />
  <path d="M480.8 291.8 L475.8 291.8 L475.8 296.8 L480.8 296.8 L480.8 291.8 Z" fill="#2f8f83" fill-opacity="0.34" stroke="#0e5b52" stroke-width="1.6" />
  <path d="M480.8 301.2 L480.8 296.8 L475.8 296.8 L475.8 301.2 L475.8 301.3 L480.8 301.3 L480.8 301.2 Z" fill="#2f8f83" fill-opacity="0.34" stroke="#0e5b52" stroke-width="1.6" />
  <path d="M484.0 291.8 L480.8 291.8 L480.8 296.8 L484.0 296.8 L484.0 294.8 L484.0 291.8 Z" fill="#2f8f83" fill-opacity="0.34" stroke="#0e5b52" stroke-width="1.6" />
  <path d="M390.4 313.8 L390.4 318.4 L394.3 318.4 L394.3 313.8 L394.3 309.2 L394.3 304.5 L394.3 299.9 L394.3 295.2 L394.3 290.6 L390.4 290.6 L390.4 295.2 L390.4 299.9 L390.4 304.5 L390.4 309.2 L390.4 313.8 Z" fill="#2f8f83" fill-opacity="0.34" stroke="#0e5b52" stroke-width="1.6" />
  <path d="M413.4 383.3 L413.4 387.9 L417.3 387.9 L417.3 383.3 L417.3 378.6 L417.3 374.0 L417.3 369.4 L413.4 369.4 L413.4 374.0 L413.4 378.6 L413.4 383.3 Z" fill="#2f8f83" fill-opacity="0.34" stroke="#0e5b52" stroke-width="1.6" />
  <path d="M485.8 299.8 L484.0 299.8 L484.0 296.8 L480.8 296.8 L480.8 301.2 L480.8 301.3 L483.3 301.3 L485.8 301.3 L485.8 299.8 Z" fill="#2f8f83" fill-opacity="0.34" stroke="#0e5b52" stroke-width="1.6" />
  <path d="M452.2 281.1 L452.2 281.1 L452.2 276.4 L450.3 276.4 L450.3 276.4 L450.3 281.1 L450.3 296.8 L452.2 296.8 L452.2 281.1 Z" fill="#2f8f83" fill-opacity="0.34" stroke="#0e5b52" stroke-width="1.6" />
  <path d="M448.7 274.3 L447.9 274.3 L447.9 275.7 L442.2 275.7 L432.2 275.7 L432.2 276.1 L436.5 276.1 L436.5 276.4 L440.3 276.4 L448.7 276.4 L448.7 276.4 L448.7 274.3 Z" fill="#2f8f83" fill-opacity="0.34" stroke="#0e5b52" stroke-width="1.6" />
  <path d="M458.7 278.6 L458.6 278.6 L459.4 276.4 L457.1 276.4 L457.1 276.4 L452.2 276.4 L452.2 281.1 L452.2 281.1 L452.2 296.8 L454.4 296.8 L454.5 296.2 L453.9 296.2 L453.9 294.4 L454.7 294.4 L454.8 294.0 L455.1 294.1 L453.9 293.7 L455.1 289.6 L455.1 289.6 L456.1 285.4 L456.3 285.4 L456.5 284.8 L456.3 284.7 L456.7 283.9 L456.7 283.6 L456.8 283.6 L457.1 282.9 L457.0 282.9 L457.7 281.1 L457.7 281.1 L457.7 281.1 L458.6 278.6 L458.7 278.6 L458.7 278.6 Z" fill="#2f8f83" fill-opacity="0.34" stroke="#0e5b52" stroke-width="1.6" />
  <path d="M470.6 281.1 L470.6 281.1 L470.5 281.1 L470.5 276.7 L469.3 276.7 L468.0 279.4 L467.4 281.1 L467.4 281.1 L467.3 281.5 L467.2 281.5 L467.1 281.8 L467.2 281.8 L465.6 286.1 L465.5 286.1 L464.8 289.4 L467.0 289.4 L470.5 289.3 L470.6 289.3 L470.6 281.1 Z" fill="#2f8f83" fill-opacity="0.34" stroke="#0e5b52" stroke-width="1.6" />
  <path d="M452.2 296.8 L450.3 296.8 L450.3 301.4 L435.3 301.4 L435.3 301.1 L432.2 301.1 L432.3 315.5 L432.3 321.2 L452.2 321.2 L452.2 296.8 Z" fill="#2f8f83" fill-opacity="0.34" stroke="#0e5b52" stroke-width="1.6" />
  <path d="M487.8 274.1 L482.1 274.1 L482.1 276.7 L487.8 276.6 L487.8 274.1 Z" fill="#2f8f83" fill-opacity="0.34" stroke="#0e5b52" stroke-width="1.6" />
  <path d="M442.2 274.2 L431.0 274.1 L431.0 273.9 L430.6 273.9 L430.6 276.1 L432.2 276.1 L432.2 275.7 L442.2 275.7 L442.2 274.2 Z" fill="#2f8f83" fill-opacity="0.34" stroke="#0e5b52" stroke-width="1.6" />
  <path d="M451.7 295.2 L451.7 299.9 L455.6 299.9 L459.4 299.9 L463.2 299.9 L467.1 299.9 L467.1 295.2 L467.1 290.6 L467.1 286.0 L463.2 286.0 L463.2 281.3 L459.4 281.3 L455.6 281.3 L455.6 286.0 L455.6 290.6 L451.7 290.6 L451.7 295.2 Z" fill="#2f8f83" fill-opacity="0.34" stroke="#0e5b52" stroke-width="1.6" />
  <path d="M467.1 286.0 L467.1 281.3 L463.2 281.3 L463.2 286.0 L467.1 286.0 Z" fill="#2f8f83" fill-opacity="0.34" stroke="#0e5b52" stroke-width="1.6" />
  <path d="M459.4 323.1 L459.4 327.7 L463.2 327.7 L467.1 327.7 L470.9 327.7 L470.9 323.1 L470.9 318.4 L470.9 313.8 L470.9 309.2 L470.9 304.5 L470.9 299.9 L467.1 299.9 L463.2 299.9 L459.4 299.9 L459.4 304.5 L459.4 309.2 L459.4 313.8 L459.4 318.4 L459.4 323.1 Z" fill="#2f8f83" fill-opacity="0.34" stroke="#0e5b52" stroke-width="1.6" />
  <path d="M459.4 281.3 L463.2 281.3 L463.2 276.7 L459.4 276.7 L455.6 276.7 L455.6 281.3 L459.4 281.3 Z" fill="#2f8f83" fill-opacity="0.34" stroke="#0e5b52" stroke-width="1.6" />
  <path d="M451.7 318.4 L451.7 323.1 L455.6 323.1 L459.4 323.1 L459.4 318.4 L459.4 313.8 L459.4 309.2 L459.4 304.5 L459.4 299.9 L455.6 299.9 L451.7 299.9 L451.7 304.5 L451.7 309.2 L451.7 313.8 L451.7 318.4 Z" fill="#2f8f83" fill-opacity="0.34" stroke="#0e5b52" stroke-width="1.6" />
  <path d="M459.4 276.7 L463.2 276.7 L463.2 281.3 L467.1 281.3 L470.9 281.3 L470.9 276.7 L470.9 272.0 L470.9 267.4 L467.1 267.4 L463.2 267.4 L459.4 267.4 L459.4 272.0 L459.4 276.7 Z" fill="#2f8f83" fill-opacity="0.34" stroke="#0e5b52" stroke-width="1.6" />
  <path d="M470.9 272.0 L470.9 276.7 L474.7 276.7 L474.7 272.0 L474.7 267.4 L470.9 267.4 L470.9 272.0 Z" fill="#2f8f83" fill-opacity="0.34" stroke="#0e5b52" stroke-width="1.6" />
  <path d="M467.1 267.4 L467.1 262.8 L463.2 262.8 L463.2 267.4 L467.1 267.4 Z" fill="#2f8f83" fill-opacity="0.34" stroke="#0e5b52" stroke-width="1.6" />
  <path d="M398.1 364.7 L398.1 369.4 L401.9 369.4 L405.8 369.4 L409.6 369.4 L413.4 369.4 L413.4 364.7 L409.6 364.7 L405.8 364.7 L401.9 364.7 L401.9 360.1 L401.9 355.5 L401.9 350.9 L401.9 346.2 L401.9 341.6 L401.9 337.0 L401.9 332.3 L401.9 327.7 L401.9 323.1 L401.9 318.4 L398.1 318.4 L398.1 323.1 L398.1 327.7 L398.1 332.3 L398.1 337.0 L398.1 341.6 L398.1 346.2 L398.1 350.9 L398.1 355.5 L398.1 360.1 L398.1 364.7 Z" fill="#2f8f83" fill-opacity="0.34" stroke="#0e5b52" stroke-width="1.6" />
  <path d="M428.7 299.9 L428.7 295.2 L424.9 295.2 L424.9 299.9 L428.7 299.9 Z" fill="#2f8f83" fill-opacity="0.34" stroke="#0e5b52" stroke-width="1.6" />
  <path d="M486.2 471.1 L490.0 471.1 L493.9 471.1 L497.7 471.1 L501.5 471.1 L505.4 471.1 L505.4 466.5 L501.5 466.5 L497.7 466.5 L493.9 466.5 L490.0 466.5 L486.2 466.5 L482.4 466.5 L482.4 471.1 L486.2 471.1 Z" fill="#2f8f83" fill-opacity="0.34" stroke="#0e5b52" stroke-width="1.6" />
  <path d="M470.9 461.9 L470.9 466.5 L474.7 466.5 L478.5 466.5 L478.5 461.9 L474.7 461.9 L474.7 457.2 L474.7 452.6 L474.7 448.0 L470.9 448.0 L470.9 452.6 L470.9 457.2 L470.9 461.9 Z" fill="#2f8f83" fill-opacity="0.34" stroke="#0e5b52" stroke-width="1.6" />
  <path d="M509.2 521.9 L513.0 521.9 L516.8 521.9 L520.7 521.9 L524.5 521.9 L528.3 521.9 L532.2 521.9 L536.0 521.9 L539.8 521.9 L543.7 521.9 L543.7 517.3 L539.8 517.3 L536.0 517.3 L532.2 517.3 L528.3 517.3 L524.5 517.3 L520.7 517.3 L516.8 517.3 L513.0 517.3 L509.2 517.3 L505.4 517.3 L505.4 521.9 L509.2 521.9 Z" fill="#2f8f83" fill-opacity="0.34" stroke="#0e5b52" stroke-width="1.6" />
  <path d="M612.6 211.7 L612.6 216.3 L616.4 216.3 L616.4 211.7 L616.4 207.0 L612.6 207.0 L612.6 211.7 Z" fill="#2f8f83" fill-opacity="0.34" stroke="#0e5b52" stroke-width="1.6" />
  <path d="M585.8 193.1 L589.6 193.1 L593.5 193.1 L597.3 193.1 L601.1 193.1 L605.0 193.1 L608.8 193.1 L612.6 193.1 L616.4 193.1 L620.3 193.1 L624.1 193.1 L627.9 193.1 L631.8 193.1 L635.6 193.1 L639.4 193.1 L639.4 188.4 L635.6 188.4 L631.8 188.4 L627.9 188.4 L624.1 188.4 L620.3 188.4 L616.4 188.4 L612.6 188.4 L608.8 188.4 L605.0 188.4 L601.1 188.4 L597.3 188.4 L593.5 188.4 L589.6 188.4 L585.8 188.4 L582.0 188.4 L582.0 193.1 L585.8 193.1 Z" fill="#2f8f83" fill-opacity="0.34" stroke="#0e5b52" stroke-width="1.6" />
  <path d="M455.6 290.6 L455.6 286.0 L451.7 286.0 L451.7 290.6 L455.6 290.6 Z" fill="#2f8f83" fill-opacity="0.34" stroke="#0e5b52" stroke-width="1.6" />
  <path d="M543.7 512.6 L543.7 517.3 L547.5 517.3 L547.5 512.6 L547.5 508.0 L547.5 503.4 L547.5 498.8 L551.3 498.8 L555.2 498.8 L559.0 498.8 L562.8 498.8 L566.6 498.8 L570.5 498.8 L574.3 498.8 L578.1 498.8 L582.0 498.8 L585.8 498.8 L589.6 498.8 L589.6 503.4 L589.6 508.0 L589.6 512.6 L589.6 517.3 L593.5 517.3 L593.5 512.6 L593.5 508.0 L593.5 503.4 L593.5 498.8 L593.5 494.2 L593.5 489.6 L589.6 489.6 L585.8 489.6 L585.8 485.0 L585.8 480.3 L585.8 475.7 L585.8 471.1 L585.8 466.5 L585.8 461.9 L582.0 461.9 L582.0 466.5 L582.0 471.1 L582.0 475.7 L582.0 480.3 L582.0 485.0 L582.0 489.6 L582.0 494.2 L578.1 494.2 L574.3 494.2 L570.5 494.2 L566.6 494.2 L562.8 494.2 L559.0 494.2 L555.2 494.2 L551.3 494.2 L547.5 494.2 L543.7 494.2 L543.7 498.8 L543.7 503.4 L543.7 508.0 L543.7 512.6 Z" fill="#2f8f83" fill-opacity="0.34" stroke="#0e5b52" stroke-width="1.6" />
  <path d="M482.4 295.2 L482.4 299.9 L486.2 299.9 L490.0 299.9 L493.9 299.9 L493.9 295.2 L493.9 290.6 L493.9 286.0 L493.9 281.3 L490.0 281.3 L490.0 286.0 L490.0 290.6 L486.2 290.6 L482.4 290.6 L482.4 295.2 Z" fill="#2f8f83" fill-opacity="0.34" stroke="#0e5b52" stroke-width="1.6" />
  <path d="M417.3 401.8 L417.3 406.4 L421.1 406.4 L424.9 406.4 L428.7 406.4 L432.6 406.4 L436.4 406.4 L436.4 411.0 L436.4 415.6 L436.4 420.3 L440.2 420.3 L440.2 415.6 L440.2 411.0 L440.2 406.4 L440.2 401.8 L436.4 401.8 L432.6 401.8 L428.7 401.8 L424.9 401.8 L421.1 401.8 L421.1 397.1 L417.3 397.1 L417.3 401.8 Z" fill="#2f8f83" fill-opacity="0.34" stroke="#0e5b52" stroke-width="1.6" />
  <path d="M470.9 230.3 L470.9 225.6 L467.1 225.6 L467.1 230.3 L470.9 230.3 Z" fill="#2f8f83" fill-opacity="0.34" stroke="#0e5b52" stroke-width="1.6" />
  <path d="M359.8 137.3 L363.6 137.3 L363.6 141.9 L367.5 141.9 L371.3 141.9 L375.1 141.9 L379.0 141.9 L382.8 141.9 L386.6 141.9 L386.6 137.3 L386.6 132.6 L390.4 132.6 L394.3 132.6 L398.1 132.6 L401.9 132.6 L405.8 132.6 L409.6 132.6 L413.4 132.6 L413.4 128.0 L413.4 123.3 L413.4 118.6 L409.6 118.6 L405.8 118.6 L401.9 118.6 L398.1 118.6 L394.3 118.6 L390.4 118.6 L386.6 118.6 L382.8 118.6 L379.0 118.6 L375.1 118.6 L371.3 118.6 L367.5 118.6 L363.6 118.6 L359.8 118.6 L359.8 123.3 L359.8 128.0 L359.8 132.6 L359.8 137.3 Z" fill="#2f8f83" fill-opacity="0.34" stroke="#0e5b52" stroke-width="1.6" />
  <path d="M459.4 155.9 L459.4 160.5 L463.2 160.5 L463.2 155.9 L463.2 151.2 L463.2 146.6 L463.2 141.9 L463.2 137.3 L459.4 137.3 L459.4 141.9 L459.4 146.6 L459.4 151.2 L459.4 155.9 Z" fill="#2f8f83" fill-opacity="0.34" stroke="#0e5b52" stroke-width="1.6" />
  <path d="M486.2 174.5 L486.2 179.1 L490.0 179.1 L490.0 174.5 L490.0 169.8 L486.2 169.8 L486.2 174.5 Z" fill="#2f8f83" fill-opacity="0.34" stroke="#0e5b52" stroke-width="1.6" />
  <path d="M578.1 202.4 L578.1 207.0 L582.0 207.0 L582.0 202.4 L582.0 197.7 L582.0 193.1 L582.0 188.4 L578.1 188.4 L578.1 193.1 L578.1 197.7 L578.1 202.4 Z" fill="#2f8f83" fill-opacity="0.34" stroke="#0e5b52" stroke-width="1.6" />
  <path d="M516.9 141.9 L516.9 137.3 L513.0 137.3 L513.0 141.9 L516.9 141.9 Z" fill="#2f8f83" fill-opacity="0.34" stroke="#0e5b52" stroke-width="1.6" />
  <path d="M516.9 146.6 L520.7 146.6 L520.7 141.9 L520.7 137.3 L516.9 137.3 L516.9 141.9 L513.0 141.9 L513.0 146.6 L516.9 146.6 Z" fill="#2f8f83" fill-opacity="0.34" stroke="#0e5b52" stroke-width="1.6" />
  <path d="M497.7 151.2 L497.7 155.9 L501.5 155.9 L505.4 155.9 L505.4 151.2 L509.2 151.2 L513.0 151.2 L516.9 151.2 L516.9 146.6 L513.0 146.6 L513.0 141.9 L513.0 137.3 L516.9 137.3 L516.9 132.6 L516.9 128.0 L513.0 128.0 L509.2 128.0 L505.4 128.0 L505.4 132.6 L501.5 132.6 L497.7 132.6 L497.7 137.3 L497.7 141.9 L497.7 146.6 L497.7 151.2 Z" fill="#2f8f83" fill-opacity="0.34" stroke="#0e5b52" stroke-width="1.6" />
  <path d="M578.1 183.8 L578.1 188.4 L582.0 188.4 L585.8 188.4 L589.6 188.4 L593.5 188.4 L593.5 183.8 L593.5 179.1 L593.5 174.5 L589.6 174.5 L585.8 174.5 L582.0 174.5 L578.1 174.5 L578.1 179.1 L578.1 183.8 Z" fill="#2f8f83" fill-opacity="0.34" stroke="#0e5b52" stroke-width="1.6" />
  <path d="M470.9 155.9 L474.7 155.9 L478.5 155.9 L482.4 155.9 L486.2 155.9 L490.0 155.9 L493.9 155.9 L497.7 155.9 L497.7 151.2 L497.7 146.6 L497.7 141.9 L497.7 137.3 L497.7 132.6 L501.5 132.6 L505.4 132.6 L505.4 128.0 L509.2 128.0 L513.0 128.0 L516.9 128.0 L516.9 132.6 L516.9 137.3 L520.7 137.3 L520.7 141.9 L520.7 146.6 L524.5 146.6 L524.5 151.2 L528.3 151.2 L532.2 151.2 L532.2 146.6 L532.2 141.9 L532.2 137.3 L532.2 132.6 L532.2 128.0 L532.2 123.3 L528.3 123.3 L524.5 123.3 L520.7 123.3 L516.9 123.3 L513.0 123.3 L509.2 123.3 L505.4 123.3 L501.5 123.3 L497.7 123.3 L493.9 123.3 L490.0 123.3 L486.2 123.3 L482.4 123.3 L478.5 123.3 L474.7 123.3 L470.9 123.3 L470.9 128.0 L470.9 132.6 L470.9 137.3 L470.9 141.9 L470.9 146.6 L470.9 151.2 L470.9 155.9 Z" fill="#2f8f83" fill-opacity="0.34" stroke="#0e5b52" stroke-width="1.6" />
  <path d="M497.7 165.2 L497.7 160.5 L493.9 160.5 L493.9 165.2 L497.7 165.2 Z" fill="#2f8f83" fill-opacity="0.34" stroke="#0e5b52" stroke-width="1.6" />
  <path d="M478.5 160.5 L482.4 160.5 L486.2 160.5 L490.0 160.5 L493.9 160.5 L497.7 160.5 L501.5 160.5 L501.5 155.9 L497.7 155.9 L493.9 155.9 L490.0 155.9 L486.2 155.9 L482.4 155.9 L478.5 155.9 L474.7 155.9 L474.7 160.5 L478.5 160.5 Z" fill="#2f8f83" fill-opacity="0.34" stroke="#0e5b52" stroke-width="1.6" />
  <path d="M455.6 230.3 L455.6 225.6 L451.7 225.6 L451.7 230.3 L455.6 230.3 Z" fill="#2f8f83" fill-opacity="0.34" stroke="#0e5b52" stroke-width="1.6" />
  <path d="M490.0 272.0 L490.0 276.7 L493.9 276.7 L493.9 272.0 L493.9 267.4 L490.0 267.4 L490.0 272.0 Z" fill="#2f8f83" fill-opacity="0.34" stroke="#0e5b52" stroke-width="1.6" />
  <!-- title strip -->
  <rect x="0" y="0" width="1000" height="54" fill="#173042" />
  <text x="20" y="34" font-size="21" font-weight="bold" fill="#ffffff">Eskay Mining Corp. — Mineral Claims</text>
  <text x="980" y="34" font-size="15" fill="#cfe3df" text-anchor="end">ESK</text>
  <!-- scale bar -->
  <g transform="translate(760.1624460744958, 596)">
    <rect x="0" y="0" width="99.91877696275209" height="8" fill="#173042" />
    <rect x="99.91877696275209" y="0" width="99.91877696275209" height="8" fill="#ffffff" stroke="#173042" stroke-width="1" />
    <text x="99.91877696275209" y="-6" font-size="12" fill="#173042" text-anchor="middle">20 km</text>
  </g>
  <!-- north arrow -->
  <g transform="translate(956, 92)">
    <circle r="17" fill="#ffffff" stroke="#b9b09a" />
    <path d="M0 -10 L5 7 L0 3 L-5 7 Z" fill="#173042" />
    <text y="14" font-size="9" font-weight="bold" fill="#173042" text-anchor="middle">N</text>
  </g>
  <!-- watermark -->
  <text x="20" y="620" font-size="13" fill="#7d8b8a">Map by Exploration Maps — explorationmaps.com</text>
</svg>