<svg xmlns="http://www.w3.org/2000/svg" viewBox="0 0 1000 640" font-family="Arial, Helvetica, sans-serif">
  <rect width="1000" height="640" fill="#f3efe6" />
  <line x1="200" y1="0" x2="200" y2="640" stroke="#d9d2c0" stroke-width="0.7" />
  <line x1="0" y1="128" x2="1000" y2="128" stroke="#d9d2c0" stroke-width="0.7" />
  <line x1="400" y1="0" x2="400" y2="640" stroke="#d9d2c0" stroke-width="0.7" />
  <line x1="0" y1="256" x2="1000" y2="256" stroke="#d9d2c0" stroke-width="0.7" />
  <line x1="600" y1="0" x2="600" y2="640" stroke="#d9d2c0" stroke-width="0.7" />
  <line x1="0" y1="384" x2="1000" y2="384" stroke="#d9d2c0" stroke-width="0.7" />
  <line x1="800" y1="0" x2="800" y2="640" stroke="#d9d2c0" stroke-width="0.7" />
  <line x1="0" y1="512" x2="1000" y2="512" stroke="#d9d2c0" stroke-width="0.7" />
  <path d="M783.7 402.8 L783.7 411.9 L783.7 421.1 L783.7 430.3 L791.6 430.3 L799.5 430.3 L807.4 430.3 L815.2 430.3 L823.1 430.3 L831.0 430.3 L838.9 430.3 L846.8 430.3 L846.8 421.1 L846.8 412.0 L846.8 402.8 L838.9 402.8 L831.0 402.8 L823.1 402.8 L815.2 402.8 L807.4 402.8 L799.5 402.8 L791.6 402.8 L791.6 393.6 L783.7 393.6 L783.7 402.8 Z" fill="#2f8f83" fill-opacity="0.34" stroke="#0e5b52" stroke-width="1.6" />
  <path d="M799.5 320.1 L799.5 329.3 L799.5 338.5 L799.5 347.7 L799.5 356.9 L799.5 366.0 L807.4 366.0 L815.2 366.0 L823.1 366.0 L831.0 366.0 L831.0 356.9 L831.0 347.7 L831.0 338.5 L831.0 329.3 L831.0 320.1 L831.0 310.9 L823.1 310.9 L815.3 310.9 L807.4 310.9 L799.5 310.9 L799.5 320.1 Z" fill="#2f8f83" fill-opacity="0.34" stroke="#0e5b52" stroke-width="1.6" />
  <path d="M783.7 366.0 L783.7 375.2 L783.7 384.4 L783.7 393.6 L791.6 393.6 L791.6 402.8 L799.5 402.8 L807.4 402.8 L815.2 402.8 L823.1 402.8 L831.0 402.8 L831.0 393.6 L831.0 384.4 L831.0 375.2 L831.0 366.0 L823.1 366.0 L815.2 366.0 L807.4 366.0 L799.5 366.0 L799.5 356.9 L791.6 356.9 L783.7 356.9 L783.7 366.0 Z" fill="#2f8f83" fill-opacity="0.34" stroke="#0e5b52" stroke-width="1.6" />
  <path d="M744.3 366.0 L744.3 375.2 L744.3 384.4 L744.3 393.6 L752.2 393.6 L760.1 393.6 L768.0 393.6 L775.8 393.6 L783.7 393.6 L783.7 384.4 L783.7 375.2 L783.7 366.0 L783.7 356.9 L775.8 356.9 L768.0 356.9 L760.1 356.9 L752.2 356.9 L744.3 356.9 L744.3 366.0 Z" fill="#2f8f83" fill-opacity="0.34" stroke="#0e5b52" stroke-width="1.6" />
  <path d="M744.3 402.8 L744.3 411.9 L744.3 421.1 L744.3 430.3 L752.2 430.3 L760.1 430.3 L768.0 430.3 L775.8 430.3 L783.7 430.3 L783.7 421.1 L783.7 411.9 L783.7 402.8 L783.7 393.6 L775.8 393.6 L768.0 393.6 L760.1 393.6 L752.2 393.6 L744.3 393.6 L744.3 402.8 Z" fill="#2f8f83" fill-opacity="0.34" stroke="#0e5b52" stroke-width="1.6" />
  <path d="M720.7 402.8 L720.7 411.9 L720.7 421.1 L720.7 430.3 L728.6 430.3 L736.4 430.3 L744.3 430.3 L744.3 421.1 L744.3 411.9 L744.3 402.8 L744.3 393.6 L736.4 393.6 L728.6 393.6 L720.7 393.6 L720.7 402.8 Z" fill="#2f8f83" fill-opacity="0.34" stroke="#0e5b52" stroke-width="1.6" />
  <path d="M720.7 347.7 L720.7 356.9 L720.7 366.0 L720.7 375.2 L720.7 384.4 L720.7 393.6 L728.6 393.6 L736.4 393.6 L744.3 393.6 L744.3 384.4 L744.3 375.2 L744.3 366.0 L744.3 356.9 L752.2 356.9 L760.1 356.9 L760.1 347.7 L760.1 338.5 L752.2 338.5 L744.3 338.5 L736.4 338.5 L728.6 338.5 L720.7 338.5 L720.7 347.7 Z" fill="#2f8f83" fill-opacity="0.34" stroke="#0e5b52" stroke-width="1.6" />
  <path d="M326.6 301.7 L326.6 310.9 L334.5 310.9 L334.5 301.7 L334.5 292.5 L326.6 292.5 L326.6 301.7 Z" fill="#2f8f83" fill-opacity="0.34" stroke="#0e5b52" stroke-width="1.6" />
  <path d="M350.3 228.2 L350.3 237.4 L350.3 246.6 L350.3 255.8 L350.3 265.0 L350.3 274.2 L350.3 283.3 L350.3 292.5 L350.3 301.7 L358.1 301.7 L366.0 301.7 L373.9 301.7 L381.8 301.7 L389.7 301.7 L397.5 301.7 L405.4 301.7 L405.4 292.5 L405.4 283.3 L405.4 274.1 L413.3 274.1 L421.2 274.1 L429.1 274.1 L429.1 265.0 L429.1 255.8 L436.9 255.8 L436.9 246.6 L436.9 237.4 L436.9 228.2 L429.1 228.2 L429.1 219.0 L421.2 219.0 L413.3 219.0 L413.3 209.8 L405.4 209.8 L397.5 209.8 L389.7 209.8 L381.8 209.8 L373.9 209.8 L366.0 209.8 L358.1 209.8 L358.1 219.0 L350.3 219.0 L350.3 228.2 Z" fill="#2f8f83" fill-opacity="0.34" stroke="#0e5b52" stroke-width="1.6" />
  <path d="M271.4 237.4 L263.6 237.4 L263.6 246.6 L271.4 246.6 L279.3 246.6 L287.2 246.6 L287.2 255.8 L287.2 265.0 L287.2 274.2 L287.2 283.3 L287.2 292.5 L279.3 292.5 L271.4 292.5 L271.4 301.7 L271.4 310.9 L271.4 320.1 L279.3 320.1 L287.2 320.1 L295.1 320.1 L303.0 320.1 L310.8 320.1 L318.7 320.1 L318.7 310.9 L326.6 310.9 L326.6 301.7 L326.6 292.5 L334.5 292.5 L334.5 301.7 L342.4 301.7 L350.3 301.7 L350.3 292.5 L350.3 283.3 L350.3 274.2 L350.3 265.0 L350.3 255.8 L350.3 246.6 L350.3 237.4 L350.3 228.2 L350.3 219.0 L342.4 219.0 L334.5 219.0 L326.6 219.0 L326.6 228.2 L318.7 228.2 L310.9 228.2 L303.0 228.2 L295.1 228.2 L287.2 228.2 L279.3 228.2 L279.3 237.4 L271.4 237.4 Z" fill="#2f8f83" fill-opacity="0.34" stroke="#0e5b52" stroke-width="1.6" />
  <path d="M216.3 255.8 L216.3 265.0 L216.3 274.2 L216.3 283.4 L216.3 292.5 L224.2 292.5 L224.2 301.7 L224.2 310.9 L224.2 320.1 L224.2 329.3 L224.2 338.5 L224.2 347.7 L232.0 347.7 L239.9 347.7 L247.8 347.7 L255.7 347.7 L255.7 338.5 L263.6 338.5 L271.4 338.5 L271.4 329.3 L279.3 329.3 L287.2 329.3 L287.2 320.1 L279.3 320.1 L271.4 320.1 L271.4 310.9 L271.4 301.7 L271.4 292.5 L279.3 292.5 L287.2 292.5 L287.2 283.3 L287.2 274.2 L287.2 265.0 L287.2 255.8 L287.2 246.6 L279.3 246.6 L271.4 246.6 L263.6 246.6 L255.7 246.6 L247.8 246.6 L239.9 246.6 L232.0 246.6 L224.2 246.6 L216.3 246.6 L216.3 255.8 Z" fill="#2f8f83" fill-opacity="0.34" stroke="#0e5b52" stroke-width="1.6" />
  <path d="M153.2 265.0 L153.2 274.2 L153.2 283.4 L153.2 292.5 L153.2 301.7 L153.2 310.9 L153.2 320.1 L153.2 329.3 L153.2 338.5 L153.2 347.7 L153.2 356.9 L153.2 366.1 L161.1 366.1 L161.1 356.9 L169.0 356.9 L169.0 347.7 L169.0 338.5 L169.0 329.3 L169.0 320.1 L169.0 310.9 L169.0 301.7 L169.0 292.5 L169.0 283.4 L169.0 274.2 L169.0 265.0 L169.0 255.8 L161.1 255.8 L153.2 255.8 L153.2 265.0 Z" fill="#2f8f83" fill-opacity="0.34" stroke="#0e5b52" stroke-width="1.6" />
  <path d="M169.0 265.0 L169.0 274.2 L169.0 283.4 L169.0 292.5 L169.0 301.7 L169.0 310.9 L169.0 320.1 L169.0 329.3 L169.0 338.5 L169.0 347.7 L169.0 356.9 L161.1 356.9 L161.1 366.1 L169.0 366.1 L176.9 366.1 L184.8 366.1 L192.6 366.1 L200.5 366.1 L208.4 366.1 L216.3 366.0 L224.2 366.0 L232.0 366.0 L232.0 356.9 L239.9 356.9 L239.9 347.7 L232.0 347.7 L224.2 347.7 L224.2 338.5 L224.2 329.3 L224.2 320.1 L224.2 310.9 L224.2 301.7 L224.2 292.5 L216.3 292.5 L216.3 283.4 L216.3 274.2 L216.3 265.0 L216.3 255.8 L208.4 255.8 L200.5 255.8 L192.6 255.8 L184.8 255.8 L176.9 255.8 L169.0 255.8 L169.0 265.0 Z" fill="#2f8f83" fill-opacity="0.34" stroke="#0e5b52" stroke-width="1.6" />
  <!-- title strip -->
  <rect x="0" y="0" width="1000" height="54" fill="#173042" />
  <text x="20" y="34" font-size="21" font-weight="bold" fill="#ffffff">Fjordland Exploration Inc. — Mineral Claims</text>
  <text x="980" y="34" font-size="15" fill="#cfe3df" text-anchor="end">FEX</text>
  <!-- scale bar -->
  <g transform="translate(761.8817224013483, 596)">
    <rect x="0" y="0" width="99.05913879932584" height="8" fill="#173042" />
    <rect x="99.05913879932584" y="0" width="99.05913879932584" height="8" fill="#ffffff" stroke="#173042" stroke-width="1" />
    <text x="99.05913879932584" y="-6" font-size="12" fill="#173042" text-anchor="middle">10 km</text>
  </g>
  <!-- north arrow -->
  <g transform="translate(956, 92)">
    <circle r="17" fill="#ffffff" stroke="#b9b09a" />
    <path d="M0 -10 L5 7 L0 3 L-5 7 Z" fill="#173042" />
    <text y="14" font-size="9" font-weight="bold" fill="#173042" text-anchor="middle">N</text>
  </g>
  <!-- watermark -->
  <text x="20" y="620" font-size="13" fill="#7d8b8a">Map by Exploration Maps — explorationmaps.com</text>
</svg>