<svg xmlns="http://www.w3.org/2000/svg" viewBox="0 0 1000 640" font-family="Arial, Helvetica, sans-serif">
  <rect width="1000" height="640" fill="#f3efe6" />
  <line x1="200" y1="0" x2="200" y2="640" stroke="#d9d2c0" stroke-width="0.7" />
  <line x1="0" y1="128" x2="1000" y2="128" stroke="#d9d2c0" stroke-width="0.7" />
  <line x1="400" y1="0" x2="400" y2="640" stroke="#d9d2c0" stroke-width="0.7" />
  <line x1="0" y1="256" x2="1000" y2="256" stroke="#d9d2c0" stroke-width="0.7" />
  <line x1="600" y1="0" x2="600" y2="640" stroke="#d9d2c0" stroke-width="0.7" />
  <line x1="0" y1="384" x2="1000" y2="384" stroke="#d9d2c0" stroke-width="0.7" />
  <line x1="800" y1="0" x2="800" y2="640" stroke="#d9d2c0" stroke-width="0.7" />
  <line x1="0" y1="512" x2="1000" y2="512" stroke="#d9d2c0" stroke-width="0.7" />
  <path d="M485.3 133.0 L482.5 133.0 L482.5 134.5 L482.5 135.3 L482.5 135.3 L482.5 135.3 L484.1 135.3 L485.3 135.3 L485.3 134.5 L485.3 133.0 Z" fill="#2f8f83" fill-opacity="0.34" stroke="#0e5b52" stroke-width="1.6" />
  <path d="M485.3 135.3 L484.1 135.3 L484.1 136.8 L484.1 136.8 L484.6 136.8 L486.4 136.8 L486.4 135.3 L485.3 135.3 Z" fill="#2f8f83" fill-opacity="0.34" stroke="#0e5b52" stroke-width="1.6" />
  <path d="M484.8 130.8 L482.5 130.8 L482.5 133.0 L485.3 133.0 L485.3 133.0 L485.4 130.8 L484.8 130.8 L484.8 130.8 Z" fill="#2f8f83" fill-opacity="0.34" stroke="#0e5b52" stroke-width="1.6" />
  <path d="M480.7 130.8 L480.2 130.8 L480.2 130.9 L480.2 132.3 L480.2 133.0 L480.7 133.0 L482.5 133.0 L482.5 130.8 L482.4 130.8 L482.3 130.8 L480.7 130.8 Z" fill="#2f8f83" fill-opacity="0.34" stroke="#0e5b52" stroke-width="1.6" />
  <path d="M482.4 128.5 L482.4 128.5 L482.4 127.3 L481.8 127.3 L481.3 127.3 L480.7 127.3 L480.7 127.3 L480.7 127.4 L480.7 127.4 L480.7 130.8 L482.3 130.8 L482.4 130.8 L482.4 128.5 Z" fill="#2f8f83" fill-opacity="0.34" stroke="#0e5b52" stroke-width="1.6" />
  <path d="M484.7 128.5 L482.4 128.5 L482.4 130.8 L482.5 130.8 L484.8 130.8 L484.8 130.8 L485.2 130.8 L485.2 128.5 L484.7 128.5 Z" fill="#2f8f83" fill-opacity="0.34" stroke="#0e5b52" stroke-width="1.6" />
  <path d="M484.1 135.3 L482.5 135.3 L482.5 136.8 L484.1 136.8 L484.1 135.3 Z" fill="#2f8f83" fill-opacity="0.34" stroke="#0e5b52" stroke-width="1.6" />
  <path d="M484.1 136.8 L482.5 136.8 L482.5 137.6 L482.5 139.0 L482.5 139.0 L483.5 139.0 L484.6 139.0 L484.6 136.8 L484.1 136.8 L484.1 136.8 Z" fill="#2f8f83" fill-opacity="0.34" stroke="#0e5b52" stroke-width="1.6" />
  <path d="M484.7 126.3 L484.7 126.3 L484.1 126.3 L482.4 126.3 L482.4 126.3 L482.4 126.9 L482.4 127.3 L482.4 128.5 L482.4 128.5 L484.7 128.5 L484.7 126.3 Z" fill="#2f8f83" fill-opacity="0.34" stroke="#0e5b52" stroke-width="1.6" />
  <path d="M480.7 127.4 L480.0 127.4 L479.1 127.4 L479.1 129.5 L479.1 129.7 L479.6 129.7 L479.6 130.9 L480.0 130.9 L480.2 130.9 L480.2 130.8 L480.7 130.8 L480.7 127.4 Z" fill="#2f8f83" fill-opacity="0.34" stroke="#0e5b52" stroke-width="1.6" />
  <path d="M494.5 154.9 L494.5 154.9 L494.5 154.9 L494.5 154.9 L494.5 157.7 L494.5 157.7 L494.8 157.7 L494.8 157.7 L496.5 157.7 L496.5 157.7 L496.5 157.2 L496.5 156.9 L496.4 156.9 L496.4 156.3 L496.4 155.9 L496.3 155.9 L496.3 155.3 L496.3 154.9 L496.2 154.9 L494.5 154.9 Z" fill="#2f8f83" fill-opacity="0.34" stroke="#0e5b52" stroke-width="1.6" />
  <path d="M497.6 158.1 L495.1 158.1 L495.1 160.0 L497.2 160.0 L497.2 160.4 L497.4 160.4 L497.4 159.8 L497.6 159.8 L497.6 159.8 L497.6 158.1 Z" fill="#2f8f83" fill-opacity="0.34" stroke="#0e5b52" stroke-width="1.6" />
  <path d="M478.1 132.3 L476.9 132.3 L476.9 133.4 L478.1 133.4 L478.1 132.3 Z" fill="#2f8f83" fill-opacity="0.34" stroke="#0e5b52" stroke-width="1.6" />
  <path d="M478.1 132.3 L478.1 131.1 L476.9 131.1 L476.9 132.3 L478.1 132.3 Z" fill="#2f8f83" fill-opacity="0.34" stroke="#0e5b52" stroke-width="1.6" />
  <path d="M487.1 130.8 L487.1 128.5 L485.2 128.5 L485.2 130.8 L487.1 130.8 Z" fill="#2f8f83" fill-opacity="0.34" stroke="#0e5b52" stroke-width="1.6" />
  <path d="M487.0 130.8 L486.9 130.8 L485.4 130.8 L485.3 133.0 L486.5 133.0 L487.0 133.0 L487.0 132.9 L487.0 131.2 L487.0 130.8 Z" fill="#2f8f83" fill-opacity="0.34" stroke="#0e5b52" stroke-width="1.6" />
  <path d="M479.0 124.7 L477.5 124.7 L477.5 126.6 L479.0 126.6 L479.0 127.0 L479.0 127.0 L479.0 126.9 L479.0 126.9 L479.0 126.3 L479.0 124.7 Z" fill="#2f8f83" fill-opacity="0.34" stroke="#0e5b52" stroke-width="1.6" />
  <path d="M479.2 122.4 L477.5 122.4 L477.5 124.4 L477.5 124.7 L479.0 124.7 L479.0 124.6 L479.2 124.6 L479.2 122.4 Z" fill="#2f8f83" fill-opacity="0.34" stroke="#0e5b52" stroke-width="1.6" />
  <path d="M481.3 121.9 L480.0 121.9 L479.2 121.9 L479.2 122.4 L479.2 124.6 L480.0 124.6 L481.3 124.6 L481.3 124.7 L481.3 124.7 L481.5 124.7 L481.5 124.0 L481.5 121.9 L481.3 121.9 Z" fill="#2f8f83" fill-opacity="0.34" stroke="#0e5b52" stroke-width="1.6" />
  <path d="M482.5 134.5 L482.5 133.0 L480.7 133.0 L480.7 134.5 L480.7 135.2 L480.3 135.2 L480.3 135.3 L480.3 135.3 L482.5 135.3 L482.5 135.3 L482.5 134.5 Z" fill="#2f8f83" fill-opacity="0.34" stroke="#0e5b52" stroke-width="1.6" />
  <path d="M482.5 136.8 L482.5 136.8 L482.5 135.3 L482.5 135.3 L482.5 135.3 L480.3 135.3 L480.3 135.3 L480.3 137.4 L482.1 137.4 L482.1 137.6 L482.5 137.6 L482.5 136.8 Z" fill="#2f8f83" fill-opacity="0.34" stroke="#0e5b52" stroke-width="1.6" />
  <path d="M477.3 134.1 L477.3 133.6 L476.7 133.6 L476.7 134.1 L477.2 134.1 L477.2 134.1 L477.3 134.1 Z" fill="#2f8f83" fill-opacity="0.34" stroke="#0e5b52" stroke-width="1.6" />
  <path d="M476.7 133.6 L477.3 133.6 L477.3 133.4 L476.9 133.4 L476.9 133.0 L476.7 133.0 L476.7 133.6 Z" fill="#2f8f83" fill-opacity="0.34" stroke="#0e5b52" stroke-width="1.6" />
  <path d="M476.9 133.0 L476.9 132.4 L476.7 132.4 L476.7 133.0 L476.9 133.0 Z" fill="#2f8f83" fill-opacity="0.34" stroke="#0e5b52" stroke-width="1.6" />
  <path d="M476.7 132.4 L476.9 132.4 L476.9 132.3 L476.9 131.9 L476.7 131.9 L476.7 132.4 Z" fill="#2f8f83" fill-opacity="0.34" stroke="#0e5b52" stroke-width="1.6" />
  <path d="M484.6 128.2 L484.6 128.7 L485.0 128.7 L485.5 128.7 L485.9 128.7 L486.3 128.7 L486.7 128.7 L487.2 128.7 L487.2 128.2 L487.2 127.6 L487.2 127.1 L487.2 126.6 L487.2 126.1 L486.7 126.1 L486.3 126.1 L485.9 126.1 L485.5 126.1 L485.0 126.1 L484.6 126.1 L484.6 126.6 L484.6 127.1 L484.6 127.6 L484.6 128.2 Z" fill="#2f8f83" fill-opacity="0.34" stroke="#0e5b52" stroke-width="1.6" />
  <path d="M497.0 161.4 L497.0 161.9 L497.4 161.9 L497.9 161.9 L498.3 161.9 L498.7 161.9 L498.7 161.4 L498.7 160.8 L498.7 160.3 L498.7 159.8 L498.3 159.8 L497.9 159.8 L497.4 159.8 L497.0 159.8 L497.0 160.3 L497.0 160.8 L497.0 161.4 Z" fill="#2f8f83" fill-opacity="0.34" stroke="#0e5b52" stroke-width="1.6" />
  <path d="M485.0 135.0 L485.0 135.6 L485.5 135.6 L485.9 135.6 L486.3 135.6 L486.7 135.6 L486.7 135.0 L486.7 134.5 L486.7 134.0 L486.7 133.5 L486.7 132.9 L486.3 132.9 L485.9 132.9 L485.5 132.9 L485.0 132.9 L485.0 133.5 L485.0 134.0 L485.0 134.5 L485.0 135.0 Z" fill="#2f8f83" fill-opacity="0.34" stroke="#0e5b52" stroke-width="1.6" />
  <path d="M497.4 159.3 L497.4 159.8 L497.9 159.8 L498.3 159.8 L498.7 159.8 L498.7 160.3 L498.7 160.8 L498.7 161.4 L498.7 161.9 L499.1 161.9 L499.6 161.9 L500.0 161.9 L500.4 161.9 L500.4 161.4 L500.4 160.8 L500.9 160.8 L500.9 160.3 L500.9 159.8 L500.9 159.3 L500.4 159.3 L500.4 158.7 L500.4 158.2 L500.4 157.7 L500.4 157.2 L500.0 157.2 L499.6 157.2 L499.1 157.2 L498.7 157.2 L498.3 157.2 L497.9 157.2 L497.4 157.2 L497.4 157.7 L497.4 158.2 L497.4 158.7 L497.4 159.3 Z" fill="#2f8f83" fill-opacity="0.34" stroke="#0e5b52" stroke-width="1.6" />
  <path d="M497.0 162.9 L497.0 163.5 L497.4 163.5 L497.9 163.5 L498.3 163.5 L498.7 163.5 L499.1 163.5 L499.6 163.5 L500.0 163.5 L500.0 162.9 L500.0 162.4 L500.0 161.9 L499.6 161.9 L499.1 161.9 L498.7 161.9 L498.3 161.9 L497.9 161.9 L497.4 161.9 L497.0 161.9 L497.0 162.4 L497.0 162.9 Z" fill="#2f8f83" fill-opacity="0.34" stroke="#0e5b52" stroke-width="1.6" />
  <path d="M500.4 158.7 L500.4 159.3 L500.9 159.3 L500.9 159.8 L500.9 160.3 L500.9 160.8 L501.3 160.8 L501.7 160.8 L501.7 160.3 L501.7 159.8 L501.7 159.3 L501.7 158.7 L501.7 158.2 L501.7 157.7 L501.7 157.2 L501.3 157.2 L500.9 157.2 L500.4 157.2 L500.4 157.7 L500.4 158.2 L500.4 158.7 Z" fill="#2f8f83" fill-opacity="0.34" stroke="#0e5b52" stroke-width="1.6" />
  <path d="M496.2 157.7 L496.2 158.2 L496.6 158.2 L497.0 158.2 L497.4 158.2 L497.4 157.7 L497.4 157.2 L497.9 157.2 L498.3 157.2 L498.3 156.6 L498.3 156.1 L497.9 156.1 L497.9 155.6 L497.4 155.6 L497.4 155.1 L497.4 154.5 L497.0 154.5 L496.6 154.5 L496.2 154.5 L496.2 155.1 L496.2 155.6 L496.2 156.1 L496.2 156.6 L496.2 157.2 L496.2 157.7 Z" fill="#2f8f83" fill-opacity="0.34" stroke="#0e5b52" stroke-width="1.6" />
  <path d="M478.6 127.1 L478.6 127.6 L479.0 127.6 L479.5 127.6 L479.9 127.6 L480.3 127.6 L480.8 127.6 L481.2 127.6 L481.6 127.6 L482.0 127.6 L482.5 127.6 L482.5 127.1 L482.5 126.6 L482.5 126.1 L482.0 126.1 L481.6 126.1 L481.2 126.1 L480.8 126.1 L480.3 126.1 L479.9 126.1 L479.5 126.1 L479.0 126.1 L478.6 126.1 L478.6 126.6 L478.6 127.1 Z" fill="#2f8f83" fill-opacity="0.34" stroke="#0e5b52" stroke-width="1.6" />
  <path d="M478.6 125.5 L478.6 126.1 L479.0 126.1 L479.5 126.1 L479.9 126.1 L480.3 126.1 L480.8 126.1 L481.2 126.1 L481.6 126.1 L481.6 125.5 L481.6 125.0 L481.6 124.5 L481.2 124.5 L480.8 124.5 L480.3 124.5 L479.9 124.5 L479.5 124.5 L479.0 124.5 L478.6 124.5 L478.6 125.0 L478.6 125.5 Z" fill="#2f8f83" fill-opacity="0.34" stroke="#0e5b52" stroke-width="1.6" />
  <path d="M484.6 138.7 L484.6 139.3 L485.0 139.3 L485.5 139.3 L485.9 139.3 L486.3 139.3 L486.7 139.3 L487.2 139.3 L487.6 139.3 L487.6 138.7 L488.0 138.7 L488.0 138.2 L488.0 137.7 L488.5 137.7 L488.5 138.2 L488.9 138.2 L489.3 138.2 L489.3 137.7 L489.3 137.2 L489.3 136.6 L489.3 136.1 L489.3 135.6 L489.3 135.0 L489.3 134.5 L489.3 134.0 L489.3 133.5 L489.3 132.9 L489.3 132.4 L488.9 132.4 L488.5 132.4 L488.0 132.4 L488.0 132.9 L487.6 132.9 L487.2 132.9 L486.7 132.9 L486.7 133.5 L486.7 134.0 L486.7 134.5 L486.7 135.0 L486.7 135.6 L486.3 135.6 L486.3 136.1 L486.3 136.6 L485.9 136.6 L485.5 136.6 L485.0 136.6 L484.6 136.6 L484.6 137.2 L484.6 137.7 L484.6 138.2 L484.6 138.7 Z" fill="#2f8f83" fill-opacity="0.34" stroke="#0e5b52" stroke-width="1.6" />
  <path d="M485.9 139.8 L486.3 139.8 L486.7 139.8 L487.2 139.8 L487.6 139.8 L487.6 139.3 L487.2 139.3 L486.7 139.3 L486.3 139.3 L485.9 139.3 L485.5 139.3 L485.5 139.8 L485.9 139.8 Z" fill="#2f8f83" fill-opacity="0.34" stroke="#0e5b52" stroke-width="1.6" />
  <path d="M486.7 132.4 L486.7 132.9 L487.2 132.9 L487.6 132.9 L488.0 132.9 L488.0 132.4 L488.5 132.4 L488.9 132.4 L489.3 132.4 L489.3 131.9 L489.3 131.3 L489.3 130.8 L489.3 130.3 L489.7 130.3 L490.2 130.3 L490.6 130.3 L490.6 129.8 L490.6 129.2 L490.6 128.7 L490.6 128.2 L490.6 127.6 L490.6 127.1 L490.6 126.6 L490.2 126.6 L489.7 126.6 L489.3 126.6 L488.9 126.6 L488.5 126.6 L488.0 126.6 L487.6 126.6 L487.2 126.6 L487.2 127.1 L487.2 127.6 L487.2 128.2 L487.2 128.7 L486.7 128.7 L486.7 129.2 L486.7 129.8 L486.7 130.3 L486.7 130.8 L486.7 131.3 L486.7 131.9 L486.7 132.4 Z" fill="#2f8f83" fill-opacity="0.34" stroke="#0e5b52" stroke-width="1.6" />
  <path d="M491.0 130.3 L491.4 130.3 L491.9 130.3 L492.3 130.3 L492.7 130.3 L493.2 130.3 L493.6 130.3 L494.0 130.3 L494.4 130.3 L494.9 130.3 L495.3 130.3 L495.7 130.3 L496.2 130.3 L496.2 129.8 L495.7 129.8 L495.3 129.8 L494.9 129.8 L494.4 129.8 L494.0 129.8 L493.6 129.8 L493.2 129.8 L492.7 129.8 L492.3 129.8 L491.9 129.8 L491.4 129.8 L491.0 129.8 L490.6 129.8 L490.6 130.3 L491.0 130.3 Z" fill="#2f8f83" fill-opacity="0.34" stroke="#0e5b52" stroke-width="1.6" />
  <path d="M489.3 137.7 L489.3 138.2 L489.7 138.2 L490.2 138.2 L490.2 137.7 L489.7 137.7 L489.7 137.2 L489.7 136.6 L489.7 136.1 L489.3 136.1 L489.3 136.6 L489.3 137.2 L489.3 137.7 Z" fill="#2f8f83" fill-opacity="0.34" stroke="#0e5b52" stroke-width="1.6" />
  <path d="M527.4 517.0 L527.4 517.5 L527.8 517.5 L528.2 517.5 L528.7 517.5 L528.7 517.0 L528.7 516.5 L528.7 516.1 L528.2 516.1 L527.8 516.1 L527.4 516.1 L527.4 516.5 L527.4 517.0 Z" fill="#2f8f83" fill-opacity="0.34" stroke="#0e5b52" stroke-width="1.6" />
  <path d="M528.7 517.0 L528.7 517.5 L529.1 517.5 L529.5 517.5 L529.9 517.5 L529.9 517.0 L530.4 517.0 L530.8 517.0 L530.8 516.5 L530.8 516.1 L530.4 516.1 L529.9 516.1 L529.5 516.1 L529.1 516.1 L528.7 516.1 L528.7 516.5 L528.7 517.0 Z" fill="#2f8f83" fill-opacity="0.34" stroke="#0e5b52" stroke-width="1.6" />
  <path d="M529.9 518.0 L530.4 518.0 L530.4 518.5 L530.8 518.5 L530.8 519.0 L531.2 519.0 L531.7 519.0 L532.1 519.0 L532.5 519.0 L532.9 519.0 L532.9 518.5 L532.9 518.0 L532.9 517.5 L532.9 517.0 L532.9 516.5 L532.9 516.1 L532.5 516.1 L532.1 516.1 L531.7 516.1 L531.2 516.1 L530.8 516.1 L530.8 516.5 L530.8 517.0 L530.4 517.0 L529.9 517.0 L529.9 517.5 L529.5 517.5 L529.5 518.0 L529.9 518.0 Z" fill="#2f8f83" fill-opacity="0.34" stroke="#0e5b52" stroke-width="1.6" />
  <path d="M526.5 516.5 L526.5 517.0 L527.0 517.0 L527.4 517.0 L527.4 516.5 L527.4 516.1 L527.8 516.1 L528.2 516.1 L528.2 515.6 L528.7 515.6 L528.7 515.1 L528.7 514.6 L528.7 514.1 L528.7 513.6 L528.2 513.6 L528.2 513.1 L527.8 513.1 L527.4 513.1 L527.4 513.6 L527.4 514.1 L527.4 514.6 L527.0 514.6 L527.0 515.1 L526.5 515.1 L526.5 515.6 L526.5 516.1 L526.5 516.5 Z" fill="#2f8f83" fill-opacity="0.34" stroke="#0e5b52" stroke-width="1.6" />
  <path d="M528.7 516.1 L529.1 516.1 L529.5 516.1 L529.9 516.1 L530.4 516.1 L530.8 516.1 L530.8 515.6 L530.8 515.1 L530.4 515.1 L529.9 515.1 L529.5 515.1 L529.1 515.1 L528.7 515.1 L528.7 515.6 L528.2 515.6 L528.2 516.1 L528.7 516.1 Z" fill="#2f8f83" fill-opacity="0.34" stroke="#0e5b52" stroke-width="1.6" />
  <path d="M528.7 514.6 L528.7 515.1 L529.1 515.1 L529.5 515.1 L529.9 515.1 L530.4 515.1 L530.8 515.1 L530.8 514.6 L530.8 514.1 L530.4 514.1 L529.9 514.1 L529.5 514.1 L529.1 514.1 L528.7 514.1 L528.7 514.6 Z" fill="#2f8f83" fill-opacity="0.34" stroke="#0e5b52" stroke-width="1.6" />
  <path d="M530.8 515.6 L530.8 516.1 L531.2 516.1 L531.7 516.1 L532.1 516.1 L532.5 516.1 L532.9 516.1 L532.9 515.6 L532.9 515.1 L532.9 514.6 L532.9 514.1 L532.9 513.6 L532.9 513.1 L532.5 513.1 L532.1 513.1 L531.7 513.1 L531.2 513.1 L530.8 513.1 L530.8 513.6 L530.4 513.6 L530.4 514.1 L530.8 514.1 L530.8 514.6 L530.8 515.1 L530.8 515.6 Z" fill="#2f8f83" fill-opacity="0.34" stroke="#0e5b52" stroke-width="1.6" />
  <path d="M527.0 512.6 L527.0 513.1 L527.4 513.1 L527.8 513.1 L528.2 513.1 L528.7 513.1 L528.7 512.6 L529.1 512.6 L529.5 512.6 L529.5 512.2 L529.1 512.2 L529.1 511.7 L528.7 511.7 L528.7 511.2 L528.7 510.7 L528.2 510.7 L527.8 510.7 L527.4 510.7 L527.0 510.7 L527.0 511.2 L527.0 511.7 L527.0 512.2 L527.0 512.6 Z" fill="#2f8f83" fill-opacity="0.34" stroke="#0e5b52" stroke-width="1.6" />
  <path d="M528.2 510.2 L528.2 510.7 L528.7 510.7 L529.1 510.7 L529.5 510.7 L529.5 510.2 L529.9 510.2 L530.4 510.2 L530.8 510.2 L530.8 510.7 L531.2 510.7 L531.2 510.2 L531.2 509.7 L531.2 509.2 L530.8 509.2 L530.4 509.2 L529.9 509.2 L529.5 509.2 L529.1 509.2 L528.7 509.2 L528.2 509.2 L528.2 509.7 L528.2 510.2 Z" fill="#2f8f83" fill-opacity="0.34" stroke="#0e5b52" stroke-width="1.6" />
  <path d="M531.7 512.6 L531.7 513.1 L532.1 513.1 L532.5 513.1 L532.9 513.1 L532.9 512.6 L532.9 512.2 L532.9 511.7 L532.9 511.2 L532.5 511.2 L532.1 511.2 L531.7 511.2 L531.7 511.7 L531.7 512.2 L531.7 512.6 Z" fill="#2f8f83" fill-opacity="0.34" stroke="#0e5b52" stroke-width="1.6" />
  <path d="M531.2 510.7 L531.2 511.2 L531.7 511.2 L532.1 511.2 L532.5 511.2 L532.9 511.2 L532.9 510.7 L532.9 510.2 L532.9 509.7 L532.9 509.2 L532.5 509.2 L532.1 509.2 L531.7 509.2 L531.2 509.2 L531.2 509.7 L531.2 510.2 L531.2 510.7 Z" fill="#2f8f83" fill-opacity="0.34" stroke="#0e5b52" stroke-width="1.6" />
  <path d="M527.4 518.5 L527.4 519.0 L527.8 519.0 L528.2 519.0 L528.7 519.0 L529.1 519.0 L529.5 519.0 L529.9 519.0 L530.4 519.0 L530.8 519.0 L530.8 518.5 L530.4 518.5 L530.4 518.0 L529.9 518.0 L529.5 518.0 L529.5 517.5 L529.1 517.5 L528.7 517.5 L528.2 517.5 L527.8 517.5 L527.4 517.5 L527.4 518.0 L527.4 518.5 Z" fill="#2f8f83" fill-opacity="0.34" stroke="#0e5b52" stroke-width="1.6" />
  <path d="M526.5 518.5 L526.5 519.0 L527.0 519.0 L527.4 519.0 L527.4 518.5 L527.4 518.0 L527.4 517.5 L527.4 517.0 L527.0 517.0 L526.5 517.0 L526.5 517.5 L526.5 518.0 L526.5 518.5 Z" fill="#2f8f83" fill-opacity="0.34" stroke="#0e5b52" stroke-width="1.6" />
  <path d="M494.9 159.3 L494.9 159.8 L495.3 159.8 L495.3 159.3 L495.3 158.7 L495.3 158.2 L495.7 158.2 L496.2 158.2 L496.2 157.7 L495.7 157.7 L495.3 157.7 L494.9 157.7 L494.9 158.2 L494.9 158.7 L494.9 159.3 Z" fill="#2f8f83" fill-opacity="0.34" stroke="#0e5b52" stroke-width="1.6" />
  <path d="M528.2 520.4 L528.2 520.9 L528.7 520.9 L529.1 520.9 L529.5 520.9 L529.9 520.9 L530.4 520.9 L530.8 520.9 L530.8 520.4 L530.8 519.9 L530.8 519.5 L530.8 519.0 L530.4 519.0 L529.9 519.0 L529.5 519.0 L529.1 519.0 L528.7 519.0 L528.2 519.0 L528.2 519.5 L528.2 519.9 L528.2 520.4 Z" fill="#2f8f83" fill-opacity="0.34" stroke="#0e5b52" stroke-width="1.6" />
  <path d="M530.8 520.4 L530.8 520.9 L531.2 520.9 L531.7 520.9 L532.1 520.9 L532.5 520.9 L532.9 520.9 L533.4 520.9 L533.4 520.4 L533.4 519.9 L533.4 519.5 L533.4 519.0 L532.9 519.0 L532.5 519.0 L532.1 519.0 L531.7 519.0 L531.2 519.0 L530.8 519.0 L530.8 519.5 L530.8 519.9 L530.8 520.4 Z" fill="#2f8f83" fill-opacity="0.34" stroke="#0e5b52" stroke-width="1.6" />
  <path d="M526.5 514.6 L526.5 515.1 L527.0 515.1 L527.0 514.6 L527.4 514.6 L527.4 514.1 L527.4 513.6 L527.4 513.1 L527.0 513.1 L526.5 513.1 L526.5 513.6 L526.5 514.1 L526.5 514.6 Z" fill="#2f8f83" fill-opacity="0.34" stroke="#0e5b52" stroke-width="1.6" />
  <path d="M527.4 521.4 L527.4 521.9 L527.8 521.9 L528.2 521.9 L528.7 521.9 L529.1 521.9 L529.5 521.9 L529.9 521.9 L530.4 521.9 L530.8 521.9 L530.8 521.4 L530.8 520.9 L530.4 520.9 L529.9 520.9 L529.5 520.9 L529.1 520.9 L528.7 520.9 L528.2 520.9 L528.2 520.4 L528.2 519.9 L528.2 519.5 L528.2 519.0 L527.8 519.0 L527.4 519.0 L527.4 519.5 L527.4 519.9 L527.4 520.4 L527.4 520.9 L527.4 521.4 Z" fill="#2f8f83" fill-opacity="0.34" stroke="#0e5b52" stroke-width="1.6" />
  <path d="M530.8 521.4 L530.8 521.9 L531.2 521.9 L531.7 521.9 L532.1 521.9 L532.5 521.9 L532.9 521.9 L533.4 521.9 L533.8 521.9 L534.2 521.9 L534.2 521.4 L534.2 520.9 L534.2 520.4 L534.2 519.9 L534.2 519.5 L534.2 519.0 L533.8 519.0 L533.4 519.0 L533.4 519.5 L533.4 519.9 L533.4 520.4 L533.4 520.9 L532.9 520.9 L532.5 520.9 L532.1 520.9 L531.7 520.9 L531.2 520.9 L530.8 520.9 L530.8 521.4 Z" fill="#2f8f83" fill-opacity="0.34" stroke="#0e5b52" stroke-width="1.6" />
  <path d="M477.8 130.8 L477.3 130.8 L477.3 131.3 L477.8 131.3 L477.8 130.8 Z" fill="#2f8f83" fill-opacity="0.34" stroke="#0e5b52" stroke-width="1.6" />
  <path d="M479.0 131.9 L478.6 131.9 L478.6 132.4 L479.0 132.4 L479.0 131.9 Z" fill="#2f8f83" fill-opacity="0.34" stroke="#0e5b52" stroke-width="1.6" />
  <path d="M534.2 521.4 L534.2 521.9 L534.6 521.9 L535.1 521.9 L535.5 521.9 L535.9 521.9 L535.9 521.4 L535.9 520.9 L535.9 520.4 L535.9 519.9 L535.9 519.5 L535.9 519.0 L535.5 519.0 L535.1 519.0 L534.6 519.0 L534.2 519.0 L534.2 519.5 L534.2 519.9 L534.2 520.4 L534.2 520.9 L534.2 521.4 Z" fill="#2f8f83" fill-opacity="0.34" stroke="#0e5b52" stroke-width="1.6" />
  <path d="M534.2 516.5 L534.2 517.0 L534.6 517.0 L534.6 517.5 L534.6 518.0 L534.6 518.5 L534.6 519.0 L535.1 519.0 L535.5 519.0 L535.9 519.0 L535.9 518.5 L535.9 518.0 L535.9 517.5 L535.9 517.0 L535.9 516.5 L535.9 516.1 L535.5 516.1 L535.1 516.1 L534.6 516.1 L534.2 516.1 L534.2 516.5 Z" fill="#2f8f83" fill-opacity="0.34" stroke="#0e5b52" stroke-width="1.6" />
  <path d="M533.8 523.4 L533.8 523.8 L534.2 523.8 L534.6 523.8 L535.1 523.8 L535.5 523.8 L535.9 523.8 L536.4 523.8 L536.4 523.4 L536.4 522.9 L536.4 522.4 L536.4 521.9 L535.9 521.9 L535.5 521.9 L535.1 521.9 L534.6 521.9 L534.2 521.9 L533.8 521.9 L533.8 522.4 L533.8 522.9 L533.8 523.4 Z" fill="#2f8f83" fill-opacity="0.34" stroke="#0e5b52" stroke-width="1.6" />
  <path d="M531.7 523.4 L531.7 523.8 L532.1 523.8 L532.5 523.8 L532.9 523.8 L533.4 523.8 L533.8 523.8 L533.8 523.4 L533.8 522.9 L533.8 522.4 L533.8 521.9 L533.4 521.9 L532.9 521.9 L532.5 521.9 L532.1 521.9 L531.7 521.9 L531.7 522.4 L531.7 522.9 L531.7 523.4 Z" fill="#2f8f83" fill-opacity="0.34" stroke="#0e5b52" stroke-width="1.6" />
  <path d="M529.5 523.4 L529.5 523.8 L529.9 523.8 L530.4 523.8 L530.8 523.8 L531.2 523.8 L531.7 523.8 L531.7 523.4 L531.7 522.9 L531.7 522.4 L531.7 521.9 L531.2 521.9 L530.8 521.9 L530.4 521.9 L529.9 521.9 L529.5 521.9 L529.5 522.4 L529.5 522.9 L529.5 523.4 Z" fill="#2f8f83" fill-opacity="0.34" stroke="#0e5b52" stroke-width="1.6" />
  <path d="M527.4 523.4 L527.4 523.8 L527.8 523.8 L528.2 523.8 L528.7 523.8 L529.1 523.8 L529.5 523.8 L529.5 523.4 L529.5 522.9 L529.5 522.4 L529.5 521.9 L529.1 521.9 L528.7 521.9 L528.2 521.9 L527.8 521.9 L527.4 521.9 L527.4 522.4 L527.4 522.9 L527.4 523.4 Z" fill="#2f8f83" fill-opacity="0.34" stroke="#0e5b52" stroke-width="1.6" />
  <path d="M526.5 523.4 L526.5 523.8 L527.0 523.8 L527.4 523.8 L527.4 523.4 L527.4 522.9 L527.4 522.4 L527.4 521.9 L527.4 521.4 L527.4 520.9 L527.4 520.4 L527.4 519.9 L527.4 519.5 L527.4 519.0 L527.0 519.0 L526.5 519.0 L526.5 519.5 L526.5 519.9 L526.5 520.4 L526.5 520.9 L526.5 521.4 L526.5 521.9 L526.5 522.4 L526.5 522.9 L526.5 523.4 Z" fill="#2f8f83" fill-opacity="0.34" stroke="#0e5b52" stroke-width="1.6" />
  <path d="M501.7 160.3 L501.7 160.8 L502.1 160.8 L502.6 160.8 L503.0 160.8 L503.4 160.8 L503.4 160.3 L503.4 159.8 L503.4 159.3 L503.4 158.7 L503.4 158.2 L503.4 157.7 L503.0 157.7 L502.6 157.7 L502.1 157.7 L501.7 157.7 L501.7 158.2 L501.7 158.7 L501.7 159.3 L501.7 159.8 L501.7 160.3 Z" fill="#2f8f83" fill-opacity="0.34" stroke="#0e5b52" stroke-width="1.6" />
  <path d="M501.3 164.0 L501.3 164.5 L501.7 164.5 L502.1 164.5 L502.6 164.5 L503.0 164.5 L503.4 164.5 L503.4 164.0 L503.4 163.5 L503.4 162.9 L503.0 162.9 L503.0 162.4 L503.0 161.9 L503.4 161.9 L503.4 161.4 L503.4 160.8 L503.0 160.8 L502.6 160.8 L502.1 160.8 L502.1 161.4 L502.1 161.9 L501.7 161.9 L501.7 162.4 L501.7 162.9 L501.3 162.9 L501.3 163.5 L501.3 164.0 Z M503.0 161.9 L502.6 161.9 L502.6 161.4 L503.0 161.4 L503.0 161.9 Z" fill="#2f8f83" fill-opacity="0.34" stroke="#0e5b52" stroke-width="1.6" />
  <path d="M501.3 162.4 L501.3 162.9 L501.7 162.9 L501.7 162.4 L501.7 161.9 L501.3 161.9 L501.3 162.4 Z" fill="#2f8f83" fill-opacity="0.34" stroke="#0e5b52" stroke-width="1.6" />
  <path d="M532.9 516.5 L532.9 517.0 L533.4 517.0 L533.8 517.0 L534.2 517.0 L534.2 516.5 L534.2 516.1 L534.2 515.6 L534.2 515.1 L534.2 514.6 L533.8 514.6 L533.4 514.6 L532.9 514.6 L532.9 515.1 L532.9 515.6 L532.9 516.1 L532.9 516.5 Z" fill="#2f8f83" fill-opacity="0.34" stroke="#0e5b52" stroke-width="1.6" />
  <path d="M532.9 518.5 L532.9 519.0 L533.4 519.0 L533.8 519.0 L534.2 519.0 L534.6 519.0 L534.6 518.5 L534.6 518.0 L534.6 517.5 L534.6 517.0 L534.2 517.0 L533.8 517.0 L533.4 517.0 L532.9 517.0 L532.9 517.5 L532.9 518.0 L532.9 518.5 Z" fill="#2f8f83" fill-opacity="0.34" stroke="#0e5b52" stroke-width="1.6" />
  <path d="M535.5 513.1 L535.1 513.1 L535.1 513.6 L535.5 513.6 L535.5 513.1 Z" fill="#2f8f83" fill-opacity="0.34" stroke="#0e5b52" stroke-width="1.6" />
  <path d="M503.0 161.4 L502.6 161.4 L502.6 161.9 L503.0 161.9 L503.0 161.4 Z" fill="#2f8f83" fill-opacity="0.34" stroke="#0e5b52" stroke-width="1.6" />
  <path d="M503.4 161.9 L503.4 162.4 L503.8 162.4 L503.8 161.9 L503.8 161.4 L503.4 161.4 L503.4 161.9 Z" fill="#2f8f83" fill-opacity="0.34" stroke="#0e5b52" stroke-width="1.6" />
  <path d="M503.8 164.0 L503.4 164.0 L503.4 164.5 L503.8 164.5 L503.8 164.0 Z" fill="#2f8f83" fill-opacity="0.34" stroke="#0e5b52" stroke-width="1.6" />
  <path d="M503.0 162.4 L503.0 162.9 L503.4 162.9 L503.4 162.4 L503.4 161.9 L503.0 161.9 L503.0 162.4 Z" fill="#2f8f83" fill-opacity="0.34" stroke="#0e5b52" stroke-width="1.6" />
  <path d="M491.9 291.2 L491.4 291.2 L491.4 291.8 L491.9 291.8 L491.9 291.2 Z" fill="#2f8f83" fill-opacity="0.34" stroke="#0e5b52" stroke-width="1.6" />
  <path d="M478.6 131.9 L478.2 131.9 L478.2 132.4 L478.6 132.4 L478.6 131.9 Z" fill="#2f8f83" fill-opacity="0.34" stroke="#0e5b52" stroke-width="1.6" />
  <path d="M478.2 131.9 L477.8 131.9 L477.8 132.4 L478.2 132.4 L478.2 131.9 Z" fill="#2f8f83" fill-opacity="0.34" stroke="#0e5b52" stroke-width="1.6" />
  <path d="M479.5 132.4 L479.9 132.4 L480.3 132.4 L480.3 131.9 L479.9 131.9 L479.5 131.9 L479.0 131.9 L479.0 132.4 L479.5 132.4 Z" fill="#2f8f83" fill-opacity="0.34" stroke="#0e5b52" stroke-width="1.6" />
  <path d="M535.5 513.1 L535.5 513.6 L535.9 513.6 L535.9 513.1 L535.9 512.6 L535.5 512.6 L535.1 512.6 L535.1 513.1 L535.5 513.1 Z" fill="#2f8f83" fill-opacity="0.34" stroke="#0e5b52" stroke-width="1.6" />
  <path d="M532.9 513.1 L532.9 513.6 L533.4 513.6 L533.8 513.6 L534.2 513.6 L534.6 513.6 L535.1 513.6 L535.1 513.1 L535.1 512.6 L534.6 512.6 L534.2 512.6 L533.8 512.6 L533.4 512.6 L532.9 512.6 L532.9 513.1 Z" fill="#2f8f83" fill-opacity="0.34" stroke="#0e5b52" stroke-width="1.6" />
  <path d="M486.7 125.5 L486.7 126.1 L487.2 126.1 L487.2 126.6 L487.6 126.6 L488.0 126.6 L488.5 126.6 L488.9 126.6 L489.3 126.6 L489.3 126.1 L489.7 126.1 L489.7 125.5 L489.7 125.0 L489.7 124.5 L489.7 123.9 L489.7 123.4 L489.3 123.4 L488.9 123.4 L488.5 123.4 L488.0 123.4 L487.6 123.4 L487.2 123.4 L486.7 123.4 L486.7 123.9 L486.7 124.5 L486.7 125.0 L486.7 125.5 Z" fill="#2f8f83" fill-opacity="0.34" stroke="#0e5b52" stroke-width="1.6" />
  <path d="M486.7 122.9 L486.7 123.4 L487.2 123.4 L487.6 123.4 L488.0 123.4 L488.5 123.4 L488.9 123.4 L489.3 123.4 L489.7 123.4 L490.2 123.4 L490.6 123.4 L490.6 122.9 L490.6 122.4 L490.6 121.8 L490.6 121.3 L490.6 120.8 L490.2 120.8 L489.7 120.8 L489.3 120.8 L488.9 120.8 L488.5 120.8 L488.0 120.8 L487.6 120.8 L487.2 120.8 L486.7 120.8 L486.7 121.3 L486.7 121.8 L486.7 122.4 L486.7 122.9 Z" fill="#2f8f83" fill-opacity="0.34" stroke="#0e5b52" stroke-width="1.6" />
  <path d="M530.8 511.2 L530.8 511.7 L531.2 511.7 L531.2 512.2 L531.2 512.6 L530.8 512.6 L530.8 513.1 L531.2 513.1 L531.7 513.1 L531.7 512.6 L531.7 512.2 L531.7 511.7 L531.7 511.2 L531.2 511.2 L531.2 510.7 L530.8 510.7 L530.8 511.2 Z" fill="#2f8f83" fill-opacity="0.34" stroke="#0e5b52" stroke-width="1.6" />
  <path d="M529.9 510.2 L529.5 510.2 L529.5 510.7 L529.9 510.7 L529.9 510.2 Z" fill="#2f8f83" fill-opacity="0.34" stroke="#0e5b52" stroke-width="1.6" />
  <path d="M532.9 514.1 L532.9 514.6 L533.4 514.6 L533.8 514.6 L534.2 514.6 L534.2 515.1 L534.2 515.6 L534.2 516.1 L534.6 516.1 L535.1 516.1 L535.5 516.1 L535.9 516.1 L536.4 516.1 L536.8 516.1 L537.2 516.1 L537.2 515.6 L537.2 515.1 L537.2 514.6 L536.8 514.6 L536.8 514.1 L536.8 513.6 L536.8 513.1 L536.8 512.6 L536.4 512.6 L536.4 513.1 L536.4 513.6 L536.4 514.1 L535.9 514.1 L535.5 514.1 L535.5 513.6 L535.1 513.6 L534.6 513.6 L534.2 513.6 L533.8 513.6 L533.4 513.6 L532.9 513.6 L532.9 514.1 Z" fill="#2f8f83" fill-opacity="0.34" stroke="#0e5b52" stroke-width="1.6" />
  <path d="M535.9 513.1 L535.9 513.6 L536.4 513.6 L536.4 513.1 L536.4 512.6 L535.9 512.6 L535.9 513.1 Z" fill="#2f8f83" fill-opacity="0.34" stroke="#0e5b52" stroke-width="1.6" />
  <path d="M536.8 514.1 L536.8 514.6 L537.2 514.6 L537.2 515.1 L537.2 515.6 L537.2 516.1 L537.6 516.1 L538.1 516.1 L538.5 516.1 L538.9 516.1 L538.9 515.6 L538.9 515.1 L538.9 514.6 L538.9 514.1 L538.9 513.6 L538.9 513.1 L538.9 512.6 L538.5 512.6 L538.1 512.6 L537.6 512.6 L537.2 512.6 L536.8 512.6 L536.8 513.1 L536.8 513.6 L536.8 514.1 Z" fill="#2f8f83" fill-opacity="0.34" stroke="#0e5b52" stroke-width="1.6" />
  <path d="M532.9 512.2 L532.9 512.6 L533.4 512.6 L533.8 512.6 L534.2 512.6 L534.6 512.6 L535.1 512.6 L535.5 512.6 L535.9 512.6 L536.4 512.6 L536.8 512.6 L537.2 512.6 L537.6 512.6 L538.1 512.6 L538.5 512.6 L538.5 512.2 L538.5 511.7 L538.5 511.2 L538.1 511.2 L537.6 511.2 L537.2 511.2 L536.8 511.2 L536.4 511.2 L535.9 511.2 L535.5 511.2 L535.1 511.2 L534.6 511.2 L534.2 511.2 L533.8 511.2 L533.4 511.2 L532.9 511.2 L532.9 511.7 L532.9 512.2 Z" fill="#2f8f83" fill-opacity="0.34" stroke="#0e5b52" stroke-width="1.6" />
  <path d="M491.9 292.3 L492.3 292.3 L492.7 292.3 L492.7 291.8 L492.7 291.2 L492.3 291.2 L491.9 291.2 L491.9 291.8 L491.4 291.8 L491.4 292.3 L491.9 292.3 Z" fill="#2f8f83" fill-opacity="0.34" stroke="#0e5b52" stroke-width="1.6" />
  <path d="M491.4 289.7 L491.4 290.2 L491.9 290.2 L492.3 290.2 L492.7 290.2 L492.7 289.7 L492.7 289.2 L492.7 288.7 L492.7 288.2 L492.3 288.2 L491.9 288.2 L491.4 288.2 L491.4 288.7 L491.4 289.2 L491.4 289.7 Z" fill="#2f8f83" fill-opacity="0.34" stroke="#0e5b52" stroke-width="1.6" />
  <path d="M490.2 290.7 L490.2 291.2 L490.6 291.2 L490.6 290.7 L490.6 290.2 L490.6 289.7 L490.2 289.7 L490.2 290.2 L490.2 290.7 Z" fill="#2f8f83" fill-opacity="0.34" stroke="#0e5b52" stroke-width="1.6" />
  <path d="M490.2 289.2 L490.2 289.7 L490.6 289.7 L491.0 289.7 L491.4 289.7 L491.4 289.2 L491.4 288.7 L491.4 288.2 L491.0 288.2 L490.6 288.2 L490.2 288.2 L490.2 288.7 L490.2 289.2 Z" fill="#2f8f83" fill-opacity="0.34" stroke="#0e5b52" stroke-width="1.6" />
  <path d="M490.6 291.8 L490.6 292.3 L491.0 292.3 L491.4 292.3 L491.4 291.8 L491.4 291.2 L491.0 291.2 L490.6 291.2 L490.6 291.8 Z" fill="#2f8f83" fill-opacity="0.34" stroke="#0e5b52" stroke-width="1.6" />
  <path d="M490.6 290.7 L490.6 291.2 L491.0 291.2 L491.4 291.2 L491.4 290.7 L491.4 290.2 L491.4 289.7 L491.0 289.7 L490.6 289.7 L490.6 290.2 L490.6 290.7 Z" fill="#2f8f83" fill-opacity="0.34" stroke="#0e5b52" stroke-width="1.6" />
  <path d="M491.4 290.7 L491.4 291.2 L491.9 291.2 L492.3 291.2 L492.7 291.2 L492.7 290.7 L492.7 290.2 L492.3 290.2 L491.9 290.2 L491.4 290.2 L491.4 290.7 Z" fill="#2f8f83" fill-opacity="0.34" stroke="#0e5b52" stroke-width="1.6" />
  <path d="M535.9 521.4 L535.9 521.9 L536.4 521.9 L536.8 521.9 L537.2 521.9 L537.6 521.9 L537.6 521.4 L537.6 520.9 L537.6 520.4 L537.6 519.9 L537.6 519.5 L537.6 519.0 L537.6 518.5 L537.6 518.0 L537.6 517.5 L537.6 517.0 L537.6 516.5 L537.6 516.1 L537.2 516.1 L536.8 516.1 L536.4 516.1 L535.9 516.1 L535.9 516.5 L535.9 517.0 L535.9 517.5 L535.9 518.0 L535.9 518.5 L535.9 519.0 L535.9 519.5 L535.9 519.9 L535.9 520.4 L535.9 520.9 L535.9 521.4 Z" fill="#2f8f83" fill-opacity="0.34" stroke="#0e5b52" stroke-width="1.6" />
  <path d="M532.9 510.7 L532.9 511.2 L533.4 511.2 L533.8 511.2 L534.2 511.2 L534.6 511.2 L535.1 511.2 L535.5 511.2 L535.9 511.2 L536.4 511.2 L536.8 511.2 L537.2 511.2 L537.6 511.2 L538.1 511.2 L538.5 511.2 L538.5 510.7 L538.5 510.2 L538.5 509.7 L538.5 509.2 L538.1 509.2 L537.6 509.2 L537.2 509.2 L536.8 509.2 L536.4 509.2 L535.9 509.2 L535.5 509.2 L535.1 509.2 L534.6 509.2 L534.2 509.2 L533.8 509.2 L533.4 509.2 L532.9 509.2 L532.9 509.7 L532.9 510.2 L532.9 510.7 Z" fill="#2f8f83" fill-opacity="0.34" stroke="#0e5b52" stroke-width="1.6" />
  <path d="M527.0 510.2 L527.0 510.7 L527.4 510.7 L527.8 510.7 L528.2 510.7 L528.2 510.2 L528.2 509.7 L528.2 509.2 L528.7 509.2 L529.1 509.2 L529.5 509.2 L529.9 509.2 L530.4 509.2 L530.8 509.2 L531.2 509.2 L531.7 509.2 L531.7 508.7 L531.7 508.3 L531.7 507.8 L531.2 507.8 L530.8 507.8 L530.4 507.8 L529.9 507.8 L529.5 507.8 L529.1 507.8 L528.7 507.8 L528.2 507.8 L527.8 507.8 L527.4 507.8 L527.0 507.8 L527.0 508.3 L527.0 508.7 L527.0 509.2 L527.0 509.7 L527.0 510.2 Z" fill="#2f8f83" fill-opacity="0.34" stroke="#0e5b52" stroke-width="1.6" />
  <path d="M537.6 517.5 L537.6 518.0 L538.1 518.0 L538.5 518.0 L538.9 518.0 L539.4 518.0 L539.8 518.0 L540.2 518.0 L540.6 518.0 L540.6 517.5 L540.6 517.0 L540.6 516.5 L540.6 516.1 L540.6 515.6 L540.6 515.1 L540.6 514.6 L540.6 514.1 L540.6 513.6 L540.2 513.6 L539.8 513.6 L539.4 513.6 L538.9 513.6 L538.9 514.1 L538.9 514.6 L538.9 515.1 L538.9 515.6 L538.9 516.1 L538.5 516.1 L538.1 516.1 L537.6 516.1 L537.6 516.5 L537.6 517.0 L537.6 517.5 Z" fill="#2f8f83" fill-opacity="0.34" stroke="#0e5b52" stroke-width="1.6" />
  <path d="M535.9 514.1 L536.4 514.1 L536.4 513.6 L535.9 513.6 L535.5 513.6 L535.5 514.1 L535.9 514.1 Z" fill="#2f8f83" fill-opacity="0.34" stroke="#0e5b52" stroke-width="1.6" />
  <path d="M481.6 125.0 L481.6 125.5 L482.0 125.5 L482.0 125.0 L482.0 124.5 L482.0 123.9 L481.6 123.9 L481.6 124.5 L481.6 125.0 Z" fill="#2f8f83" fill-opacity="0.34" stroke="#0e5b52" stroke-width="1.6" />
  <path d="M490.6 122.9 L490.6 123.4 L491.0 123.4 L491.5 123.4 L491.9 123.4 L492.3 123.4 L492.3 122.9 L492.3 122.4 L492.3 121.8 L491.9 121.8 L491.5 121.8 L491.0 121.8 L490.6 121.8 L490.6 122.4 L490.6 122.9 Z" fill="#2f8f83" fill-opacity="0.34" stroke="#0e5b52" stroke-width="1.6" />
  <path d="M482.9 126.6 L483.3 126.6 L483.8 126.6 L484.2 126.6 L484.6 126.6 L484.6 126.1 L484.2 126.1 L483.8 126.1 L483.3 126.1 L482.9 126.1 L482.5 126.1 L482.5 126.6 L482.9 126.6 Z" fill="#2f8f83" fill-opacity="0.34" stroke="#0e5b52" stroke-width="1.6" />
  <path d="M525.2 512.2 L525.2 512.6 L525.7 512.6 L526.1 512.6 L526.5 512.6 L527.0 512.6 L527.0 512.2 L527.0 511.7 L527.0 511.2 L527.0 510.7 L527.0 510.2 L527.0 509.7 L527.0 509.2 L527.0 508.7 L527.0 508.3 L527.0 507.8 L527.4 507.8 L527.8 507.8 L528.2 507.8 L528.7 507.8 L529.1 507.8 L529.5 507.8 L529.9 507.8 L530.4 507.8 L530.4 507.3 L530.4 506.8 L530.4 506.3 L529.9 506.3 L529.5 506.3 L529.1 506.3 L528.7 506.3 L528.2 506.3 L527.8 506.3 L527.4 506.3 L527.0 506.3 L526.5 506.3 L526.1 506.3 L525.7 506.3 L525.2 506.3 L525.2 506.8 L525.2 507.3 L525.2 507.8 L525.2 508.3 L525.2 508.7 L525.2 509.2 L525.2 509.7 L525.2 510.2 L525.2 510.7 L525.2 511.2 L525.2 511.7 L525.2 512.2 Z" fill="#2f8f83" fill-opacity="0.34" stroke="#0e5b52" stroke-width="1.6" />
  <path d="M523.1 512.6 L523.1 513.1 L523.5 513.1 L524.0 513.1 L524.4 513.1 L524.8 513.1 L525.2 513.1 L525.2 512.6 L525.2 512.2 L525.2 511.7 L525.2 511.2 L525.2 510.7 L525.2 510.2 L525.2 509.7 L525.2 509.2 L525.2 508.7 L525.2 508.3 L525.2 507.8 L525.2 507.3 L525.2 506.8 L525.2 506.3 L524.8 506.3 L524.4 506.3 L524.0 506.3 L523.5 506.3 L523.1 506.3 L523.1 506.8 L523.1 507.3 L523.1 507.8 L523.1 508.3 L523.1 508.7 L523.1 509.2 L523.1 509.7 L523.1 510.2 L523.1 510.7 L523.1 511.2 L523.1 511.7 L523.1 512.2 L523.1 512.6 Z" fill="#2f8f83" fill-opacity="0.34" stroke="#0e5b52" stroke-width="1.6" />
  <path d="M521.0 510.7 L521.0 511.2 L521.4 511.2 L521.8 511.2 L522.2 511.2 L522.7 511.2 L523.1 511.2 L523.1 510.7 L523.1 510.2 L523.1 509.7 L523.1 509.2 L523.1 508.7 L523.1 508.3 L523.1 507.8 L523.1 507.3 L523.1 506.8 L523.1 506.3 L523.1 505.8 L523.1 505.3 L523.1 504.8 L522.7 504.8 L522.2 504.8 L521.8 504.8 L521.4 504.8 L521.0 504.8 L521.0 505.3 L521.0 505.8 L521.0 506.3 L521.0 506.8 L521.0 507.3 L521.0 507.8 L521.0 508.3 L521.0 508.7 L521.0 509.2 L521.0 509.7 L521.0 510.2 L521.0 510.7 Z" fill="#2f8f83" fill-opacity="0.34" stroke="#0e5b52" stroke-width="1.6" />
  <path d="M516.7 508.7 L516.7 509.2 L517.1 509.2 L517.5 509.2 L518.0 509.2 L518.4 509.2 L518.8 509.2 L518.8 509.7 L518.8 510.2 L518.8 510.7 L518.8 511.2 L519.3 511.2 L519.7 511.2 L520.1 511.2 L520.5 511.2 L521.0 511.2 L521.0 510.7 L521.0 510.2 L521.0 509.7 L521.0 509.2 L521.0 508.7 L521.0 508.3 L521.0 507.8 L521.0 507.3 L521.0 506.8 L521.0 506.3 L521.0 505.8 L521.0 505.3 L521.0 504.8 L520.5 504.8 L520.1 504.8 L519.7 504.8 L519.3 504.8 L518.8 504.8 L518.8 505.3 L518.8 505.8 L518.8 506.3 L518.4 506.3 L518.0 506.3 L517.5 506.3 L517.1 506.3 L516.7 506.3 L516.7 506.8 L516.7 507.3 L516.7 507.8 L516.7 508.3 L516.7 508.7 Z" fill="#2f8f83" fill-opacity="0.34" stroke="#0e5b52" stroke-width="1.6" />
  <path d="M477.3 131.3 L476.9 131.3 L476.9 131.9 L477.3 131.9 L477.3 131.3 Z" fill="#2f8f83" fill-opacity="0.34" stroke="#0e5b52" stroke-width="1.6" />
  <path d="M481.2 123.9 L481.2 124.5 L481.6 124.5 L481.6 123.9 L481.6 123.4 L481.6 122.9 L481.6 122.4 L481.6 121.8 L481.6 121.3 L481.2 121.3 L481.2 121.8 L481.2 122.4 L481.2 122.9 L481.2 123.4 L481.2 123.9 Z" fill="#2f8f83" fill-opacity="0.34" stroke="#0e5b52" stroke-width="1.6" />
  <path d="M479.0 129.2 L479.0 129.8 L479.5 129.8 L479.5 129.2 L479.5 128.7 L479.5 128.2 L479.5 127.6 L479.0 127.6 L479.0 128.2 L479.0 128.7 L479.0 129.2 Z" fill="#2f8f83" fill-opacity="0.34" stroke="#0e5b52" stroke-width="1.6" />
  <path d="M490.6 294.8 L490.6 295.3 L491.0 295.3 L491.4 295.3 L491.9 295.3 L492.3 295.3 L492.7 295.3 L493.2 295.3 L493.6 295.3 L494.0 295.3 L494.0 294.8 L494.0 294.3 L494.0 293.8 L494.0 293.3 L494.0 292.8 L494.0 292.3 L493.6 292.3 L493.2 292.3 L492.7 292.3 L492.3 292.3 L491.9 292.3 L491.4 292.3 L491.0 292.3 L490.6 292.3 L490.6 292.8 L490.6 293.3 L490.6 293.8 L490.6 294.3 L490.6 294.8 Z" fill="#2f8f83" fill-opacity="0.34" stroke="#0e5b52" stroke-width="1.6" />
  <path d="M489.3 292.3 L489.3 292.8 L489.7 292.8 L490.2 292.8 L490.6 292.8 L490.6 292.3 L490.6 291.8 L490.6 291.2 L490.2 291.2 L490.2 290.7 L489.7 290.7 L489.3 290.7 L489.3 291.2 L489.3 291.8 L489.3 292.3 Z" fill="#2f8f83" fill-opacity="0.34" stroke="#0e5b52" stroke-width="1.6" />
  <path d="M477.3 130.8 L476.9 130.8 L476.9 131.3 L477.3 131.3 L477.3 130.8 Z" fill="#2f8f83" fill-opacity="0.34" stroke="#0e5b52" stroke-width="1.6" />
  <path d="M477.8 133.5 L478.2 133.5 L478.2 132.9 L478.2 132.4 L477.8 132.4 L477.8 132.9 L477.3 132.9 L477.3 133.5 L477.8 133.5 Z" fill="#2f8f83" fill-opacity="0.34" stroke="#0e5b52" stroke-width="1.6" />
  <path d="M487.2 289.2 L487.2 289.7 L487.6 289.7 L488.0 289.7 L488.4 289.7 L488.4 290.2 L488.4 290.7 L488.4 291.2 L488.4 291.8 L488.9 291.8 L489.3 291.8 L489.3 291.2 L489.3 290.7 L489.7 290.7 L490.2 290.7 L490.2 290.2 L490.2 289.7 L490.2 289.2 L490.2 288.7 L490.2 288.2 L489.7 288.2 L489.3 288.2 L488.9 288.2 L488.4 288.2 L488.0 288.2 L487.6 288.2 L487.2 288.2 L487.2 288.7 L487.2 289.2 Z" fill="#2f8f83" fill-opacity="0.34" stroke="#0e5b52" stroke-width="1.6" />
  <path d="M490.6 295.8 L490.6 296.3 L491.0 296.3 L491.4 296.3 L491.9 296.3 L491.9 296.9 L492.3 296.9 L492.3 297.4 L492.7 297.4 L492.7 297.9 L493.2 297.9 L493.2 298.4 L493.6 298.4 L493.6 298.9 L494.0 298.9 L494.4 298.9 L494.9 298.9 L495.3 298.9 L495.7 298.9 L495.7 298.4 L495.7 297.9 L495.7 297.4 L495.3 297.4 L495.3 296.9 L494.9 296.9 L494.4 296.9 L494.0 296.9 L494.0 296.3 L494.0 295.8 L494.0 295.3 L493.6 295.3 L493.2 295.3 L492.7 295.3 L492.3 295.3 L491.9 295.3 L491.4 295.3 L491.0 295.3 L490.6 295.3 L490.6 295.8 Z" fill="#2f8f83" fill-opacity="0.34" stroke="#0e5b52" stroke-width="1.6" />
  <path d="M492.3 301.9 L492.3 302.5 L492.7 302.5 L493.2 302.5 L493.6 302.5 L494.0 302.5 L494.4 302.5 L494.9 302.5 L495.3 302.5 L495.7 302.5 L496.1 302.5 L496.1 301.9 L496.1 301.4 L496.1 300.9 L496.1 300.4 L496.1 299.9 L496.1 299.4 L496.1 298.9 L495.7 298.9 L495.3 298.9 L494.9 298.9 L494.4 298.9 L494.0 298.9 L493.6 298.9 L493.6 298.4 L493.2 298.4 L493.2 297.9 L492.7 297.9 L492.7 297.4 L492.3 297.4 L492.3 297.9 L492.3 298.4 L492.3 298.9 L492.3 299.4 L492.3 299.9 L492.3 300.4 L492.3 300.9 L492.3 301.4 L492.3 301.9 Z" fill="#2f8f83" fill-opacity="0.34" stroke="#0e5b52" stroke-width="1.6" />
  <path d="M489.3 301.9 L489.3 302.5 L489.7 302.5 L490.2 302.5 L490.6 302.5 L491.0 302.5 L491.4 302.5 L491.9 302.5 L492.3 302.5 L492.3 301.9 L492.3 301.4 L492.3 300.9 L492.3 300.4 L492.3 299.9 L492.3 299.4 L492.3 298.9 L492.3 298.4 L492.3 297.9 L492.3 297.4 L492.3 296.9 L491.9 296.9 L491.9 296.3 L491.4 296.3 L491.0 296.3 L490.6 296.3 L490.6 295.8 L490.6 295.3 L490.6 294.8 L490.2 294.8 L489.7 294.8 L489.3 294.8 L489.3 295.3 L489.3 295.8 L489.3 296.3 L489.3 296.9 L489.3 297.4 L489.3 297.9 L489.3 298.4 L489.3 298.9 L489.3 299.4 L489.3 299.9 L489.3 300.4 L489.3 300.9 L489.3 301.4 L489.3 301.9 Z" fill="#2f8f83" fill-opacity="0.34" stroke="#0e5b52" stroke-width="1.6" />
  <path d="M481.2 299.9 L481.2 300.4 L481.6 300.4 L482.0 300.4 L482.5 300.4 L482.9 300.4 L483.3 300.4 L483.7 300.4 L484.2 300.4 L484.6 300.4 L485.0 300.4 L485.5 300.4 L485.9 300.4 L485.9 299.9 L485.9 299.4 L485.9 298.9 L485.9 298.4 L485.9 297.9 L485.9 297.4 L485.9 296.9 L485.9 296.3 L485.9 295.8 L485.5 295.8 L485.0 295.8 L484.6 295.8 L484.2 295.8 L483.7 295.8 L483.3 295.8 L482.9 295.8 L482.5 295.8 L482.0 295.8 L481.6 295.8 L481.2 295.8 L481.2 296.3 L481.2 296.9 L481.2 297.4 L481.2 297.9 L481.2 298.4 L481.2 298.9 L481.2 299.4 L481.2 299.9 Z" fill="#2f8f83" fill-opacity="0.34" stroke="#0e5b52" stroke-width="1.6" />
  <path d="M485.9 299.9 L485.9 300.4 L486.3 300.4 L486.7 300.4 L487.2 300.4 L487.6 300.4 L488.0 300.4 L488.4 300.4 L488.9 300.4 L489.3 300.4 L489.3 299.9 L489.3 299.4 L488.9 299.4 L488.4 299.4 L488.0 299.4 L487.6 299.4 L487.2 299.4 L486.7 299.4 L486.3 299.4 L485.9 299.4 L485.9 299.9 Z" fill="#2f8f83" fill-opacity="0.34" stroke="#0e5b52" stroke-width="1.6" />
  <path d="M476.9 304.5 L476.9 305.0 L477.3 305.0 L477.8 305.0 L478.2 305.0 L478.6 305.0 L479.0 305.0 L479.5 305.0 L479.9 305.0 L480.3 305.0 L480.3 304.5 L480.3 304.0 L480.3 303.5 L480.3 303.0 L480.3 302.5 L480.3 301.9 L480.3 301.4 L480.7 301.4 L481.2 301.4 L481.6 301.4 L482.0 301.4 L482.0 300.9 L482.0 300.4 L481.6 300.4 L481.2 300.4 L480.7 300.4 L480.3 300.4 L480.3 299.9 L479.9 299.9 L479.5 299.9 L479.0 299.9 L478.6 299.9 L478.2 299.9 L477.8 299.9 L477.3 299.9 L476.9 299.9 L476.9 300.4 L476.9 300.9 L476.9 301.4 L476.9 301.9 L476.9 302.5 L476.9 303.0 L476.9 303.5 L476.9 304.0 L476.9 304.5 Z" fill="#2f8f83" fill-opacity="0.34" stroke="#0e5b52" stroke-width="1.6" />
  <path d="M475.2 303.0 L475.2 303.5 L475.6 303.5 L476.0 303.5 L476.5 303.5 L476.9 303.5 L476.9 303.0 L476.9 302.5 L476.9 301.9 L476.9 301.4 L476.9 300.9 L476.9 300.4 L476.9 299.9 L476.9 299.4 L476.9 298.9 L476.5 298.9 L476.0 298.9 L475.6 298.9 L475.2 298.9 L474.8 298.9 L474.8 299.4 L475.2 299.4 L475.2 299.9 L475.2 300.4 L475.2 300.9 L475.2 301.4 L475.2 301.9 L475.2 302.5 L475.2 303.0 Z" fill="#2f8f83" fill-opacity="0.34" stroke="#0e5b52" stroke-width="1.6" />
  <path d="M476.5 133.5 L476.5 134.0 L476.9 134.0 L477.3 134.0 L477.3 133.5 L476.9 133.5 L476.9 132.9 L476.9 132.4 L476.9 131.9 L476.5 131.9 L476.5 132.4 L476.5 132.9 L476.5 133.5 Z" fill="#2f8f83" fill-opacity="0.34" stroke="#0e5b52" stroke-width="1.6" />
  <path d="M478.6 131.3 L478.6 131.9 L479.0 131.9 L479.5 131.9 L479.9 131.9 L480.3 131.9 L480.3 131.3 L480.3 130.8 L479.9 130.8 L479.5 130.8 L479.0 130.8 L478.6 130.8 L478.6 131.3 Z" fill="#2f8f83" fill-opacity="0.34" stroke="#0e5b52" stroke-width="1.6" />
  <path d="M477.8 131.3 L477.8 131.9 L478.2 131.9 L478.6 131.9 L478.6 131.3 L478.6 130.8 L478.2 130.8 L477.8 130.8 L477.8 131.3 Z" fill="#2f8f83" fill-opacity="0.34" stroke="#0e5b52" stroke-width="1.6" />
  <path d="M484.2 293.3 L484.2 293.8 L484.6 293.8 L485.0 293.8 L485.5 293.8 L485.9 293.8 L486.3 293.8 L486.7 293.8 L487.2 293.8 L487.6 293.8 L488.0 293.8 L488.4 293.8 L488.9 293.8 L489.3 293.8 L489.7 293.8 L490.2 293.8 L490.6 293.8 L490.6 293.3 L490.6 292.8 L490.2 292.8 L489.7 292.8 L489.3 292.8 L489.3 292.3 L489.3 291.8 L488.9 291.8 L488.4 291.8 L488.4 291.2 L488.4 290.7 L488.4 290.2 L488.4 289.7 L488.0 289.7 L487.6 289.7 L487.2 289.7 L486.7 289.7 L486.3 289.7 L485.9 289.7 L485.5 289.7 L485.0 289.7 L484.6 289.7 L484.2 289.7 L484.2 290.2 L484.2 290.7 L484.2 291.2 L484.2 291.8 L484.2 292.3 L484.2 292.8 L484.2 293.3 Z M485.9 292.3 L485.9 291.8 L486.3 291.8 L486.3 292.3 L486.3 292.8 L485.9 292.8 L485.9 292.3 Z" fill="#2f8f83" fill-opacity="0.34" stroke="#0e5b52" stroke-width="1.6" />
  <path d="M485.9 298.9 L485.9 299.4 L486.3 299.4 L486.7 299.4 L487.2 299.4 L487.6 299.4 L488.0 299.4 L488.4 299.4 L488.9 299.4 L489.3 299.4 L489.3 298.9 L489.3 298.4 L489.3 297.9 L489.3 297.4 L489.3 296.9 L489.3 296.3 L489.3 295.8 L489.3 295.3 L489.3 294.8 L489.7 294.8 L490.2 294.8 L490.6 294.8 L490.6 294.3 L490.6 293.8 L490.2 293.8 L489.7 293.8 L489.3 293.8 L488.9 293.8 L488.4 293.8 L488.0 293.8 L487.6 293.8 L487.2 293.8 L486.7 293.8 L486.3 293.8 L485.9 293.8 L485.9 294.3 L485.9 294.8 L485.9 295.3 L485.9 295.8 L485.9 296.3 L485.9 296.9 L485.9 297.4 L485.9 297.9 L485.9 298.4 L485.9 298.9 Z" fill="#2f8f83" fill-opacity="0.34" stroke="#0e5b52" stroke-width="1.6" />
  <path d="M481.2 295.3 L481.2 295.8 L481.6 295.8 L482.0 295.8 L482.5 295.8 L482.9 295.8 L483.3 295.8 L483.7 295.8 L484.2 295.8 L484.6 295.8 L485.0 295.8 L485.5 295.8 L485.9 295.8 L485.9 295.3 L485.9 294.8 L485.9 294.3 L485.9 293.8 L485.5 293.8 L485.0 293.8 L484.6 293.8 L484.2 293.8 L484.2 293.3 L484.2 292.8 L484.2 292.3 L484.2 291.8 L483.7 291.8 L483.3 291.8 L482.9 291.8 L482.5 291.8 L482.0 291.8 L481.6 291.8 L481.2 291.8 L481.2 292.3 L481.2 292.8 L481.2 293.3 L481.2 293.8 L481.2 294.3 L481.2 294.8 L481.2 295.3 Z" fill="#2f8f83" fill-opacity="0.34" stroke="#0e5b52" stroke-width="1.6" />
  <path d="M459.8 273.3 L459.8 273.9 L460.2 273.9 L460.6 273.9 L461.1 273.9 L461.5 273.9 L461.9 273.9 L462.4 273.9 L462.8 273.9 L463.2 273.9 L463.6 273.9 L464.1 273.9 L464.5 273.9 L464.5 273.3 L464.5 272.8 L464.5 272.3 L464.5 271.8 L464.5 271.3 L464.5 270.8 L464.5 270.3 L464.5 269.8 L464.5 269.2 L464.5 268.7 L464.1 268.7 L463.6 268.7 L463.2 268.7 L462.8 268.7 L462.4 268.7 L461.9 268.7 L461.5 268.7 L461.1 268.7 L461.1 269.2 L460.6 269.2 L460.2 269.2 L460.2 269.8 L460.2 270.3 L460.2 270.8 L460.6 270.8 L460.6 271.3 L460.6 271.8 L460.6 272.3 L460.2 272.3 L459.8 272.3 L459.4 272.3 L459.4 272.8 L459.8 272.8 L459.8 273.3 Z" fill="#2f8f83" fill-opacity="0.34" stroke="#0e5b52" stroke-width="1.6" />
  <path d="M464.5 273.3 L464.5 273.9 L464.9 273.9 L465.4 273.9 L465.8 273.9 L466.2 273.9 L466.6 273.9 L467.1 273.9 L467.5 273.9 L467.9 273.9 L468.3 273.9 L468.8 273.9 L468.8 273.3 L468.8 272.8 L468.8 272.3 L468.8 271.8 L468.8 271.3 L468.8 270.8 L468.8 270.3 L468.8 269.8 L468.8 269.2 L468.3 269.2 L468.3 268.7 L467.9 268.7 L467.5 268.7 L467.1 268.7 L466.6 268.7 L466.2 268.7 L465.8 268.7 L465.3 268.7 L464.9 268.7 L464.5 268.7 L464.5 269.2 L464.5 269.8 L464.5 270.3 L464.5 270.8 L464.5 271.3 L464.5 271.8 L464.5 272.3 L464.5 272.8 L464.5 273.3 Z" fill="#2f8f83" fill-opacity="0.34" stroke="#0e5b52" stroke-width="1.6" />
  <path d="M459.8 279.0 L459.8 279.5 L460.2 279.5 L460.6 279.5 L461.1 279.5 L461.5 279.5 L461.9 279.5 L462.4 279.5 L462.8 279.5 L463.2 279.5 L463.6 279.5 L463.6 279.0 L463.6 278.5 L463.6 278.0 L463.6 277.4 L463.6 276.9 L463.6 276.4 L463.6 275.9 L463.6 275.4 L463.6 274.9 L463.6 274.4 L463.6 273.9 L463.2 273.9 L462.8 273.9 L462.4 273.9 L461.9 273.9 L461.5 273.9 L461.1 273.9 L460.6 273.9 L460.2 273.9 L459.8 273.9 L459.8 274.4 L459.8 274.9 L459.8 275.4 L459.8 275.9 L459.8 276.4 L459.8 276.9 L459.8 277.4 L459.8 278.0 L459.8 278.5 L459.8 279.0 Z" fill="#2f8f83" fill-opacity="0.34" stroke="#0e5b52" stroke-width="1.6" />
  <path d="M463.6 279.0 L463.6 279.5 L464.1 279.5 L464.5 279.5 L464.9 279.5 L465.4 279.5 L465.8 279.5 L466.2 279.5 L466.6 279.5 L467.1 279.5 L467.5 279.5 L467.5 279.0 L467.5 278.5 L467.5 278.0 L467.5 277.4 L467.5 276.9 L467.5 276.4 L467.5 275.9 L467.5 275.4 L467.5 274.9 L467.5 274.4 L467.5 273.9 L467.1 273.9 L466.6 273.9 L466.2 273.9 L465.8 273.9 L465.4 273.9 L464.9 273.9 L464.5 273.9 L464.1 273.9 L463.6 273.9 L463.6 274.4 L463.6 274.9 L463.6 275.4 L463.6 275.9 L463.6 276.4 L463.6 276.9 L463.6 277.4 L463.6 278.0 L463.6 278.5 L463.6 279.0 Z" fill="#2f8f83" fill-opacity="0.34" stroke="#0e5b52" stroke-width="1.6" />
  <path d="M467.5 279.0 L467.5 279.5 L467.9 279.5 L468.3 279.5 L468.8 279.5 L469.2 279.5 L469.6 279.5 L470.1 279.5 L470.5 279.5 L470.9 279.5 L471.3 279.5 L471.3 279.0 L471.3 278.5 L471.3 278.0 L471.3 277.4 L471.3 276.9 L471.3 276.4 L471.3 275.9 L471.3 275.4 L471.3 274.9 L471.3 274.4 L471.3 273.9 L470.9 273.9 L470.5 273.9 L470.1 273.9 L469.6 273.9 L469.2 273.9 L468.8 273.9 L468.3 273.9 L467.9 273.9 L467.5 273.9 L467.5 274.4 L467.5 274.9 L467.5 275.4 L467.5 275.9 L467.5 276.4 L467.5 276.9 L467.5 277.4 L467.5 278.0 L467.5 278.5 L467.5 279.0 Z" fill="#2f8f83" fill-opacity="0.34" stroke="#0e5b52" stroke-width="1.6" />
  <path d="M468.8 273.3 L468.8 273.9 L469.2 273.9 L469.6 273.9 L470.1 273.9 L470.5 273.9 L470.9 273.9 L471.3 273.9 L471.3 274.4 L471.3 274.9 L471.3 275.4 L471.3 275.9 L471.3 276.4 L471.3 276.9 L471.3 277.4 L471.3 278.0 L471.3 278.5 L471.3 279.0 L471.3 279.5 L471.8 279.5 L472.2 279.5 L472.6 279.5 L473.0 279.5 L473.0 279.0 L473.0 278.5 L473.0 278.0 L473.0 277.4 L473.5 277.4 L473.9 277.4 L474.3 277.4 L474.8 277.4 L474.8 276.9 L474.8 276.4 L474.3 276.4 L474.3 275.9 L474.3 275.4 L473.9 275.4 L473.9 274.9 L473.5 274.9 L473.0 274.9 L473.0 274.4 L472.6 274.4 L472.6 273.9 L472.2 273.9 L472.2 273.3 L471.8 273.3 L471.8 272.8 L471.3 272.8 L470.9 272.8 L470.9 272.3 L470.5 272.3 L470.5 271.8 L470.1 271.8 L470.1 271.3 L470.1 270.8 L470.1 270.3 L469.6 270.3 L469.6 269.8 L469.2 269.8 L469.2 269.2 L468.8 269.2 L468.8 269.8 L468.8 270.3 L468.8 270.8 L468.8 271.3 L468.8 271.8 L468.8 272.3 L468.8 272.8 L468.8 273.3 Z" fill="#2f8f83" fill-opacity="0.34" stroke="#0e5b52" stroke-width="1.6" />
  <path d="M474.8 278.0 L474.8 278.5 L475.2 278.5 L475.2 279.0 L475.2 279.5 L475.6 279.5 L475.6 280.0 L476.0 280.0 L476.0 280.5 L476.5 280.5 L476.5 281.0 L476.9 281.0 L477.3 281.0 L477.8 281.0 L478.2 281.0 L478.2 280.5 L478.2 280.0 L478.6 280.0 L479.0 280.0 L479.5 280.0 L479.9 280.0 L480.3 280.0 L480.7 280.0 L481.2 280.0 L481.2 279.5 L481.2 279.0 L481.2 278.5 L481.2 278.0 L481.2 277.4 L481.2 276.9 L480.7 276.9 L480.3 276.9 L479.9 276.9 L479.5 276.9 L479.0 276.9 L478.6 276.9 L478.2 276.9 L477.8 276.9 L477.3 276.9 L476.9 276.9 L476.5 276.9 L476.0 276.9 L475.6 276.9 L475.2 276.9 L474.8 276.9 L474.8 277.4 L474.8 278.0 Z" fill="#2f8f83" fill-opacity="0.34" stroke="#0e5b52" stroke-width="1.6" />
  <path d="M476.0 276.9 L476.5 276.9 L476.9 276.9 L477.3 276.9 L477.8 276.9 L478.2 276.9 L478.6 276.9 L479.0 276.9 L479.5 276.9 L479.9 276.9 L480.3 276.9 L480.7 276.9 L481.2 276.9 L481.2 277.4 L481.2 278.0 L481.2 278.5 L481.2 279.0 L481.2 279.5 L481.2 280.0 L481.6 280.0 L482.0 280.0 L482.5 280.0 L482.5 279.5 L482.5 279.0 L482.5 278.5 L482.5 278.0 L482.5 277.4 L482.5 276.9 L482.5 276.4 L482.0 276.4 L482.0 275.9 L482.0 275.4 L481.6 275.4 L481.2 275.4 L480.7 275.4 L480.7 274.9 L480.7 274.4 L480.3 274.4 L479.9 274.4 L479.9 273.9 L479.9 273.3 L479.5 273.3 L479.0 273.3 L478.6 273.3 L478.2 273.3 L477.8 273.3 L477.3 273.3 L476.9 273.3 L476.5 273.3 L476.5 273.9 L476.5 274.4 L476.5 274.9 L476.5 275.4 L476.0 275.4 L476.0 275.9 L476.0 276.4 L475.6 276.4 L475.6 276.9 L476.0 276.9 Z" fill="#2f8f83" fill-opacity="0.34" stroke="#0e5b52" stroke-width="1.6" />
  <path d="M473.5 270.8 L473.5 271.3 L473.9 271.3 L474.3 271.3 L474.8 271.3 L475.2 271.3 L475.6 271.3 L475.6 271.8 L475.6 272.3 L476.0 272.3 L476.0 272.8 L476.0 273.3 L476.5 273.3 L476.9 273.3 L477.3 273.3 L477.8 273.3 L478.2 273.3 L478.6 273.3 L478.6 272.8 L478.6 272.3 L478.6 271.8 L478.6 271.3 L478.6 270.8 L478.6 270.3 L478.6 269.8 L478.6 269.2 L478.2 269.2 L477.8 269.2 L477.3 269.2 L476.9 269.2 L476.5 269.2 L476.0 269.2 L475.6 269.2 L475.2 269.2 L474.8 269.2 L474.3 269.2 L473.9 269.2 L473.5 269.2 L473.0 269.2 L473.0 269.8 L473.5 269.8 L473.5 270.3 L473.5 270.8 Z" fill="#2f8f83" fill-opacity="0.34" stroke="#0e5b52" stroke-width="1.6" />
  <path d="M476.9 289.2 L476.9 289.7 L477.3 289.7 L477.8 289.7 L477.8 290.2 L478.2 290.2 L478.2 290.7 L478.6 290.7 L479.0 290.7 L479.5 290.7 L479.9 290.7 L480.3 290.7 L480.7 290.7 L481.2 290.7 L481.2 290.2 L480.7 290.2 L480.7 289.7 L480.7 289.2 L480.3 289.2 L480.3 288.7 L480.3 288.2 L479.9 288.2 L479.9 287.7 L479.9 287.2 L479.9 286.6 L479.9 286.1 L479.9 285.6 L479.9 285.1 L479.5 285.1 L479.0 285.1 L478.6 285.1 L478.2 285.1 L477.8 285.1 L477.3 285.1 L476.9 285.1 L476.9 285.6 L476.9 286.1 L476.9 286.6 L476.9 287.2 L476.9 287.7 L476.9 288.2 L476.9 288.7 L476.9 289.2 Z" fill="#2f8f83" fill-opacity="0.34" stroke="#0e5b52" stroke-width="1.6" />
  <path d="M476.9 294.8 L476.9 295.3 L477.3 295.3 L477.8 295.3 L478.2 295.3 L478.6 295.3 L479.0 295.3 L479.5 295.3 L479.9 295.3 L480.3 295.3 L480.7 295.3 L481.2 295.3 L481.2 294.8 L481.2 294.3 L481.2 293.8 L481.2 293.3 L481.2 292.8 L481.2 292.3 L481.2 291.8 L481.2 291.2 L481.2 290.7 L480.7 290.7 L480.3 290.7 L479.9 290.7 L479.5 290.7 L479.0 290.7 L478.6 290.7 L478.2 290.7 L477.8 290.7 L477.8 291.2 L477.8 291.8 L477.3 291.8 L477.3 292.3 L477.3 292.8 L477.3 293.3 L477.3 293.8 L477.3 294.3 L476.9 294.3 L476.9 294.8 Z" fill="#2f8f83" fill-opacity="0.34" stroke="#0e5b52" stroke-width="1.6" />
  <path d="M474.8 298.4 L474.8 298.9 L475.2 298.9 L475.6 298.9 L476.0 298.9 L476.5 298.9 L476.9 298.9 L476.9 299.4 L476.9 299.9 L477.3 299.9 L477.8 299.9 L478.2 299.9 L478.2 299.4 L478.2 298.9 L478.2 298.4 L478.2 297.9 L478.2 297.4 L478.2 296.9 L478.2 296.3 L478.2 295.8 L478.2 295.3 L477.8 295.3 L477.3 295.3 L476.9 295.3 L476.5 295.3 L476.0 295.3 L475.6 295.3 L475.2 295.3 L474.8 295.3 L474.8 295.8 L474.8 296.3 L474.8 296.9 L474.8 297.4 L474.8 297.9 L474.8 298.4 Z" fill="#2f8f83" fill-opacity="0.34" stroke="#0e5b52" stroke-width="1.6" />
  <path d="M478.2 299.4 L478.2 299.9 L478.6 299.9 L479.0 299.9 L479.5 299.9 L479.9 299.9 L480.3 299.9 L480.3 300.4 L480.7 300.4 L481.2 300.4 L481.2 299.9 L481.2 299.4 L481.2 298.9 L481.2 298.4 L481.2 297.9 L481.2 297.4 L481.2 296.9 L481.2 296.3 L481.2 295.8 L481.2 295.3 L480.7 295.3 L480.3 295.3 L479.9 295.3 L479.5 295.3 L479.0 295.3 L478.6 295.3 L478.2 295.3 L478.2 295.8 L478.2 296.3 L478.2 296.9 L478.2 297.4 L478.2 297.9 L478.2 298.4 L478.2 298.9 L478.2 299.4 Z" fill="#2f8f83" fill-opacity="0.34" stroke="#0e5b52" stroke-width="1.6" />
  <path d="M482.0 306.0 L482.0 306.5 L482.5 306.5 L482.9 306.5 L483.3 306.5 L483.7 306.5 L484.2 306.5 L484.6 306.5 L485.0 306.5 L485.5 306.5 L485.5 306.0 L485.5 305.5 L485.5 305.0 L485.5 304.5 L485.5 304.0 L485.5 303.5 L485.5 303.0 L485.5 302.5 L485.5 301.9 L485.5 301.4 L485.5 300.9 L485.5 300.4 L485.0 300.4 L484.6 300.4 L484.2 300.4 L483.7 300.4 L483.3 300.4 L482.9 300.4 L482.5 300.4 L482.0 300.4 L482.0 300.9 L482.0 301.4 L482.0 301.9 L482.0 302.5 L482.0 303.0 L482.0 303.5 L482.0 304.0 L482.0 304.5 L482.0 305.0 L482.0 305.5 L482.0 306.0 Z" fill="#2f8f83" fill-opacity="0.34" stroke="#0e5b52" stroke-width="1.6" />
  <path d="M485.5 303.5 L485.5 304.0 L485.9 304.0 L486.3 304.0 L486.7 304.0 L487.2 304.0 L487.6 304.0 L488.0 304.0 L488.4 304.0 L488.9 304.0 L489.3 304.0 L489.3 303.5 L489.3 303.0 L489.3 302.5 L489.3 301.9 L489.3 301.4 L489.3 300.9 L489.3 300.4 L488.9 300.4 L488.4 300.4 L488.0 300.4 L487.6 300.4 L487.2 300.4 L486.7 300.4 L486.3 300.4 L485.9 300.4 L485.5 300.4 L485.5 300.9 L485.5 301.4 L485.5 301.9 L485.5 302.5 L485.5 303.0 L485.5 303.5 Z" fill="#2f8f83" fill-opacity="0.34" stroke="#0e5b52" stroke-width="1.6" />
  <path d="M496.1 304.5 L496.1 305.0 L496.6 305.0 L497.0 305.0 L497.4 305.0 L497.9 305.0 L498.3 305.0 L498.7 305.0 L499.1 305.0 L499.6 305.0 L500.0 305.0 L500.0 304.5 L500.0 304.0 L500.0 303.5 L500.0 303.0 L500.0 302.5 L500.0 301.9 L500.0 301.4 L499.6 301.4 L499.6 300.9 L499.6 300.4 L499.6 299.9 L499.1 299.9 L498.7 299.9 L498.3 299.9 L497.9 299.9 L497.4 299.9 L497.0 299.9 L496.6 299.9 L496.1 299.9 L496.1 300.4 L496.1 300.9 L496.1 301.4 L496.1 301.9 L496.1 302.5 L496.1 303.0 L496.1 303.5 L496.1 304.0 L496.1 304.5 Z" fill="#2f8f83" fill-opacity="0.34" stroke="#0e5b52" stroke-width="1.6" />
  <path d="M494.0 304.5 L494.0 305.0 L494.4 305.0 L494.9 305.0 L495.3 305.0 L495.7 305.0 L496.1 305.0 L496.1 304.5 L496.1 304.0 L496.1 303.5 L496.1 303.0 L496.1 302.5 L495.7 302.5 L495.3 302.5 L494.9 302.5 L494.4 302.5 L494.0 302.5 L494.0 303.0 L494.0 303.5 L494.0 304.0 L494.0 304.5 Z" fill="#2f8f83" fill-opacity="0.34" stroke="#0e5b52" stroke-width="1.6" />
  <path d="M485.5 306.0 L485.5 306.5 L485.9 306.5 L486.3 306.5 L486.7 306.5 L487.2 306.5 L487.6 306.5 L488.0 306.5 L488.4 306.5 L488.9 306.5 L489.3 306.5 L489.3 306.0 L489.3 305.5 L489.3 305.0 L489.3 304.5 L489.3 304.0 L488.9 304.0 L488.4 304.0 L488.0 304.0 L487.6 304.0 L487.2 304.0 L486.7 304.0 L486.3 304.0 L485.9 304.0 L485.5 304.0 L485.5 304.5 L485.5 305.0 L485.5 305.5 L485.5 306.0 Z" fill="#2f8f83" fill-opacity="0.34" stroke="#0e5b52" stroke-width="1.6" />
  <path d="M483.3 310.1 L483.3 310.6 L483.7 310.6 L484.2 310.6 L484.6 310.6 L485.0 310.6 L485.5 310.6 L485.9 310.6 L486.3 310.6 L486.7 310.6 L487.2 310.6 L487.6 310.6 L487.6 310.1 L487.6 309.6 L487.6 309.1 L487.6 308.6 L487.6 308.1 L487.6 307.5 L487.6 307.0 L487.6 306.5 L487.2 306.5 L486.7 306.5 L486.3 306.5 L485.9 306.5 L485.5 306.5 L485.0 306.5 L484.6 306.5 L484.2 306.5 L483.7 306.5 L483.3 306.5 L483.3 307.0 L483.3 307.5 L483.3 308.1 L483.3 308.6 L483.3 309.1 L483.3 309.6 L483.3 310.1 Z" fill="#2f8f83" fill-opacity="0.34" stroke="#0e5b52" stroke-width="1.6" />
  <path d="M487.6 310.1 L487.6 310.6 L488.0 310.6 L488.4 310.6 L488.9 310.6 L489.3 310.6 L489.7 310.6 L490.2 310.6 L490.6 310.6 L491.0 310.6 L491.4 310.6 L491.9 310.6 L491.9 310.1 L491.9 309.6 L491.9 309.1 L491.9 308.6 L491.9 308.1 L491.9 307.5 L491.9 307.0 L491.9 306.5 L491.4 306.5 L491.0 306.5 L490.6 306.5 L490.2 306.5 L489.7 306.5 L489.3 306.5 L488.9 306.5 L488.4 306.5 L488.0 306.5 L487.6 306.5 L487.6 307.0 L487.6 307.5 L487.6 308.1 L487.6 308.6 L487.6 309.1 L487.6 309.6 L487.6 310.1 Z" fill="#2f8f83" fill-opacity="0.34" stroke="#0e5b52" stroke-width="1.6" />
  <path d="M461.5 281.0 L461.5 281.5 L461.9 281.5 L462.4 281.5 L462.8 281.5 L462.8 282.0 L463.2 282.0 L463.6 282.0 L464.1 282.0 L464.5 282.0 L464.9 282.0 L465.4 282.0 L465.8 282.0 L466.2 282.0 L466.2 281.5 L466.2 281.0 L466.2 280.5 L466.6 280.5 L466.6 280.0 L466.6 279.5 L466.2 279.5 L465.8 279.5 L465.4 279.5 L464.9 279.5 L464.5 279.5 L464.1 279.5 L463.6 279.5 L463.2 279.5 L462.8 279.5 L462.4 279.5 L461.9 279.5 L461.5 279.5 L461.5 280.0 L461.5 280.5 L461.5 281.0 Z" fill="#2f8f83" fill-opacity="0.34" stroke="#0e5b52" stroke-width="1.6" />
  <!-- title strip -->
  <rect x="0" y="0" width="1000" height="54" fill="#173042" />
  <text x="20" y="34" font-size="21" font-weight="bold" fill="#ffffff">Finlay Minerals Ltd. — Mineral Claims</text>
  <text x="980" y="34" font-size="15" fill="#cfe3df" text-anchor="end">FYL</text>
  <!-- scale bar -->
  <g transform="translate(905.3862622599577, 596)">
    <rect x="0" y="0" width="27.30686887002114" height="8" fill="#173042" />
    <rect x="27.30686887002114" y="0" width="27.30686887002114" height="8" fill="#ffffff" stroke="#173042" stroke-width="1" />
    <text x="27.30686887002114" y="-6" font-size="12" fill="#173042" text-anchor="middle">50 km</text>
  </g>
  <!-- north arrow -->
  <g transform="translate(956, 92)">
    <circle r="17" fill="#ffffff" stroke="#b9b09a" />
    <path d="M0 -10 L5 7 L0 3 L-5 7 Z" fill="#173042" />
    <text y="14" font-size="9" font-weight="bold" fill="#173042" text-anchor="middle">N</text>
  </g>
  <!-- watermark -->
  <text x="20" y="620" font-size="13" fill="#7d8b8a">Map by Exploration Maps — explorationmaps.com</text>
</svg>