<svg xmlns="http://www.w3.org/2000/svg" viewBox="0 0 1000 640" font-family="Arial, Helvetica, sans-serif">
  <rect width="1000" height="640" fill="#f3efe6" />
  <line x1="200" y1="0" x2="200" y2="640" stroke="#d9d2c0" stroke-width="0.7" />
  <line x1="0" y1="128" x2="1000" y2="128" stroke="#d9d2c0" stroke-width="0.7" />
  <line x1="400" y1="0" x2="400" y2="640" stroke="#d9d2c0" stroke-width="0.7" />
  <line x1="0" y1="256" x2="1000" y2="256" stroke="#d9d2c0" stroke-width="0.7" />
  <line x1="600" y1="0" x2="600" y2="640" stroke="#d9d2c0" stroke-width="0.7" />
  <line x1="0" y1="384" x2="1000" y2="384" stroke="#d9d2c0" stroke-width="0.7" />
  <line x1="800" y1="0" x2="800" y2="640" stroke="#d9d2c0" stroke-width="0.7" />
  <line x1="0" y1="512" x2="1000" y2="512" stroke="#d9d2c0" stroke-width="0.7" />
  <path d="M356.2 132.6 L356.2 132.6 L356.2 132.6 L355.9 132.6 L355.9 132.8 L356.2 132.7 L356.2 132.8 L356.5 132.7 L356.6 132.8 L356.6 132.8 L356.6 132.8 L356.7 132.8 L356.7 132.8 L356.7 132.6 L356.4 132.6 L356.4 132.6 L356.4 132.7 L356.3 132.7 L356.2 132.7 L356.2 132.6 L356.2 132.6 Z" fill="#2f8f83" fill-opacity="0.34" stroke="#0e5b52" stroke-width="1.6" />
  <path d="M356.1 133.0 L356.3 133.0 L356.2 132.9 L356.1 133.0 Z" fill="#2f8f83" fill-opacity="0.34" stroke="#0e5b52" stroke-width="1.6" />
  <path d="M356.2 132.5 L356.1 132.4 L356.3 132.4 L356.3 132.4 L355.7 132.4 L355.7 132.6 L356.2 132.6 L356.2 132.5 Z" fill="#2f8f83" fill-opacity="0.34" stroke="#0e5b52" stroke-width="1.6" />
  <path d="M356.4 132.5 L356.4 132.6 L356.7 132.6 L356.7 132.4 L356.3 132.4 L356.4 132.5 L356.4 132.5 L356.4 132.5 Z" fill="#2f8f83" fill-opacity="0.34" stroke="#0e5b52" stroke-width="1.6" />
  <path d="M356.5 133.1 L356.4 133.0 L356.3 133.0 L356.3 133.1 L356.3 133.1 L356.3 133.1 L356.5 133.1 L356.5 133.1 Z" fill="#2f8f83" fill-opacity="0.34" stroke="#0e5b52" stroke-width="1.6" />
  <path d="M356.4 133.0 L356.4 133.0 L356.5 132.9 L356.5 132.9 L356.4 132.9 L356.4 132.8 L356.4 132.9 L356.3 132.9 L356.3 133.0 L356.4 133.0 Z" fill="#2f8f83" fill-opacity="0.34" stroke="#0e5b52" stroke-width="1.6" />
  <path d="M356.2 132.6 L356.4 132.5 L356.4 132.5 L356.4 132.5 L356.3 132.4 L356.3 132.4 L356.1 132.4 L356.2 132.5 L356.2 132.6 Z" fill="#2f8f83" fill-opacity="0.34" stroke="#0e5b52" stroke-width="1.6" />
  <path d="M356.2 132.9 L356.2 132.7 L356.0 132.8 L356.1 133.0 L356.1 133.0 L356.1 133.0 L356.2 132.9 L356.2 132.9 Z" fill="#2f8f83" fill-opacity="0.34" stroke="#0e5b52" stroke-width="1.6" />
  <path d="M356.1 133.0 L356.1 133.0 L356.0 132.8 L355.9 132.8 L355.8 132.9 L355.9 133.0 L355.9 133.0 L356.1 133.0 Z" fill="#2f8f83" fill-opacity="0.34" stroke="#0e5b52" stroke-width="1.6" />
  <path d="M356.2 132.7 L356.3 132.7 L356.4 132.7 L356.4 132.6 L356.4 132.5 L356.2 132.6 L356.2 132.6 L356.2 132.7 Z" fill="#2f8f83" fill-opacity="0.34" stroke="#0e5b52" stroke-width="1.6" />
  <path d="M357.6 133.0 L357.6 133.0 L357.5 133.0 L357.5 133.0 L357.5 133.0 L357.4 133.0 L357.4 133.0 L357.5 133.2 L357.5 133.2 L357.5 133.2 L357.5 133.2 L357.6 133.2 L357.6 133.2 L357.6 133.2 L357.6 133.1 L357.6 133.1 L357.6 133.0 Z" fill="#2f8f83" fill-opacity="0.34" stroke="#0e5b52" stroke-width="1.6" />
  <path d="M357.5 133.2 L357.4 133.0 L357.4 133.0 L357.5 133.0 L357.5 133.0 L357.3 133.0 L357.3 133.0 L357.3 133.0 L357.3 133.2 L357.5 133.2 Z" fill="#2f8f83" fill-opacity="0.34" stroke="#0e5b52" stroke-width="1.6" />
  <path d="M355.9 130.7 L356.0 130.7 L355.9 130.6 L355.9 130.6 L355.8 130.6 L355.8 130.7 L355.8 130.7 L355.8 130.7 L355.8 130.7 L355.9 130.7 Z" fill="#2f8f83" fill-opacity="0.34" stroke="#0e5b52" stroke-width="1.6" />
  <path d="M355.9 130.5 L355.8 130.5 L355.8 130.5 L355.8 130.5 L355.8 130.6 L355.8 130.6 L355.8 130.6 L355.8 130.6 L355.8 130.6 L355.9 130.6 L355.9 130.5 L355.9 130.5 L355.9 130.5 L355.9 130.5 Z" fill="#2f8f83" fill-opacity="0.34" stroke="#0e5b52" stroke-width="1.6" />
  <path d="M355.9 130.9 L356.0 130.9 L356.0 130.8 L356.0 130.7 L356.0 130.7 L356.0 130.7 L355.9 130.7 L355.8 130.7 L355.8 130.8 L355.8 130.9 L355.8 130.9 L355.9 130.9 Z" fill="#2f8f83" fill-opacity="0.34" stroke="#0e5b52" stroke-width="1.6" />
  <path d="M355.9 130.9 L355.9 130.9 L356.0 130.9 L356.0 130.9 L356.0 130.9 L355.9 130.9 L355.8 130.9 L355.8 130.9 L355.9 130.9 L355.9 130.9 Z" fill="#2f8f83" fill-opacity="0.34" stroke="#0e5b52" stroke-width="1.6" />
  <path d="M354.8 131.2 L354.8 131.3 L354.9 131.3 L354.9 131.5 L355.1 131.5 L355.2 131.5 L355.4 131.5 L355.5 131.5 L355.6 131.5 L355.8 131.5 L355.8 131.3 L355.9 131.3 L356.1 131.3 L356.2 131.3 L356.3 131.3 L356.3 131.2 L356.3 131.0 L356.3 130.8 L356.3 130.6 L356.3 130.4 L356.2 130.4 L356.2 130.6 L356.1 130.6 L356.1 130.8 L355.9 130.8 L355.9 130.6 L355.8 130.6 L355.6 130.6 L355.6 130.4 L355.5 130.4 L355.5 130.2 L355.4 130.2 L355.2 130.2 L355.1 130.2 L354.9 130.2 L354.8 130.2 L354.8 130.4 L354.8 130.6 L354.8 130.8 L354.8 131.0 L354.8 131.2 Z" fill="#2f8f83" fill-opacity="0.34" stroke="#0e5b52" stroke-width="1.6" />
  <path d="M355.2 130.0 L355.4 130.0 L355.4 130.2 L355.5 130.2 L355.6 130.2 L355.6 130.0 L355.6 129.9 L355.5 129.9 L355.5 129.7 L355.4 129.7 L355.2 129.7 L355.2 129.9 L355.1 129.9 L355.1 130.0 L355.2 130.0 Z" fill="#2f8f83" fill-opacity="0.34" stroke="#0e5b52" stroke-width="1.6" />
  <path d="M353.9 130.2 L353.9 130.4 L354.1 130.4 L354.2 130.4 L354.4 130.4 L354.5 130.4 L354.6 130.4 L354.8 130.4 L354.8 130.2 L354.9 130.2 L355.1 130.2 L355.1 130.0 L355.1 129.9 L355.1 129.7 L355.1 129.5 L354.9 129.5 L354.8 129.5 L354.6 129.5 L354.5 129.5 L354.5 129.3 L354.4 129.3 L354.4 129.1 L354.2 129.1 L354.1 129.1 L353.9 129.1 L353.9 129.3 L353.9 129.5 L353.9 129.7 L353.9 129.9 L353.9 130.0 L353.9 130.2 Z" fill="#2f8f83" fill-opacity="0.34" stroke="#0e5b52" stroke-width="1.6" />
  <path d="M355.2 129.7 L355.4 129.7 L355.5 129.7 L355.6 129.7 L355.8 129.7 L355.9 129.7 L356.1 129.7 L356.2 129.7 L356.3 129.7 L356.3 129.5 L356.2 129.5 L356.1 129.5 L355.9 129.5 L355.8 129.5 L355.6 129.5 L355.5 129.5 L355.4 129.5 L355.2 129.5 L355.1 129.5 L355.1 129.7 L355.2 129.7 Z" fill="#2f8f83" fill-opacity="0.34" stroke="#0e5b52" stroke-width="1.6" />
  <path d="M353.9 131.2 L353.9 131.3 L354.1 131.3 L354.2 131.3 L354.4 131.3 L354.5 131.3 L354.6 131.3 L354.8 131.3 L354.8 131.2 L354.8 131.0 L354.8 130.8 L354.8 130.6 L354.8 130.4 L354.6 130.4 L354.5 130.4 L354.4 130.4 L354.2 130.4 L354.1 130.4 L353.9 130.4 L353.9 130.6 L353.9 130.8 L353.9 131.0 L353.9 131.2 Z" fill="#2f8f83" fill-opacity="0.34" stroke="#0e5b52" stroke-width="1.6" />
  <path d="M354.6 132.5 L354.6 132.6 L354.8 132.6 L354.9 132.6 L355.1 132.6 L355.2 132.6 L355.2 132.5 L355.2 132.3 L355.4 132.3 L355.4 132.1 L355.4 131.9 L355.4 131.7 L355.4 131.5 L355.2 131.5 L355.1 131.5 L354.9 131.5 L354.9 131.3 L354.8 131.3 L354.8 131.5 L354.8 131.7 L354.8 131.9 L354.8 132.1 L354.6 132.1 L354.6 132.3 L354.6 132.5 Z" fill="#2f8f83" fill-opacity="0.34" stroke="#0e5b52" stroke-width="1.6" />
  <path d="M354.1 131.5 L354.1 131.7 L354.2 131.7 L354.4 131.7 L354.5 131.7 L354.6 131.7 L354.8 131.7 L354.8 131.5 L354.8 131.3 L354.6 131.3 L354.5 131.3 L354.4 131.3 L354.2 131.3 L354.1 131.3 L354.1 131.5 Z" fill="#2f8f83" fill-opacity="0.34" stroke="#0e5b52" stroke-width="1.6" />
  <path d="M356.8 130.8 L356.8 131.0 L356.9 131.0 L357.1 131.0 L357.2 131.0 L357.3 131.0 L357.5 131.0 L357.5 130.8 L357.6 130.8 L357.8 130.8 L357.9 130.8 L358.1 130.8 L358.1 130.6 L358.1 130.4 L358.1 130.2 L358.1 130.0 L358.1 129.9 L358.1 129.7 L357.9 129.7 L357.8 129.7 L357.6 129.7 L357.5 129.7 L357.3 129.7 L357.2 129.7 L357.2 129.9 L357.2 130.0 L357.2 130.2 L357.2 130.4 L357.1 130.4 L356.9 130.4 L356.8 130.4 L356.8 130.6 L356.8 130.8 Z" fill="#2f8f83" fill-opacity="0.34" stroke="#0e5b52" stroke-width="1.6" />
  <path d="M356.9 131.7 L356.9 131.9 L357.1 131.9 L357.2 131.9 L357.2 132.1 L357.3 132.1 L357.5 132.1 L357.6 132.1 L357.8 132.1 L357.8 132.3 L357.8 132.5 L357.8 132.6 L357.8 132.8 L357.8 133.0 L357.9 133.0 L358.1 133.0 L358.2 133.0 L358.3 133.0 L358.3 132.8 L358.5 132.8 L358.6 132.8 L358.8 132.8 L358.9 132.8 L359.1 132.8 L359.2 132.8 L359.2 132.6 L359.2 132.5 L359.2 132.3 L359.1 132.3 L358.9 132.3 L358.8 132.3 L358.8 132.1 L358.8 131.9 L358.8 131.7 L358.8 131.5 L358.8 131.3 L358.6 131.3 L358.5 131.3 L358.3 131.3 L358.2 131.3 L358.1 131.3 L358.1 131.2 L357.9 131.2 L357.8 131.2 L357.6 131.2 L357.6 131.3 L357.6 131.5 L357.6 131.7 L357.5 131.7 L357.3 131.7 L357.2 131.7 L357.1 131.7 L357.1 131.5 L356.9 131.5 L356.9 131.7 Z" fill="#2f8f83" fill-opacity="0.34" stroke="#0e5b52" stroke-width="1.6" />
  <path d="M357.9 131.0 L357.9 131.2 L358.1 131.2 L358.1 131.0 L358.1 130.8 L357.9 130.8 L357.9 131.0 Z" fill="#2f8f83" fill-opacity="0.34" stroke="#0e5b52" stroke-width="1.6" />
  <path d="M359.2 132.6 L359.2 132.8 L359.3 132.8 L359.5 132.8 L359.6 132.8 L359.8 132.8 L359.8 133.0 L359.9 133.0 L359.9 132.8 L359.9 132.6 L359.9 132.5 L359.9 132.3 L359.8 132.3 L359.6 132.3 L359.5 132.3 L359.3 132.3 L359.2 132.3 L359.2 132.5 L359.2 132.6 Z" fill="#2f8f83" fill-opacity="0.34" stroke="#0e5b52" stroke-width="1.6" />
  <path d="M357.8 133.4 L357.8 133.6 L357.9 133.6 L358.1 133.6 L358.2 133.6 L358.3 133.6 L358.5 133.6 L358.6 133.6 L358.8 133.6 L358.8 133.8 L358.8 133.9 L358.9 133.9 L359.1 133.9 L359.1 134.1 L359.1 134.3 L359.2 134.3 L359.2 134.5 L359.2 134.7 L359.2 134.9 L359.2 135.1 L359.3 135.1 L359.5 135.1 L359.6 135.1 L359.8 135.1 L359.9 135.1 L359.9 134.9 L359.9 134.7 L359.9 134.5 L359.9 134.3 L359.9 134.1 L359.8 134.1 L359.6 134.1 L359.6 133.9 L359.6 133.8 L359.6 133.6 L359.5 133.6 L359.5 133.4 L359.3 133.4 L359.2 133.4 L359.1 133.4 L358.9 133.4 L358.9 133.2 L358.9 133.0 L358.9 132.8 L358.8 132.8 L358.6 132.8 L358.5 132.8 L358.3 132.8 L358.3 133.0 L358.2 133.0 L358.1 133.0 L357.9 133.0 L357.8 133.0 L357.8 133.2 L357.8 133.4 Z" fill="#2f8f83" fill-opacity="0.34" stroke="#0e5b52" stroke-width="1.6" />
  <path d="M356.6 134.3 L356.6 134.5 L356.8 134.5 L356.9 134.5 L357.1 134.5 L357.2 134.5 L357.3 134.5 L357.5 134.5 L357.6 134.5 L357.8 134.5 L357.9 134.5 L358.1 134.5 L358.2 134.5 L358.3 134.5 L358.3 134.3 L358.3 134.1 L358.3 133.9 L358.3 133.8 L358.3 133.6 L358.2 133.6 L358.1 133.6 L357.9 133.6 L357.8 133.6 L357.8 133.4 L357.8 133.2 L357.6 133.2 L357.5 133.2 L357.3 133.2 L357.2 133.2 L357.2 133.4 L357.1 133.4 L357.1 133.2 L356.9 133.2 L356.8 133.2 L356.6 133.2 L356.6 133.4 L356.6 133.6 L356.6 133.8 L356.6 133.9 L356.6 134.1 L356.6 134.3 Z" fill="#2f8f83" fill-opacity="0.34" stroke="#0e5b52" stroke-width="1.6" />
  <path d="M358.3 134.3 L358.3 134.5 L358.5 134.5 L358.6 134.5 L358.8 134.5 L358.9 134.5 L359.1 134.5 L359.2 134.5 L359.2 134.3 L359.1 134.3 L359.1 134.1 L359.1 133.9 L358.9 133.9 L358.8 133.9 L358.8 133.8 L358.8 133.6 L358.6 133.6 L358.5 133.6 L358.3 133.6 L358.3 133.8 L358.3 133.9 L358.3 134.1 L358.3 134.3 Z" fill="#2f8f83" fill-opacity="0.34" stroke="#0e5b52" stroke-width="1.6" />
  <path d="M358.9 133.2 L358.9 133.4 L359.1 133.4 L359.2 133.4 L359.3 133.4 L359.5 133.4 L359.5 133.6 L359.6 133.6 L359.6 133.8 L359.6 133.9 L359.6 134.1 L359.8 134.1 L359.9 134.1 L359.9 133.9 L359.8 133.9 L359.8 133.8 L359.8 133.6 L359.8 133.4 L359.8 133.2 L359.9 133.2 L359.9 133.0 L359.8 133.0 L359.8 132.8 L359.6 132.8 L359.5 132.8 L359.3 132.8 L359.2 132.8 L359.1 132.8 L358.9 132.8 L358.9 133.0 L358.9 133.2 Z" fill="#2f8f83" fill-opacity="0.34" stroke="#0e5b52" stroke-width="1.6" />
  <path d="M354.1 134.3 L354.1 134.5 L354.2 134.5 L354.2 134.7 L354.2 134.9 L354.4 134.9 L354.5 134.9 L354.6 134.9 L354.8 134.9 L354.9 134.9 L355.1 134.9 L355.2 134.9 L355.4 134.9 L355.5 134.9 L355.5 134.7 L355.6 134.7 L355.6 134.5 L355.6 134.3 L355.6 134.1 L355.5 134.1 L355.5 133.9 L355.5 133.8 L355.4 133.8 L355.2 133.8 L355.1 133.8 L354.9 133.8 L354.8 133.8 L354.6 133.8 L354.5 133.8 L354.4 133.8 L354.2 133.8 L354.2 133.9 L354.1 133.9 L354.1 134.1 L354.1 134.3 Z" fill="#2f8f83" fill-opacity="0.34" stroke="#0e5b52" stroke-width="1.6" />
  <path d="M355.5 135.6 L355.5 135.8 L355.6 135.8 L355.8 135.8 L355.9 135.8 L356.1 135.8 L356.1 136.0 L356.2 136.0 L356.3 136.0 L356.5 136.0 L356.5 135.8 L356.6 135.8 L356.8 135.8 L356.8 135.6 L356.8 135.4 L356.6 135.4 L356.5 135.4 L356.5 135.2 L356.5 135.1 L356.5 134.9 L356.5 134.7 L356.5 134.5 L356.3 134.5 L356.2 134.5 L356.1 134.5 L355.9 134.5 L355.8 134.5 L355.6 134.5 L355.6 134.7 L355.5 134.7 L355.5 134.9 L355.5 135.1 L355.5 135.2 L355.5 135.4 L355.5 135.6 Z" fill="#2f8f83" fill-opacity="0.34" stroke="#0e5b52" stroke-width="1.6" />
  <path d="M355.5 133.9 L355.5 134.1 L355.6 134.1 L355.6 134.3 L355.6 134.5 L355.8 134.5 L355.9 134.5 L356.1 134.5 L356.2 134.5 L356.3 134.5 L356.5 134.5 L356.5 134.7 L356.6 134.7 L356.8 134.7 L356.8 134.5 L356.6 134.5 L356.6 134.3 L356.6 134.1 L356.6 133.9 L356.6 133.8 L356.6 133.6 L356.6 133.4 L356.6 133.2 L356.5 133.2 L356.5 133.4 L356.3 133.4 L356.2 133.4 L356.2 133.2 L356.1 133.2 L355.9 133.2 L355.8 133.2 L355.6 133.2 L355.6 133.0 L355.5 133.0 L355.5 133.2 L355.5 133.4 L355.5 133.6 L355.5 133.8 L355.5 133.9 Z" fill="#2f8f83" fill-opacity="0.34" stroke="#0e5b52" stroke-width="1.6" />
  <path d="M355.6 133.0 L355.6 133.2 L355.8 133.2 L355.9 133.2 L356.1 133.2 L356.2 133.2 L356.3 133.2 L356.3 133.0 L356.2 133.0 L356.2 132.8 L356.1 132.8 L355.9 132.8 L355.8 132.8 L355.6 132.8 L355.6 133.0 Z" fill="#2f8f83" fill-opacity="0.34" stroke="#0e5b52" stroke-width="1.6" />
  <path d="M356.3 133.4 L356.5 133.4 L356.5 133.2 L356.5 133.0 L356.3 133.0 L356.3 133.2 L356.2 133.2 L356.2 133.4 L356.3 133.4 Z" fill="#2f8f83" fill-opacity="0.34" stroke="#0e5b52" stroke-width="1.6" />
  <path d="M356.6 132.6 L356.6 132.8 L356.8 132.8 L356.8 133.0 L356.9 133.0 L357.1 133.0 L357.1 133.2 L357.1 133.4 L357.2 133.4 L357.2 133.2 L357.3 133.2 L357.5 133.2 L357.6 133.2 L357.8 133.2 L357.8 133.0 L357.8 132.8 L357.8 132.6 L357.6 132.6 L357.5 132.6 L357.5 132.8 L357.3 132.8 L357.2 132.8 L357.2 132.6 L357.2 132.5 L357.1 132.5 L356.9 132.5 L356.8 132.5 L356.6 132.5 L356.6 132.6 Z" fill="#2f8f83" fill-opacity="0.34" stroke="#0e5b52" stroke-width="1.6" />
  <path d="M355.4 130.2 L355.4 130.0 L355.2 130.0 L355.2 130.2 L355.4 130.2 Z" fill="#2f8f83" fill-opacity="0.34" stroke="#0e5b52" stroke-width="1.6" />
  <path d="M356.8 130.4 L356.9 130.4 L356.9 130.2 L356.8 130.2 L356.6 130.2 L356.6 130.4 L356.8 130.4 Z" fill="#2f8f83" fill-opacity="0.34" stroke="#0e5b52" stroke-width="1.6" />
  <path d="M357.8 131.0 L357.8 131.2 L357.9 131.2 L357.9 131.0 L357.9 130.8 L357.8 130.8 L357.8 131.0 Z" fill="#2f8f83" fill-opacity="0.34" stroke="#0e5b52" stroke-width="1.6" />
  <path d="M355.2 129.9 L355.2 129.7 L355.1 129.7 L355.1 129.9 L355.2 129.9 Z" fill="#2f8f83" fill-opacity="0.34" stroke="#0e5b52" stroke-width="1.6" />
  <path d="M355.6 129.9 L355.8 129.9 L355.9 129.9 L356.1 129.9 L356.2 129.9 L356.3 129.9 L356.3 129.7 L356.2 129.7 L356.1 129.7 L355.9 129.7 L355.8 129.7 L355.6 129.7 L355.5 129.7 L355.5 129.9 L355.6 129.9 Z" fill="#2f8f83" fill-opacity="0.34" stroke="#0e5b52" stroke-width="1.6" />
  <path d="M354.6 131.9 L354.6 132.1 L354.8 132.1 L354.8 131.9 L354.8 131.7 L354.6 131.7 L354.6 131.9 Z" fill="#2f8f83" fill-opacity="0.34" stroke="#0e5b52" stroke-width="1.6" />
  <path d="M353.9 131.5 L353.9 131.7 L354.1 131.7 L354.1 131.5 L354.1 131.3 L353.9 131.3 L353.9 131.5 Z" fill="#2f8f83" fill-opacity="0.34" stroke="#0e5b52" stroke-width="1.6" />
  <path d="M356.2 132.8 L356.2 133.0 L356.3 133.0 L356.5 133.0 L356.6 133.0 L356.6 132.8 L356.6 132.6 L356.5 132.6 L356.3 132.6 L356.2 132.6 L356.2 132.8 Z" fill="#2f8f83" fill-opacity="0.34" stroke="#0e5b52" stroke-width="1.6" />
  <path d="M358.5 135.2 L358.5 135.4 L358.6 135.4 L358.8 135.4 L358.9 135.4 L359.1 135.4 L359.2 135.4 L359.2 135.2 L359.2 135.1 L359.2 134.9 L359.2 134.7 L359.2 134.5 L359.1 134.5 L358.9 134.5 L358.8 134.5 L358.6 134.5 L358.5 134.5 L358.5 134.7 L358.5 134.9 L358.5 135.1 L358.5 135.2 Z" fill="#2f8f83" fill-opacity="0.34" stroke="#0e5b52" stroke-width="1.6" />
  <path d="M353.9 128.9 L353.9 129.1 L354.1 129.1 L354.2 129.1 L354.2 128.9 L354.2 128.8 L354.2 128.6 L354.2 128.4 L354.1 128.4 L354.1 128.2 L353.9 128.2 L353.9 128.4 L353.9 128.6 L353.9 128.8 L353.9 128.9 Z" fill="#2f8f83" fill-opacity="0.34" stroke="#0e5b52" stroke-width="1.6" />
  <path d="M355.9 127.3 L355.9 127.4 L356.1 127.4 L356.2 127.4 L356.2 127.3 L356.2 127.1 L356.2 126.9 L356.2 126.7 L356.2 126.5 L356.2 126.3 L356.2 126.1 L356.2 126.0 L356.1 126.0 L355.9 126.0 L355.9 126.1 L355.9 126.3 L355.9 126.5 L355.9 126.7 L355.9 126.9 L355.9 127.1 L355.9 127.3 Z" fill="#2f8f83" fill-opacity="0.34" stroke="#0e5b52" stroke-width="1.6" />
  <path d="M355.2 128.9 L355.2 129.1 L355.4 129.1 L355.5 129.1 L355.5 128.9 L355.5 128.8 L355.4 128.8 L355.2 128.8 L355.2 128.9 Z" fill="#2f8f83" fill-opacity="0.34" stroke="#0e5b52" stroke-width="1.6" />
  <path d="M354.5 129.3 L354.5 129.5 L354.6 129.5 L354.8 129.5 L354.9 129.5 L355.1 129.5 L355.2 129.5 L355.2 129.3 L355.2 129.1 L355.2 128.9 L355.2 128.8 L355.2 128.6 L355.2 128.4 L355.1 128.4 L354.9 128.4 L354.8 128.4 L354.8 128.6 L354.8 128.8 L354.8 128.9 L354.8 129.1 L354.6 129.1 L354.5 129.1 L354.4 129.1 L354.4 129.3 L354.5 129.3 Z" fill="#2f8f83" fill-opacity="0.34" stroke="#0e5b52" stroke-width="1.6" />
  <path d="M354.2 128.9 L354.2 129.1 L354.4 129.1 L354.5 129.1 L354.6 129.1 L354.8 129.1 L354.8 128.9 L354.8 128.8 L354.8 128.6 L354.8 128.4 L354.6 128.4 L354.5 128.4 L354.4 128.4 L354.2 128.4 L354.2 128.6 L354.2 128.8 L354.2 128.9 Z" fill="#2f8f83" fill-opacity="0.34" stroke="#0e5b52" stroke-width="1.6" />
  <path d="M356.6 128.9 L356.6 129.1 L356.8 129.1 L356.9 129.1 L357.1 129.1 L357.1 128.9 L357.2 128.9 L357.3 128.9 L357.3 128.8 L357.3 128.6 L357.2 128.6 L357.1 128.6 L357.1 128.4 L357.1 128.2 L357.1 128.0 L357.1 127.8 L356.9 127.8 L356.8 127.8 L356.6 127.8 L356.6 128.0 L356.6 128.2 L356.6 128.4 L356.6 128.6 L356.6 128.8 L356.6 128.9 Z" fill="#2f8f83" fill-opacity="0.34" stroke="#0e5b52" stroke-width="1.6" />
  <path d="M357.1 129.3 L357.1 129.5 L357.2 129.5 L357.2 129.7 L357.3 129.7 L357.5 129.7 L357.6 129.7 L357.8 129.7 L357.9 129.7 L357.9 129.5 L357.9 129.3 L357.9 129.1 L357.9 128.9 L357.8 128.9 L357.6 128.9 L357.5 128.9 L357.3 128.9 L357.2 128.9 L357.1 128.9 L357.1 129.1 L357.1 129.3 Z" fill="#2f8f83" fill-opacity="0.34" stroke="#0e5b52" stroke-width="1.6" />
  <path d="M357.3 128.8 L357.3 128.9 L357.5 128.9 L357.6 128.9 L357.8 128.9 L357.9 128.9 L357.9 129.1 L357.9 129.3 L357.9 129.5 L357.9 129.7 L358.1 129.7 L358.2 129.7 L358.3 129.7 L358.5 129.7 L358.5 129.5 L358.5 129.3 L358.3 129.3 L358.3 129.1 L358.3 128.9 L358.3 128.8 L358.3 128.6 L358.2 128.6 L358.1 128.6 L357.9 128.6 L357.9 128.8 L357.8 128.8 L357.6 128.8 L357.5 128.8 L357.5 128.6 L357.3 128.6 L357.3 128.8 Z" fill="#2f8f83" fill-opacity="0.34" stroke="#0e5b52" stroke-width="1.6" />
  <path d="M358.1 130.2 L358.1 130.4 L358.2 130.4 L358.3 130.4 L358.5 130.4 L358.6 130.4 L358.8 130.4 L358.9 130.4 L358.9 130.2 L358.9 130.0 L358.9 129.9 L358.9 129.7 L358.8 129.7 L358.6 129.7 L358.5 129.7 L358.3 129.7 L358.2 129.7 L358.1 129.7 L358.1 129.9 L358.1 130.0 L358.1 130.2 Z" fill="#2f8f83" fill-opacity="0.34" stroke="#0e5b52" stroke-width="1.6" />
  <path d="M358.5 129.5 L358.5 129.7 L358.6 129.7 L358.8 129.7 L358.9 129.7 L358.9 129.9 L358.9 130.0 L358.9 130.2 L358.9 130.4 L359.1 130.4 L359.2 130.4 L359.3 130.4 L359.5 130.4 L359.6 130.4 L359.6 130.2 L359.6 130.0 L359.5 130.0 L359.5 129.9 L359.3 129.9 L359.3 129.7 L359.2 129.7 L359.1 129.7 L359.1 129.5 L359.1 129.3 L358.9 129.3 L358.8 129.3 L358.6 129.3 L358.5 129.3 L358.5 129.5 Z" fill="#2f8f83" fill-opacity="0.34" stroke="#0e5b52" stroke-width="1.6" />
  <path d="M354.6 127.8 L354.6 128.0 L354.8 128.0 L354.9 128.0 L355.1 128.0 L355.2 128.0 L355.4 128.0 L355.4 127.8 L355.4 127.6 L355.4 127.4 L355.4 127.3 L355.4 127.1 L355.2 127.1 L355.1 127.1 L354.9 127.1 L354.8 127.1 L354.6 127.1 L354.6 127.3 L354.6 127.4 L354.6 127.6 L354.6 127.8 Z" fill="#2f8f83" fill-opacity="0.34" stroke="#0e5b52" stroke-width="1.6" />
  <path d="M354.1 127.8 L354.1 128.0 L354.2 128.0 L354.4 128.0 L354.5 128.0 L354.6 128.0 L354.6 127.8 L354.6 127.6 L354.6 127.4 L354.6 127.3 L354.6 127.1 L354.6 126.9 L354.5 126.9 L354.4 126.9 L354.2 126.9 L354.1 126.9 L354.1 127.1 L354.1 127.3 L354.1 127.4 L354.1 127.6 L354.1 127.8 Z" fill="#2f8f83" fill-opacity="0.34" stroke="#0e5b52" stroke-width="1.6" />
  <path d="M355.4 127.4 L355.4 127.6 L355.5 127.6 L355.6 127.6 L355.8 127.6 L355.9 127.6 L355.9 127.4 L355.9 127.3 L355.9 127.1 L355.9 126.9 L355.9 126.7 L355.9 126.5 L355.8 126.5 L355.6 126.5 L355.5 126.5 L355.4 126.5 L355.4 126.7 L355.4 126.9 L355.4 127.1 L355.4 127.3 L355.4 127.4 Z" fill="#2f8f83" fill-opacity="0.34" stroke="#0e5b52" stroke-width="1.6" />
  <path d="M355.2 126.3 L355.2 126.5 L355.4 126.5 L355.5 126.5 L355.6 126.5 L355.8 126.5 L355.9 126.5 L355.9 126.3 L355.9 126.1 L355.9 126.0 L355.8 126.0 L355.6 126.0 L355.5 126.0 L355.4 126.0 L355.2 126.0 L355.2 126.1 L355.2 126.3 Z" fill="#2f8f83" fill-opacity="0.34" stroke="#0e5b52" stroke-width="1.6" />
  <path d="M354.6 126.9 L354.6 127.1 L354.8 127.1 L354.9 127.1 L355.1 127.1 L355.2 127.1 L355.4 127.1 L355.4 126.9 L355.4 126.7 L355.4 126.5 L355.2 126.5 L355.1 126.5 L354.9 126.5 L354.9 126.3 L354.9 126.1 L355.1 126.1 L355.2 126.1 L355.2 126.0 L355.1 126.0 L354.9 126.0 L354.8 126.0 L354.6 126.0 L354.6 126.1 L354.6 126.3 L354.6 126.5 L354.6 126.7 L354.6 126.9 Z" fill="#2f8f83" fill-opacity="0.34" stroke="#0e5b52" stroke-width="1.6" />
  <path d="M354.1 126.7 L354.1 126.9 L354.2 126.9 L354.4 126.9 L354.5 126.9 L354.6 126.9 L354.6 126.7 L354.6 126.5 L354.6 126.3 L354.6 126.1 L354.6 126.0 L354.5 126.0 L354.4 126.0 L354.2 126.0 L354.1 126.0 L354.1 126.1 L354.1 126.3 L354.1 126.5 L354.1 126.7 Z" fill="#2f8f83" fill-opacity="0.34" stroke="#0e5b52" stroke-width="1.6" />
  <path d="M358.5 128.0 L358.5 128.2 L358.6 128.2 L358.8 128.2 L358.9 128.2 L359.1 128.2 L359.2 128.2 L359.2 128.0 L359.2 127.8 L359.2 127.6 L359.2 127.4 L359.2 127.3 L359.1 127.3 L358.9 127.3 L358.8 127.3 L358.6 127.3 L358.5 127.3 L358.5 127.4 L358.5 127.6 L358.5 127.8 L358.5 128.0 Z" fill="#2f8f83" fill-opacity="0.34" stroke="#0e5b52" stroke-width="1.6" />
  <path d="M357.8 128.0 L357.8 128.2 L357.9 128.2 L358.1 128.2 L358.2 128.2 L358.3 128.2 L358.5 128.2 L358.5 128.0 L358.5 127.8 L358.5 127.6 L358.5 127.4 L358.5 127.3 L358.3 127.3 L358.2 127.3 L358.1 127.3 L357.9 127.3 L357.8 127.3 L357.8 127.4 L357.8 127.6 L357.8 127.8 L357.8 128.0 Z" fill="#2f8f83" fill-opacity="0.34" stroke="#0e5b52" stroke-width="1.6" />
  <path d="M357.1 128.0 L357.1 128.2 L357.2 128.2 L357.3 128.2 L357.5 128.2 L357.6 128.2 L357.8 128.2 L357.8 128.0 L357.8 127.8 L357.8 127.6 L357.8 127.4 L357.8 127.3 L357.6 127.3 L357.5 127.3 L357.3 127.3 L357.2 127.3 L357.1 127.3 L357.1 127.4 L357.1 127.6 L357.1 127.8 L357.1 128.0 Z" fill="#2f8f83" fill-opacity="0.34" stroke="#0e5b52" stroke-width="1.6" />
  <path d="M356.3 127.6 L356.3 127.8 L356.5 127.8 L356.6 127.8 L356.8 127.8 L356.9 127.8 L357.1 127.8 L357.1 127.6 L357.1 127.4 L357.1 127.3 L357.1 127.1 L357.1 126.9 L356.9 126.9 L356.8 126.9 L356.6 126.9 L356.5 126.9 L356.3 126.9 L356.3 127.1 L356.3 127.3 L356.3 127.4 L356.3 127.6 Z" fill="#2f8f83" fill-opacity="0.34" stroke="#0e5b52" stroke-width="1.6" />
  <path d="M358.5 127.1 L358.5 127.3 L358.6 127.3 L358.8 127.3 L358.9 127.3 L359.1 127.3 L359.2 127.3 L359.2 127.1 L359.2 126.9 L359.2 126.7 L359.2 126.5 L359.1 126.5 L359.1 126.3 L359.1 126.1 L358.9 126.1 L358.8 126.1 L358.8 126.3 L358.8 126.5 L358.6 126.5 L358.5 126.5 L358.5 126.7 L358.5 126.9 L358.5 127.1 Z" fill="#2f8f83" fill-opacity="0.34" stroke="#0e5b52" stroke-width="1.6" />
  <path d="M355.4 127.8 L355.4 128.0 L355.5 128.0 L355.6 128.0 L355.8 128.0 L355.9 128.0 L355.9 127.8 L355.9 127.6 L355.8 127.6 L355.6 127.6 L355.5 127.6 L355.4 127.6 L355.4 127.8 Z" fill="#2f8f83" fill-opacity="0.34" stroke="#0e5b52" stroke-width="1.6" />
  <path d="M357.1 127.1 L357.1 127.3 L357.2 127.3 L357.3 127.3 L357.5 127.3 L357.6 127.3 L357.8 127.3 L357.9 127.3 L358.1 127.3 L358.2 127.3 L358.3 127.3 L358.5 127.3 L358.5 127.1 L358.5 126.9 L358.5 126.7 L358.3 126.7 L358.2 126.7 L358.1 126.7 L357.9 126.7 L357.8 126.7 L357.8 126.9 L357.6 126.9 L357.5 126.9 L357.3 126.9 L357.2 126.9 L357.1 126.9 L357.1 127.1 Z" fill="#2f8f83" fill-opacity="0.34" stroke="#0e5b52" stroke-width="1.6" />
  <path d="M356.2 127.4 L356.2 127.6 L356.3 127.6 L356.3 127.4 L356.3 127.3 L356.3 127.1 L356.3 126.9 L356.5 126.9 L356.6 126.9 L356.8 126.9 L356.8 126.7 L356.8 126.5 L356.8 126.3 L356.8 126.1 L356.8 126.0 L356.6 126.0 L356.5 126.0 L356.3 126.0 L356.2 126.0 L356.2 126.1 L356.2 126.3 L356.2 126.5 L356.2 126.7 L356.2 126.9 L356.2 127.1 L356.2 127.3 L356.2 127.4 Z" fill="#2f8f83" fill-opacity="0.34" stroke="#0e5b52" stroke-width="1.6" />
  <path d="M356.8 126.7 L356.8 126.9 L356.9 126.9 L357.1 126.9 L357.2 126.9 L357.3 126.9 L357.5 126.9 L357.5 126.7 L357.5 126.5 L357.5 126.3 L357.5 126.1 L357.5 126.0 L357.3 126.0 L357.2 126.0 L357.1 126.0 L356.9 126.0 L356.8 126.0 L356.8 126.1 L356.8 126.3 L356.8 126.5 L356.8 126.7 Z" fill="#2f8f83" fill-opacity="0.34" stroke="#0e5b52" stroke-width="1.6" />
  <path d="M357.5 126.7 L357.5 126.9 L357.6 126.9 L357.8 126.9 L357.8 126.7 L357.9 126.7 L358.1 126.7 L358.2 126.7 L358.2 126.5 L358.2 126.3 L358.2 126.1 L358.2 126.0 L358.1 126.0 L357.9 126.0 L357.8 126.0 L357.6 126.0 L357.5 126.0 L357.5 126.1 L357.5 126.3 L357.5 126.5 L357.5 126.7 Z" fill="#2f8f83" fill-opacity="0.34" stroke="#0e5b52" stroke-width="1.6" />
  <path d="M358.2 126.5 L358.2 126.7 L358.3 126.7 L358.5 126.7 L358.5 126.5 L358.6 126.5 L358.8 126.5 L358.8 126.3 L358.8 126.1 L358.9 126.1 L359.1 126.1 L359.1 126.0 L358.9 126.0 L358.8 126.0 L358.6 126.0 L358.5 126.0 L358.3 126.0 L358.2 126.0 L358.2 126.1 L358.2 126.3 L358.2 126.5 Z" fill="#2f8f83" fill-opacity="0.34" stroke="#0e5b52" stroke-width="1.6" />
  <path d="M359.1 129.5 L359.1 129.7 L359.2 129.7 L359.3 129.7 L359.3 129.9 L359.5 129.9 L359.5 130.0 L359.6 130.0 L359.6 129.9 L359.6 129.7 L359.6 129.5 L359.6 129.3 L359.5 129.3 L359.3 129.3 L359.2 129.3 L359.2 129.1 L359.1 129.1 L358.9 129.1 L358.9 129.3 L359.1 129.3 L359.1 129.5 Z" fill="#2f8f83" fill-opacity="0.34" stroke="#0e5b52" stroke-width="1.6" />
  <path d="M359.6 129.7 L359.6 129.9 L359.8 129.9 L359.9 129.9 L360.0 129.9 L360.2 129.9 L360.3 129.9 L360.5 129.9 L360.6 129.9 L360.8 129.9 L360.8 129.7 L360.8 129.5 L360.6 129.5 L360.5 129.5 L360.5 129.3 L360.3 129.3 L360.2 129.3 L360.0 129.3 L359.9 129.3 L359.8 129.3 L359.6 129.3 L359.6 129.5 L359.6 129.7 Z" fill="#2f8f83" fill-opacity="0.34" stroke="#0e5b52" stroke-width="1.6" />
  <path d="M353.9 128.2 L354.1 128.2 L354.1 128.4 L354.2 128.4 L354.4 128.4 L354.5 128.4 L354.6 128.4 L354.8 128.4 L354.9 128.4 L355.1 128.4 L355.1 128.2 L355.1 128.0 L354.9 128.0 L354.8 128.0 L354.6 128.0 L354.5 128.0 L354.4 128.0 L354.2 128.0 L354.1 128.0 L353.9 128.0 L353.9 128.2 Z" fill="#2f8f83" fill-opacity="0.34" stroke="#0e5b52" stroke-width="1.6" />
  <path d="M354.9 126.3 L354.9 126.5 L355.1 126.5 L355.2 126.5 L355.2 126.3 L355.2 126.1 L355.1 126.1 L354.9 126.1 L354.9 126.3 Z" fill="#2f8f83" fill-opacity="0.34" stroke="#0e5b52" stroke-width="1.6" />
  <path d="M357.1 128.4 L357.1 128.6 L357.2 128.6 L357.3 128.6 L357.5 128.6 L357.5 128.8 L357.6 128.8 L357.8 128.8 L357.9 128.8 L357.9 128.6 L358.1 128.6 L358.2 128.6 L358.3 128.6 L358.3 128.4 L358.3 128.2 L358.2 128.2 L358.1 128.2 L357.9 128.2 L357.8 128.2 L357.6 128.2 L357.5 128.2 L357.3 128.2 L357.2 128.2 L357.1 128.2 L357.1 128.4 Z" fill="#2f8f83" fill-opacity="0.34" stroke="#0e5b52" stroke-width="1.6" />
  <path d="M358.9 128.9 L358.9 129.1 L359.1 129.1 L359.2 129.1 L359.2 128.9 L359.2 128.8 L359.2 128.6 L359.2 128.4 L359.2 128.2 L359.1 128.2 L358.9 128.2 L358.9 128.4 L358.9 128.6 L358.9 128.8 L358.9 128.9 Z" fill="#2f8f83" fill-opacity="0.34" stroke="#0e5b52" stroke-width="1.6" />
  <path d="M358.3 129.1 L358.3 129.3 L358.5 129.3 L358.6 129.3 L358.8 129.3 L358.9 129.3 L358.9 129.1 L358.9 128.9 L358.9 128.8 L358.9 128.6 L358.9 128.4 L358.9 128.2 L358.8 128.2 L358.6 128.2 L358.5 128.2 L358.3 128.2 L358.3 128.4 L358.3 128.6 L358.3 128.8 L358.3 128.9 L358.3 129.1 Z" fill="#2f8f83" fill-opacity="0.34" stroke="#0e5b52" stroke-width="1.6" />
  <path d="M356.6 133.2 L356.8 133.2 L356.9 133.2 L357.1 133.2 L357.1 133.0 L356.9 133.0 L356.8 133.0 L356.8 132.8 L356.6 132.8 L356.6 133.0 L356.5 133.0 L356.5 133.2 L356.6 133.2 Z" fill="#2f8f83" fill-opacity="0.34" stroke="#0e5b52" stroke-width="1.6" />
  <path d="M362.0 131.5 L362.0 131.7 L362.2 131.7 L362.3 131.7 L362.3 131.5 L362.3 131.3 L362.2 131.3 L362.0 131.3 L362.0 131.5 Z" fill="#2f8f83" fill-opacity="0.34" stroke="#0e5b52" stroke-width="1.6" />
  <path d="M356.5 135.2 L356.5 135.4 L356.6 135.4 L356.8 135.4 L356.8 135.2 L356.8 135.1 L356.8 134.9 L356.8 134.7 L356.6 134.7 L356.5 134.7 L356.5 134.9 L356.5 135.1 L356.5 135.2 Z" fill="#2f8f83" fill-opacity="0.34" stroke="#0e5b52" stroke-width="1.6" />
  <path d="M356.9 134.7 L357.1 134.7 L357.2 134.7 L357.3 134.7 L357.5 134.7 L357.6 134.7 L357.8 134.7 L357.9 134.7 L358.1 134.7 L358.2 134.7 L358.3 134.7 L358.5 134.7 L358.5 134.5 L358.3 134.5 L358.2 134.5 L358.1 134.5 L357.9 134.5 L357.8 134.5 L357.6 134.5 L357.5 134.5 L357.3 134.5 L357.2 134.5 L357.1 134.5 L356.9 134.5 L356.8 134.5 L356.8 134.7 L356.9 134.7 Z" fill="#2f8f83" fill-opacity="0.34" stroke="#0e5b52" stroke-width="1.6" />
  <path d="M356.9 134.9 L357.1 134.9 L357.2 134.9 L357.3 134.9 L357.5 134.9 L357.6 134.9 L357.8 134.9 L357.9 134.9 L358.1 134.9 L358.2 134.9 L358.3 134.9 L358.5 134.9 L358.5 134.7 L358.3 134.7 L358.2 134.7 L358.1 134.7 L357.9 134.7 L357.8 134.7 L357.6 134.7 L357.5 134.7 L357.3 134.7 L357.2 134.7 L357.1 134.7 L356.9 134.7 L356.8 134.7 L356.8 134.9 L356.9 134.9 Z" fill="#2f8f83" fill-opacity="0.34" stroke="#0e5b52" stroke-width="1.6" />
  <path d="M355.1 135.2 L355.1 135.4 L355.2 135.4 L355.4 135.4 L355.5 135.4 L355.5 135.2 L355.5 135.1 L355.5 134.9 L355.4 134.9 L355.2 134.9 L355.1 134.9 L355.1 135.1 L355.1 135.2 Z" fill="#2f8f83" fill-opacity="0.34" stroke="#0e5b52" stroke-width="1.6" />
  <path d="M354.9 135.4 L354.9 135.6 L355.1 135.6 L355.2 135.6 L355.4 135.6 L355.5 135.6 L355.5 135.4 L355.4 135.4 L355.2 135.4 L355.1 135.4 L355.1 135.2 L354.9 135.2 L354.9 135.4 Z" fill="#2f8f83" fill-opacity="0.34" stroke="#0e5b52" stroke-width="1.6" />
  <path d="M357.8 135.6 L357.8 135.4 L357.6 135.4 L357.6 135.6 L357.8 135.6 Z" fill="#2f8f83" fill-opacity="0.34" stroke="#0e5b52" stroke-width="1.6" />
  <path d="M361.6 132.3 L361.6 132.1 L361.5 132.1 L361.5 132.3 L361.6 132.3 Z" fill="#2f8f83" fill-opacity="0.34" stroke="#0e5b52" stroke-width="1.6" />
  <path d="M360.2 131.7 L360.2 131.5 L360.0 131.5 L360.0 131.7 L360.2 131.7 Z" fill="#2f8f83" fill-opacity="0.34" stroke="#0e5b52" stroke-width="1.6" />
  <path d="M359.8 133.4 L359.8 133.6 L359.9 133.6 L360.0 133.6 L360.2 133.6 L360.3 133.6 L360.3 133.4 L360.3 133.2 L360.3 133.0 L360.3 132.8 L360.3 132.6 L360.3 132.5 L360.3 132.3 L360.2 132.3 L360.0 132.3 L359.9 132.3 L359.9 132.5 L359.9 132.6 L359.9 132.8 L359.9 133.0 L359.9 133.2 L359.8 133.2 L359.8 133.4 Z" fill="#2f8f83" fill-opacity="0.34" stroke="#0e5b52" stroke-width="1.6" />
  <path d="M359.8 133.8 L359.8 133.9 L359.9 133.9 L359.9 134.1 L359.9 134.3 L360.0 134.3 L360.2 134.3 L360.3 134.3 L360.5 134.3 L360.6 134.3 L360.6 134.1 L360.6 133.9 L360.6 133.8 L360.6 133.6 L360.5 133.6 L360.3 133.6 L360.2 133.6 L360.0 133.6 L359.9 133.6 L359.8 133.6 L359.8 133.8 Z" fill="#2f8f83" fill-opacity="0.34" stroke="#0e5b52" stroke-width="1.6" />
  <path d="M356.8 135.6 L356.8 135.8 L356.9 135.8 L357.1 135.8 L357.2 135.8 L357.3 135.8 L357.5 135.8 L357.5 135.6 L357.5 135.4 L357.5 135.2 L357.5 135.1 L357.5 134.9 L357.3 134.9 L357.2 134.9 L357.1 134.9 L356.9 134.9 L356.8 134.9 L356.8 135.1 L356.8 135.2 L356.8 135.4 L356.8 135.6 Z" fill="#2f8f83" fill-opacity="0.34" stroke="#0e5b52" stroke-width="1.6" />
  <path d="M359.9 134.9 L359.9 135.1 L360.0 135.1 L360.2 135.1 L360.3 135.1 L360.5 135.1 L360.6 135.1 L360.8 135.1 L360.8 134.9 L360.8 134.7 L360.8 134.5 L360.8 134.3 L360.6 134.3 L360.5 134.3 L360.3 134.3 L360.2 134.3 L360.0 134.3 L359.9 134.3 L359.9 134.5 L359.9 134.7 L359.9 134.9 Z" fill="#2f8f83" fill-opacity="0.34" stroke="#0e5b52" stroke-width="1.6" />
  <path d="M360.0 135.6 L360.0 135.8 L360.2 135.8 L360.3 135.8 L360.5 135.8 L360.6 135.8 L360.8 135.8 L360.9 135.8 L360.9 135.6 L360.9 135.4 L360.9 135.2 L360.9 135.1 L360.8 135.1 L360.6 135.1 L360.5 135.1 L360.3 135.1 L360.2 135.1 L360.0 135.1 L360.0 135.2 L360.0 135.4 L360.0 135.6 Z" fill="#2f8f83" fill-opacity="0.34" stroke="#0e5b52" stroke-width="1.6" />
  <path d="M357.5 135.6 L357.5 135.8 L357.6 135.8 L357.8 135.8 L357.9 135.8 L358.1 135.8 L358.2 135.8 L358.2 135.6 L358.2 135.4 L358.2 135.2 L358.2 135.1 L358.2 134.9 L358.1 134.9 L357.9 134.9 L357.8 134.9 L357.6 134.9 L357.5 134.9 L357.5 135.1 L357.5 135.2 L357.5 135.4 L357.5 135.6 Z M357.6 135.6 L357.6 135.4 L357.8 135.4 L357.8 135.6 L357.6 135.6 Z" fill="#2f8f83" fill-opacity="0.34" stroke="#0e5b52" stroke-width="1.6" />
  <path d="M359.8 136.5 L359.8 136.7 L359.9 136.7 L360.0 136.7 L360.2 136.7 L360.3 136.7 L360.5 136.7 L360.5 136.5 L360.5 136.3 L360.5 136.2 L360.5 136.0 L360.5 135.8 L360.3 135.8 L360.2 135.8 L360.0 135.8 L359.9 135.8 L359.8 135.8 L359.8 136.0 L359.8 136.2 L359.8 136.3 L359.8 136.5 Z" fill="#2f8f83" fill-opacity="0.34" stroke="#0e5b52" stroke-width="1.6" />
  <path d="M358.2 135.6 L358.2 135.8 L358.3 135.8 L358.5 135.8 L358.6 135.8 L358.8 135.8 L358.9 135.8 L359.1 135.8 L359.2 135.8 L359.2 135.6 L359.2 135.4 L359.1 135.4 L358.9 135.4 L358.8 135.4 L358.6 135.4 L358.5 135.4 L358.5 135.2 L358.5 135.1 L358.5 134.9 L358.3 134.9 L358.2 134.9 L358.2 135.1 L358.2 135.2 L358.2 135.4 L358.2 135.6 Z" fill="#2f8f83" fill-opacity="0.34" stroke="#0e5b52" stroke-width="1.6" />
  <path d="M359.8 137.5 L359.8 137.6 L359.9 137.6 L360.0 137.6 L360.2 137.6 L360.3 137.6 L360.5 137.6 L360.5 137.5 L360.5 137.3 L360.5 137.1 L360.5 136.9 L360.5 136.7 L360.3 136.7 L360.2 136.7 L360.0 136.7 L359.9 136.7 L359.8 136.7 L359.8 136.9 L359.8 137.1 L359.8 137.3 L359.8 137.5 Z" fill="#2f8f83" fill-opacity="0.34" stroke="#0e5b52" stroke-width="1.6" />
  <path d="M359.2 135.6 L359.2 135.8 L359.3 135.8 L359.5 135.8 L359.6 135.8 L359.8 135.8 L359.9 135.8 L360.0 135.8 L360.0 135.6 L360.0 135.4 L360.0 135.2 L360.0 135.1 L359.9 135.1 L359.8 135.1 L359.6 135.1 L359.5 135.1 L359.3 135.1 L359.2 135.1 L359.2 135.2 L359.2 135.4 L359.2 135.6 Z" fill="#2f8f83" fill-opacity="0.34" stroke="#0e5b52" stroke-width="1.6" />
  <path d="M360.5 137.5 L360.5 137.6 L360.6 137.6 L360.8 137.6 L360.9 137.6 L361.0 137.6 L361.2 137.6 L361.2 137.5 L361.2 137.3 L361.2 137.1 L361.2 136.9 L361.2 136.7 L361.0 136.7 L360.9 136.7 L360.8 136.7 L360.6 136.7 L360.5 136.7 L360.5 136.9 L360.5 137.1 L360.5 137.3 L360.5 137.5 Z" fill="#2f8f83" fill-opacity="0.34" stroke="#0e5b52" stroke-width="1.6" />
  <path d="M360.5 136.5 L360.5 136.7 L360.6 136.7 L360.8 136.7 L360.9 136.7 L361.0 136.7 L361.2 136.7 L361.2 136.5 L361.2 136.3 L361.2 136.2 L361.2 136.0 L361.2 135.8 L361.0 135.8 L360.9 135.8 L360.8 135.8 L360.6 135.8 L360.5 135.8 L360.5 136.0 L360.5 136.2 L360.5 136.3 L360.5 136.5 Z" fill="#2f8f83" fill-opacity="0.34" stroke="#0e5b52" stroke-width="1.6" />
  <path d="M359.1 136.5 L359.1 136.7 L359.2 136.7 L359.3 136.7 L359.5 136.7 L359.6 136.7 L359.8 136.7 L359.8 136.5 L359.8 136.3 L359.8 136.2 L359.8 136.0 L359.8 135.8 L359.6 135.8 L359.5 135.8 L359.3 135.8 L359.2 135.8 L359.1 135.8 L359.1 136.0 L359.1 136.2 L359.1 136.3 L359.1 136.5 Z" fill="#2f8f83" fill-opacity="0.34" stroke="#0e5b52" stroke-width="1.6" />
  <path d="M359.8 130.0 L359.9 130.0 L360.0 130.0 L360.2 130.0 L360.3 130.0 L360.5 130.0 L360.6 130.0 L360.8 130.0 L360.9 130.0 L361.0 130.0 L361.2 130.0 L361.3 130.0 L361.5 130.0 L361.6 130.0 L361.8 130.0 L361.9 130.0 L362.0 130.0 L362.2 130.0 L362.3 130.0 L362.3 129.9 L362.2 129.9 L362.0 129.9 L361.9 129.9 L361.8 129.9 L361.6 129.9 L361.6 129.7 L361.5 129.7 L361.3 129.7 L361.3 129.9 L361.2 129.9 L361.0 129.9 L361.0 129.7 L360.9 129.7 L360.8 129.7 L360.8 129.9 L360.6 129.9 L360.5 129.9 L360.3 129.9 L360.2 129.9 L360.0 129.9 L359.9 129.9 L359.8 129.9 L359.6 129.9 L359.6 130.0 L359.8 130.0 Z" fill="#2f8f83" fill-opacity="0.34" stroke="#0e5b52" stroke-width="1.6" />
  <path d="M360.9 135.6 L360.9 135.8 L361.0 135.8 L361.2 135.8 L361.3 135.8 L361.5 135.8 L361.6 135.8 L361.8 135.8 L361.8 135.6 L361.8 135.4 L361.8 135.2 L361.8 135.1 L361.6 135.1 L361.5 135.1 L361.3 135.1 L361.2 135.1 L361.0 135.1 L360.9 135.1 L360.9 135.2 L360.9 135.4 L360.9 135.6 Z" fill="#2f8f83" fill-opacity="0.34" stroke="#0e5b52" stroke-width="1.6" />
  <path d="M358.3 136.5 L358.3 136.7 L358.5 136.7 L358.6 136.7 L358.8 136.7 L358.9 136.7 L359.1 136.7 L359.1 136.5 L359.1 136.3 L359.1 136.2 L359.1 136.0 L359.1 135.8 L358.9 135.8 L358.8 135.8 L358.6 135.8 L358.5 135.8 L358.3 135.8 L358.3 136.0 L358.3 136.2 L358.3 136.3 L358.3 136.5 Z" fill="#2f8f83" fill-opacity="0.34" stroke="#0e5b52" stroke-width="1.6" />
  <path d="M360.8 134.9 L360.8 135.1 L360.9 135.1 L361.0 135.1 L361.2 135.1 L361.3 135.1 L361.5 135.1 L361.6 135.1 L361.6 134.9 L361.6 134.7 L361.6 134.5 L361.6 134.3 L361.5 134.3 L361.3 134.3 L361.2 134.3 L361.0 134.3 L360.9 134.3 L360.8 134.3 L360.8 134.5 L360.8 134.7 L360.8 134.9 Z" fill="#2f8f83" fill-opacity="0.34" stroke="#0e5b52" stroke-width="1.6" />
  <path d="M357.6 136.5 L357.6 136.7 L357.8 136.7 L357.9 136.7 L358.1 136.7 L358.2 136.7 L358.3 136.7 L358.3 136.5 L358.3 136.3 L358.3 136.2 L358.3 136.0 L358.3 135.8 L358.2 135.8 L358.1 135.8 L357.9 135.8 L357.8 135.8 L357.6 135.8 L357.6 136.0 L357.6 136.2 L357.6 136.3 L357.6 136.5 Z" fill="#2f8f83" fill-opacity="0.34" stroke="#0e5b52" stroke-width="1.6" />
  <path d="M359.6 130.2 L359.6 130.4 L359.8 130.4 L359.9 130.4 L360.0 130.4 L360.2 130.4 L360.3 130.4 L360.5 130.4 L360.6 130.4 L360.8 130.4 L360.9 130.4 L361.0 130.4 L361.2 130.4 L361.3 130.4 L361.3 130.2 L361.3 130.0 L361.2 130.0 L361.0 130.0 L360.9 130.0 L360.8 130.0 L360.6 130.0 L360.5 130.0 L360.3 130.0 L360.2 130.0 L360.0 130.0 L359.9 130.0 L359.8 130.0 L359.6 130.0 L359.6 130.2 Z" fill="#2f8f83" fill-opacity="0.34" stroke="#0e5b52" stroke-width="1.6" />
  <path d="M360.6 134.1 L360.6 134.3 L360.8 134.3 L360.9 134.3 L361.0 134.3 L361.0 134.1 L361.0 133.9 L361.2 133.9 L361.3 133.9 L361.5 133.9 L361.6 133.9 L361.8 133.9 L361.8 133.8 L361.8 133.6 L361.6 133.6 L361.5 133.6 L361.3 133.6 L361.2 133.6 L361.0 133.6 L360.9 133.6 L360.8 133.6 L360.6 133.6 L360.6 133.8 L360.6 133.9 L360.6 134.1 Z" fill="#2f8f83" fill-opacity="0.34" stroke="#0e5b52" stroke-width="1.6" />
  <path d="M356.9 136.5 L356.9 136.7 L357.1 136.7 L357.2 136.7 L357.3 136.7 L357.5 136.7 L357.6 136.7 L357.6 136.5 L357.6 136.3 L357.6 136.2 L357.6 136.0 L357.6 135.8 L357.5 135.8 L357.3 135.8 L357.2 135.8 L357.1 135.8 L356.9 135.8 L356.9 136.0 L356.9 136.2 L356.9 136.3 L356.9 136.5 Z" fill="#2f8f83" fill-opacity="0.34" stroke="#0e5b52" stroke-width="1.6" />
  <path d="M360.3 133.4 L360.3 133.6 L360.5 133.6 L360.6 133.6 L360.8 133.6 L360.8 133.4 L360.8 133.2 L360.8 133.0 L360.8 132.8 L360.8 132.6 L360.8 132.5 L360.8 132.3 L360.6 132.3 L360.5 132.3 L360.3 132.3 L360.3 132.5 L360.3 132.6 L360.3 132.8 L360.3 133.0 L360.3 133.2 L360.3 133.4 Z" fill="#2f8f83" fill-opacity="0.34" stroke="#0e5b52" stroke-width="1.6" />
  <path d="M356.2 136.5 L356.2 136.7 L356.3 136.7 L356.5 136.7 L356.6 136.7 L356.8 136.7 L356.9 136.7 L356.9 136.5 L356.9 136.3 L356.9 136.2 L356.9 136.0 L356.9 135.8 L356.8 135.8 L356.6 135.8 L356.5 135.8 L356.5 136.0 L356.3 136.0 L356.2 136.0 L356.2 136.2 L356.2 136.3 L356.2 136.5 Z" fill="#2f8f83" fill-opacity="0.34" stroke="#0e5b52" stroke-width="1.6" />
  <path d="M360.9 131.9 L360.9 132.1 L361.0 132.1 L361.2 132.1 L361.3 132.1 L361.5 132.1 L361.6 132.1 L361.6 131.9 L361.6 131.7 L361.6 131.5 L361.6 131.3 L361.6 131.2 L361.5 131.2 L361.3 131.2 L361.2 131.2 L361.0 131.2 L360.9 131.2 L360.9 131.3 L360.9 131.5 L360.9 131.7 L360.9 131.9 Z" fill="#2f8f83" fill-opacity="0.34" stroke="#0e5b52" stroke-width="1.6" />
  <path d="M360.8 133.4 L360.8 133.6 L360.9 133.6 L361.0 133.6 L361.2 133.6 L361.3 133.6 L361.5 133.6 L361.6 133.6 L361.6 133.4 L361.6 133.2 L361.6 133.0 L361.6 132.8 L361.5 132.8 L361.3 132.8 L361.2 132.8 L361.0 132.8 L360.9 132.8 L360.8 132.8 L360.8 133.0 L360.8 133.2 L360.8 133.4 Z" fill="#2f8f83" fill-opacity="0.34" stroke="#0e5b52" stroke-width="1.6" />
  <path d="M355.5 136.5 L355.5 136.7 L355.6 136.7 L355.8 136.7 L355.9 136.7 L356.1 136.7 L356.2 136.7 L356.2 136.5 L356.2 136.3 L356.2 136.2 L356.2 136.0 L356.1 136.0 L356.1 135.8 L355.9 135.8 L355.8 135.8 L355.6 135.8 L355.5 135.8 L355.5 136.0 L355.5 136.2 L355.5 136.3 L355.5 136.5 Z" fill="#2f8f83" fill-opacity="0.34" stroke="#0e5b52" stroke-width="1.6" />
  <path d="M360.8 132.6 L360.8 132.8 L360.9 132.8 L361.0 132.8 L361.2 132.8 L361.3 132.8 L361.5 132.8 L361.6 132.8 L361.6 132.6 L361.6 132.5 L361.6 132.3 L361.5 132.3 L361.5 132.1 L361.3 132.1 L361.2 132.1 L361.0 132.1 L360.9 132.1 L360.8 132.1 L360.8 132.3 L360.8 132.5 L360.8 132.6 Z" fill="#2f8f83" fill-opacity="0.34" stroke="#0e5b52" stroke-width="1.6" />
  <path d="M361.6 130.8 L361.6 131.0 L361.8 131.0 L361.9 131.0 L362.0 131.0 L362.2 131.0 L362.3 131.0 L362.3 130.8 L362.3 130.6 L362.3 130.4 L362.3 130.2 L362.3 130.0 L362.2 130.0 L362.0 130.0 L361.9 130.0 L361.8 130.0 L361.6 130.0 L361.6 130.2 L361.6 130.4 L361.6 130.6 L361.6 130.8 Z" fill="#2f8f83" fill-opacity="0.34" stroke="#0e5b52" stroke-width="1.6" />
  <path d="M354.2 135.4 L354.2 135.6 L354.4 135.6 L354.5 135.6 L354.6 135.6 L354.8 135.6 L354.9 135.6 L354.9 135.4 L354.9 135.2 L355.1 135.2 L355.1 135.1 L355.1 134.9 L354.9 134.9 L354.8 134.9 L354.6 134.9 L354.5 134.9 L354.4 134.9 L354.2 134.9 L354.2 135.1 L354.2 135.2 L354.2 135.4 Z" fill="#2f8f83" fill-opacity="0.34" stroke="#0e5b52" stroke-width="1.6" />
  <path d="M361.6 132.6 L361.6 132.8 L361.8 132.8 L361.9 132.8 L362.0 132.8 L362.2 132.8 L362.3 132.8 L362.5 132.8 L362.5 132.6 L362.5 132.5 L362.5 132.3 L362.5 132.1 L362.3 132.1 L362.2 132.1 L362.0 132.1 L361.9 132.1 L361.8 132.1 L361.6 132.1 L361.6 132.3 L361.6 132.5 L361.6 132.6 Z" fill="#2f8f83" fill-opacity="0.34" stroke="#0e5b52" stroke-width="1.6" />
  <path d="M358.1 131.2 L358.1 131.3 L358.2 131.3 L358.3 131.3 L358.5 131.3 L358.6 131.3 L358.8 131.3 L358.8 131.2 L358.8 131.0 L358.8 130.8 L358.8 130.6 L358.8 130.4 L358.6 130.4 L358.5 130.4 L358.3 130.4 L358.2 130.4 L358.1 130.4 L358.1 130.6 L358.1 130.8 L358.1 131.0 L358.1 131.2 Z" fill="#2f8f83" fill-opacity="0.34" stroke="#0e5b52" stroke-width="1.6" />
  <path d="M354.4 136.0 L354.4 136.2 L354.5 136.2 L354.6 136.2 L354.8 136.2 L354.9 136.2 L355.1 136.2 L355.2 136.2 L355.4 136.2 L355.5 136.2 L355.5 136.0 L355.5 135.8 L355.5 135.6 L355.4 135.6 L355.2 135.6 L355.1 135.6 L354.9 135.6 L354.8 135.6 L354.6 135.6 L354.5 135.6 L354.4 135.6 L354.4 135.8 L354.4 136.0 Z" fill="#2f8f83" fill-opacity="0.34" stroke="#0e5b52" stroke-width="1.6" />
  <path d="M361.5 134.1 L361.5 134.3 L361.6 134.3 L361.8 134.3 L361.9 134.3 L362.0 134.3 L362.2 134.3 L362.3 134.3 L362.5 134.3 L362.5 134.1 L362.5 133.9 L362.5 133.8 L362.5 133.6 L362.3 133.6 L362.2 133.6 L362.0 133.6 L361.9 133.6 L361.8 133.6 L361.8 133.8 L361.8 133.9 L361.6 133.9 L361.5 133.9 L361.5 134.1 Z" fill="#2f8f83" fill-opacity="0.34" stroke="#0e5b52" stroke-width="1.6" />
  <path d="M354.4 137.1 L354.4 137.3 L354.5 137.3 L354.6 137.3 L354.8 137.3 L354.9 137.3 L355.1 137.3 L355.2 137.3 L355.4 137.3 L355.5 137.3 L355.5 137.1 L355.5 136.9 L355.5 136.7 L355.4 136.7 L355.2 136.7 L355.1 136.7 L354.9 136.7 L354.8 136.7 L354.6 136.7 L354.5 136.7 L354.4 136.7 L354.4 136.9 L354.4 137.1 Z" fill="#2f8f83" fill-opacity="0.34" stroke="#0e5b52" stroke-width="1.6" />
  <path d="M358.8 131.2 L358.8 131.3 L358.9 131.3 L359.1 131.3 L359.2 131.3 L359.3 131.3 L359.5 131.3 L359.5 131.2 L359.5 131.0 L359.5 130.8 L359.5 130.6 L359.5 130.4 L359.3 130.4 L359.2 130.4 L359.1 130.4 L358.9 130.4 L358.8 130.4 L358.8 130.6 L358.8 130.8 L358.8 131.0 L358.8 131.2 Z" fill="#2f8f83" fill-opacity="0.34" stroke="#0e5b52" stroke-width="1.6" />
  <path d="M361.6 134.9 L361.6 135.1 L361.8 135.1 L361.9 135.1 L362.0 135.1 L362.2 135.1 L362.3 135.1 L362.5 135.1 L362.5 134.9 L362.5 134.7 L362.5 134.5 L362.5 134.3 L362.3 134.3 L362.2 134.3 L362.0 134.3 L361.9 134.3 L361.8 134.3 L361.6 134.3 L361.6 134.5 L361.6 134.7 L361.6 134.9 Z" fill="#2f8f83" fill-opacity="0.34" stroke="#0e5b52" stroke-width="1.6" />
  <path d="M361.8 135.6 L361.8 135.8 L361.9 135.8 L362.0 135.8 L362.2 135.8 L362.3 135.8 L362.5 135.8 L362.6 135.8 L362.6 135.6 L362.6 135.4 L362.6 135.2 L362.6 135.1 L362.5 135.1 L362.3 135.1 L362.2 135.1 L362.0 135.1 L361.9 135.1 L361.8 135.1 L361.8 135.2 L361.8 135.4 L361.8 135.6 Z" fill="#2f8f83" fill-opacity="0.34" stroke="#0e5b52" stroke-width="1.6" />
  <path d="M358.8 132.1 L358.8 132.3 L358.9 132.3 L359.1 132.3 L359.2 132.3 L359.3 132.3 L359.5 132.3 L359.5 132.1 L359.5 131.9 L359.5 131.7 L359.5 131.5 L359.5 131.3 L359.3 131.3 L359.2 131.3 L359.1 131.3 L358.9 131.3 L358.8 131.3 L358.8 131.5 L358.8 131.7 L358.8 131.9 L358.8 132.1 Z" fill="#2f8f83" fill-opacity="0.34" stroke="#0e5b52" stroke-width="1.6" />
  <path d="M355.5 137.5 L355.5 137.6 L355.6 137.6 L355.8 137.6 L355.9 137.6 L356.1 137.6 L356.2 137.6 L356.2 137.5 L356.2 137.3 L356.2 137.1 L356.2 136.9 L356.2 136.7 L356.1 136.7 L355.9 136.7 L355.8 136.7 L355.6 136.7 L355.5 136.7 L355.5 136.9 L355.5 137.1 L355.5 137.3 L355.5 137.5 Z" fill="#2f8f83" fill-opacity="0.34" stroke="#0e5b52" stroke-width="1.6" />
  <path d="M361.2 136.5 L361.2 136.7 L361.3 136.7 L361.5 136.7 L361.6 136.7 L361.8 136.7 L361.9 136.7 L361.9 136.5 L361.9 136.3 L361.9 136.2 L361.9 136.0 L361.9 135.8 L361.8 135.8 L361.6 135.8 L361.5 135.8 L361.3 135.8 L361.2 135.8 L361.2 136.0 L361.2 136.2 L361.2 136.3 L361.2 136.5 Z" fill="#2f8f83" fill-opacity="0.34" stroke="#0e5b52" stroke-width="1.6" />
  <path d="M359.5 132.1 L359.5 132.3 L359.6 132.3 L359.8 132.3 L359.9 132.3 L360.0 132.3 L360.2 132.3 L360.2 132.1 L360.2 131.9 L360.2 131.7 L360.0 131.7 L360.0 131.5 L360.2 131.5 L360.2 131.3 L360.0 131.3 L359.9 131.3 L359.8 131.3 L359.6 131.3 L359.5 131.3 L359.5 131.5 L359.5 131.7 L359.5 131.9 L359.5 132.1 Z" fill="#2f8f83" fill-opacity="0.34" stroke="#0e5b52" stroke-width="1.6" />
  <path d="M361.2 137.5 L361.2 137.6 L361.3 137.6 L361.5 137.6 L361.6 137.6 L361.8 137.6 L361.9 137.6 L361.9 137.5 L361.9 137.3 L361.9 137.1 L361.9 136.9 L361.9 136.7 L361.8 136.7 L361.6 136.7 L361.5 136.7 L361.3 136.7 L361.2 136.7 L361.2 136.9 L361.2 137.1 L361.2 137.3 L361.2 137.5 Z" fill="#2f8f83" fill-opacity="0.34" stroke="#0e5b52" stroke-width="1.6" />
  <path d="M354.4 136.5 L354.4 136.7 L354.5 136.7 L354.6 136.7 L354.8 136.7 L354.9 136.7 L355.1 136.7 L355.2 136.7 L355.4 136.7 L355.5 136.7 L355.5 136.5 L355.5 136.3 L355.5 136.2 L355.4 136.2 L355.2 136.2 L355.1 136.2 L354.9 136.2 L354.8 136.2 L354.6 136.2 L354.5 136.2 L354.4 136.2 L354.4 136.3 L354.4 136.5 Z" fill="#2f8f83" fill-opacity="0.34" stroke="#0e5b52" stroke-width="1.6" />
  <path d="M361.9 136.5 L361.9 136.7 L362.0 136.7 L362.2 136.7 L362.3 136.7 L362.5 136.7 L362.6 136.7 L362.6 136.5 L362.6 136.3 L362.6 136.2 L362.6 136.0 L362.6 135.8 L362.5 135.8 L362.3 135.8 L362.2 135.8 L362.0 135.8 L361.9 135.8 L361.9 136.0 L361.9 136.2 L361.9 136.3 L361.9 136.5 Z" fill="#2f8f83" fill-opacity="0.34" stroke="#0e5b52" stroke-width="1.6" />
  <path d="M359.5 131.2 L359.5 131.3 L359.6 131.3 L359.8 131.3 L359.9 131.3 L360.0 131.3 L360.2 131.3 L360.2 131.2 L360.2 131.0 L360.2 130.8 L360.2 130.6 L360.2 130.4 L360.0 130.4 L359.9 130.4 L359.8 130.4 L359.6 130.4 L359.5 130.4 L359.5 130.6 L359.5 130.8 L359.5 131.0 L359.5 131.2 Z" fill="#2f8f83" fill-opacity="0.34" stroke="#0e5b52" stroke-width="1.6" />
  <path d="M356.2 137.5 L356.2 137.6 L356.3 137.6 L356.5 137.6 L356.6 137.6 L356.8 137.6 L356.9 137.6 L356.9 137.5 L356.9 137.3 L356.9 137.1 L356.9 136.9 L356.9 136.7 L356.8 136.7 L356.6 136.7 L356.5 136.7 L356.3 136.7 L356.2 136.7 L356.2 136.9 L356.2 137.1 L356.2 137.3 L356.2 137.5 Z" fill="#2f8f83" fill-opacity="0.34" stroke="#0e5b52" stroke-width="1.6" />
  <path d="M362.6 137.5 L362.6 137.6 L362.7 137.6 L362.9 137.6 L363.0 137.6 L363.2 137.6 L363.3 137.6 L363.3 137.5 L363.3 137.3 L363.3 137.1 L363.3 136.9 L363.3 136.7 L363.2 136.7 L363.0 136.7 L362.9 136.7 L362.7 136.7 L362.6 136.7 L362.6 136.9 L362.6 137.1 L362.6 137.3 L362.6 137.5 Z" fill="#2f8f83" fill-opacity="0.34" stroke="#0e5b52" stroke-width="1.6" />
  <path d="M356.9 137.5 L356.9 137.6 L357.1 137.6 L357.2 137.6 L357.3 137.6 L357.5 137.6 L357.6 137.6 L357.6 137.5 L357.6 137.3 L357.6 137.1 L357.6 136.9 L357.6 136.7 L357.5 136.7 L357.3 136.7 L357.2 136.7 L357.1 136.7 L356.9 136.7 L356.9 136.9 L356.9 137.1 L356.9 137.3 L356.9 137.5 Z" fill="#2f8f83" fill-opacity="0.34" stroke="#0e5b52" stroke-width="1.6" />
  <path d="M362.6 136.5 L362.6 136.7 L362.7 136.7 L362.9 136.7 L363.0 136.7 L363.2 136.7 L363.3 136.7 L363.3 136.5 L363.3 136.3 L363.3 136.2 L363.3 136.0 L363.3 135.8 L363.2 135.8 L363.0 135.8 L362.9 135.8 L362.7 135.8 L362.6 135.8 L362.6 136.0 L362.6 136.2 L362.6 136.3 L362.6 136.5 Z" fill="#2f8f83" fill-opacity="0.34" stroke="#0e5b52" stroke-width="1.6" />
  <path d="M357.6 137.5 L357.6 137.6 L357.8 137.6 L357.9 137.6 L358.1 137.6 L358.2 137.6 L358.3 137.6 L358.3 137.5 L358.3 137.3 L358.3 137.1 L358.3 136.9 L358.3 136.7 L358.2 136.7 L358.1 136.7 L357.9 136.7 L357.8 136.7 L357.6 136.7 L357.6 136.9 L357.6 137.1 L357.6 137.3 L357.6 137.5 Z" fill="#2f8f83" fill-opacity="0.34" stroke="#0e5b52" stroke-width="1.6" />
  <path d="M361.9 137.5 L361.9 137.6 L362.0 137.6 L362.2 137.6 L362.3 137.6 L362.5 137.6 L362.6 137.6 L362.6 137.5 L362.6 137.3 L362.6 137.1 L362.6 136.9 L362.6 136.7 L362.5 136.7 L362.3 136.7 L362.2 136.7 L362.0 136.7 L361.9 136.7 L361.9 136.9 L361.9 137.1 L361.9 137.3 L361.9 137.5 Z" fill="#2f8f83" fill-opacity="0.34" stroke="#0e5b52" stroke-width="1.6" />
  <path d="M360.2 131.2 L360.2 131.3 L360.3 131.3 L360.5 131.3 L360.6 131.3 L360.8 131.3 L360.9 131.3 L360.9 131.2 L360.9 131.0 L360.9 130.8 L360.9 130.6 L360.9 130.4 L360.8 130.4 L360.6 130.4 L360.5 130.4 L360.3 130.4 L360.2 130.4 L360.2 130.6 L360.2 130.8 L360.2 131.0 L360.2 131.2 Z" fill="#2f8f83" fill-opacity="0.34" stroke="#0e5b52" stroke-width="1.6" />
  <path d="M358.3 137.5 L358.3 137.6 L358.5 137.6 L358.6 137.6 L358.8 137.6 L358.9 137.6 L359.1 137.6 L359.1 137.5 L359.1 137.3 L359.1 137.1 L359.1 136.9 L359.1 136.7 L358.9 136.7 L358.8 136.7 L358.6 136.7 L358.5 136.7 L358.3 136.7 L358.3 136.9 L358.3 137.1 L358.3 137.3 L358.3 137.5 Z" fill="#2f8f83" fill-opacity="0.34" stroke="#0e5b52" stroke-width="1.6" />
  <path d="M362.6 135.6 L362.6 135.8 L362.7 135.8 L362.9 135.8 L363.0 135.8 L363.2 135.8 L363.3 135.8 L363.5 135.8 L363.5 135.6 L363.5 135.4 L363.5 135.2 L363.5 135.1 L363.3 135.1 L363.2 135.1 L363.0 135.1 L362.9 135.1 L362.7 135.1 L362.6 135.1 L362.6 135.2 L362.6 135.4 L362.6 135.6 Z" fill="#2f8f83" fill-opacity="0.34" stroke="#0e5b52" stroke-width="1.6" />
  <path d="M359.1 137.5 L359.1 137.6 L359.2 137.6 L359.3 137.6 L359.5 137.6 L359.6 137.6 L359.8 137.6 L359.8 137.5 L359.8 137.3 L359.8 137.1 L359.8 136.9 L359.8 136.7 L359.6 136.7 L359.5 136.7 L359.3 136.7 L359.2 136.7 L359.1 136.7 L359.1 136.9 L359.1 137.1 L359.1 137.3 L359.1 137.5 Z" fill="#2f8f83" fill-opacity="0.34" stroke="#0e5b52" stroke-width="1.6" />
  <path d="M360.2 132.1 L360.2 132.3 L360.3 132.3 L360.5 132.3 L360.6 132.3 L360.8 132.3 L360.8 132.1 L360.9 132.1 L360.9 131.9 L360.9 131.7 L360.9 131.5 L360.9 131.3 L360.8 131.3 L360.6 131.3 L360.5 131.3 L360.3 131.3 L360.2 131.3 L360.2 131.5 L360.2 131.7 L360.2 131.9 L360.2 132.1 Z" fill="#2f8f83" fill-opacity="0.34" stroke="#0e5b52" stroke-width="1.6" />
  <path d="M361.6 133.4 L361.6 133.6 L361.8 133.6 L361.9 133.6 L362.0 133.6 L362.2 133.6 L362.3 133.6 L362.5 133.6 L362.5 133.4 L362.5 133.2 L362.5 133.0 L362.5 132.8 L362.3 132.8 L362.2 132.8 L362.0 132.8 L361.9 132.8 L361.8 132.8 L361.6 132.8 L361.6 133.0 L361.6 133.2 L361.6 133.4 Z" fill="#2f8f83" fill-opacity="0.34" stroke="#0e5b52" stroke-width="1.6" />
  <path d="M362.5 134.9 L362.5 135.1 L362.6 135.1 L362.7 135.1 L362.9 135.1 L363.0 135.1 L363.2 135.1 L363.3 135.1 L363.3 134.9 L363.3 134.7 L363.3 134.5 L363.3 134.3 L363.2 134.3 L363.0 134.3 L362.9 134.3 L362.7 134.3 L362.6 134.3 L362.5 134.3 L362.5 134.5 L362.5 134.7 L362.5 134.9 Z" fill="#2f8f83" fill-opacity="0.34" stroke="#0e5b52" stroke-width="1.6" />
  <path d="M362.5 134.1 L362.5 134.3 L362.6 134.3 L362.7 134.3 L362.9 134.3 L363.0 134.3 L363.2 134.3 L363.3 134.3 L363.3 134.1 L363.3 133.9 L363.3 133.8 L363.3 133.6 L363.2 133.6 L363.0 133.6 L362.9 133.6 L362.7 133.6 L362.6 133.6 L362.5 133.6 L362.5 133.8 L362.5 133.9 L362.5 134.1 Z" fill="#2f8f83" fill-opacity="0.34" stroke="#0e5b52" stroke-width="1.6" />
  <path d="M362.5 133.4 L362.5 133.6 L362.6 133.6 L362.7 133.6 L362.9 133.6 L363.0 133.6 L363.2 133.6 L363.3 133.6 L363.3 133.4 L363.3 133.2 L363.3 133.0 L363.3 132.8 L363.2 132.8 L363.0 132.8 L362.9 132.8 L362.7 132.8 L362.6 132.8 L362.5 132.8 L362.5 133.0 L362.5 133.2 L362.5 133.4 Z" fill="#2f8f83" fill-opacity="0.34" stroke="#0e5b52" stroke-width="1.6" />
  <path d="M363.3 134.1 L363.3 134.3 L363.5 134.3 L363.6 134.3 L363.7 134.3 L363.9 134.3 L364.0 134.3 L364.2 134.3 L364.2 134.1 L364.2 133.9 L364.2 133.8 L364.2 133.6 L364.0 133.6 L363.9 133.6 L363.7 133.6 L363.6 133.6 L363.5 133.6 L363.3 133.6 L363.3 133.8 L363.3 133.9 L363.3 134.1 Z" fill="#2f8f83" fill-opacity="0.34" stroke="#0e5b52" stroke-width="1.6" />
  <path d="M363.3 134.9 L363.3 135.1 L363.5 135.1 L363.6 135.1 L363.7 135.1 L363.9 135.1 L364.0 135.1 L364.2 135.1 L364.2 134.9 L364.2 134.7 L364.2 134.5 L364.2 134.3 L364.0 134.3 L363.9 134.3 L363.7 134.3 L363.6 134.3 L363.5 134.3 L363.3 134.3 L363.3 134.5 L363.3 134.7 L363.3 134.9 Z" fill="#2f8f83" fill-opacity="0.34" stroke="#0e5b52" stroke-width="1.6" />
  <path d="M363.5 135.6 L363.5 135.8 L363.6 135.8 L363.7 135.8 L363.9 135.8 L364.0 135.8 L364.2 135.8 L364.3 135.8 L364.3 135.6 L364.3 135.4 L364.3 135.2 L364.3 135.1 L364.2 135.1 L364.0 135.1 L363.9 135.1 L363.7 135.1 L363.6 135.1 L363.5 135.1 L363.5 135.2 L363.5 135.4 L363.5 135.6 Z" fill="#2f8f83" fill-opacity="0.34" stroke="#0e5b52" stroke-width="1.6" />
  <path d="M364.2 134.9 L364.2 135.1 L364.3 135.1 L364.5 135.1 L364.6 135.1 L364.7 135.1 L364.9 135.1 L365.0 135.1 L365.0 134.9 L365.0 134.7 L365.0 134.5 L365.0 134.3 L364.9 134.3 L364.7 134.3 L364.6 134.3 L364.5 134.3 L364.3 134.3 L364.2 134.3 L364.2 134.5 L364.2 134.7 L364.2 134.9 Z" fill="#2f8f83" fill-opacity="0.34" stroke="#0e5b52" stroke-width="1.6" />
  <path d="M363.3 136.3 L363.3 136.5 L363.5 136.5 L363.6 136.5 L363.7 136.5 L363.9 136.5 L364.0 136.5 L364.2 136.5 L364.2 136.3 L364.2 136.2 L364.2 136.0 L364.2 135.8 L364.0 135.8 L363.9 135.8 L363.7 135.8 L363.6 135.8 L363.5 135.8 L363.3 135.8 L363.3 136.0 L363.3 136.2 L363.3 136.3 Z" fill="#2f8f83" fill-opacity="0.34" stroke="#0e5b52" stroke-width="1.6" />
  <path d="M360.9 131.0 L360.9 131.2 L361.0 131.2 L361.2 131.2 L361.3 131.2 L361.5 131.2 L361.6 131.2 L361.6 131.0 L361.6 130.8 L361.6 130.6 L361.6 130.4 L361.6 130.2 L361.6 130.0 L361.5 130.0 L361.3 130.0 L361.3 130.2 L361.3 130.4 L361.2 130.4 L361.0 130.4 L360.9 130.4 L360.9 130.6 L360.9 130.8 L360.9 131.0 Z" fill="#2f8f83" fill-opacity="0.34" stroke="#0e5b52" stroke-width="1.6" />
  <path d="M361.6 131.9 L361.6 132.1 L361.8 132.1 L361.9 132.1 L362.0 132.1 L362.2 132.1 L362.2 131.9 L362.2 131.7 L362.0 131.7 L362.0 131.5 L362.0 131.3 L362.2 131.3 L362.3 131.3 L362.3 131.2 L362.3 131.0 L362.2 131.0 L362.0 131.0 L361.9 131.0 L361.8 131.0 L361.6 131.0 L361.6 131.2 L361.6 131.3 L361.6 131.5 L361.6 131.7 L361.6 131.9 Z" fill="#2f8f83" fill-opacity="0.34" stroke="#0e5b52" stroke-width="1.6" />
  <path d="M362.2 131.9 L362.2 132.1 L362.3 132.1 L362.5 132.1 L362.5 131.9 L362.5 131.7 L362.5 131.5 L362.5 131.3 L362.5 131.2 L362.5 131.0 L362.5 130.8 L362.5 130.6 L362.5 130.4 L362.5 130.2 L362.5 130.0 L362.3 130.0 L362.3 130.2 L362.3 130.4 L362.3 130.6 L362.3 130.8 L362.3 131.0 L362.3 131.2 L362.3 131.3 L362.3 131.5 L362.3 131.7 L362.2 131.7 L362.2 131.9 Z" fill="#2f8f83" fill-opacity="0.34" stroke="#0e5b52" stroke-width="1.6" />
  <path d="M356.7 130.2 L356.6 130.2 L356.5 130.2 L356.4 130.2 L356.4 130.3 L356.3 130.4 L356.2 130.4 L356.2 130.4 L356.3 130.4 L356.3 130.4 L356.2 130.6 L356.2 130.6 L356.2 130.6 L356.2 130.7 L356.2 130.8 L356.2 130.8 L356.2 130.8 L356.4 130.8 L356.5 130.8 L356.5 130.8 L356.6 130.8 L356.8 130.8 L356.8 130.8 L356.8 130.7 L356.8 130.6 L356.8 130.6 L356.8 130.5 L356.8 130.5 L356.8 130.5 L356.8 130.5 L356.8 130.4 L356.7 130.4 L356.6 130.4 L356.6 130.3 L356.6 130.3 L356.7 130.3 L356.7 130.2 Z" fill="#2f8f83" fill-opacity="0.34" stroke="#0e5b52" stroke-width="1.6" />
  <path d="M356.5 129.7 L356.0 129.7 L356.0 129.9 L356.0 129.9 L356.2 129.9 L356.2 130.0 L356.3 130.1 L356.5 130.1 L356.4 130.2 L356.5 130.2 L356.5 129.7 Z" fill="#2f8f83" fill-opacity="0.34" stroke="#0e5b52" stroke-width="1.6" />
  <path d="M356.0 129.7 L355.7 129.7 L355.6 129.7 L355.5 129.7 L355.4 129.7 L355.2 129.7 L355.0 129.7 L355.0 129.7 L355.0 130.3 L355.0 130.3 L355.0 130.3 L355.1 130.3 L355.2 130.3 L355.3 130.3 L355.4 130.3 L355.3 130.3 L355.4 130.2 L355.4 130.2 L355.4 130.2 L355.4 130.2 L355.3 130.2 L355.3 130.2 L355.2 130.0 L355.2 129.9 L355.3 129.9 L355.3 129.9 L355.5 129.8 L355.5 130.0 L355.5 130.0 L355.5 129.9 L355.6 129.9 L355.6 129.8 L355.7 129.8 L355.7 129.8 L355.9 129.9 L355.8 130.0 L355.8 130.1 L356.0 129.9 L356.0 129.7 Z" fill="#2f8f83" fill-opacity="0.34" stroke="#0e5b52" stroke-width="1.6" />
  <path d="M355.7 130.2 L355.7 130.2 L355.7 130.1 L355.7 130.1 L355.7 130.1 L355.7 130.2 L355.7 130.2 L355.7 130.2 Z" fill="#2f8f83" fill-opacity="0.34" stroke="#0e5b52" stroke-width="1.6" />
  <path d="M355.7 130.4 L355.7 130.4 L355.8 130.4 L355.8 130.3 L355.6 130.2 L355.6 130.3 L355.6 130.4 L355.7 130.4 L355.7 130.4 Z" fill="#2f8f83" fill-opacity="0.34" stroke="#0e5b52" stroke-width="1.6" />
  <path d="M355.6 130.2 L355.6 130.2 L355.6 130.2 L355.7 130.2 L355.7 130.2 L355.7 130.1 L355.7 130.1 L355.6 130.1 L355.6 130.0 L355.6 130.0 L355.5 130.1 L355.5 130.1 L355.5 130.1 L355.5 130.2 L355.5 130.2 L355.6 130.3 L355.6 130.2 Z" fill="#2f8f83" fill-opacity="0.34" stroke="#0e5b52" stroke-width="1.6" />
  <path d="M355.6 130.3 L355.5 130.4 L355.4 130.4 L355.4 130.4 L355.4 130.4 L355.5 130.5 L355.5 130.5 L355.5 130.5 L355.6 130.4 L355.6 130.4 L355.6 130.4 L355.6 130.4 L355.6 130.4 L355.7 130.4 L355.7 130.4 L355.6 130.4 L355.6 130.3 Z" fill="#2f8f83" fill-opacity="0.34" stroke="#0e5b52" stroke-width="1.6" />
  <path d="M355.5 130.4 L355.6 130.3 L355.5 130.2 L355.5 130.2 L355.5 130.1 L355.4 130.2 L355.3 130.3 L355.4 130.3 L355.4 130.4 L355.5 130.4 Z" fill="#2f8f83" fill-opacity="0.34" stroke="#0e5b52" stroke-width="1.6" />
  <path d="M355.8 130.7 L355.8 130.7 L355.8 130.7 L355.8 130.6 L355.8 130.6 L355.8 130.6 L355.8 130.6 L355.7 130.5 L355.7 130.5 L355.6 130.6 L355.7 130.7 L355.7 130.8 L355.8 130.7 Z" fill="#2f8f83" fill-opacity="0.34" stroke="#0e5b52" stroke-width="1.6" />
  <path d="M355.7 130.5 L355.6 130.4 L355.6 130.4 L355.6 130.4 L355.6 130.4 L355.6 130.4 L355.5 130.5 L355.5 130.5 L355.5 130.5 L355.5 130.6 L355.6 130.6 L355.7 130.5 Z" fill="#2f8f83" fill-opacity="0.34" stroke="#0e5b52" stroke-width="1.6" />
  <path d="M355.6 130.9 L355.7 130.8 L355.6 130.7 L355.6 130.7 L355.5 130.7 L355.5 130.7 L355.5 130.7 L355.4 130.8 L355.4 130.8 L355.4 130.9 L355.4 130.9 L355.5 130.9 L355.6 130.9 Z" fill="#2f8f83" fill-opacity="0.34" stroke="#0e5b52" stroke-width="1.6" />
  <path d="M355.4 130.8 L355.5 130.7 L355.5 130.7 L355.5 130.7 L355.4 130.6 L355.4 130.6 L355.3 130.6 L355.3 130.7 L355.3 130.7 L355.3 130.7 L355.4 130.8 L355.4 130.8 L355.4 130.8 L355.4 130.8 Z" fill="#2f8f83" fill-opacity="0.34" stroke="#0e5b52" stroke-width="1.6" />
  <path d="M355.8 130.6 L355.8 130.6 L355.8 130.6 L355.8 130.5 L355.7 130.5 L355.7 130.5 L355.7 130.5 L355.7 130.5 L355.7 130.5 L355.8 130.6 L355.8 130.6 L355.8 130.6 Z" fill="#2f8f83" fill-opacity="0.34" stroke="#0e5b52" stroke-width="1.6" />
  <path d="M355.8 130.5 L355.8 130.5 L355.8 130.5 L355.8 130.4 L355.8 130.4 L355.8 130.4 L355.7 130.4 L355.7 130.4 L355.7 130.4 L355.7 130.4 L355.7 130.5 L355.7 130.5 L355.7 130.5 L355.8 130.5 L355.8 130.5 Z" fill="#2f8f83" fill-opacity="0.34" stroke="#0e5b52" stroke-width="1.6" />
  <path d="M356.0 130.6 L356.1 130.5 L356.1 130.4 L356.1 130.4 L356.0 130.4 L355.9 130.4 L355.9 130.4 L355.9 130.5 L355.9 130.5 L355.9 130.5 L355.9 130.5 L355.9 130.6 L355.9 130.6 L355.9 130.6 L356.0 130.6 L356.0 130.6 Z" fill="#2f8f83" fill-opacity="0.34" stroke="#0e5b52" stroke-width="1.6" />
  <path d="M355.9 130.3 L356.0 130.3 L356.0 130.2 L355.9 130.1 L355.9 130.1 L355.9 130.1 L355.8 130.1 L355.8 130.1 L355.8 130.1 L355.8 130.3 L355.9 130.3 L355.9 130.3 Z" fill="#2f8f83" fill-opacity="0.34" stroke="#0e5b52" stroke-width="1.6" />
  <path d="M356.0 130.3 L356.0 130.3 L355.9 130.3 L355.9 130.3 L355.9 130.3 L355.9 130.4 L355.9 130.5 L355.9 130.5 L355.9 130.4 L355.9 130.4 L356.0 130.4 L356.0 130.4 L356.0 130.3 Z" fill="#2f8f83" fill-opacity="0.34" stroke="#0e5b52" stroke-width="1.6" />
  <path d="M355.8 130.3 L355.7 130.2 L355.7 130.2 L355.7 130.2 L355.6 130.2 L355.6 130.2 L355.8 130.3 L355.8 130.3 Z" fill="#2f8f83" fill-opacity="0.34" stroke="#0e5b52" stroke-width="1.6" />
  <path d="M355.8 130.4 L355.8 130.3 L355.8 130.3 L355.8 130.4 L355.8 130.4 Z" fill="#2f8f83" fill-opacity="0.34" stroke="#0e5b52" stroke-width="1.6" />
  <path d="M355.9 130.3 L355.8 130.3 L355.8 130.1 L355.7 130.2 L355.7 130.2 L355.7 130.2 L355.8 130.3 L355.9 130.3 Z" fill="#2f8f83" fill-opacity="0.34" stroke="#0e5b52" stroke-width="1.6" />
  <path d="M355.9 130.5 L355.9 130.5 L355.9 130.5 L355.9 130.4 L355.9 130.3 L355.9 130.3 L355.8 130.3 L355.8 130.4 L355.8 130.4 L355.8 130.5 L355.8 130.5 L355.8 130.5 L355.8 130.5 L355.9 130.5 Z" fill="#2f8f83" fill-opacity="0.34" stroke="#0e5b52" stroke-width="1.6" />
  <path d="M355.7 129.8 L355.6 129.8 L355.6 129.9 L355.5 129.9 L355.6 129.9 L355.7 130.0 L355.7 129.8 Z" fill="#2f8f83" fill-opacity="0.34" stroke="#0e5b52" stroke-width="1.6" />
  <path d="M355.9 129.9 L355.7 129.8 L355.7 129.8 L355.7 130.0 L355.8 130.0 L355.8 130.0 L355.9 129.9 Z" fill="#2f8f83" fill-opacity="0.34" stroke="#0e5b52" stroke-width="1.6" />
  <path d="M355.7 130.0 L355.6 129.9 L355.5 129.9 L355.5 130.0 L355.5 130.0 L355.5 130.0 L355.5 130.1 L355.5 130.1 L355.5 130.1 L355.6 130.0 L355.6 130.0 L355.6 130.1 L355.7 130.0 Z" fill="#2f8f83" fill-opacity="0.34" stroke="#0e5b52" stroke-width="1.6" />
  <path d="M355.8 130.1 L355.8 130.1 L355.8 130.1 L355.8 130.0 L355.8 130.0 L355.7 130.0 L355.6 130.1 L355.7 130.1 L355.7 130.1 L355.7 130.2 L355.8 130.1 Z" fill="#2f8f83" fill-opacity="0.34" stroke="#0e5b52" stroke-width="1.6" />
  <path d="M356.0 130.1 L355.9 130.1 L355.9 130.1 L356.0 130.2 L356.0 130.1 Z" fill="#2f8f83" fill-opacity="0.34" stroke="#0e5b52" stroke-width="1.6" />
  <path d="M355.9 130.1 L355.8 130.1 L355.8 130.1 L355.9 130.1 Z" fill="#2f8f83" fill-opacity="0.34" stroke="#0e5b52" stroke-width="1.6" />
  <path d="M356.1 130.2 L356.2 130.1 L356.1 130.1 L356.0 130.1 L356.0 130.2 L356.0 130.3 L356.0 130.3 L356.0 130.3 L356.1 130.3 L356.1 130.3 L356.1 130.2 Z" fill="#2f8f83" fill-opacity="0.34" stroke="#0e5b52" stroke-width="1.6" />
  <path d="M356.1 130.8 L356.1 130.8 L356.1 130.8 L356.1 130.7 L356.1 130.7 L356.0 130.6 L356.0 130.7 L356.0 130.7 L356.0 130.8 L356.1 130.8 L356.1 130.9 L356.1 130.8 Z" fill="#2f8f83" fill-opacity="0.34" stroke="#0e5b52" stroke-width="1.6" />
  <path d="M355.9 130.6 L355.9 130.6 L355.9 130.6 L355.9 130.5 L355.9 130.5 L355.9 130.6 L355.8 130.6 L355.9 130.6 L355.9 130.6 L356.0 130.7 L356.0 130.7 L356.0 130.6 L355.9 130.6 Z" fill="#2f8f83" fill-opacity="0.34" stroke="#0e5b52" stroke-width="1.6" />
  <path d="M356.2 130.6 L356.2 130.6 L356.1 130.5 L356.1 130.5 L356.0 130.6 L356.0 130.6 L356.1 130.7 L356.1 130.7 L356.2 130.6 Z" fill="#2f8f83" fill-opacity="0.34" stroke="#0e5b52" stroke-width="1.6" />
  <path d="M356.0 130.6 L356.1 130.5 L356.1 130.5 L356.0 130.6 L356.0 130.6 L355.9 130.6 L355.9 130.6 L355.9 130.6 L356.0 130.6 L356.0 130.6 Z" fill="#2f8f83" fill-opacity="0.34" stroke="#0e5b52" stroke-width="1.6" />
  <path d="M356.3 130.4 L356.3 130.4 L356.2 130.4 L356.2 130.4 L356.2 130.4 L356.2 130.4 L356.1 130.5 L356.1 130.5 L356.2 130.6 L356.3 130.4 Z" fill="#2f8f83" fill-opacity="0.34" stroke="#0e5b52" stroke-width="1.6" />
  <path d="M356.2 130.4 L356.2 130.4 L356.2 130.4 L356.1 130.3 L356.1 130.3 L356.1 130.4 L356.1 130.4 L356.1 130.4 L356.1 130.5 L356.1 130.5 L356.2 130.4 Z" fill="#2f8f83" fill-opacity="0.34" stroke="#0e5b52" stroke-width="1.6" />
  <path d="M356.4 130.3 L356.2 130.2 L356.2 130.4 L356.2 130.4 L356.3 130.4 L356.4 130.3 Z" fill="#2f8f83" fill-opacity="0.34" stroke="#0e5b52" stroke-width="1.6" />
  <path d="M356.2 130.2 L356.1 130.2 L356.1 130.3 L356.1 130.3 L356.2 130.4 L356.2 130.2 Z" fill="#2f8f83" fill-opacity="0.34" stroke="#0e5b52" stroke-width="1.6" />
  <path d="M356.3 130.1 L356.2 130.0 L356.1 130.1 L356.1 130.1 L356.2 130.1 L356.1 130.2 L356.2 130.2 L356.3 130.1 Z" fill="#2f8f83" fill-opacity="0.34" stroke="#0e5b52" stroke-width="1.6" />
  <path d="M356.2 130.0 L356.2 129.9 L356.0 129.9 L356.0 130.0 L356.1 130.1 L356.1 130.1 L356.2 130.0 Z" fill="#2f8f83" fill-opacity="0.34" stroke="#0e5b52" stroke-width="1.6" />
  <path d="M356.1 130.1 L356.1 130.1 L356.0 130.0 L355.9 130.1 L356.0 130.1 L356.1 130.1 L356.1 130.1 Z" fill="#2f8f83" fill-opacity="0.34" stroke="#0e5b52" stroke-width="1.6" />
  <path d="M356.0 130.0 L356.0 129.9 L356.0 129.9 L355.8 130.1 L355.9 130.1 L355.9 130.1 L355.9 130.1 L356.0 130.0 Z" fill="#2f8f83" fill-opacity="0.34" stroke="#0e5b52" stroke-width="1.6" />
  <path d="M356.4 130.2 L356.5 130.1 L356.3 130.1 L356.2 130.2 L356.4 130.3 L356.4 130.2 Z" fill="#2f8f83" fill-opacity="0.34" stroke="#0e5b52" stroke-width="1.6" />
  <path d="M355.4 130.9 L355.4 130.8 L355.4 130.8 L355.3 130.7 L355.3 130.7 L355.2 130.7 L355.2 130.8 L355.2 130.9 L355.2 130.9 L355.4 130.9 L355.4 130.9 Z" fill="#2f8f83" fill-opacity="0.34" stroke="#0e5b52" stroke-width="1.6" />
  <path d="M355.9 130.6 L355.8 130.6 L355.8 130.6 L355.9 130.6 Z" fill="#2f8f83" fill-opacity="0.34" stroke="#0e5b52" stroke-width="1.6" />
  <path d="M356.1 130.4 L356.1 130.3 L356.0 130.3 L356.0 130.4 L356.0 130.4 L356.1 130.4 L356.1 130.4 Z" fill="#2f8f83" fill-opacity="0.34" stroke="#0e5b52" stroke-width="1.6" />
  <path d="M356.6 129.3 L356.6 129.5 L356.8 129.5 L356.9 129.5 L357.1 129.5 L357.1 129.3 L357.1 129.1 L356.9 129.1 L356.8 129.1 L356.6 129.1 L356.6 129.3 Z" fill="#2f8f83" fill-opacity="0.34" stroke="#0e5b52" stroke-width="1.6" />
  <path d="M356.6 130.0 L356.6 130.2 L356.8 130.2 L356.9 130.2 L356.9 130.4 L357.1 130.4 L357.1 130.2 L357.1 130.0 L357.1 129.9 L356.9 129.9 L356.8 129.9 L356.6 129.9 L356.6 130.0 Z" fill="#2f8f83" fill-opacity="0.34" stroke="#0e5b52" stroke-width="1.6" />
  <path d="M356.3 129.7 L356.3 129.9 L356.5 129.9 L356.5 129.7 L356.6 129.7 L356.8 129.7 L356.9 129.7 L357.1 129.7 L357.2 129.7 L357.2 129.5 L357.1 129.5 L356.9 129.5 L356.8 129.5 L356.6 129.5 L356.5 129.5 L356.3 129.5 L356.3 129.7 Z" fill="#2f8f83" fill-opacity="0.34" stroke="#0e5b52" stroke-width="1.6" />
  <path d="M356.3 131.0 L356.3 131.2 L356.5 131.2 L356.6 131.2 L356.8 131.2 L356.9 131.2 L357.1 131.2 L357.2 131.2 L357.3 131.2 L357.5 131.2 L357.6 131.2 L357.8 131.2 L357.8 131.0 L357.8 130.8 L357.6 130.8 L357.5 130.8 L357.5 131.0 L357.3 131.0 L357.2 131.0 L357.1 131.0 L356.9 131.0 L356.8 131.0 L356.8 130.8 L356.6 130.8 L356.5 130.8 L356.3 130.8 L356.3 131.0 Z" fill="#2f8f83" fill-opacity="0.34" stroke="#0e5b52" stroke-width="1.6" />
  <path d="M356.5 130.8 L356.6 130.8 L356.8 130.8 L356.8 130.6 L356.6 130.6 L356.5 130.6 L356.3 130.6 L356.3 130.8 L356.5 130.8 Z" fill="#2f8f83" fill-opacity="0.34" stroke="#0e5b52" stroke-width="1.6" />
  <path d="M356.6 129.9 L356.8 129.9 L356.9 129.9 L357.1 129.9 L357.1 130.0 L357.1 130.2 L357.1 130.4 L357.2 130.4 L357.2 130.2 L357.2 130.0 L357.2 129.9 L357.2 129.7 L357.1 129.7 L356.9 129.7 L356.8 129.7 L356.6 129.7 L356.5 129.7 L356.5 129.9 L356.6 129.9 Z" fill="#2f8f83" fill-opacity="0.34" stroke="#0e5b52" stroke-width="1.6" />
  <path d="M356.5 130.0 L356.5 130.2 L356.6 130.2 L356.6 130.0 L356.6 129.9 L356.5 129.9 L356.5 130.0 Z" fill="#2f8f83" fill-opacity="0.34" stroke="#0e5b52" stroke-width="1.6" />
  <path d="M355.1 128.2 L355.1 128.4 L355.2 128.4 L355.2 128.6 L355.4 128.6 L355.5 128.6 L355.6 128.6 L355.8 128.6 L355.9 128.6 L355.9 128.4 L355.9 128.2 L355.9 128.0 L355.8 128.0 L355.6 128.0 L355.5 128.0 L355.4 128.0 L355.2 128.0 L355.1 128.0 L355.1 128.2 Z" fill="#2f8f83" fill-opacity="0.34" stroke="#0e5b52" stroke-width="1.6" />
  <path d="M355.2 129.3 L355.2 129.5 L355.4 129.5 L355.5 129.5 L355.6 129.5 L355.8 129.5 L355.9 129.5 L355.9 129.3 L355.9 129.1 L355.9 128.9 L355.9 128.8 L355.9 128.6 L355.8 128.6 L355.6 128.6 L355.5 128.6 L355.4 128.6 L355.2 128.6 L355.2 128.8 L355.4 128.8 L355.5 128.8 L355.5 128.9 L355.5 129.1 L355.4 129.1 L355.2 129.1 L355.2 129.3 Z" fill="#2f8f83" fill-opacity="0.34" stroke="#0e5b52" stroke-width="1.6" />
  <path d="M355.9 129.3 L355.9 129.5 L356.1 129.5 L356.2 129.5 L356.3 129.5 L356.5 129.5 L356.6 129.5 L356.6 129.3 L356.6 129.1 L356.6 128.9 L356.6 128.8 L356.6 128.6 L356.5 128.6 L356.3 128.6 L356.2 128.6 L356.1 128.6 L355.9 128.6 L355.9 128.8 L355.9 128.9 L355.9 129.1 L355.9 129.3 Z" fill="#2f8f83" fill-opacity="0.34" stroke="#0e5b52" stroke-width="1.6" />
  <path d="M355.9 128.4 L355.9 128.6 L356.1 128.6 L356.2 128.6 L356.3 128.6 L356.5 128.6 L356.6 128.6 L356.6 128.4 L356.6 128.2 L356.6 128.0 L356.6 127.8 L356.5 127.8 L356.3 127.8 L356.3 127.6 L356.2 127.6 L356.2 127.4 L356.1 127.4 L355.9 127.4 L355.9 127.6 L355.9 127.8 L355.9 128.0 L355.9 128.2 L355.9 128.4 Z" fill="#2f8f83" fill-opacity="0.34" stroke="#0e5b52" stroke-width="1.6" />
  <path d="M355.2 130.6 L355.2 130.8 L355.4 130.8 L355.5 130.8 L355.5 130.6 L355.6 130.6 L355.6 130.4 L355.6 130.2 L355.5 130.2 L355.5 130.4 L355.4 130.4 L355.2 130.4 L355.2 130.6 Z" fill="#2f8f83" fill-opacity="0.34" stroke="#0e5b52" stroke-width="1.6" />
  <path d="M355.6 130.4 L355.6 130.6 L355.8 130.6 L355.8 130.4 L355.8 130.2 L355.6 130.2 L355.6 130.4 Z" fill="#2f8f83" fill-opacity="0.34" stroke="#0e5b52" stroke-width="1.6" />
  <path d="M355.5 132.8 L355.5 133.0 L355.6 133.0 L355.6 132.8 L355.8 132.8 L355.9 132.8 L356.1 132.8 L356.1 132.6 L356.1 132.5 L356.2 132.5 L356.3 132.5 L356.5 132.5 L356.5 132.3 L356.5 132.1 L356.5 131.9 L356.3 131.9 L356.3 132.1 L356.3 132.3 L356.2 132.3 L356.1 132.3 L356.1 132.1 L356.1 131.9 L355.9 131.9 L355.8 131.9 L355.6 131.9 L355.5 131.9 L355.5 132.1 L355.5 132.3 L355.5 132.5 L355.5 132.6 L355.5 132.8 Z" fill="#2f8f83" fill-opacity="0.34" stroke="#0e5b52" stroke-width="1.6" />
  <path d="M356.1 132.1 L356.1 132.3 L356.2 132.3 L356.3 132.3 L356.3 132.1 L356.3 131.9 L356.2 131.9 L356.1 131.9 L356.1 132.1 Z" fill="#2f8f83" fill-opacity="0.34" stroke="#0e5b52" stroke-width="1.6" />
  <path d="M356.2 131.5 L356.2 131.7 L356.3 131.7 L356.3 131.5 L356.5 131.5 L356.5 131.3 L356.6 131.3 L356.8 131.3 L356.8 131.5 L356.9 131.5 L357.1 131.5 L357.1 131.7 L357.2 131.7 L357.3 131.7 L357.5 131.7 L357.6 131.7 L357.6 131.5 L357.6 131.3 L357.6 131.2 L357.5 131.2 L357.3 131.2 L357.2 131.2 L357.1 131.2 L356.9 131.2 L356.8 131.2 L356.6 131.2 L356.5 131.2 L356.3 131.2 L356.3 131.3 L356.2 131.3 L356.1 131.3 L356.1 131.5 L356.2 131.5 Z" fill="#2f8f83" fill-opacity="0.34" stroke="#0e5b52" stroke-width="1.6" />
  <path d="M356.5 131.7 L356.6 131.7 L356.6 131.5 L356.8 131.5 L356.8 131.3 L356.6 131.3 L356.5 131.3 L356.5 131.5 L356.3 131.5 L356.3 131.7 L356.5 131.7 Z" fill="#2f8f83" fill-opacity="0.34" stroke="#0e5b52" stroke-width="1.6" />
  <path d="M356.5 132.3 L356.5 132.5 L356.6 132.5 L356.8 132.5 L356.9 132.5 L357.1 132.5 L357.2 132.5 L357.2 132.6 L357.2 132.8 L357.3 132.8 L357.5 132.8 L357.5 132.6 L357.6 132.6 L357.8 132.6 L357.8 132.5 L357.8 132.3 L357.8 132.1 L357.6 132.1 L357.5 132.1 L357.3 132.1 L357.2 132.1 L357.2 131.9 L357.1 131.9 L356.9 131.9 L356.9 131.7 L356.9 131.5 L356.8 131.5 L356.8 131.7 L356.8 131.9 L356.6 131.9 L356.5 131.9 L356.5 132.1 L356.5 132.3 Z" fill="#2f8f83" fill-opacity="0.34" stroke="#0e5b52" stroke-width="1.6" />
  <path d="M356.5 131.9 L356.5 131.7 L356.3 131.7 L356.3 131.9 L356.5 131.9 Z" fill="#2f8f83" fill-opacity="0.34" stroke="#0e5b52" stroke-width="1.6" />
  <path d="M356.6 131.9 L356.8 131.9 L356.8 131.7 L356.6 131.7 L356.5 131.7 L356.5 131.9 L356.6 131.9 Z" fill="#2f8f83" fill-opacity="0.34" stroke="#0e5b52" stroke-width="1.6" />
  <path d="M356.8 131.7 L356.8 131.5 L356.6 131.5 L356.6 131.7 L356.8 131.7 Z" fill="#2f8f83" fill-opacity="0.34" stroke="#0e5b52" stroke-width="1.6" />
  <path d="M355.4 131.9 L355.4 132.1 L355.5 132.1 L355.5 131.9 L355.6 131.9 L355.8 131.9 L355.9 131.9 L356.1 131.9 L356.1 131.7 L356.2 131.7 L356.2 131.5 L356.1 131.5 L356.1 131.3 L355.9 131.3 L355.8 131.3 L355.8 131.5 L355.6 131.5 L355.5 131.5 L355.4 131.5 L355.4 131.7 L355.4 131.9 Z" fill="#2f8f83" fill-opacity="0.34" stroke="#0e5b52" stroke-width="1.6" />
  <path d="M356.2 131.9 L356.3 131.9 L356.3 131.7 L356.2 131.7 L356.1 131.7 L356.1 131.9 L356.2 131.9 Z" fill="#2f8f83" fill-opacity="0.34" stroke="#0e5b52" stroke-width="1.6" />
  <path d="M361.2 134.1 L361.3 134.1 L361.3 134.3 L361.5 134.3 L361.5 134.1 L361.5 133.9 L361.3 133.9 L361.2 133.9 L361.0 133.9 L361.0 134.1 L361.2 134.1 Z" fill="#2f8f83" fill-opacity="0.34" stroke="#0e5b52" stroke-width="1.6" />
  <path d="M353.1 129.5 L353.1 129.7 L353.2 129.7 L353.4 129.7 L353.5 129.7 L353.6 129.7 L353.8 129.7 L353.8 129.9 L353.8 130.0 L353.9 130.0 L353.9 129.9 L353.9 129.7 L353.9 129.5 L353.9 129.3 L353.9 129.1 L353.9 128.9 L353.9 128.8 L353.9 128.6 L353.8 128.6 L353.6 128.6 L353.6 128.8 L353.5 128.8 L353.5 128.6 L353.4 128.6 L353.2 128.6 L353.1 128.6 L353.1 128.8 L353.1 128.9 L353.1 129.1 L353.1 129.3 L353.1 129.5 Z" fill="#2f8f83" fill-opacity="0.34" stroke="#0e5b52" stroke-width="1.6" />
  <path d="M355.2 133.6 L355.2 133.8 L355.4 133.8 L355.5 133.8 L355.5 133.6 L355.5 133.4 L355.4 133.4 L355.2 133.4 L355.2 133.6 Z" fill="#2f8f83" fill-opacity="0.34" stroke="#0e5b52" stroke-width="1.6" />
  <path d="M355.1 133.6 L355.1 133.8 L355.2 133.8 L355.2 133.6 L355.2 133.4 L355.4 133.4 L355.5 133.4 L355.5 133.2 L355.5 133.0 L355.5 132.8 L355.5 132.6 L355.4 132.6 L355.2 132.6 L355.1 132.6 L355.1 132.8 L355.1 133.0 L355.1 133.2 L355.1 133.4 L355.1 133.6 Z" fill="#2f8f83" fill-opacity="0.34" stroke="#0e5b52" stroke-width="1.6" />
  <path d="M354.4 132.1 L354.4 132.3 L354.5 132.3 L354.5 132.5 L354.5 132.6 L354.5 132.8 L354.5 133.0 L354.5 133.2 L354.5 133.4 L354.5 133.6 L354.5 133.8 L354.6 133.8 L354.8 133.8 L354.9 133.8 L355.1 133.8 L355.1 133.6 L355.1 133.4 L355.1 133.2 L355.1 133.0 L355.1 132.8 L355.1 132.6 L354.9 132.6 L354.8 132.6 L354.6 132.6 L354.6 132.5 L354.6 132.3 L354.6 132.1 L354.6 131.9 L354.6 131.7 L354.5 131.7 L354.4 131.7 L354.4 131.9 L354.4 132.1 Z" fill="#2f8f83" fill-opacity="0.34" stroke="#0e5b52" stroke-width="1.6" />
  <path d="M361.2 134.3 L361.3 134.3 L361.3 134.1 L361.2 134.1 L361.0 134.1 L361.0 134.3 L361.2 134.3 Z" fill="#2f8f83" fill-opacity="0.34" stroke="#0e5b52" stroke-width="1.6" />
  <path d="M645.6 526.7 L645.6 526.9 L645.5 526.9 L645.5 527.0 L645.6 527.0 L645.8 527.0 L645.9 527.0 L646.1 527.0 L646.2 527.0 L646.4 527.0 L646.5 527.0 L646.5 526.9 L646.5 526.7 L646.5 526.6 L646.4 526.6 L646.2 526.6 L646.1 526.6 L645.9 526.6 L645.8 526.6 L645.6 526.6 L645.6 526.7 Z" fill="#2f8f83" fill-opacity="0.34" stroke="#0e5b52" stroke-width="1.6" />
  <path d="M645.4 526.4 L645.4 526.6 L645.5 526.6 L645.5 526.4 L645.6 526.4 L645.8 526.4 L645.9 526.4 L646.1 526.4 L646.2 526.4 L646.4 526.4 L646.5 526.4 L646.5 526.6 L646.5 526.7 L646.6 526.7 L646.8 526.7 L646.9 526.7 L646.9 526.6 L646.9 526.4 L646.9 526.3 L646.9 526.2 L646.8 526.2 L646.6 526.2 L646.5 526.2 L646.5 526.3 L646.4 526.3 L646.2 526.3 L646.1 526.3 L645.9 526.3 L645.8 526.3 L645.6 526.3 L645.5 526.3 L645.4 526.3 L645.4 526.4 Z M646.6 526.3 L646.8 526.3 L646.8 526.4 L646.6 526.4 L646.6 526.3 Z" fill="#2f8f83" fill-opacity="0.34" stroke="#0e5b52" stroke-width="1.6" />
  <path d="M641.7 527.6 L641.5 527.6 L641.5 527.8 L641.7 527.8 L641.8 527.8 L641.9 527.8 L641.9 527.6 L641.8 527.6 L641.7 527.6 Z" fill="#2f8f83" fill-opacity="0.34" stroke="#0e5b52" stroke-width="1.6" />
  <path d="M646.8 526.3 L646.6 526.3 L646.6 526.4 L646.8 526.4 L646.8 526.3 Z" fill="#2f8f83" fill-opacity="0.34" stroke="#0e5b52" stroke-width="1.6" />
  <path d="M645.2 526.7 L645.2 526.9 L645.4 526.9 L645.4 527.0 L645.5 527.0 L645.5 526.9 L645.6 526.9 L645.6 526.7 L645.6 526.6 L645.6 526.4 L645.5 526.4 L645.5 526.6 L645.4 526.6 L645.2 526.6 L645.2 526.7 Z" fill="#2f8f83" fill-opacity="0.34" stroke="#0e5b52" stroke-width="1.6" />
  <path d="M645.8 526.4 L645.6 526.4 L645.6 526.6 L645.8 526.6 L645.8 526.4 Z" fill="#2f8f83" fill-opacity="0.34" stroke="#0e5b52" stroke-width="1.6" />
  <path d="M645.9 526.4 L645.8 526.4 L645.8 526.6 L645.9 526.6 L645.9 526.4 Z" fill="#2f8f83" fill-opacity="0.34" stroke="#0e5b52" stroke-width="1.6" />
  <path d="M646.1 526.4 L645.9 526.4 L645.9 526.6 L646.1 526.6 L646.1 526.4 Z" fill="#2f8f83" fill-opacity="0.34" stroke="#0e5b52" stroke-width="1.6" />
  <path d="M646.2 526.4 L646.1 526.4 L646.1 526.6 L646.2 526.6 L646.4 526.6 L646.5 526.6 L646.5 526.4 L646.4 526.4 L646.2 526.4 Z" fill="#2f8f83" fill-opacity="0.34" stroke="#0e5b52" stroke-width="1.6" />
  <path d="M641.7 525.3 L641.5 525.3 L641.5 525.4 L641.7 525.4 L641.8 525.4 L641.8 525.6 L641.9 525.6 L642.1 525.6 L642.1 525.4 L642.1 525.3 L641.9 525.3 L641.8 525.3 L641.7 525.3 Z" fill="#2f8f83" fill-opacity="0.34" stroke="#0e5b52" stroke-width="1.6" />
  <path d="M642.2 527.0 L642.2 527.2 L642.2 527.3 L642.4 527.3 L642.5 527.3 L642.5 527.2 L642.5 527.0 L642.5 526.9 L642.4 526.9 L642.2 526.9 L642.2 527.0 Z" fill="#2f8f83" fill-opacity="0.34" stroke="#0e5b52" stroke-width="1.6" />
  <path d="M642.5 525.9 L642.5 526.0 L642.5 526.2 L642.5 526.3 L642.5 526.4 L642.5 526.6 L642.7 526.6 L642.7 526.4 L642.7 526.3 L642.7 526.2 L642.7 526.0 L642.7 525.9 L642.7 525.7 L642.5 525.7 L642.5 525.9 Z" fill="#2f8f83" fill-opacity="0.34" stroke="#0e5b52" stroke-width="1.6" />
  <path d="M642.5 526.9 L642.5 526.7 L642.4 526.7 L642.4 526.9 L642.5 526.9 Z" fill="#2f8f83" fill-opacity="0.34" stroke="#0e5b52" stroke-width="1.6" />
  <path d="M641.4 525.1 L641.4 525.3 L641.5 525.3 L641.7 525.3 L641.8 525.3 L641.9 525.3 L642.1 525.3 L642.1 525.4 L642.2 525.4 L642.4 525.4 L642.5 525.4 L642.7 525.4 L642.7 525.3 L642.7 525.1 L642.7 525.0 L642.5 525.0 L642.4 525.0 L642.2 525.0 L642.1 525.0 L641.9 525.0 L641.8 525.0 L641.7 525.0 L641.5 525.0 L641.4 525.0 L641.4 525.1 Z" fill="#2f8f83" fill-opacity="0.34" stroke="#0e5b52" stroke-width="1.6" />
  <path d="M642.1 525.6 L642.1 525.7 L642.2 525.7 L642.4 525.7 L642.5 525.7 L642.7 525.7 L642.7 525.6 L642.7 525.4 L642.5 525.4 L642.4 525.4 L642.2 525.4 L642.1 525.4 L642.1 525.6 Z" fill="#2f8f83" fill-opacity="0.34" stroke="#0e5b52" stroke-width="1.6" />
  <path d="M641.4 525.4 L641.4 525.6 L641.5 525.6 L641.5 525.4 L641.5 525.3 L641.4 525.3 L641.4 525.4 Z" fill="#2f8f83" fill-opacity="0.34" stroke="#0e5b52" stroke-width="1.6" />
  <path d="M641.5 525.7 L641.5 525.6 L641.4 525.6 L641.4 525.7 L641.5 525.7 Z" fill="#2f8f83" fill-opacity="0.34" stroke="#0e5b52" stroke-width="1.6" />
  <path d="M642.4 526.6 L642.2 526.6 L642.2 526.7 L642.4 526.7 L642.5 526.7 L642.5 526.6 L642.4 526.6 Z" fill="#2f8f83" fill-opacity="0.34" stroke="#0e5b52" stroke-width="1.6" />
  <path d="M355.6 130.8 L355.6 131.0 L355.8 131.0 L355.8 130.8 L355.8 130.6 L355.6 130.6 L355.5 130.6 L355.5 130.8 L355.6 130.8 Z" fill="#2f8f83" fill-opacity="0.34" stroke="#0e5b52" stroke-width="1.6" />
  <path d="M355.2 130.6 L355.2 130.4 L355.1 130.4 L355.1 130.6 L355.2 130.6 Z" fill="#2f8f83" fill-opacity="0.34" stroke="#0e5b52" stroke-width="1.6" />
  <path d="M642.1 527.8 L642.1 527.6 L641.9 527.6 L641.9 527.8 L642.1 527.8 Z" fill="#2f8f83" fill-opacity="0.34" stroke="#0e5b52" stroke-width="1.6" />
  <path d="M641.8 526.6 L641.8 526.7 L641.8 526.9 L641.9 526.9 L641.9 527.0 L642.1 527.0 L642.2 527.0 L642.2 526.9 L642.2 526.7 L642.2 526.6 L642.2 526.4 L642.2 526.3 L642.1 526.3 L641.9 526.3 L641.9 526.4 L641.8 526.4 L641.8 526.6 Z" fill="#2f8f83" fill-opacity="0.34" stroke="#0e5b52" stroke-width="1.6" />
  <path d="M641.2 525.9 L641.2 526.0 L641.2 526.2 L641.2 526.3 L641.4 526.3 L641.5 526.3 L641.7 526.3 L641.8 526.3 L641.8 526.4 L641.9 526.4 L641.9 526.3 L642.1 526.3 L642.2 526.3 L642.2 526.2 L642.2 526.0 L642.2 525.9 L642.2 525.7 L642.1 525.7 L642.1 525.6 L641.9 525.6 L641.8 525.6 L641.8 525.7 L641.7 525.7 L641.7 525.9 L641.5 525.9 L641.5 525.7 L641.4 525.7 L641.2 525.7 L641.2 525.9 Z" fill="#2f8f83" fill-opacity="0.34" stroke="#0e5b52" stroke-width="1.6" />
  <path d="M641.5 526.7 L641.5 526.9 L641.5 527.0 L641.7 527.0 L641.7 527.2 L641.8 527.2 L641.8 527.0 L641.8 526.9 L641.8 526.7 L641.8 526.6 L641.7 526.6 L641.5 526.6 L641.5 526.7 Z" fill="#2f8f83" fill-opacity="0.34" stroke="#0e5b52" stroke-width="1.6" />
  <path d="M641.9 527.2 L641.8 527.2 L641.8 527.3 L641.9 527.3 L641.9 527.5 L641.9 527.6 L642.1 527.6 L642.2 527.6 L642.2 527.5 L642.2 527.3 L642.2 527.2 L642.2 527.0 L642.1 527.0 L641.9 527.0 L641.9 527.2 Z" fill="#2f8f83" fill-opacity="0.34" stroke="#0e5b52" stroke-width="1.6" />
  <path d="M641.4 526.9 L641.4 527.0 L641.5 527.0 L641.5 526.9 L641.5 526.7 L641.4 526.7 L641.4 526.9 Z" fill="#2f8f83" fill-opacity="0.34" stroke="#0e5b52" stroke-width="1.6" />
  <path d="M641.2 526.4 L641.2 526.6 L641.2 526.7 L641.2 526.9 L641.2 527.0 L641.2 527.2 L641.2 527.3 L641.4 527.3 L641.5 527.3 L641.7 527.3 L641.8 527.3 L641.8 527.2 L641.7 527.2 L641.5 527.2 L641.4 527.2 L641.4 527.0 L641.4 526.9 L641.4 526.7 L641.5 526.7 L641.5 526.6 L641.7 526.6 L641.8 526.6 L641.8 526.4 L641.8 526.3 L641.7 526.3 L641.5 526.3 L641.4 526.3 L641.2 526.3 L641.2 526.4 Z" fill="#2f8f83" fill-opacity="0.34" stroke="#0e5b52" stroke-width="1.6" />
  <!-- title strip -->
  <rect x="0" y="0" width="1000" height="54" fill="#173042" />
  <text x="20" y="34" font-size="21" font-weight="bold" fill="#ffffff">Cassiar Gold Corp. — Mineral Claims</text>
  <text x="980" y="34" font-size="15" fill="#cfe3df" text-anchor="end">GLDC</text>
  <!-- scale bar -->
  <g transform="translate(910, 596)">
    <rect x="0" y="0" width="25" height="8" fill="#173042" />
    <rect x="25" y="0" width="25" height="8" fill="#ffffff" stroke="#173042" stroke-width="1" />
    <text x="25" y="-6" font-size="12" fill="#173042" text-anchor="middle">50 km</text>
  </g>
  <!-- north arrow -->
  <g transform="translate(956, 92)">
    <circle r="17" fill="#ffffff" stroke="#b9b09a" />
    <path d="M0 -10 L5 7 L0 3 L-5 7 Z" fill="#173042" />
    <text y="14" font-size="9" font-weight="bold" fill="#173042" text-anchor="middle">N</text>
  </g>
  <!-- watermark -->
  <text x="20" y="620" font-size="13" fill="#7d8b8a">Map by Exploration Maps — explorationmaps.com</text>
</svg>