<svg xmlns="http://www.w3.org/2000/svg" viewBox="0 0 1000 640" font-family="Arial, Helvetica, sans-serif">
  <rect width="1000" height="640" fill="#f3efe6" />
  <line x1="200" y1="0" x2="200" y2="640" stroke="#d9d2c0" stroke-width="0.7" />
  <line x1="0" y1="128" x2="1000" y2="128" stroke="#d9d2c0" stroke-width="0.7" />
  <line x1="400" y1="0" x2="400" y2="640" stroke="#d9d2c0" stroke-width="0.7" />
  <line x1="0" y1="256" x2="1000" y2="256" stroke="#d9d2c0" stroke-width="0.7" />
  <line x1="600" y1="0" x2="600" y2="640" stroke="#d9d2c0" stroke-width="0.7" />
  <line x1="0" y1="384" x2="1000" y2="384" stroke="#d9d2c0" stroke-width="0.7" />
  <line x1="800" y1="0" x2="800" y2="640" stroke="#d9d2c0" stroke-width="0.7" />
  <line x1="0" y1="512" x2="1000" y2="512" stroke="#d9d2c0" stroke-width="0.7" />
  <path d="M513.7 349.6 L513.7 352.3 L516.0 352.3 L518.3 352.3 L520.6 352.3 L522.9 352.3 L525.2 352.3 L525.2 349.6 L525.2 346.9 L522.9 346.9 L520.6 346.9 L518.3 346.9 L516.0 346.9 L513.7 346.9 L513.7 349.6 Z" fill="#2f8f83" fill-opacity="0.34" stroke="#0e5b52" stroke-width="1.6" />
  <path d="M484.0 352.3 L486.3 352.3 L488.6 352.3 L490.9 352.3 L490.9 349.6 L490.9 346.9 L490.9 344.2 L490.9 341.5 L490.9 338.8 L490.9 336.1 L490.9 333.4 L488.6 333.4 L486.3 333.4 L486.3 336.1 L488.6 336.1 L488.6 338.8 L488.6 341.5 L488.6 344.2 L488.6 346.9 L488.6 349.6 L486.3 349.6 L484.0 349.6 L481.7 349.6 L481.7 352.3 L484.0 352.3 Z" fill="#2f8f83" fill-opacity="0.34" stroke="#0e5b52" stroke-width="1.6" />
  <path d="M445.1 298.2 L447.4 298.2 L449.7 298.2 L452.0 298.2 L454.3 298.2 L456.6 298.2 L458.9 298.2 L461.1 298.2 L461.1 295.5 L458.9 295.5 L458.9 292.8 L456.6 292.8 L454.3 292.8 L452.0 292.8 L449.7 292.8 L447.4 292.8 L445.1 292.8 L445.1 295.5 L442.8 295.5 L442.8 298.2 L445.1 298.2 Z" fill="#2f8f83" fill-opacity="0.34" stroke="#0e5b52" stroke-width="1.6" />
  <path d="M461.1 382.1 L461.1 384.8 L463.4 384.8 L465.7 384.8 L468.0 384.8 L468.0 387.5 L468.0 390.2 L468.0 392.8 L468.0 395.5 L468.0 398.2 L468.0 400.9 L468.0 403.6 L470.3 403.6 L472.6 403.6 L474.9 403.6 L477.1 403.6 L479.4 403.6 L481.7 403.6 L484.0 403.6 L484.0 400.9 L484.0 398.2 L484.0 395.5 L484.0 392.8 L484.0 390.2 L481.7 390.2 L481.7 387.5 L481.7 384.8 L481.7 382.1 L481.7 379.4 L481.7 376.7 L479.4 376.7 L477.1 376.7 L474.9 376.7 L472.6 376.7 L470.3 376.7 L468.0 376.7 L465.7 376.7 L463.4 376.7 L463.4 379.4 L461.1 379.4 L461.1 382.1 Z" fill="#2f8f83" fill-opacity="0.34" stroke="#0e5b52" stroke-width="1.6" />
  <path d="M486.3 417.1 L486.3 419.8 L488.6 419.8 L490.9 419.8 L493.1 419.8 L495.4 419.8 L497.7 419.8 L500.0 419.8 L502.3 419.8 L504.6 419.8 L506.9 419.8 L509.2 419.8 L511.4 419.8 L513.7 419.8 L513.7 417.1 L513.7 414.4 L513.7 411.7 L513.7 409.0 L513.7 406.3 L513.7 403.6 L511.4 403.6 L509.2 403.6 L506.9 403.6 L504.6 403.6 L502.3 403.6 L500.0 403.6 L497.7 403.6 L495.4 403.6 L493.1 403.6 L490.9 403.6 L488.6 403.6 L486.3 403.6 L486.3 406.3 L486.3 409.0 L486.3 411.7 L486.3 414.4 L486.3 417.1 Z" fill="#2f8f83" fill-opacity="0.34" stroke="#0e5b52" stroke-width="1.6" />
  <path d="M490.9 357.7 L490.9 360.4 L493.1 360.4 L493.1 363.1 L493.1 365.9 L493.1 368.6 L495.4 368.6 L497.7 368.6 L500.0 368.6 L502.3 368.6 L504.6 368.6 L506.9 368.6 L509.2 368.6 L511.4 368.6 L513.7 368.6 L513.7 365.8 L513.7 363.1 L513.7 360.4 L513.7 357.7 L513.7 355.0 L511.4 355.0 L509.2 355.0 L506.9 355.0 L504.6 355.0 L502.3 355.0 L500.0 355.0 L497.7 355.0 L497.7 352.3 L497.7 349.6 L497.7 346.9 L495.4 346.9 L495.4 344.2 L497.7 344.2 L500.0 344.2 L500.0 341.5 L500.0 338.8 L500.0 336.1 L500.0 333.4 L497.7 333.4 L495.4 333.4 L493.1 333.4 L490.9 333.4 L490.9 336.1 L490.9 338.8 L490.9 341.5 L490.9 344.2 L490.9 346.9 L490.9 349.6 L490.9 352.3 L490.9 355.0 L490.9 357.7 Z" fill="#2f8f83" fill-opacity="0.34" stroke="#0e5b52" stroke-width="1.6" />
  <path d="M538.9 462.9 L538.9 465.6 L541.2 465.6 L543.4 465.6 L545.7 465.6 L548.0 465.6 L550.3 465.6 L552.6 465.6 L554.9 465.6 L554.9 462.9 L554.9 460.2 L557.2 460.2 L557.2 457.5 L554.9 457.5 L552.6 457.5 L550.3 457.5 L548.0 457.5 L545.7 457.5 L543.4 457.5 L541.2 457.5 L538.9 457.5 L538.9 460.2 L538.9 462.9 Z" fill="#2f8f83" fill-opacity="0.34" stroke="#0e5b52" stroke-width="1.6" />
  <path d="M525.2 473.7 L525.2 476.4 L527.4 476.4 L529.7 476.4 L532.0 476.4 L534.3 476.4 L536.6 476.4 L538.9 476.4 L541.2 476.4 L543.4 476.4 L545.7 476.4 L548.0 476.4 L550.3 476.4 L550.3 473.7 L550.3 471.0 L552.6 471.0 L554.9 471.0 L554.9 468.3 L554.9 465.6 L552.6 465.6 L550.3 465.6 L548.0 465.6 L545.7 465.6 L543.4 465.6 L541.2 465.6 L538.9 465.6 L538.9 462.9 L538.9 460.2 L538.9 457.5 L538.9 454.8 L538.9 452.1 L538.9 449.4 L536.6 449.4 L534.3 449.4 L532.0 449.4 L532.0 446.8 L532.0 444.1 L532.0 441.4 L532.0 438.7 L529.7 438.7 L527.4 438.7 L525.2 438.7 L525.2 441.4 L525.2 444.1 L525.2 446.8 L525.2 449.4 L525.2 452.1 L525.2 454.8 L525.2 457.5 L525.2 460.2 L525.2 462.9 L525.2 465.6 L525.2 468.3 L525.2 471.0 L525.2 473.7 Z" fill="#2f8f83" fill-opacity="0.34" stroke="#0e5b52" stroke-width="1.6" />
  <path d="M456.6 352.3 L456.6 355.0 L458.9 355.0 L461.1 355.0 L461.1 352.3 L461.1 349.6 L461.1 346.9 L461.1 344.2 L461.1 341.5 L461.1 338.8 L461.1 336.1 L461.1 333.4 L461.1 330.7 L461.1 328.0 L458.9 328.0 L456.6 328.0 L456.6 330.7 L456.6 333.4 L456.6 336.1 L456.6 338.8 L456.6 341.5 L456.6 344.2 L456.6 346.9 L456.6 349.6 L456.6 352.3 Z" fill="#2f8f83" fill-opacity="0.34" stroke="#0e5b52" stroke-width="1.6" />
  <path d="M463.4 352.3 L463.4 355.0 L465.7 355.0 L468.0 355.0 L470.3 355.0 L472.6 355.0 L474.9 355.0 L477.1 355.0 L479.4 355.0 L481.7 355.0 L481.7 352.3 L481.7 349.6 L479.4 349.6 L477.1 349.6 L474.9 349.6 L472.6 349.6 L470.3 349.6 L468.0 349.6 L465.7 349.6 L463.4 349.6 L463.4 352.3 Z" fill="#2f8f83" fill-opacity="0.34" stroke="#0e5b52" stroke-width="1.6" />
  <path d="M445.1 300.9 L445.1 303.6 L447.4 303.6 L449.7 303.6 L449.7 306.4 L452.0 306.4 L454.3 306.4 L454.3 309.1 L456.6 309.1 L458.9 309.1 L458.9 311.8 L461.1 311.8 L463.4 311.8 L463.4 314.5 L465.7 314.5 L468.0 314.5 L468.0 317.2 L470.3 317.2 L472.6 317.2 L472.6 319.9 L474.9 319.9 L477.1 319.9 L477.1 317.2 L477.1 314.5 L477.1 311.8 L477.1 309.1 L477.1 306.4 L477.1 303.6 L477.1 300.9 L477.1 298.2 L474.9 298.2 L472.6 298.2 L472.6 300.9 L472.6 303.6 L470.3 303.6 L468.0 303.6 L468.0 300.9 L468.0 298.2 L465.7 298.2 L463.4 298.2 L461.1 298.2 L458.9 298.2 L456.6 298.2 L454.3 298.2 L452.0 298.2 L449.7 298.2 L447.4 298.2 L445.1 298.2 L442.8 298.2 L442.8 300.9 L445.1 300.9 Z" fill="#2f8f83" fill-opacity="0.34" stroke="#0e5b52" stroke-width="1.6" />
  <path d="M429.1 322.6 L429.1 325.3 L431.4 325.3 L433.7 325.3 L436.0 325.3 L438.3 325.3 L440.6 325.3 L442.8 325.3 L442.8 322.6 L442.8 319.9 L442.8 317.2 L442.8 314.5 L440.6 314.5 L438.3 314.5 L436.0 314.5 L433.7 314.5 L431.4 314.5 L429.1 314.5 L429.1 317.2 L429.1 319.9 L429.1 322.6 Z" fill="#2f8f83" fill-opacity="0.34" stroke="#0e5b52" stroke-width="1.6" />
  <path d="M433.7 303.6 L436.0 303.6 L436.0 306.4 L436.0 309.1 L436.0 311.8 L436.0 314.5 L438.3 314.5 L440.6 314.5 L442.8 314.5 L442.8 311.8 L440.6 311.8 L440.6 309.1 L440.6 306.4 L440.6 303.6 L440.6 300.9 L442.8 300.9 L442.8 298.2 L442.8 295.5 L445.1 295.5 L445.1 292.8 L442.8 292.8 L440.6 292.8 L440.6 290.1 L438.3 290.1 L436.0 290.1 L436.0 292.8 L436.0 295.5 L436.0 298.2 L433.7 298.2 L433.7 300.9 L433.7 303.6 Z" fill="#2f8f83" fill-opacity="0.34" stroke="#0e5b52" stroke-width="1.6" />
  <path d="M424.6 330.7 L426.8 330.7 L429.1 330.7 L431.4 330.7 L433.7 330.7 L436.0 330.7 L438.3 330.7 L440.6 330.7 L442.8 330.7 L445.1 330.7 L447.4 330.7 L449.7 330.7 L452.0 330.7 L452.0 333.4 L452.0 336.1 L452.0 338.8 L454.3 338.8 L456.6 338.8 L456.6 336.1 L456.6 333.4 L456.6 330.7 L456.6 328.0 L454.3 328.0 L452.0 328.0 L449.7 328.0 L447.4 328.0 L445.1 328.0 L442.8 328.0 L440.6 328.0 L440.6 325.3 L438.3 325.3 L436.0 325.3 L433.7 325.3 L431.4 325.3 L431.4 328.0 L429.1 328.0 L426.8 328.0 L424.6 328.0 L422.3 328.0 L422.3 330.7 L424.6 330.7 Z" fill="#2f8f83" fill-opacity="0.34" stroke="#0e5b52" stroke-width="1.6" />
  <path d="M456.6 387.5 L458.9 387.5 L461.1 387.5 L461.1 390.2 L463.4 390.2 L465.7 390.2 L468.0 390.2 L468.0 387.5 L468.0 384.8 L465.7 384.8 L463.4 384.8 L461.1 384.8 L458.9 384.8 L456.6 384.8 L454.3 384.8 L454.3 387.5 L456.6 387.5 Z" fill="#2f8f83" fill-opacity="0.34" stroke="#0e5b52" stroke-width="1.6" />
  <path d="M454.3 374.0 L454.3 376.7 L456.6 376.7 L458.9 376.7 L461.1 376.7 L461.1 374.0 L461.1 371.3 L461.1 368.6 L461.1 365.9 L461.1 363.2 L458.9 363.2 L456.6 363.2 L454.3 363.2 L454.3 365.9 L454.3 368.6 L454.3 371.3 L454.3 374.0 Z" fill="#2f8f83" fill-opacity="0.34" stroke="#0e5b52" stroke-width="1.6" />
  <path d="M461.1 395.5 L461.1 398.2 L463.4 398.2 L465.7 398.2 L468.0 398.2 L468.0 395.5 L468.0 392.8 L468.0 390.2 L465.7 390.2 L463.4 390.2 L461.1 390.2 L461.1 392.8 L461.1 395.5 Z" fill="#2f8f83" fill-opacity="0.34" stroke="#0e5b52" stroke-width="1.6" />
  <path d="M452.0 395.5 L454.3 395.5 L454.3 398.2 L456.6 398.2 L456.6 395.5 L456.6 392.8 L456.6 390.2 L456.6 387.5 L454.3 387.5 L452.0 387.5 L452.0 390.2 L452.0 392.8 L452.0 395.5 Z" fill="#2f8f83" fill-opacity="0.34" stroke="#0e5b52" stroke-width="1.6" />
  <path d="M461.1 400.9 L461.1 403.6 L463.4 403.6 L465.7 403.6 L468.0 403.6 L468.0 400.9 L468.0 398.2 L465.7 398.2 L463.4 398.2 L461.1 398.2 L461.1 400.9 Z" fill="#2f8f83" fill-opacity="0.34" stroke="#0e5b52" stroke-width="1.6" />
  <path d="M468.0 417.1 L468.0 419.8 L470.3 419.8 L472.6 419.8 L474.9 419.8 L477.1 419.8 L479.4 419.8 L481.7 419.8 L484.0 419.8 L486.3 419.8 L486.3 417.1 L486.3 414.4 L486.3 411.7 L486.3 409.0 L486.3 406.3 L486.3 403.6 L484.0 403.6 L481.7 403.6 L479.4 403.6 L477.1 403.6 L474.9 403.6 L472.6 403.6 L470.3 403.6 L468.0 403.6 L468.0 406.3 L468.0 409.0 L468.0 411.7 L468.0 414.4 L468.0 417.1 Z" fill="#2f8f83" fill-opacity="0.34" stroke="#0e5b52" stroke-width="1.6" />
  <path d="M392.6 384.8 L392.6 387.5 L394.8 387.5 L397.1 387.5 L399.4 387.5 L401.7 387.5 L404.0 387.5 L406.3 387.5 L408.6 387.5 L410.8 387.5 L410.8 384.8 L410.8 382.1 L410.8 379.4 L410.8 376.7 L410.8 374.0 L410.8 371.3 L410.8 368.6 L408.6 368.6 L406.3 368.6 L404.0 368.6 L401.7 368.6 L399.4 368.6 L397.1 368.6 L394.8 368.6 L392.6 368.6 L392.6 371.3 L392.6 374.0 L392.6 376.7 L392.6 379.4 L392.6 382.1 L392.6 384.8 Z" fill="#2f8f83" fill-opacity="0.34" stroke="#0e5b52" stroke-width="1.6" />
  <path d="M392.6 365.9 L392.6 368.6 L394.8 368.6 L397.1 368.6 L399.4 368.6 L401.7 368.6 L404.0 368.6 L406.3 368.6 L408.6 368.6 L410.8 368.6 L410.8 365.9 L410.8 363.2 L408.6 363.2 L406.3 363.2 L404.0 363.2 L401.7 363.2 L399.4 363.2 L397.1 363.2 L394.8 363.2 L392.6 363.2 L392.6 365.9 Z" fill="#2f8f83" fill-opacity="0.34" stroke="#0e5b52" stroke-width="1.6" />
  <path d="M394.8 392.9 L397.1 392.9 L399.4 392.9 L401.7 392.9 L404.0 392.9 L406.3 392.9 L408.6 392.9 L410.8 392.9 L413.1 392.9 L415.4 392.9 L417.7 392.9 L420.0 392.9 L422.3 392.9 L424.6 392.9 L426.8 392.9 L429.1 392.9 L431.4 392.9 L433.7 392.9 L433.7 395.5 L433.7 398.2 L433.7 400.9 L433.7 403.6 L436.0 403.6 L438.3 403.6 L438.3 400.9 L438.3 398.2 L438.3 395.5 L438.3 392.9 L440.6 392.8 L440.6 390.2 L440.6 387.5 L440.6 384.8 L440.6 382.1 L440.6 379.4 L440.6 376.7 L438.3 376.7 L436.0 376.7 L433.7 376.7 L431.4 376.7 L429.1 376.7 L426.8 376.7 L424.6 376.7 L422.3 376.7 L420.0 376.7 L417.7 376.7 L415.4 376.7 L413.1 376.7 L410.8 376.7 L410.8 379.4 L410.8 382.1 L410.8 384.8 L410.8 387.5 L408.6 387.5 L406.3 387.5 L404.0 387.5 L401.7 387.5 L399.4 387.5 L397.1 387.5 L394.8 387.5 L394.8 390.2 L394.8 392.9 Z M429.1 384.8 L429.1 382.1 L431.4 382.1 L433.7 382.1 L433.7 384.8 L433.7 387.5 L433.7 390.2 L431.4 390.2 L429.1 390.2 L429.1 387.5 L429.1 384.8 Z" fill="#2f8f83" fill-opacity="0.34" stroke="#0e5b52" stroke-width="1.6" />
  <path d="M394.8 360.5 L394.8 363.2 L397.1 363.2 L399.4 363.2 L401.7 363.2 L404.0 363.2 L406.3 363.2 L408.6 363.2 L408.6 360.4 L408.6 357.7 L406.3 357.7 L404.0 357.7 L401.7 357.7 L399.4 357.7 L397.1 357.7 L394.8 357.7 L394.8 360.5 Z" fill="#2f8f83" fill-opacity="0.34" stroke="#0e5b52" stroke-width="1.6" />
  <path d="M438.3 406.3 L440.6 406.3 L440.6 403.6 L440.6 400.9 L440.6 398.2 L440.6 395.5 L440.6 392.8 L438.3 392.9 L438.3 395.5 L438.3 398.2 L438.3 400.9 L438.3 403.6 L436.0 403.6 L436.0 406.3 L438.3 406.3 Z" fill="#2f8f83" fill-opacity="0.34" stroke="#0e5b52" stroke-width="1.6" />
  <path d="M438.3 374.0 L438.3 376.7 L440.6 376.7 L440.6 374.0 L440.6 371.3 L440.6 368.6 L440.6 365.9 L440.6 363.2 L442.8 363.2 L445.1 363.2 L447.4 363.2 L449.7 363.2 L452.0 363.2 L454.3 363.2 L456.6 363.2 L458.9 363.2 L461.1 363.2 L461.1 365.9 L461.1 368.6 L463.4 368.6 L463.4 365.9 L463.4 363.1 L463.4 360.4 L461.1 360.4 L458.9 360.4 L456.6 360.4 L454.3 360.4 L452.0 360.4 L449.7 360.4 L447.4 360.4 L445.1 360.4 L442.8 360.4 L440.6 360.4 L438.3 360.4 L438.3 363.2 L438.3 365.9 L438.3 368.6 L438.3 371.3 L438.3 374.0 Z" fill="#2f8f83" fill-opacity="0.34" stroke="#0e5b52" stroke-width="1.6" />
  <path d="M456.6 384.8 L458.9 384.8 L461.1 384.8 L461.1 382.1 L461.1 379.4 L463.4 379.4 L463.4 376.7 L461.1 376.7 L458.9 376.7 L456.6 376.7 L454.3 376.7 L454.3 379.4 L456.6 379.4 L456.6 382.1 L454.3 382.1 L454.3 384.8 L456.6 384.8 Z" fill="#2f8f83" fill-opacity="0.34" stroke="#0e5b52" stroke-width="1.6" />
  <path d="M461.1 374.0 L461.1 376.7 L463.4 376.7 L465.7 376.7 L468.0 376.7 L470.3 376.7 L472.6 376.7 L474.9 376.7 L477.1 376.7 L479.4 376.7 L481.7 376.7 L481.7 379.4 L481.7 382.1 L481.7 384.8 L481.7 387.5 L481.7 390.2 L484.0 390.2 L486.3 390.1 L488.6 390.1 L490.9 390.1 L493.1 390.1 L495.4 390.1 L497.7 390.1 L500.0 390.1 L502.3 390.1 L502.3 387.5 L502.3 384.8 L502.3 382.1 L502.3 379.4 L502.3 376.7 L502.3 374.0 L502.3 371.3 L500.0 371.3 L497.7 371.3 L495.4 371.3 L493.1 371.3 L490.9 371.3 L488.6 371.3 L486.3 371.3 L484.0 371.3 L481.7 371.3 L481.7 368.6 L479.4 368.6 L477.1 368.6 L474.9 368.6 L472.6 368.6 L470.3 368.6 L468.0 368.6 L465.7 368.6 L463.4 368.6 L461.1 368.6 L461.1 371.3 L461.1 374.0 Z" fill="#2f8f83" fill-opacity="0.34" stroke="#0e5b52" stroke-width="1.6" />
  <path d="M484.0 395.5 L484.0 398.2 L486.3 398.2 L488.6 398.2 L490.9 398.2 L493.1 398.2 L495.4 398.2 L497.7 398.2 L500.0 398.2 L502.3 398.2 L504.6 398.2 L506.9 398.2 L509.2 398.2 L511.4 398.2 L513.7 398.2 L513.7 395.5 L513.7 392.8 L513.7 390.1 L513.7 387.5 L513.7 384.8 L513.7 382.1 L513.7 379.4 L513.7 376.7 L513.7 374.0 L513.7 371.3 L513.7 368.6 L511.4 368.6 L509.2 368.6 L506.9 368.6 L504.6 368.6 L502.3 368.6 L500.0 368.6 L497.7 368.6 L495.4 368.6 L493.1 368.6 L490.9 368.6 L488.6 368.6 L486.3 368.6 L484.0 368.6 L481.7 368.6 L481.7 371.3 L484.0 371.3 L486.3 371.3 L488.6 371.3 L490.9 371.3 L493.1 371.3 L495.4 371.3 L497.7 371.3 L500.0 371.3 L502.3 371.3 L502.3 374.0 L502.3 376.7 L502.3 379.4 L502.3 382.1 L502.3 384.8 L502.3 387.5 L502.3 390.1 L500.0 390.1 L497.7 390.1 L495.4 390.1 L493.1 390.1 L490.9 390.1 L488.6 390.1 L486.3 390.1 L484.0 390.2 L484.0 392.8 L484.0 395.5 Z" fill="#2f8f83" fill-opacity="0.34" stroke="#0e5b52" stroke-width="1.6" />
  <path d="M484.0 400.9 L484.0 403.6 L486.3 403.6 L486.3 400.9 L488.6 400.9 L490.9 400.9 L490.9 398.2 L488.6 398.2 L486.3 398.2 L484.0 398.2 L484.0 400.9 Z" fill="#2f8f83" fill-opacity="0.34" stroke="#0e5b52" stroke-width="1.6" />
  <path d="M442.8 328.0 L445.1 328.0 L447.4 328.0 L449.7 328.0 L452.0 328.0 L454.3 328.0 L456.6 328.0 L458.9 328.0 L461.1 328.0 L463.4 328.0 L465.7 328.0 L468.0 328.0 L470.3 328.0 L472.6 328.0 L474.9 328.0 L477.1 328.0 L479.4 328.0 L481.7 328.0 L484.0 328.0 L486.3 328.0 L486.3 325.3 L486.3 322.6 L484.0 322.6 L481.7 322.6 L479.4 322.6 L477.1 322.6 L474.9 322.6 L474.9 325.3 L472.6 325.3 L470.3 325.3 L468.0 325.3 L465.7 325.3 L463.4 325.3 L461.1 325.3 L458.9 325.3 L456.6 325.3 L454.3 325.3 L452.0 325.3 L449.7 325.3 L447.4 325.3 L445.1 325.3 L442.8 325.3 L440.6 325.3 L440.6 328.0 L442.8 328.0 Z" fill="#2f8f83" fill-opacity="0.34" stroke="#0e5b52" stroke-width="1.6" />
  <path d="M445.1 325.3 L447.4 325.3 L449.7 325.3 L452.0 325.3 L454.3 325.3 L456.6 325.3 L458.9 325.3 L461.1 325.3 L463.4 325.3 L465.7 325.3 L468.0 325.3 L470.3 325.3 L472.6 325.3 L474.9 325.3 L474.9 322.6 L477.1 322.6 L479.4 322.6 L481.7 322.6 L484.0 322.6 L486.3 322.6 L486.3 319.9 L484.0 319.9 L481.7 319.9 L479.4 319.9 L477.1 319.9 L474.9 319.9 L472.6 319.9 L470.3 319.9 L468.0 319.9 L465.7 319.9 L463.4 319.9 L461.1 319.9 L461.1 322.6 L458.9 322.6 L456.6 322.6 L454.3 322.6 L452.0 322.6 L449.7 322.6 L447.4 322.6 L445.1 322.6 L442.8 322.6 L442.8 325.3 L445.1 325.3 Z" fill="#2f8f83" fill-opacity="0.34" stroke="#0e5b52" stroke-width="1.6" />
  <path d="M413.1 344.2 L415.4 344.2 L417.7 344.2 L420.0 344.2 L420.0 341.5 L420.0 338.8 L420.0 336.1 L420.0 333.4 L417.7 333.4 L417.7 330.7 L417.7 328.0 L420.0 328.0 L422.3 328.0 L424.6 328.0 L426.8 328.0 L429.1 328.0 L431.4 328.0 L431.4 325.3 L429.1 325.3 L426.8 325.3 L424.6 325.3 L422.3 325.3 L420.0 325.3 L417.7 325.3 L415.4 325.3 L413.1 325.3 L413.1 328.0 L413.1 330.7 L413.1 333.4 L413.1 336.1 L413.1 338.8 L413.1 341.5 L410.8 341.5 L410.8 344.2 L413.1 344.2 Z" fill="#2f8f83" fill-opacity="0.34" stroke="#0e5b52" stroke-width="1.6" />
  <path d="M410.8 374.0 L410.8 376.7 L413.1 376.7 L415.4 376.7 L415.4 374.0 L415.4 371.3 L415.4 368.6 L415.4 365.9 L415.4 363.2 L415.4 360.4 L415.4 357.7 L415.4 355.0 L415.4 352.3 L415.4 349.6 L415.4 346.9 L417.7 346.9 L417.7 344.2 L415.4 344.2 L413.1 344.2 L410.8 344.2 L410.8 346.9 L410.8 349.6 L410.8 352.3 L410.8 355.0 L410.8 357.7 L410.8 360.5 L410.8 363.2 L410.8 365.9 L410.8 368.6 L410.8 371.3 L410.8 374.0 Z" fill="#2f8f83" fill-opacity="0.34" stroke="#0e5b52" stroke-width="1.6" />
  <path d="M415.4 357.7 L415.4 360.4 L417.7 360.4 L420.0 360.4 L422.3 360.4 L422.3 357.7 L422.3 355.0 L422.3 352.3 L422.3 349.6 L422.3 346.9 L422.3 344.2 L422.3 341.5 L422.3 338.8 L422.3 336.1 L422.3 333.4 L422.3 330.7 L422.3 328.0 L420.0 328.0 L417.7 328.0 L417.7 330.7 L417.7 333.4 L420.0 333.4 L420.0 336.1 L420.0 338.8 L420.0 341.5 L420.0 344.2 L417.7 344.2 L417.7 346.9 L415.4 346.9 L415.4 349.6 L415.4 352.3 L415.4 355.0 L415.4 357.7 Z" fill="#2f8f83" fill-opacity="0.34" stroke="#0e5b52" stroke-width="1.6" />
  <path d="M484.0 346.9 L486.3 346.9 L488.6 346.9 L488.6 344.2 L488.6 341.5 L488.6 338.8 L488.6 336.1 L486.3 336.1 L486.3 338.8 L486.3 341.5 L486.3 344.2 L484.0 344.2 L481.7 344.2 L481.7 346.9 L484.0 346.9 Z" fill="#2f8f83" fill-opacity="0.34" stroke="#0e5b52" stroke-width="1.6" />
  <path d="M484.0 349.6 L486.3 349.6 L488.6 349.6 L488.6 346.9 L486.3 346.9 L484.0 346.9 L481.7 346.9 L481.7 349.6 L484.0 349.6 Z" fill="#2f8f83" fill-opacity="0.34" stroke="#0e5b52" stroke-width="1.6" />
  <path d="M422.2 195.1 L422.2 197.8 L424.5 197.8 L424.5 200.5 L426.8 200.5 L429.1 200.5 L431.4 200.5 L433.6 200.5 L433.7 203.2 L433.7 206.0 L435.9 206.0 L438.2 206.0 L438.2 208.7 L440.5 208.7 L442.8 208.7 L445.1 208.7 L447.4 208.7 L449.7 208.7 L451.9 208.7 L454.2 208.7 L456.5 208.7 L456.5 206.0 L456.5 203.2 L456.5 200.5 L454.2 200.5 L451.9 200.5 L449.6 200.5 L447.4 200.5 L445.1 200.5 L442.8 200.5 L442.8 197.8 L442.8 195.1 L442.8 192.4 L442.8 189.6 L442.8 186.9 L442.8 184.2 L442.8 181.5 L440.5 181.5 L438.2 181.5 L435.9 181.5 L433.6 181.5 L431.3 181.5 L429.1 181.5 L429.1 184.2 L429.1 186.9 L429.1 189.6 L429.1 192.4 L426.8 192.4 L424.5 192.4 L422.2 192.4 L422.2 195.1 Z" fill="#2f8f83" fill-opacity="0.34" stroke="#0e5b52" stroke-width="1.6" />
  <path d="M470.3 238.6 L470.3 241.3 L472.6 241.3 L474.8 241.3 L477.1 241.3 L477.1 244.0 L477.1 246.7 L479.4 246.7 L479.4 249.4 L481.7 249.4 L484.0 249.4 L486.3 249.4 L486.3 252.1 L486.3 254.9 L486.3 257.6 L488.6 257.6 L490.9 257.6 L490.9 254.9 L490.9 252.1 L490.9 249.4 L490.9 246.7 L490.9 244.0 L490.9 241.3 L490.8 238.6 L490.8 235.9 L488.6 235.9 L486.3 235.9 L484.0 235.9 L481.7 235.9 L479.4 235.9 L477.1 235.9 L474.8 235.9 L472.6 235.9 L470.3 235.9 L470.3 238.6 Z" fill="#2f8f83" fill-opacity="0.34" stroke="#0e5b52" stroke-width="1.6" />
  <path d="M472.6 235.9 L474.8 235.9 L477.1 235.9 L479.4 235.9 L481.7 235.9 L484.0 235.9 L486.3 235.9 L488.6 235.9 L490.8 235.9 L490.8 233.1 L488.6 233.1 L486.3 233.1 L484.0 233.1 L481.7 233.1 L479.4 233.1 L477.1 233.1 L474.8 233.1 L472.6 233.1 L470.3 233.1 L470.3 235.9 L472.6 235.9 Z" fill="#2f8f83" fill-opacity="0.34" stroke="#0e5b52" stroke-width="1.6" />
  <path d="M465.7 246.7 L465.7 249.4 L468.0 249.4 L468.0 246.7 L470.3 246.7 L470.3 249.4 L472.6 249.4 L472.6 252.1 L472.6 254.9 L474.9 254.9 L477.1 254.9 L479.4 254.9 L479.4 257.6 L481.7 257.6 L484.0 257.6 L484.0 254.9 L484.0 252.1 L481.7 252.1 L479.4 252.1 L477.1 252.1 L477.1 249.4 L474.9 249.4 L474.9 246.7 L474.9 244.0 L472.6 244.0 L470.3 244.0 L468.0 244.0 L465.7 244.0 L465.7 246.7 Z" fill="#2f8f83" fill-opacity="0.34" stroke="#0e5b52" stroke-width="1.6" />
  <path d="M493.1 254.9 L493.1 257.6 L495.4 257.6 L497.7 257.6 L500.0 257.6 L500.0 254.9 L500.0 252.1 L500.0 249.4 L500.0 246.7 L500.0 244.0 L500.0 241.3 L497.7 241.3 L495.4 241.3 L493.1 241.3 L493.1 244.0 L493.1 246.7 L493.1 249.4 L493.1 252.1 L493.1 254.9 Z" fill="#2f8f83" fill-opacity="0.34" stroke="#0e5b52" stroke-width="1.6" />
  <path d="M493.1 230.4 L493.1 233.1 L495.4 233.1 L497.7 233.1 L500.0 233.1 L500.0 230.4 L500.0 227.7 L500.0 225.0 L500.0 222.3 L500.0 219.6 L497.7 219.6 L495.4 219.6 L493.1 219.6 L493.1 222.3 L493.1 225.0 L493.1 227.7 L493.1 230.4 Z" fill="#2f8f83" fill-opacity="0.34" stroke="#0e5b52" stroke-width="1.6" />
  <path d="M456.5 230.4 L456.5 233.1 L458.8 233.1 L461.1 233.1 L463.4 233.1 L465.7 233.1 L468.0 233.1 L470.3 233.1 L472.6 233.1 L474.8 233.1 L477.1 233.1 L479.4 233.1 L481.7 233.1 L484.0 233.1 L486.3 233.1 L488.6 233.1 L490.8 233.1 L490.8 230.4 L490.8 227.7 L488.5 227.7 L486.3 227.7 L484.0 227.7 L481.7 227.7 L481.7 225.0 L479.4 225.0 L477.1 225.0 L474.8 225.0 L472.5 225.0 L472.5 222.3 L472.5 219.6 L472.5 216.8 L470.2 216.8 L468.0 216.8 L465.7 216.8 L465.7 219.6 L463.4 219.6 L461.1 219.6 L458.8 219.6 L458.8 216.8 L461.1 216.8 L463.4 216.8 L463.4 214.1 L463.4 211.4 L461.1 211.4 L458.8 211.4 L456.5 211.4 L456.5 214.1 L456.5 216.8 L456.5 219.6 L456.5 222.3 L456.5 225.0 L456.5 227.7 L456.5 230.4 Z" fill="#2f8f83" fill-opacity="0.34" stroke="#0e5b52" stroke-width="1.6" />
  <path d="M500.0 227.7 L502.3 227.7 L502.3 225.0 L504.5 225.0 L506.8 225.0 L506.8 222.3 L506.8 219.6 L506.8 216.8 L506.8 214.1 L506.8 211.4 L506.8 208.7 L506.8 206.0 L509.1 206.0 L511.4 206.0 L513.7 206.0 L513.7 203.2 L511.4 203.2 L511.4 200.5 L511.4 197.8 L513.6 197.8 L515.9 197.8 L515.9 200.5 L515.9 203.2 L515.9 206.0 L518.2 206.0 L520.5 206.0 L520.5 203.2 L522.8 203.2 L525.1 203.2 L525.1 200.5 L525.1 197.8 L525.1 195.1 L525.1 192.4 L525.1 189.6 L525.1 186.9 L525.1 184.2 L525.1 181.5 L525.1 178.8 L522.8 178.8 L520.5 178.8 L518.2 178.8 L515.9 178.8 L513.6 178.8 L513.6 181.5 L513.6 184.2 L513.6 186.9 L513.6 189.6 L511.3 189.6 L509.1 189.6 L506.8 189.6 L504.5 189.6 L502.2 189.6 L499.9 189.6 L499.9 192.4 L499.9 195.1 L499.9 197.8 L499.9 200.5 L499.9 203.2 L499.9 206.0 L499.9 208.7 L500.0 211.4 L500.0 214.1 L500.0 216.8 L500.0 219.6 L500.0 222.3 L500.0 225.0 L500.0 227.7 Z M515.9 195.1 L515.9 192.4 L518.2 192.4 L518.2 195.1 L515.9 195.1 Z" fill="#2f8f83" fill-opacity="0.34" stroke="#0e5b52" stroke-width="1.6" />
  <path d="M522.8 206.0 L525.1 206.0 L527.4 206.0 L529.7 206.0 L531.9 206.0 L534.2 206.0 L534.2 203.2 L536.5 203.2 L538.8 203.2 L541.1 203.2 L543.4 203.2 L545.7 203.2 L547.9 203.2 L550.2 203.2 L552.5 203.2 L554.8 203.2 L557.1 203.2 L559.4 203.2 L561.7 203.2 L564.0 203.2 L564.0 200.5 L563.9 197.8 L561.7 197.8 L559.4 197.8 L557.1 197.8 L554.8 197.8 L552.5 197.8 L552.5 195.1 L552.5 192.4 L552.5 189.6 L552.5 186.9 L552.5 184.2 L552.5 181.5 L550.2 181.5 L547.9 181.5 L545.6 181.5 L545.6 178.8 L543.4 178.8 L543.4 181.5 L543.4 184.2 L545.6 184.2 L547.9 184.2 L547.9 186.9 L547.9 189.6 L547.9 192.4 L545.6 192.4 L543.4 192.4 L541.1 192.4 L538.8 192.4 L538.8 189.6 L536.5 189.6 L536.5 186.9 L534.2 186.9 L534.2 184.2 L536.5 184.2 L538.8 184.2 L538.8 181.5 L541.1 181.5 L541.1 178.8 L541.1 176.0 L538.8 176.0 L538.8 178.8 L536.5 178.8 L534.2 178.8 L531.9 178.8 L529.6 178.8 L527.4 178.8 L525.1 178.8 L525.1 181.5 L525.1 184.2 L525.1 186.9 L525.1 189.6 L525.1 192.4 L525.1 195.1 L525.1 197.8 L525.1 200.5 L525.1 203.2 L522.8 203.2 L520.5 203.2 L520.5 206.0 L522.8 206.0 Z M538.8 197.8 L538.8 195.1 L541.1 195.1 L543.4 195.1 L543.4 197.8 L543.4 200.5 L541.1 200.5 L538.8 200.5 L538.8 197.8 Z" fill="#2f8f83" fill-opacity="0.34" stroke="#0e5b52" stroke-width="1.6" />
  <path d="M511.4 216.8 L511.4 219.6 L513.7 219.6 L516.0 219.6 L518.3 219.6 L520.5 219.6 L522.8 219.6 L525.1 219.6 L527.4 219.6 L527.4 216.8 L529.7 216.8 L532.0 216.8 L534.3 216.8 L536.5 216.8 L538.8 216.8 L541.1 216.8 L543.4 216.8 L545.7 216.8 L548.0 216.8 L550.3 216.8 L552.5 216.8 L554.8 216.8 L557.1 216.8 L557.1 214.1 L557.1 211.4 L559.4 211.4 L559.4 208.7 L561.7 208.7 L564.0 208.7 L564.0 206.0 L564.0 203.2 L561.7 203.2 L559.4 203.2 L557.1 203.2 L554.8 203.2 L552.5 203.2 L550.2 203.2 L547.9 203.2 L545.7 203.2 L543.4 203.2 L541.1 203.2 L538.8 203.2 L536.5 203.2 L534.2 203.2 L534.2 206.0 L531.9 206.0 L529.7 206.0 L527.4 206.0 L525.1 206.0 L522.8 206.0 L520.5 206.0 L518.2 206.0 L515.9 206.0 L515.9 208.7 L516.0 211.4 L513.7 211.4 L511.4 211.4 L511.4 214.1 L511.4 216.8 Z" fill="#2f8f83" fill-opacity="0.34" stroke="#0e5b52" stroke-width="1.6" />
  <path d="M511.4 227.7 L511.4 230.4 L513.7 230.4 L513.7 233.1 L513.7 235.9 L516.0 235.9 L518.3 235.9 L520.6 235.9 L522.9 235.9 L525.1 235.9 L527.4 235.9 L529.7 235.9 L532.0 235.9 L534.3 235.9 L536.6 235.9 L538.9 235.9 L541.1 235.9 L543.4 235.9 L545.7 235.9 L545.7 233.1 L545.7 230.4 L545.7 227.7 L548.0 227.7 L548.0 225.0 L548.0 222.3 L548.0 219.6 L548.0 216.8 L545.7 216.8 L543.4 216.8 L541.1 216.8 L538.8 216.8 L536.5 216.8 L534.3 216.8 L532.0 216.8 L529.7 216.8 L527.4 216.8 L527.4 219.6 L525.1 219.6 L522.8 219.6 L520.5 219.6 L518.3 219.6 L516.0 219.6 L513.7 219.6 L511.4 219.6 L511.4 222.3 L511.4 225.0 L511.4 227.7 Z" fill="#2f8f83" fill-opacity="0.34" stroke="#0e5b52" stroke-width="1.6" />
  <path d="M545.7 235.9 L548.0 235.9 L550.3 235.9 L550.3 238.6 L552.6 238.6 L554.9 238.6 L557.2 238.6 L559.4 238.6 L559.4 235.9 L559.4 233.1 L561.7 233.1 L564.0 233.1 L564.0 230.4 L564.0 227.7 L566.3 227.7 L568.6 227.7 L568.6 230.4 L568.6 233.1 L570.9 233.1 L573.1 233.1 L573.1 230.4 L575.4 230.4 L577.7 230.4 L577.7 227.7 L577.7 225.0 L580.0 225.0 L582.3 225.0 L582.3 227.7 L584.6 227.7 L584.6 225.0 L584.6 222.3 L584.6 219.6 L582.3 219.6 L580.0 219.6 L577.7 219.6 L575.4 219.6 L573.1 219.6 L570.8 219.6 L568.6 219.6 L566.3 219.6 L566.3 222.3 L564.0 222.3 L561.7 222.3 L561.7 219.6 L561.7 216.8 L559.4 216.8 L557.1 216.8 L554.8 216.8 L552.5 216.8 L550.3 216.8 L548.0 216.8 L548.0 219.6 L548.0 222.3 L548.0 225.0 L548.0 227.7 L545.7 227.7 L545.7 230.4 L545.7 233.1 L545.7 235.9 Z" fill="#2f8f83" fill-opacity="0.34" stroke="#0e5b52" stroke-width="1.6" />
  <path d="M493.1 263.0 L493.1 265.7 L495.4 265.7 L497.7 265.7 L500.0 265.7 L502.3 265.7 L502.3 268.4 L504.6 268.4 L506.9 268.4 L509.2 268.4 L511.4 268.4 L513.7 268.4 L516.0 268.4 L518.3 268.4 L520.6 268.4 L522.9 268.4 L525.2 268.4 L527.4 268.4 L529.7 268.4 L532.0 268.4 L534.3 268.4 L536.6 268.4 L538.9 268.4 L541.2 268.4 L543.4 268.4 L545.7 268.4 L548.0 268.4 L550.3 268.4 L552.6 268.4 L554.9 268.4 L557.2 268.4 L559.5 268.4 L561.7 268.4 L561.7 265.7 L561.7 263.0 L559.5 263.0 L559.5 265.7 L557.2 265.7 L554.9 265.7 L554.9 263.0 L552.6 263.0 L550.3 263.0 L550.3 260.3 L548.0 260.3 L545.7 260.3 L543.4 260.3 L541.2 260.3 L541.2 257.6 L538.9 257.6 L536.6 257.6 L534.3 257.6 L532.0 257.6 L529.7 257.6 L527.4 257.6 L525.2 257.6 L522.9 257.6 L520.6 257.6 L518.3 257.6 L516.0 257.6 L513.7 257.6 L511.4 257.6 L509.2 257.6 L506.9 257.6 L504.6 257.6 L502.3 257.6 L500.0 257.6 L497.7 257.6 L495.4 257.6 L493.1 257.6 L493.1 260.3 L493.1 263.0 Z" fill="#2f8f83" fill-opacity="0.34" stroke="#0e5b52" stroke-width="1.6" />
  <path d="M500.0 254.9 L500.0 257.6 L502.3 257.6 L504.6 257.6 L506.9 257.6 L509.2 257.6 L511.4 257.6 L513.7 257.6 L516.0 257.6 L518.3 257.6 L520.6 257.6 L522.9 257.6 L525.2 257.6 L527.4 257.6 L529.7 257.6 L532.0 257.6 L534.3 257.6 L536.6 257.6 L538.9 257.6 L541.2 257.6 L541.2 260.3 L543.4 260.3 L545.7 260.3 L548.0 260.3 L550.3 260.3 L550.3 257.6 L548.0 257.6 L548.0 254.9 L545.7 254.9 L545.7 252.1 L543.4 252.1 L541.2 252.1 L538.9 252.1 L536.6 252.1 L534.3 252.1 L532.0 252.1 L529.7 252.1 L527.4 252.1 L525.2 252.1 L525.2 249.4 L522.9 249.4 L522.9 246.7 L520.6 246.7 L518.3 246.7 L518.3 244.0 L518.3 241.3 L516.0 241.3 L513.7 241.3 L511.4 241.3 L509.1 241.3 L509.1 238.6 L506.9 238.6 L506.8 235.9 L506.8 233.1 L506.8 230.4 L506.8 227.7 L506.8 225.0 L504.5 225.0 L502.3 225.0 L502.3 227.7 L500.0 227.7 L500.0 230.4 L500.0 233.1 L500.0 235.9 L500.0 238.6 L500.0 241.3 L500.0 244.0 L500.0 246.7 L500.0 249.4 L500.0 252.1 L500.0 254.9 Z" fill="#2f8f83" fill-opacity="0.34" stroke="#0e5b52" stroke-width="1.6" />
  <path d="M479.4 211.4 L479.4 214.1 L481.7 214.1 L484.0 214.1 L486.2 214.1 L486.2 216.8 L486.2 219.6 L488.5 219.6 L490.8 219.6 L493.1 219.6 L495.4 219.6 L497.7 219.6 L500.0 219.6 L500.0 216.8 L500.0 214.1 L500.0 211.4 L499.9 208.7 L497.7 208.7 L495.4 208.7 L493.1 208.7 L490.8 208.7 L488.5 208.7 L486.2 208.7 L483.9 208.7 L481.7 208.7 L479.4 208.7 L479.4 211.4 Z" fill="#2f8f83" fill-opacity="0.34" stroke="#0e5b52" stroke-width="1.6" />
  <path d="M493.1 238.6 L493.1 241.3 L495.4 241.3 L497.7 241.3 L500.0 241.3 L500.0 238.6 L500.0 235.9 L500.0 233.1 L497.7 233.1 L495.4 233.1 L493.1 233.1 L493.1 235.9 L493.1 238.6 Z" fill="#2f8f83" fill-opacity="0.34" stroke="#0e5b52" stroke-width="1.6" />
  <path d="M586.8 214.1 L586.8 216.8 L589.1 216.8 L591.4 216.8 L591.4 219.6 L591.4 222.3 L591.4 225.0 L591.4 227.7 L593.7 227.7 L593.7 230.4 L593.7 233.1 L593.7 235.9 L593.7 238.6 L596.0 238.6 L598.3 238.6 L600.6 238.6 L600.6 235.9 L602.9 235.9 L605.2 235.9 L607.4 235.9 L609.7 235.9 L612.0 235.9 L612.0 233.1 L612.0 230.4 L612.0 227.7 L612.0 225.0 L612.0 222.3 L612.0 219.6 L612.0 216.8 L612.0 214.1 L612.0 211.4 L612.0 208.7 L609.7 208.7 L607.4 208.7 L605.1 208.7 L602.8 208.7 L600.6 208.7 L598.3 208.7 L596.0 208.7 L596.0 206.0 L593.7 206.0 L591.4 206.0 L589.1 206.0 L586.8 206.0 L586.8 208.7 L586.8 211.4 L586.8 214.1 Z" fill="#2f8f83" fill-opacity="0.34" stroke="#0e5b52" stroke-width="1.6" />
  <path d="M586.8 203.2 L586.8 206.0 L589.1 206.0 L591.4 206.0 L593.7 206.0 L596.0 206.0 L596.0 208.7 L598.3 208.7 L600.6 208.7 L602.8 208.7 L605.1 208.7 L607.4 208.7 L609.7 208.7 L612.0 208.7 L612.0 206.0 L612.0 203.2 L612.0 200.5 L612.0 197.8 L612.0 195.1 L612.0 192.4 L612.0 189.6 L612.0 186.9 L612.0 184.2 L612.0 181.5 L612.0 178.8 L612.0 176.0 L612.0 173.3 L612.0 170.6 L612.0 167.9 L609.7 167.9 L607.4 167.9 L605.1 167.9 L602.8 167.9 L602.8 165.1 L600.5 165.1 L598.2 165.1 L595.9 165.1 L593.7 165.1 L591.4 165.1 L591.4 167.9 L593.7 167.9 L595.9 167.9 L598.2 167.9 L598.2 170.6 L598.2 173.3 L600.5 173.3 L602.8 173.3 L605.1 173.3 L605.1 176.0 L605.1 178.8 L605.1 181.5 L605.1 184.2 L605.1 186.9 L605.1 189.6 L605.1 192.4 L602.8 192.4 L600.5 192.4 L598.2 192.4 L596.0 192.4 L593.7 192.4 L591.4 192.4 L589.1 192.4 L586.8 192.4 L586.8 195.1 L586.8 197.8 L586.8 200.5 L586.8 203.2 Z" fill="#2f8f83" fill-opacity="0.34" stroke="#0e5b52" stroke-width="1.6" />
  <path d="M575.4 157.0 L575.4 159.7 L577.7 159.7 L579.9 159.7 L579.9 162.4 L582.2 162.4 L582.2 165.2 L584.5 165.2 L586.8 165.2 L589.1 165.2 L591.4 165.1 L593.7 165.1 L595.9 165.1 L598.2 165.1 L600.5 165.1 L602.8 165.1 L602.8 167.9 L605.1 167.9 L607.4 167.9 L609.7 167.9 L612.0 167.9 L612.0 165.1 L612.0 162.4 L611.9 159.7 L611.9 157.0 L611.9 154.3 L611.9 151.5 L611.9 148.8 L609.7 148.8 L607.4 148.8 L605.1 148.8 L602.8 148.8 L600.5 148.8 L598.2 148.8 L595.9 148.8 L593.7 148.8 L591.4 148.8 L589.1 148.8 L586.8 148.8 L586.8 146.1 L584.5 146.1 L582.2 146.1 L579.9 146.1 L577.6 146.1 L575.4 146.1 L575.4 148.8 L575.4 151.5 L575.4 154.3 L575.4 157.0 Z" fill="#2f8f83" fill-opacity="0.34" stroke="#0e5b52" stroke-width="1.6" />
  <path d="M570.8 143.4 L570.8 146.1 L573.1 146.1 L575.4 146.1 L577.6 146.1 L579.9 146.1 L582.2 146.1 L584.5 146.1 L586.8 146.1 L586.8 148.8 L589.1 148.8 L591.4 148.8 L593.7 148.8 L595.9 148.8 L598.2 148.8 L600.5 148.8 L600.5 146.1 L598.2 146.1 L598.2 143.4 L598.2 140.6 L598.2 137.9 L598.2 135.2 L595.9 135.2 L595.9 132.5 L593.6 132.5 L591.4 132.5 L591.4 129.7 L589.1 129.7 L589.1 127.0 L586.8 127.0 L586.8 124.3 L584.5 124.3 L584.5 121.5 L582.2 121.5 L582.2 118.8 L579.9 118.8 L577.6 118.8 L575.4 118.8 L573.1 118.8 L570.8 118.8 L570.8 121.5 L570.8 124.3 L570.8 127.0 L570.8 129.7 L570.8 132.5 L570.8 135.2 L570.8 137.9 L570.8 140.6 L570.8 143.4 Z" fill="#2f8f83" fill-opacity="0.34" stroke="#0e5b52" stroke-width="1.6" />
  <path d="M598.2 146.1 L600.5 146.1 L600.5 148.8 L602.8 148.8 L605.1 148.8 L607.4 148.8 L609.7 148.8 L609.7 146.1 L607.4 146.1 L607.4 143.4 L605.1 143.4 L605.1 140.6 L605.1 137.9 L602.8 137.9 L600.5 137.9 L598.2 137.9 L598.2 140.6 L598.2 143.4 L598.2 146.1 Z" fill="#2f8f83" fill-opacity="0.34" stroke="#0e5b52" stroke-width="1.6" />
  <path d="M586.9 265.7 L586.9 268.4 L589.2 268.4 L589.2 271.1 L589.2 273.8 L589.2 276.5 L591.5 276.5 L593.7 276.5 L596.0 276.5 L598.3 276.5 L600.6 276.5 L602.9 276.5 L605.2 276.5 L607.5 276.5 L609.7 276.5 L612.0 276.5 L614.3 276.5 L616.6 276.5 L618.9 276.5 L621.2 276.5 L623.5 276.5 L623.5 273.8 L621.2 273.8 L618.9 273.8 L616.6 273.8 L614.3 273.8 L612.0 273.8 L609.7 273.8 L607.5 273.8 L605.2 273.8 L602.9 273.8 L600.6 273.8 L598.3 273.8 L598.3 271.1 L598.3 268.4 L598.3 265.7 L600.6 265.7 L602.9 265.7 L605.2 265.7 L607.5 265.7 L609.7 265.7 L612.0 265.7 L614.3 265.7 L616.6 265.7 L616.6 263.0 L616.6 260.3 L616.6 257.6 L616.6 254.9 L616.6 252.1 L616.6 249.4 L616.6 246.7 L616.6 244.0 L616.6 241.3 L616.6 238.6 L616.6 235.9 L616.6 233.1 L616.6 230.4 L614.3 230.4 L612.0 230.4 L612.0 233.1 L612.0 235.9 L612.0 238.6 L612.0 241.3 L612.0 244.0 L612.0 246.7 L612.0 249.4 L612.0 252.1 L609.7 252.1 L607.5 252.1 L605.2 252.1 L602.9 252.1 L600.6 252.1 L598.3 252.1 L596.0 252.1 L593.7 252.1 L593.7 254.9 L593.7 257.6 L593.7 260.3 L591.5 260.3 L589.2 260.3 L586.9 260.3 L586.9 263.0 L586.9 265.7 Z" fill="#2f8f83" fill-opacity="0.34" stroke="#0e5b52" stroke-width="1.6" />
  <path d="M598.3 271.1 L598.3 273.8 L600.6 273.8 L602.9 273.8 L605.2 273.8 L607.5 273.8 L609.7 273.8 L612.0 273.8 L614.3 273.8 L616.6 273.8 L618.9 273.8 L621.2 273.8 L621.2 271.1 L618.9 271.1 L618.9 268.4 L618.9 265.7 L616.6 265.7 L614.3 265.7 L612.0 265.7 L609.7 265.7 L607.5 265.7 L605.2 265.7 L602.9 265.7 L600.6 265.7 L598.3 265.7 L598.3 268.4 L598.3 271.1 Z" fill="#2f8f83" fill-opacity="0.34" stroke="#0e5b52" stroke-width="1.6" />
  <path d="M495.4 317.2 L495.4 319.9 L497.7 319.9 L500.0 319.9 L502.3 319.9 L504.6 319.9 L506.9 319.9 L509.2 319.9 L511.4 319.9 L513.7 319.9 L513.7 317.2 L511.4 317.2 L509.2 317.2 L506.9 317.2 L504.6 317.2 L502.3 317.2 L502.3 314.5 L502.3 311.8 L502.3 309.1 L502.3 306.4 L502.3 303.6 L502.3 300.9 L502.3 298.2 L500.0 298.2 L497.7 298.2 L495.4 298.2 L495.4 300.9 L495.4 303.6 L495.4 306.4 L495.4 309.1 L495.4 311.8 L495.4 314.5 L495.4 317.2 Z" fill="#2f8f83" fill-opacity="0.34" stroke="#0e5b52" stroke-width="1.6" />
  <path d="M385.7 241.3 L385.7 244.0 L388.0 244.0 L388.0 246.7 L390.3 246.7 L390.3 249.4 L392.6 249.4 L392.6 252.1 L394.8 252.1 L394.8 254.9 L397.1 254.9 L397.1 257.6 L399.4 257.6 L401.7 257.6 L401.7 260.3 L404.0 260.3 L404.0 263.0 L406.3 263.0 L406.3 265.7 L408.6 265.7 L408.6 268.4 L410.8 268.4 L410.8 271.1 L413.1 271.1 L415.4 271.1 L415.4 273.8 L417.7 273.8 L417.7 276.6 L420.0 276.6 L422.3 276.6 L422.3 279.3 L424.6 279.3 L424.6 282.0 L426.8 282.0 L429.1 282.0 L429.1 279.3 L429.1 276.6 L429.1 273.8 L429.1 271.1 L431.4 271.1 L431.4 268.4 L429.1 268.4 L426.8 268.4 L424.6 268.4 L422.3 268.4 L422.3 265.7 L420.0 265.7 L417.7 265.7 L415.4 265.7 L415.4 263.0 L415.4 260.3 L415.4 257.6 L413.1 257.6 L410.8 257.6 L410.8 254.9 L408.6 254.9 L408.6 252.1 L408.6 249.4 L408.6 246.7 L408.6 244.0 L406.3 244.0 L406.3 241.3 L404.0 241.3 L401.7 241.3 L401.7 238.6 L399.4 238.6 L397.1 238.6 L394.8 238.6 L394.8 235.9 L392.5 235.9 L392.5 238.6 L390.3 238.6 L388.0 238.6 L385.7 238.6 L383.4 238.6 L383.4 241.3 L385.7 241.3 Z" fill="#2f8f83" fill-opacity="0.34" stroke="#0e5b52" stroke-width="1.6" />
  <path d="M376.5 241.3 L376.5 244.0 L378.8 244.0 L381.1 244.0 L381.1 246.7 L381.1 249.4 L381.1 252.1 L381.1 254.9 L381.1 257.6 L383.4 257.6 L385.7 257.6 L388.0 257.6 L390.3 257.6 L392.6 257.6 L394.8 257.6 L397.1 257.6 L397.1 254.9 L394.8 254.9 L394.8 252.1 L392.6 252.1 L392.6 249.4 L390.3 249.4 L390.3 246.7 L388.0 246.7 L388.0 244.0 L385.7 244.0 L385.7 241.3 L383.4 241.3 L383.4 238.6 L381.1 238.6 L378.8 238.6 L376.5 238.6 L376.5 241.3 Z" fill="#2f8f83" fill-opacity="0.34" stroke="#0e5b52" stroke-width="1.6" />
  <path d="M381.1 260.3 L381.1 263.0 L383.4 263.0 L383.4 265.7 L385.7 265.7 L388.0 265.7 L388.0 268.4 L388.0 271.1 L388.0 273.8 L388.0 276.6 L390.3 276.6 L392.6 276.6 L392.6 279.3 L392.6 282.0 L394.8 282.0 L397.1 282.0 L399.4 282.0 L401.7 282.0 L404.0 282.0 L406.3 282.0 L408.6 282.0 L410.8 282.0 L413.1 282.0 L415.4 282.0 L417.7 282.0 L420.0 282.0 L422.3 282.0 L424.6 282.0 L424.6 279.3 L422.3 279.3 L422.3 276.6 L420.0 276.6 L417.7 276.6 L417.7 273.8 L415.4 273.8 L415.4 271.1 L413.1 271.1 L410.8 271.1 L410.8 268.4 L408.6 268.4 L408.6 265.7 L406.3 265.7 L406.3 263.0 L404.0 263.0 L404.0 260.3 L401.7 260.3 L401.7 257.6 L399.4 257.6 L397.1 257.6 L394.8 257.6 L392.6 257.6 L390.3 257.6 L388.0 257.6 L385.7 257.6 L383.4 257.6 L381.1 257.6 L381.1 260.3 Z" fill="#2f8f83" fill-opacity="0.34" stroke="#0e5b52" stroke-width="1.6" />
  <path d="M429.1 287.4 L429.1 290.1 L431.4 290.1 L433.7 290.1 L436.0 290.1 L438.3 290.1 L440.6 290.1 L440.6 292.8 L442.8 292.8 L445.1 292.8 L447.4 292.8 L449.7 292.8 L449.7 290.1 L449.7 287.4 L449.7 284.7 L447.4 284.7 L445.1 284.7 L442.8 284.7 L442.8 282.0 L440.6 282.0 L438.3 282.0 L436.0 282.0 L436.0 284.7 L433.7 284.7 L431.4 284.7 L429.1 284.7 L429.1 287.4 Z" fill="#2f8f83" fill-opacity="0.34" stroke="#0e5b52" stroke-width="1.6" />
  <path d="M513.7 417.1 L513.7 419.8 L516.0 419.8 L518.3 419.8 L520.6 419.8 L520.6 417.1 L520.6 414.4 L520.6 411.7 L522.9 411.7 L522.9 409.0 L522.9 406.3 L522.9 403.6 L522.9 400.9 L522.9 398.2 L522.9 395.5 L522.9 392.8 L520.6 392.8 L520.6 390.1 L520.6 387.4 L520.6 384.8 L520.6 382.1 L518.3 382.1 L518.3 379.4 L516.0 379.4 L513.7 379.4 L513.7 382.1 L513.7 384.8 L513.7 387.5 L513.7 390.1 L513.7 392.8 L513.7 395.5 L513.7 398.2 L513.7 400.9 L513.7 403.6 L513.7 406.3 L513.7 409.0 L513.7 411.7 L513.7 414.4 L513.7 417.1 Z" fill="#2f8f83" fill-opacity="0.34" stroke="#0e5b52" stroke-width="1.6" />
  <path d="M513.7 360.4 L513.7 363.1 L516.0 363.1 L518.3 363.1 L520.6 363.1 L522.9 363.1 L525.2 363.1 L525.2 360.4 L525.2 357.7 L525.2 355.0 L525.2 352.3 L522.9 352.3 L520.6 352.3 L518.3 352.3 L516.0 352.3 L513.7 352.3 L513.7 355.0 L513.7 357.7 L513.7 360.4 Z" fill="#2f8f83" fill-opacity="0.34" stroke="#0e5b52" stroke-width="1.6" />
  <path d="M488.6 403.6 L490.9 403.6 L493.1 403.6 L495.4 403.6 L497.7 403.6 L500.0 403.6 L502.3 403.6 L504.6 403.6 L506.9 403.6 L509.2 403.6 L511.4 403.6 L513.7 403.6 L513.7 400.9 L513.7 398.2 L511.4 398.2 L509.2 398.2 L506.9 398.2 L504.6 398.2 L502.3 398.2 L500.0 398.2 L497.7 398.2 L495.4 398.2 L493.1 398.2 L490.9 398.2 L490.9 400.9 L488.6 400.9 L486.3 400.9 L486.3 403.6 L488.6 403.6 Z" fill="#2f8f83" fill-opacity="0.34" stroke="#0e5b52" stroke-width="1.6" />
  <path d="M461.1 427.9 L461.1 430.6 L463.4 430.6 L465.7 430.6 L468.0 430.6 L470.3 430.6 L472.6 430.6 L474.9 430.6 L477.1 430.6 L479.4 430.6 L481.7 430.6 L484.0 430.6 L486.3 430.6 L488.6 430.6 L490.9 430.6 L493.1 430.6 L495.4 430.6 L497.7 430.6 L497.7 433.3 L500.0 433.3 L502.3 433.3 L502.3 436.0 L504.6 436.0 L506.9 436.0 L509.2 436.0 L511.4 436.0 L513.7 436.0 L516.0 436.0 L518.3 436.0 L520.6 436.0 L520.6 438.7 L522.9 438.7 L525.2 438.7 L525.2 436.0 L525.2 433.3 L522.9 433.3 L520.6 433.3 L518.3 433.3 L516.0 433.3 L513.7 433.3 L511.4 433.3 L509.2 433.3 L506.9 433.3 L506.9 430.6 L506.9 427.9 L506.9 425.2 L506.9 422.5 L506.9 419.8 L504.6 419.8 L502.3 419.8 L500.0 419.8 L497.7 419.8 L495.4 419.8 L493.1 419.8 L490.9 419.8 L488.6 419.8 L486.3 419.8 L484.0 419.8 L481.7 419.8 L479.4 419.8 L477.1 419.8 L474.9 419.8 L472.6 419.8 L470.3 419.8 L468.0 419.8 L465.7 419.8 L463.4 419.8 L461.1 419.8 L461.1 422.5 L461.1 425.2 L461.1 427.9 Z" fill="#2f8f83" fill-opacity="0.34" stroke="#0e5b52" stroke-width="1.6" />
  <path d="M440.6 309.1 L440.6 311.8 L442.8 311.8 L442.8 314.5 L442.8 317.2 L445.1 317.2 L447.4 317.2 L449.7 317.2 L452.0 317.2 L454.3 317.2 L456.6 317.2 L456.6 319.9 L458.9 319.9 L461.1 319.9 L463.4 319.9 L465.7 319.9 L468.0 319.9 L470.3 319.9 L472.6 319.9 L472.6 317.2 L470.3 317.2 L468.0 317.2 L468.0 314.5 L465.7 314.5 L463.4 314.5 L463.4 311.8 L461.1 311.8 L458.9 311.8 L458.9 309.1 L456.6 309.1 L454.3 309.1 L454.3 306.4 L452.0 306.4 L449.7 306.4 L449.7 303.6 L447.4 303.6 L445.1 303.6 L445.1 300.9 L442.8 300.9 L440.6 300.9 L440.6 303.6 L440.6 306.4 L440.6 309.1 Z" fill="#2f8f83" fill-opacity="0.34" stroke="#0e5b52" stroke-width="1.6" />
  <path d="M422.3 346.9 L422.3 349.6 L424.6 349.6 L426.8 349.6 L429.1 349.6 L431.4 349.6 L433.7 349.6 L436.0 349.6 L438.3 349.6 L440.6 349.6 L442.8 349.6 L445.1 349.6 L447.4 349.6 L449.7 349.6 L452.0 349.6 L454.3 349.6 L456.6 349.6 L456.6 346.9 L456.6 344.2 L456.6 341.5 L456.6 338.8 L454.3 338.8 L452.0 338.8 L452.0 336.1 L452.0 333.4 L452.0 330.7 L449.7 330.7 L447.4 330.7 L445.1 330.7 L442.8 330.7 L440.6 330.7 L438.3 330.7 L436.0 330.7 L433.7 330.7 L431.4 330.7 L429.1 330.7 L426.8 330.7 L424.6 330.7 L422.3 330.7 L422.3 333.4 L422.3 336.1 L422.3 338.8 L422.3 341.5 L422.3 344.2 L422.3 346.9 Z" fill="#2f8f83" fill-opacity="0.34" stroke="#0e5b52" stroke-width="1.6" />
  <path d="M415.4 365.9 L415.4 368.6 L417.7 368.6 L420.0 368.6 L422.3 368.6 L424.6 368.6 L426.8 368.6 L429.1 368.6 L431.4 368.6 L433.7 368.6 L436.0 368.6 L438.3 368.6 L438.3 365.9 L438.3 363.2 L438.3 360.4 L440.6 360.4 L442.8 360.4 L445.1 360.4 L447.4 360.4 L449.7 360.4 L452.0 360.4 L454.3 360.4 L456.6 360.4 L458.9 360.4 L461.1 360.4 L461.1 357.7 L461.1 355.0 L458.9 355.0 L456.6 355.0 L456.6 352.3 L456.6 349.6 L454.3 349.6 L452.0 349.6 L449.7 349.6 L447.4 349.6 L445.1 349.6 L442.8 349.6 L440.6 349.6 L438.3 349.6 L436.0 349.6 L433.7 349.6 L431.4 349.6 L429.1 349.6 L426.8 349.6 L424.6 349.6 L422.3 349.6 L422.3 352.3 L422.3 355.0 L422.3 357.7 L422.3 360.4 L420.0 360.4 L417.7 360.4 L415.4 360.4 L415.4 363.2 L415.4 365.9 Z" fill="#2f8f83" fill-opacity="0.34" stroke="#0e5b52" stroke-width="1.6" />
  <path d="M415.4 374.0 L415.4 376.7 L417.7 376.7 L420.0 376.7 L422.3 376.7 L424.6 376.7 L426.8 376.7 L429.1 376.7 L431.4 376.7 L433.7 376.7 L436.0 376.7 L438.3 376.7 L438.3 374.0 L438.3 371.3 L438.3 368.6 L436.0 368.6 L433.7 368.6 L431.4 368.6 L429.1 368.6 L426.8 368.6 L424.6 368.6 L422.3 368.6 L420.0 368.6 L417.7 368.6 L415.4 368.6 L415.4 371.3 L415.4 374.0 Z" fill="#2f8f83" fill-opacity="0.34" stroke="#0e5b52" stroke-width="1.6" />
  <path d="M461.1 417.1 L461.1 419.8 L463.4 419.8 L465.7 419.8 L468.0 419.8 L468.0 417.1 L468.0 414.4 L468.0 411.7 L468.0 409.0 L468.0 406.3 L468.0 403.6 L465.7 403.6 L463.4 403.6 L461.1 403.6 L461.1 406.3 L461.1 409.0 L461.1 411.7 L461.1 414.4 L461.1 417.1 Z" fill="#2f8f83" fill-opacity="0.34" stroke="#0e5b52" stroke-width="1.6" />
  <path d="M413.1 398.2 L415.4 398.2 L417.7 398.2 L420.0 398.2 L420.0 400.9 L420.0 403.6 L422.3 403.6 L422.3 406.3 L424.6 406.3 L424.6 409.0 L426.8 409.0 L429.1 409.0 L431.4 409.0 L433.7 409.0 L436.0 409.0 L438.3 409.0 L440.6 409.0 L442.9 409.0 L445.1 409.0 L447.4 409.0 L447.4 406.3 L447.4 403.6 L447.4 400.9 L447.4 398.2 L445.1 398.2 L445.1 395.5 L445.1 392.8 L445.1 390.2 L445.1 387.5 L442.9 387.5 L442.9 384.8 L442.9 382.1 L442.9 379.4 L445.1 379.4 L445.1 376.7 L447.4 376.7 L447.4 374.0 L445.1 374.0 L445.1 371.3 L447.4 371.3 L447.4 368.6 L449.7 368.6 L449.7 371.3 L449.7 374.0 L449.7 376.7 L452.0 376.7 L452.0 374.0 L452.0 371.3 L452.0 368.6 L452.0 365.9 L452.0 363.2 L449.7 363.2 L447.4 363.2 L445.1 363.2 L442.8 363.2 L440.6 363.2 L440.6 365.9 L440.6 368.6 L440.6 371.3 L440.6 374.0 L440.6 376.7 L440.6 379.4 L440.6 382.1 L440.6 384.8 L440.6 387.5 L440.6 390.2 L440.6 392.8 L440.6 395.5 L440.6 398.2 L440.6 400.9 L440.6 403.6 L440.6 406.3 L438.3 406.3 L436.0 406.3 L436.0 403.6 L433.7 403.6 L433.7 400.9 L433.7 398.2 L433.7 395.5 L433.7 392.9 L431.4 392.9 L429.1 392.9 L426.8 392.9 L424.6 392.9 L422.3 392.9 L420.0 392.9 L417.7 392.9 L415.4 392.9 L413.1 392.9 L413.1 395.5 L413.1 398.2 Z" fill="#2f8f83" fill-opacity="0.34" stroke="#0e5b52" stroke-width="1.6" />
  <path d="M413.1 436.0 L415.4 436.0 L417.7 436.0 L420.0 436.0 L422.3 436.0 L422.3 438.7 L424.6 438.7 L426.8 438.7 L429.1 438.7 L431.4 438.7 L433.7 438.7 L436.0 438.7 L438.3 438.7 L438.3 441.4 L438.3 444.1 L438.3 446.8 L438.3 449.5 L438.3 452.1 L440.6 452.1 L442.9 452.1 L445.1 452.1 L447.4 452.1 L449.7 452.1 L452.0 452.1 L452.0 449.5 L452.0 446.8 L449.7 446.8 L449.7 444.1 L449.7 441.4 L447.4 441.4 L447.4 438.7 L447.4 436.0 L447.4 433.3 L449.7 433.3 L449.7 430.6 L449.7 427.9 L447.4 427.9 L447.4 425.2 L447.4 422.5 L445.1 422.5 L445.1 419.8 L445.1 417.1 L445.1 414.4 L445.1 411.7 L445.1 409.0 L442.9 409.0 L440.6 409.0 L438.3 409.0 L436.0 409.0 L433.7 409.0 L431.4 409.0 L429.1 409.0 L429.1 411.7 L431.4 411.7 L431.4 414.4 L433.7 414.4 L436.0 414.4 L436.0 417.1 L438.3 417.1 L438.3 419.8 L438.3 422.5 L438.3 425.2 L440.6 425.2 L440.6 427.9 L440.6 430.6 L438.3 430.6 L436.0 430.6 L433.7 430.6 L431.4 430.6 L429.1 430.6 L426.8 430.6 L424.6 430.6 L422.3 430.6 L422.3 433.3 L420.0 433.3 L417.7 433.3 L415.4 433.3 L413.1 433.3 L410.8 433.3 L410.8 436.0 L413.1 436.0 Z" fill="#2f8f83" fill-opacity="0.34" stroke="#0e5b52" stroke-width="1.6" />
  <path d="M449.7 460.2 L449.7 462.9 L452.0 462.9 L454.3 462.9 L456.6 462.9 L456.6 460.2 L454.3 460.2 L454.3 457.5 L454.3 454.8 L452.0 454.8 L452.0 452.1 L449.7 452.1 L449.7 454.8 L449.7 457.5 L449.7 460.2 Z" fill="#2f8f83" fill-opacity="0.34" stroke="#0e5b52" stroke-width="1.6" />
  <path d="M458.9 446.8 L458.9 449.5 L461.1 449.5 L461.1 452.1 L461.1 454.8 L463.4 454.8 L463.4 457.5 L463.4 460.2 L463.4 462.9 L465.7 462.9 L465.7 465.6 L465.7 468.3 L465.7 471.0 L465.7 473.7 L468.0 473.7 L468.0 476.4 L470.3 476.4 L470.3 479.0 L472.6 479.0 L472.6 481.7 L474.9 481.7 L474.9 484.4 L474.9 487.1 L474.9 489.8 L474.9 492.5 L477.1 492.5 L479.4 492.5 L479.4 489.8 L479.4 487.1 L479.4 484.4 L479.4 481.7 L479.4 479.0 L481.7 479.0 L484.0 479.0 L486.3 479.0 L488.6 479.0 L490.9 479.0 L493.1 479.0 L495.4 479.0 L497.7 479.0 L500.0 479.0 L502.3 479.0 L504.6 479.0 L506.9 479.0 L509.2 479.0 L511.4 479.0 L513.7 479.0 L516.0 479.0 L518.3 479.0 L520.6 479.0 L522.9 479.0 L525.2 479.0 L527.4 479.0 L529.7 479.0 L529.7 476.4 L527.4 476.4 L525.2 476.4 L522.9 476.4 L520.6 476.4 L518.3 476.4 L516.0 476.4 L513.7 476.4 L511.4 476.4 L509.2 476.4 L506.9 476.4 L504.6 476.4 L502.3 476.4 L500.0 476.4 L497.7 476.4 L495.4 476.4 L493.1 476.4 L490.9 476.4 L488.6 476.4 L486.3 476.4 L484.0 476.4 L481.7 476.4 L479.4 476.4 L477.1 476.4 L474.9 476.4 L474.9 473.7 L474.9 471.0 L474.9 468.3 L474.9 465.6 L474.9 462.9 L472.6 462.9 L470.3 462.9 L470.3 460.2 L470.3 457.5 L470.3 454.8 L470.3 452.1 L470.3 449.5 L470.3 446.8 L470.3 444.1 L470.3 441.4 L470.3 438.7 L470.3 436.0 L468.0 436.0 L465.7 436.0 L463.4 436.0 L461.1 436.0 L458.9 436.0 L458.9 438.7 L456.6 438.7 L456.6 441.4 L458.9 441.4 L458.9 444.1 L458.9 446.8 Z" fill="#2f8f83" fill-opacity="0.34" stroke="#0e5b52" stroke-width="1.6" />
  <path d="M479.4 489.8 L479.4 492.5 L481.7 492.5 L484.0 492.5 L486.3 492.5 L488.6 492.5 L490.9 492.5 L493.1 492.5 L495.4 492.5 L497.7 492.5 L500.0 492.5 L502.3 492.5 L504.6 492.5 L506.9 492.5 L506.9 489.8 L509.2 489.8 L511.4 489.8 L513.7 489.8 L516.0 489.8 L518.3 489.8 L520.6 489.8 L522.9 489.8 L525.2 489.8 L527.4 489.8 L529.7 489.8 L529.7 487.1 L529.7 484.4 L529.7 481.7 L529.7 479.0 L527.4 479.0 L525.2 479.0 L522.9 479.0 L520.6 479.0 L518.3 479.0 L516.0 479.0 L513.7 479.0 L511.4 479.0 L509.2 479.0 L506.9 479.0 L504.6 479.0 L502.3 479.0 L500.0 479.0 L497.7 479.0 L495.4 479.0 L493.1 479.0 L490.9 479.0 L488.6 479.0 L486.3 479.0 L484.0 479.0 L481.7 479.0 L479.4 479.0 L479.4 481.7 L479.4 484.4 L479.4 487.1 L479.4 489.8 Z" fill="#2f8f83" fill-opacity="0.34" stroke="#0e5b52" stroke-width="1.6" />
  <path d="M474.9 497.9 L477.1 497.9 L477.1 500.6 L477.1 503.2 L477.1 505.9 L477.1 508.6 L479.4 508.6 L479.4 511.3 L479.4 514.0 L479.4 516.7 L479.4 519.4 L481.7 519.4 L481.7 522.0 L484.0 522.0 L486.3 522.0 L488.6 522.0 L488.6 519.4 L488.6 516.7 L490.9 516.7 L490.9 514.0 L488.6 514.0 L488.6 511.3 L486.3 511.3 L486.3 508.6 L488.6 508.6 L490.9 508.6 L493.1 508.6 L493.1 505.9 L493.1 503.2 L493.1 500.6 L495.4 500.6 L497.7 500.6 L497.7 497.9 L500.0 497.9 L500.0 495.2 L502.3 495.2 L502.3 492.5 L500.0 492.5 L497.7 492.5 L495.4 492.5 L493.1 492.5 L490.9 492.5 L488.6 492.5 L486.3 492.5 L484.0 492.5 L481.7 492.5 L479.4 492.5 L477.1 492.5 L474.9 492.5 L474.9 495.2 L474.9 497.9 Z" fill="#2f8f83" fill-opacity="0.34" stroke="#0e5b52" stroke-width="1.6" />
  <path d="M509.2 473.7 L509.2 476.4 L511.4 476.4 L513.7 476.4 L516.0 476.4 L518.3 476.4 L520.6 476.4 L522.9 476.4 L525.2 476.4 L525.2 473.7 L525.2 471.0 L525.2 468.3 L525.2 465.6 L525.2 462.9 L525.2 460.2 L525.2 457.5 L525.2 454.8 L525.2 452.1 L525.2 449.4 L525.2 446.8 L525.2 444.1 L525.2 441.4 L525.2 438.7 L522.9 438.7 L520.6 438.7 L520.6 436.0 L518.3 436.0 L516.0 436.0 L516.0 438.7 L513.7 438.7 L511.4 438.7 L509.2 438.7 L509.2 441.4 L509.2 444.1 L509.2 446.8 L509.2 449.4 L509.2 452.1 L509.2 454.8 L509.2 457.5 L509.2 460.2 L509.2 462.9 L509.2 465.6 L509.2 468.3 L509.2 471.0 L509.2 473.7 Z" fill="#2f8f83" fill-opacity="0.34" stroke="#0e5b52" stroke-width="1.6" />
  <path d="M493.1 471.0 L495.4 471.0 L495.4 473.7 L497.7 473.7 L500.0 473.7 L502.3 473.7 L504.6 473.7 L506.9 473.7 L509.2 473.7 L509.2 471.0 L509.2 468.3 L509.2 465.6 L509.2 462.9 L509.2 460.2 L509.2 457.5 L509.2 454.8 L509.2 452.1 L509.2 449.4 L509.2 446.8 L509.2 444.1 L509.2 441.4 L509.2 438.7 L511.4 438.7 L513.7 438.7 L516.0 438.7 L516.0 436.0 L513.7 436.0 L511.4 436.0 L509.2 436.0 L506.9 436.0 L504.6 436.0 L502.3 436.0 L500.0 436.0 L497.7 436.0 L495.4 436.0 L493.1 436.0 L493.1 438.7 L493.1 441.4 L493.1 444.1 L493.1 446.8 L493.1 449.5 L493.1 452.1 L493.1 454.8 L493.1 457.5 L493.1 460.2 L493.1 462.9 L493.1 465.6 L493.1 468.3 L493.1 471.0 Z" fill="#2f8f83" fill-opacity="0.34" stroke="#0e5b52" stroke-width="1.6" />
  <path d="M470.3 460.2 L470.3 462.9 L472.6 462.9 L474.9 462.9 L477.1 462.9 L479.4 462.9 L481.7 462.9 L484.0 462.9 L486.3 462.9 L488.6 462.9 L490.9 462.9 L493.1 462.9 L493.1 460.2 L493.1 457.5 L493.1 454.8 L493.1 452.1 L493.1 449.5 L493.1 446.8 L493.1 444.1 L493.1 441.4 L493.1 438.7 L493.1 436.0 L490.9 436.0 L488.6 436.0 L486.3 436.0 L484.0 436.0 L481.7 436.0 L479.4 436.0 L477.1 436.0 L474.9 436.0 L472.6 436.0 L470.3 436.0 L470.3 438.7 L470.3 441.4 L470.3 444.1 L470.3 446.8 L470.3 449.5 L470.3 452.1 L470.3 454.8 L470.3 457.5 L470.3 460.2 Z" fill="#2f8f83" fill-opacity="0.34" stroke="#0e5b52" stroke-width="1.6" />
  <path d="M474.9 473.7 L474.9 476.4 L477.1 476.4 L479.4 476.4 L481.7 476.4 L484.0 476.4 L486.3 476.4 L488.6 476.4 L490.9 476.4 L493.1 476.4 L495.4 476.4 L497.7 476.4 L500.0 476.4 L502.3 476.4 L504.6 476.4 L506.9 476.4 L509.2 476.4 L509.2 473.7 L506.9 473.7 L504.6 473.7 L502.3 473.7 L500.0 473.7 L497.7 473.7 L495.4 473.7 L495.4 471.0 L493.1 471.0 L493.1 468.3 L493.1 465.6 L493.1 462.9 L490.9 462.9 L488.6 462.9 L486.3 462.9 L484.0 462.9 L481.7 462.9 L479.4 462.9 L477.1 462.9 L474.9 462.9 L474.9 465.6 L474.9 468.3 L474.9 471.0 L474.9 473.7 Z" fill="#2f8f83" fill-opacity="0.34" stroke="#0e5b52" stroke-width="1.6" />
  <path d="M390.3 330.7 L390.3 333.4 L392.6 333.4 L394.8 333.4 L394.8 336.1 L394.8 338.8 L394.8 341.5 L394.8 344.2 L394.8 346.9 L394.8 349.6 L394.8 352.3 L394.8 355.0 L394.8 357.7 L397.1 357.7 L399.4 357.7 L401.7 357.7 L404.0 357.7 L406.3 357.7 L408.6 357.7 L408.6 360.4 L408.6 363.2 L410.8 363.2 L410.8 360.5 L410.8 357.7 L410.8 355.0 L410.8 352.3 L410.8 349.6 L410.8 346.9 L410.8 344.2 L410.8 341.5 L413.1 341.5 L413.1 338.8 L413.1 336.1 L413.1 333.4 L413.1 330.7 L413.1 328.0 L413.1 325.3 L413.1 322.6 L410.8 322.6 L408.6 322.6 L406.3 322.6 L406.3 325.3 L404.0 325.3 L401.7 325.3 L399.4 325.3 L397.1 325.3 L394.8 325.3 L392.6 325.3 L392.6 328.0 L390.3 328.0 L390.3 330.7 Z" fill="#2f8f83" fill-opacity="0.34" stroke="#0e5b52" stroke-width="1.6" />
  <path d="M392.6 322.6 L392.6 325.3 L394.8 325.3 L397.1 325.3 L399.4 325.3 L401.7 325.3 L404.0 325.3 L406.3 325.3 L406.3 322.6 L408.6 322.6 L410.8 322.6 L413.1 322.6 L413.1 319.9 L413.1 317.2 L410.8 317.2 L408.6 317.2 L406.3 317.2 L404.0 317.2 L401.7 317.2 L399.4 317.2 L397.1 317.2 L394.8 317.2 L392.6 317.2 L392.6 319.9 L392.6 322.6 Z" fill="#2f8f83" fill-opacity="0.34" stroke="#0e5b52" stroke-width="1.6" />
  <path d="M461.1 360.4 L463.4 360.4 L463.4 357.7 L463.4 355.0 L463.4 352.3 L463.4 349.6 L465.7 349.6 L468.0 349.6 L470.3 349.6 L472.6 349.6 L474.9 349.6 L477.1 349.6 L479.4 349.6 L481.7 349.6 L481.7 346.9 L481.7 344.2 L484.0 344.2 L486.3 344.2 L486.3 341.5 L486.3 338.8 L486.3 336.1 L486.3 333.4 L486.3 330.7 L486.3 328.0 L484.0 328.0 L481.7 328.0 L479.4 328.0 L477.1 328.0 L474.9 328.0 L472.6 328.0 L470.3 328.0 L468.0 328.0 L465.7 328.0 L463.4 328.0 L461.1 328.0 L461.1 330.7 L461.1 333.4 L461.1 336.1 L461.1 338.8 L461.1 341.5 L461.1 344.2 L461.1 346.9 L461.1 349.6 L461.1 352.3 L461.1 355.0 L461.1 357.7 L461.1 360.4 Z" fill="#2f8f83" fill-opacity="0.34" stroke="#0e5b52" stroke-width="1.6" />
  <path d="M461.1 295.5 L461.1 298.2 L463.4 298.2 L465.7 298.2 L468.0 298.2 L468.0 295.5 L465.7 295.5 L463.4 295.5 L463.4 292.8 L463.4 290.1 L463.4 287.4 L463.4 284.7 L465.7 284.7 L468.0 284.7 L470.3 284.7 L470.3 287.4 L470.3 290.1 L470.3 292.8 L470.3 295.5 L470.3 298.2 L472.6 298.2 L474.9 298.2 L477.1 298.2 L477.1 295.5 L477.1 292.8 L477.1 290.1 L477.1 287.4 L477.1 284.7 L477.1 282.0 L477.1 279.3 L477.1 276.6 L474.9 276.6 L472.6 276.6 L470.3 276.6 L468.0 276.6 L465.7 276.6 L463.4 276.6 L461.1 276.6 L461.1 279.3 L461.1 282.0 L461.1 284.7 L461.1 287.4 L461.1 290.1 L461.1 292.8 L458.9 292.8 L458.9 295.5 L461.1 295.5 Z" fill="#2f8f83" fill-opacity="0.34" stroke="#0e5b52" stroke-width="1.6" />
  <path d="M477.1 317.2 L477.1 319.9 L479.4 319.9 L481.7 319.9 L484.0 319.9 L486.3 319.9 L488.6 319.9 L490.9 319.9 L493.1 319.9 L495.4 319.9 L495.4 317.2 L495.4 314.5 L495.4 311.8 L495.4 309.1 L495.4 306.4 L495.4 303.6 L495.4 300.9 L495.4 298.2 L495.4 295.5 L493.1 295.5 L490.9 295.5 L490.9 298.2 L488.6 298.2 L486.3 298.2 L484.0 298.2 L481.7 298.2 L479.4 298.2 L477.1 298.2 L477.1 300.9 L477.1 303.6 L477.1 306.4 L477.1 309.1 L477.1 311.8 L477.1 314.5 L477.1 317.2 Z" fill="#2f8f83" fill-opacity="0.34" stroke="#0e5b52" stroke-width="1.6" />
  <path d="M525.2 365.8 L525.2 368.6 L527.4 368.5 L529.7 368.5 L532.0 368.5 L534.3 368.5 L536.6 368.5 L538.9 368.5 L538.9 365.8 L538.9 363.1 L538.9 360.4 L538.9 357.7 L538.9 355.0 L538.9 352.3 L536.6 352.3 L534.3 352.3 L532.0 352.3 L529.7 352.3 L527.4 352.3 L525.2 352.3 L525.2 355.0 L525.2 357.7 L525.2 360.4 L525.2 363.1 L525.2 365.8 Z" fill="#2f8f83" fill-opacity="0.34" stroke="#0e5b52" stroke-width="1.6" />
  <path d="M463.4 365.9 L463.4 368.6 L465.7 368.6 L468.0 368.6 L470.3 368.6 L472.6 368.6 L474.9 368.6 L477.1 368.6 L479.4 368.6 L481.7 368.6 L484.0 368.6 L486.3 368.6 L488.6 368.6 L490.9 368.6 L493.1 368.6 L493.1 365.9 L493.1 363.1 L493.1 360.4 L490.9 360.4 L490.9 357.7 L490.9 355.0 L490.9 352.3 L488.6 352.3 L486.3 352.3 L484.0 352.3 L481.7 352.3 L481.7 355.0 L479.4 355.0 L477.1 355.0 L474.9 355.0 L472.6 355.0 L470.3 355.0 L468.0 355.0 L465.7 355.0 L463.4 355.0 L463.4 357.7 L463.4 360.4 L463.4 363.1 L463.4 365.9 Z" fill="#2f8f83" fill-opacity="0.34" stroke="#0e5b52" stroke-width="1.6" />
  <path d="M506.9 430.6 L506.9 433.3 L509.2 433.3 L511.4 433.3 L513.7 433.3 L516.0 433.3 L518.3 433.3 L520.6 433.3 L522.9 433.3 L525.2 433.3 L525.2 436.0 L525.2 438.7 L527.4 438.7 L529.7 438.7 L532.0 438.7 L532.0 441.4 L532.0 444.1 L532.0 446.8 L532.0 449.4 L534.3 449.4 L536.6 449.4 L538.9 449.4 L538.9 452.1 L538.9 454.8 L538.9 457.5 L541.2 457.5 L543.4 457.5 L545.7 457.5 L548.0 457.5 L548.0 454.8 L548.0 452.1 L548.0 449.4 L548.0 446.8 L545.7 446.8 L543.4 446.8 L543.4 444.1 L541.2 444.1 L541.2 441.4 L541.2 438.7 L541.2 436.0 L541.2 433.3 L538.9 433.3 L536.6 433.3 L536.6 430.6 L534.3 430.6 L532.0 430.6 L532.0 427.9 L532.0 425.2 L529.7 425.2 L529.7 422.5 L527.4 422.5 L525.2 422.5 L522.9 422.5 L520.6 422.5 L520.6 419.8 L518.3 419.8 L516.0 419.8 L513.7 419.8 L511.4 419.8 L509.2 419.8 L506.9 419.8 L506.9 422.5 L506.9 425.2 L506.9 427.9 L506.9 430.6 Z" fill="#2f8f83" fill-opacity="0.34" stroke="#0e5b52" stroke-width="1.6" />
  <path d="M472.6 273.8 L474.9 273.8 L477.1 273.8 L479.4 273.8 L479.4 276.6 L481.7 276.6 L484.0 276.6 L486.3 276.6 L486.3 279.3 L486.3 282.0 L486.3 284.7 L488.6 284.7 L488.6 287.4 L486.3 287.4 L486.3 290.1 L484.0 290.1 L484.0 292.8 L481.7 292.8 L481.7 295.5 L484.0 295.5 L486.3 295.5 L488.6 295.5 L488.6 292.8 L490.9 292.8 L493.1 292.8 L493.1 290.1 L495.4 290.1 L497.7 290.1 L497.7 287.4 L497.7 284.7 L497.7 282.0 L497.7 279.3 L497.7 276.6 L500.0 276.6 L500.0 273.8 L500.0 271.1 L500.0 268.4 L497.7 268.4 L495.4 268.4 L493.1 268.4 L490.9 268.4 L490.9 265.7 L490.9 263.0 L490.9 260.3 L490.9 257.6 L488.6 257.6 L486.3 257.6 L484.0 257.6 L481.7 257.6 L479.4 257.6 L479.4 254.9 L477.1 254.9 L474.9 254.9 L472.6 254.9 L472.6 257.6 L472.6 260.3 L472.6 263.0 L472.6 265.7 L472.6 268.4 L472.6 271.1 L470.3 271.1 L470.3 273.8 L472.6 273.8 Z" fill="#2f8f83" fill-opacity="0.34" stroke="#0e5b52" stroke-width="1.6" />
  <path d="M433.7 235.9 L433.7 238.6 L436.0 238.6 L438.3 238.6 L440.6 238.6 L442.8 238.6 L445.1 238.6 L447.4 238.6 L449.7 238.6 L452.0 238.6 L454.3 238.6 L456.6 238.6 L456.6 241.3 L456.6 244.0 L456.6 246.7 L456.6 249.4 L458.9 249.4 L461.1 249.4 L463.4 249.4 L465.7 249.4 L465.7 246.7 L465.7 244.0 L468.0 244.0 L470.3 244.0 L472.6 244.0 L474.9 244.0 L474.9 246.7 L474.9 249.4 L477.1 249.4 L477.1 252.1 L479.4 252.1 L481.7 252.1 L484.0 252.1 L484.0 254.9 L484.0 257.6 L486.3 257.6 L486.3 254.9 L486.3 252.1 L486.3 249.4 L484.0 249.4 L481.7 249.4 L479.4 249.4 L479.4 246.7 L477.1 246.7 L477.1 244.0 L477.1 241.3 L474.8 241.3 L472.6 241.3 L470.3 241.3 L470.3 238.6 L470.3 235.9 L470.3 233.1 L468.0 233.1 L465.7 233.1 L463.4 233.1 L461.1 233.1 L458.8 233.1 L456.5 233.1 L456.5 230.4 L456.5 227.7 L456.5 225.0 L456.5 222.3 L456.5 219.6 L456.5 216.8 L456.5 214.1 L456.5 211.4 L456.5 208.7 L454.2 208.7 L451.9 208.7 L449.7 208.7 L447.4 208.7 L445.1 208.7 L442.8 208.7 L440.5 208.7 L438.2 208.7 L438.2 206.0 L435.9 206.0 L433.7 206.0 L433.7 208.7 L435.9 208.7 L435.9 211.4 L438.2 211.4 L440.5 211.4 L442.8 211.4 L445.1 211.4 L447.4 211.4 L447.4 214.1 L449.7 214.1 L449.7 216.8 L449.7 219.6 L449.7 222.3 L449.7 225.0 L449.7 227.7 L449.7 230.4 L449.7 233.1 L447.4 233.1 L445.1 233.1 L442.8 233.1 L440.5 233.1 L438.3 233.1 L436.0 233.1 L433.7 233.1 L433.7 235.9 Z" fill="#2f8f83" fill-opacity="0.34" stroke="#0e5b52" stroke-width="1.6" />
  <!-- title strip -->
  <rect x="0" y="0" width="1000" height="54" fill="#173042" />
  <text x="20" y="34" font-size="21" font-weight="bold" fill="#ffffff">Goliath Resources Limited — Mineral Claims</text>
  <text x="980" y="34" font-size="15" fill="#cfe3df" text-anchor="end">GOT</text>
  <!-- scale bar -->
  <g transform="translate(843.3235778097078, 596)">
    <rect x="0" y="0" width="58.338211095146086" height="8" fill="#173042" />
    <rect x="58.338211095146086" y="0" width="58.338211095146086" height="8" fill="#ffffff" stroke="#173042" stroke-width="1" />
    <text x="58.338211095146086" y="-6" font-size="12" fill="#173042" text-anchor="middle">20 km</text>
  </g>
  <!-- north arrow -->
  <g transform="translate(956, 92)">
    <circle r="17" fill="#ffffff" stroke="#b9b09a" />
    <path d="M0 -10 L5 7 L0 3 L-5 7 Z" fill="#173042" />
    <text y="14" font-size="9" font-weight="bold" fill="#173042" text-anchor="middle">N</text>
  </g>
  <!-- watermark -->
  <text x="20" y="620" font-size="13" fill="#7d8b8a">Map by Exploration Maps — explorationmaps.com</text>
</svg>