<svg xmlns="http://www.w3.org/2000/svg" viewBox="0 0 1000 640" font-family="Arial, Helvetica, sans-serif">
  <rect width="1000" height="640" fill="#f3efe6" />
  <line x1="200" y1="0" x2="200" y2="640" stroke="#d9d2c0" stroke-width="0.7" />
  <line x1="0" y1="128" x2="1000" y2="128" stroke="#d9d2c0" stroke-width="0.7" />
  <line x1="400" y1="0" x2="400" y2="640" stroke="#d9d2c0" stroke-width="0.7" />
  <line x1="0" y1="256" x2="1000" y2="256" stroke="#d9d2c0" stroke-width="0.7" />
  <line x1="600" y1="0" x2="600" y2="640" stroke="#d9d2c0" stroke-width="0.7" />
  <line x1="0" y1="384" x2="1000" y2="384" stroke="#d9d2c0" stroke-width="0.7" />
  <line x1="800" y1="0" x2="800" y2="640" stroke="#d9d2c0" stroke-width="0.7" />
  <line x1="0" y1="512" x2="1000" y2="512" stroke="#d9d2c0" stroke-width="0.7" />
  <path d="M519.4 349.6 L519.4 352.3 L521.7 352.3 L524.0 352.3 L526.3 352.3 L528.6 352.3 L530.9 352.3 L530.9 349.6 L530.9 346.9 L528.6 346.9 L526.3 346.9 L524.0 346.9 L521.7 346.9 L519.4 346.9 L519.4 349.6 Z" fill="#2f8f83" fill-opacity="0.34" stroke="#0e5b52" stroke-width="1.6" />
  <path d="M489.7 352.3 L492.0 352.3 L494.3 352.3 L496.6 352.3 L496.6 349.6 L496.6 346.9 L496.6 344.2 L496.6 341.5 L496.6 338.8 L496.6 336.1 L496.6 333.4 L494.3 333.4 L492.0 333.4 L492.0 336.1 L494.3 336.1 L494.3 338.8 L494.3 341.5 L494.3 344.2 L494.3 346.9 L494.3 349.6 L492.0 349.6 L489.7 349.6 L487.4 349.6 L487.4 352.3 L489.7 352.3 Z" fill="#2f8f83" fill-opacity="0.34" stroke="#0e5b52" stroke-width="1.6" />
  <path d="M450.9 298.2 L453.1 298.2 L455.4 298.2 L457.7 298.2 L460.0 298.2 L462.3 298.2 L464.6 298.2 L466.9 298.2 L466.9 295.5 L464.6 295.5 L464.6 292.8 L462.3 292.8 L460.0 292.8 L457.7 292.8 L455.4 292.8 L453.1 292.8 L450.9 292.8 L450.9 295.5 L448.6 295.5 L448.6 298.2 L450.9 298.2 Z" fill="#2f8f83" fill-opacity="0.34" stroke="#0e5b52" stroke-width="1.6" />
  <path d="M466.9 382.1 L466.9 384.8 L469.1 384.8 L471.4 384.8 L473.7 384.8 L473.7 387.5 L473.7 390.2 L473.7 392.8 L473.7 395.5 L473.7 398.2 L473.7 400.9 L473.7 403.6 L476.0 403.6 L478.3 403.6 L480.6 403.6 L482.9 403.6 L485.2 403.6 L487.4 403.6 L489.7 403.6 L489.7 400.9 L489.7 398.2 L489.7 395.5 L489.7 392.8 L489.7 390.2 L487.4 390.2 L487.4 387.5 L487.4 384.8 L487.4 382.1 L487.4 379.4 L487.4 376.7 L485.2 376.7 L482.9 376.7 L480.6 376.7 L478.3 376.7 L476.0 376.7 L473.7 376.7 L471.4 376.7 L469.1 376.7 L469.1 379.4 L466.9 379.4 L466.9 382.1 Z" fill="#2f8f83" fill-opacity="0.34" stroke="#0e5b52" stroke-width="1.6" />
  <path d="M492.0 417.1 L492.0 419.8 L494.3 419.8 L496.6 419.8 L498.9 419.8 L501.2 419.8 L503.4 419.8 L505.7 419.8 L508.0 419.8 L510.3 419.8 L512.6 419.8 L514.9 419.8 L517.2 419.8 L519.4 419.8 L519.4 417.1 L519.4 414.4 L519.4 411.7 L519.4 409.0 L519.4 406.3 L519.4 403.6 L517.2 403.6 L514.9 403.6 L512.6 403.6 L510.3 403.6 L508.0 403.6 L505.7 403.6 L503.4 403.6 L501.2 403.6 L498.9 403.6 L496.6 403.6 L494.3 403.6 L492.0 403.6 L492.0 406.3 L492.0 409.0 L492.0 411.7 L492.0 414.4 L492.0 417.1 Z" fill="#2f8f83" fill-opacity="0.34" stroke="#0e5b52" stroke-width="1.6" />
  <path d="M496.6 357.7 L496.6 360.4 L498.9 360.4 L498.9 363.1 L498.9 365.9 L498.9 368.6 L501.2 368.6 L503.4 368.6 L505.7 368.6 L508.0 368.6 L510.3 368.6 L512.6 368.6 L514.9 368.6 L517.2 368.6 L519.4 368.6 L519.4 365.8 L519.4 363.1 L519.4 360.4 L519.4 357.7 L519.4 355.0 L517.2 355.0 L514.9 355.0 L512.6 355.0 L510.3 355.0 L508.0 355.0 L505.7 355.0 L503.4 355.0 L503.4 352.3 L503.4 349.6 L503.4 346.9 L501.2 346.9 L501.2 344.2 L503.4 344.2 L505.7 344.2 L505.7 341.5 L505.7 338.8 L505.7 336.1 L505.7 333.4 L503.4 333.4 L501.2 333.4 L498.9 333.4 L496.6 333.4 L496.6 336.1 L496.6 338.8 L496.6 341.5 L496.6 344.2 L496.6 346.9 L496.6 349.6 L496.6 352.3 L496.6 355.0 L496.6 357.7 Z" fill="#2f8f83" fill-opacity="0.34" stroke="#0e5b52" stroke-width="1.6" />
  <path d="M544.6 462.9 L544.6 465.6 L546.9 465.6 L549.2 465.6 L551.5 465.6 L553.7 465.6 L556.0 465.6 L558.3 465.6 L560.6 465.6 L560.6 462.9 L560.6 460.2 L562.9 460.2 L562.9 457.5 L560.6 457.5 L558.3 457.5 L556.0 457.5 L553.7 457.5 L551.5 457.5 L549.2 457.5 L546.9 457.5 L544.6 457.5 L544.6 460.2 L544.6 462.9 Z" fill="#2f8f83" fill-opacity="0.34" stroke="#0e5b52" stroke-width="1.6" />
  <path d="M530.9 473.7 L530.9 476.4 L533.2 476.4 L535.5 476.4 L537.7 476.4 L540.0 476.4 L542.3 476.4 L544.6 476.4 L546.9 476.4 L549.2 476.4 L551.5 476.4 L553.7 476.4 L556.0 476.4 L556.0 473.7 L556.0 471.0 L558.3 471.0 L560.6 471.0 L560.6 468.3 L560.6 465.6 L558.3 465.6 L556.0 465.6 L553.7 465.6 L551.5 465.6 L549.2 465.6 L546.9 465.6 L544.6 465.6 L544.6 462.9 L544.6 460.2 L544.6 457.5 L544.6 454.8 L544.6 452.1 L544.6 449.4 L542.3 449.4 L540.0 449.4 L537.7 449.4 L537.7 446.8 L537.7 444.1 L537.7 441.4 L537.7 438.7 L535.5 438.7 L533.2 438.7 L530.9 438.7 L530.9 441.4 L530.9 444.1 L530.9 446.8 L530.9 449.4 L530.9 452.1 L530.9 454.8 L530.9 457.5 L530.9 460.2 L530.9 462.9 L530.9 465.6 L530.9 468.3 L530.9 471.0 L530.9 473.7 Z" fill="#2f8f83" fill-opacity="0.34" stroke="#0e5b52" stroke-width="1.6" />
  <path d="M462.3 352.3 L462.3 355.0 L464.6 355.0 L466.9 355.0 L466.9 352.3 L466.9 349.6 L466.9 346.9 L466.9 344.2 L466.9 341.5 L466.9 338.8 L466.9 336.1 L466.9 333.4 L466.9 330.7 L466.9 328.0 L464.6 328.0 L462.3 328.0 L462.3 330.7 L462.3 333.4 L462.3 336.1 L462.3 338.8 L462.3 341.5 L462.3 344.2 L462.3 346.9 L462.3 349.6 L462.3 352.3 Z" fill="#2f8f83" fill-opacity="0.34" stroke="#0e5b52" stroke-width="1.6" />
  <path d="M469.1 352.3 L469.1 355.0 L471.4 355.0 L473.7 355.0 L476.0 355.0 L478.3 355.0 L480.6 355.0 L482.9 355.0 L485.2 355.0 L487.4 355.0 L487.4 352.3 L487.4 349.6 L485.2 349.6 L482.9 349.6 L480.6 349.6 L478.3 349.6 L476.0 349.6 L473.7 349.6 L471.4 349.6 L469.1 349.6 L469.1 352.3 Z" fill="#2f8f83" fill-opacity="0.34" stroke="#0e5b52" stroke-width="1.6" />
  <path d="M450.9 300.9 L450.9 303.6 L453.1 303.6 L455.4 303.6 L455.4 306.4 L457.7 306.4 L460.0 306.4 L460.0 309.1 L462.3 309.1 L464.6 309.1 L464.6 311.8 L466.9 311.8 L469.1 311.8 L469.1 314.5 L471.4 314.5 L473.7 314.5 L473.7 317.2 L476.0 317.2 L478.3 317.2 L478.3 319.9 L480.6 319.9 L482.9 319.9 L482.9 317.2 L482.9 314.5 L482.9 311.8 L482.9 309.1 L482.9 306.4 L482.9 303.6 L482.9 300.9 L482.9 298.2 L480.6 298.2 L478.3 298.2 L478.3 300.9 L478.3 303.6 L476.0 303.6 L473.7 303.6 L473.7 300.9 L473.7 298.2 L471.4 298.2 L469.1 298.2 L466.9 298.2 L464.6 298.2 L462.3 298.2 L460.0 298.2 L457.7 298.2 L455.4 298.2 L453.1 298.2 L450.9 298.2 L448.6 298.2 L448.6 300.9 L450.9 300.9 Z" fill="#2f8f83" fill-opacity="0.34" stroke="#0e5b52" stroke-width="1.6" />
  <path d="M434.9 322.6 L434.9 325.3 L437.1 325.3 L439.4 325.3 L441.7 325.3 L444.0 325.3 L446.3 325.3 L448.6 325.3 L448.6 322.6 L448.6 319.9 L448.6 317.2 L448.6 314.5 L446.3 314.5 L444.0 314.5 L441.7 314.5 L439.4 314.5 L437.1 314.5 L434.9 314.5 L434.9 317.2 L434.9 319.9 L434.9 322.6 Z" fill="#2f8f83" fill-opacity="0.34" stroke="#0e5b52" stroke-width="1.6" />
  <path d="M439.4 303.6 L441.7 303.6 L441.7 306.4 L441.7 309.1 L441.7 311.8 L441.7 314.5 L444.0 314.5 L446.3 314.5 L448.6 314.5 L448.6 311.8 L446.3 311.8 L446.3 309.1 L446.3 306.4 L446.3 303.6 L446.3 300.9 L448.6 300.9 L448.6 298.2 L448.6 295.5 L450.9 295.5 L450.9 292.8 L448.6 292.8 L446.3 292.8 L446.3 290.1 L444.0 290.1 L441.7 290.1 L441.7 292.8 L441.7 295.5 L441.7 298.2 L439.4 298.2 L439.4 300.9 L439.4 303.6 Z" fill="#2f8f83" fill-opacity="0.34" stroke="#0e5b52" stroke-width="1.6" />
  <path d="M430.3 330.7 L432.6 330.7 L434.9 330.7 L437.1 330.7 L439.4 330.7 L441.7 330.7 L444.0 330.7 L446.3 330.7 L448.6 330.7 L450.9 330.7 L453.1 330.7 L455.4 330.7 L457.7 330.7 L457.7 333.4 L457.7 336.1 L457.7 338.8 L460.0 338.8 L462.3 338.8 L462.3 336.1 L462.3 333.4 L462.3 330.7 L462.3 328.0 L460.0 328.0 L457.7 328.0 L455.4 328.0 L453.1 328.0 L450.9 328.0 L448.6 328.0 L446.3 328.0 L446.3 325.3 L444.0 325.3 L441.7 325.3 L439.4 325.3 L437.1 325.3 L437.1 328.0 L434.9 328.0 L432.6 328.0 L430.3 328.0 L428.0 328.0 L428.0 330.7 L430.3 330.7 Z" fill="#2f8f83" fill-opacity="0.34" stroke="#0e5b52" stroke-width="1.6" />
  <path d="M462.3 387.5 L464.6 387.5 L466.9 387.5 L466.9 390.2 L469.1 390.2 L471.4 390.2 L473.7 390.2 L473.7 387.5 L473.7 384.8 L471.4 384.8 L469.1 384.8 L466.9 384.8 L464.6 384.8 L462.3 384.8 L460.0 384.8 L460.0 387.5 L462.3 387.5 Z" fill="#2f8f83" fill-opacity="0.34" stroke="#0e5b52" stroke-width="1.6" />
  <path d="M460.0 374.0 L460.0 376.7 L462.3 376.7 L464.6 376.7 L466.9 376.7 L466.9 374.0 L466.9 371.3 L466.9 368.6 L466.9 365.9 L466.9 363.2 L464.6 363.2 L462.3 363.2 L460.0 363.2 L460.0 365.9 L460.0 368.6 L460.0 371.3 L460.0 374.0 Z" fill="#2f8f83" fill-opacity="0.34" stroke="#0e5b52" stroke-width="1.6" />
  <path d="M466.9 395.5 L466.9 398.2 L469.1 398.2 L471.4 398.2 L473.7 398.2 L473.7 395.5 L473.7 392.8 L473.7 390.2 L471.4 390.2 L469.1 390.2 L466.9 390.2 L466.9 392.8 L466.9 395.5 Z" fill="#2f8f83" fill-opacity="0.34" stroke="#0e5b52" stroke-width="1.6" />
  <path d="M457.7 395.5 L460.0 395.5 L460.0 398.2 L462.3 398.2 L462.3 395.5 L462.3 392.8 L462.3 390.2 L462.3 387.5 L460.0 387.5 L457.7 387.5 L457.7 390.2 L457.7 392.8 L457.7 395.5 Z" fill="#2f8f83" fill-opacity="0.34" stroke="#0e5b52" stroke-width="1.6" />
  <path d="M466.9 400.9 L466.9 403.6 L469.1 403.6 L471.4 403.6 L473.7 403.6 L473.7 400.9 L473.7 398.2 L471.4 398.2 L469.1 398.2 L466.9 398.2 L466.9 400.9 Z" fill="#2f8f83" fill-opacity="0.34" stroke="#0e5b52" stroke-width="1.6" />
  <path d="M473.7 417.1 L473.7 419.8 L476.0 419.8 L478.3 419.8 L480.6 419.8 L482.9 419.8 L485.2 419.8 L487.4 419.8 L489.7 419.8 L492.0 419.8 L492.0 417.1 L492.0 414.4 L492.0 411.7 L492.0 409.0 L492.0 406.3 L492.0 403.6 L489.7 403.6 L487.4 403.6 L485.2 403.6 L482.9 403.6 L480.6 403.6 L478.3 403.6 L476.0 403.6 L473.7 403.6 L473.7 406.3 L473.7 409.0 L473.7 411.7 L473.7 414.4 L473.7 417.1 Z" fill="#2f8f83" fill-opacity="0.34" stroke="#0e5b52" stroke-width="1.6" />
  <path d="M398.3 384.8 L398.3 387.5 L400.6 387.5 L402.8 387.5 L405.1 387.5 L407.4 387.5 L409.7 387.5 L412.0 387.5 L414.3 387.5 L416.6 387.5 L416.6 384.8 L416.6 382.1 L416.6 379.4 L416.6 376.7 L416.6 374.0 L416.6 371.3 L416.6 368.6 L414.3 368.6 L412.0 368.6 L409.7 368.6 L407.4 368.6 L405.1 368.6 L402.8 368.6 L400.6 368.6 L398.3 368.6 L398.3 371.3 L398.3 374.0 L398.3 376.7 L398.3 379.4 L398.3 382.1 L398.3 384.8 Z" fill="#2f8f83" fill-opacity="0.34" stroke="#0e5b52" stroke-width="1.6" />
  <path d="M398.3 365.9 L398.3 368.6 L400.6 368.6 L402.8 368.6 L405.1 368.6 L407.4 368.6 L409.7 368.6 L412.0 368.6 L414.3 368.6 L416.6 368.6 L416.6 365.9 L416.6 363.2 L414.3 363.2 L412.0 363.2 L409.7 363.2 L407.4 363.2 L405.1 363.2 L402.8 363.2 L400.6 363.2 L398.3 363.2 L398.3 365.9 Z" fill="#2f8f83" fill-opacity="0.34" stroke="#0e5b52" stroke-width="1.6" />
  <path d="M400.6 392.9 L402.8 392.9 L405.1 392.9 L407.4 392.9 L409.7 392.9 L412.0 392.9 L414.3 392.9 L416.6 392.9 L418.9 392.9 L421.1 392.9 L423.4 392.9 L425.7 392.9 L428.0 392.9 L430.3 392.9 L432.6 392.9 L434.9 392.9 L437.1 392.9 L439.4 392.9 L439.4 395.5 L439.4 398.2 L439.4 400.9 L439.4 403.6 L441.7 403.6 L444.0 403.6 L444.0 400.9 L444.0 398.2 L444.0 395.5 L444.0 392.9 L446.3 392.8 L446.3 390.2 L446.3 387.5 L446.3 384.8 L446.3 382.1 L446.3 379.4 L446.3 376.7 L444.0 376.7 L441.7 376.7 L439.4 376.7 L437.1 376.7 L434.9 376.7 L432.6 376.7 L430.3 376.7 L428.0 376.7 L425.7 376.7 L423.4 376.7 L421.1 376.7 L418.8 376.7 L416.6 376.7 L416.6 379.4 L416.6 382.1 L416.6 384.8 L416.6 387.5 L414.3 387.5 L412.0 387.5 L409.7 387.5 L407.4 387.5 L405.1 387.5 L402.8 387.5 L400.6 387.5 L400.6 390.2 L400.6 392.9 Z M434.9 384.8 L434.9 382.1 L437.1 382.1 L439.4 382.1 L439.4 384.8 L439.4 387.5 L439.4 390.2 L437.1 390.2 L434.9 390.2 L434.9 387.5 L434.9 384.8 Z" fill="#2f8f83" fill-opacity="0.34" stroke="#0e5b52" stroke-width="1.6" />
  <path d="M400.6 360.5 L400.6 363.2 L402.8 363.2 L405.1 363.2 L407.4 363.2 L409.7 363.2 L412.0 363.2 L414.3 363.2 L414.3 360.4 L414.3 357.7 L412.0 357.7 L409.7 357.7 L407.4 357.7 L405.1 357.7 L402.8 357.7 L400.6 357.7 L400.6 360.5 Z" fill="#2f8f83" fill-opacity="0.34" stroke="#0e5b52" stroke-width="1.6" />
  <path d="M444.0 406.3 L446.3 406.3 L446.3 403.6 L446.3 400.9 L446.3 398.2 L446.3 395.5 L446.3 392.8 L444.0 392.9 L444.0 395.5 L444.0 398.2 L444.0 400.9 L444.0 403.6 L441.7 403.6 L441.7 406.3 L444.0 406.3 Z" fill="#2f8f83" fill-opacity="0.34" stroke="#0e5b52" stroke-width="1.6" />
  <path d="M444.0 374.0 L444.0 376.7 L446.3 376.7 L446.3 374.0 L446.3 371.3 L446.3 368.6 L446.3 365.9 L446.3 363.2 L448.6 363.2 L450.9 363.2 L453.1 363.2 L455.4 363.2 L457.7 363.2 L460.0 363.2 L462.3 363.2 L464.6 363.2 L466.9 363.2 L466.9 365.9 L466.9 368.6 L469.1 368.6 L469.1 365.9 L469.1 363.1 L469.1 360.4 L466.9 360.4 L464.6 360.4 L462.3 360.4 L460.0 360.4 L457.7 360.4 L455.4 360.4 L453.1 360.4 L450.9 360.4 L448.6 360.4 L446.3 360.4 L444.0 360.4 L444.0 363.2 L444.0 365.9 L444.0 368.6 L444.0 371.3 L444.0 374.0 Z" fill="#2f8f83" fill-opacity="0.34" stroke="#0e5b52" stroke-width="1.6" />
  <path d="M462.3 384.8 L464.6 384.8 L466.9 384.8 L466.9 382.1 L466.9 379.4 L469.1 379.4 L469.1 376.7 L466.9 376.7 L464.6 376.7 L462.3 376.7 L460.0 376.7 L460.0 379.4 L462.3 379.4 L462.3 382.1 L460.0 382.1 L460.0 384.8 L462.3 384.8 Z" fill="#2f8f83" fill-opacity="0.34" stroke="#0e5b52" stroke-width="1.6" />
  <path d="M466.9 374.0 L466.9 376.7 L469.1 376.7 L471.4 376.7 L473.7 376.7 L476.0 376.7 L478.3 376.7 L480.6 376.7 L482.9 376.7 L485.2 376.7 L487.4 376.7 L487.4 379.4 L487.4 382.1 L487.4 384.8 L487.4 387.5 L487.4 390.2 L489.7 390.2 L492.0 390.1 L494.3 390.1 L496.6 390.1 L498.9 390.1 L501.2 390.1 L503.4 390.1 L505.7 390.1 L508.0 390.1 L508.0 387.5 L508.0 384.8 L508.0 382.1 L508.0 379.4 L508.0 376.7 L508.0 374.0 L508.0 371.3 L505.7 371.3 L503.4 371.3 L501.2 371.3 L498.9 371.3 L496.6 371.3 L494.3 371.3 L492.0 371.3 L489.7 371.3 L487.4 371.3 L487.4 368.6 L485.2 368.6 L482.9 368.6 L480.6 368.6 L478.3 368.6 L476.0 368.6 L473.7 368.6 L471.4 368.6 L469.1 368.6 L466.9 368.6 L466.9 371.3 L466.9 374.0 Z" fill="#2f8f83" fill-opacity="0.34" stroke="#0e5b52" stroke-width="1.6" />
  <path d="M489.7 395.5 L489.7 398.2 L492.0 398.2 L494.3 398.2 L496.6 398.2 L498.9 398.2 L501.2 398.2 L503.4 398.2 L505.7 398.2 L508.0 398.2 L510.3 398.2 L512.6 398.2 L514.9 398.2 L517.2 398.2 L519.4 398.2 L519.4 395.5 L519.4 392.8 L519.4 390.1 L519.4 387.5 L519.4 384.8 L519.4 382.1 L519.4 379.4 L519.4 376.7 L519.4 374.0 L519.4 371.3 L519.4 368.6 L517.2 368.6 L514.9 368.6 L512.6 368.6 L510.3 368.6 L508.0 368.6 L505.7 368.6 L503.4 368.6 L501.2 368.6 L498.9 368.6 L496.6 368.6 L494.3 368.6 L492.0 368.6 L489.7 368.6 L487.4 368.6 L487.4 371.3 L489.7 371.3 L492.0 371.3 L494.3 371.3 L496.6 371.3 L498.9 371.3 L501.2 371.3 L503.4 371.3 L505.7 371.3 L508.0 371.3 L508.0 374.0 L508.0 376.7 L508.0 379.4 L508.0 382.1 L508.0 384.8 L508.0 387.5 L508.0 390.1 L505.7 390.1 L503.4 390.1 L501.2 390.1 L498.9 390.1 L496.6 390.1 L494.3 390.1 L492.0 390.1 L489.7 390.2 L489.7 392.8 L489.7 395.5 Z" fill="#2f8f83" fill-opacity="0.34" stroke="#0e5b52" stroke-width="1.6" />
  <path d="M489.7 400.9 L489.7 403.6 L492.0 403.6 L492.0 400.9 L494.3 400.9 L496.6 400.9 L496.6 398.2 L494.3 398.2 L492.0 398.2 L489.7 398.2 L489.7 400.9 Z" fill="#2f8f83" fill-opacity="0.34" stroke="#0e5b52" stroke-width="1.6" />
  <path d="M448.6 328.0 L450.9 328.0 L453.1 328.0 L455.4 328.0 L457.7 328.0 L460.0 328.0 L462.3 328.0 L464.6 328.0 L466.9 328.0 L469.1 328.0 L471.4 328.0 L473.7 328.0 L476.0 328.0 L478.3 328.0 L480.6 328.0 L482.9 328.0 L485.2 328.0 L487.4 328.0 L489.7 328.0 L492.0 328.0 L492.0 325.3 L492.0 322.6 L489.7 322.6 L487.4 322.6 L485.2 322.6 L482.9 322.6 L480.6 322.6 L480.6 325.3 L478.3 325.3 L476.0 325.3 L473.7 325.3 L471.4 325.3 L469.1 325.3 L466.9 325.3 L464.6 325.3 L462.3 325.3 L460.0 325.3 L457.7 325.3 L455.4 325.3 L453.1 325.3 L450.9 325.3 L448.6 325.3 L446.3 325.3 L446.3 328.0 L448.6 328.0 Z" fill="#2f8f83" fill-opacity="0.34" stroke="#0e5b52" stroke-width="1.6" />
  <path d="M450.9 325.3 L453.1 325.3 L455.4 325.3 L457.7 325.3 L460.0 325.3 L462.3 325.3 L464.6 325.3 L466.9 325.3 L469.1 325.3 L471.4 325.3 L473.7 325.3 L476.0 325.3 L478.3 325.3 L480.6 325.3 L480.6 322.6 L482.9 322.6 L485.2 322.6 L487.4 322.6 L489.7 322.6 L492.0 322.6 L492.0 319.9 L489.7 319.9 L487.4 319.9 L485.2 319.9 L482.9 319.9 L480.6 319.9 L478.3 319.9 L476.0 319.9 L473.7 319.9 L471.4 319.9 L469.1 319.9 L466.9 319.9 L466.9 322.6 L464.6 322.6 L462.3 322.6 L460.0 322.6 L457.7 322.6 L455.4 322.6 L453.1 322.6 L450.9 322.6 L448.6 322.6 L448.6 325.3 L450.9 325.3 Z" fill="#2f8f83" fill-opacity="0.34" stroke="#0e5b52" stroke-width="1.6" />
  <path d="M418.8 344.2 L421.1 344.2 L423.4 344.2 L425.7 344.2 L425.7 341.5 L425.7 338.8 L425.7 336.1 L425.7 333.4 L423.4 333.4 L423.4 330.7 L423.4 328.0 L425.7 328.0 L428.0 328.0 L430.3 328.0 L432.6 328.0 L434.9 328.0 L437.1 328.0 L437.1 325.3 L434.9 325.3 L432.6 325.3 L430.3 325.3 L428.0 325.3 L425.7 325.3 L423.4 325.3 L421.1 325.3 L418.8 325.3 L418.8 328.0 L418.8 330.7 L418.8 333.4 L418.8 336.1 L418.8 338.8 L418.8 341.5 L416.6 341.5 L416.6 344.2 L418.8 344.2 Z" fill="#2f8f83" fill-opacity="0.34" stroke="#0e5b52" stroke-width="1.6" />
  <path d="M416.6 374.0 L416.6 376.7 L418.8 376.7 L421.1 376.7 L421.1 374.0 L421.1 371.3 L421.1 368.6 L421.1 365.9 L421.1 363.2 L421.1 360.4 L421.1 357.7 L421.1 355.0 L421.1 352.3 L421.1 349.6 L421.1 346.9 L423.4 346.9 L423.4 344.2 L421.1 344.2 L418.8 344.2 L416.6 344.2 L416.6 346.9 L416.6 349.6 L416.6 352.3 L416.6 355.0 L416.6 357.7 L416.6 360.5 L416.6 363.2 L416.6 365.9 L416.6 368.6 L416.6 371.3 L416.6 374.0 Z" fill="#2f8f83" fill-opacity="0.34" stroke="#0e5b52" stroke-width="1.6" />
  <path d="M421.1 357.7 L421.1 360.4 L423.4 360.4 L425.7 360.4 L428.0 360.4 L428.0 357.7 L428.0 355.0 L428.0 352.3 L428.0 349.6 L428.0 346.9 L428.0 344.2 L428.0 341.5 L428.0 338.8 L428.0 336.1 L428.0 333.4 L428.0 330.7 L428.0 328.0 L425.7 328.0 L423.4 328.0 L423.4 330.7 L423.4 333.4 L425.7 333.4 L425.7 336.1 L425.7 338.8 L425.7 341.5 L425.7 344.2 L423.4 344.2 L423.4 346.9 L421.1 346.9 L421.1 349.6 L421.1 352.3 L421.1 355.0 L421.1 357.7 Z" fill="#2f8f83" fill-opacity="0.34" stroke="#0e5b52" stroke-width="1.6" />
  <path d="M489.7 346.9 L492.0 346.9 L494.3 346.9 L494.3 344.2 L494.3 341.5 L494.3 338.8 L494.3 336.1 L492.0 336.1 L492.0 338.8 L492.0 341.5 L492.0 344.2 L489.7 344.2 L487.4 344.2 L487.4 346.9 L489.7 346.9 Z" fill="#2f8f83" fill-opacity="0.34" stroke="#0e5b52" stroke-width="1.6" />
  <path d="M489.7 349.6 L492.0 349.6 L494.3 349.6 L494.3 346.9 L492.0 346.9 L489.7 346.9 L487.4 346.9 L487.4 349.6 L489.7 349.6 Z" fill="#2f8f83" fill-opacity="0.34" stroke="#0e5b52" stroke-width="1.6" />
  <path d="M427.9 195.1 L427.9 197.8 L430.2 197.8 L430.2 200.5 L432.5 200.5 L434.8 200.5 L437.1 200.5 L439.4 200.5 L439.4 203.2 L439.4 206.0 L441.7 206.0 L443.9 206.0 L444.0 208.7 L446.2 208.7 L448.5 208.7 L450.8 208.7 L453.1 208.7 L455.4 208.7 L457.7 208.7 L459.9 208.7 L462.2 208.7 L462.2 206.0 L462.2 203.2 L462.2 200.5 L459.9 200.5 L457.7 200.5 L455.4 200.5 L453.1 200.5 L450.8 200.5 L448.5 200.5 L448.5 197.8 L448.5 195.1 L448.5 192.4 L448.5 189.6 L448.5 186.9 L448.5 184.2 L448.5 181.5 L446.2 181.5 L443.9 181.5 L441.6 181.5 L439.4 181.5 L437.1 181.5 L434.8 181.5 L434.8 184.2 L434.8 186.9 L434.8 189.6 L434.8 192.4 L432.5 192.4 L430.2 192.4 L427.9 192.4 L427.9 195.1 Z" fill="#2f8f83" fill-opacity="0.34" stroke="#0e5b52" stroke-width="1.6" />
  <path d="M476.0 238.6 L476.0 241.3 L478.3 241.3 L480.6 241.3 L482.9 241.3 L482.9 244.0 L482.9 246.7 L485.2 246.7 L485.2 249.4 L487.4 249.4 L489.7 249.4 L492.0 249.4 L492.0 252.1 L492.0 254.9 L492.0 257.6 L494.3 257.6 L496.6 257.6 L496.6 254.9 L496.6 252.1 L496.6 249.4 L496.6 246.7 L496.6 244.0 L496.6 241.3 L496.6 238.6 L496.6 235.9 L494.3 235.9 L492.0 235.9 L489.7 235.9 L487.4 235.9 L485.1 235.9 L482.8 235.9 L480.6 235.9 L478.3 235.9 L476.0 235.9 L476.0 238.6 Z" fill="#2f8f83" fill-opacity="0.34" stroke="#0e5b52" stroke-width="1.6" />
  <path d="M478.3 235.9 L480.6 235.9 L482.8 235.9 L485.1 235.9 L487.4 235.9 L489.7 235.9 L492.0 235.9 L494.3 235.9 L496.6 235.9 L496.6 233.1 L494.3 233.1 L492.0 233.1 L489.7 233.1 L487.4 233.1 L485.1 233.1 L482.8 233.1 L480.6 233.1 L478.3 233.1 L476.0 233.1 L476.0 235.9 L478.3 235.9 Z" fill="#2f8f83" fill-opacity="0.34" stroke="#0e5b52" stroke-width="1.6" />
  <path d="M471.4 246.7 L471.4 249.4 L473.7 249.4 L473.7 246.7 L476.0 246.7 L476.0 249.4 L478.3 249.4 L478.3 252.1 L478.3 254.9 L480.6 254.9 L482.9 254.9 L485.2 254.9 L485.2 257.6 L487.4 257.6 L489.7 257.6 L489.7 254.9 L489.7 252.1 L487.4 252.1 L485.2 252.1 L482.9 252.1 L482.9 249.4 L480.6 249.4 L480.6 246.7 L480.6 244.0 L478.3 244.0 L476.0 244.0 L473.7 244.0 L471.4 244.0 L471.4 246.7 Z" fill="#2f8f83" fill-opacity="0.34" stroke="#0e5b52" stroke-width="1.6" />
  <path d="M498.9 254.9 L498.9 257.6 L501.2 257.6 L503.4 257.6 L505.7 257.6 L505.7 254.9 L505.7 252.1 L505.7 249.4 L505.7 246.7 L505.7 244.0 L505.7 241.3 L503.4 241.3 L501.1 241.3 L498.9 241.3 L498.9 244.0 L498.9 246.7 L498.9 249.4 L498.9 252.1 L498.9 254.9 Z" fill="#2f8f83" fill-opacity="0.34" stroke="#0e5b52" stroke-width="1.6" />
  <path d="M498.8 230.4 L498.8 233.1 L501.1 233.1 L503.4 233.1 L505.7 233.1 L505.7 230.4 L505.7 227.7 L505.7 225.0 L505.7 222.3 L505.7 219.6 L503.4 219.6 L501.1 219.6 L498.8 219.6 L498.8 222.3 L498.8 225.0 L498.8 227.7 L498.8 230.4 Z" fill="#2f8f83" fill-opacity="0.34" stroke="#0e5b52" stroke-width="1.6" />
  <path d="M462.3 230.4 L462.3 233.1 L464.6 233.1 L466.8 233.1 L469.1 233.1 L471.4 233.1 L473.7 233.1 L476.0 233.1 L478.3 233.1 L480.6 233.1 L482.8 233.1 L485.1 233.1 L487.4 233.1 L489.7 233.1 L492.0 233.1 L494.3 233.1 L496.6 233.1 L496.6 230.4 L496.6 227.7 L494.3 227.7 L492.0 227.7 L489.7 227.7 L487.4 227.7 L487.4 225.0 L485.1 225.0 L482.8 225.0 L480.5 225.0 L478.3 225.0 L478.3 222.3 L478.3 219.6 L478.2 216.8 L476.0 216.8 L473.7 216.8 L471.4 216.8 L471.4 219.6 L469.1 219.6 L466.8 219.6 L464.5 219.6 L464.5 216.8 L466.8 216.8 L469.1 216.8 L469.1 214.1 L469.1 211.4 L466.8 211.4 L464.5 211.4 L462.2 211.4 L462.2 214.1 L462.2 216.8 L462.2 219.6 L462.3 222.3 L462.3 225.0 L462.3 227.7 L462.3 230.4 Z" fill="#2f8f83" fill-opacity="0.34" stroke="#0e5b52" stroke-width="1.6" />
  <path d="M505.7 227.7 L508.0 227.7 L508.0 225.0 L510.3 225.0 L512.6 225.0 L512.5 222.3 L512.5 219.6 L512.5 216.8 L512.5 214.1 L512.5 211.4 L512.5 208.7 L512.5 206.0 L514.8 206.0 L517.1 206.0 L519.4 206.0 L519.4 203.2 L517.1 203.2 L517.1 200.5 L517.1 197.8 L519.4 197.8 L521.7 197.8 L521.7 200.5 L521.7 203.2 L521.7 206.0 L524.0 206.0 L526.2 206.0 L526.2 203.2 L528.5 203.2 L530.8 203.2 L530.8 200.5 L530.8 197.8 L530.8 195.1 L530.8 192.4 L530.8 189.6 L530.8 186.9 L530.8 184.2 L530.8 181.5 L530.8 178.8 L528.5 178.8 L526.2 178.8 L523.9 178.8 L521.6 178.8 L519.4 178.8 L519.4 181.5 L519.4 184.2 L519.4 186.9 L519.4 189.6 L517.1 189.6 L514.8 189.6 L512.5 189.6 L510.2 189.6 L507.9 189.6 L505.6 189.6 L505.6 192.4 L505.6 195.1 L505.7 197.8 L505.7 200.5 L505.7 203.2 L505.7 206.0 L505.7 208.7 L505.7 211.4 L505.7 214.1 L505.7 216.8 L505.7 219.6 L505.7 222.3 L505.7 225.0 L505.7 227.7 Z M521.6 195.1 L521.6 192.4 L523.9 192.4 L523.9 195.1 L521.6 195.1 Z" fill="#2f8f83" fill-opacity="0.34" stroke="#0e5b52" stroke-width="1.6" />
  <path d="M528.5 206.0 L530.8 206.0 L533.1 206.0 L535.4 206.0 L537.7 206.0 L540.0 206.0 L540.0 203.2 L542.2 203.2 L544.5 203.2 L546.8 203.2 L549.1 203.2 L551.4 203.2 L553.7 203.2 L556.0 203.2 L558.2 203.2 L560.5 203.2 L562.8 203.2 L565.1 203.2 L567.4 203.2 L569.7 203.2 L569.7 200.5 L569.7 197.8 L567.4 197.8 L565.1 197.8 L562.8 197.8 L560.5 197.8 L558.2 197.8 L558.2 195.1 L558.2 192.4 L558.2 189.6 L558.2 186.9 L558.2 184.2 L558.2 181.5 L555.9 181.5 L553.7 181.5 L551.4 181.5 L551.4 178.8 L549.1 178.8 L549.1 181.5 L549.1 184.2 L551.4 184.2 L553.7 184.2 L553.7 186.9 L553.7 189.6 L553.7 192.4 L551.4 192.4 L549.1 192.4 L546.8 192.4 L544.5 192.4 L544.5 189.6 L542.2 189.6 L542.2 186.9 L539.9 186.9 L539.9 184.2 L542.2 184.2 L544.5 184.2 L544.5 181.5 L546.8 181.5 L546.8 178.8 L546.8 176.0 L544.5 176.0 L544.5 178.8 L542.2 178.8 L539.9 178.8 L537.6 178.8 L535.4 178.8 L533.1 178.8 L530.8 178.8 L530.8 181.5 L530.8 184.2 L530.8 186.9 L530.8 189.6 L530.8 192.4 L530.8 195.1 L530.8 197.8 L530.8 200.5 L530.8 203.2 L528.5 203.2 L526.2 203.2 L526.2 206.0 L528.5 206.0 Z M544.5 197.8 L544.5 195.1 L546.8 195.1 L549.1 195.1 L549.1 197.8 L549.1 200.5 L546.8 200.5 L544.5 200.5 L544.5 197.8 Z" fill="#2f8f83" fill-opacity="0.34" stroke="#0e5b52" stroke-width="1.6" />
  <path d="M517.1 216.8 L517.1 219.6 L519.4 219.6 L521.7 219.6 L524.0 219.6 L526.3 219.6 L528.5 219.6 L530.8 219.6 L533.1 219.6 L533.1 216.8 L535.4 216.8 L537.7 216.8 L540.0 216.8 L542.3 216.8 L544.5 216.8 L546.8 216.8 L549.1 216.8 L551.4 216.8 L553.7 216.8 L556.0 216.8 L558.3 216.8 L560.6 216.8 L562.8 216.8 L562.8 214.1 L562.8 211.4 L565.1 211.4 L565.1 208.7 L567.4 208.7 L569.7 208.7 L569.7 206.0 L569.7 203.2 L567.4 203.2 L565.1 203.2 L562.8 203.2 L560.5 203.2 L558.2 203.2 L556.0 203.2 L553.7 203.2 L551.4 203.2 L549.1 203.2 L546.8 203.2 L544.5 203.2 L542.2 203.2 L540.0 203.2 L540.0 206.0 L537.7 206.0 L535.4 206.0 L533.1 206.0 L530.8 206.0 L528.5 206.0 L526.2 206.0 L524.0 206.0 L521.7 206.0 L521.7 208.7 L521.7 211.4 L519.4 211.4 L517.1 211.4 L517.1 214.1 L517.1 216.8 Z" fill="#2f8f83" fill-opacity="0.34" stroke="#0e5b52" stroke-width="1.6" />
  <path d="M517.1 227.7 L517.1 230.4 L519.4 230.4 L519.4 233.1 L519.4 235.9 L521.7 235.9 L524.0 235.9 L526.3 235.9 L528.6 235.9 L530.9 235.9 L533.1 235.9 L535.4 235.9 L537.7 235.9 L540.0 235.9 L542.3 235.9 L544.6 235.9 L546.9 235.9 L549.2 235.9 L551.4 235.9 L551.4 233.1 L551.4 230.4 L551.4 227.7 L553.7 227.7 L553.7 225.0 L553.7 222.3 L553.7 219.6 L553.7 216.8 L551.4 216.8 L549.1 216.8 L546.8 216.8 L544.5 216.8 L542.3 216.8 L540.0 216.8 L537.7 216.8 L535.4 216.8 L533.1 216.8 L533.1 219.6 L530.8 219.6 L528.5 219.6 L526.3 219.6 L524.0 219.6 L521.7 219.6 L519.4 219.6 L517.1 219.6 L517.1 222.3 L517.1 225.0 L517.1 227.7 Z" fill="#2f8f83" fill-opacity="0.34" stroke="#0e5b52" stroke-width="1.6" />
  <path d="M551.4 235.9 L553.7 235.9 L556.0 235.9 L556.0 238.6 L558.3 238.6 L560.6 238.6 L562.9 238.6 L565.2 238.6 L565.2 235.9 L565.2 233.1 L567.4 233.1 L569.7 233.1 L569.7 230.4 L569.7 227.7 L572.0 227.7 L574.3 227.7 L574.3 230.4 L574.3 233.1 L576.6 233.1 L578.9 233.1 L578.9 230.4 L581.2 230.4 L583.4 230.4 L583.4 227.7 L583.4 225.0 L585.7 225.0 L588.0 225.0 L588.0 227.7 L590.3 227.7 L590.3 225.0 L590.3 222.3 L590.3 219.6 L588.0 219.6 L585.7 219.6 L583.4 219.6 L581.1 219.6 L578.8 219.6 L576.6 219.6 L574.3 219.6 L572.0 219.6 L572.0 222.3 L569.7 222.3 L567.4 222.3 L567.4 219.6 L567.4 216.8 L565.1 216.8 L562.8 216.8 L560.6 216.8 L558.3 216.8 L556.0 216.8 L553.7 216.8 L553.7 219.6 L553.7 222.3 L553.7 225.0 L553.7 227.7 L551.4 227.7 L551.4 230.4 L551.4 233.1 L551.4 235.9 Z" fill="#2f8f83" fill-opacity="0.34" stroke="#0e5b52" stroke-width="1.6" />
  <path d="M498.9 263.0 L498.9 265.7 L501.2 265.7 L503.4 265.7 L505.7 265.7 L508.0 265.7 L508.0 268.4 L510.3 268.4 L512.6 268.4 L514.9 268.4 L517.2 268.4 L519.4 268.4 L521.7 268.4 L524.0 268.4 L526.3 268.4 L528.6 268.4 L530.9 268.4 L533.2 268.4 L535.5 268.4 L537.7 268.4 L540.0 268.4 L542.3 268.4 L544.6 268.4 L546.9 268.4 L549.2 268.4 L551.5 268.4 L553.7 268.4 L556.0 268.4 L558.3 268.4 L560.6 268.4 L562.9 268.4 L565.2 268.4 L567.5 268.4 L567.5 265.7 L567.5 263.0 L565.2 263.0 L565.2 265.7 L562.9 265.7 L560.6 265.7 L560.6 263.0 L558.3 263.0 L556.0 263.0 L556.0 260.3 L553.7 260.3 L551.5 260.3 L549.2 260.3 L546.9 260.3 L546.9 257.6 L544.6 257.6 L542.3 257.6 L540.0 257.6 L537.7 257.6 L535.5 257.6 L533.2 257.6 L530.9 257.6 L528.6 257.6 L526.3 257.6 L524.0 257.6 L521.7 257.6 L519.4 257.6 L517.2 257.6 L514.9 257.6 L512.6 257.6 L510.3 257.6 L508.0 257.6 L505.7 257.6 L503.4 257.6 L501.2 257.6 L498.9 257.6 L498.9 260.3 L498.9 263.0 Z" fill="#2f8f83" fill-opacity="0.34" stroke="#0e5b52" stroke-width="1.6" />
  <path d="M505.7 254.9 L505.7 257.6 L508.0 257.6 L510.3 257.6 L512.6 257.6 L514.9 257.6 L517.2 257.6 L519.4 257.6 L521.7 257.6 L524.0 257.6 L526.3 257.6 L528.6 257.6 L530.9 257.6 L533.2 257.6 L535.5 257.6 L537.7 257.6 L540.0 257.6 L542.3 257.6 L544.6 257.6 L546.9 257.6 L546.9 260.3 L549.2 260.3 L551.5 260.3 L553.7 260.3 L556.0 260.3 L556.0 257.6 L553.7 257.6 L553.7 254.9 L551.5 254.9 L551.5 252.1 L549.2 252.1 L546.9 252.1 L544.6 252.1 L542.3 252.1 L540.0 252.1 L537.7 252.1 L535.5 252.1 L533.2 252.1 L530.9 252.1 L530.9 249.4 L528.6 249.4 L528.6 246.7 L526.3 246.7 L524.0 246.7 L524.0 244.0 L524.0 241.3 L521.7 241.3 L519.4 241.3 L517.2 241.3 L514.9 241.3 L514.9 238.6 L512.6 238.6 L512.6 235.9 L512.6 233.1 L512.6 230.4 L512.6 227.7 L512.6 225.0 L510.3 225.0 L508.0 225.0 L508.0 227.7 L505.7 227.7 L505.7 230.4 L505.7 233.1 L505.7 235.9 L505.7 238.6 L505.7 241.3 L505.7 244.0 L505.7 246.7 L505.7 249.4 L505.7 252.1 L505.7 254.9 Z" fill="#2f8f83" fill-opacity="0.34" stroke="#0e5b52" stroke-width="1.6" />
  <path d="M485.1 211.4 L485.1 214.1 L487.4 214.1 L489.7 214.1 L492.0 214.1 L492.0 216.8 L492.0 219.6 L494.3 219.6 L496.5 219.6 L498.8 219.6 L501.1 219.6 L503.4 219.6 L505.7 219.6 L505.7 216.8 L505.7 214.1 L505.7 211.4 L505.7 208.7 L503.4 208.7 L501.1 208.7 L498.8 208.7 L496.5 208.7 L494.2 208.7 L492.0 208.7 L489.7 208.7 L487.4 208.7 L485.1 208.7 L485.1 211.4 Z" fill="#2f8f83" fill-opacity="0.34" stroke="#0e5b52" stroke-width="1.6" />
  <path d="M498.9 238.6 L498.9 241.3 L501.1 241.3 L503.4 241.3 L505.7 241.3 L505.7 238.6 L505.7 235.9 L505.7 233.1 L503.4 233.1 L501.1 233.1 L498.8 233.1 L498.9 235.9 L498.9 238.6 Z" fill="#2f8f83" fill-opacity="0.34" stroke="#0e5b52" stroke-width="1.6" />
  <path d="M592.6 214.1 L592.6 216.8 L594.9 216.8 L597.1 216.8 L597.1 219.6 L597.1 222.3 L597.1 225.0 L597.2 227.7 L599.4 227.7 L599.4 230.4 L599.4 233.1 L599.5 235.9 L599.5 238.6 L601.7 238.6 L604.0 238.6 L606.3 238.6 L606.3 235.9 L608.6 235.9 L610.9 235.9 L613.2 235.9 L615.5 235.9 L617.7 235.9 L617.7 233.1 L617.7 230.4 L617.7 227.7 L617.7 225.0 L617.7 222.3 L617.7 219.6 L617.7 216.8 L617.7 214.1 L617.7 211.4 L617.7 208.7 L615.4 208.7 L613.1 208.7 L610.8 208.7 L608.6 208.7 L606.3 208.7 L604.0 208.7 L601.7 208.7 L601.7 206.0 L599.4 206.0 L597.1 206.0 L594.8 206.0 L592.5 206.0 L592.6 208.7 L592.6 211.4 L592.6 214.1 Z" fill="#2f8f83" fill-opacity="0.34" stroke="#0e5b52" stroke-width="1.6" />
  <path d="M592.5 203.2 L592.5 206.0 L594.8 206.0 L597.1 206.0 L599.4 206.0 L601.7 206.0 L601.7 208.7 L604.0 208.7 L606.3 208.7 L608.6 208.7 L610.8 208.7 L613.1 208.7 L615.4 208.7 L617.7 208.7 L617.7 206.0 L617.7 203.2 L617.7 200.5 L617.7 197.8 L617.7 195.1 L617.7 192.4 L617.7 189.6 L617.7 186.9 L617.7 184.2 L617.7 181.5 L617.7 178.8 L617.7 176.0 L617.7 173.3 L617.7 170.6 L617.7 167.9 L615.4 167.9 L613.1 167.9 L610.8 167.9 L608.5 167.9 L608.5 165.1 L606.2 165.1 L604.0 165.1 L601.7 165.1 L599.4 165.1 L597.1 165.1 L597.1 167.9 L599.4 167.9 L601.7 167.9 L604.0 167.9 L604.0 170.6 L604.0 173.3 L606.2 173.3 L608.5 173.3 L610.8 173.3 L610.8 176.0 L610.8 178.8 L610.8 181.5 L610.8 184.2 L610.8 186.9 L610.8 189.6 L610.8 192.4 L608.5 192.4 L606.3 192.4 L604.0 192.4 L601.7 192.4 L599.4 192.4 L597.1 192.4 L594.8 192.4 L592.5 192.4 L592.5 195.1 L592.5 197.8 L592.5 200.5 L592.5 203.2 Z" fill="#2f8f83" fill-opacity="0.34" stroke="#0e5b52" stroke-width="1.6" />
  <path d="M581.1 157.0 L581.1 159.7 L583.4 159.7 L585.7 159.7 L585.7 162.4 L587.9 162.4 L587.9 165.2 L590.2 165.2 L592.5 165.2 L594.8 165.2 L597.1 165.1 L599.4 165.1 L601.7 165.1 L604.0 165.1 L606.2 165.1 L608.5 165.1 L608.5 167.9 L610.8 167.9 L613.1 167.9 L615.4 167.9 L617.7 167.9 L617.7 165.1 L617.7 162.4 L617.7 159.7 L617.7 157.0 L617.7 154.3 L617.7 151.5 L617.7 148.8 L615.4 148.8 L613.1 148.8 L610.8 148.8 L608.5 148.8 L606.2 148.8 L603.9 148.8 L601.7 148.8 L599.4 148.8 L597.1 148.8 L594.8 148.8 L592.5 148.8 L592.5 146.1 L590.2 146.1 L587.9 146.1 L585.7 146.1 L583.4 146.1 L581.1 146.1 L581.1 148.8 L581.1 151.5 L581.1 154.3 L581.1 157.0 Z" fill="#2f8f83" fill-opacity="0.34" stroke="#0e5b52" stroke-width="1.6" />
  <path d="M576.5 143.4 L576.5 146.1 L578.8 146.1 L581.1 146.1 L583.4 146.1 L585.7 146.1 L587.9 146.1 L590.2 146.1 L592.5 146.1 L592.5 148.8 L594.8 148.8 L597.1 148.8 L599.4 148.8 L601.7 148.8 L603.9 148.8 L606.2 148.8 L606.2 146.1 L603.9 146.1 L603.9 143.4 L603.9 140.6 L603.9 137.9 L603.9 135.2 L601.7 135.2 L601.7 132.5 L599.4 132.5 L597.1 132.5 L597.1 129.7 L594.8 129.7 L594.8 127.0 L592.5 127.0 L592.5 124.3 L590.2 124.3 L590.2 121.5 L587.9 121.5 L587.9 118.8 L585.7 118.8 L583.4 118.8 L581.1 118.8 L578.8 118.8 L576.5 118.8 L576.5 121.5 L576.5 124.3 L576.5 127.0 L576.5 129.7 L576.5 132.5 L576.5 135.2 L576.5 137.9 L576.5 140.6 L576.5 143.4 Z" fill="#2f8f83" fill-opacity="0.34" stroke="#0e5b52" stroke-width="1.6" />
  <path d="M603.9 146.1 L606.2 146.1 L606.2 148.8 L608.5 148.8 L610.8 148.8 L613.1 148.8 L615.4 148.8 L615.4 146.1 L613.1 146.1 L613.1 143.4 L610.8 143.4 L610.8 140.6 L610.8 137.9 L608.5 137.9 L606.2 137.9 L603.9 137.9 L603.9 140.6 L603.9 143.4 L603.9 146.1 Z" fill="#2f8f83" fill-opacity="0.34" stroke="#0e5b52" stroke-width="1.6" />
  <path d="M501.2 317.2 L501.2 319.9 L503.4 319.9 L505.7 319.9 L508.0 319.9 L510.3 319.9 L512.6 319.9 L514.9 319.9 L517.2 319.9 L519.4 319.9 L519.4 317.2 L517.2 317.2 L514.9 317.2 L512.6 317.2 L510.3 317.2 L508.0 317.2 L508.0 314.5 L508.0 311.8 L508.0 309.1 L508.0 306.4 L508.0 303.6 L508.0 300.9 L508.0 298.2 L505.7 298.2 L503.4 298.2 L501.2 298.2 L501.2 300.9 L501.2 303.6 L501.2 306.4 L501.2 309.1 L501.2 311.8 L501.2 314.5 L501.2 317.2 Z" fill="#2f8f83" fill-opacity="0.34" stroke="#0e5b52" stroke-width="1.6" />
  <path d="M391.4 241.3 L391.4 244.0 L393.7 244.0 L393.7 246.7 L396.0 246.7 L396.0 249.4 L398.3 249.4 L398.3 252.1 L400.6 252.1 L400.6 254.9 L402.8 254.9 L402.8 257.6 L405.1 257.6 L407.4 257.6 L407.4 260.3 L409.7 260.3 L409.7 263.0 L412.0 263.0 L412.0 265.7 L414.3 265.7 L414.3 268.4 L416.6 268.4 L416.6 271.1 L418.8 271.1 L421.1 271.1 L421.1 273.8 L423.4 273.8 L423.4 276.6 L425.7 276.6 L428.0 276.6 L428.0 279.3 L430.3 279.3 L430.3 282.0 L432.6 282.0 L434.9 282.0 L434.9 279.3 L434.9 276.6 L434.9 273.8 L434.9 271.1 L437.1 271.1 L437.1 268.4 L434.9 268.4 L432.6 268.4 L430.3 268.4 L428.0 268.4 L428.0 265.7 L425.7 265.7 L423.4 265.7 L421.1 265.7 L421.1 263.0 L421.1 260.3 L421.1 257.6 L418.8 257.6 L416.6 257.6 L416.6 254.9 L414.3 254.9 L414.3 252.1 L414.3 249.4 L414.3 246.7 L414.3 244.0 L412.0 244.0 L412.0 241.3 L409.7 241.3 L407.4 241.3 L407.4 238.6 L405.1 238.6 L402.8 238.6 L400.6 238.6 L400.6 235.9 L398.3 235.9 L398.3 238.6 L396.0 238.6 L393.7 238.6 L391.4 238.6 L389.1 238.6 L389.1 241.3 L391.4 241.3 Z" fill="#2f8f83" fill-opacity="0.34" stroke="#0e5b52" stroke-width="1.6" />
  <path d="M382.3 241.3 L382.3 244.0 L384.6 244.0 L386.8 244.0 L386.8 246.7 L386.8 249.4 L386.8 252.1 L386.8 254.9 L386.8 257.6 L389.1 257.6 L391.4 257.6 L393.7 257.6 L396.0 257.6 L398.3 257.6 L400.6 257.6 L402.8 257.6 L402.8 254.9 L400.6 254.9 L400.6 252.1 L398.3 252.1 L398.3 249.4 L396.0 249.4 L396.0 246.7 L393.7 246.7 L393.7 244.0 L391.4 244.0 L391.4 241.3 L389.1 241.3 L389.1 238.6 L386.8 238.6 L384.5 238.6 L382.3 238.6 L382.3 241.3 Z" fill="#2f8f83" fill-opacity="0.34" stroke="#0e5b52" stroke-width="1.6" />
  <path d="M386.8 260.3 L386.8 263.0 L389.1 263.0 L389.1 265.7 L391.4 265.7 L393.7 265.7 L393.7 268.4 L393.7 271.1 L393.7 273.8 L393.7 276.6 L396.0 276.6 L398.3 276.6 L398.3 279.3 L398.3 282.0 L400.6 282.0 L402.8 282.0 L405.1 282.0 L407.4 282.0 L409.7 282.0 L412.0 282.0 L414.3 282.0 L416.6 282.0 L418.8 282.0 L421.1 282.0 L423.4 282.0 L425.7 282.0 L428.0 282.0 L430.3 282.0 L430.3 279.3 L428.0 279.3 L428.0 276.6 L425.7 276.6 L423.4 276.6 L423.4 273.8 L421.1 273.8 L421.1 271.1 L418.8 271.1 L416.6 271.1 L416.6 268.4 L414.3 268.4 L414.3 265.7 L412.0 265.7 L412.0 263.0 L409.7 263.0 L409.7 260.3 L407.4 260.3 L407.4 257.6 L405.1 257.6 L402.8 257.6 L400.6 257.6 L398.3 257.6 L396.0 257.6 L393.7 257.6 L391.4 257.6 L389.1 257.6 L386.8 257.6 L386.8 260.3 Z" fill="#2f8f83" fill-opacity="0.34" stroke="#0e5b52" stroke-width="1.6" />
  <path d="M434.9 287.4 L434.9 290.1 L437.1 290.1 L439.4 290.1 L441.7 290.1 L444.0 290.1 L446.3 290.1 L446.3 292.8 L448.6 292.8 L450.9 292.8 L453.1 292.8 L455.4 292.8 L455.4 290.1 L455.4 287.4 L455.4 284.7 L453.1 284.7 L450.9 284.7 L448.6 284.7 L448.6 282.0 L446.3 282.0 L444.0 282.0 L441.7 282.0 L441.7 284.7 L439.4 284.7 L437.1 284.7 L434.9 284.7 L434.9 287.4 Z" fill="#2f8f83" fill-opacity="0.34" stroke="#0e5b52" stroke-width="1.6" />
  <path d="M519.4 417.1 L519.4 419.8 L521.7 419.8 L524.0 419.8 L526.3 419.8 L526.3 417.1 L526.3 414.4 L526.3 411.7 L528.6 411.7 L528.6 409.0 L528.6 406.3 L528.6 403.6 L528.6 400.9 L528.6 398.2 L528.6 395.5 L528.6 392.8 L526.3 392.8 L526.3 390.1 L526.3 387.4 L526.3 384.8 L526.3 382.1 L524.0 382.1 L524.0 379.4 L521.7 379.4 L519.4 379.4 L519.4 382.1 L519.4 384.8 L519.4 387.5 L519.4 390.1 L519.4 392.8 L519.4 395.5 L519.4 398.2 L519.4 400.9 L519.4 403.6 L519.4 406.3 L519.4 409.0 L519.4 411.7 L519.4 414.4 L519.4 417.1 Z" fill="#2f8f83" fill-opacity="0.34" stroke="#0e5b52" stroke-width="1.6" />
  <path d="M519.4 360.4 L519.4 363.1 L521.7 363.1 L524.0 363.1 L526.3 363.1 L528.6 363.1 L530.9 363.1 L530.9 360.4 L530.9 357.7 L530.9 355.0 L530.9 352.3 L528.6 352.3 L526.3 352.3 L524.0 352.3 L521.7 352.3 L519.4 352.3 L519.4 355.0 L519.4 357.7 L519.4 360.4 Z" fill="#2f8f83" fill-opacity="0.34" stroke="#0e5b52" stroke-width="1.6" />
  <path d="M494.3 403.6 L496.6 403.6 L498.9 403.6 L501.2 403.6 L503.4 403.6 L505.7 403.6 L508.0 403.6 L510.3 403.6 L512.6 403.6 L514.9 403.6 L517.2 403.6 L519.4 403.6 L519.4 400.9 L519.4 398.2 L517.2 398.2 L514.9 398.2 L512.6 398.2 L510.3 398.2 L508.0 398.2 L505.7 398.2 L503.4 398.2 L501.2 398.2 L498.9 398.2 L496.6 398.2 L496.6 400.9 L494.3 400.9 L492.0 400.9 L492.0 403.6 L494.3 403.6 Z" fill="#2f8f83" fill-opacity="0.34" stroke="#0e5b52" stroke-width="1.6" />
  <path d="M466.9 427.9 L466.9 430.6 L469.1 430.6 L471.4 430.6 L473.7 430.6 L476.0 430.6 L478.3 430.6 L480.6 430.6 L482.9 430.6 L485.2 430.6 L487.4 430.6 L489.7 430.6 L492.0 430.6 L494.3 430.6 L496.6 430.6 L498.9 430.6 L501.2 430.6 L503.4 430.6 L503.4 433.3 L505.7 433.3 L508.0 433.3 L508.0 436.0 L510.3 436.0 L512.6 436.0 L514.9 436.0 L517.2 436.0 L519.4 436.0 L521.7 436.0 L524.0 436.0 L526.3 436.0 L526.3 438.7 L528.6 438.7 L530.9 438.7 L530.9 436.0 L530.9 433.3 L528.6 433.3 L526.3 433.3 L524.0 433.3 L521.7 433.3 L519.4 433.3 L517.2 433.3 L514.9 433.3 L512.6 433.3 L512.6 430.6 L512.6 427.9 L512.6 425.2 L512.6 422.5 L512.6 419.8 L510.3 419.8 L508.0 419.8 L505.7 419.8 L503.4 419.8 L501.2 419.8 L498.9 419.8 L496.6 419.8 L494.3 419.8 L492.0 419.8 L489.7 419.8 L487.4 419.8 L485.2 419.8 L482.9 419.8 L480.6 419.8 L478.3 419.8 L476.0 419.8 L473.7 419.8 L471.4 419.8 L469.1 419.8 L466.9 419.8 L466.9 422.5 L466.9 425.2 L466.9 427.9 Z" fill="#2f8f83" fill-opacity="0.34" stroke="#0e5b52" stroke-width="1.6" />
  <path d="M446.3 309.1 L446.3 311.8 L448.6 311.8 L448.6 314.5 L448.6 317.2 L450.9 317.2 L453.1 317.2 L455.4 317.2 L457.7 317.2 L460.0 317.2 L462.3 317.2 L462.3 319.9 L464.6 319.9 L466.9 319.9 L469.1 319.9 L471.4 319.9 L473.7 319.9 L476.0 319.9 L478.3 319.9 L478.3 317.2 L476.0 317.2 L473.7 317.2 L473.7 314.5 L471.4 314.5 L469.1 314.5 L469.1 311.8 L466.9 311.8 L464.6 311.8 L464.6 309.1 L462.3 309.1 L460.0 309.1 L460.0 306.4 L457.7 306.4 L455.4 306.4 L455.4 303.6 L453.1 303.6 L450.9 303.6 L450.9 300.9 L448.6 300.9 L446.3 300.9 L446.3 303.6 L446.3 306.4 L446.3 309.1 Z" fill="#2f8f83" fill-opacity="0.34" stroke="#0e5b52" stroke-width="1.6" />
  <path d="M428.0 346.9 L428.0 349.6 L430.3 349.6 L432.6 349.6 L434.9 349.6 L437.1 349.6 L439.4 349.6 L441.7 349.6 L444.0 349.6 L446.3 349.6 L448.6 349.6 L450.9 349.6 L453.1 349.6 L455.4 349.6 L457.7 349.6 L460.0 349.6 L462.3 349.6 L462.3 346.9 L462.3 344.2 L462.3 341.5 L462.3 338.8 L460.0 338.8 L457.7 338.8 L457.7 336.1 L457.7 333.4 L457.7 330.7 L455.4 330.7 L453.1 330.7 L450.9 330.7 L448.6 330.7 L446.3 330.7 L444.0 330.7 L441.7 330.7 L439.4 330.7 L437.1 330.7 L434.9 330.7 L432.6 330.7 L430.3 330.7 L428.0 330.7 L428.0 333.4 L428.0 336.1 L428.0 338.8 L428.0 341.5 L428.0 344.2 L428.0 346.9 Z" fill="#2f8f83" fill-opacity="0.34" stroke="#0e5b52" stroke-width="1.6" />
  <path d="M421.1 365.9 L421.1 368.6 L423.4 368.6 L425.7 368.6 L428.0 368.6 L430.3 368.6 L432.6 368.6 L434.9 368.6 L437.1 368.6 L439.4 368.6 L441.7 368.6 L444.0 368.6 L444.0 365.9 L444.0 363.2 L444.0 360.4 L446.3 360.4 L448.6 360.4 L450.9 360.4 L453.1 360.4 L455.4 360.4 L457.7 360.4 L460.0 360.4 L462.3 360.4 L464.6 360.4 L466.9 360.4 L466.9 357.7 L466.9 355.0 L464.6 355.0 L462.3 355.0 L462.3 352.3 L462.3 349.6 L460.0 349.6 L457.7 349.6 L455.4 349.6 L453.1 349.6 L450.9 349.6 L448.6 349.6 L446.3 349.6 L444.0 349.6 L441.7 349.6 L439.4 349.6 L437.1 349.6 L434.9 349.6 L432.6 349.6 L430.3 349.6 L428.0 349.6 L428.0 352.3 L428.0 355.0 L428.0 357.7 L428.0 360.4 L425.7 360.4 L423.4 360.4 L421.1 360.4 L421.1 363.2 L421.1 365.9 Z" fill="#2f8f83" fill-opacity="0.34" stroke="#0e5b52" stroke-width="1.6" />
  <path d="M421.1 374.0 L421.1 376.7 L423.4 376.7 L425.7 376.7 L428.0 376.7 L430.3 376.7 L432.6 376.7 L434.9 376.7 L437.1 376.7 L439.4 376.7 L441.7 376.7 L444.0 376.7 L444.0 374.0 L444.0 371.3 L444.0 368.6 L441.7 368.6 L439.4 368.6 L437.1 368.6 L434.9 368.6 L432.6 368.6 L430.3 368.6 L428.0 368.6 L425.7 368.6 L423.4 368.6 L421.1 368.6 L421.1 371.3 L421.1 374.0 Z" fill="#2f8f83" fill-opacity="0.34" stroke="#0e5b52" stroke-width="1.6" />
  <path d="M466.9 417.1 L466.9 419.8 L469.1 419.8 L471.4 419.8 L473.7 419.8 L473.7 417.1 L473.7 414.4 L473.7 411.7 L473.7 409.0 L473.7 406.3 L473.7 403.6 L471.4 403.6 L469.1 403.6 L466.9 403.6 L466.9 406.3 L466.9 409.0 L466.9 411.7 L466.9 414.4 L466.9 417.1 Z" fill="#2f8f83" fill-opacity="0.34" stroke="#0e5b52" stroke-width="1.6" />
  <path d="M418.9 398.2 L421.1 398.2 L423.4 398.2 L425.7 398.2 L425.7 400.9 L425.7 403.6 L428.0 403.6 L428.0 406.3 L430.3 406.3 L430.3 409.0 L432.6 409.0 L434.9 409.0 L437.1 409.0 L439.4 409.0 L441.7 409.0 L444.0 409.0 L446.3 409.0 L448.6 409.0 L450.9 409.0 L453.1 409.0 L453.1 406.3 L453.1 403.6 L453.1 400.9 L453.1 398.2 L450.9 398.2 L450.9 395.5 L450.9 392.8 L450.9 390.2 L450.9 387.5 L448.6 387.5 L448.6 384.8 L448.6 382.1 L448.6 379.4 L450.9 379.4 L450.9 376.7 L453.1 376.7 L453.1 374.0 L450.9 374.0 L450.9 371.3 L453.1 371.3 L453.1 368.6 L455.4 368.6 L455.4 371.3 L455.4 374.0 L455.4 376.7 L457.7 376.7 L457.7 374.0 L457.7 371.3 L457.7 368.6 L457.7 365.9 L457.7 363.2 L455.4 363.2 L453.1 363.2 L450.9 363.2 L448.6 363.2 L446.3 363.2 L446.3 365.9 L446.3 368.6 L446.3 371.3 L446.3 374.0 L446.3 376.7 L446.3 379.4 L446.3 382.1 L446.3 384.8 L446.3 387.5 L446.3 390.2 L446.3 392.8 L446.3 395.5 L446.3 398.2 L446.3 400.9 L446.3 403.6 L446.3 406.3 L444.0 406.3 L441.7 406.3 L441.7 403.6 L439.4 403.6 L439.4 400.9 L439.4 398.2 L439.4 395.5 L439.4 392.9 L437.1 392.9 L434.9 392.9 L432.6 392.9 L430.3 392.9 L428.0 392.9 L425.7 392.9 L423.4 392.9 L421.1 392.9 L418.9 392.9 L418.9 395.5 L418.9 398.2 Z" fill="#2f8f83" fill-opacity="0.34" stroke="#0e5b52" stroke-width="1.6" />
  <path d="M418.9 436.0 L421.1 436.0 L423.4 436.0 L425.7 436.0 L428.0 436.0 L428.0 438.7 L430.3 438.7 L432.6 438.7 L434.9 438.7 L437.1 438.7 L439.4 438.7 L441.7 438.7 L444.0 438.7 L444.0 441.4 L444.0 444.1 L444.0 446.8 L444.0 449.5 L444.0 452.1 L446.3 452.1 L448.6 452.1 L450.9 452.1 L453.1 452.1 L455.4 452.1 L457.7 452.1 L457.7 449.5 L457.7 446.8 L455.4 446.8 L455.4 444.1 L455.4 441.4 L453.1 441.4 L453.1 438.7 L453.1 436.0 L453.1 433.3 L455.4 433.3 L455.4 430.6 L455.4 427.9 L453.1 427.9 L453.1 425.2 L453.1 422.5 L450.9 422.5 L450.9 419.8 L450.9 417.1 L450.9 414.4 L450.9 411.7 L450.9 409.0 L448.6 409.0 L446.3 409.0 L444.0 409.0 L441.7 409.0 L439.4 409.0 L437.1 409.0 L434.9 409.0 L434.9 411.7 L437.1 411.7 L437.1 414.4 L439.4 414.4 L441.7 414.4 L441.7 417.1 L444.0 417.1 L444.0 419.8 L444.0 422.5 L444.0 425.2 L446.3 425.2 L446.3 427.9 L446.3 430.6 L444.0 430.6 L441.7 430.6 L439.4 430.6 L437.1 430.6 L434.9 430.6 L432.6 430.6 L430.3 430.6 L428.0 430.6 L428.0 433.3 L425.7 433.3 L423.4 433.3 L421.1 433.3 L418.9 433.3 L416.6 433.3 L416.6 436.0 L418.9 436.0 Z" fill="#2f8f83" fill-opacity="0.34" stroke="#0e5b52" stroke-width="1.6" />
  <path d="M455.4 460.2 L455.4 462.9 L457.7 462.9 L460.0 462.9 L462.3 462.9 L462.3 460.2 L460.0 460.2 L460.0 457.5 L460.0 454.8 L457.7 454.8 L457.7 452.1 L455.4 452.1 L455.4 454.8 L455.4 457.5 L455.4 460.2 Z" fill="#2f8f83" fill-opacity="0.34" stroke="#0e5b52" stroke-width="1.6" />
  <path d="M464.6 446.8 L464.6 449.5 L466.9 449.5 L466.9 452.1 L466.9 454.8 L469.1 454.8 L469.1 457.5 L469.1 460.2 L469.1 462.9 L471.4 462.9 L471.4 465.6 L471.4 468.3 L471.4 471.0 L471.4 473.7 L473.7 473.7 L473.7 476.4 L476.0 476.4 L476.0 479.0 L478.3 479.0 L478.3 481.7 L480.6 481.7 L480.6 484.4 L480.6 487.1 L480.6 489.8 L480.6 492.5 L482.9 492.5 L485.2 492.5 L485.2 489.8 L485.2 487.1 L485.2 484.4 L485.2 481.7 L485.2 479.0 L487.4 479.0 L489.7 479.0 L492.0 479.0 L494.3 479.0 L496.6 479.0 L498.9 479.0 L501.2 479.0 L503.4 479.0 L505.7 479.0 L508.0 479.0 L510.3 479.0 L512.6 479.0 L514.9 479.0 L517.2 479.0 L519.4 479.0 L521.7 479.0 L524.0 479.0 L526.3 479.0 L528.6 479.0 L530.9 479.0 L533.2 479.0 L535.5 479.0 L535.5 476.4 L533.2 476.4 L530.9 476.4 L528.6 476.4 L526.3 476.4 L524.0 476.4 L521.7 476.4 L519.4 476.4 L517.2 476.4 L514.9 476.4 L512.6 476.4 L510.3 476.4 L508.0 476.4 L505.7 476.4 L503.4 476.4 L501.2 476.4 L498.9 476.4 L496.6 476.4 L494.3 476.4 L492.0 476.4 L489.7 476.4 L487.4 476.4 L485.2 476.4 L482.9 476.4 L480.6 476.4 L480.6 473.7 L480.6 471.0 L480.6 468.3 L480.6 465.6 L480.6 462.9 L478.3 462.9 L476.0 462.9 L476.0 460.2 L476.0 457.5 L476.0 454.8 L476.0 452.1 L476.0 449.5 L476.0 446.8 L476.0 444.1 L476.0 441.4 L476.0 438.7 L476.0 436.0 L473.7 436.0 L471.4 436.0 L469.1 436.0 L466.9 436.0 L464.6 436.0 L464.6 438.7 L462.3 438.7 L462.3 441.4 L464.6 441.4 L464.6 444.1 L464.6 446.8 Z" fill="#2f8f83" fill-opacity="0.34" stroke="#0e5b52" stroke-width="1.6" />
  <path d="M485.2 489.8 L485.2 492.5 L487.4 492.5 L489.7 492.5 L492.0 492.5 L494.3 492.5 L496.6 492.5 L498.9 492.5 L501.2 492.5 L503.4 492.5 L505.7 492.5 L508.0 492.5 L510.3 492.5 L512.6 492.5 L512.6 489.8 L514.9 489.8 L517.2 489.8 L519.4 489.8 L521.7 489.8 L524.0 489.8 L526.3 489.8 L528.6 489.8 L530.9 489.8 L533.2 489.8 L535.5 489.8 L535.5 487.1 L535.5 484.4 L535.5 481.7 L535.5 479.0 L533.2 479.0 L530.9 479.0 L528.6 479.0 L526.3 479.0 L524.0 479.0 L521.7 479.0 L519.4 479.0 L517.2 479.0 L514.9 479.0 L512.6 479.0 L510.3 479.0 L508.0 479.0 L505.7 479.0 L503.4 479.0 L501.2 479.0 L498.9 479.0 L496.6 479.0 L494.3 479.0 L492.0 479.0 L489.7 479.0 L487.4 479.0 L485.2 479.0 L485.2 481.7 L485.2 484.4 L485.2 487.1 L485.2 489.8 Z" fill="#2f8f83" fill-opacity="0.34" stroke="#0e5b52" stroke-width="1.6" />
  <path d="M480.6 497.9 L482.9 497.9 L482.9 500.6 L482.9 503.2 L482.9 505.9 L482.9 508.6 L485.2 508.6 L485.2 511.3 L485.2 514.0 L485.2 516.7 L485.2 519.4 L487.4 519.4 L487.4 522.0 L489.7 522.0 L492.0 522.0 L494.3 522.0 L494.3 519.4 L494.3 516.7 L496.6 516.7 L496.6 514.0 L494.3 514.0 L494.3 511.3 L492.0 511.3 L492.0 508.6 L494.3 508.6 L496.6 508.6 L498.9 508.6 L498.9 505.9 L498.9 503.2 L498.9 500.6 L501.2 500.6 L503.4 500.6 L503.4 497.9 L505.7 497.9 L505.7 495.2 L508.0 495.2 L508.0 492.5 L505.7 492.5 L503.4 492.5 L501.2 492.5 L498.9 492.5 L496.6 492.5 L494.3 492.5 L492.0 492.5 L489.7 492.5 L487.4 492.5 L485.2 492.5 L482.9 492.5 L480.6 492.5 L480.6 495.2 L480.6 497.9 Z" fill="#2f8f83" fill-opacity="0.34" stroke="#0e5b52" stroke-width="1.6" />
  <path d="M514.9 473.7 L514.9 476.4 L517.2 476.4 L519.4 476.4 L521.7 476.4 L524.0 476.4 L526.3 476.4 L528.6 476.4 L530.9 476.4 L530.9 473.7 L530.9 471.0 L530.9 468.3 L530.9 465.6 L530.9 462.9 L530.9 460.2 L530.9 457.5 L530.9 454.8 L530.9 452.1 L530.9 449.4 L530.9 446.8 L530.9 444.1 L530.9 441.4 L530.9 438.7 L528.6 438.7 L526.3 438.7 L526.3 436.0 L524.0 436.0 L521.7 436.0 L521.7 438.7 L519.4 438.7 L517.2 438.7 L514.9 438.7 L514.9 441.4 L514.9 444.1 L514.9 446.8 L514.9 449.4 L514.9 452.1 L514.9 454.8 L514.9 457.5 L514.9 460.2 L514.9 462.9 L514.9 465.6 L514.9 468.3 L514.9 471.0 L514.9 473.7 Z" fill="#2f8f83" fill-opacity="0.34" stroke="#0e5b52" stroke-width="1.6" />
  <path d="M498.9 471.0 L501.2 471.0 L501.2 473.7 L503.4 473.7 L505.7 473.7 L508.0 473.7 L510.3 473.7 L512.6 473.7 L514.9 473.7 L514.9 471.0 L514.9 468.3 L514.9 465.6 L514.9 462.9 L514.9 460.2 L514.9 457.5 L514.9 454.8 L514.9 452.1 L514.9 449.4 L514.9 446.8 L514.9 444.1 L514.9 441.4 L514.9 438.7 L517.2 438.7 L519.4 438.7 L521.7 438.7 L521.7 436.0 L519.4 436.0 L517.2 436.0 L514.9 436.0 L512.6 436.0 L510.3 436.0 L508.0 436.0 L505.7 436.0 L503.4 436.0 L501.2 436.0 L498.9 436.0 L498.9 438.7 L498.9 441.4 L498.9 444.1 L498.9 446.8 L498.9 449.5 L498.9 452.1 L498.9 454.8 L498.9 457.5 L498.9 460.2 L498.9 462.9 L498.9 465.6 L498.9 468.3 L498.9 471.0 Z" fill="#2f8f83" fill-opacity="0.34" stroke="#0e5b52" stroke-width="1.6" />
  <path d="M476.0 460.2 L476.0 462.9 L478.3 462.9 L480.6 462.9 L482.9 462.9 L485.2 462.9 L487.4 462.9 L489.7 462.9 L492.0 462.9 L494.3 462.9 L496.6 462.9 L498.9 462.9 L498.9 460.2 L498.9 457.5 L498.9 454.8 L498.9 452.1 L498.9 449.5 L498.9 446.8 L498.9 444.1 L498.9 441.4 L498.9 438.7 L498.9 436.0 L496.6 436.0 L494.3 436.0 L492.0 436.0 L489.7 436.0 L487.4 436.0 L485.2 436.0 L482.9 436.0 L480.6 436.0 L478.3 436.0 L476.0 436.0 L476.0 438.7 L476.0 441.4 L476.0 444.1 L476.0 446.8 L476.0 449.5 L476.0 452.1 L476.0 454.8 L476.0 457.5 L476.0 460.2 Z" fill="#2f8f83" fill-opacity="0.34" stroke="#0e5b52" stroke-width="1.6" />
  <path d="M480.6 473.7 L480.6 476.4 L482.9 476.4 L485.2 476.4 L487.4 476.4 L489.7 476.4 L492.0 476.4 L494.3 476.4 L496.6 476.4 L498.9 476.4 L501.2 476.4 L503.4 476.4 L505.7 476.4 L508.0 476.4 L510.3 476.4 L512.6 476.4 L514.9 476.4 L514.9 473.7 L512.6 473.7 L510.3 473.7 L508.0 473.7 L505.7 473.7 L503.4 473.7 L501.2 473.7 L501.2 471.0 L498.9 471.0 L498.9 468.3 L498.9 465.6 L498.9 462.9 L496.6 462.9 L494.3 462.9 L492.0 462.9 L489.7 462.9 L487.4 462.9 L485.2 462.9 L482.9 462.9 L480.6 462.9 L480.6 465.6 L480.6 468.3 L480.6 471.0 L480.6 473.7 Z" fill="#2f8f83" fill-opacity="0.34" stroke="#0e5b52" stroke-width="1.6" />
  <path d="M396.0 330.7 L396.0 333.4 L398.3 333.4 L400.6 333.4 L400.6 336.1 L400.6 338.8 L400.6 341.5 L400.6 344.2 L400.6 346.9 L400.6 349.6 L400.6 352.3 L400.6 355.0 L400.6 357.7 L402.8 357.7 L405.1 357.7 L407.4 357.7 L409.7 357.7 L412.0 357.7 L414.3 357.7 L414.3 360.4 L414.3 363.2 L416.6 363.2 L416.6 360.5 L416.6 357.7 L416.6 355.0 L416.6 352.3 L416.6 349.6 L416.6 346.9 L416.6 344.2 L416.6 341.5 L418.8 341.5 L418.8 338.8 L418.8 336.1 L418.8 333.4 L418.8 330.7 L418.8 328.0 L418.8 325.3 L418.8 322.6 L416.6 322.6 L414.3 322.6 L412.0 322.6 L412.0 325.3 L409.7 325.3 L407.4 325.3 L405.1 325.3 L402.8 325.3 L400.6 325.3 L398.3 325.3 L398.3 328.0 L396.0 328.0 L396.0 330.7 Z" fill="#2f8f83" fill-opacity="0.34" stroke="#0e5b52" stroke-width="1.6" />
  <path d="M398.3 322.6 L398.3 325.3 L400.6 325.3 L402.8 325.3 L405.1 325.3 L407.4 325.3 L409.7 325.3 L412.0 325.3 L412.0 322.6 L414.3 322.6 L416.6 322.6 L418.8 322.6 L418.8 319.9 L418.8 317.2 L416.6 317.2 L414.3 317.2 L412.0 317.2 L409.7 317.2 L407.4 317.2 L405.1 317.2 L402.8 317.2 L400.6 317.2 L398.3 317.2 L398.3 319.9 L398.3 322.6 Z" fill="#2f8f83" fill-opacity="0.34" stroke="#0e5b52" stroke-width="1.6" />
  <path d="M466.9 360.4 L469.1 360.4 L469.1 357.7 L469.1 355.0 L469.1 352.3 L469.1 349.6 L471.4 349.6 L473.7 349.6 L476.0 349.6 L478.3 349.6 L480.6 349.6 L482.9 349.6 L485.2 349.6 L487.4 349.6 L487.4 346.9 L487.4 344.2 L489.7 344.2 L492.0 344.2 L492.0 341.5 L492.0 338.8 L492.0 336.1 L492.0 333.4 L492.0 330.7 L492.0 328.0 L489.7 328.0 L487.4 328.0 L485.2 328.0 L482.9 328.0 L480.6 328.0 L478.3 328.0 L476.0 328.0 L473.7 328.0 L471.4 328.0 L469.1 328.0 L466.9 328.0 L466.9 330.7 L466.9 333.4 L466.9 336.1 L466.9 338.8 L466.9 341.5 L466.9 344.2 L466.9 346.9 L466.9 349.6 L466.9 352.3 L466.9 355.0 L466.9 357.7 L466.9 360.4 Z" fill="#2f8f83" fill-opacity="0.34" stroke="#0e5b52" stroke-width="1.6" />
  <path d="M466.9 295.5 L466.9 298.2 L469.1 298.2 L471.4 298.2 L473.7 298.2 L473.7 295.5 L471.4 295.5 L469.1 295.5 L469.1 292.8 L469.1 290.1 L469.1 287.4 L469.1 284.7 L471.4 284.7 L473.7 284.7 L476.0 284.7 L476.0 287.4 L476.0 290.1 L476.0 292.8 L476.0 295.5 L476.0 298.2 L478.3 298.2 L480.6 298.2 L482.9 298.2 L482.9 295.5 L482.9 292.8 L482.9 290.1 L482.9 287.4 L482.9 284.7 L482.9 282.0 L482.9 279.3 L482.9 276.6 L480.6 276.6 L478.3 276.6 L476.0 276.6 L473.7 276.6 L471.4 276.6 L469.1 276.6 L466.9 276.6 L466.9 279.3 L466.9 282.0 L466.9 284.7 L466.9 287.4 L466.9 290.1 L466.9 292.8 L464.6 292.8 L464.6 295.5 L466.9 295.5 Z" fill="#2f8f83" fill-opacity="0.34" stroke="#0e5b52" stroke-width="1.6" />
  <path d="M482.9 317.2 L482.9 319.9 L485.2 319.9 L487.4 319.9 L489.7 319.9 L492.0 319.9 L494.3 319.9 L496.6 319.9 L498.9 319.9 L501.2 319.9 L501.2 317.2 L501.2 314.5 L501.2 311.8 L501.2 309.1 L501.2 306.4 L501.2 303.6 L501.2 300.9 L501.2 298.2 L501.2 295.5 L498.9 295.5 L496.6 295.5 L496.6 298.2 L494.3 298.2 L492.0 298.2 L489.7 298.2 L487.4 298.2 L485.2 298.2 L482.9 298.2 L482.9 300.9 L482.9 303.6 L482.9 306.4 L482.9 309.1 L482.9 311.8 L482.9 314.5 L482.9 317.2 Z" fill="#2f8f83" fill-opacity="0.34" stroke="#0e5b52" stroke-width="1.6" />
  <path d="M530.9 365.8 L530.9 368.6 L533.2 368.5 L535.5 368.5 L537.7 368.5 L540.0 368.5 L542.3 368.5 L544.6 368.5 L544.6 365.8 L544.6 363.1 L544.6 360.4 L544.6 357.7 L544.6 355.0 L544.6 352.3 L542.3 352.3 L540.0 352.3 L537.7 352.3 L535.5 352.3 L533.2 352.3 L530.9 352.3 L530.9 355.0 L530.9 357.7 L530.9 360.4 L530.9 363.1 L530.9 365.8 Z" fill="#2f8f83" fill-opacity="0.34" stroke="#0e5b52" stroke-width="1.6" />
  <path d="M469.1 365.9 L469.1 368.6 L471.4 368.6 L473.7 368.6 L476.0 368.6 L478.3 368.6 L480.6 368.6 L482.9 368.6 L485.2 368.6 L487.4 368.6 L489.7 368.6 L492.0 368.6 L494.3 368.6 L496.6 368.6 L498.9 368.6 L498.9 365.9 L498.9 363.1 L498.9 360.4 L496.6 360.4 L496.6 357.7 L496.6 355.0 L496.6 352.3 L494.3 352.3 L492.0 352.3 L489.7 352.3 L487.4 352.3 L487.4 355.0 L485.2 355.0 L482.9 355.0 L480.6 355.0 L478.3 355.0 L476.0 355.0 L473.7 355.0 L471.4 355.0 L469.1 355.0 L469.1 357.7 L469.1 360.4 L469.1 363.1 L469.1 365.9 Z" fill="#2f8f83" fill-opacity="0.34" stroke="#0e5b52" stroke-width="1.6" />
  <path d="M512.6 430.6 L512.6 433.3 L514.9 433.3 L517.2 433.3 L519.4 433.3 L521.7 433.3 L524.0 433.3 L526.3 433.3 L528.6 433.3 L530.9 433.3 L530.9 436.0 L530.9 438.7 L533.2 438.7 L535.5 438.7 L537.7 438.7 L537.7 441.4 L537.7 444.1 L537.7 446.8 L537.7 449.4 L540.0 449.4 L542.3 449.4 L544.6 449.4 L544.6 452.1 L544.6 454.8 L544.6 457.5 L546.9 457.5 L549.2 457.5 L551.5 457.5 L553.7 457.5 L553.7 454.8 L553.7 452.1 L553.7 449.4 L553.7 446.8 L551.5 446.8 L549.2 446.8 L549.2 444.1 L546.9 444.1 L546.9 441.4 L546.9 438.7 L546.9 436.0 L546.9 433.3 L544.6 433.3 L542.3 433.3 L542.3 430.6 L540.0 430.6 L537.7 430.6 L537.7 427.9 L537.7 425.2 L535.5 425.2 L535.5 422.5 L533.2 422.5 L530.9 422.5 L528.6 422.5 L526.3 422.5 L526.3 419.8 L524.0 419.8 L521.7 419.8 L519.4 419.8 L517.2 419.8 L514.9 419.8 L512.6 419.8 L512.6 422.5 L512.6 425.2 L512.6 427.9 L512.6 430.6 Z" fill="#2f8f83" fill-opacity="0.34" stroke="#0e5b52" stroke-width="1.6" />
  <path d="M478.3 273.8 L480.6 273.8 L482.9 273.8 L485.2 273.8 L485.2 276.6 L487.4 276.6 L489.7 276.6 L492.0 276.6 L492.0 279.3 L492.0 282.0 L492.0 284.7 L494.3 284.7 L494.3 287.4 L492.0 287.4 L492.0 290.1 L489.7 290.1 L489.7 292.8 L487.4 292.8 L487.4 295.5 L489.7 295.5 L492.0 295.5 L494.3 295.5 L494.3 292.8 L496.6 292.8 L498.9 292.8 L498.9 290.1 L501.2 290.1 L503.4 290.1 L503.4 287.4 L503.4 284.7 L503.4 282.0 L503.4 279.3 L503.4 276.6 L505.7 276.6 L505.7 273.8 L505.7 271.1 L505.7 268.4 L503.4 268.4 L501.2 268.4 L498.9 268.4 L496.6 268.4 L496.6 265.7 L496.6 263.0 L496.6 260.3 L496.6 257.6 L494.3 257.6 L492.0 257.6 L489.7 257.6 L487.4 257.6 L485.2 257.6 L485.2 254.9 L482.9 254.9 L480.6 254.9 L478.3 254.9 L478.3 257.6 L478.3 260.3 L478.3 263.0 L478.3 265.7 L478.3 268.4 L478.3 271.1 L476.0 271.1 L476.0 273.8 L478.3 273.8 Z" fill="#2f8f83" fill-opacity="0.34" stroke="#0e5b52" stroke-width="1.6" />
  <path d="M439.4 235.9 L439.4 238.6 L441.7 238.6 L444.0 238.6 L446.3 238.6 L448.6 238.6 L450.8 238.6 L453.1 238.6 L455.4 238.6 L457.7 238.6 L460.0 238.6 L462.3 238.6 L462.3 241.3 L462.3 244.0 L462.3 246.7 L462.3 249.4 L464.6 249.4 L466.9 249.4 L469.1 249.4 L471.4 249.4 L471.4 246.7 L471.4 244.0 L473.7 244.0 L476.0 244.0 L478.3 244.0 L480.6 244.0 L480.6 246.7 L480.6 249.4 L482.9 249.4 L482.9 252.1 L485.2 252.1 L487.4 252.1 L489.7 252.1 L489.7 254.9 L489.7 257.6 L492.0 257.6 L492.0 254.9 L492.0 252.1 L492.0 249.4 L489.7 249.4 L487.4 249.4 L485.2 249.4 L485.2 246.7 L482.9 246.7 L482.9 244.0 L482.9 241.3 L480.6 241.3 L478.3 241.3 L476.0 241.3 L476.0 238.6 L476.0 235.9 L476.0 233.1 L473.7 233.1 L471.4 233.1 L469.1 233.1 L466.8 233.1 L464.6 233.1 L462.3 233.1 L462.3 230.4 L462.3 227.7 L462.3 225.0 L462.3 222.3 L462.2 219.6 L462.2 216.8 L462.2 214.1 L462.2 211.4 L462.2 208.7 L459.9 208.7 L457.7 208.7 L455.4 208.7 L453.1 208.7 L450.8 208.7 L448.5 208.7 L446.2 208.7 L444.0 208.7 L443.9 206.0 L441.7 206.0 L439.4 206.0 L439.4 208.7 L441.7 208.7 L441.7 211.4 L444.0 211.4 L446.2 211.4 L448.5 211.4 L450.8 211.4 L453.1 211.4 L453.1 214.1 L455.4 214.1 L455.4 216.8 L455.4 219.6 L455.4 222.3 L455.4 225.0 L455.4 227.7 L455.4 230.4 L455.4 233.1 L453.1 233.1 L450.8 233.1 L448.6 233.1 L446.3 233.1 L444.0 233.1 L441.7 233.1 L439.4 233.1 L439.4 235.9 Z" fill="#2f8f83" fill-opacity="0.34" stroke="#0e5b52" stroke-width="1.6" />
  <!-- title strip -->
  <rect x="0" y="0" width="1000" height="54" fill="#173042" />
  <text x="20" y="34" font-size="21" font-weight="bold" fill="#ffffff">Goliath Resources Limited — Mineral Claims</text>
  <text x="980" y="34" font-size="15" fill="#cfe3df" text-anchor="end">GOT</text>
  <!-- scale bar -->
  <g transform="translate(843.323577809708, 596)">
    <rect x="0" y="0" width="58.33821109514601" height="8" fill="#173042" />
    <rect x="58.33821109514601" y="0" width="58.33821109514601" height="8" fill="#ffffff" stroke="#173042" stroke-width="1" />
    <text x="58.33821109514601" y="-6" font-size="12" fill="#173042" text-anchor="middle">20 km</text>
  </g>
  <!-- north arrow -->
  <g transform="translate(956, 92)">
    <circle r="17" fill="#ffffff" stroke="#b9b09a" />
    <path d="M0 -10 L5 7 L0 3 L-5 7 Z" fill="#173042" />
    <text y="14" font-size="9" font-weight="bold" fill="#173042" text-anchor="middle">N</text>
  </g>
  <!-- watermark -->
  <text x="20" y="620" font-size="13" fill="#7d8b8a">Map by Exploration Maps — explorationmaps.com</text>
</svg>