<svg xmlns="http://www.w3.org/2000/svg" viewBox="0 0 1000 640" font-family="Arial, Helvetica, sans-serif">
  <rect width="1000" height="640" fill="#f3efe6" />
  <line x1="200" y1="0" x2="200" y2="640" stroke="#d9d2c0" stroke-width="0.7" />
  <line x1="0" y1="128" x2="1000" y2="128" stroke="#d9d2c0" stroke-width="0.7" />
  <line x1="400" y1="0" x2="400" y2="640" stroke="#d9d2c0" stroke-width="0.7" />
  <line x1="0" y1="256" x2="1000" y2="256" stroke="#d9d2c0" stroke-width="0.7" />
  <line x1="600" y1="0" x2="600" y2="640" stroke="#d9d2c0" stroke-width="0.7" />
  <line x1="0" y1="384" x2="1000" y2="384" stroke="#d9d2c0" stroke-width="0.7" />
  <line x1="800" y1="0" x2="800" y2="640" stroke="#d9d2c0" stroke-width="0.7" />
  <line x1="0" y1="512" x2="1000" y2="512" stroke="#d9d2c0" stroke-width="0.7" />
  <path d="M711.1 349.2 L711.1 334.7 L696.0 334.7 L696.0 349.2 L711.1 349.2 Z" fill="#2f8f83" fill-opacity="0.34" stroke="#0e5b52" stroke-width="1.6" />
  <path d="M228.6 247.2 L228.6 232.6 L213.5 232.6 L213.5 247.2 L228.6 247.2 Z" fill="#2f8f83" fill-opacity="0.34" stroke="#0e5b52" stroke-width="1.6" />
  <path d="M228.6 261.8 L228.6 247.2 L213.5 247.2 L213.5 261.8 L228.6 261.8 Z" fill="#2f8f83" fill-opacity="0.34" stroke="#0e5b52" stroke-width="1.6" />
  <path d="M560.3 290.9 L560.3 276.3 L545.2 276.3 L545.2 290.9 L560.3 290.9 Z" fill="#2f8f83" fill-opacity="0.34" stroke="#0e5b52" stroke-width="1.6" />
  <path d="M198.5 290.9 L198.5 276.3 L183.4 276.3 L183.4 290.9 L198.5 290.9 Z" fill="#2f8f83" fill-opacity="0.34" stroke="#0e5b52" stroke-width="1.6" />
  <path d="M545.2 247.2 L545.2 232.6 L530.2 232.6 L530.2 247.2 L545.2 247.2 Z" fill="#2f8f83" fill-opacity="0.34" stroke="#0e5b52" stroke-width="1.6" />
  <path d="M816.6 378.4 L816.6 363.8 L801.5 363.8 L801.5 378.4 L816.6 378.4 Z" fill="#2f8f83" fill-opacity="0.34" stroke="#0e5b52" stroke-width="1.6" />
  <path d="M635.7 363.8 L635.7 349.2 L620.6 349.2 L620.6 363.8 L635.7 363.8 Z" fill="#2f8f83" fill-opacity="0.34" stroke="#0e5b52" stroke-width="1.6" />
  <path d="M469.8 320.1 L469.8 305.5 L454.8 305.5 L454.8 320.1 L469.8 320.1 Z" fill="#2f8f83" fill-opacity="0.34" stroke="#0e5b52" stroke-width="1.6" />
  <path d="M469.8 203.4 L469.8 188.8 L454.8 188.8 L454.8 203.4 L469.8 203.4 Z" fill="#2f8f83" fill-opacity="0.34" stroke="#0e5b52" stroke-width="1.6" />
  <path d="M786.5 378.4 L786.5 363.8 L771.4 363.8 L771.4 378.4 L786.5 378.4 Z" fill="#2f8f83" fill-opacity="0.34" stroke="#0e5b52" stroke-width="1.6" />
  <path d="M771.4 378.4 L771.4 363.8 L756.3 363.8 L756.3 378.4 L771.4 378.4 Z" fill="#2f8f83" fill-opacity="0.34" stroke="#0e5b52" stroke-width="1.6" />
  <path d="M349.2 188.8 L349.2 174.2 L334.2 174.2 L334.2 188.8 L349.2 188.8 Z" fill="#2f8f83" fill-opacity="0.34" stroke="#0e5b52" stroke-width="1.6" />
  <path d="M334.2 203.4 L334.2 188.8 L319.1 188.8 L319.1 203.4 L334.2 203.4 Z" fill="#2f8f83" fill-opacity="0.34" stroke="#0e5b52" stroke-width="1.6" />
  <path d="M424.6 232.6 L424.6 218.0 L409.5 218.0 L409.5 232.6 L424.6 232.6 Z" fill="#2f8f83" fill-opacity="0.34" stroke="#0e5b52" stroke-width="1.6" />
  <path d="M168.3 247.2 L168.3 232.6 L153.2 232.6 L153.2 247.2 L168.3 247.2 Z" fill="#2f8f83" fill-opacity="0.34" stroke="#0e5b52" stroke-width="1.6" />
  <path d="M590.5 276.3 L590.5 261.8 L575.4 261.8 L575.4 276.3 L590.5 276.3 Z" fill="#2f8f83" fill-opacity="0.34" stroke="#0e5b52" stroke-width="1.6" />
  <path d="M756.3 363.8 L756.3 349.2 L741.2 349.2 L741.2 363.8 L756.3 363.8 Z" fill="#2f8f83" fill-opacity="0.34" stroke="#0e5b52" stroke-width="1.6" />
  <path d="M801.5 349.2 L801.5 334.7 L786.5 334.7 L786.5 349.2 L801.5 349.2 Z" fill="#2f8f83" fill-opacity="0.34" stroke="#0e5b52" stroke-width="1.6" />
  <path d="M711.1 320.1 L711.1 305.5 L696.0 305.5 L696.0 320.1 L711.1 320.1 Z" fill="#2f8f83" fill-opacity="0.34" stroke="#0e5b52" stroke-width="1.6" />
  <path d="M711.1 334.7 L711.1 320.1 L696.0 320.1 L696.0 334.7 L711.1 334.7 Z" fill="#2f8f83" fill-opacity="0.34" stroke="#0e5b52" stroke-width="1.6" />
  <path d="M696.0 320.1 L696.0 305.5 L680.9 305.5 L680.9 320.1 L696.0 320.1 Z" fill="#2f8f83" fill-opacity="0.34" stroke="#0e5b52" stroke-width="1.6" />
  <path d="M711.1 378.4 L711.1 363.8 L696.0 363.8 L696.0 378.4 L711.1 378.4 Z" fill="#2f8f83" fill-opacity="0.34" stroke="#0e5b52" stroke-width="1.6" />
  <path d="M650.8 290.9 L650.8 276.3 L635.7 276.3 L635.7 290.9 L650.8 290.9 Z" fill="#2f8f83" fill-opacity="0.34" stroke="#0e5b52" stroke-width="1.6" />
  <path d="M213.5 261.8 L213.5 247.2 L198.5 247.2 L198.5 261.8 L213.5 261.8 Z" fill="#2f8f83" fill-opacity="0.34" stroke="#0e5b52" stroke-width="1.6" />
  <path d="M319.1 290.9 L319.1 276.3 L304.0 276.3 L304.0 290.9 L319.1 290.9 Z" fill="#2f8f83" fill-opacity="0.34" stroke="#0e5b52" stroke-width="1.6" />
  <path d="M771.4 320.1 L771.4 305.5 L756.3 305.5 L756.3 320.1 L771.4 320.1 Z" fill="#2f8f83" fill-opacity="0.34" stroke="#0e5b52" stroke-width="1.6" />
  <path d="M213.5 290.9 L213.5 276.3 L198.5 276.3 L198.5 290.9 L213.5 290.9 Z" fill="#2f8f83" fill-opacity="0.34" stroke="#0e5b52" stroke-width="1.6" />
  <path d="M228.6 290.9 L228.6 276.3 L213.5 276.3 L213.5 290.9 L228.6 290.9 Z" fill="#2f8f83" fill-opacity="0.34" stroke="#0e5b52" stroke-width="1.6" />
  <path d="M424.6 320.1 L424.6 305.5 L409.5 305.5 L409.5 320.1 L424.6 320.1 Z" fill="#2f8f83" fill-opacity="0.34" stroke="#0e5b52" stroke-width="1.6" />
  <path d="M680.9 363.8 L680.9 349.2 L665.8 349.2 L665.8 363.8 L680.9 363.8 Z" fill="#2f8f83" fill-opacity="0.34" stroke="#0e5b52" stroke-width="1.6" />
  <path d="M665.8 363.8 L665.8 349.2 L650.8 349.2 L650.8 363.8 L665.8 363.8 Z" fill="#2f8f83" fill-opacity="0.34" stroke="#0e5b52" stroke-width="1.6" />
  <path d="M439.7 203.4 L439.7 188.8 L424.6 188.8 L424.6 203.4 L439.7 203.4 Z" fill="#2f8f83" fill-opacity="0.34" stroke="#0e5b52" stroke-width="1.6" />
  <path d="M439.7 218.0 L439.7 203.4 L424.6 203.4 L424.6 218.0 L439.7 218.0 Z" fill="#2f8f83" fill-opacity="0.34" stroke="#0e5b52" stroke-width="1.6" />
  <path d="M545.2 218.0 L545.2 203.4 L530.2 203.4 L530.2 218.0 L545.2 218.0 Z" fill="#2f8f83" fill-opacity="0.34" stroke="#0e5b52" stroke-width="1.6" />
  <path d="M545.2 232.6 L545.2 218.0 L530.2 218.0 L530.2 232.6 L545.2 232.6 Z" fill="#2f8f83" fill-opacity="0.34" stroke="#0e5b52" stroke-width="1.6" />
  <path d="M530.2 232.6 L530.2 218.0 L515.1 218.0 L515.1 232.6 L530.2 232.6 Z" fill="#2f8f83" fill-opacity="0.34" stroke="#0e5b52" stroke-width="1.6" />
  <path d="M680.9 320.1 L680.9 305.5 L665.8 305.5 L665.8 320.1 L680.9 320.1 Z" fill="#2f8f83" fill-opacity="0.34" stroke="#0e5b52" stroke-width="1.6" />
  <path d="M409.5 232.6 L409.5 218.0 L394.5 218.0 L394.5 232.6 L409.5 232.6 Z" fill="#2f8f83" fill-opacity="0.34" stroke="#0e5b52" stroke-width="1.6" />
  <path d="M379.4 247.2 L379.4 232.6 L364.3 232.6 L364.3 247.2 L379.4 247.2 Z" fill="#2f8f83" fill-opacity="0.34" stroke="#0e5b52" stroke-width="1.6" />
  <path d="M394.5 276.3 L394.5 261.8 L379.4 261.8 L379.4 276.3 L394.5 276.3 Z" fill="#2f8f83" fill-opacity="0.34" stroke="#0e5b52" stroke-width="1.6" />
  <path d="M635.7 349.2 L635.7 334.7 L620.6 334.7 L620.6 349.2 L635.7 349.2 Z" fill="#2f8f83" fill-opacity="0.34" stroke="#0e5b52" stroke-width="1.6" />
  <path d="M590.5 290.9 L590.5 276.3 L575.4 276.3 L575.4 290.9 L590.5 290.9 Z" fill="#2f8f83" fill-opacity="0.34" stroke="#0e5b52" stroke-width="1.6" />
  <path d="M620.6 305.5 L620.6 290.9 L605.5 290.9 L605.5 305.5 L620.6 305.5 Z" fill="#2f8f83" fill-opacity="0.34" stroke="#0e5b52" stroke-width="1.6" />
  <path d="M575.4 320.1 L575.4 305.5 L560.3 305.5 L560.3 320.1 L575.4 320.1 Z" fill="#2f8f83" fill-opacity="0.34" stroke="#0e5b52" stroke-width="1.6" />
  <path d="M801.5 320.1 L801.5 305.5 L786.5 305.5 L786.5 320.1 L801.5 320.1 Z" fill="#2f8f83" fill-opacity="0.34" stroke="#0e5b52" stroke-width="1.6" />
  <path d="M726.2 305.5 L726.2 290.9 L711.1 290.9 L711.1 305.5 L726.2 305.5 Z" fill="#2f8f83" fill-opacity="0.34" stroke="#0e5b52" stroke-width="1.6" />
  <path d="M711.1 305.5 L711.1 290.9 L696.0 290.9 L696.0 305.5 L711.1 305.5 Z" fill="#2f8f83" fill-opacity="0.34" stroke="#0e5b52" stroke-width="1.6" />
  <path d="M665.8 349.2 L665.8 334.7 L650.8 334.7 L650.8 349.2 L665.8 349.2 Z" fill="#2f8f83" fill-opacity="0.34" stroke="#0e5b52" stroke-width="1.6" />
  <path d="M560.3 276.3 L560.3 261.8 L545.2 261.8 L545.2 276.3 L560.3 276.3 Z" fill="#2f8f83" fill-opacity="0.34" stroke="#0e5b52" stroke-width="1.6" />
  <path d="M243.7 247.2 L243.7 232.6 L228.6 232.6 L228.6 247.2 L243.7 247.2 Z" fill="#2f8f83" fill-opacity="0.34" stroke="#0e5b52" stroke-width="1.6" />
  <path d="M243.7 276.3 L243.7 261.8 L228.6 261.8 L228.6 276.3 L243.7 276.3 Z" fill="#2f8f83" fill-opacity="0.34" stroke="#0e5b52" stroke-width="1.6" />
  <path d="M560.3 305.5 L560.3 290.9 L545.2 290.9 L545.2 305.5 L560.3 305.5 Z" fill="#2f8f83" fill-opacity="0.34" stroke="#0e5b52" stroke-width="1.6" />
  <path d="M349.2 261.8 L349.2 247.2 L334.2 247.2 L334.2 261.8 L349.2 261.8 Z" fill="#2f8f83" fill-opacity="0.34" stroke="#0e5b52" stroke-width="1.6" />
  <path d="M635.7 276.3 L635.7 261.8 L620.6 261.8 L620.6 276.3 L635.7 276.3 Z" fill="#2f8f83" fill-opacity="0.34" stroke="#0e5b52" stroke-width="1.6" />
  <path d="M786.5 393.0 L786.5 378.4 L771.4 378.4 L771.4 393.0 L786.5 393.0 Z" fill="#2f8f83" fill-opacity="0.34" stroke="#0e5b52" stroke-width="1.6" />
  <path d="M771.4 393.0 L771.4 378.4 L756.3 378.4 L756.3 393.0 L771.4 393.0 Z" fill="#2f8f83" fill-opacity="0.34" stroke="#0e5b52" stroke-width="1.6" />
  <path d="M756.3 320.1 L756.3 305.5 L741.2 305.5 L741.2 320.1 L756.3 320.1 Z" fill="#2f8f83" fill-opacity="0.34" stroke="#0e5b52" stroke-width="1.6" />
  <path d="M379.4 334.7 L379.4 320.1 L364.3 320.1 L364.3 334.7 L379.4 334.7 Z" fill="#2f8f83" fill-opacity="0.34" stroke="#0e5b52" stroke-width="1.6" />
  <path d="M500.0 218.0 L500.0 203.4 L484.9 203.4 L484.9 218.0 L500.0 218.0 Z" fill="#2f8f83" fill-opacity="0.34" stroke="#0e5b52" stroke-width="1.6" />
  <path d="M304.0 247.2 L304.0 232.6 L288.9 232.6 L288.9 247.2 L304.0 247.2 Z" fill="#2f8f83" fill-opacity="0.34" stroke="#0e5b52" stroke-width="1.6" />
  <path d="M605.5 232.6 L605.5 218.0 L590.5 218.0 L590.5 232.6 L605.5 232.6 Z" fill="#2f8f83" fill-opacity="0.34" stroke="#0e5b52" stroke-width="1.6" />
  <path d="M198.5 261.8 L198.5 247.2 L183.4 247.2 L183.4 261.8 L198.5 261.8 Z" fill="#2f8f83" fill-opacity="0.34" stroke="#0e5b52" stroke-width="1.6" />
  <path d="M741.2 320.1 L741.2 305.5 L726.2 305.5 L726.2 320.1 L741.2 320.1 Z" fill="#2f8f83" fill-opacity="0.34" stroke="#0e5b52" stroke-width="1.6" />
  <path d="M650.8 276.3 L650.8 261.8 L635.7 261.8 L635.7 276.3 L650.8 276.3 Z" fill="#2f8f83" fill-opacity="0.34" stroke="#0e5b52" stroke-width="1.6" />
  <path d="M650.8 305.5 L650.8 290.9 L635.7 290.9 L635.7 305.5 L650.8 305.5 Z" fill="#2f8f83" fill-opacity="0.34" stroke="#0e5b52" stroke-width="1.6" />
  <path d="M394.5 334.7 L394.5 320.1 L379.4 320.1 L379.4 334.7 L394.5 334.7 Z" fill="#2f8f83" fill-opacity="0.34" stroke="#0e5b52" stroke-width="1.6" />
  <path d="M469.8 232.6 L469.8 218.0 L454.8 218.0 L454.8 232.6 L469.8 232.6 Z" fill="#2f8f83" fill-opacity="0.34" stroke="#0e5b52" stroke-width="1.6" />
  <path d="M364.3 305.5 L364.3 290.9 L349.2 290.9 L349.2 305.5 L364.3 305.5 Z" fill="#2f8f83" fill-opacity="0.34" stroke="#0e5b52" stroke-width="1.6" />
  <path d="M635.7 334.7 L635.7 320.1 L620.6 320.1 L620.6 334.7 L635.7 334.7 Z" fill="#2f8f83" fill-opacity="0.34" stroke="#0e5b52" stroke-width="1.6" />
  <path d="M726.2 378.4 L726.2 363.8 L711.1 363.8 L711.1 378.4 L726.2 378.4 Z" fill="#2f8f83" fill-opacity="0.34" stroke="#0e5b52" stroke-width="1.6" />
  <path d="M605.5 290.9 L605.5 276.3 L590.5 276.3 L590.5 290.9 L605.5 290.9 Z" fill="#2f8f83" fill-opacity="0.34" stroke="#0e5b52" stroke-width="1.6" />
  <path d="M786.5 349.2 L786.5 334.7 L771.4 334.7 L771.4 349.2 L786.5 349.2 Z" fill="#2f8f83" fill-opacity="0.34" stroke="#0e5b52" stroke-width="1.6" />
  <path d="M243.7 232.6 L243.7 218.0 L228.6 218.0 L228.6 232.6 L243.7 232.6 Z" fill="#2f8f83" fill-opacity="0.34" stroke="#0e5b52" stroke-width="1.6" />
  <path d="M258.8 247.2 L258.8 232.6 L243.7 232.6 L243.7 247.2 L258.8 247.2 Z" fill="#2f8f83" fill-opacity="0.34" stroke="#0e5b52" stroke-width="1.6" />
  <path d="M545.2 305.5 L545.2 290.9 L530.2 290.9 L530.2 305.5 L545.2 305.5 Z" fill="#2f8f83" fill-opacity="0.34" stroke="#0e5b52" stroke-width="1.6" />
  <path d="M379.4 203.4 L379.4 188.8 L364.3 188.8 L364.3 203.4 L379.4 203.4 Z" fill="#2f8f83" fill-opacity="0.34" stroke="#0e5b52" stroke-width="1.6" />
  <path d="M379.4 218.0 L379.4 203.4 L364.3 203.4 L364.3 218.0 L379.4 218.0 Z" fill="#2f8f83" fill-opacity="0.34" stroke="#0e5b52" stroke-width="1.6" />
  <path d="M801.5 363.8 L801.5 349.2 L786.5 349.2 L786.5 363.8 L801.5 363.8 Z" fill="#2f8f83" fill-opacity="0.34" stroke="#0e5b52" stroke-width="1.6" />
  <path d="M439.7 305.5 L439.7 290.9 L424.6 290.9 L424.6 305.5 L439.7 305.5 Z" fill="#2f8f83" fill-opacity="0.34" stroke="#0e5b52" stroke-width="1.6" />
  <path d="M349.2 276.3 L349.2 261.8 L334.2 261.8 L334.2 276.3 L349.2 276.3 Z" fill="#2f8f83" fill-opacity="0.34" stroke="#0e5b52" stroke-width="1.6" />
  <path d="M364.3 203.4 L364.3 188.8 L349.2 188.8 L349.2 203.4 L364.3 203.4 Z" fill="#2f8f83" fill-opacity="0.34" stroke="#0e5b52" stroke-width="1.6" />
  <path d="M635.7 320.1 L635.7 305.5 L620.6 305.5 L620.6 320.1 L635.7 320.1 Z" fill="#2f8f83" fill-opacity="0.34" stroke="#0e5b52" stroke-width="1.6" />
  <path d="M454.8 320.1 L454.8 305.5 L439.7 305.5 L439.7 320.1 L454.8 320.1 Z" fill="#2f8f83" fill-opacity="0.34" stroke="#0e5b52" stroke-width="1.6" />
  <path d="M424.6 188.8 L424.6 174.2 L409.5 174.2 L409.5 188.8 L424.6 188.8 Z" fill="#2f8f83" fill-opacity="0.34" stroke="#0e5b52" stroke-width="1.6" />
  <path d="M741.2 363.8 L741.2 349.2 L726.2 349.2 L726.2 363.8 L741.2 363.8 Z" fill="#2f8f83" fill-opacity="0.34" stroke="#0e5b52" stroke-width="1.6" />
  <path d="M409.5 290.9 L409.5 276.3 L394.5 276.3 L394.5 290.9 L409.5 290.9 Z" fill="#2f8f83" fill-opacity="0.34" stroke="#0e5b52" stroke-width="1.6" />
  <path d="M726.2 349.2 L726.2 334.7 L711.1 334.7 L711.1 349.2 L726.2 349.2 Z" fill="#2f8f83" fill-opacity="0.34" stroke="#0e5b52" stroke-width="1.6" />
  <path d="M680.9 334.7 L680.9 320.1 L665.8 320.1 L665.8 334.7 L680.9 334.7 Z" fill="#2f8f83" fill-opacity="0.34" stroke="#0e5b52" stroke-width="1.6" />
  <path d="M650.8 305.5 L650.8 290.9 L635.7 290.9 L635.7 305.5 L650.8 305.5 Z" fill="#2f8f83" fill-opacity="0.34" stroke="#0e5b52" stroke-width="1.6" />
  <path d="M530.2 218.0 L530.2 203.4 L515.1 203.4 L515.1 218.0 L530.2 218.0 Z" fill="#2f8f83" fill-opacity="0.34" stroke="#0e5b52" stroke-width="1.6" />
  <path d="M665.8 334.7 L665.8 320.1 L650.8 320.1 L650.8 334.7 L665.8 334.7 Z" fill="#2f8f83" fill-opacity="0.34" stroke="#0e5b52" stroke-width="1.6" />
  <path d="M213.5 232.6 L213.5 218.0 L198.5 218.0 L198.5 232.6 L213.5 232.6 Z" fill="#2f8f83" fill-opacity="0.34" stroke="#0e5b52" stroke-width="1.6" />
  <path d="M288.9 232.6 L288.9 218.0 L273.8 218.0 L273.8 232.6 L288.9 232.6 Z" fill="#2f8f83" fill-opacity="0.34" stroke="#0e5b52" stroke-width="1.6" />
  <path d="M273.8 247.2 L273.8 232.6 L258.8 232.6 L258.8 247.2 L273.8 247.2 Z" fill="#2f8f83" fill-opacity="0.34" stroke="#0e5b52" stroke-width="1.6" />
  <path d="M484.9 232.6 L484.9 218.0 L469.8 218.0 L469.8 232.6 L484.9 232.6 Z" fill="#2f8f83" fill-opacity="0.34" stroke="#0e5b52" stroke-width="1.6" />
  <path d="M726.2 320.1 L726.2 305.5 L711.1 305.5 L711.1 320.1 L726.2 320.1 Z" fill="#2f8f83" fill-opacity="0.34" stroke="#0e5b52" stroke-width="1.6" />
  <path d="M469.8 290.9 L469.8 276.3 L454.8 276.3 L454.8 290.9 L469.8 290.9 Z" fill="#2f8f83" fill-opacity="0.34" stroke="#0e5b52" stroke-width="1.6" />
  <path d="M213.5 305.5 L213.5 290.9 L198.5 290.9 L198.5 305.5 L213.5 305.5 Z" fill="#2f8f83" fill-opacity="0.34" stroke="#0e5b52" stroke-width="1.6" />
  <path d="M635.7 247.2 L635.7 232.6 L620.6 232.6 L620.6 247.2 L635.7 247.2 Z" fill="#2f8f83" fill-opacity="0.34" stroke="#0e5b52" stroke-width="1.6" />
  <path d="M620.6 261.8 L620.6 247.2 L605.5 247.2 L605.5 261.8 L620.6 261.8 Z" fill="#2f8f83" fill-opacity="0.34" stroke="#0e5b52" stroke-width="1.6" />
  <path d="M650.8 320.1 L650.8 305.5 L635.7 305.5 L635.7 320.1 L650.8 320.1 Z" fill="#2f8f83" fill-opacity="0.34" stroke="#0e5b52" stroke-width="1.6" />
  <path d="M319.1 232.6 L319.1 218.0 L304.0 218.0 L304.0 232.6 L319.1 232.6 Z" fill="#2f8f83" fill-opacity="0.34" stroke="#0e5b52" stroke-width="1.6" />
  <path d="M334.2 247.2 L334.2 232.6 L319.1 232.6 L319.1 247.2 L334.2 247.2 Z" fill="#2f8f83" fill-opacity="0.34" stroke="#0e5b52" stroke-width="1.6" />
  <path d="M364.3 276.3 L364.3 261.8 L349.2 261.8 L349.2 276.3 L364.3 276.3 Z" fill="#2f8f83" fill-opacity="0.34" stroke="#0e5b52" stroke-width="1.6" />
  <path d="M319.1 276.3 L319.1 261.8 L304.0 261.8 L304.0 276.3 L319.1 276.3 Z" fill="#2f8f83" fill-opacity="0.34" stroke="#0e5b52" stroke-width="1.6" />
  <path d="M484.9 218.0 L484.9 203.4 L469.8 203.4 L469.8 218.0 L484.9 218.0 Z" fill="#2f8f83" fill-opacity="0.34" stroke="#0e5b52" stroke-width="1.6" />
  <path d="M424.6 261.8 L424.6 247.2 L409.5 247.2 L409.5 261.8 L424.6 261.8 Z" fill="#2f8f83" fill-opacity="0.34" stroke="#0e5b52" stroke-width="1.6" />
  <path d="M515.1 261.8 L515.1 247.2 L500.0 247.2 L500.0 261.8 L515.1 261.8 Z" fill="#2f8f83" fill-opacity="0.34" stroke="#0e5b52" stroke-width="1.6" />
  <path d="M560.3 247.2 L560.3 232.6 L545.2 232.6 L545.2 247.2 L560.3 247.2 Z" fill="#2f8f83" fill-opacity="0.34" stroke="#0e5b52" stroke-width="1.6" />
  <path d="M605.5 261.8 L605.5 247.2 L590.5 247.2 L590.5 261.8 L605.5 261.8 Z" fill="#2f8f83" fill-opacity="0.34" stroke="#0e5b52" stroke-width="1.6" />
  <path d="M590.5 261.8 L590.5 247.2 L575.4 247.2 L575.4 261.8 L590.5 261.8 Z" fill="#2f8f83" fill-opacity="0.34" stroke="#0e5b52" stroke-width="1.6" />
  <path d="M575.4 276.3 L575.4 261.8 L560.3 261.8 L560.3 276.3 L575.4 276.3 Z" fill="#2f8f83" fill-opacity="0.34" stroke="#0e5b52" stroke-width="1.6" />
  <path d="M696.0 393.0 L696.0 378.4 L680.9 378.4 L680.9 393.0 L696.0 393.0 Z" fill="#2f8f83" fill-opacity="0.34" stroke="#0e5b52" stroke-width="1.6" />
  <path d="M515.1 232.6 L515.1 218.0 L500.0 218.0 L500.0 232.6 L515.1 232.6 Z" fill="#2f8f83" fill-opacity="0.34" stroke="#0e5b52" stroke-width="1.6" />
  <path d="M696.0 363.8 L696.0 349.2 L680.9 349.2 L680.9 363.8 L696.0 363.8 Z" fill="#2f8f83" fill-opacity="0.34" stroke="#0e5b52" stroke-width="1.6" />
  <path d="M665.8 320.1 L665.8 305.5 L650.8 305.5 L650.8 320.1 L665.8 320.1 Z" fill="#2f8f83" fill-opacity="0.34" stroke="#0e5b52" stroke-width="1.6" />
  <path d="M484.9 305.5 L484.9 290.9 L469.8 290.9 L469.8 305.5 L484.9 305.5 Z" fill="#2f8f83" fill-opacity="0.34" stroke="#0e5b52" stroke-width="1.6" />
  <path d="M258.8 232.6 L258.8 218.0 L243.7 218.0 L243.7 232.6 L258.8 232.6 Z" fill="#2f8f83" fill-opacity="0.34" stroke="#0e5b52" stroke-width="1.6" />
  <path d="M228.6 232.6 L228.6 218.0 L213.5 218.0 L213.5 232.6 L228.6 232.6 Z" fill="#2f8f83" fill-opacity="0.34" stroke="#0e5b52" stroke-width="1.6" />
  <path d="M575.4 247.2 L575.4 232.6 L560.3 232.6 L560.3 247.2 L575.4 247.2 Z" fill="#2f8f83" fill-opacity="0.34" stroke="#0e5b52" stroke-width="1.6" />
  <path d="M575.4 261.8 L575.4 247.2 L560.3 247.2 L560.3 261.8 L575.4 261.8 Z" fill="#2f8f83" fill-opacity="0.34" stroke="#0e5b52" stroke-width="1.6" />
  <path d="M484.9 290.9 L484.9 276.3 L469.8 276.3 L469.8 290.9 L484.9 290.9 Z" fill="#2f8f83" fill-opacity="0.34" stroke="#0e5b52" stroke-width="1.6" />
  <path d="M228.6 276.3 L228.6 261.8 L213.5 261.8 L213.5 276.3 L228.6 276.3 Z" fill="#2f8f83" fill-opacity="0.34" stroke="#0e5b52" stroke-width="1.6" />
  <path d="M545.2 261.8 L545.2 247.2 L530.2 247.2 L530.2 261.8 L545.2 261.8 Z" fill="#2f8f83" fill-opacity="0.34" stroke="#0e5b52" stroke-width="1.6" />
  <path d="M696.0 378.4 L696.0 363.8 L680.9 363.8 L680.9 378.4 L696.0 378.4 Z" fill="#2f8f83" fill-opacity="0.34" stroke="#0e5b52" stroke-width="1.6" />
  <path d="M304.0 261.8 L304.0 247.2 L288.9 247.2 L288.9 261.8 L304.0 261.8 Z" fill="#2f8f83" fill-opacity="0.34" stroke="#0e5b52" stroke-width="1.6" />
  <path d="M319.1 203.4 L319.1 188.8 L304.0 188.8 L304.0 203.4 L319.1 203.4 Z" fill="#2f8f83" fill-opacity="0.34" stroke="#0e5b52" stroke-width="1.6" />
  <path d="M349.2 218.0 L349.2 203.4 L334.2 203.4 L334.2 218.0 L349.2 218.0 Z" fill="#2f8f83" fill-opacity="0.34" stroke="#0e5b52" stroke-width="1.6" />
  <path d="M454.8 290.9 L454.8 276.3 L439.7 276.3 L439.7 290.9 L454.8 290.9 Z" fill="#2f8f83" fill-opacity="0.34" stroke="#0e5b52" stroke-width="1.6" />
  <path d="M228.6 305.5 L228.6 290.9 L213.5 290.9 L213.5 305.5 L228.6 305.5 Z" fill="#2f8f83" fill-opacity="0.34" stroke="#0e5b52" stroke-width="1.6" />
  <path d="M258.8 320.1 L258.8 305.5 L243.7 305.5 L243.7 320.1 L258.8 320.1 Z" fill="#2f8f83" fill-opacity="0.34" stroke="#0e5b52" stroke-width="1.6" />
  <path d="M243.7 334.7 L243.7 320.1 L228.6 320.1 L228.6 334.7 L243.7 334.7 Z" fill="#2f8f83" fill-opacity="0.34" stroke="#0e5b52" stroke-width="1.6" />
  <path d="M454.8 232.6 L454.8 218.0 L439.7 218.0 L439.7 232.6 L454.8 232.6 Z" fill="#2f8f83" fill-opacity="0.34" stroke="#0e5b52" stroke-width="1.6" />
  <path d="M786.5 349.2 L786.5 334.7 L771.4 334.7 L771.4 349.2 L786.5 349.2 Z" fill="#2f8f83" fill-opacity="0.34" stroke="#0e5b52" stroke-width="1.6" />
  <path d="M500.0 203.4 L500.0 188.8 L484.9 188.8 L484.9 203.4 L500.0 203.4 Z" fill="#2f8f83" fill-opacity="0.34" stroke="#0e5b52" stroke-width="1.6" />
  <path d="M620.6 349.2 L620.6 334.7 L605.5 334.7 L605.5 349.2 L620.6 349.2 Z" fill="#2f8f83" fill-opacity="0.34" stroke="#0e5b52" stroke-width="1.6" />
  <path d="M605.5 320.1 L605.5 305.5 L590.5 305.5 L590.5 320.1 L605.5 320.1 Z" fill="#2f8f83" fill-opacity="0.34" stroke="#0e5b52" stroke-width="1.6" />
  <path d="M394.5 203.4 L394.5 188.8 L379.4 188.8 L379.4 203.4 L394.5 203.4 Z" fill="#2f8f83" fill-opacity="0.34" stroke="#0e5b52" stroke-width="1.6" />
  <path d="M273.8 232.6 L273.8 218.0 L258.8 218.0 L258.8 232.6 L273.8 232.6 Z" fill="#2f8f83" fill-opacity="0.34" stroke="#0e5b52" stroke-width="1.6" />
  <path d="M605.5 276.3 L605.5 261.8 L590.5 261.8 L590.5 276.3 L605.5 276.3 Z" fill="#2f8f83" fill-opacity="0.34" stroke="#0e5b52" stroke-width="1.6" />
  <path d="M650.8 363.8 L650.8 349.2 L635.7 349.2 L635.7 363.8 L650.8 363.8 Z" fill="#2f8f83" fill-opacity="0.34" stroke="#0e5b52" stroke-width="1.6" />
  <path d="M680.9 378.4 L680.9 363.8 L665.8 363.8 L665.8 378.4 L680.9 378.4 Z" fill="#2f8f83" fill-opacity="0.34" stroke="#0e5b52" stroke-width="1.6" />
  <path d="M665.8 393.0 L665.8 378.4 L650.8 378.4 L650.8 393.0 L665.8 393.0 Z" fill="#2f8f83" fill-opacity="0.34" stroke="#0e5b52" stroke-width="1.6" />
  <path d="M304.0 276.3 L304.0 261.8 L288.9 261.8 L288.9 276.3 L304.0 276.3 Z" fill="#2f8f83" fill-opacity="0.34" stroke="#0e5b52" stroke-width="1.6" />
  <path d="M273.8 290.9 L273.8 276.3 L258.8 276.3 L258.8 290.9 L273.8 290.9 Z" fill="#2f8f83" fill-opacity="0.34" stroke="#0e5b52" stroke-width="1.6" />
  <path d="M198.5 232.6 L198.5 218.0 L183.4 218.0 L183.4 232.6 L198.5 232.6 Z" fill="#2f8f83" fill-opacity="0.34" stroke="#0e5b52" stroke-width="1.6" />
  <path d="M439.7 247.2 L439.7 232.6 L424.6 232.6 L424.6 247.2 L439.7 247.2 Z" fill="#2f8f83" fill-opacity="0.34" stroke="#0e5b52" stroke-width="1.6" />
  <path d="M228.6 320.1 L228.6 305.5 L213.5 305.5 L213.5 320.1 L228.6 320.1 Z" fill="#2f8f83" fill-opacity="0.34" stroke="#0e5b52" stroke-width="1.6" />
  <path d="M560.3 320.1 L560.3 305.5 L545.2 305.5 L545.2 320.1 L560.3 320.1 Z" fill="#2f8f83" fill-opacity="0.34" stroke="#0e5b52" stroke-width="1.6" />
  <path d="M575.4 232.6 L575.4 218.0 L560.3 218.0 L560.3 232.6 L575.4 232.6 Z" fill="#2f8f83" fill-opacity="0.34" stroke="#0e5b52" stroke-width="1.6" />
  <path d="M484.9 261.8 L484.9 247.2 L469.8 247.2 L469.8 261.8 L484.9 261.8 Z" fill="#2f8f83" fill-opacity="0.34" stroke="#0e5b52" stroke-width="1.6" />
  <path d="M469.8 261.8 L469.8 247.2 L454.8 247.2 L454.8 261.8 L469.8 261.8 Z" fill="#2f8f83" fill-opacity="0.34" stroke="#0e5b52" stroke-width="1.6" />
  <path d="M349.2 203.4 L349.2 188.8 L334.2 188.8 L334.2 203.4 L349.2 203.4 Z" fill="#2f8f83" fill-opacity="0.34" stroke="#0e5b52" stroke-width="1.6" />
  <path d="M454.8 261.8 L454.8 247.2 L439.7 247.2 L439.7 261.8 L454.8 261.8 Z" fill="#2f8f83" fill-opacity="0.34" stroke="#0e5b52" stroke-width="1.6" />
  <path d="M500.0 188.8 L500.0 174.2 L484.9 174.2 L484.9 188.8 L500.0 188.8 Z" fill="#2f8f83" fill-opacity="0.34" stroke="#0e5b52" stroke-width="1.6" />
  <path d="M454.8 203.4 L454.8 188.8 L439.7 188.8 L439.7 203.4 L454.8 203.4 Z" fill="#2f8f83" fill-opacity="0.34" stroke="#0e5b52" stroke-width="1.6" />
  <path d="M439.7 232.6 L439.7 218.0 L424.6 218.0 L424.6 232.6 L439.7 232.6 Z" fill="#2f8f83" fill-opacity="0.34" stroke="#0e5b52" stroke-width="1.6" />
  <path d="M424.6 305.5 L424.6 290.9 L409.5 290.9 L409.5 305.5 L424.6 305.5 Z" fill="#2f8f83" fill-opacity="0.34" stroke="#0e5b52" stroke-width="1.6" />
  <path d="M409.5 305.5 L409.5 290.9 L394.5 290.9 L394.5 305.5 L409.5 305.5 Z" fill="#2f8f83" fill-opacity="0.34" stroke="#0e5b52" stroke-width="1.6" />
  <path d="M379.4 232.6 L379.4 218.0 L364.3 218.0 L364.3 232.6 L379.4 232.6 Z" fill="#2f8f83" fill-opacity="0.34" stroke="#0e5b52" stroke-width="1.6" />
  <path d="M379.4 276.3 L379.4 261.8 L364.3 261.8 L364.3 276.3 L379.4 276.3 Z" fill="#2f8f83" fill-opacity="0.34" stroke="#0e5b52" stroke-width="1.6" />
  <path d="M756.3 349.2 L756.3 334.7 L741.2 334.7 L741.2 349.2 L756.3 349.2 Z" fill="#2f8f83" fill-opacity="0.34" stroke="#0e5b52" stroke-width="1.6" />
  <path d="M530.2 305.5 L530.2 290.9 L515.1 290.9 L515.1 305.5 L530.2 305.5 Z" fill="#2f8f83" fill-opacity="0.34" stroke="#0e5b52" stroke-width="1.6" />
  <path d="M409.5 188.8 L409.5 174.2 L394.5 174.2 L394.5 188.8 L409.5 188.8 Z" fill="#2f8f83" fill-opacity="0.34" stroke="#0e5b52" stroke-width="1.6" />
  <path d="M680.9 305.5 L680.9 290.9 L665.8 290.9 L665.8 305.5 L680.9 305.5 Z" fill="#2f8f83" fill-opacity="0.34" stroke="#0e5b52" stroke-width="1.6" />
  <path d="M304.0 232.6 L304.0 218.0 L288.9 218.0 L288.9 232.6 L304.0 232.6 Z" fill="#2f8f83" fill-opacity="0.34" stroke="#0e5b52" stroke-width="1.6" />
  <path d="M500.0 247.2 L500.0 232.6 L484.9 232.6 L484.9 247.2 L500.0 247.2 Z" fill="#2f8f83" fill-opacity="0.34" stroke="#0e5b52" stroke-width="1.6" />
  <path d="M500.0 261.8 L500.0 247.2 L484.9 247.2 L484.9 261.8 L500.0 261.8 Z" fill="#2f8f83" fill-opacity="0.34" stroke="#0e5b52" stroke-width="1.6" />
  <path d="M183.4 261.8 L183.4 247.2 L168.3 247.2 L168.3 261.8 L183.4 261.8 Z" fill="#2f8f83" fill-opacity="0.34" stroke="#0e5b52" stroke-width="1.6" />
  <path d="M650.8 334.7 L650.8 320.1 L635.7 320.1 L635.7 334.7 L650.8 334.7 Z" fill="#2f8f83" fill-opacity="0.34" stroke="#0e5b52" stroke-width="1.6" />
  <path d="M801.5 334.7 L801.5 320.1 L786.5 320.1 L786.5 334.7 L801.5 334.7 Z" fill="#2f8f83" fill-opacity="0.34" stroke="#0e5b52" stroke-width="1.6" />
  <path d="M288.9 261.8 L288.9 247.2 L273.8 247.2 L273.8 261.8 L288.9 261.8 Z" fill="#2f8f83" fill-opacity="0.34" stroke="#0e5b52" stroke-width="1.6" />
  <path d="M273.8 276.3 L273.8 261.8 L258.8 261.8 L258.8 276.3 L273.8 276.3 Z" fill="#2f8f83" fill-opacity="0.34" stroke="#0e5b52" stroke-width="1.6" />
  <path d="M665.8 305.5 L665.8 290.9 L650.8 290.9 L650.8 305.5 L665.8 305.5 Z" fill="#2f8f83" fill-opacity="0.34" stroke="#0e5b52" stroke-width="1.6" />
  <path d="M349.2 247.2 L349.2 232.6 L334.2 232.6 L334.2 247.2 L349.2 247.2 Z" fill="#2f8f83" fill-opacity="0.34" stroke="#0e5b52" stroke-width="1.6" />
  <path d="M696.0 305.5 L696.0 290.9 L680.9 290.9 L680.9 305.5 L696.0 305.5 Z" fill="#2f8f83" fill-opacity="0.34" stroke="#0e5b52" stroke-width="1.6" />
  <path d="M515.1 218.0 L515.1 203.4 L500.0 203.4 L500.0 218.0 L515.1 218.0 Z" fill="#2f8f83" fill-opacity="0.34" stroke="#0e5b52" stroke-width="1.6" />
  <path d="M379.4 290.9 L379.4 276.3 L364.3 276.3 L364.3 290.9 L379.4 290.9 Z" fill="#2f8f83" fill-opacity="0.34" stroke="#0e5b52" stroke-width="1.6" />
  <path d="M846.8 349.2 L846.8 334.7 L831.7 334.7 L831.7 349.2 L846.8 349.2 Z" fill="#2f8f83" fill-opacity="0.34" stroke="#0e5b52" stroke-width="1.6" />
  <path d="M846.8 363.8 L846.8 349.2 L831.7 349.2 L831.7 363.8 L846.8 363.8 Z" fill="#2f8f83" fill-opacity="0.34" stroke="#0e5b52" stroke-width="1.6" />
  <path d="M771.4 363.8 L771.4 349.2 L756.3 349.2 L756.3 363.8 L771.4 363.8 Z" fill="#2f8f83" fill-opacity="0.34" stroke="#0e5b52" stroke-width="1.6" />
  <path d="M771.4 349.2 L771.4 334.7 L756.3 334.7 L756.3 349.2 L771.4 349.2 Z" fill="#2f8f83" fill-opacity="0.34" stroke="#0e5b52" stroke-width="1.6" />
  <path d="M680.9 349.2 L680.9 334.7 L665.8 334.7 L665.8 349.2 L680.9 349.2 Z" fill="#2f8f83" fill-opacity="0.34" stroke="#0e5b52" stroke-width="1.6" />
  <path d="M500.0 276.3 L500.0 261.8 L484.9 261.8 L484.9 276.3 L500.0 276.3 Z" fill="#2f8f83" fill-opacity="0.34" stroke="#0e5b52" stroke-width="1.6" />
  <path d="M500.0 232.6 L500.0 218.0 L484.9 218.0 L484.9 232.6 L500.0 232.6 Z" fill="#2f8f83" fill-opacity="0.34" stroke="#0e5b52" stroke-width="1.6" />
  <path d="M288.9 276.3 L288.9 261.8 L273.8 261.8 L273.8 276.3 L288.9 276.3 Z" fill="#2f8f83" fill-opacity="0.34" stroke="#0e5b52" stroke-width="1.6" />
  <path d="M696.0 334.7 L696.0 320.1 L680.9 320.1 L680.9 334.7 L696.0 334.7 Z" fill="#2f8f83" fill-opacity="0.34" stroke="#0e5b52" stroke-width="1.6" />
  <path d="M530.2 276.3 L530.2 261.8 L515.1 261.8 L515.1 276.3 L530.2 276.3 Z" fill="#2f8f83" fill-opacity="0.34" stroke="#0e5b52" stroke-width="1.6" />
  <path d="M183.4 232.6 L183.4 218.0 L168.3 218.0 L168.3 232.6 L183.4 232.6 Z" fill="#2f8f83" fill-opacity="0.34" stroke="#0e5b52" stroke-width="1.6" />
  <path d="M168.3 261.8 L168.3 247.2 L153.2 247.2 L153.2 261.8 L168.3 261.8 Z" fill="#2f8f83" fill-opacity="0.34" stroke="#0e5b52" stroke-width="1.6" />
  <path d="M680.9 290.9 L680.9 276.3 L665.8 276.3 L665.8 290.9 L680.9 290.9 Z" fill="#2f8f83" fill-opacity="0.34" stroke="#0e5b52" stroke-width="1.6" />
  <path d="M665.8 290.9 L665.8 276.3 L650.8 276.3 L650.8 290.9 L665.8 290.9 Z" fill="#2f8f83" fill-opacity="0.34" stroke="#0e5b52" stroke-width="1.6" />
  <path d="M364.3 247.2 L364.3 232.6 L349.2 232.6 L349.2 247.2 L364.3 247.2 Z" fill="#2f8f83" fill-opacity="0.34" stroke="#0e5b52" stroke-width="1.6" />
  <path d="M243.7 305.5 L243.7 290.9 L228.6 290.9 L228.6 305.5 L243.7 305.5 Z" fill="#2f8f83" fill-opacity="0.34" stroke="#0e5b52" stroke-width="1.6" />
  <path d="M424.6 334.7 L424.6 320.1 L409.5 320.1 L409.5 334.7 L424.6 334.7 Z" fill="#2f8f83" fill-opacity="0.34" stroke="#0e5b52" stroke-width="1.6" />
  <path d="M484.9 188.8 L484.9 174.2 L469.8 174.2 L469.8 188.8 L484.9 188.8 Z" fill="#2f8f83" fill-opacity="0.34" stroke="#0e5b52" stroke-width="1.6" />
  <path d="M469.8 218.0 L469.8 203.4 L454.8 203.4 L454.8 218.0 L469.8 218.0 Z" fill="#2f8f83" fill-opacity="0.34" stroke="#0e5b52" stroke-width="1.6" />
  <path d="M816.6 320.1 L816.6 305.5 L801.5 305.5 L801.5 320.1 L816.6 320.1 Z" fill="#2f8f83" fill-opacity="0.34" stroke="#0e5b52" stroke-width="1.6" />
  <path d="M741.2 378.4 L741.2 363.8 L726.2 363.8 L726.2 378.4 L741.2 378.4 Z" fill="#2f8f83" fill-opacity="0.34" stroke="#0e5b52" stroke-width="1.6" />
  <path d="M846.8 378.4 L846.8 363.8 L831.7 363.8 L831.7 378.4 L846.8 378.4 Z" fill="#2f8f83" fill-opacity="0.34" stroke="#0e5b52" stroke-width="1.6" />
  <path d="M635.7 261.8 L635.7 247.2 L620.6 247.2 L620.6 261.8 L635.7 261.8 Z" fill="#2f8f83" fill-opacity="0.34" stroke="#0e5b52" stroke-width="1.6" />
  <path d="M756.3 393.0 L756.3 378.4 L741.2 378.4 L741.2 393.0 L756.3 393.0 Z" fill="#2f8f83" fill-opacity="0.34" stroke="#0e5b52" stroke-width="1.6" />
  <path d="M258.8 305.5 L258.8 290.9 L243.7 290.9 L243.7 305.5 L258.8 305.5 Z" fill="#2f8f83" fill-opacity="0.34" stroke="#0e5b52" stroke-width="1.6" />
  <path d="M409.5 320.1 L409.5 305.5 L394.5 305.5 L394.5 320.1 L409.5 320.1 Z" fill="#2f8f83" fill-opacity="0.34" stroke="#0e5b52" stroke-width="1.6" />
  <path d="M394.5 232.6 L394.5 218.0 L379.4 218.0 L379.4 232.6 L394.5 232.6 Z" fill="#2f8f83" fill-opacity="0.34" stroke="#0e5b52" stroke-width="1.6" />
  <path d="M424.6 247.2 L424.6 232.6 L409.5 232.6 L409.5 247.2 L424.6 247.2 Z" fill="#2f8f83" fill-opacity="0.34" stroke="#0e5b52" stroke-width="1.6" />
  <path d="M439.7 276.3 L439.7 261.8 L424.6 261.8 L424.6 276.3 L439.7 276.3 Z" fill="#2f8f83" fill-opacity="0.34" stroke="#0e5b52" stroke-width="1.6" />
  <path d="M454.8 305.5 L454.8 290.9 L439.7 290.9 L439.7 305.5 L454.8 305.5 Z" fill="#2f8f83" fill-opacity="0.34" stroke="#0e5b52" stroke-width="1.6" />
  <path d="M258.8 276.3 L258.8 261.8 L243.7 261.8 L243.7 276.3 L258.8 276.3 Z" fill="#2f8f83" fill-opacity="0.34" stroke="#0e5b52" stroke-width="1.6" />
  <path d="M560.3 261.8 L560.3 247.2 L545.2 247.2 L545.2 261.8 L560.3 261.8 Z" fill="#2f8f83" fill-opacity="0.34" stroke="#0e5b52" stroke-width="1.6" />
  <path d="M304.0 290.9 L304.0 276.3 L288.9 276.3 L288.9 290.9 L304.0 290.9 Z" fill="#2f8f83" fill-opacity="0.34" stroke="#0e5b52" stroke-width="1.6" />
  <path d="M198.5 247.2 L198.5 232.6 L183.4 232.6 L183.4 247.2 L198.5 247.2 Z" fill="#2f8f83" fill-opacity="0.34" stroke="#0e5b52" stroke-width="1.6" />
  <path d="M364.3 261.8 L364.3 247.2 L349.2 247.2 L349.2 261.8 L364.3 261.8 Z" fill="#2f8f83" fill-opacity="0.34" stroke="#0e5b52" stroke-width="1.6" />
  <path d="M756.3 334.7 L756.3 320.1 L741.2 320.1 L741.2 334.7 L756.3 334.7 Z" fill="#2f8f83" fill-opacity="0.34" stroke="#0e5b52" stroke-width="1.6" />
  <path d="M680.9 276.3 L680.9 261.8 L665.8 261.8 L665.8 276.3 L680.9 276.3 Z" fill="#2f8f83" fill-opacity="0.34" stroke="#0e5b52" stroke-width="1.6" />
  <path d="M665.8 276.3 L665.8 261.8 L650.8 261.8 L650.8 276.3 L665.8 276.3 Z" fill="#2f8f83" fill-opacity="0.34" stroke="#0e5b52" stroke-width="1.6" />
  <path d="M650.8 290.9 L650.8 276.3 L635.7 276.3 L635.7 290.9 L650.8 290.9 Z" fill="#2f8f83" fill-opacity="0.34" stroke="#0e5b52" stroke-width="1.6" />
  <path d="M741.2 334.7 L741.2 320.1 L726.2 320.1 L726.2 334.7 L741.2 334.7 Z" fill="#2f8f83" fill-opacity="0.34" stroke="#0e5b52" stroke-width="1.6" />
  <path d="M409.5 276.3 L409.5 261.8 L394.5 261.8 L394.5 276.3 L409.5 276.3 Z" fill="#2f8f83" fill-opacity="0.34" stroke="#0e5b52" stroke-width="1.6" />
  <path d="M590.5 320.1 L590.5 305.5 L575.4 305.5 L575.4 320.1 L590.5 320.1 Z" fill="#2f8f83" fill-opacity="0.34" stroke="#0e5b52" stroke-width="1.6" />
  <path d="M394.5 188.8 L394.5 174.2 L379.4 174.2 L379.4 188.8 L394.5 188.8 Z" fill="#2f8f83" fill-opacity="0.34" stroke="#0e5b52" stroke-width="1.6" />
  <path d="M454.8 188.8 L454.8 174.2 L439.7 174.2 L439.7 188.8 L454.8 188.8 Z" fill="#2f8f83" fill-opacity="0.34" stroke="#0e5b52" stroke-width="1.6" />
  <path d="M454.8 218.0 L454.8 203.4 L439.7 203.4 L439.7 218.0 L454.8 218.0 Z" fill="#2f8f83" fill-opacity="0.34" stroke="#0e5b52" stroke-width="1.6" />
  <path d="M394.5 290.9 L394.5 276.3 L379.4 276.3 L379.4 290.9 L394.5 290.9 Z" fill="#2f8f83" fill-opacity="0.34" stroke="#0e5b52" stroke-width="1.6" />
  <path d="M394.5 305.5 L394.5 290.9 L379.4 290.9 L379.4 305.5 L394.5 305.5 Z" fill="#2f8f83" fill-opacity="0.34" stroke="#0e5b52" stroke-width="1.6" />
  <path d="M394.5 247.2 L394.5 232.6 L379.4 232.6 L379.4 247.2 L394.5 247.2 Z" fill="#2f8f83" fill-opacity="0.34" stroke="#0e5b52" stroke-width="1.6" />
  <path d="M620.6 320.1 L620.6 305.5 L605.5 305.5 L605.5 320.1 L620.6 320.1 Z" fill="#2f8f83" fill-opacity="0.34" stroke="#0e5b52" stroke-width="1.6" />
  <path d="M379.4 188.8 L379.4 174.2 L364.3 174.2 L364.3 188.8 L379.4 188.8 Z" fill="#2f8f83" fill-opacity="0.34" stroke="#0e5b52" stroke-width="1.6" />
  <path d="M394.5 218.0 L394.5 203.4 L379.4 203.4 L379.4 218.0 L394.5 218.0 Z" fill="#2f8f83" fill-opacity="0.34" stroke="#0e5b52" stroke-width="1.6" />
  <path d="M786.5 363.8 L786.5 349.2 L771.4 349.2 L771.4 363.8 L786.5 363.8 Z" fill="#2f8f83" fill-opacity="0.34" stroke="#0e5b52" stroke-width="1.6" />
  <path d="M590.5 232.6 L590.5 218.0 L575.4 218.0 L575.4 232.6 L590.5 232.6 Z" fill="#2f8f83" fill-opacity="0.34" stroke="#0e5b52" stroke-width="1.6" />
  <path d="M590.5 276.3 L590.5 261.8 L575.4 261.8 L575.4 276.3 L590.5 276.3 Z" fill="#2f8f83" fill-opacity="0.34" stroke="#0e5b52" stroke-width="1.6" />
  <path d="M500.0 290.9 L500.0 276.3 L484.9 276.3 L484.9 290.9 L500.0 290.9 Z" fill="#2f8f83" fill-opacity="0.34" stroke="#0e5b52" stroke-width="1.6" />
  <path d="M183.4 247.2 L183.4 232.6 L168.3 232.6 L168.3 247.2 L183.4 247.2 Z" fill="#2f8f83" fill-opacity="0.34" stroke="#0e5b52" stroke-width="1.6" />
  <path d="M635.7 276.3 L635.7 261.8 L620.6 261.8 L620.6 276.3 L635.7 276.3 Z" fill="#2f8f83" fill-opacity="0.34" stroke="#0e5b52" stroke-width="1.6" />
  <path d="M786.5 334.7 L786.5 320.1 L771.4 320.1 L771.4 334.7 L786.5 334.7 Z" fill="#2f8f83" fill-opacity="0.34" stroke="#0e5b52" stroke-width="1.6" />
  <path d="M515.1 247.2 L515.1 232.6 L500.0 232.6 L500.0 247.2 L515.1 247.2 Z" fill="#2f8f83" fill-opacity="0.34" stroke="#0e5b52" stroke-width="1.6" />
  <path d="M650.8 349.2 L650.8 334.7 L635.7 334.7 L635.7 349.2 L650.8 349.2 Z" fill="#2f8f83" fill-opacity="0.34" stroke="#0e5b52" stroke-width="1.6" />
  <path d="M831.7 334.7 L831.7 320.1 L816.6 320.1 L816.6 334.7 L831.7 334.7 Z" fill="#2f8f83" fill-opacity="0.34" stroke="#0e5b52" stroke-width="1.6" />
  <path d="M484.9 320.1 L484.9 305.5 L469.8 305.5 L469.8 320.1 L484.9 320.1 Z" fill="#2f8f83" fill-opacity="0.34" stroke="#0e5b52" stroke-width="1.6" />
  <path d="M711.1 363.8 L711.1 349.2 L696.0 349.2 L696.0 363.8 L711.1 363.8 Z" fill="#2f8f83" fill-opacity="0.34" stroke="#0e5b52" stroke-width="1.6" />
  <path d="M620.6 276.3 L620.6 261.8 L605.5 261.8 L605.5 276.3 L620.6 276.3 Z" fill="#2f8f83" fill-opacity="0.34" stroke="#0e5b52" stroke-width="1.6" />
  <path d="M605.5 276.3 L605.5 261.8 L590.5 261.8 L590.5 276.3 L605.5 276.3 Z" fill="#2f8f83" fill-opacity="0.34" stroke="#0e5b52" stroke-width="1.6" />
  <path d="M620.6 290.9 L620.6 276.3 L605.5 276.3 L605.5 290.9 L620.6 290.9 Z" fill="#2f8f83" fill-opacity="0.34" stroke="#0e5b52" stroke-width="1.6" />
  <path d="M620.6 363.8 L620.6 349.2 L605.5 349.2 L605.5 363.8 L620.6 363.8 Z" fill="#2f8f83" fill-opacity="0.34" stroke="#0e5b52" stroke-width="1.6" />
  <path d="M665.8 378.4 L665.8 363.8 L650.8 363.8 L650.8 378.4 L665.8 378.4 Z" fill="#2f8f83" fill-opacity="0.34" stroke="#0e5b52" stroke-width="1.6" />
  <path d="M288.9 290.9 L288.9 276.3 L273.8 276.3 L273.8 290.9 L288.9 290.9 Z" fill="#2f8f83" fill-opacity="0.34" stroke="#0e5b52" stroke-width="1.6" />
  <path d="M319.1 261.8 L319.1 247.2 L304.0 247.2 L304.0 261.8 L319.1 261.8 Z" fill="#2f8f83" fill-opacity="0.34" stroke="#0e5b52" stroke-width="1.6" />
  <path d="M198.5 305.5 L198.5 290.9 L183.4 290.9 L183.4 305.5 L198.5 305.5 Z" fill="#2f8f83" fill-opacity="0.34" stroke="#0e5b52" stroke-width="1.6" />
  <path d="M364.3 334.7 L364.3 320.1 L349.2 320.1 L349.2 334.7 L364.3 334.7 Z" fill="#2f8f83" fill-opacity="0.34" stroke="#0e5b52" stroke-width="1.6" />
  <path d="M515.1 203.4 L515.1 188.8 L500.0 188.8 L500.0 203.4 L515.1 203.4 Z" fill="#2f8f83" fill-opacity="0.34" stroke="#0e5b52" stroke-width="1.6" />
  <path d="M635.7 290.9 L635.7 276.3 L620.6 276.3 L620.6 290.9 L635.7 290.9 Z" fill="#2f8f83" fill-opacity="0.34" stroke="#0e5b52" stroke-width="1.6" />
  <path d="M484.9 276.3 L484.9 261.8 L469.8 261.8 L469.8 276.3 L484.9 276.3 Z" fill="#2f8f83" fill-opacity="0.34" stroke="#0e5b52" stroke-width="1.6" />
  <path d="M273.8 261.8 L273.8 247.2 L258.8 247.2 L258.8 261.8 L273.8 261.8 Z" fill="#2f8f83" fill-opacity="0.34" stroke="#0e5b52" stroke-width="1.6" />
  <path d="M258.8 290.9 L258.8 276.3 L243.7 276.3 L243.7 290.9 L258.8 290.9 Z" fill="#2f8f83" fill-opacity="0.34" stroke="#0e5b52" stroke-width="1.6" />
  <path d="M726.2 334.7 L726.2 320.1 L711.1 320.1 L711.1 334.7 L726.2 334.7 Z" fill="#2f8f83" fill-opacity="0.34" stroke="#0e5b52" stroke-width="1.6" />
  <path d="M364.3 218.0 L364.3 203.4 L349.2 203.4 L349.2 218.0 L364.3 218.0 Z" fill="#2f8f83" fill-opacity="0.34" stroke="#0e5b52" stroke-width="1.6" />
  <path d="M454.8 276.3 L454.8 261.8 L439.7 261.8 L439.7 276.3 L454.8 276.3 Z" fill="#2f8f83" fill-opacity="0.34" stroke="#0e5b52" stroke-width="1.6" />
  <path d="M334.2 232.6 L334.2 218.0 L319.1 218.0 L319.1 232.6 L334.2 232.6 Z" fill="#2f8f83" fill-opacity="0.34" stroke="#0e5b52" stroke-width="1.6" />
  <path d="M620.6 247.2 L620.6 232.6 L605.5 232.6 L605.5 247.2 L620.6 247.2 Z" fill="#2f8f83" fill-opacity="0.34" stroke="#0e5b52" stroke-width="1.6" />
  <path d="M620.6 276.3 L620.6 261.8 L605.5 261.8 L605.5 276.3 L620.6 276.3 Z" fill="#2f8f83" fill-opacity="0.34" stroke="#0e5b52" stroke-width="1.6" />
  <path d="M771.4 334.7 L771.4 320.1 L756.3 320.1 L756.3 334.7 L771.4 334.7 Z" fill="#2f8f83" fill-opacity="0.34" stroke="#0e5b52" stroke-width="1.6" />
  <path d="M243.7 320.1 L243.7 305.5 L228.6 305.5 L228.6 320.1 L243.7 320.1 Z" fill="#2f8f83" fill-opacity="0.34" stroke="#0e5b52" stroke-width="1.6" />
  <path d="M364.3 320.1 L364.3 305.5 L349.2 305.5 L349.2 320.1 L364.3 320.1 Z" fill="#2f8f83" fill-opacity="0.34" stroke="#0e5b52" stroke-width="1.6" />
  <path d="M560.3 232.6 L560.3 218.0 L545.2 218.0 L545.2 232.6 L560.3 232.6 Z" fill="#2f8f83" fill-opacity="0.34" stroke="#0e5b52" stroke-width="1.6" />
  <path d="M560.3 247.2 L560.3 232.6 L545.2 232.6 L545.2 247.2 L560.3 247.2 Z" fill="#2f8f83" fill-opacity="0.34" stroke="#0e5b52" stroke-width="1.6" />
  <path d="M650.8 320.1 L650.8 305.5 L635.7 305.5 L635.7 320.1 L650.8 320.1 Z" fill="#2f8f83" fill-opacity="0.34" stroke="#0e5b52" stroke-width="1.6" />
  <path d="M831.7 349.2 L831.7 334.7 L816.6 334.7 L816.6 349.2 L831.7 349.2 Z" fill="#2f8f83" fill-opacity="0.34" stroke="#0e5b52" stroke-width="1.6" />
  <path d="M394.5 261.8 L394.5 247.2 L379.4 247.2 L379.4 261.8 L394.5 261.8 Z" fill="#2f8f83" fill-opacity="0.34" stroke="#0e5b52" stroke-width="1.6" />
  <path d="M696.0 349.2 L696.0 334.7 L680.9 334.7 L680.9 349.2 L696.0 349.2 Z" fill="#2f8f83" fill-opacity="0.34" stroke="#0e5b52" stroke-width="1.6" />
  <path d="M605.5 305.5 L605.5 290.9 L590.5 290.9 L590.5 305.5 L605.5 305.5 Z" fill="#2f8f83" fill-opacity="0.34" stroke="#0e5b52" stroke-width="1.6" />
  <path d="M590.5 305.5 L590.5 290.9 L575.4 290.9 L575.4 305.5 L590.5 305.5 Z" fill="#2f8f83" fill-opacity="0.34" stroke="#0e5b52" stroke-width="1.6" />
  <path d="M816.6 334.7 L816.6 320.1 L801.5 320.1 L801.5 334.7 L816.6 334.7 Z" fill="#2f8f83" fill-opacity="0.34" stroke="#0e5b52" stroke-width="1.6" />
  <path d="M801.5 378.4 L801.5 363.8 L786.5 363.8 L786.5 378.4 L801.5 378.4 Z" fill="#2f8f83" fill-opacity="0.34" stroke="#0e5b52" stroke-width="1.6" />
  <path d="M409.5 203.4 L409.5 188.8 L394.5 188.8 L394.5 203.4 L409.5 203.4 Z" fill="#2f8f83" fill-opacity="0.34" stroke="#0e5b52" stroke-width="1.6" />
  <path d="M831.7 363.8 L831.7 349.2 L816.6 349.2 L816.6 363.8 L831.7 363.8 Z" fill="#2f8f83" fill-opacity="0.34" stroke="#0e5b52" stroke-width="1.6" />
  <path d="M605.5 247.2 L605.5 232.6 L590.5 232.6 L590.5 247.2 L605.5 247.2 Z" fill="#2f8f83" fill-opacity="0.34" stroke="#0e5b52" stroke-width="1.6" />
  <path d="M590.5 247.2 L590.5 232.6 L575.4 232.6 L575.4 247.2 L590.5 247.2 Z" fill="#2f8f83" fill-opacity="0.34" stroke="#0e5b52" stroke-width="1.6" />
  <path d="M288.9 247.2 L288.9 232.6 L273.8 232.6 L273.8 247.2 L288.9 247.2 Z" fill="#2f8f83" fill-opacity="0.34" stroke="#0e5b52" stroke-width="1.6" />
  <path d="M213.5 247.2 L213.5 232.6 L198.5 232.6 L198.5 247.2 L213.5 247.2 Z" fill="#2f8f83" fill-opacity="0.34" stroke="#0e5b52" stroke-width="1.6" />
  <path d="M530.2 261.8 L530.2 247.2 L515.1 247.2 L515.1 261.8 L530.2 261.8 Z" fill="#2f8f83" fill-opacity="0.34" stroke="#0e5b52" stroke-width="1.6" />
  <path d="M530.2 290.9 L530.2 276.3 L515.1 276.3 L515.1 290.9 L530.2 290.9 Z" fill="#2f8f83" fill-opacity="0.34" stroke="#0e5b52" stroke-width="1.6" />
  <path d="M198.5 276.3 L198.5 261.8 L183.4 261.8 L183.4 276.3 L198.5 276.3 Z" fill="#2f8f83" fill-opacity="0.34" stroke="#0e5b52" stroke-width="1.6" />
  <path d="M183.4 276.3 L183.4 261.8 L168.3 261.8 L168.3 276.3 L183.4 276.3 Z" fill="#2f8f83" fill-opacity="0.34" stroke="#0e5b52" stroke-width="1.6" />
  <path d="M168.3 276.3 L168.3 261.8 L153.2 261.8 L153.2 276.3 L168.3 276.3 Z" fill="#2f8f83" fill-opacity="0.34" stroke="#0e5b52" stroke-width="1.6" />
  <path d="M364.3 188.8 L364.3 174.2 L349.2 174.2 L349.2 188.8 L364.3 188.8 Z" fill="#2f8f83" fill-opacity="0.34" stroke="#0e5b52" stroke-width="1.6" />
  <path d="M334.2 188.8 L334.2 174.2 L319.1 174.2 L319.1 188.8 L334.2 188.8 Z" fill="#2f8f83" fill-opacity="0.34" stroke="#0e5b52" stroke-width="1.6" />
  <path d="M319.1 247.2 L319.1 232.6 L304.0 232.6 L304.0 247.2 L319.1 247.2 Z" fill="#2f8f83" fill-opacity="0.34" stroke="#0e5b52" stroke-width="1.6" />
  <path d="M394.5 320.1 L394.5 305.5 L379.4 305.5 L379.4 320.1 L394.5 320.1 Z" fill="#2f8f83" fill-opacity="0.34" stroke="#0e5b52" stroke-width="1.6" />
  <path d="M379.4 320.1 L379.4 305.5 L364.3 305.5 L364.3 320.1 L379.4 320.1 Z" fill="#2f8f83" fill-opacity="0.34" stroke="#0e5b52" stroke-width="1.6" />
  <path d="M515.1 188.8 L515.1 174.2 L500.0 174.2 L500.0 188.8 L515.1 188.8 Z" fill="#2f8f83" fill-opacity="0.34" stroke="#0e5b52" stroke-width="1.6" />
  <path d="M484.9 203.4 L484.9 188.8 L469.8 188.8 L469.8 203.4 L484.9 203.4 Z" fill="#2f8f83" fill-opacity="0.34" stroke="#0e5b52" stroke-width="1.6" />
  <path d="M439.7 188.8 L439.7 174.2 L424.6 174.2 L424.6 188.8 L439.7 188.8 Z" fill="#2f8f83" fill-opacity="0.34" stroke="#0e5b52" stroke-width="1.6" />
  <path d="M424.6 290.9 L424.6 276.3 L409.5 276.3 L409.5 290.9 L424.6 290.9 Z" fill="#2f8f83" fill-opacity="0.34" stroke="#0e5b52" stroke-width="1.6" />
  <path d="M560.3 218.0 L560.3 203.4 L545.2 203.4 L545.2 218.0 L560.3 218.0 Z" fill="#2f8f83" fill-opacity="0.34" stroke="#0e5b52" stroke-width="1.6" />
  <path d="M635.7 305.5 L635.7 290.9 L620.6 290.9 L620.6 305.5 L635.7 305.5 Z" fill="#2f8f83" fill-opacity="0.34" stroke="#0e5b52" stroke-width="1.6" />
  <path d="M680.9 393.0 L680.9 378.4 L665.8 378.4 L665.8 393.0 L680.9 393.0 Z" fill="#2f8f83" fill-opacity="0.34" stroke="#0e5b52" stroke-width="1.6" />
  <path d="M319.1 188.8 L319.1 174.2 L304.0 174.2 L304.0 188.8 L319.1 188.8 Z" fill="#2f8f83" fill-opacity="0.34" stroke="#0e5b52" stroke-width="1.6" />
  <path d="M439.7 261.8 L439.7 247.2 L424.6 247.2 L424.6 261.8 L439.7 261.8 Z" fill="#2f8f83" fill-opacity="0.34" stroke="#0e5b52" stroke-width="1.6" />
  <path d="M228.6 334.7 L228.6 320.1 L213.5 320.1 L213.5 334.7 L228.6 334.7 Z" fill="#2f8f83" fill-opacity="0.34" stroke="#0e5b52" stroke-width="1.6" />
  <path d="M409.5 334.7 L409.5 320.1 L394.5 320.1 L394.5 334.7 L409.5 334.7 Z" fill="#2f8f83" fill-opacity="0.34" stroke="#0e5b52" stroke-width="1.6" />
  <path d="M469.8 188.8 L469.8 174.2 L454.8 174.2 L454.8 188.8 L469.8 188.8 Z" fill="#2f8f83" fill-opacity="0.34" stroke="#0e5b52" stroke-width="1.6" />
  <path d="M424.6 276.3 L424.6 261.8 L409.5 261.8 L409.5 276.3 L424.6 276.3 Z" fill="#2f8f83" fill-opacity="0.34" stroke="#0e5b52" stroke-width="1.6" />
  <path d="M379.4 305.5 L379.4 290.9 L364.3 290.9 L364.3 305.5 L379.4 305.5 Z" fill="#2f8f83" fill-opacity="0.34" stroke="#0e5b52" stroke-width="1.6" />
  <path d="M409.5 247.2 L409.5 232.6 L394.5 232.6 L394.5 247.2 L409.5 247.2 Z" fill="#2f8f83" fill-opacity="0.34" stroke="#0e5b52" stroke-width="1.6" />
  <path d="M816.6 349.2 L816.6 334.7 L801.5 334.7 L801.5 349.2 L816.6 349.2 Z" fill="#2f8f83" fill-opacity="0.34" stroke="#0e5b52" stroke-width="1.6" />
  <path d="M575.4 290.9 L575.4 276.3 L560.3 276.3 L560.3 290.9 L575.4 290.9 Z" fill="#2f8f83" fill-opacity="0.34" stroke="#0e5b52" stroke-width="1.6" />
  <path d="M439.7 290.9 L439.7 276.3 L424.6 276.3 L424.6 290.9 L439.7 290.9 Z" fill="#2f8f83" fill-opacity="0.34" stroke="#0e5b52" stroke-width="1.6" />
  <path d="M500.0 320.1 L500.0 305.5 L484.9 305.5 L484.9 320.1 L500.0 320.1 Z" fill="#2f8f83" fill-opacity="0.34" stroke="#0e5b52" stroke-width="1.6" />
  <path d="M816.6 363.8 L816.6 349.2 L801.5 349.2 L801.5 363.8 L816.6 363.8 Z" fill="#2f8f83" fill-opacity="0.34" stroke="#0e5b52" stroke-width="1.6" />
  <path d="M243.7 261.8 L243.7 247.2 L228.6 247.2 L228.6 261.8 L243.7 261.8 Z" fill="#2f8f83" fill-opacity="0.34" stroke="#0e5b52" stroke-width="1.6" />
  <path d="M545.2 276.3 L545.2 261.8 L530.2 261.8 L530.2 276.3 L545.2 276.3 Z" fill="#2f8f83" fill-opacity="0.34" stroke="#0e5b52" stroke-width="1.6" />
  <path d="M665.8 290.9 L665.8 276.3 L650.8 276.3 L650.8 290.9 L665.8 290.9 Z" fill="#2f8f83" fill-opacity="0.34" stroke="#0e5b52" stroke-width="1.6" />
  <path d="M364.3 232.6 L364.3 218.0 L349.2 218.0 L349.2 232.6 L364.3 232.6 Z" fill="#2f8f83" fill-opacity="0.34" stroke="#0e5b52" stroke-width="1.6" />
  <path d="M334.2 261.8 L334.2 247.2 L319.1 247.2 L319.1 261.8 L334.2 261.8 Z" fill="#2f8f83" fill-opacity="0.34" stroke="#0e5b52" stroke-width="1.6" />
  <path d="M469.8 247.2 L469.8 232.6 L454.8 232.6 L454.8 247.2 L469.8 247.2 Z" fill="#2f8f83" fill-opacity="0.34" stroke="#0e5b52" stroke-width="1.6" />
  <path d="M635.7 305.5 L635.7 290.9 L620.6 290.9 L620.6 305.5 L635.7 305.5 Z" fill="#2f8f83" fill-opacity="0.34" stroke="#0e5b52" stroke-width="1.6" />
  <path d="M680.9 290.9 L680.9 276.3 L665.8 276.3 L665.8 290.9 L680.9 290.9 Z" fill="#2f8f83" fill-opacity="0.34" stroke="#0e5b52" stroke-width="1.6" />
  <path d="M424.6 203.4 L424.6 188.8 L409.5 188.8 L409.5 203.4 L424.6 203.4 Z" fill="#2f8f83" fill-opacity="0.34" stroke="#0e5b52" stroke-width="1.6" />
  <path d="M409.5 261.8 L409.5 247.2 L394.5 247.2 L394.5 261.8 L409.5 261.8 Z" fill="#2f8f83" fill-opacity="0.34" stroke="#0e5b52" stroke-width="1.6" />
  <path d="M379.4 261.8 L379.4 247.2 L364.3 247.2 L364.3 261.8 L379.4 261.8 Z" fill="#2f8f83" fill-opacity="0.34" stroke="#0e5b52" stroke-width="1.6" />
  <path d="M620.6 334.7 L620.6 320.1 L605.5 320.1 L605.5 334.7 L620.6 334.7 Z" fill="#2f8f83" fill-opacity="0.34" stroke="#0e5b52" stroke-width="1.6" />
  <path d="M726.2 363.8 L726.2 349.2 L711.1 349.2 L711.1 363.8 L726.2 363.8 Z" fill="#2f8f83" fill-opacity="0.34" stroke="#0e5b52" stroke-width="1.6" />
  <path d="M575.4 276.3 L575.4 261.8 L560.3 261.8 L560.3 276.3 L575.4 276.3 Z" fill="#2f8f83" fill-opacity="0.34" stroke="#0e5b52" stroke-width="1.6" />
  <path d="M575.4 305.5 L575.4 290.9 L560.3 290.9 L560.3 305.5 L575.4 305.5 Z" fill="#2f8f83" fill-opacity="0.34" stroke="#0e5b52" stroke-width="1.6" />
  <path d="M635.7 290.9 L635.7 276.3 L620.6 276.3 L620.6 290.9 L635.7 290.9 Z" fill="#2f8f83" fill-opacity="0.34" stroke="#0e5b52" stroke-width="1.6" />
  <path d="M454.8 247.2 L454.8 232.6 L439.7 232.6 L439.7 247.2 L454.8 247.2 Z" fill="#2f8f83" fill-opacity="0.34" stroke="#0e5b52" stroke-width="1.6" />
  <path d="M635.7 320.1 L635.7 305.5 L620.6 305.5 L620.6 320.1 L635.7 320.1 Z" fill="#2f8f83" fill-opacity="0.34" stroke="#0e5b52" stroke-width="1.6" />
  <path d="M364.3 290.9 L364.3 276.3 L349.2 276.3 L349.2 290.9 L364.3 290.9 Z" fill="#2f8f83" fill-opacity="0.34" stroke="#0e5b52" stroke-width="1.6" />
  <path d="M756.3 378.4 L756.3 363.8 L741.2 363.8 L741.2 378.4 L756.3 378.4 Z" fill="#2f8f83" fill-opacity="0.34" stroke="#0e5b52" stroke-width="1.6" />
  <path d="M409.5 218.0 L409.5 203.4 L394.5 203.4 L394.5 218.0 L409.5 218.0 Z" fill="#2f8f83" fill-opacity="0.34" stroke="#0e5b52" stroke-width="1.6" />
  <path d="M484.9 247.2 L484.9 232.6 L469.8 232.6 L469.8 247.2 L484.9 247.2 Z" fill="#2f8f83" fill-opacity="0.34" stroke="#0e5b52" stroke-width="1.6" />
  <path d="M243.7 290.9 L243.7 276.3 L228.6 276.3 L228.6 290.9 L243.7 290.9 Z" fill="#2f8f83" fill-opacity="0.34" stroke="#0e5b52" stroke-width="1.6" />
  <path d="M258.8 334.7 L258.8 320.1 L243.7 320.1 L243.7 334.7 L258.8 334.7 Z" fill="#2f8f83" fill-opacity="0.34" stroke="#0e5b52" stroke-width="1.6" />
  <path d="M424.6 218.0 L424.6 203.4 L409.5 203.4 L409.5 218.0 L424.6 218.0 Z" fill="#2f8f83" fill-opacity="0.34" stroke="#0e5b52" stroke-width="1.6" />
  <path d="M530.2 247.2 L530.2 232.6 L515.1 232.6 L515.1 247.2 L530.2 247.2 Z" fill="#2f8f83" fill-opacity="0.34" stroke="#0e5b52" stroke-width="1.6" />
  <path d="M831.7 320.1 L831.7 305.5 L816.6 305.5 L816.6 320.1 L831.7 320.1 Z" fill="#2f8f83" fill-opacity="0.34" stroke="#0e5b52" stroke-width="1.6" />
  <path d="M469.8 305.5 L469.8 290.9 L454.8 290.9 L454.8 305.5 L469.8 305.5 Z" fill="#2f8f83" fill-opacity="0.34" stroke="#0e5b52" stroke-width="1.6" />
  <path d="M831.7 378.4 L831.7 363.8 L816.6 363.8 L816.6 378.4 L831.7 378.4 Z" fill="#2f8f83" fill-opacity="0.34" stroke="#0e5b52" stroke-width="1.6" />
  <path d="M741.2 349.2 L741.2 334.7 L726.2 334.7 L726.2 349.2 L741.2 349.2 Z" fill="#2f8f83" fill-opacity="0.34" stroke="#0e5b52" stroke-width="1.6" />
  <path d="M560.3 232.6 L560.3 218.0 L545.2 218.0 L545.2 232.6 L560.3 232.6 Z" fill="#2f8f83" fill-opacity="0.34" stroke="#0e5b52" stroke-width="1.6" />
  <path d="M258.8 261.8 L258.8 247.2 L243.7 247.2 L243.7 261.8 L258.8 261.8 Z" fill="#2f8f83" fill-opacity="0.34" stroke="#0e5b52" stroke-width="1.6" />
  <path d="M213.5 276.3 L213.5 261.8 L198.5 261.8 L198.5 276.3 L213.5 276.3 Z" fill="#2f8f83" fill-opacity="0.34" stroke="#0e5b52" stroke-width="1.6" />
  <path d="M560.3 261.8 L560.3 247.2 L545.2 247.2 L545.2 261.8 L560.3 261.8 Z" fill="#2f8f83" fill-opacity="0.34" stroke="#0e5b52" stroke-width="1.6" />
  <path d="M560.3 276.3 L560.3 261.8 L545.2 261.8 L545.2 276.3 L560.3 276.3 Z" fill="#2f8f83" fill-opacity="0.34" stroke="#0e5b52" stroke-width="1.6" />
  <path d="M545.2 290.9 L545.2 276.3 L530.2 276.3 L530.2 290.9 L545.2 290.9 Z" fill="#2f8f83" fill-opacity="0.34" stroke="#0e5b52" stroke-width="1.6" />
  <path d="M334.2 218.0 L334.2 203.4 L319.1 203.4 L319.1 218.0 L334.2 218.0 Z" fill="#2f8f83" fill-opacity="0.34" stroke="#0e5b52" stroke-width="1.6" />
  <path d="M319.1 218.0 L319.1 203.4 L304.0 203.4 L304.0 218.0 L319.1 218.0 Z" fill="#2f8f83" fill-opacity="0.34" stroke="#0e5b52" stroke-width="1.6" />
  <path d="M469.8 276.3 L469.8 261.8 L454.8 261.8 L454.8 276.3 L469.8 276.3 Z" fill="#2f8f83" fill-opacity="0.34" stroke="#0e5b52" stroke-width="1.6" />
  <path d="M439.7 320.1 L439.7 305.5 L424.6 305.5 L424.6 320.1 L439.7 320.1 Z" fill="#2f8f83" fill-opacity="0.34" stroke="#0e5b52" stroke-width="1.6" />
  <path d="M349.2 232.6 L349.2 218.0 L334.2 218.0 L334.2 232.6 L349.2 232.6 Z" fill="#2f8f83" fill-opacity="0.34" stroke="#0e5b52" stroke-width="1.6" />
  <path d="M334.2 276.3 L334.2 261.8 L319.1 261.8 L319.1 276.3 L334.2 276.3 Z" fill="#2f8f83" fill-opacity="0.34" stroke="#0e5b52" stroke-width="1.6" />
  <path d="M515.1 276.3 L515.1 261.8 L500.0 261.8 L500.0 276.3 L515.1 276.3 Z" fill="#2f8f83" fill-opacity="0.34" stroke="#0e5b52" stroke-width="1.6" />
  <path d="M515.1 290.9 L515.1 276.3 L500.0 276.3 L500.0 290.9 L515.1 290.9 Z" fill="#2f8f83" fill-opacity="0.34" stroke="#0e5b52" stroke-width="1.6" />
  <path d="M515.1 305.5 L515.1 290.9 L500.0 290.9 L500.0 305.5 L515.1 305.5 Z" fill="#2f8f83" fill-opacity="0.34" stroke="#0e5b52" stroke-width="1.6" />
  <path d="M500.0 305.5 L500.0 290.9 L484.9 290.9 L484.9 305.5 L500.0 305.5 Z" fill="#2f8f83" fill-opacity="0.34" stroke="#0e5b52" stroke-width="1.6" />
  <path d="M741.2 305.5 L741.2 290.9 L726.2 290.9 L726.2 305.5 L741.2 305.5 Z" fill="#2f8f83" fill-opacity="0.34" stroke="#0e5b52" stroke-width="1.6" />
  <path d="M756.3 305.5 L756.3 290.9 L741.2 290.9 L741.2 305.5 L756.3 305.5 Z" fill="#2f8f83" fill-opacity="0.34" stroke="#0e5b52" stroke-width="1.6" />
  <path d="M771.4 305.5 L771.4 290.9 L756.3 290.9 L756.3 305.5 L771.4 305.5 Z" fill="#2f8f83" fill-opacity="0.34" stroke="#0e5b52" stroke-width="1.6" />
  <path d="M786.5 305.5 L786.5 290.9 L771.4 290.9 L771.4 305.5 L786.5 305.5 Z" fill="#2f8f83" fill-opacity="0.34" stroke="#0e5b52" stroke-width="1.6" />
  <path d="M786.5 320.1 L786.5 305.5 L771.4 305.5 L771.4 320.1 L786.5 320.1 Z" fill="#2f8f83" fill-opacity="0.34" stroke="#0e5b52" stroke-width="1.6" />
  <path d="M696.0 407.5 L696.0 393.0 L680.9 393.0 L680.9 407.5 L696.0 407.5 Z" fill="#2f8f83" fill-opacity="0.34" stroke="#0e5b52" stroke-width="1.6" />
  <path d="M711.1 393.0 L711.1 378.4 L696.0 378.4 L696.0 393.0 L711.1 393.0 Z" fill="#2f8f83" fill-opacity="0.34" stroke="#0e5b52" stroke-width="1.6" />
  <path d="M741.2 393.0 L741.2 378.4 L726.2 378.4 L726.2 393.0 L741.2 393.0 Z" fill="#2f8f83" fill-opacity="0.34" stroke="#0e5b52" stroke-width="1.6" />
  <path d="M635.7 393.0 L635.7 378.4 L620.6 378.4 L620.6 393.0 L635.7 393.0 Z" fill="#2f8f83" fill-opacity="0.34" stroke="#0e5b52" stroke-width="1.6" />
  <path d="M665.8 407.5 L665.8 393.0 L650.8 393.0 L650.8 407.5 L665.8 407.5 Z" fill="#2f8f83" fill-opacity="0.34" stroke="#0e5b52" stroke-width="1.6" />
  <path d="M680.9 407.5 L680.9 393.0 L665.8 393.0 L665.8 407.5 L680.9 407.5 Z" fill="#2f8f83" fill-opacity="0.34" stroke="#0e5b52" stroke-width="1.6" />
  <path d="M726.2 393.0 L726.2 378.4 L711.1 378.4 L711.1 393.0 L726.2 393.0 Z" fill="#2f8f83" fill-opacity="0.34" stroke="#0e5b52" stroke-width="1.6" />
  <path d="M635.7 407.5 L635.7 393.0 L620.6 393.0 L620.6 407.5 L635.7 407.5 Z" fill="#2f8f83" fill-opacity="0.34" stroke="#0e5b52" stroke-width="1.6" />
  <path d="M650.8 393.0 L650.8 378.4 L635.7 378.4 L635.7 393.0 L650.8 393.0 Z" fill="#2f8f83" fill-opacity="0.34" stroke="#0e5b52" stroke-width="1.6" />
  <path d="M711.1 407.5 L711.1 393.0 L696.0 393.0 L696.0 407.5 L711.1 407.5 Z" fill="#2f8f83" fill-opacity="0.34" stroke="#0e5b52" stroke-width="1.6" />
  <path d="M620.6 407.5 L620.6 393.0 L605.5 393.0 L605.5 407.5 L620.6 407.5 Z" fill="#2f8f83" fill-opacity="0.34" stroke="#0e5b52" stroke-width="1.6" />
  <path d="M620.6 393.0 L620.6 378.4 L605.5 378.4 L605.5 393.0 L620.6 393.0 Z" fill="#2f8f83" fill-opacity="0.34" stroke="#0e5b52" stroke-width="1.6" />
  <path d="M650.8 407.5 L650.8 393.0 L635.7 393.0 L635.7 407.5 L650.8 407.5 Z" fill="#2f8f83" fill-opacity="0.34" stroke="#0e5b52" stroke-width="1.6" />
  <path d="M726.2 407.5 L726.2 393.0 L711.1 393.0 L711.1 407.5 L726.2 407.5 Z" fill="#2f8f83" fill-opacity="0.34" stroke="#0e5b52" stroke-width="1.6" />
  <path d="M741.2 407.5 L741.2 393.0 L726.2 393.0 L726.2 407.5 L741.2 407.5 Z" fill="#2f8f83" fill-opacity="0.34" stroke="#0e5b52" stroke-width="1.6" />
  <path d="M801.5 393.0 L801.5 378.4 L786.5 378.4 L786.5 393.0 L801.5 393.0 Z" fill="#2f8f83" fill-opacity="0.34" stroke="#0e5b52" stroke-width="1.6" />
  <path d="M816.6 393.0 L816.6 378.4 L801.5 378.4 L801.5 393.0 L816.6 393.0 Z" fill="#2f8f83" fill-opacity="0.34" stroke="#0e5b52" stroke-width="1.6" />
  <path d="M771.4 407.5 L771.4 393.0 L756.3 393.0 L756.3 407.5 L771.4 407.5 Z" fill="#2f8f83" fill-opacity="0.34" stroke="#0e5b52" stroke-width="1.6" />
  <path d="M786.5 407.5 L786.5 393.0 L771.4 393.0 L771.4 407.5 L786.5 407.5 Z" fill="#2f8f83" fill-opacity="0.34" stroke="#0e5b52" stroke-width="1.6" />
  <path d="M801.5 407.5 L801.5 393.0 L786.5 393.0 L786.5 407.5 L801.5 407.5 Z" fill="#2f8f83" fill-opacity="0.34" stroke="#0e5b52" stroke-width="1.6" />
  <path d="M816.6 407.5 L816.6 393.0 L801.5 393.0 L801.5 407.5 L816.6 407.5 Z" fill="#2f8f83" fill-opacity="0.34" stroke="#0e5b52" stroke-width="1.6" />
  <path d="M771.4 422.1 L771.4 407.5 L756.3 407.5 L756.3 422.1 L771.4 422.1 Z" fill="#2f8f83" fill-opacity="0.34" stroke="#0e5b52" stroke-width="1.6" />
  <path d="M756.3 422.1 L756.3 407.5 L741.2 407.5 L741.2 422.1 L756.3 422.1 Z" fill="#2f8f83" fill-opacity="0.34" stroke="#0e5b52" stroke-width="1.6" />
  <path d="M756.3 407.5 L756.3 393.0 L741.2 393.0 L741.2 407.5 L756.3 407.5 Z" fill="#2f8f83" fill-opacity="0.34" stroke="#0e5b52" stroke-width="1.6" />
  <path d="M771.4 436.7 L771.4 422.1 L756.3 422.1 L756.3 436.7 L771.4 436.7 Z" fill="#2f8f83" fill-opacity="0.34" stroke="#0e5b52" stroke-width="1.6" />
  <path d="M801.5 436.7 L801.5 422.1 L786.5 422.1 L786.5 436.7 L801.5 436.7 Z" fill="#2f8f83" fill-opacity="0.34" stroke="#0e5b52" stroke-width="1.6" />
  <path d="M801.5 422.1 L801.5 407.5 L786.5 407.5 L786.5 422.1 L801.5 422.1 Z" fill="#2f8f83" fill-opacity="0.34" stroke="#0e5b52" stroke-width="1.6" />
  <path d="M816.6 436.7 L816.6 422.1 L801.5 422.1 L801.5 436.7 L816.6 436.7 Z" fill="#2f8f83" fill-opacity="0.34" stroke="#0e5b52" stroke-width="1.6" />
  <path d="M786.5 436.7 L786.5 422.1 L771.4 422.1 L771.4 436.7 L786.5 436.7 Z" fill="#2f8f83" fill-opacity="0.34" stroke="#0e5b52" stroke-width="1.6" />
  <path d="M786.5 422.1 L786.5 407.5 L771.4 407.5 L771.4 422.1 L786.5 422.1 Z" fill="#2f8f83" fill-opacity="0.34" stroke="#0e5b52" stroke-width="1.6" />
  <path d="M816.6 422.1 L816.6 407.5 L801.5 407.5 L801.5 422.1 L816.6 422.1 Z" fill="#2f8f83" fill-opacity="0.34" stroke="#0e5b52" stroke-width="1.6" />
  <path d="M680.9 436.7 L680.9 422.1 L665.8 422.1 L665.8 436.7 L680.9 436.7 Z" fill="#2f8f83" fill-opacity="0.34" stroke="#0e5b52" stroke-width="1.6" />
  <path d="M711.1 451.2 L711.1 436.7 L696.0 436.7 L696.0 451.2 L711.1 451.2 Z" fill="#2f8f83" fill-opacity="0.34" stroke="#0e5b52" stroke-width="1.6" />
  <path d="M726.2 436.7 L726.2 422.1 L711.1 422.1 L711.1 436.7 L726.2 436.7 Z" fill="#2f8f83" fill-opacity="0.34" stroke="#0e5b52" stroke-width="1.6" />
  <path d="M741.2 422.1 L741.2 407.5 L726.2 407.5 L726.2 422.1 L741.2 422.1 Z" fill="#2f8f83" fill-opacity="0.34" stroke="#0e5b52" stroke-width="1.6" />
  <path d="M756.3 451.2 L756.3 436.7 L741.2 436.7 L741.2 451.2 L756.3 451.2 Z" fill="#2f8f83" fill-opacity="0.34" stroke="#0e5b52" stroke-width="1.6" />
  <path d="M680.9 451.2 L680.9 436.7 L665.8 436.7 L665.8 451.2 L680.9 451.2 Z" fill="#2f8f83" fill-opacity="0.34" stroke="#0e5b52" stroke-width="1.6" />
  <path d="M696.0 436.7 L696.0 422.1 L680.9 422.1 L680.9 436.7 L696.0 436.7 Z" fill="#2f8f83" fill-opacity="0.34" stroke="#0e5b52" stroke-width="1.6" />
  <path d="M711.1 422.1 L711.1 407.5 L696.0 407.5 L696.0 422.1 L711.1 422.1 Z" fill="#2f8f83" fill-opacity="0.34" stroke="#0e5b52" stroke-width="1.6" />
  <path d="M771.4 451.2 L771.4 436.7 L756.3 436.7 L756.3 451.2 L771.4 451.2 Z" fill="#2f8f83" fill-opacity="0.34" stroke="#0e5b52" stroke-width="1.6" />
  <path d="M696.0 451.2 L696.0 436.7 L680.9 436.7 L680.9 451.2 L696.0 451.2 Z" fill="#2f8f83" fill-opacity="0.34" stroke="#0e5b52" stroke-width="1.6" />
  <path d="M741.2 451.2 L741.2 436.7 L726.2 436.7 L726.2 451.2 L741.2 451.2 Z" fill="#2f8f83" fill-opacity="0.34" stroke="#0e5b52" stroke-width="1.6" />
  <path d="M816.6 465.8 L816.6 451.2 L801.5 451.2 L801.5 465.8 L816.6 465.8 Z" fill="#2f8f83" fill-opacity="0.34" stroke="#0e5b52" stroke-width="1.6" />
  <path d="M816.6 451.2 L816.6 436.7 L801.5 436.7 L801.5 451.2 L816.6 451.2 Z" fill="#2f8f83" fill-opacity="0.34" stroke="#0e5b52" stroke-width="1.6" />
  <path d="M650.8 451.2 L650.8 436.7 L635.7 436.7 L635.7 451.2 L650.8 451.2 Z" fill="#2f8f83" fill-opacity="0.34" stroke="#0e5b52" stroke-width="1.6" />
  <path d="M650.8 436.7 L650.8 422.1 L635.7 422.1 L635.7 436.7 L650.8 436.7 Z" fill="#2f8f83" fill-opacity="0.34" stroke="#0e5b52" stroke-width="1.6" />
  <path d="M650.8 422.1 L650.8 407.5 L635.7 407.5 L635.7 422.1 L650.8 422.1 Z" fill="#2f8f83" fill-opacity="0.34" stroke="#0e5b52" stroke-width="1.6" />
  <path d="M665.8 436.7 L665.8 422.1 L650.8 422.1 L650.8 436.7 L665.8 436.7 Z" fill="#2f8f83" fill-opacity="0.34" stroke="#0e5b52" stroke-width="1.6" />
  <path d="M696.0 422.1 L696.0 407.5 L680.9 407.5 L680.9 422.1 L696.0 422.1 Z" fill="#2f8f83" fill-opacity="0.34" stroke="#0e5b52" stroke-width="1.6" />
  <path d="M786.5 451.2 L786.5 436.7 L771.4 436.7 L771.4 451.2 L786.5 451.2 Z" fill="#2f8f83" fill-opacity="0.34" stroke="#0e5b52" stroke-width="1.6" />
  <path d="M680.9 422.1 L680.9 407.5 L665.8 407.5 L665.8 422.1 L680.9 422.1 Z" fill="#2f8f83" fill-opacity="0.34" stroke="#0e5b52" stroke-width="1.6" />
  <path d="M726.2 422.1 L726.2 407.5 L711.1 407.5 L711.1 422.1 L726.2 422.1 Z" fill="#2f8f83" fill-opacity="0.34" stroke="#0e5b52" stroke-width="1.6" />
  <path d="M831.7 451.2 L831.7 436.7 L816.6 436.7 L816.6 451.2 L831.7 451.2 Z" fill="#2f8f83" fill-opacity="0.34" stroke="#0e5b52" stroke-width="1.6" />
  <path d="M665.8 451.2 L665.8 436.7 L650.8 436.7 L650.8 451.2 L665.8 451.2 Z" fill="#2f8f83" fill-opacity="0.34" stroke="#0e5b52" stroke-width="1.6" />
  <path d="M665.8 422.1 L665.8 407.5 L650.8 407.5 L650.8 422.1 L665.8 422.1 Z" fill="#2f8f83" fill-opacity="0.34" stroke="#0e5b52" stroke-width="1.6" />
  <path d="M711.1 436.7 L711.1 422.1 L696.0 422.1 L696.0 436.7 L711.1 436.7 Z" fill="#2f8f83" fill-opacity="0.34" stroke="#0e5b52" stroke-width="1.6" />
  <path d="M726.2 451.2 L726.2 436.7 L711.1 436.7 L711.1 451.2 L726.2 451.2 Z" fill="#2f8f83" fill-opacity="0.34" stroke="#0e5b52" stroke-width="1.6" />
  <path d="M741.2 436.7 L741.2 422.1 L726.2 422.1 L726.2 436.7 L741.2 436.7 Z" fill="#2f8f83" fill-opacity="0.34" stroke="#0e5b52" stroke-width="1.6" />
  <path d="M801.5 451.2 L801.5 436.7 L786.5 436.7 L786.5 451.2 L801.5 451.2 Z" fill="#2f8f83" fill-opacity="0.34" stroke="#0e5b52" stroke-width="1.6" />
  <path d="M831.7 465.8 L831.7 451.2 L816.6 451.2 L816.6 465.8 L831.7 465.8 Z" fill="#2f8f83" fill-opacity="0.34" stroke="#0e5b52" stroke-width="1.6" />
  <path d="M484.9 334.7 L484.9 320.1 L469.8 320.1 L469.8 334.7 L484.9 334.7 Z" fill="#2f8f83" fill-opacity="0.34" stroke="#0e5b52" stroke-width="1.6" />
  <path d="M545.2 320.1 L545.2 305.5 L530.2 305.5 L530.2 320.1 L545.2 320.1 Z" fill="#2f8f83" fill-opacity="0.34" stroke="#0e5b52" stroke-width="1.6" />
  <path d="M575.4 349.2 L575.4 334.7 L560.3 334.7 L560.3 349.2 L575.4 349.2 Z" fill="#2f8f83" fill-opacity="0.34" stroke="#0e5b52" stroke-width="1.6" />
  <path d="M469.8 363.8 L469.8 349.2 L454.8 349.2 L454.8 363.8 L469.8 363.8 Z" fill="#2f8f83" fill-opacity="0.34" stroke="#0e5b52" stroke-width="1.6" />
  <path d="M409.5 349.2 L409.5 334.7 L394.5 334.7 L394.5 349.2 L409.5 349.2 Z" fill="#2f8f83" fill-opacity="0.34" stroke="#0e5b52" stroke-width="1.6" />
  <path d="M424.6 349.2 L424.6 334.7 L409.5 334.7 L409.5 349.2 L424.6 349.2 Z" fill="#2f8f83" fill-opacity="0.34" stroke="#0e5b52" stroke-width="1.6" />
  <path d="M454.8 334.7 L454.8 320.1 L439.7 320.1 L439.7 334.7 L454.8 334.7 Z" fill="#2f8f83" fill-opacity="0.34" stroke="#0e5b52" stroke-width="1.6" />
  <path d="M590.5 349.2 L590.5 334.7 L575.4 334.7 L575.4 349.2 L590.5 349.2 Z" fill="#2f8f83" fill-opacity="0.34" stroke="#0e5b52" stroke-width="1.6" />
  <path d="M605.5 363.8 L605.5 349.2 L590.5 349.2 L590.5 363.8 L605.5 363.8 Z" fill="#2f8f83" fill-opacity="0.34" stroke="#0e5b52" stroke-width="1.6" />
  <path d="M605.5 334.7 L605.5 320.1 L590.5 320.1 L590.5 334.7 L605.5 334.7 Z" fill="#2f8f83" fill-opacity="0.34" stroke="#0e5b52" stroke-width="1.6" />
  <path d="M454.8 363.8 L454.8 349.2 L439.7 349.2 L439.7 363.8 L454.8 363.8 Z" fill="#2f8f83" fill-opacity="0.34" stroke="#0e5b52" stroke-width="1.6" />
  <path d="M469.8 349.2 L469.8 334.7 L454.8 334.7 L454.8 349.2 L469.8 349.2 Z" fill="#2f8f83" fill-opacity="0.34" stroke="#0e5b52" stroke-width="1.6" />
  <path d="M500.0 334.7 L500.0 320.1 L484.9 320.1 L484.9 334.7 L500.0 334.7 Z" fill="#2f8f83" fill-opacity="0.34" stroke="#0e5b52" stroke-width="1.6" />
  <path d="M424.6 363.8 L424.6 349.2 L409.5 349.2 L409.5 363.8 L424.6 363.8 Z" fill="#2f8f83" fill-opacity="0.34" stroke="#0e5b52" stroke-width="1.6" />
  <path d="M439.7 334.7 L439.7 320.1 L424.6 320.1 L424.6 334.7 L439.7 334.7 Z" fill="#2f8f83" fill-opacity="0.34" stroke="#0e5b52" stroke-width="1.6" />
  <path d="M454.8 349.2 L454.8 334.7 L439.7 334.7 L439.7 349.2 L454.8 349.2 Z" fill="#2f8f83" fill-opacity="0.34" stroke="#0e5b52" stroke-width="1.6" />
  <path d="M515.1 363.8 L515.1 349.2 L500.0 349.2 L500.0 363.8 L515.1 363.8 Z" fill="#2f8f83" fill-opacity="0.34" stroke="#0e5b52" stroke-width="1.6" />
  <path d="M530.2 349.2 L530.2 334.7 L515.1 334.7 L515.1 349.2 L530.2 349.2 Z" fill="#2f8f83" fill-opacity="0.34" stroke="#0e5b52" stroke-width="1.6" />
  <path d="M545.2 363.8 L545.2 349.2 L530.2 349.2 L530.2 363.8 L545.2 363.8 Z" fill="#2f8f83" fill-opacity="0.34" stroke="#0e5b52" stroke-width="1.6" />
  <path d="M545.2 349.2 L545.2 334.7 L530.2 334.7 L530.2 349.2 L545.2 349.2 Z" fill="#2f8f83" fill-opacity="0.34" stroke="#0e5b52" stroke-width="1.6" />
  <path d="M590.5 363.8 L590.5 349.2 L575.4 349.2 L575.4 363.8 L590.5 363.8 Z" fill="#2f8f83" fill-opacity="0.34" stroke="#0e5b52" stroke-width="1.6" />
  <path d="M484.9 363.8 L484.9 349.2 L469.8 349.2 L469.8 363.8 L484.9 363.8 Z" fill="#2f8f83" fill-opacity="0.34" stroke="#0e5b52" stroke-width="1.6" />
  <path d="M484.9 349.2 L484.9 334.7 L469.8 334.7 L469.8 349.2 L484.9 349.2 Z" fill="#2f8f83" fill-opacity="0.34" stroke="#0e5b52" stroke-width="1.6" />
  <path d="M500.0 349.2 L500.0 334.7 L484.9 334.7 L484.9 349.2 L500.0 349.2 Z" fill="#2f8f83" fill-opacity="0.34" stroke="#0e5b52" stroke-width="1.6" />
  <path d="M515.1 349.2 L515.1 334.7 L500.0 334.7 L500.0 349.2 L515.1 349.2 Z" fill="#2f8f83" fill-opacity="0.34" stroke="#0e5b52" stroke-width="1.6" />
  <path d="M530.2 320.1 L530.2 305.5 L515.1 305.5 L515.1 320.1 L530.2 320.1 Z" fill="#2f8f83" fill-opacity="0.34" stroke="#0e5b52" stroke-width="1.6" />
  <path d="M439.7 363.8 L439.7 349.2 L424.6 349.2 L424.6 363.8 L439.7 363.8 Z" fill="#2f8f83" fill-opacity="0.34" stroke="#0e5b52" stroke-width="1.6" />
  <path d="M439.7 349.2 L439.7 334.7 L424.6 334.7 L424.6 349.2 L439.7 349.2 Z" fill="#2f8f83" fill-opacity="0.34" stroke="#0e5b52" stroke-width="1.6" />
  <path d="M500.0 363.8 L500.0 349.2 L484.9 349.2 L484.9 363.8 L500.0 363.8 Z" fill="#2f8f83" fill-opacity="0.34" stroke="#0e5b52" stroke-width="1.6" />
  <path d="M515.1 320.1 L515.1 305.5 L500.0 305.5 L500.0 320.1 L515.1 320.1 Z" fill="#2f8f83" fill-opacity="0.34" stroke="#0e5b52" stroke-width="1.6" />
  <path d="M530.2 363.8 L530.2 349.2 L515.1 349.2 L515.1 363.8 L530.2 363.8 Z" fill="#2f8f83" fill-opacity="0.34" stroke="#0e5b52" stroke-width="1.6" />
  <path d="M545.2 334.7 L545.2 320.1 L530.2 320.1 L530.2 334.7 L545.2 334.7 Z" fill="#2f8f83" fill-opacity="0.34" stroke="#0e5b52" stroke-width="1.6" />
  <path d="M560.3 363.8 L560.3 349.2 L545.2 349.2 L545.2 363.8 L560.3 363.8 Z" fill="#2f8f83" fill-opacity="0.34" stroke="#0e5b52" stroke-width="1.6" />
  <path d="M560.3 349.2 L560.3 334.7 L545.2 334.7 L545.2 349.2 L560.3 349.2 Z" fill="#2f8f83" fill-opacity="0.34" stroke="#0e5b52" stroke-width="1.6" />
  <path d="M575.4 363.8 L575.4 349.2 L560.3 349.2 L560.3 363.8 L575.4 363.8 Z" fill="#2f8f83" fill-opacity="0.34" stroke="#0e5b52" stroke-width="1.6" />
  <path d="M575.4 334.7 L575.4 320.1 L560.3 320.1 L560.3 334.7 L575.4 334.7 Z" fill="#2f8f83" fill-opacity="0.34" stroke="#0e5b52" stroke-width="1.6" />
  <path d="M590.5 334.7 L590.5 320.1 L575.4 320.1 L575.4 334.7 L590.5 334.7 Z" fill="#2f8f83" fill-opacity="0.34" stroke="#0e5b52" stroke-width="1.6" />
  <path d="M409.5 363.8 L409.5 349.2 L394.5 349.2 L394.5 363.8 L409.5 363.8 Z" fill="#2f8f83" fill-opacity="0.34" stroke="#0e5b52" stroke-width="1.6" />
  <path d="M469.8 334.7 L469.8 320.1 L454.8 320.1 L454.8 334.7 L469.8 334.7 Z" fill="#2f8f83" fill-opacity="0.34" stroke="#0e5b52" stroke-width="1.6" />
  <path d="M515.1 334.7 L515.1 320.1 L500.0 320.1 L500.0 334.7 L515.1 334.7 Z" fill="#2f8f83" fill-opacity="0.34" stroke="#0e5b52" stroke-width="1.6" />
  <path d="M530.2 334.7 L530.2 320.1 L515.1 320.1 L515.1 334.7 L530.2 334.7 Z" fill="#2f8f83" fill-opacity="0.34" stroke="#0e5b52" stroke-width="1.6" />
  <path d="M560.3 334.7 L560.3 320.1 L545.2 320.1 L545.2 334.7 L560.3 334.7 Z" fill="#2f8f83" fill-opacity="0.34" stroke="#0e5b52" stroke-width="1.6" />
  <path d="M605.5 349.2 L605.5 334.7 L590.5 334.7 L590.5 349.2 L605.5 349.2 Z" fill="#2f8f83" fill-opacity="0.34" stroke="#0e5b52" stroke-width="1.6" />
  <path d="M756.3 436.7 L756.3 422.1 L741.2 422.1 L741.2 436.7 L756.3 436.7 Z" fill="#2f8f83" fill-opacity="0.34" stroke="#0e5b52" stroke-width="1.6" />
  <!-- title strip -->
  <rect x="0" y="0" width="1000" height="54" fill="#173042" />
  <text x="20" y="34" font-size="21" font-weight="bold" fill="#ffffff">Grid Metals Corp. — Mineral Claims</text>
  <text x="980" y="34" font-size="15" fill="#cfe3df" text-anchor="end">GRDM</text>
  <!-- scale bar -->
  <g transform="translate(802.8459411346862, 596)">
    <rect x="0" y="0" width="78.57702943265693" height="8" fill="#173042" />
    <rect x="78.57702943265693" y="0" width="78.57702943265693" height="8" fill="#ffffff" stroke="#173042" stroke-width="1" />
    <text x="78.57702943265693" y="-6" font-size="12" fill="#173042" text-anchor="middle">5 km</text>
  </g>
  <!-- north arrow -->
  <g transform="translate(956, 92)">
    <circle r="17" fill="#ffffff" stroke="#b9b09a" />
    <path d="M0 -10 L5 7 L0 3 L-5 7 Z" fill="#173042" />
    <text y="14" font-size="9" font-weight="bold" fill="#173042" text-anchor="middle">N</text>
  </g>
  <!-- watermark -->
  <text x="20" y="620" font-size="13" fill="#7d8b8a">Map by Exploration Maps — explorationmaps.com</text>
</svg>