<svg xmlns="http://www.w3.org/2000/svg" viewBox="0 0 1000 640" font-family="Arial, Helvetica, sans-serif">
  <rect width="1000" height="640" fill="#f3efe6" />
  <line x1="200" y1="0" x2="200" y2="640" stroke="#d9d2c0" stroke-width="0.7" />
  <line x1="0" y1="128" x2="1000" y2="128" stroke="#d9d2c0" stroke-width="0.7" />
  <line x1="400" y1="0" x2="400" y2="640" stroke="#d9d2c0" stroke-width="0.7" />
  <line x1="0" y1="256" x2="1000" y2="256" stroke="#d9d2c0" stroke-width="0.7" />
  <line x1="600" y1="0" x2="600" y2="640" stroke="#d9d2c0" stroke-width="0.7" />
  <line x1="0" y1="384" x2="1000" y2="384" stroke="#d9d2c0" stroke-width="0.7" />
  <line x1="800" y1="0" x2="800" y2="640" stroke="#d9d2c0" stroke-width="0.7" />
  <line x1="0" y1="512" x2="1000" y2="512" stroke="#d9d2c0" stroke-width="0.7" />
  <path d="M648.5 306.9 L656.0 306.9 L663.4 306.9 L670.9 306.9 L678.3 306.9 L678.3 298.0 L670.9 298.0 L663.4 298.0 L656.0 298.0 L648.5 298.0 L641.1 298.0 L641.1 306.9 L648.5 306.9 Z" fill="#2f8f83" fill-opacity="0.34" stroke="#0e5b52" stroke-width="1.6" />
  <path d="M708.2 433.5 L703.7 433.5 L703.7 442.3 L712.5 442.3 L712.5 433.5 L708.2 433.5 Z" fill="#2f8f83" fill-opacity="0.34" stroke="#0e5b52" stroke-width="1.6" />
  <path d="M703.7 433.5 L694.9 433.5 L694.9 440.8 L694.9 442.3 L703.7 442.3 L703.7 433.5 Z" fill="#2f8f83" fill-opacity="0.34" stroke="#0e5b52" stroke-width="1.6" />
  <path d="M712.5 442.3 L703.7 442.3 L703.7 451.1 L712.5 451.1 L712.5 444.6 L712.5 442.3 Z" fill="#2f8f83" fill-opacity="0.34" stroke="#0e5b52" stroke-width="1.6" />
  <path d="M703.7 442.3 L694.9 442.3 L694.9 451.1 L703.7 451.1 L703.7 442.3 Z" fill="#2f8f83" fill-opacity="0.34" stroke="#0e5b52" stroke-width="1.6" />
  <path d="M712.5 451.1 L703.7 451.1 L703.7 459.9 L707.0 459.9 L712.5 459.9 L712.5 451.1 Z" fill="#2f8f83" fill-opacity="0.34" stroke="#0e5b52" stroke-width="1.6" />
  <path d="M703.7 451.1 L694.9 451.1 L694.9 459.9 L703.7 459.9 L703.7 451.1 Z" fill="#2f8f83" fill-opacity="0.34" stroke="#0e5b52" stroke-width="1.6" />
  <path d="M723.9 444.6 L712.5 444.6 L712.5 451.1 L712.5 459.9 L707.0 459.9 L707.0 479.4 L707.0 483.2 L723.9 483.2 L723.9 444.6 Z" fill="#2f8f83" fill-opacity="0.34" stroke="#0e5b52" stroke-width="1.6" />
  <path d="M723.9 483.2 L707.0 483.2 L707.0 488.1 L700.8 488.1 L700.9 511.8 L695.6 511.8 L695.6 517.9 L695.1 517.9 L695.1 521.7 L695.1 521.7 L723.9 521.7 L723.9 483.2 Z" fill="#2f8f83" fill-opacity="0.34" stroke="#0e5b52" stroke-width="1.6" />
  <path d="M630.3 233.9 L577.3 233.9 L577.3 233.9 L577.3 253.3 L635.2 253.2 L635.2 233.9 L630.3 233.9 Z" fill="#2f8f83" fill-opacity="0.34" stroke="#0e5b52" stroke-width="1.6" />
  <path d="M635.2 253.2 L577.3 253.3 L577.3 254.3 L577.3 271.4 L577.3 282.3 L587.1 282.3 L609.5 282.2 L609.5 274.1 L635.2 274.1 L635.2 267.7 L635.2 253.2 Z" fill="#2f8f83" fill-opacity="0.34" stroke="#0e5b52" stroke-width="1.6" />
  <path d="M635.2 274.1 L609.5 274.1 L609.5 282.2 L609.5 293.4 L638.5 293.4 L638.5 274.1 L635.2 274.1 Z" fill="#2f8f83" fill-opacity="0.34" stroke="#0e5b52" stroke-width="1.6" />
  <path d="M638.5 293.4 L609.5 293.4 L609.5 310.0 L609.5 332.1 L616.0 332.1 L638.5 332.1 L638.5 326.9 L638.5 311.9 L638.5 306.3 L638.5 293.4 Z" fill="#2f8f83" fill-opacity="0.34" stroke="#0e5b52" stroke-width="1.6" />
  <path d="M635.2 229.0 L630.3 229.0 L630.3 233.9 L635.2 233.9 L635.2 253.2 L635.2 267.7 L678.6 267.7 L678.6 229.0 L635.2 229.0 Z" fill="#2f8f83" fill-opacity="0.34" stroke="#0e5b52" stroke-width="1.6" />
  <path d="M678.6 267.7 L635.2 267.7 L635.2 274.1 L638.5 274.1 L638.5 293.4 L638.5 306.3 L678.6 306.3 L678.6 267.7 Z" fill="#2f8f83" fill-opacity="0.34" stroke="#0e5b52" stroke-width="1.6" />
  <path d="M717.1 267.7 L717.2 219.3 L678.6 219.3 L678.6 229.0 L678.6 267.7 L717.1 267.7 Z" fill="#2f8f83" fill-opacity="0.34" stroke="#0e5b52" stroke-width="1.6" />
  <path d="M717.1 267.7 L678.6 267.7 L678.6 306.3 L678.6 306.4 L678.6 316.0 L685.4 316.0 L714.3 316.0 L717.1 316.0 L717.1 312.1 L717.1 283.1 L717.1 267.7 Z" fill="#2f8f83" fill-opacity="0.34" stroke="#0e5b52" stroke-width="1.6" />
  <path d="M577.3 271.4 L548.5 271.5 L548.5 271.5 L548.5 310.0 L587.1 310.0 L587.1 282.3 L577.3 282.3 L577.3 271.4 L577.3 271.4 Z" fill="#2f8f83" fill-opacity="0.34" stroke="#0e5b52" stroke-width="1.6" />
  <path d="M609.5 282.2 L587.1 282.3 L587.1 310.0 L609.5 310.0 L609.5 293.4 L609.5 282.2 Z" fill="#2f8f83" fill-opacity="0.34" stroke="#0e5b52" stroke-width="1.6" />
  <path d="M587.1 310.0 L548.5 310.0 L548.5 310.1 L548.6 344.4 L548.6 348.7 L576.7 348.7 L587.1 348.7 L587.1 310.0 Z" fill="#2f8f83" fill-opacity="0.34" stroke="#0e5b52" stroke-width="1.6" />
  <path d="M609.5 310.0 L587.1 310.0 L587.1 348.7 L615.3 348.7 L616.0 348.7 L616.0 332.1 L609.5 332.1 L609.5 310.0 Z" fill="#2f8f83" fill-opacity="0.34" stroke="#0e5b52" stroke-width="1.6" />
  <path d="M484.7 351.7 L484.7 360.7 L492.1 360.7 L499.6 360.7 L499.6 351.7 L499.6 342.8 L499.6 333.8 L499.6 324.9 L499.6 315.9 L499.6 306.9 L499.6 298.0 L499.6 289.0 L499.6 280.1 L499.6 271.1 L492.1 271.1 L484.7 271.1 L484.7 280.1 L484.7 289.0 L484.7 298.0 L484.7 306.9 L484.7 315.9 L484.7 324.9 L484.7 333.8 L484.7 342.8 L484.7 351.7 Z" fill="#2f8f83" fill-opacity="0.34" stroke="#0e5b52" stroke-width="1.6" />
  <path d="M462.3 280.0 L462.3 289.0 L469.8 289.0 L469.8 298.0 L469.8 306.9 L469.8 315.9 L469.8 324.9 L477.2 324.9 L477.2 333.8 L477.2 342.8 L477.2 351.7 L477.2 360.7 L484.7 360.7 L484.7 351.7 L484.7 342.8 L484.7 333.8 L484.7 324.9 L484.7 315.9 L484.7 306.9 L484.7 298.0 L484.7 289.0 L484.7 280.1 L484.7 271.1 L477.2 271.1 L469.8 271.1 L462.3 271.1 L462.3 280.0 Z" fill="#2f8f83" fill-opacity="0.34" stroke="#0e5b52" stroke-width="1.6" />
  <path d="M521.9 333.8 L521.9 342.8 L529.4 342.8 L536.8 342.8 L544.3 342.8 L551.7 342.8 L551.7 333.8 L551.7 324.9 L551.7 315.9 L551.7 306.9 L551.7 298.0 L551.7 289.0 L551.7 280.1 L544.3 280.1 L536.8 280.1 L529.4 280.1 L521.9 280.1 L521.9 289.0 L521.9 298.0 L521.9 306.9 L521.9 315.9 L521.9 324.9 L521.9 333.8 Z" fill="#2f8f83" fill-opacity="0.34" stroke="#0e5b52" stroke-width="1.6" />
  <path d="M432.5 163.4 L432.5 172.4 L440.0 172.4 L447.4 172.4 L454.9 172.4 L462.3 172.4 L469.8 172.4 L469.8 163.4 L462.3 163.4 L454.9 163.4 L447.4 163.4 L447.4 154.4 L447.4 145.5 L454.9 145.5 L462.3 145.5 L462.3 136.5 L462.3 127.5 L454.9 127.5 L454.9 118.5 L447.4 118.5 L440.0 118.5 L432.5 118.5 L432.5 127.5 L432.5 136.5 L432.5 145.5 L432.5 154.4 L432.5 163.4 Z" fill="#2f8f83" fill-opacity="0.34" stroke="#0e5b52" stroke-width="1.6" />
  <path d="M447.4 154.4 L447.4 163.4 L454.9 163.4 L462.3 163.4 L469.8 163.4 L469.8 172.4 L477.2 172.4 L484.7 172.4 L484.7 163.4 L484.7 154.4 L484.7 145.5 L477.2 145.5 L477.2 136.5 L469.8 136.5 L462.3 136.5 L462.3 145.5 L454.9 145.5 L447.4 145.5 L447.4 154.4 Z" fill="#2f8f83" fill-opacity="0.34" stroke="#0e5b52" stroke-width="1.6" />
  <path d="M440.0 324.9 L440.0 333.8 L447.4 333.8 L454.9 333.8 L462.3 333.8 L469.8 333.8 L477.2 333.8 L477.2 324.9 L469.8 324.9 L469.8 315.9 L469.8 306.9 L469.8 298.0 L469.8 289.0 L462.3 289.0 L462.3 280.0 L462.3 271.1 L454.9 271.1 L454.9 280.1 L447.4 280.0 L440.0 280.0 L440.0 289.0 L440.0 298.0 L440.0 306.9 L440.0 315.9 L440.0 324.9 Z" fill="#2f8f83" fill-opacity="0.34" stroke="#0e5b52" stroke-width="1.6" />
  <path d="M417.6 306.9 L417.6 315.9 L425.1 315.9 L432.5 315.9 L440.0 315.9 L440.0 306.9 L440.0 298.0 L440.0 289.0 L440.0 280.0 L447.4 280.0 L454.9 280.1 L454.9 271.1 L454.9 262.1 L447.4 262.1 L440.0 262.1 L432.5 262.1 L425.1 262.1 L417.6 262.1 L417.6 271.1 L417.6 280.0 L417.6 289.0 L417.6 298.0 L417.6 306.9 Z" fill="#2f8f83" fill-opacity="0.34" stroke="#0e5b52" stroke-width="1.6" />
  <path d="M417.6 253.1 L417.6 262.1 L425.1 262.1 L432.5 262.1 L440.0 262.1 L447.4 262.1 L447.4 253.2 L447.4 244.2 L447.4 235.2 L447.4 226.2 L440.0 226.2 L432.5 226.2 L425.1 226.2 L417.6 226.2 L417.6 235.2 L417.6 244.2 L417.6 253.1 Z" fill="#2f8f83" fill-opacity="0.34" stroke="#0e5b52" stroke-width="1.6" />
  <path d="M343.1 253.1 L343.1 262.1 L350.6 262.1 L358.0 262.1 L365.5 262.1 L372.9 262.1 L380.4 262.1 L380.4 271.1 L387.8 271.1 L395.3 271.1 L402.7 271.1 L410.2 271.1 L417.6 271.1 L417.6 262.1 L417.6 253.1 L417.6 244.2 L417.6 235.2 L417.6 226.2 L410.2 226.2 L402.7 226.2 L395.3 226.2 L387.8 226.2 L380.4 226.2 L380.4 235.2 L372.9 235.2 L365.5 235.2 L358.0 235.2 L350.6 235.2 L343.1 235.2 L343.1 244.2 L343.1 253.1 Z" fill="#2f8f83" fill-opacity="0.34" stroke="#0e5b52" stroke-width="1.6" />
  <path d="M499.6 181.4 L499.6 190.4 L507.0 190.4 L507.0 181.4 L507.0 172.4 L499.6 172.4 L492.1 172.4 L492.1 181.4 L499.6 181.4 Z" fill="#2f8f83" fill-opacity="0.34" stroke="#0e5b52" stroke-width="1.6" />
  <path d="M462.3 127.5 L462.3 118.5 L454.9 118.5 L454.9 127.5 L462.3 127.5 Z" fill="#2f8f83" fill-opacity="0.34" stroke="#0e5b52" stroke-width="1.6" />
  <path d="M462.3 127.5 L462.3 136.5 L469.8 136.5 L477.2 136.5 L477.2 127.5 L477.2 118.5 L469.8 118.5 L462.3 118.5 L462.3 127.5 Z" fill="#2f8f83" fill-opacity="0.34" stroke="#0e5b52" stroke-width="1.6" />
  <path d="M499.6 154.4 L499.6 145.5 L492.1 145.5 L492.1 154.4 L499.6 154.4 Z" fill="#2f8f83" fill-opacity="0.34" stroke="#0e5b52" stroke-width="1.6" />
  <path d="M477.2 136.5 L477.2 145.5 L484.7 145.5 L484.7 154.4 L484.7 163.4 L484.7 172.4 L492.1 172.4 L499.6 172.4 L507.0 172.4 L507.0 163.4 L507.0 154.4 L507.0 145.5 L507.0 136.5 L507.0 127.5 L499.6 127.5 L499.6 118.5 L492.1 118.5 L484.7 118.5 L477.2 118.5 L477.2 127.5 L477.2 136.5 Z M492.1 154.4 L492.1 145.5 L499.6 145.5 L499.6 154.4 L492.1 154.4 Z" fill="#2f8f83" fill-opacity="0.34" stroke="#0e5b52" stroke-width="1.6" />
  <path d="M447.4 217.3 L447.4 226.2 L454.9 226.2 L462.3 226.2 L469.8 226.2 L477.2 226.2 L484.7 226.2 L492.1 226.2 L492.1 217.3 L492.1 208.3 L492.1 199.3 L492.1 190.4 L492.1 181.4 L492.1 172.4 L484.7 172.4 L477.2 172.4 L469.8 172.4 L462.3 172.4 L454.9 172.4 L447.4 172.4 L447.4 181.4 L447.4 190.4 L447.4 199.3 L447.4 208.3 L447.4 217.3 Z" fill="#2f8f83" fill-opacity="0.34" stroke="#0e5b52" stroke-width="1.6" />
  <path d="M447.4 253.2 L447.4 262.1 L454.9 262.1 L454.9 271.1 L462.3 271.1 L469.8 271.1 L477.2 271.1 L484.7 271.1 L492.1 271.1 L492.1 262.1 L492.1 253.2 L492.1 244.2 L492.1 235.2 L492.1 226.2 L484.7 226.2 L477.2 226.2 L469.8 226.2 L462.3 226.2 L454.9 226.2 L447.4 226.2 L447.4 235.2 L447.4 244.2 L447.4 253.2 Z" fill="#2f8f83" fill-opacity="0.34" stroke="#0e5b52" stroke-width="1.6" />
  <path d="M544.3 262.1 L544.3 271.1 L551.7 271.1 L559.2 271.1 L566.6 271.1 L574.1 271.1 L581.5 271.1 L581.5 262.1 L581.5 253.2 L581.5 244.2 L581.5 235.2 L574.1 235.2 L566.6 235.2 L566.6 244.2 L559.2 244.2 L551.7 244.2 L544.3 244.2 L544.3 253.2 L544.3 262.1 Z" fill="#2f8f83" fill-opacity="0.34" stroke="#0e5b52" stroke-width="1.6" />
  <path d="M521.9 253.2 L521.9 262.1 L529.4 262.1 L529.4 271.1 L536.8 271.1 L536.8 280.1 L544.3 280.1 L544.3 271.1 L544.3 262.1 L544.3 253.2 L544.3 244.2 L551.7 244.2 L551.7 235.2 L544.3 235.2 L536.8 235.2 L529.4 235.2 L521.9 235.2 L521.9 244.2 L521.9 253.2 Z" fill="#2f8f83" fill-opacity="0.34" stroke="#0e5b52" stroke-width="1.6" />
  <path d="M559.2 244.2 L566.6 244.2 L566.6 235.2 L559.2 235.2 L551.7 235.2 L551.7 244.2 L559.2 244.2 Z" fill="#2f8f83" fill-opacity="0.34" stroke="#0e5b52" stroke-width="1.6" />
  <path d="M335.7 342.8 L335.7 351.7 L343.1 351.7 L350.6 351.7 L358.0 351.7 L365.5 351.7 L372.9 351.7 L380.4 351.7 L387.8 351.7 L395.3 351.7 L395.3 342.8 L395.3 333.8 L395.3 324.9 L395.3 315.9 L402.7 315.9 L410.2 315.9 L417.6 315.9 L417.6 306.9 L417.6 298.0 L417.6 289.0 L410.2 289.0 L402.7 289.0 L395.3 289.0 L387.8 289.0 L380.4 289.0 L380.4 280.0 L380.4 271.1 L380.4 262.1 L372.9 262.1 L365.5 262.1 L358.0 262.1 L350.6 262.1 L343.1 262.1 L335.7 262.1 L335.7 271.1 L335.7 280.0 L335.7 289.0 L335.7 298.0 L335.7 306.9 L335.7 315.9 L335.7 324.9 L335.7 333.8 L335.7 342.8 Z" fill="#2f8f83" fill-opacity="0.34" stroke="#0e5b52" stroke-width="1.6" />
  <path d="M380.4 280.0 L380.4 289.0 L387.8 289.0 L395.3 289.0 L402.7 289.0 L410.2 289.0 L417.6 289.0 L417.6 280.0 L417.6 271.1 L410.2 271.1 L402.7 271.1 L395.3 271.1 L387.8 271.1 L380.4 271.1 L380.4 280.0 Z" fill="#2f8f83" fill-opacity="0.34" stroke="#0e5b52" stroke-width="1.6" />
  <path d="M514.5 360.7 L514.5 369.7 L521.9 369.7 L529.4 369.7 L536.8 369.7 L544.3 369.7 L551.7 369.7 L559.2 369.7 L566.6 369.7 L574.1 369.7 L574.1 360.7 L574.1 351.7 L574.1 342.8 L566.6 342.8 L559.2 342.8 L551.7 342.8 L544.3 342.8 L544.3 351.7 L544.3 360.7 L536.8 360.7 L529.4 360.7 L521.9 360.7 L521.9 351.7 L514.5 351.7 L514.5 360.7 Z" fill="#2f8f83" fill-opacity="0.34" stroke="#0e5b52" stroke-width="1.6" />
  <path d="M492.1 262.1 L492.1 271.1 L499.6 271.1 L499.6 280.1 L499.6 289.0 L499.6 298.0 L499.6 306.9 L499.6 315.9 L499.6 324.9 L499.6 333.8 L499.6 342.8 L499.6 351.7 L507.0 351.7 L514.5 351.7 L521.9 351.7 L521.9 360.7 L529.4 360.7 L536.8 360.7 L544.3 360.7 L544.3 351.7 L544.3 342.8 L536.8 342.8 L529.4 342.8 L521.9 342.8 L521.9 333.8 L521.9 324.9 L521.9 315.9 L521.9 306.9 L521.9 298.0 L521.9 289.0 L521.9 280.1 L529.4 280.1 L536.8 280.1 L536.8 271.1 L529.4 271.1 L529.4 262.1 L521.9 262.1 L521.9 253.2 L521.9 244.2 L521.9 235.2 L521.9 226.2 L521.9 217.3 L521.9 208.3 L521.9 199.3 L514.5 199.3 L507.0 199.3 L507.0 190.4 L499.6 190.4 L499.6 181.4 L492.1 181.4 L492.1 190.4 L492.1 199.3 L492.1 208.3 L492.1 217.3 L492.1 226.2 L492.1 235.2 L492.1 244.2 L492.1 253.2 L492.1 262.1 Z" fill="#2f8f83" fill-opacity="0.34" stroke="#0e5b52" stroke-width="1.6" />
  <path d="M484.7 369.7 L492.1 369.7 L499.6 369.7 L507.0 369.7 L514.5 369.7 L514.5 360.7 L514.5 351.7 L507.0 351.7 L507.0 360.7 L499.6 360.7 L492.1 360.7 L484.7 360.7 L477.2 360.7 L477.2 369.7 L484.7 369.7 Z" fill="#2f8f83" fill-opacity="0.34" stroke="#0e5b52" stroke-width="1.6" />
  <path d="M507.0 360.7 L507.0 351.7 L499.6 351.7 L499.6 360.7 L507.0 360.7 Z" fill="#2f8f83" fill-opacity="0.34" stroke="#0e5b52" stroke-width="1.6" />
  <path d="M551.7 280.1 L551.7 271.1 L544.3 271.1 L544.3 280.1 L551.7 280.1 Z" fill="#2f8f83" fill-opacity="0.34" stroke="#0e5b52" stroke-width="1.6" />
  <path d="M276.1 298.0 L276.1 306.9 L283.5 306.9 L283.5 315.9 L291.0 315.9 L291.0 324.9 L291.0 333.8 L298.4 333.8 L298.4 342.8 L305.9 342.8 L305.9 351.7 L313.3 351.7 L320.8 351.7 L328.2 351.7 L335.7 351.7 L335.7 342.8 L335.7 333.8 L335.7 324.9 L335.7 315.9 L335.7 306.9 L335.7 298.0 L335.7 289.0 L335.7 280.0 L335.7 271.1 L335.7 262.1 L343.1 262.1 L343.1 253.1 L343.1 244.2 L343.1 235.2 L335.7 235.2 L328.2 235.2 L320.8 235.2 L313.3 235.2 L305.9 235.2 L298.4 235.2 L291.0 235.2 L283.5 235.2 L276.1 235.2 L276.1 244.2 L276.1 253.1 L276.1 262.1 L276.1 271.1 L276.1 280.0 L276.1 289.0 L276.1 298.0 Z" fill="#2f8f83" fill-opacity="0.34" stroke="#0e5b52" stroke-width="1.6" />
  <path d="M581.5 351.7 L589.0 351.7 L596.4 351.7 L603.9 351.7 L611.3 351.7 L618.8 351.7 L618.8 342.8 L611.3 342.8 L603.9 342.8 L596.4 342.8 L589.0 342.8 L581.5 342.8 L574.1 342.8 L574.1 351.7 L581.5 351.7 Z" fill="#2f8f83" fill-opacity="0.34" stroke="#0e5b52" stroke-width="1.6" />
  <path d="M618.8 333.8 L626.2 333.8 L633.6 333.8 L633.6 324.9 L626.2 324.9 L618.8 324.9 L611.3 324.9 L611.3 333.8 L618.8 333.8 Z" fill="#2f8f83" fill-opacity="0.34" stroke="#0e5b52" stroke-width="1.6" />
  <!-- title strip -->
  <rect x="0" y="0" width="1000" height="54" fill="#173042" />
  <text x="20" y="34" font-size="21" font-weight="bold" fill="#ffffff">Goldstorm Metals Corp. — Mineral Claims</text>
  <text x="980" y="34" font-size="15" fill="#cfe3df" text-anchor="end">GSTM</text>
  <!-- scale bar -->
  <g transform="translate(766.8211157957937, 596)">
    <rect x="0" y="0" width="96.5894421021031" height="8" fill="#173042" />
    <rect x="96.5894421021031" y="0" width="96.5894421021031" height="8" fill="#ffffff" stroke="#173042" stroke-width="1" />
    <text x="96.5894421021031" y="-6" font-size="12" fill="#173042" text-anchor="middle">10 km</text>
  </g>
  <!-- north arrow -->
  <g transform="translate(956, 92)">
    <circle r="17" fill="#ffffff" stroke="#b9b09a" />
    <path d="M0 -10 L5 7 L0 3 L-5 7 Z" fill="#173042" />
    <text y="14" font-size="9" font-weight="bold" fill="#173042" text-anchor="middle">N</text>
  </g>
  <!-- watermark -->
  <text x="20" y="620" font-size="13" fill="#7d8b8a">Map by Exploration Maps — explorationmaps.com</text>
</svg>