<svg xmlns="http://www.w3.org/2000/svg" viewBox="0 0 1000 640" font-family="Arial, Helvetica, sans-serif">
  <rect width="1000" height="640" fill="#f3efe6" />
  <line x1="200" y1="0" x2="200" y2="640" stroke="#d9d2c0" stroke-width="0.7" />
  <line x1="0" y1="128" x2="1000" y2="128" stroke="#d9d2c0" stroke-width="0.7" />
  <line x1="400" y1="0" x2="400" y2="640" stroke="#d9d2c0" stroke-width="0.7" />
  <line x1="0" y1="256" x2="1000" y2="256" stroke="#d9d2c0" stroke-width="0.7" />
  <line x1="600" y1="0" x2="600" y2="640" stroke="#d9d2c0" stroke-width="0.7" />
  <line x1="0" y1="384" x2="1000" y2="384" stroke="#d9d2c0" stroke-width="0.7" />
  <line x1="800" y1="0" x2="800" y2="640" stroke="#d9d2c0" stroke-width="0.7" />
  <line x1="0" y1="512" x2="1000" y2="512" stroke="#d9d2c0" stroke-width="0.7" />
  <path d="M527.9 348.2 L527.9 355.2 L527.9 362.1 L534.1 362.1 L534.1 369.1 L540.4 369.1 L540.4 376.0 L540.4 383.0 L546.6 383.0 L552.8 383.0 L552.8 389.9 L559.0 389.9 L565.2 389.9 L565.2 383.0 L565.2 376.0 L565.2 369.1 L565.2 362.2 L559.0 362.1 L552.8 362.1 L552.8 355.2 L546.6 355.2 L546.6 348.3 L540.3 348.3 L540.3 341.3 L534.1 341.3 L527.9 341.3 L527.9 348.2 Z" fill="#2f8f83" fill-opacity="0.34" stroke="#0e5b52" stroke-width="1.6" />
  <path d="M503.1 292.6 L503.1 299.6 L503.1 306.5 L503.1 313.5 L503.1 320.4 L509.3 320.4 L515.5 320.4 L521.7 320.4 L521.7 313.5 L527.9 313.5 L527.9 320.4 L527.9 327.4 L534.1 327.4 L534.1 334.4 L540.3 334.4 L540.3 341.3 L540.3 348.3 L546.6 348.3 L546.6 341.3 L546.6 334.4 L546.6 327.4 L546.6 320.4 L546.6 313.5 L546.6 306.5 L546.6 299.6 L546.6 292.6 L546.6 285.7 L540.3 285.7 L534.1 285.7 L527.9 285.7 L521.7 285.7 L515.5 285.7 L509.3 285.7 L503.1 285.7 L503.1 292.6 Z" fill="#2f8f83" fill-opacity="0.34" stroke="#0e5b52" stroke-width="1.6" />
  <path d="M527.9 334.3 L527.9 341.3 L534.1 341.3 L540.3 341.3 L540.3 334.4 L534.1 334.4 L534.1 327.4 L527.9 327.4 L527.9 334.3 Z" fill="#2f8f83" fill-opacity="0.34" stroke="#0e5b52" stroke-width="1.6" />
  <path d="M484.5 264.8 L484.5 271.8 L490.7 271.8 L496.9 271.8 L503.1 271.8 L503.1 278.7 L503.1 285.7 L509.3 285.7 L515.5 285.7 L515.5 278.7 L515.5 271.8 L509.3 271.8 L509.3 264.8 L503.1 264.8 L503.1 257.8 L496.9 257.8 L490.7 257.8 L484.5 257.8 L484.5 264.8 Z" fill="#2f8f83" fill-opacity="0.34" stroke="#0e5b52" stroke-width="1.6" />
  <path d="M509.3 320.4 L503.1 320.4 L503.1 327.4 L509.3 327.4 L509.3 334.3 L509.3 341.3 L515.5 341.3 L515.5 348.2 L515.5 355.2 L521.7 355.2 L521.7 362.1 L527.9 362.1 L527.9 355.2 L527.9 348.2 L527.9 341.3 L527.9 334.3 L527.9 327.4 L527.9 320.4 L527.9 313.5 L521.7 313.5 L521.7 320.4 L515.5 320.4 L509.3 320.4 Z" fill="#2f8f83" fill-opacity="0.34" stroke="#0e5b52" stroke-width="1.6" />
  <path d="M465.9 271.8 L465.9 278.7 L472.1 278.7 L478.3 278.7 L484.5 278.7 L484.5 285.7 L490.7 285.7 L490.7 292.6 L490.7 299.6 L490.7 306.5 L490.7 313.5 L496.9 313.5 L496.9 320.4 L496.9 327.4 L496.9 334.3 L503.1 334.3 L509.3 334.3 L509.3 327.4 L503.1 327.4 L503.1 320.4 L503.1 313.5 L503.1 306.5 L503.1 299.6 L503.1 292.6 L503.1 285.7 L503.1 278.7 L503.1 271.8 L496.9 271.8 L490.7 271.8 L484.5 271.8 L484.5 264.8 L478.3 264.8 L472.1 264.8 L465.9 264.8 L465.9 271.8 Z" fill="#2f8f83" fill-opacity="0.34" stroke="#0e5b52" stroke-width="1.6" />
  <path d="M546.6 389.9 L546.6 396.9 L552.8 396.9 L552.8 403.8 L559.0 403.8 L559.0 410.8 L552.8 410.8 L552.8 417.7 L546.6 417.7 L546.6 424.7 L540.4 424.7 L540.4 431.6 L546.6 431.6 L552.8 431.6 L552.8 424.7 L559.0 424.7 L565.2 424.7 L565.2 417.7 L565.2 410.8 L565.2 403.8 L565.2 396.9 L565.2 389.9 L559.0 389.9 L552.8 389.9 L552.8 383.0 L546.6 383.0 L546.6 389.9 Z" fill="#2f8f83" fill-opacity="0.34" stroke="#0e5b52" stroke-width="1.6" />
  <path d="M422.4 369.1 L422.4 376.0 L428.6 376.0 L428.6 383.0 L434.8 383.0 L441.0 383.0 L447.2 383.0 L453.4 383.0 L453.4 389.9 L459.7 389.9 L465.9 389.9 L472.1 389.9 L472.1 396.9 L478.3 396.9 L484.5 396.9 L484.5 403.8 L490.7 403.8 L490.7 410.8 L496.9 410.8 L496.9 417.7 L503.1 417.7 L503.1 424.6 L509.3 424.6 L509.3 431.6 L515.5 431.6 L521.7 431.6 L527.9 431.6 L534.1 431.6 L540.4 431.6 L540.4 424.7 L534.1 424.7 L527.9 424.7 L521.7 424.7 L515.5 424.6 L515.5 417.7 L509.3 417.7 L509.3 410.8 L503.1 410.8 L503.1 403.8 L496.9 403.8 L496.9 396.9 L490.7 396.9 L490.7 389.9 L484.5 389.9 L478.3 389.9 L478.3 383.0 L472.1 383.0 L465.9 383.0 L459.7 383.0 L459.7 376.0 L453.4 376.0 L447.2 376.0 L441.0 376.0 L434.8 376.0 L434.8 369.1 L428.6 369.1 L428.6 362.1 L422.4 362.1 L422.4 369.1 Z" fill="#2f8f83" fill-opacity="0.34" stroke="#0e5b52" stroke-width="1.6" />
  <path d="M559.0 424.7 L552.8 424.7 L552.8 431.6 L559.0 431.6 L565.2 431.6 L565.2 438.5 L571.4 438.5 L577.6 438.5 L577.6 445.5 L583.8 445.5 L590.0 445.5 L590.0 438.5 L590.0 431.6 L590.0 424.7 L590.0 417.7 L590.0 410.8 L590.0 403.8 L590.0 396.9 L590.0 389.9 L590.0 383.0 L590.0 376.0 L590.0 369.1 L590.0 362.2 L583.8 362.2 L577.6 362.2 L571.4 362.2 L565.2 362.2 L565.2 369.1 L565.2 376.0 L565.2 383.0 L565.2 389.9 L565.2 396.9 L565.2 403.8 L565.2 410.8 L565.2 417.7 L565.2 424.7 L559.0 424.7 Z" fill="#2f8f83" fill-opacity="0.34" stroke="#0e5b52" stroke-width="1.6" />
  <path d="M546.6 292.6 L546.6 299.6 L546.6 306.5 L546.6 313.5 L546.6 320.4 L546.6 327.4 L546.6 334.4 L546.6 341.3 L546.6 348.3 L546.6 355.2 L552.8 355.2 L552.8 362.1 L559.0 362.1 L565.2 362.2 L571.4 362.2 L577.6 362.2 L583.8 362.2 L583.8 355.2 L583.8 348.3 L583.8 341.3 L583.8 334.4 L583.8 327.4 L583.8 320.5 L583.8 313.5 L583.8 306.5 L583.8 299.6 L583.8 292.6 L583.8 285.7 L577.6 285.7 L571.4 285.7 L565.2 285.7 L559.0 285.7 L552.8 285.7 L546.6 285.7 L546.6 292.6 Z" fill="#2f8f83" fill-opacity="0.34" stroke="#0e5b52" stroke-width="1.6" />
  <path d="M521.7 369.1 L521.7 376.0 L521.7 383.0 L521.7 389.9 L521.7 396.9 L527.9 396.9 L527.9 403.8 L534.1 403.8 L534.1 410.8 L540.4 410.8 L540.4 417.7 L546.6 417.7 L552.8 417.7 L552.8 410.8 L559.0 410.8 L559.0 403.8 L552.8 403.8 L552.8 396.9 L546.6 396.9 L546.6 389.9 L546.6 383.0 L540.4 383.0 L540.4 376.0 L540.4 369.1 L534.1 369.1 L534.1 362.1 L527.9 362.1 L521.7 362.1 L521.7 369.1 Z" fill="#2f8f83" fill-opacity="0.34" stroke="#0e5b52" stroke-width="1.6" />
  <path d="M447.2 125.5 L447.2 132.5 L447.2 139.5 L447.2 146.4 L447.2 153.4 L453.4 153.4 L459.6 153.4 L465.8 153.4 L472.1 153.4 L478.3 153.4 L484.5 153.4 L490.7 153.4 L490.7 146.4 L490.7 139.5 L490.7 132.5 L490.7 125.5 L490.7 118.5 L484.5 118.5 L478.3 118.5 L472.1 118.5 L465.8 118.5 L459.6 118.5 L453.4 118.5 L447.2 118.5 L447.2 125.5 Z" fill="#2f8f83" fill-opacity="0.34" stroke="#0e5b52" stroke-width="1.6" />
  <path d="M397.6 285.7 L397.6 292.6 L397.6 299.6 L397.6 306.5 L403.8 306.5 L410.0 306.5 L416.2 306.5 L416.2 299.6 L416.2 292.6 L416.2 285.7 L422.4 285.7 L428.6 285.7 L428.6 292.6 L434.8 292.6 L441.0 292.6 L447.2 292.6 L447.2 299.6 L453.4 299.6 L459.6 299.6 L465.9 299.6 L472.1 299.6 L478.3 299.6 L484.5 299.6 L484.5 306.5 L490.7 306.5 L490.7 299.6 L490.7 292.6 L490.7 285.7 L484.5 285.7 L484.5 278.7 L478.3 278.7 L472.1 278.7 L465.9 278.7 L465.9 271.8 L465.9 264.8 L459.6 264.8 L453.4 264.8 L447.2 264.8 L441.0 264.8 L434.8 264.8 L428.6 264.8 L422.4 264.8 L422.4 271.8 L416.2 271.8 L410.0 271.8 L410.0 278.7 L403.8 278.7 L397.6 278.7 L397.6 285.7 Z" fill="#2f8f83" fill-opacity="0.34" stroke="#0e5b52" stroke-width="1.6" />
  <path d="M397.6 223.0 L397.6 230.0 L397.6 237.0 L397.6 243.9 L397.6 250.9 L397.6 257.8 L397.6 264.8 L397.6 271.8 L397.6 278.7 L403.8 278.7 L410.0 278.7 L410.0 271.8 L416.2 271.8 L422.4 271.8 L422.4 264.8 L428.6 264.8 L434.8 264.8 L441.0 264.8 L447.2 264.8 L453.4 264.8 L459.6 264.8 L465.9 264.8 L472.1 264.8 L478.3 264.8 L484.5 264.8 L484.5 257.8 L484.5 250.9 L478.3 250.9 L478.3 243.9 L472.1 243.9 L472.1 237.0 L465.9 237.0 L465.9 230.0 L465.9 223.0 L459.6 223.0 L459.6 216.1 L453.4 216.1 L447.2 216.1 L441.0 216.1 L434.8 216.1 L428.6 216.1 L422.4 216.1 L416.2 216.1 L410.0 216.1 L403.8 216.1 L397.6 216.1 L397.6 223.0 Z" fill="#2f8f83" fill-opacity="0.34" stroke="#0e5b52" stroke-width="1.6" />
  <path d="M372.7 174.3 L372.7 181.3 L379.0 181.3 L379.0 188.2 L379.0 195.2 L385.2 195.2 L385.2 202.2 L385.2 209.1 L391.4 209.1 L391.4 216.1 L397.6 216.1 L403.8 216.1 L410.0 216.1 L416.2 216.1 L422.4 216.1 L428.6 216.1 L434.8 216.1 L441.0 216.1 L441.0 209.1 L441.0 202.2 L441.0 195.2 L441.0 188.2 L447.2 188.2 L447.2 181.3 L447.2 174.3 L447.2 167.3 L441.0 167.3 L434.8 167.3 L428.6 167.3 L422.4 167.3 L416.2 167.3 L410.0 167.3 L403.8 167.3 L397.6 167.3 L391.4 167.3 L385.2 167.3 L379.0 167.3 L372.7 167.3 L372.7 174.3 Z" fill="#2f8f83" fill-opacity="0.34" stroke="#0e5b52" stroke-width="1.6" />
  <path d="M366.5 153.4 L366.5 160.4 L366.5 167.3 L372.7 167.3 L379.0 167.3 L385.2 167.3 L391.4 167.3 L397.6 167.3 L403.8 167.3 L410.0 167.3 L416.2 167.3 L422.4 167.3 L428.6 167.3 L434.8 167.3 L441.0 167.3 L447.2 167.3 L447.2 160.4 L447.2 153.4 L447.2 146.4 L441.0 146.4 L434.8 146.4 L428.6 146.4 L422.4 146.4 L416.2 146.4 L410.0 146.4 L403.8 146.4 L397.6 146.4 L391.4 146.4 L385.2 146.4 L379.0 146.4 L372.7 146.4 L366.5 146.4 L366.5 153.4 Z" fill="#2f8f83" fill-opacity="0.34" stroke="#0e5b52" stroke-width="1.6" />
  <path d="M509.3 257.8 L503.1 257.8 L503.1 264.8 L509.3 264.8 L509.3 271.8 L515.5 271.8 L515.5 278.7 L515.5 285.7 L521.7 285.7 L527.9 285.7 L534.1 285.7 L540.3 285.7 L546.6 285.7 L552.8 285.7 L559.0 285.7 L565.2 285.7 L571.4 285.7 L577.6 285.7 L583.8 285.7 L583.8 278.7 L583.8 271.8 L583.8 264.8 L583.8 257.9 L577.6 257.9 L571.4 257.9 L565.2 257.9 L559.0 257.9 L552.8 257.9 L546.5 257.9 L540.3 257.9 L534.1 257.9 L527.9 257.8 L521.7 257.8 L515.5 257.8 L509.3 257.8 Z" fill="#2f8f83" fill-opacity="0.34" stroke="#0e5b52" stroke-width="1.6" />
  <path d="M559.0 438.5 L559.0 445.5 L559.0 452.4 L559.0 459.4 L559.0 466.3 L565.2 466.3 L571.4 466.3 L577.6 466.3 L583.8 466.3 L583.8 473.2 L583.8 480.2 L583.8 487.1 L583.8 494.0 L590.0 494.0 L596.2 494.0 L596.2 501.0 L602.4 501.0 L602.4 507.9 L608.6 507.9 L608.6 514.8 L608.6 521.8 L614.8 521.8 L621.0 521.8 L627.3 521.8 L633.5 521.8 L633.5 514.8 L633.5 507.9 L633.5 501.0 L633.5 494.0 L633.5 487.1 L633.5 480.2 L633.5 473.2 L633.5 466.3 L633.5 459.4 L633.5 452.4 L633.5 445.5 L633.5 438.5 L627.3 438.5 L621.0 438.5 L614.8 438.5 L608.6 438.5 L602.4 438.5 L602.4 445.5 L596.2 445.5 L596.2 438.5 L590.0 438.5 L590.0 445.5 L583.8 445.5 L577.6 445.5 L577.6 438.5 L571.4 438.5 L565.2 438.5 L565.2 431.6 L559.0 431.6 L559.0 438.5 Z" fill="#2f8f83" fill-opacity="0.34" stroke="#0e5b52" stroke-width="1.6" />
  <path d="M397.6 313.5 L397.6 320.4 L403.8 320.4 L410.0 320.4 L416.2 320.4 L422.4 320.4 L428.6 320.4 L434.8 320.4 L441.0 320.4 L447.2 320.4 L453.4 320.4 L459.7 320.4 L465.9 320.4 L465.9 327.4 L472.1 327.4 L472.1 334.3 L478.3 334.3 L484.5 334.3 L484.5 341.3 L490.7 341.3 L490.7 348.2 L496.9 348.2 L496.9 355.2 L503.1 355.2 L503.1 362.1 L509.3 362.1 L509.3 369.1 L509.3 376.0 L509.3 383.0 L509.3 389.9 L509.3 396.9 L509.3 403.8 L503.1 403.8 L503.1 410.8 L509.3 410.8 L509.3 417.7 L515.5 417.7 L515.5 424.6 L521.7 424.7 L527.9 424.7 L534.1 424.7 L540.4 424.7 L546.6 424.7 L546.6 417.7 L540.4 417.7 L540.4 410.8 L534.1 410.8 L534.1 403.8 L527.9 403.8 L527.9 396.9 L521.7 396.9 L521.7 389.9 L521.7 383.0 L521.7 376.0 L521.7 369.1 L521.7 362.1 L521.7 355.2 L515.5 355.2 L515.5 348.2 L515.5 341.3 L509.3 341.3 L509.3 334.3 L503.1 334.3 L496.9 334.3 L496.9 327.4 L496.9 320.4 L496.9 313.5 L490.7 313.5 L490.7 306.5 L484.5 306.5 L484.5 299.6 L478.3 299.6 L472.1 299.6 L465.9 299.6 L459.6 299.6 L453.4 299.6 L447.2 299.6 L447.2 292.6 L441.0 292.6 L434.8 292.6 L428.6 292.6 L428.6 285.7 L422.4 285.7 L416.2 285.7 L416.2 292.6 L416.2 299.6 L416.2 306.5 L410.0 306.5 L403.8 306.5 L397.6 306.5 L397.6 313.5 Z" fill="#2f8f83" fill-opacity="0.34" stroke="#0e5b52" stroke-width="1.6" />
  <path d="M583.8 264.8 L583.8 271.8 L583.8 278.7 L583.8 285.7 L583.8 292.6 L583.8 299.6 L583.8 306.5 L583.8 313.5 L583.8 320.5 L583.8 327.4 L583.8 334.4 L583.8 341.3 L590.0 341.3 L596.2 341.3 L596.2 334.4 L596.2 327.4 L596.2 320.5 L596.2 313.5 L596.2 306.5 L596.2 299.6 L596.2 292.6 L596.2 285.7 L596.2 278.7 L596.2 271.8 L596.2 264.8 L596.2 257.9 L590.0 257.9 L583.8 257.9 L583.8 264.8 Z" fill="#2f8f83" fill-opacity="0.34" stroke="#0e5b52" stroke-width="1.6" />
  <path d="M590.0 348.3 L590.0 355.2 L596.2 355.2 L596.2 362.2 L596.2 369.1 L596.2 376.0 L596.2 383.0 L596.2 389.9 L596.2 396.9 L596.2 403.8 L596.2 410.8 L602.4 410.8 L602.4 417.7 L608.6 417.7 L608.6 424.7 L614.8 424.7 L614.8 431.6 L608.6 431.6 L608.6 438.5 L614.8 438.5 L621.0 438.5 L627.3 438.5 L633.5 438.5 L633.5 431.6 L633.5 424.7 L633.5 417.7 L627.3 417.7 L621.0 417.7 L614.8 417.7 L614.8 410.8 L608.6 410.8 L608.6 403.8 L608.6 396.9 L608.6 389.9 L608.6 383.0 L608.6 376.0 L608.6 369.1 L608.6 362.2 L608.6 355.2 L608.6 348.3 L608.6 341.3 L608.6 334.4 L608.6 327.4 L608.6 320.5 L608.6 313.5 L608.6 306.5 L608.6 299.6 L608.6 292.6 L608.6 285.7 L608.6 278.7 L608.6 271.8 L608.6 264.8 L608.6 257.9 L602.4 257.9 L596.2 257.9 L596.2 264.8 L596.2 271.8 L596.2 278.7 L596.2 285.7 L596.2 292.6 L596.2 299.6 L596.2 306.5 L596.2 313.5 L596.2 320.5 L596.2 327.4 L596.2 334.4 L596.2 341.3 L590.0 341.3 L590.0 348.3 Z" fill="#2f8f83" fill-opacity="0.34" stroke="#0e5b52" stroke-width="1.6" />
  <path d="M608.6 264.8 L608.6 271.8 L608.6 278.7 L608.6 285.7 L608.6 292.6 L608.6 299.6 L608.6 306.5 L608.6 313.5 L608.6 320.5 L608.6 327.4 L608.6 334.4 L608.6 341.3 L608.6 348.3 L608.6 355.2 L608.6 362.2 L608.6 369.1 L608.6 376.0 L608.6 383.0 L608.6 389.9 L608.6 396.9 L608.6 403.8 L608.6 410.8 L614.8 410.8 L614.8 417.7 L621.0 417.7 L627.3 417.7 L633.5 417.7 L633.5 410.8 L633.5 403.8 L633.5 396.9 L633.5 389.9 L633.5 383.0 L633.5 376.0 L633.5 369.1 L633.5 362.2 L633.5 355.2 L633.5 348.3 L633.5 341.3 L633.5 334.4 L633.5 327.4 L633.5 320.5 L633.5 313.5 L633.5 306.5 L633.5 299.6 L633.5 292.6 L633.5 285.7 L633.5 278.7 L633.5 271.8 L633.5 264.8 L633.5 257.9 L627.2 257.9 L621.0 257.9 L614.8 257.9 L608.6 257.9 L608.6 264.8 Z" fill="#2f8f83" fill-opacity="0.34" stroke="#0e5b52" stroke-width="1.6" />
  <path d="M583.8 348.3 L583.8 355.2 L583.8 362.2 L590.0 362.2 L590.0 369.1 L590.0 376.0 L590.0 383.0 L590.0 389.9 L590.0 396.9 L590.0 403.8 L590.0 410.8 L590.0 417.7 L590.0 424.7 L590.0 431.6 L590.0 438.5 L596.2 438.5 L596.2 445.5 L602.4 445.5 L602.4 438.5 L608.6 438.5 L608.6 431.6 L614.8 431.6 L614.8 424.7 L608.6 424.7 L608.6 417.7 L602.4 417.7 L602.4 410.8 L596.2 410.8 L596.2 403.8 L596.2 396.9 L596.2 389.9 L596.2 383.0 L596.2 376.0 L596.2 369.1 L596.2 362.2 L596.2 355.2 L590.0 355.2 L590.0 348.3 L590.0 341.3 L583.8 341.3 L583.8 348.3 Z" fill="#2f8f83" fill-opacity="0.34" stroke="#0e5b52" stroke-width="1.6" />
  <!-- title strip -->
  <rect x="0" y="0" width="1000" height="54" fill="#173042" />
  <text x="20" y="34" font-size="21" font-weight="bold" fill="#ffffff">InZinc Mining Ltd. — Mineral Claims</text>
  <text x="980" y="34" font-size="15" fill="#cfe3df" text-anchor="end">IZN</text>
  <!-- scale bar -->
  <g transform="translate(810.1214644373961, 596)">
    <rect x="0" y="0" width="74.93926778130195" height="8" fill="#173042" />
    <rect x="74.93926778130195" y="0" width="74.93926778130195" height="8" fill="#ffffff" stroke="#173042" stroke-width="1" />
    <text x="74.93926778130195" y="-6" font-size="12" fill="#173042" text-anchor="middle">10 km</text>
  </g>
  <!-- north arrow -->
  <g transform="translate(956, 92)">
    <circle r="17" fill="#ffffff" stroke="#b9b09a" />
    <path d="M0 -10 L5 7 L0 3 L-5 7 Z" fill="#173042" />
    <text y="14" font-size="9" font-weight="bold" fill="#173042" text-anchor="middle">N</text>
  </g>
  <!-- watermark -->
  <text x="20" y="620" font-size="13" fill="#7d8b8a">Map by Exploration Maps — explorationmaps.com</text>
</svg>