<svg xmlns="http://www.w3.org/2000/svg" viewBox="0 0 1000 640" font-family="Arial, Helvetica, sans-serif">
  <rect width="1000" height="640" fill="#f3efe6" />
  <line x1="200" y1="0" x2="200" y2="640" stroke="#d9d2c0" stroke-width="0.7" />
  <line x1="0" y1="128" x2="1000" y2="128" stroke="#d9d2c0" stroke-width="0.7" />
  <line x1="400" y1="0" x2="400" y2="640" stroke="#d9d2c0" stroke-width="0.7" />
  <line x1="0" y1="256" x2="1000" y2="256" stroke="#d9d2c0" stroke-width="0.7" />
  <line x1="600" y1="0" x2="600" y2="640" stroke="#d9d2c0" stroke-width="0.7" />
  <line x1="0" y1="384" x2="1000" y2="384" stroke="#d9d2c0" stroke-width="0.7" />
  <line x1="800" y1="0" x2="800" y2="640" stroke="#d9d2c0" stroke-width="0.7" />
  <line x1="0" y1="512" x2="1000" y2="512" stroke="#d9d2c0" stroke-width="0.7" />
  <path d="M484.9 405.5 L484.9 400.3 L484.9 395.1 L484.9 395.1 L484.9 389.8 L484.9 389.8 L470.0 389.8 L470.0 389.8 L470.0 389.8 L470.0 410.8 L485.6 410.8 L485.6 410.1 L484.9 410.1 L484.9 405.5 Z" fill="#2f8f83" fill-opacity="0.34" stroke="#0e5b52" stroke-width="1.6" />
  <path d="M485.6 410.8 L485.6 410.8 L470.0 410.8 L470.0 411.1 L470.0 431.7 L490.6 431.7 L490.9 431.7 L490.9 426.5 L490.9 426.5 L490.9 423.8 L490.6 423.8 L490.1 423.8 L485.6 423.8 L485.6 421.2 L485.6 416.0 L485.6 410.8 Z" fill="#2f8f83" fill-opacity="0.34" stroke="#0e5b52" stroke-width="1.6" />
  <path d="M449.1 410.8 L458.5 410.8 L470.0 410.8 L470.0 389.8 L470.0 389.8 L449.2 389.8 L449.1 389.8 L449.1 410.8 L449.1 410.8 Z" fill="#2f8f83" fill-opacity="0.34" stroke="#0e5b52" stroke-width="1.6" />
  <path d="M537.3 274.6 L519.7 274.6 L519.7 295.5 L540.7 295.5 L540.7 291.5 L537.3 291.5 L537.3 274.6 Z" fill="#2f8f83" fill-opacity="0.34" stroke="#0e5b52" stroke-width="1.6" />
  <path d="M490.1 423.8 L490.1 421.2 L485.6 421.2 L485.6 423.8 L490.1 423.8 Z" fill="#2f8f83" fill-opacity="0.34" stroke="#0e5b52" stroke-width="1.6" />
  <path d="M495.4 426.5 L495.4 421.9 L493.4 421.9 L493.4 421.2 L490.1 421.2 L490.1 423.8 L490.6 423.8 L490.9 423.8 L490.9 426.5 L495.4 426.5 Z" fill="#2f8f83" fill-opacity="0.34" stroke="#0e5b52" stroke-width="1.6" />
  <path d="M490.1 421.2 L490.1 416.0 L485.6 416.0 L485.6 421.2 L490.1 421.2 Z" fill="#2f8f83" fill-opacity="0.34" stroke="#0e5b52" stroke-width="1.6" />
  <path d="M493.4 421.2 L493.4 416.0 L490.1 416.0 L490.1 421.2 L493.4 421.2 Z" fill="#2f8f83" fill-opacity="0.34" stroke="#0e5b52" stroke-width="1.6" />
  <path d="M490.1 416.0 L490.1 410.8 L485.6 410.8 L485.6 416.0 L490.1 416.0 Z" fill="#2f8f83" fill-opacity="0.34" stroke="#0e5b52" stroke-width="1.6" />
  <path d="M493.4 416.0 L493.4 411.9 L495.4 411.9 L495.4 410.8 L490.1 410.8 L490.1 416.0 L493.4 416.0 Z" fill="#2f8f83" fill-opacity="0.34" stroke="#0e5b52" stroke-width="1.6" />
  <path d="M490.1 405.5 L484.9 405.5 L484.9 405.5 L484.9 410.1 L485.6 410.1 L485.6 410.8 L485.6 410.8 L490.1 410.8 L490.1 405.5 Z" fill="#2f8f83" fill-opacity="0.34" stroke="#0e5b52" stroke-width="1.6" />
  <path d="M495.4 410.8 L495.4 405.5 L490.1 405.5 L490.1 410.8 L495.4 410.8 Z" fill="#2f8f83" fill-opacity="0.34" stroke="#0e5b52" stroke-width="1.6" />
  <path d="M484.9 405.5 L490.1 405.5 L490.1 400.3 L484.9 400.3 L484.9 400.3 L484.9 405.5 L484.9 405.5 Z" fill="#2f8f83" fill-opacity="0.34" stroke="#0e5b52" stroke-width="1.6" />
  <path d="M495.4 405.5 L495.4 400.3 L490.1 400.3 L490.1 405.5 L495.4 405.5 Z" fill="#2f8f83" fill-opacity="0.34" stroke="#0e5b52" stroke-width="1.6" />
  <path d="M484.9 400.3 L490.1 400.3 L490.1 395.1 L484.9 395.1 L484.9 395.1 L484.9 400.3 L484.9 400.3 Z" fill="#2f8f83" fill-opacity="0.34" stroke="#0e5b52" stroke-width="1.6" />
  <path d="M495.4 400.3 L495.4 395.1 L490.1 395.1 L490.1 400.3 L495.4 400.3 Z" fill="#2f8f83" fill-opacity="0.34" stroke="#0e5b52" stroke-width="1.6" />
  <path d="M484.9 395.1 L490.1 395.1 L490.1 389.8 L490.1 389.8 L484.9 389.8 L484.9 395.1 L484.9 395.1 Z" fill="#2f8f83" fill-opacity="0.34" stroke="#0e5b52" stroke-width="1.6" />
  <path d="M495.4 395.1 L495.4 389.8 L490.9 389.8 L490.1 389.8 L490.1 389.8 L490.1 395.1 L495.4 395.1 Z" fill="#2f8f83" fill-opacity="0.34" stroke="#0e5b52" stroke-width="1.6" />
  <path d="M495.4 431.7 L495.4 426.5 L490.9 426.5 L490.9 431.7 L495.4 431.7 Z" fill="#2f8f83" fill-opacity="0.34" stroke="#0e5b52" stroke-width="1.6" />
  <path d="M470.0 431.7 L470.0 411.1 L470.0 410.8 L458.5 410.8 L449.1 410.8 L449.2 431.7 L470.0 431.7 Z" fill="#2f8f83" fill-opacity="0.34" stroke="#0e5b52" stroke-width="1.6" />
  <path d="M461.8 365.8 L461.8 364.0 L449.1 364.0 L449.2 389.8 L470.0 389.8 L470.0 389.8 L470.0 389.8 L470.0 381.5 L467.0 381.5 L461.8 381.5 L461.8 376.3 L461.8 371.0 L461.8 365.8 Z" fill="#2f8f83" fill-opacity="0.34" stroke="#0e5b52" stroke-width="1.6" />
  <path d="M490.9 389.8 L490.9 364.0 L472.2 364.0 L472.2 365.8 L472.2 371.0 L472.2 376.3 L472.2 381.5 L470.0 381.5 L470.0 389.8 L484.9 389.8 L484.9 389.8 L490.1 389.8 L490.1 389.8 L490.9 389.8 Z" fill="#2f8f83" fill-opacity="0.34" stroke="#0e5b52" stroke-width="1.6" />
  <path d="M551.8 279.2 L551.8 284.1 L556.5 284.1 L561.3 284.1 L561.3 279.2 L561.3 274.4 L556.5 274.4 L551.8 274.4 L551.8 279.2 Z" fill="#2f8f83" fill-opacity="0.34" stroke="#0e5b52" stroke-width="1.6" />
  <path d="M490.6 279.2 L490.6 284.1 L490.6 289.0 L490.6 293.8 L495.3 293.8 L500.0 293.8 L504.7 293.8 L509.4 293.8 L514.1 293.8 L518.8 293.8 L523.6 293.8 L523.6 289.0 L523.6 284.1 L523.6 279.2 L523.6 274.4 L523.6 269.5 L523.6 264.7 L523.6 259.8 L518.8 259.8 L518.8 254.9 L514.1 254.9 L509.4 254.9 L504.7 254.9 L504.7 259.8 L500.0 259.8 L495.3 259.8 L495.3 264.7 L495.3 269.5 L495.3 274.4 L490.6 274.4 L490.6 279.2 Z" fill="#2f8f83" fill-opacity="0.34" stroke="#0e5b52" stroke-width="1.6" />
  <path d="M490.6 415.2 L490.6 420.1 L490.6 424.9 L495.3 424.9 L495.3 429.8 L490.6 429.8 L490.6 434.6 L495.3 434.6 L500.0 434.6 L504.7 434.6 L504.7 429.8 L504.7 424.9 L504.7 420.1 L504.7 415.2 L504.7 410.4 L504.7 405.5 L504.7 400.7 L504.7 395.8 L504.7 391.0 L504.7 386.1 L500.0 386.1 L495.3 386.1 L490.6 386.1 L490.6 391.0 L495.3 391.0 L495.3 395.8 L495.3 400.7 L495.3 405.5 L495.3 410.4 L490.6 410.4 L490.6 415.2 Z" fill="#2f8f83" fill-opacity="0.34" stroke="#0e5b52" stroke-width="1.6" />
  <path d="M481.2 434.6 L481.2 439.5 L481.2 444.3 L481.2 449.1 L481.2 454.0 L485.9 454.0 L490.6 454.0 L495.3 454.0 L500.0 454.0 L500.0 449.1 L504.7 449.1 L509.4 449.1 L509.4 444.3 L509.4 439.5 L509.4 434.6 L509.4 429.8 L504.7 429.8 L504.7 434.6 L500.0 434.6 L495.3 434.6 L490.6 434.6 L490.6 429.8 L485.9 429.8 L481.2 429.8 L481.2 434.6 Z" fill="#2f8f83" fill-opacity="0.34" stroke="#0e5b52" stroke-width="1.6" />
  <path d="M476.4 361.8 L471.7 361.8 L471.7 366.7 L476.4 366.7 L481.2 366.7 L485.9 366.7 L490.6 366.7 L490.6 371.5 L490.6 376.4 L490.6 381.2 L490.6 386.1 L495.3 386.1 L500.0 386.1 L504.7 386.1 L504.7 381.2 L509.4 381.2 L514.1 381.2 L518.8 381.2 L518.8 376.4 L514.1 376.4 L509.4 376.4 L509.4 371.5 L509.4 366.7 L509.4 361.8 L504.7 361.8 L500.0 361.8 L495.3 361.8 L490.6 361.8 L485.9 361.8 L481.2 361.8 L476.4 361.8 Z" fill="#2f8f83" fill-opacity="0.34" stroke="#0e5b52" stroke-width="1.6" />
  <path d="M509.4 366.7 L509.4 371.5 L509.4 376.4 L514.1 376.4 L518.8 376.4 L518.8 381.2 L523.6 381.2 L528.3 381.2 L533.0 381.2 L533.0 376.4 L537.7 376.4 L537.7 371.5 L537.7 366.7 L537.7 361.8 L533.0 361.8 L528.3 361.8 L523.6 361.8 L518.8 361.8 L514.1 361.8 L509.4 361.8 L509.4 366.7 Z" fill="#2f8f83" fill-opacity="0.34" stroke="#0e5b52" stroke-width="1.6" />
  <path d="M471.7 250.1 L471.7 254.9 L471.7 259.8 L476.4 259.8 L481.2 259.8 L485.9 259.8 L490.6 259.8 L495.3 259.8 L495.3 254.9 L500.0 254.9 L500.0 250.1 L504.7 250.1 L504.7 245.2 L500.0 245.2 L500.0 240.3 L500.0 235.5 L500.0 230.6 L495.3 230.6 L495.3 225.7 L490.6 225.7 L490.6 230.6 L490.6 235.5 L490.6 240.3 L490.6 245.2 L485.9 245.2 L481.2 245.2 L476.4 245.2 L471.7 245.2 L471.7 250.1 Z" fill="#2f8f83" fill-opacity="0.34" stroke="#0e5b52" stroke-width="1.6" />
  <path d="M485.9 293.8 L481.2 293.8 L481.2 298.7 L485.9 298.7 L485.9 303.5 L485.9 308.4 L490.6 308.4 L495.3 308.4 L500.0 308.4 L504.7 308.4 L509.4 308.4 L514.1 308.4 L518.8 308.4 L523.6 308.4 L523.6 303.5 L523.6 298.7 L523.6 293.8 L518.8 293.8 L514.1 293.8 L509.4 293.8 L504.7 293.8 L500.0 293.8 L495.3 293.8 L490.6 293.8 L485.9 293.8 Z" fill="#2f8f83" fill-opacity="0.34" stroke="#0e5b52" stroke-width="1.6" />
  <path d="M514.1 308.4 L509.4 308.4 L509.4 313.3 L514.1 313.3 L514.1 318.1 L518.8 318.1 L523.6 318.1 L528.3 318.1 L533.0 318.1 L537.7 318.1 L542.4 318.1 L542.4 313.3 L542.4 308.4 L542.4 303.5 L542.4 298.7 L542.4 293.8 L537.7 293.8 L533.0 293.8 L528.3 293.8 L523.6 293.8 L523.6 298.7 L523.6 303.5 L523.6 308.4 L518.8 308.4 L514.1 308.4 Z" fill="#2f8f83" fill-opacity="0.34" stroke="#0e5b52" stroke-width="1.6" />
  <path d="M570.7 274.4 L566.0 274.4 L566.0 279.2 L570.7 279.2 L570.7 284.1 L570.7 289.0 L575.4 289.0 L575.4 284.1 L575.4 279.2 L575.4 274.4 L570.7 274.4 Z" fill="#2f8f83" fill-opacity="0.34" stroke="#0e5b52" stroke-width="1.6" />
  <path d="M537.7 274.4 L537.7 279.2 L537.7 284.1 L537.7 289.0 L537.7 293.8 L542.4 293.8 L542.4 289.0 L542.4 284.1 L542.4 279.2 L542.4 274.4 L547.1 274.4 L551.8 274.4 L556.5 274.4 L561.3 274.4 L561.3 279.2 L566.0 279.2 L566.0 274.4 L566.0 269.5 L561.3 269.5 L556.5 269.5 L551.8 269.5 L547.1 269.5 L542.4 269.5 L537.7 269.5 L537.7 274.4 Z" fill="#2f8f83" fill-opacity="0.34" stroke="#0e5b52" stroke-width="1.6" />
  <path d="M542.4 279.2 L542.4 284.1 L542.4 289.0 L542.4 293.8 L547.1 293.8 L551.8 293.8 L556.5 293.8 L561.3 293.8 L561.3 289.0 L556.5 289.0 L551.8 289.0 L547.1 289.0 L547.1 284.1 L547.1 279.2 L547.1 274.4 L542.4 274.4 L542.4 279.2 Z" fill="#2f8f83" fill-opacity="0.34" stroke="#0e5b52" stroke-width="1.6" />
  <path d="M575.4 289.0 L570.7 289.0 L570.7 293.8 L575.4 293.8 L575.4 289.0 Z" fill="#2f8f83" fill-opacity="0.34" stroke="#0e5b52" stroke-width="1.6" />
  <path d="M551.8 293.8 L547.1 293.8 L547.1 298.7 L551.8 298.7 L551.8 293.8 Z" fill="#2f8f83" fill-opacity="0.34" stroke="#0e5b52" stroke-width="1.6" />
  <path d="M542.4 298.7 L542.4 303.5 L547.1 303.5 L551.8 303.5 L556.5 303.5 L561.3 303.5 L566.0 303.5 L570.7 303.5 L575.4 303.5 L575.4 298.7 L575.4 293.8 L570.7 293.8 L566.0 293.8 L561.3 293.8 L556.5 293.8 L551.8 293.8 L551.8 298.7 L547.1 298.7 L547.1 293.8 L542.4 293.8 L542.4 298.7 Z" fill="#2f8f83" fill-opacity="0.34" stroke="#0e5b52" stroke-width="1.6" />
  <path d="M551.8 313.3 L551.8 318.1 L556.5 318.1 L561.3 318.1 L566.0 318.1 L570.7 318.1 L575.4 318.1 L575.4 313.3 L575.4 308.4 L570.7 308.4 L566.0 308.4 L561.3 308.4 L556.5 308.4 L551.8 308.4 L551.8 313.3 Z" fill="#2f8f83" fill-opacity="0.34" stroke="#0e5b52" stroke-width="1.6" />
  <path d="M556.5 318.1 L551.8 318.1 L551.8 323.0 L556.5 323.0 L561.3 323.0 L561.3 318.1 L556.5 318.1 Z" fill="#2f8f83" fill-opacity="0.34" stroke="#0e5b52" stroke-width="1.6" />
  <path d="M542.4 308.4 L542.4 313.3 L542.4 318.1 L542.4 323.0 L547.1 323.0 L551.8 323.0 L551.8 318.1 L551.8 313.3 L551.8 308.4 L556.5 308.4 L561.3 308.4 L566.0 308.4 L570.7 308.4 L575.4 308.4 L575.4 303.5 L570.7 303.5 L566.0 303.5 L561.3 303.5 L556.5 303.5 L551.8 303.5 L547.1 303.5 L542.4 303.5 L542.4 308.4 Z" fill="#2f8f83" fill-opacity="0.34" stroke="#0e5b52" stroke-width="1.6" />
  <path d="M556.5 264.7 L556.5 269.5 L561.3 269.5 L566.0 269.5 L570.7 269.5 L575.4 269.5 L580.1 269.5 L584.8 269.5 L584.8 264.7 L584.8 259.8 L580.1 259.8 L575.4 259.8 L570.7 259.8 L566.0 259.8 L561.3 259.8 L556.5 259.8 L556.5 264.7 Z" fill="#2f8f83" fill-opacity="0.34" stroke="#0e5b52" stroke-width="1.6" />
  <path d="M556.5 254.9 L556.5 259.8 L561.3 259.8 L561.3 254.9 L561.3 250.1 L556.5 250.1 L556.5 254.9 Z" fill="#2f8f83" fill-opacity="0.34" stroke="#0e5b52" stroke-width="1.6" />
  <path d="M575.4 303.5 L575.4 308.4 L575.4 313.3 L575.4 318.1 L580.1 318.1 L580.1 313.3 L580.1 308.4 L580.1 303.5 L580.1 298.7 L575.4 298.7 L575.4 303.5 Z" fill="#2f8f83" fill-opacity="0.34" stroke="#0e5b52" stroke-width="1.6" />
  <path d="M580.1 303.5 L580.1 308.4 L580.1 313.3 L580.1 318.1 L580.1 323.0 L584.8 323.0 L589.5 323.0 L589.5 318.1 L589.5 313.3 L589.5 308.4 L589.5 303.5 L589.5 298.7 L584.8 298.7 L580.1 298.7 L580.1 303.5 Z" fill="#2f8f83" fill-opacity="0.34" stroke="#0e5b52" stroke-width="1.6" />
  <path d="M570.7 289.0 L566.0 289.0 L566.0 293.8 L570.7 293.8 L570.7 289.0 Z" fill="#2f8f83" fill-opacity="0.34" stroke="#0e5b52" stroke-width="1.6" />
  <path d="M566.0 284.1 L566.0 289.0 L570.7 289.0 L570.7 284.1 L570.7 279.2 L566.0 279.2 L566.0 284.1 Z" fill="#2f8f83" fill-opacity="0.34" stroke="#0e5b52" stroke-width="1.6" />
  <path d="M547.1 279.2 L547.1 284.1 L547.1 289.0 L551.8 289.0 L556.5 289.0 L561.3 289.0 L561.3 293.8 L566.0 293.8 L566.0 289.0 L566.0 284.1 L566.0 279.2 L561.3 279.2 L561.3 284.1 L556.5 284.1 L551.8 284.1 L551.8 279.2 L551.8 274.4 L547.1 274.4 L547.1 279.2 Z" fill="#2f8f83" fill-opacity="0.34" stroke="#0e5b52" stroke-width="1.6" />
  <path d="M448.2 250.1 L448.2 254.9 L452.9 254.9 L452.9 250.1 L452.9 245.2 L448.2 245.2 L448.2 250.1 Z" fill="#2f8f83" fill-opacity="0.34" stroke="#0e5b52" stroke-width="1.6" />
  <path d="M415.2 245.2 L415.2 250.1 L415.2 254.9 L415.2 259.8 L415.2 264.7 L419.9 264.7 L424.6 264.7 L429.3 264.7 L434.0 264.7 L434.0 259.8 L434.0 254.9 L434.0 250.1 L434.0 245.2 L434.0 240.3 L429.3 240.3 L424.6 240.3 L419.9 240.3 L415.2 240.3 L415.2 245.2 Z" fill="#2f8f83" fill-opacity="0.34" stroke="#0e5b52" stroke-width="1.6" />
  <path d="M457.6 250.1 L452.9 250.1 L452.9 254.9 L457.6 254.9 L457.6 250.1 Z" fill="#2f8f83" fill-opacity="0.34" stroke="#0e5b52" stroke-width="1.6" />
  <path d="M467.0 254.9 L462.3 254.9 L462.3 259.8 L467.0 259.8 L467.0 254.9 Z" fill="#2f8f83" fill-opacity="0.34" stroke="#0e5b52" stroke-width="1.6" />
  <path d="M457.6 245.2 L452.9 245.2 L452.9 250.1 L457.6 250.1 L457.6 245.2 Z" fill="#2f8f83" fill-opacity="0.34" stroke="#0e5b52" stroke-width="1.6" />
  <path d="M452.9 254.9 L448.2 254.9 L448.2 259.8 L452.9 259.8 L452.9 254.9 Z" fill="#2f8f83" fill-opacity="0.34" stroke="#0e5b52" stroke-width="1.6" />
  <path d="M448.2 254.9 L443.5 254.9 L443.5 259.8 L448.2 259.8 L448.2 254.9 Z" fill="#2f8f83" fill-opacity="0.34" stroke="#0e5b52" stroke-width="1.6" />
  <path d="M467.0 279.2 L467.0 284.1 L467.0 289.0 L471.7 289.0 L471.7 284.1 L471.7 279.2 L471.7 274.4 L467.0 274.4 L467.0 279.2 Z" fill="#2f8f83" fill-opacity="0.34" stroke="#0e5b52" stroke-width="1.6" />
  <path d="M467.0 269.5 L467.0 274.4 L471.7 274.4 L471.7 269.5 L471.7 264.7 L467.0 264.7 L467.0 269.5 Z" fill="#2f8f83" fill-opacity="0.34" stroke="#0e5b52" stroke-width="1.6" />
  <path d="M457.6 254.9 L452.9 254.9 L452.9 259.8 L457.6 259.8 L457.6 254.9 Z" fill="#2f8f83" fill-opacity="0.34" stroke="#0e5b52" stroke-width="1.6" />
  <path d="M382.2 177.1 L382.2 181.9 L382.2 186.8 L382.2 191.7 L382.2 196.5 L382.2 201.4 L382.2 206.3 L382.2 211.1 L382.2 216.0 L382.2 220.9 L386.9 220.9 L391.6 220.9 L396.3 220.9 L401.1 220.9 L405.8 220.9 L405.8 216.0 L405.8 211.1 L405.8 206.3 L405.8 201.4 L405.8 196.5 L405.8 191.7 L405.8 186.8 L405.8 181.9 L405.8 177.1 L405.8 172.2 L401.1 172.2 L396.3 172.2 L391.6 172.2 L386.9 172.2 L382.2 172.2 L382.2 177.1 Z" fill="#2f8f83" fill-opacity="0.34" stroke="#0e5b52" stroke-width="1.6" />
  <path d="M434.0 259.8 L434.0 264.7 L434.0 269.5 L434.0 274.4 L434.0 279.2 L434.0 284.1 L434.0 289.0 L438.8 289.0 L443.5 289.0 L448.2 289.0 L452.9 289.0 L457.6 289.0 L462.3 289.0 L467.0 289.0 L467.0 284.1 L467.0 279.2 L467.0 274.4 L467.0 269.5 L467.0 264.7 L462.3 264.7 L462.3 259.8 L457.6 259.8 L452.9 259.8 L448.2 259.8 L443.5 259.8 L443.5 254.9 L438.8 254.9 L434.0 254.9 L434.0 259.8 Z" fill="#2f8f83" fill-opacity="0.34" stroke="#0e5b52" stroke-width="1.6" />
  <path d="M452.9 240.3 L448.2 240.3 L448.2 245.2 L452.9 245.2 L457.6 245.2 L457.6 250.1 L457.6 254.9 L457.6 259.8 L462.3 259.8 L462.3 254.9 L462.3 250.1 L467.0 250.1 L471.7 250.1 L471.7 245.2 L471.7 240.3 L467.0 240.3 L462.3 240.3 L457.6 240.3 L452.9 240.3 Z" fill="#2f8f83" fill-opacity="0.34" stroke="#0e5b52" stroke-width="1.6" />
  <path d="M467.0 250.1 L462.3 250.1 L462.3 254.9 L467.0 254.9 L467.0 259.8 L462.3 259.8 L462.3 264.7 L467.0 264.7 L471.7 264.7 L471.7 269.5 L476.4 269.5 L481.2 269.5 L481.2 264.7 L485.9 264.7 L490.6 264.7 L490.6 259.8 L485.9 259.8 L481.2 259.8 L476.4 259.8 L471.7 259.8 L471.7 254.9 L471.7 250.1 L467.0 250.1 Z" fill="#2f8f83" fill-opacity="0.34" stroke="#0e5b52" stroke-width="1.6" />
  <path d="M372.8 201.4 L372.8 206.3 L372.8 211.1 L372.8 216.0 L372.8 220.9 L377.5 220.9 L382.2 220.9 L382.2 216.0 L382.2 211.1 L382.2 206.3 L382.2 201.4 L382.2 196.5 L377.5 196.5 L372.8 196.5 L372.8 201.4 Z" fill="#2f8f83" fill-opacity="0.34" stroke="#0e5b52" stroke-width="1.6" />
  <path d="M386.9 167.3 L386.9 172.2 L391.6 172.2 L396.3 172.2 L401.1 172.2 L405.8 172.2 L405.8 167.3 L405.8 162.4 L401.1 162.4 L396.3 162.4 L391.6 162.4 L386.9 162.4 L386.9 167.3 Z" fill="#2f8f83" fill-opacity="0.34" stroke="#0e5b52" stroke-width="1.6" />
  <path d="M405.8 220.9 L405.8 225.7 L405.8 230.6 L405.8 235.5 L410.5 235.5 L415.2 235.5 L419.9 235.5 L419.9 230.6 L419.9 225.7 L419.9 220.9 L419.9 216.0 L415.2 216.0 L410.5 216.0 L405.8 216.0 L405.8 220.9 Z" fill="#2f8f83" fill-opacity="0.34" stroke="#0e5b52" stroke-width="1.6" />
  <path d="M382.2 225.7 L382.2 230.6 L382.2 235.5 L386.9 235.5 L391.6 235.5 L396.3 235.5 L401.1 235.5 L405.8 235.5 L405.8 230.6 L405.8 225.7 L405.8 220.9 L401.1 220.9 L396.3 220.9 L391.6 220.9 L386.9 220.9 L382.2 220.9 L382.2 225.7 Z" fill="#2f8f83" fill-opacity="0.34" stroke="#0e5b52" stroke-width="1.6" />
  <path d="M401.1 240.3 L401.1 245.2 L401.1 250.1 L401.1 254.9 L401.1 259.8 L401.1 264.7 L405.8 264.7 L410.5 264.7 L415.2 264.7 L415.2 259.8 L415.2 254.9 L415.2 250.1 L415.2 245.2 L415.2 240.3 L415.2 235.5 L410.5 235.5 L405.8 235.5 L401.1 235.5 L401.1 240.3 Z" fill="#2f8f83" fill-opacity="0.34" stroke="#0e5b52" stroke-width="1.6" />
  <path d="M382.2 240.3 L382.2 245.2 L382.2 250.1 L382.2 254.9 L382.2 259.8 L386.9 259.8 L391.6 259.8 L396.3 259.8 L396.3 264.7 L401.1 264.7 L401.1 259.8 L401.1 254.9 L401.1 250.1 L401.1 245.2 L401.1 240.3 L401.1 235.5 L396.3 235.5 L391.6 235.5 L386.9 235.5 L382.2 235.5 L382.2 240.3 Z" fill="#2f8f83" fill-opacity="0.34" stroke="#0e5b52" stroke-width="1.6" />
  <path d="M410.5 211.1 L405.8 211.1 L405.8 216.0 L410.5 216.0 L415.2 216.0 L419.9 216.0 L419.9 220.9 L419.9 225.7 L419.9 230.6 L419.9 235.5 L415.2 235.5 L415.2 240.3 L419.9 240.3 L424.6 240.3 L429.3 240.3 L434.0 240.3 L434.0 235.5 L429.3 235.5 L424.6 235.5 L424.6 230.6 L424.6 225.7 L424.6 220.9 L424.6 216.0 L429.3 216.0 L429.3 211.1 L424.6 211.1 L419.9 211.1 L415.2 211.1 L410.5 211.1 Z" fill="#2f8f83" fill-opacity="0.34" stroke="#0e5b52" stroke-width="1.6" />
  <path d="M429.3 220.9 L424.6 220.9 L424.6 225.7 L429.3 225.7 L429.3 220.9 Z" fill="#2f8f83" fill-opacity="0.34" stroke="#0e5b52" stroke-width="1.6" />
  <path d="M405.8 206.3 L405.8 211.1 L410.5 211.1 L415.2 211.1 L419.9 211.1 L424.6 211.1 L429.3 211.1 L429.3 206.3 L424.6 206.3 L419.9 206.3 L419.9 201.4 L415.2 201.4 L410.5 201.4 L405.8 201.4 L405.8 206.3 Z" fill="#2f8f83" fill-opacity="0.34" stroke="#0e5b52" stroke-width="1.6" />
  <path d="M405.8 177.1 L405.8 181.9 L405.8 186.8 L405.8 191.7 L405.8 196.5 L405.8 201.4 L410.5 201.4 L415.2 201.4 L419.9 201.4 L419.9 206.3 L424.6 206.3 L429.3 206.3 L429.3 201.4 L434.0 201.4 L438.8 201.4 L443.5 201.4 L443.5 196.5 L443.5 191.7 L443.5 186.8 L443.5 181.9 L443.5 177.1 L443.5 172.2 L438.8 172.2 L434.0 172.2 L429.3 172.2 L424.6 172.2 L419.9 172.2 L415.2 172.2 L410.5 172.2 L405.8 172.2 L405.8 177.1 Z" fill="#2f8f83" fill-opacity="0.34" stroke="#0e5b52" stroke-width="1.6" />
  <path d="M415.2 157.6 L415.2 162.4 L415.2 167.3 L415.2 172.2 L419.9 172.2 L424.6 172.2 L429.3 172.2 L434.0 172.2 L438.8 172.2 L443.5 172.2 L443.5 177.1 L448.2 177.1 L448.2 172.2 L448.2 167.3 L443.5 167.3 L443.5 162.4 L443.5 157.6 L443.5 152.7 L443.5 147.8 L443.5 143.0 L443.5 138.1 L438.8 138.1 L438.8 143.0 L434.0 143.0 L429.3 143.0 L424.6 143.0 L424.6 147.8 L419.9 147.8 L419.9 152.7 L415.2 152.7 L415.2 157.6 Z" fill="#2f8f83" fill-opacity="0.34" stroke="#0e5b52" stroke-width="1.6" />
  <path d="M405.8 147.8 L405.8 152.7 L405.8 157.6 L405.8 162.4 L405.8 167.3 L405.8 172.2 L410.5 172.2 L415.2 172.2 L415.2 167.3 L415.2 162.4 L415.2 157.6 L415.2 152.7 L419.9 152.7 L419.9 147.8 L424.6 147.8 L424.6 143.0 L419.9 143.0 L415.2 143.0 L410.5 143.0 L405.8 143.0 L405.8 147.8 Z" fill="#2f8f83" fill-opacity="0.34" stroke="#0e5b52" stroke-width="1.6" />
  <path d="M386.9 147.8 L386.9 152.7 L386.9 157.6 L386.9 162.4 L391.6 162.4 L396.3 162.4 L396.3 157.6 L396.3 152.7 L396.3 147.8 L396.3 143.0 L391.6 143.0 L386.9 143.0 L386.9 147.8 Z" fill="#2f8f83" fill-opacity="0.34" stroke="#0e5b52" stroke-width="1.6" />
  <path d="M396.3 147.8 L396.3 152.7 L401.1 152.7 L401.1 157.6 L396.3 157.6 L396.3 162.4 L401.1 162.4 L405.8 162.4 L405.8 157.6 L405.8 152.7 L405.8 147.8 L405.8 143.0 L401.1 143.0 L396.3 143.0 L396.3 147.8 Z" fill="#2f8f83" fill-opacity="0.34" stroke="#0e5b52" stroke-width="1.6" />
  <path d="M443.5 143.0 L443.5 147.8 L443.5 152.7 L443.5 157.6 L448.2 157.6 L452.9 157.6 L457.6 157.6 L457.6 152.7 L462.3 152.7 L467.0 152.7 L471.7 152.7 L471.7 147.8 L476.4 147.8 L476.4 143.0 L476.4 138.1 L481.2 138.1 L481.2 133.2 L476.4 133.2 L471.7 133.2 L467.0 133.2 L462.3 133.2 L462.3 138.1 L457.6 138.1 L452.9 138.1 L448.2 138.1 L443.5 138.1 L443.5 143.0 Z" fill="#2f8f83" fill-opacity="0.34" stroke="#0e5b52" stroke-width="1.6" />
  <path d="M358.7 181.9 L358.7 186.8 L358.7 191.7 L358.7 196.5 L358.7 201.4 L358.7 206.3 L358.7 211.1 L358.7 216.0 L358.7 220.9 L358.7 225.7 L358.7 230.6 L358.7 235.5 L358.7 240.3 L358.7 245.2 L358.7 250.1 L358.7 254.9 L358.7 259.8 L358.7 264.7 L358.7 269.5 L358.7 274.4 L363.4 274.4 L368.1 274.4 L372.8 274.4 L377.5 274.4 L382.2 274.4 L386.9 274.4 L391.6 274.4 L391.6 269.5 L391.6 264.7 L391.6 259.8 L386.9 259.8 L382.2 259.8 L382.2 254.9 L382.2 250.1 L382.2 245.2 L382.2 240.3 L382.2 235.5 L382.2 230.6 L382.2 225.7 L382.2 220.9 L377.5 220.9 L372.8 220.9 L372.8 216.0 L372.8 211.1 L372.8 206.3 L372.8 201.4 L372.8 196.5 L377.5 196.5 L382.2 196.5 L382.2 191.7 L382.2 186.8 L382.2 181.9 L382.2 177.1 L377.5 177.1 L372.8 177.1 L368.1 177.1 L363.4 177.1 L358.7 177.1 L358.7 181.9 Z" fill="#2f8f83" fill-opacity="0.34" stroke="#0e5b52" stroke-width="1.6" />
  <path d="M358.7 143.0 L358.7 147.8 L358.7 152.7 L358.7 157.6 L358.7 162.4 L358.7 167.3 L358.7 172.2 L358.7 177.1 L363.4 177.1 L368.1 177.1 L372.8 177.1 L377.5 177.1 L382.2 177.1 L382.2 172.2 L386.9 172.2 L386.9 167.3 L386.9 162.4 L386.9 157.6 L386.9 152.7 L386.9 147.8 L386.9 143.0 L391.6 143.0 L396.3 143.0 L396.3 138.1 L391.6 138.1 L386.9 138.1 L382.2 138.1 L377.5 138.1 L372.8 138.1 L368.1 138.1 L363.4 138.1 L358.7 138.1 L358.7 143.0 Z" fill="#2f8f83" fill-opacity="0.34" stroke="#0e5b52" stroke-width="1.6" />
  <path d="M533.0 279.2 L533.0 284.1 L533.0 289.0 L533.0 293.8 L537.7 293.8 L537.7 289.0 L537.7 284.1 L537.7 279.2 L537.7 274.4 L533.0 274.4 L533.0 279.2 Z" fill="#2f8f83" fill-opacity="0.34" stroke="#0e5b52" stroke-width="1.6" />
  <path d="M490.6 264.7 L490.6 269.5 L490.6 274.4 L495.3 274.4 L495.3 269.5 L495.3 264.7 L495.3 259.8 L490.6 259.8 L490.6 264.7 Z" fill="#2f8f83" fill-opacity="0.34" stroke="#0e5b52" stroke-width="1.6" />
  <path d="M500.0 254.9 L495.3 254.9 L495.3 259.8 L500.0 259.8 L504.7 259.8 L504.7 254.9 L509.4 254.9 L514.1 254.9 L518.8 254.9 L518.8 259.8 L523.6 259.8 L523.6 264.7 L523.6 269.5 L523.6 274.4 L528.3 274.4 L533.0 274.4 L537.7 274.4 L537.7 269.5 L542.4 269.5 L547.1 269.5 L551.8 269.5 L556.5 269.5 L556.5 264.7 L556.5 259.8 L556.5 254.9 L556.5 250.1 L551.8 250.1 L547.1 250.1 L542.4 250.1 L537.7 250.1 L533.0 250.1 L528.3 250.1 L523.6 250.1 L518.8 250.1 L514.1 250.1 L509.4 250.1 L504.7 250.1 L500.0 250.1 L500.0 254.9 Z" fill="#2f8f83" fill-opacity="0.34" stroke="#0e5b52" stroke-width="1.6" />
  <path d="M509.4 318.1 L509.4 323.0 L509.4 327.8 L509.4 332.7 L509.4 337.6 L509.4 342.4 L514.1 342.4 L518.8 342.4 L523.6 342.4 L528.3 342.4 L533.0 342.4 L537.7 342.4 L542.4 342.4 L542.4 337.6 L542.4 332.7 L542.4 327.8 L542.4 323.0 L542.4 318.1 L537.7 318.1 L533.0 318.1 L528.3 318.1 L523.6 318.1 L518.8 318.1 L514.1 318.1 L514.1 313.3 L509.4 313.3 L509.4 318.1 Z" fill="#2f8f83" fill-opacity="0.34" stroke="#0e5b52" stroke-width="1.6" />
  <path d="M509.4 347.3 L509.4 352.1 L509.4 357.0 L509.4 361.8 L514.1 361.8 L518.8 361.8 L523.6 361.8 L528.3 361.8 L533.0 361.8 L537.7 361.8 L537.7 357.0 L537.7 352.1 L537.7 347.3 L537.7 342.4 L533.0 342.4 L528.3 342.4 L523.6 342.4 L518.8 342.4 L514.1 342.4 L509.4 342.4 L509.4 347.3 Z" fill="#2f8f83" fill-opacity="0.34" stroke="#0e5b52" stroke-width="1.6" />
  <path d="M570.7 269.5 L566.0 269.5 L566.0 274.4 L570.7 274.4 L575.4 274.4 L575.4 279.2 L575.4 284.1 L575.4 289.0 L575.4 293.8 L575.4 298.7 L580.1 298.7 L584.8 298.7 L589.5 298.7 L589.5 293.8 L589.5 289.0 L589.5 284.1 L589.5 279.2 L589.5 274.4 L589.5 269.5 L589.5 264.7 L589.5 259.8 L584.8 259.8 L584.8 264.7 L584.8 269.5 L580.1 269.5 L575.4 269.5 L570.7 269.5 Z" fill="#2f8f83" fill-opacity="0.34" stroke="#0e5b52" stroke-width="1.6" />
  <path d="M589.5 293.8 L589.5 298.7 L589.5 303.5 L589.5 308.4 L594.2 308.4 L598.9 308.4 L603.7 308.4 L608.4 308.4 L613.1 308.4 L617.8 308.4 L617.8 303.5 L617.8 298.7 L617.8 293.8 L617.8 289.0 L613.1 289.0 L608.4 289.0 L603.7 289.0 L598.9 289.0 L594.2 289.0 L589.5 289.0 L589.5 293.8 Z" fill="#2f8f83" fill-opacity="0.34" stroke="#0e5b52" stroke-width="1.6" />
  <path d="M561.3 337.6 L561.3 342.4 L561.3 347.3 L566.0 347.3 L570.7 347.3 L575.4 347.3 L580.1 347.3 L580.1 342.4 L580.1 337.6 L580.1 332.7 L580.1 327.8 L580.1 323.0 L580.1 318.1 L575.4 318.1 L570.7 318.1 L566.0 318.1 L566.0 323.0 L566.0 327.8 L566.0 332.7 L561.3 332.7 L561.3 337.6 Z" fill="#2f8f83" fill-opacity="0.34" stroke="#0e5b52" stroke-width="1.6" />
  <path d="M589.5 313.3 L589.5 318.1 L589.5 323.0 L589.5 327.8 L594.2 327.8 L598.9 327.8 L603.7 327.8 L608.4 327.8 L613.1 327.8 L617.8 327.8 L617.8 323.0 L617.8 318.1 L617.8 313.3 L617.8 308.4 L613.1 308.4 L608.4 308.4 L603.7 308.4 L598.9 308.4 L594.2 308.4 L589.5 308.4 L589.5 313.3 Z" fill="#2f8f83" fill-opacity="0.34" stroke="#0e5b52" stroke-width="1.6" />
  <path d="M580.1 327.8 L580.1 332.7 L580.1 337.6 L580.1 342.4 L584.8 342.4 L589.5 342.4 L594.2 342.4 L594.2 337.6 L598.9 337.6 L603.7 337.6 L608.4 337.6 L613.1 337.6 L617.8 337.5 L617.8 332.7 L617.8 327.8 L613.1 327.8 L608.4 327.8 L603.7 327.8 L598.9 327.8 L594.2 327.8 L589.5 327.8 L589.5 323.0 L584.8 323.0 L580.1 323.0 L580.1 327.8 Z" fill="#2f8f83" fill-opacity="0.34" stroke="#0e5b52" stroke-width="1.6" />
  <path d="M622.5 303.5 L622.5 308.4 L622.5 313.3 L622.5 318.1 L622.5 323.0 L622.5 327.8 L622.5 332.7 L622.5 337.5 L622.5 342.4 L627.2 342.4 L627.2 337.5 L627.2 332.7 L627.2 327.8 L631.9 327.8 L631.9 323.0 L631.9 318.1 L631.9 313.3 L631.9 308.4 L631.9 303.5 L631.9 298.7 L627.2 298.7 L622.5 298.7 L622.5 303.5 Z" fill="#2f8f83" fill-opacity="0.34" stroke="#0e5b52" stroke-width="1.6" />
  <path d="M467.0 381.2 L462.3 381.2 L462.3 386.1 L467.0 386.1 L471.7 386.1 L471.7 381.2 L467.0 381.2 Z" fill="#2f8f83" fill-opacity="0.34" stroke="#0e5b52" stroke-width="1.6" />
  <path d="M528.3 274.4 L523.6 274.4 L523.6 279.2 L528.3 279.2 L533.0 279.2 L533.0 274.4 L528.3 274.4 Z" fill="#2f8f83" fill-opacity="0.34" stroke="#0e5b52" stroke-width="1.6" />
  <path d="M476.4 381.2 L471.7 381.2 L471.7 386.1 L476.4 386.1 L476.4 381.2 Z" fill="#2f8f83" fill-opacity="0.34" stroke="#0e5b52" stroke-width="1.6" />
  <path d="M462.3 381.2 L457.6 381.2 L457.6 386.1 L462.3 386.1 L462.3 381.2 Z" fill="#2f8f83" fill-opacity="0.34" stroke="#0e5b52" stroke-width="1.6" />
  <path d="M410.5 128.3 L410.5 133.2 L415.2 133.2 L419.9 133.2 L424.6 133.2 L424.6 138.1 L419.9 138.1 L419.9 143.0 L424.6 143.0 L429.3 143.0 L434.0 143.0 L438.8 143.0 L438.8 138.1 L438.8 133.2 L438.8 128.3 L438.8 123.5 L438.8 118.6 L434.0 118.6 L429.3 118.6 L424.6 118.6 L419.9 118.6 L415.2 118.6 L415.2 123.5 L410.5 123.5 L410.5 128.3 Z" fill="#2f8f83" fill-opacity="0.34" stroke="#0e5b52" stroke-width="1.6" />
  <path d="M410.5 138.1 L410.5 143.0 L415.2 143.0 L419.9 143.0 L419.9 138.1 L424.6 138.1 L424.6 133.2 L419.9 133.2 L415.2 133.2 L410.5 133.2 L410.5 138.1 Z" fill="#2f8f83" fill-opacity="0.34" stroke="#0e5b52" stroke-width="1.6" />
  <path d="M533.0 400.7 L533.0 405.5 L533.0 410.4 L533.0 415.2 L537.7 415.2 L537.7 410.4 L537.7 405.5 L542.4 405.5 L547.1 405.5 L547.1 400.7 L547.1 395.8 L547.1 391.0 L542.4 391.0 L542.4 395.8 L537.7 395.8 L533.0 395.8 L533.0 400.7 Z" fill="#2f8f83" fill-opacity="0.34" stroke="#0e5b52" stroke-width="1.6" />
  <path d="M533.0 434.6 L533.0 439.5 L533.0 444.3 L533.0 449.1 L533.0 454.0 L533.0 458.8 L533.0 463.7 L537.7 463.7 L537.7 458.8 L537.7 454.0 L537.7 449.1 L537.7 444.3 L537.7 439.5 L537.7 434.6 L542.4 434.6 L547.1 434.6 L547.1 429.8 L547.1 424.9 L547.1 420.1 L547.1 415.2 L547.1 410.4 L547.1 405.5 L542.4 405.5 L537.7 405.5 L537.7 410.4 L537.7 415.2 L542.4 415.2 L542.4 420.1 L542.4 424.9 L542.4 429.8 L537.7 429.8 L533.0 429.8 L533.0 434.6 Z" fill="#2f8f83" fill-opacity="0.34" stroke="#0e5b52" stroke-width="1.6" />
  <path d="M613.1 284.1 L613.1 289.0 L617.8 289.0 L617.8 284.1 L617.8 279.2 L613.1 279.2 L613.1 284.1 Z" fill="#2f8f83" fill-opacity="0.34" stroke="#0e5b52" stroke-width="1.6" />
  <path d="M594.2 274.4 L589.5 274.4 L589.5 279.2 L594.2 279.2 L598.9 279.2 L598.9 274.4 L594.2 274.4 Z" fill="#2f8f83" fill-opacity="0.34" stroke="#0e5b52" stroke-width="1.6" />
  <path d="M537.7 439.5 L537.7 444.3 L537.7 449.1 L537.7 454.0 L537.7 458.8 L542.4 458.8 L547.1 458.8 L551.8 458.8 L556.5 458.8 L561.3 458.8 L561.3 454.0 L561.3 449.1 L561.3 444.3 L561.3 439.4 L561.3 434.6 L561.3 429.8 L561.3 424.9 L561.3 420.1 L561.3 415.2 L561.3 410.4 L561.3 405.5 L561.3 400.7 L561.3 395.8 L561.3 390.9 L556.5 391.0 L551.8 391.0 L547.1 391.0 L547.1 395.8 L547.1 400.7 L547.1 405.5 L547.1 410.4 L547.1 415.2 L547.1 420.1 L547.1 424.9 L547.1 429.8 L547.1 434.6 L542.4 434.6 L537.7 434.6 L537.7 439.5 Z" fill="#2f8f83" fill-opacity="0.34" stroke="#0e5b52" stroke-width="1.6" />
  <path d="M495.3 473.4 L495.3 478.2 L495.3 483.1 L495.3 487.9 L500.0 487.9 L504.7 487.9 L509.4 487.9 L509.4 483.1 L504.7 483.1 L504.7 478.2 L504.7 473.4 L504.7 468.5 L500.0 468.5 L495.3 468.5 L495.3 473.4 Z" fill="#2f8f83" fill-opacity="0.34" stroke="#0e5b52" stroke-width="1.6" />
  <path d="M542.4 352.1 L542.4 357.0 L547.1 357.0 L551.8 357.0 L556.5 357.0 L561.3 357.0 L566.0 357.0 L570.7 357.0 L575.4 357.0 L575.4 361.8 L580.1 361.8 L580.1 366.7 L584.8 366.7 L589.5 366.7 L594.2 366.7 L598.9 366.7 L598.9 361.8 L598.9 357.0 L598.9 352.1 L598.9 347.3 L598.9 342.4 L603.7 342.4 L608.4 342.4 L613.1 342.4 L617.8 342.4 L622.5 342.4 L622.5 337.5 L622.5 332.7 L622.5 327.8 L622.5 323.0 L622.5 318.1 L622.5 313.3 L622.5 308.4 L622.5 303.5 L622.5 298.7 L627.2 298.7 L627.2 293.8 L631.9 293.8 L636.6 293.8 L641.3 293.8 L641.3 289.0 L641.3 284.1 L641.3 279.2 L641.3 274.4 L641.3 269.5 L641.3 264.7 L641.3 259.8 L636.6 259.8 L631.9 259.8 L631.9 254.9 L627.2 254.9 L627.2 259.8 L627.2 264.7 L627.2 269.5 L627.2 274.4 L622.5 274.4 L617.8 274.4 L617.8 279.2 L617.8 284.1 L617.8 289.0 L617.8 293.8 L617.8 298.7 L617.8 303.5 L617.8 308.4 L617.8 313.3 L617.8 318.1 L617.8 323.0 L617.8 327.8 L617.8 332.7 L617.8 337.5 L613.1 337.6 L608.4 337.6 L603.7 337.6 L598.9 337.6 L594.2 337.6 L594.2 342.4 L589.5 342.4 L584.8 342.4 L580.1 342.4 L580.1 347.3 L575.4 347.3 L570.7 347.3 L566.0 347.3 L561.3 347.3 L561.3 342.4 L556.5 342.4 L551.8 342.4 L547.1 342.4 L547.1 347.3 L542.4 347.3 L542.4 352.1 Z" fill="#2f8f83" fill-opacity="0.34" stroke="#0e5b52" stroke-width="1.6" />
  <path d="M537.7 347.3 L537.7 352.1 L537.7 357.0 L537.7 361.8 L537.7 366.7 L537.7 371.5 L537.7 376.4 L542.4 376.4 L542.4 371.5 L542.4 366.7 L542.4 361.8 L542.4 357.0 L542.4 352.1 L542.4 347.3 L547.1 347.3 L547.1 342.4 L551.8 342.4 L556.5 342.4 L561.3 342.4 L561.3 337.6 L556.5 337.6 L551.8 337.6 L547.1 337.6 L542.4 337.6 L542.4 342.4 L537.7 342.4 L537.7 347.3 Z" fill="#2f8f83" fill-opacity="0.34" stroke="#0e5b52" stroke-width="1.6" />
  <path d="M495.3 492.8 L495.3 497.6 L495.3 502.4 L495.3 507.3 L495.3 512.1 L495.3 517.0 L495.3 521.8 L500.0 521.8 L504.7 521.8 L509.4 521.8 L509.4 517.0 L509.4 512.1 L509.4 507.3 L509.4 502.4 L509.4 497.6 L509.4 492.8 L509.4 487.9 L504.7 487.9 L500.0 487.9 L495.3 487.9 L495.3 492.8 Z" fill="#2f8f83" fill-opacity="0.34" stroke="#0e5b52" stroke-width="1.6" />
  <path d="M476.4 463.7 L471.7 463.7 L471.7 468.5 L476.4 468.5 L481.2 468.5 L485.9 468.5 L490.6 468.5 L495.3 468.5 L500.0 468.5 L504.7 468.5 L509.4 468.5 L514.1 468.5 L518.9 468.5 L523.6 468.5 L523.6 463.7 L523.6 458.8 L518.9 458.8 L514.1 458.8 L509.4 458.8 L504.7 458.8 L500.0 458.8 L495.3 458.8 L490.6 458.8 L485.9 458.8 L481.2 458.8 L476.4 458.8 L476.4 463.7 Z" fill="#2f8f83" fill-opacity="0.34" stroke="#0e5b52" stroke-width="1.6" />
  <path d="M608.4 366.7 L608.4 361.8 L608.4 357.0 L608.4 352.1 L613.1 352.1 L617.8 352.1 L622.5 352.1 L627.2 352.1 L631.9 352.1 L631.9 347.3 L631.9 342.4 L631.9 337.5 L631.9 332.7 L631.9 327.8 L627.2 327.8 L627.2 332.7 L627.2 337.5 L627.2 342.4 L622.5 342.4 L617.8 342.4 L613.1 342.4 L608.4 342.4 L603.7 342.4 L598.9 342.4 L598.9 347.3 L598.9 352.1 L598.9 357.0 L598.9 361.8 L598.9 366.7 L594.2 366.7 L589.5 366.7 L584.8 366.7 L580.1 366.7 L580.1 361.8 L575.4 361.8 L575.4 357.0 L570.7 357.0 L566.0 357.0 L561.3 357.0 L556.5 357.0 L551.8 357.0 L547.1 357.0 L547.1 361.8 L547.1 366.7 L547.1 371.5 L547.1 376.4 L547.1 381.2 L547.1 386.1 L547.1 391.0 L551.8 391.0 L556.5 391.0 L561.3 390.9 L566.0 390.9 L570.7 390.9 L575.4 390.9 L580.1 390.9 L580.1 386.1 L580.1 381.2 L584.8 381.2 L589.5 381.2 L594.2 381.2 L598.9 381.2 L603.7 381.2 L608.4 381.2 L608.4 376.4 L608.4 371.5 L608.4 366.7 Z" fill="#2f8f83" fill-opacity="0.34" stroke="#0e5b52" stroke-width="1.6" />
  <path d="M537.7 386.1 L537.7 391.0 L542.4 391.0 L547.1 391.0 L547.1 386.1 L547.1 381.2 L547.1 376.4 L547.1 371.5 L547.1 366.7 L547.1 361.8 L547.1 357.0 L542.4 357.0 L542.4 361.8 L542.4 366.7 L542.4 371.5 L542.4 376.4 L542.4 381.2 L537.7 381.2 L537.7 386.1 Z" fill="#2f8f83" fill-opacity="0.34" stroke="#0e5b52" stroke-width="1.6" />
  <path d="M528.3 420.1 L533.0 420.1 L533.0 415.2 L533.0 410.4 L533.0 405.5 L533.0 400.7 L533.0 395.8 L528.3 395.8 L523.6 395.8 L523.6 400.7 L523.6 405.5 L523.6 410.4 L523.6 415.2 L523.6 420.1 L523.6 424.9 L523.6 429.8 L523.6 434.6 L523.6 439.5 L523.6 444.3 L523.6 449.1 L523.6 454.0 L523.6 458.8 L523.6 463.7 L523.6 468.5 L528.3 468.5 L533.0 468.5 L533.0 463.7 L533.0 458.8 L533.0 454.0 L533.0 449.1 L533.0 444.3 L533.0 439.5 L533.0 434.6 L533.0 429.8 L533.0 424.9 L528.3 424.9 L528.3 420.1 Z" fill="#2f8f83" fill-opacity="0.34" stroke="#0e5b52" stroke-width="1.6" />
  <path d="M533.0 391.0 L528.3 391.0 L528.3 395.8 L533.0 395.8 L537.7 395.8 L542.4 395.8 L542.4 391.0 L537.7 391.0 L533.0 391.0 Z" fill="#2f8f83" fill-opacity="0.34" stroke="#0e5b52" stroke-width="1.6" />
  <path d="M424.6 230.6 L424.6 235.5 L429.3 235.5 L434.0 235.5 L434.0 240.3 L434.0 245.2 L434.0 250.1 L434.0 254.9 L438.8 254.9 L443.5 254.9 L448.2 254.9 L448.2 250.1 L448.2 245.2 L448.2 240.3 L452.9 240.3 L457.6 240.3 L457.6 235.5 L457.6 230.6 L457.6 225.7 L452.9 225.7 L448.2 225.7 L448.2 220.9 L448.2 216.0 L443.5 216.0 L438.8 216.0 L434.0 216.0 L429.3 216.0 L424.6 216.0 L424.6 220.9 L429.3 220.9 L429.3 225.7 L424.6 225.7 L424.6 230.6 Z" fill="#2f8f83" fill-opacity="0.34" stroke="#0e5b52" stroke-width="1.6" />
  <path d="M462.3 216.0 L457.6 216.0 L457.6 220.9 L462.3 220.9 L462.3 225.7 L467.0 225.7 L467.0 220.9 L467.0 216.0 L462.3 216.0 Z" fill="#2f8f83" fill-opacity="0.34" stroke="#0e5b52" stroke-width="1.6" />
  <path d="M462.3 220.9 L457.6 220.9 L457.6 225.7 L462.3 225.7 L462.3 220.9 Z" fill="#2f8f83" fill-opacity="0.34" stroke="#0e5b52" stroke-width="1.6" />
  <path d="M467.0 235.5 L467.0 240.3 L471.7 240.3 L471.7 235.5 L471.7 230.6 L467.0 230.6 L467.0 235.5 Z" fill="#2f8f83" fill-opacity="0.34" stroke="#0e5b52" stroke-width="1.6" />
  <path d="M457.6 230.6 L457.6 235.5 L457.6 240.3 L462.3 240.3 L467.0 240.3 L467.0 235.5 L467.0 230.6 L467.0 225.7 L462.3 225.7 L457.6 225.7 L457.6 230.6 Z" fill="#2f8f83" fill-opacity="0.34" stroke="#0e5b52" stroke-width="1.6" />
  <path d="M462.3 211.1 L457.6 211.1 L457.6 216.0 L462.3 216.0 L467.0 216.0 L467.0 211.1 L462.3 211.1 Z" fill="#2f8f83" fill-opacity="0.34" stroke="#0e5b52" stroke-width="1.6" />
  <path d="M448.2 211.1 L443.5 211.1 L443.5 216.0 L448.2 216.0 L448.2 220.9 L448.2 225.7 L452.9 225.7 L457.6 225.7 L457.6 220.9 L457.6 216.0 L457.6 211.1 L452.9 211.1 L448.2 211.1 Z" fill="#2f8f83" fill-opacity="0.34" stroke="#0e5b52" stroke-width="1.6" />
  <!-- title strip -->
  <rect x="0" y="0" width="1000" height="54" fill="#173042" />
  <text x="20" y="34" font-size="21" font-weight="bold" fill="#ffffff">Kodiak Copper Corp. — Mineral Claims</text>
  <text x="980" y="34" font-size="15" fill="#cfe3df" text-anchor="end">KDK</text>
  <!-- scale bar -->
  <g transform="translate(855.262975509115, 596)">
    <rect x="0" y="0" width="52.36851224544252" height="8" fill="#173042" />
    <rect x="52.36851224544252" y="0" width="52.36851224544252" height="8" fill="#ffffff" stroke="#173042" stroke-width="1" />
    <text x="52.36851224544252" y="-6" font-size="12" fill="#173042" text-anchor="middle">10 km</text>
  </g>
  <!-- north arrow -->
  <g transform="translate(956, 92)">
    <circle r="17" fill="#ffffff" stroke="#b9b09a" />
    <path d="M0 -10 L5 7 L0 3 L-5 7 Z" fill="#173042" />
    <text y="14" font-size="9" font-weight="bold" fill="#173042" text-anchor="middle">N</text>
  </g>
  <!-- watermark -->
  <text x="20" y="620" font-size="13" fill="#7d8b8a">Map by Exploration Maps — explorationmaps.com</text>
</svg>