<svg xmlns="http://www.w3.org/2000/svg" viewBox="0 0 1000 640" font-family="Arial, Helvetica, sans-serif">
  <rect width="1000" height="640" fill="#f3efe6" />
  <line x1="200" y1="0" x2="200" y2="640" stroke="#d9d2c0" stroke-width="0.7" />
  <line x1="0" y1="128" x2="1000" y2="128" stroke="#d9d2c0" stroke-width="0.7" />
  <line x1="400" y1="0" x2="400" y2="640" stroke="#d9d2c0" stroke-width="0.7" />
  <line x1="0" y1="256" x2="1000" y2="256" stroke="#d9d2c0" stroke-width="0.7" />
  <line x1="600" y1="0" x2="600" y2="640" stroke="#d9d2c0" stroke-width="0.7" />
  <line x1="0" y1="384" x2="1000" y2="384" stroke="#d9d2c0" stroke-width="0.7" />
  <line x1="800" y1="0" x2="800" y2="640" stroke="#d9d2c0" stroke-width="0.7" />
  <line x1="0" y1="512" x2="1000" y2="512" stroke="#d9d2c0" stroke-width="0.7" />
  <path d="M501.4 285.8 L501.4 285.2 L500.7 285.2 L500.7 285.8 L501.4 285.8 Z" fill="#2f8f83" fill-opacity="0.34" stroke="#0e5b52" stroke-width="1.6" />
  <path d="M499.3 285.8 L499.3 285.2 L498.6 285.2 L498.6 285.8 L499.3 285.8 Z" fill="#2f8f83" fill-opacity="0.34" stroke="#0e5b52" stroke-width="1.6" />
  <path d="M503.4 276.4 L503.4 275.8 L502.7 275.8 L502.7 276.4 L503.4 276.4 Z" fill="#2f8f83" fill-opacity="0.34" stroke="#0e5b52" stroke-width="1.6" />
  <path d="M500.7 286.5 L500.7 285.8 L500.0 285.8 L500.0 286.5 L500.7 286.5 Z" fill="#2f8f83" fill-opacity="0.34" stroke="#0e5b52" stroke-width="1.6" />
  <path d="M500.0 286.5 L500.0 285.8 L499.3 285.8 L499.3 286.5 L500.0 286.5 Z" fill="#2f8f83" fill-opacity="0.34" stroke="#0e5b52" stroke-width="1.6" />
  <path d="M498.6 286.5 L498.6 285.8 L498.0 285.8 L498.0 286.5 L498.6 286.5 Z" fill="#2f8f83" fill-opacity="0.34" stroke="#0e5b52" stroke-width="1.6" />
  <path d="M500.7 287.2 L500.7 286.5 L500.0 286.5 L500.0 287.2 L500.7 287.2 Z" fill="#2f8f83" fill-opacity="0.34" stroke="#0e5b52" stroke-width="1.6" />
  <path d="M500.0 283.2 L500.0 282.5 L499.3 282.5 L499.3 283.2 L500.0 283.2 Z" fill="#2f8f83" fill-opacity="0.34" stroke="#0e5b52" stroke-width="1.6" />
  <path d="M502.7 280.5 L502.7 279.8 L502.0 279.8 L502.0 280.5 L502.7 280.5 Z" fill="#2f8f83" fill-opacity="0.34" stroke="#0e5b52" stroke-width="1.6" />
  <path d="M502.0 287.9 L502.0 287.2 L501.4 287.2 L501.4 287.9 L502.0 287.9 Z" fill="#2f8f83" fill-opacity="0.34" stroke="#0e5b52" stroke-width="1.6" />
  <path d="M501.4 288.5 L501.4 287.9 L500.7 287.9 L500.7 288.5 L501.4 288.5 Z" fill="#2f8f83" fill-opacity="0.34" stroke="#0e5b52" stroke-width="1.6" />
  <path d="M501.4 281.1 L501.4 280.5 L500.7 280.5 L500.7 281.1 L501.4 281.1 Z" fill="#2f8f83" fill-opacity="0.34" stroke="#0e5b52" stroke-width="1.6" />
  <path d="M496.6 281.1 L496.6 280.5 L495.9 280.5 L495.9 281.1 L496.6 281.1 Z" fill="#2f8f83" fill-opacity="0.34" stroke="#0e5b52" stroke-width="1.6" />
  <path d="M503.4 282.5 L503.4 281.8 L502.7 281.8 L502.7 282.5 L503.4 282.5 Z" fill="#2f8f83" fill-opacity="0.34" stroke="#0e5b52" stroke-width="1.6" />
  <path d="M500.0 278.5 L500.0 277.8 L499.3 277.8 L499.3 278.5 L500.0 278.5 Z" fill="#2f8f83" fill-opacity="0.34" stroke="#0e5b52" stroke-width="1.6" />
  <path d="M498.0 284.5 L498.0 283.8 L497.3 283.8 L497.3 284.5 L498.0 284.5 Z" fill="#2f8f83" fill-opacity="0.34" stroke="#0e5b52" stroke-width="1.6" />
  <path d="M415.8 517.0 L415.8 516.3 L415.1 516.3 L415.1 517.0 L415.8 517.0 Z" fill="#2f8f83" fill-opacity="0.34" stroke="#0e5b52" stroke-width="1.6" />
  <path d="M495.2 284.5 L495.2 283.8 L494.6 283.8 L494.6 284.5 L495.2 284.5 Z" fill="#2f8f83" fill-opacity="0.34" stroke="#0e5b52" stroke-width="1.6" />
  <path d="M497.3 284.5 L497.3 283.8 L496.6 283.8 L496.6 284.5 L497.3 284.5 Z" fill="#2f8f83" fill-opacity="0.34" stroke="#0e5b52" stroke-width="1.6" />
  <path d="M501.4 283.2 L501.4 282.5 L500.7 282.5 L500.7 283.2 L501.4 283.2 Z" fill="#2f8f83" fill-opacity="0.34" stroke="#0e5b52" stroke-width="1.6" />
  <path d="M509.5 285.2 L509.5 284.5 L508.8 284.5 L508.8 285.2 L509.5 285.2 Z" fill="#2f8f83" fill-opacity="0.34" stroke="#0e5b52" stroke-width="1.6" />
  <path d="M509.5 286.5 L509.5 285.8 L508.8 285.8 L508.8 286.5 L509.5 286.5 Z" fill="#2f8f83" fill-opacity="0.34" stroke="#0e5b52" stroke-width="1.6" />
  <path d="M500.7 278.5 L500.7 277.8 L500.0 277.8 L500.0 278.5 L500.7 278.5 Z" fill="#2f8f83" fill-opacity="0.34" stroke="#0e5b52" stroke-width="1.6" />
  <path d="M500.0 288.5 L500.0 287.9 L499.3 287.9 L499.3 288.5 L500.0 288.5 Z" fill="#2f8f83" fill-opacity="0.34" stroke="#0e5b52" stroke-width="1.6" />
  <path d="M498.0 283.2 L498.0 282.5 L497.3 282.5 L497.3 283.2 L498.0 283.2 Z" fill="#2f8f83" fill-opacity="0.34" stroke="#0e5b52" stroke-width="1.6" />
  <path d="M500.7 285.2 L500.7 284.5 L500.0 284.5 L500.0 285.2 L500.7 285.2 Z" fill="#2f8f83" fill-opacity="0.34" stroke="#0e5b52" stroke-width="1.6" />
  <path d="M497.3 278.5 L497.3 277.8 L496.6 277.8 L496.6 278.5 L497.3 278.5 Z" fill="#2f8f83" fill-opacity="0.34" stroke="#0e5b52" stroke-width="1.6" />
  <path d="M495.9 278.5 L495.9 277.8 L495.2 277.8 L495.2 278.5 L495.9 278.5 Z" fill="#2f8f83" fill-opacity="0.34" stroke="#0e5b52" stroke-width="1.6" />
  <path d="M501.4 289.2 L501.4 288.5 L500.7 288.5 L500.7 289.2 L501.4 289.2 Z" fill="#2f8f83" fill-opacity="0.34" stroke="#0e5b52" stroke-width="1.6" />
  <path d="M500.7 290.5 L500.7 289.9 L500.0 289.9 L500.0 290.5 L500.7 290.5 Z" fill="#2f8f83" fill-opacity="0.34" stroke="#0e5b52" stroke-width="1.6" />
  <path d="M500.0 283.8 L500.0 283.2 L499.3 283.2 L499.3 283.8 L500.0 283.8 Z" fill="#2f8f83" fill-opacity="0.34" stroke="#0e5b52" stroke-width="1.6" />
  <path d="M500.7 281.1 L500.7 280.5 L500.0 280.5 L500.0 281.1 L500.7 281.1 Z" fill="#2f8f83" fill-opacity="0.34" stroke="#0e5b52" stroke-width="1.6" />
  <path d="M500.0 279.1 L500.0 278.5 L499.3 278.5 L499.3 279.1 L500.0 279.1 Z" fill="#2f8f83" fill-opacity="0.34" stroke="#0e5b52" stroke-width="1.6" />
  <path d="M508.2 285.2 L508.2 284.5 L507.5 284.5 L507.5 285.2 L508.2 285.2 Z" fill="#2f8f83" fill-opacity="0.34" stroke="#0e5b52" stroke-width="1.6" />
  <path d="M495.2 280.5 L495.2 279.8 L494.6 279.8 L494.6 280.5 L495.2 280.5 Z" fill="#2f8f83" fill-opacity="0.34" stroke="#0e5b52" stroke-width="1.6" />
  <path d="M495.2 281.8 L495.2 281.1 L494.6 281.1 L494.6 281.8 L495.2 281.8 Z" fill="#2f8f83" fill-opacity="0.34" stroke="#0e5b52" stroke-width="1.6" />
  <path d="M498.0 281.8 L498.0 281.1 L497.3 281.1 L497.3 281.8 L498.0 281.8 Z" fill="#2f8f83" fill-opacity="0.34" stroke="#0e5b52" stroke-width="1.6" />
  <path d="M494.6 282.5 L494.6 281.8 L493.9 281.8 L493.9 282.5 L494.6 282.5 Z" fill="#2f8f83" fill-opacity="0.34" stroke="#0e5b52" stroke-width="1.6" />
  <path d="M493.2 278.5 L493.2 277.8 L492.5 277.8 L492.5 278.5 L493.2 278.5 Z" fill="#2f8f83" fill-opacity="0.34" stroke="#0e5b52" stroke-width="1.6" />
  <path d="M504.8 281.8 L504.8 281.1 L504.1 281.1 L504.1 281.8 L504.8 281.8 Z" fill="#2f8f83" fill-opacity="0.34" stroke="#0e5b52" stroke-width="1.6" />
  <path d="M502.0 281.8 L502.0 281.1 L501.4 281.1 L501.4 281.8 L502.0 281.8 Z" fill="#2f8f83" fill-opacity="0.34" stroke="#0e5b52" stroke-width="1.6" />
  <path d="M502.7 283.8 L502.7 283.2 L502.0 283.2 L502.0 283.8 L502.7 283.8 Z" fill="#2f8f83" fill-opacity="0.34" stroke="#0e5b52" stroke-width="1.6" />
  <path d="M500.7 279.1 L500.7 278.5 L500.0 278.5 L500.0 279.1 L500.7 279.1 Z" fill="#2f8f83" fill-opacity="0.34" stroke="#0e5b52" stroke-width="1.6" />
  <path d="M506.1 286.5 L506.1 285.8 L505.4 285.8 L505.4 286.5 L506.1 286.5 Z" fill="#2f8f83" fill-opacity="0.34" stroke="#0e5b52" stroke-width="1.6" />
  <path d="M498.0 276.4 L498.0 275.8 L497.3 275.8 L497.3 276.4 L498.0 276.4 Z" fill="#2f8f83" fill-opacity="0.34" stroke="#0e5b52" stroke-width="1.6" />
  <path d="M507.5 284.5 L507.5 283.8 L506.8 283.8 L506.8 284.5 L507.5 284.5 Z" fill="#2f8f83" fill-opacity="0.34" stroke="#0e5b52" stroke-width="1.6" />
  <path d="M501.4 287.9 L501.4 287.2 L500.7 287.2 L500.7 287.9 L501.4 287.9 Z" fill="#2f8f83" fill-opacity="0.34" stroke="#0e5b52" stroke-width="1.6" />
  <path d="M502.0 289.9 L502.0 289.2 L501.4 289.2 L501.4 289.9 L502.0 289.9 Z" fill="#2f8f83" fill-opacity="0.34" stroke="#0e5b52" stroke-width="1.6" />
  <path d="M502.0 283.2 L502.0 282.5 L501.4 282.5 L501.4 283.2 L502.0 283.2 Z" fill="#2f8f83" fill-opacity="0.34" stroke="#0e5b52" stroke-width="1.6" />
  <path d="M508.8 285.2 L508.8 284.5 L508.2 284.5 L508.2 285.2 L508.8 285.2 Z" fill="#2f8f83" fill-opacity="0.34" stroke="#0e5b52" stroke-width="1.6" />
  <path d="M508.8 285.8 L508.8 285.2 L508.2 285.2 L508.2 285.8 L508.8 285.8 Z" fill="#2f8f83" fill-opacity="0.34" stroke="#0e5b52" stroke-width="1.6" />
  <path d="M496.6 283.2 L496.6 282.5 L495.9 282.5 L495.9 283.2 L496.6 283.2 Z" fill="#2f8f83" fill-opacity="0.34" stroke="#0e5b52" stroke-width="1.6" />
  <path d="M499.3 285.2 L499.3 284.5 L498.6 284.5 L498.6 285.2 L499.3 285.2 Z" fill="#2f8f83" fill-opacity="0.34" stroke="#0e5b52" stroke-width="1.6" />
  <path d="M506.8 285.8 L506.8 285.2 L506.1 285.2 L506.1 285.8 L506.8 285.8 Z" fill="#2f8f83" fill-opacity="0.34" stroke="#0e5b52" stroke-width="1.6" />
  <path d="M414.4 517.6 L414.4 517.0 L413.7 517.0 L413.7 517.6 L414.4 517.6 Z" fill="#2f8f83" fill-opacity="0.34" stroke="#0e5b52" stroke-width="1.6" />
  <path d="M507.5 286.5 L507.5 285.8 L506.8 285.8 L506.8 286.5 L507.5 286.5 Z" fill="#2f8f83" fill-opacity="0.34" stroke="#0e5b52" stroke-width="1.6" />
  <path d="M414.4 516.3 L414.4 515.7 L413.7 515.7 L413.7 516.3 L414.4 516.3 Z" fill="#2f8f83" fill-opacity="0.34" stroke="#0e5b52" stroke-width="1.6" />
  <path d="M499.3 284.5 L499.3 283.8 L498.6 283.8 L498.6 284.5 L499.3 284.5 Z" fill="#2f8f83" fill-opacity="0.34" stroke="#0e5b52" stroke-width="1.6" />
  <path d="M495.2 279.1 L495.2 278.5 L494.6 278.5 L494.6 279.1 L495.2 279.1 Z" fill="#2f8f83" fill-opacity="0.34" stroke="#0e5b52" stroke-width="1.6" />
  <path d="M495.9 283.2 L495.9 282.5 L495.2 282.5 L495.2 283.2 L495.9 283.2 Z" fill="#2f8f83" fill-opacity="0.34" stroke="#0e5b52" stroke-width="1.6" />
  <path d="M504.1 278.5 L504.1 277.8 L503.4 277.8 L503.4 278.5 L504.1 278.5 Z" fill="#2f8f83" fill-opacity="0.34" stroke="#0e5b52" stroke-width="1.6" />
  <path d="M495.9 280.5 L495.9 279.8 L495.2 279.8 L495.2 280.5 L495.9 280.5 Z" fill="#2f8f83" fill-opacity="0.34" stroke="#0e5b52" stroke-width="1.6" />
  <path d="M504.1 280.5 L504.1 279.8 L503.4 279.8 L503.4 280.5 L504.1 280.5 Z" fill="#2f8f83" fill-opacity="0.34" stroke="#0e5b52" stroke-width="1.6" />
  <path d="M500.7 282.5 L500.7 281.8 L500.0 281.8 L500.0 282.5 L500.7 282.5 Z" fill="#2f8f83" fill-opacity="0.34" stroke="#0e5b52" stroke-width="1.6" />
  <path d="M502.7 281.8 L502.7 281.1 L502.0 281.1 L502.0 281.8 L502.7 281.8 Z" fill="#2f8f83" fill-opacity="0.34" stroke="#0e5b52" stroke-width="1.6" />
  <path d="M496.6 280.5 L496.6 279.8 L495.9 279.8 L495.9 280.5 L496.6 280.5 Z" fill="#2f8f83" fill-opacity="0.34" stroke="#0e5b52" stroke-width="1.6" />
  <path d="M498.0 282.5 L498.0 281.8 L497.3 281.8 L497.3 282.5 L498.0 282.5 Z" fill="#2f8f83" fill-opacity="0.34" stroke="#0e5b52" stroke-width="1.6" />
  <path d="M498.6 279.1 L498.6 278.5 L498.0 278.5 L498.0 279.1 L498.6 279.1 Z" fill="#2f8f83" fill-opacity="0.34" stroke="#0e5b52" stroke-width="1.6" />
  <path d="M502.7 276.4 L502.7 275.8 L502.0 275.8 L502.0 276.4 L502.7 276.4 Z" fill="#2f8f83" fill-opacity="0.34" stroke="#0e5b52" stroke-width="1.6" />
  <path d="M503.4 277.8 L503.4 277.1 L502.7 277.1 L502.7 277.8 L503.4 277.8 Z" fill="#2f8f83" fill-opacity="0.34" stroke="#0e5b52" stroke-width="1.6" />
  <path d="M502.7 277.8 L502.7 277.1 L502.0 277.1 L502.0 277.8 L502.7 277.8 Z" fill="#2f8f83" fill-opacity="0.34" stroke="#0e5b52" stroke-width="1.6" />
  <path d="M497.3 275.8 L497.3 275.1 L496.6 275.1 L496.6 275.8 L497.3 275.8 Z" fill="#2f8f83" fill-opacity="0.34" stroke="#0e5b52" stroke-width="1.6" />
  <path d="M508.2 283.8 L508.2 283.2 L507.5 283.2 L507.5 283.8 L508.2 283.8 Z" fill="#2f8f83" fill-opacity="0.34" stroke="#0e5b52" stroke-width="1.6" />
  <path d="M504.1 279.1 L504.1 278.5 L503.4 278.5 L503.4 279.1 L504.1 279.1 Z" fill="#2f8f83" fill-opacity="0.34" stroke="#0e5b52" stroke-width="1.6" />
  <path d="M504.8 285.8 L504.8 285.2 L504.1 285.2 L504.1 285.8 L504.8 285.8 Z" fill="#2f8f83" fill-opacity="0.34" stroke="#0e5b52" stroke-width="1.6" />
  <path d="M506.8 286.5 L506.8 285.8 L506.1 285.8 L506.1 286.5 L506.8 286.5 Z" fill="#2f8f83" fill-opacity="0.34" stroke="#0e5b52" stroke-width="1.6" />
  <path d="M500.7 289.2 L500.7 288.5 L500.0 288.5 L500.0 289.2 L500.7 289.2 Z" fill="#2f8f83" fill-opacity="0.34" stroke="#0e5b52" stroke-width="1.6" />
  <path d="M499.3 279.1 L499.3 278.5 L498.6 278.5 L498.6 279.1 L499.3 279.1 Z" fill="#2f8f83" fill-opacity="0.34" stroke="#0e5b52" stroke-width="1.6" />
  <path d="M502.7 279.1 L502.7 278.5 L502.0 278.5 L502.0 279.1 L502.7 279.1 Z" fill="#2f8f83" fill-opacity="0.34" stroke="#0e5b52" stroke-width="1.6" />
  <path d="M502.7 279.8 L502.7 279.1 L502.0 279.1 L502.0 279.8 L502.7 279.8 Z" fill="#2f8f83" fill-opacity="0.34" stroke="#0e5b52" stroke-width="1.6" />
  <path d="M498.0 287.2 L498.0 286.5 L497.3 286.5 L497.3 287.2 L498.0 287.2 Z" fill="#2f8f83" fill-opacity="0.34" stroke="#0e5b52" stroke-width="1.6" />
  <path d="M499.3 281.8 L499.3 281.1 L498.6 281.1 L498.6 281.8 L499.3 281.8 Z" fill="#2f8f83" fill-opacity="0.34" stroke="#0e5b52" stroke-width="1.6" />
  <path d="M416.5 516.3 L416.5 515.7 L415.8 515.7 L415.8 516.3 L416.5 516.3 Z" fill="#2f8f83" fill-opacity="0.34" stroke="#0e5b52" stroke-width="1.6" />
  <path d="M493.9 283.2 L493.9 282.5 L493.2 282.5 L493.2 283.2 L493.9 283.2 Z" fill="#2f8f83" fill-opacity="0.34" stroke="#0e5b52" stroke-width="1.6" />
  <path d="M499.3 287.2 L499.3 286.5 L498.6 286.5 L498.6 287.2 L499.3 287.2 Z" fill="#2f8f83" fill-opacity="0.34" stroke="#0e5b52" stroke-width="1.6" />
  <path d="M504.8 283.2 L504.8 282.5 L504.1 282.5 L504.1 283.2 L504.8 283.2 Z" fill="#2f8f83" fill-opacity="0.34" stroke="#0e5b52" stroke-width="1.6" />
  <path d="M493.2 279.1 L493.2 278.5 L492.5 278.5 L492.5 279.1 L493.2 279.1 Z" fill="#2f8f83" fill-opacity="0.34" stroke="#0e5b52" stroke-width="1.6" />
  <path d="M504.1 279.8 L504.1 279.1 L503.4 279.1 L503.4 279.8 L504.1 279.8 Z" fill="#2f8f83" fill-opacity="0.34" stroke="#0e5b52" stroke-width="1.6" />
  <path d="M506.1 280.5 L506.1 279.8 L505.4 279.8 L505.4 280.5 L506.1 280.5 Z" fill="#2f8f83" fill-opacity="0.34" stroke="#0e5b52" stroke-width="1.6" />
  <path d="M502.0 282.5 L502.0 281.8 L501.4 281.8 L501.4 282.5 L502.0 282.5 Z" fill="#2f8f83" fill-opacity="0.34" stroke="#0e5b52" stroke-width="1.6" />
  <path d="M498.6 282.5 L498.6 281.8 L498.0 281.8 L498.0 282.5 L498.6 282.5 Z" fill="#2f8f83" fill-opacity="0.34" stroke="#0e5b52" stroke-width="1.6" />
  <path d="M502.0 283.8 L502.0 283.2 L501.4 283.2 L501.4 283.8 L502.0 283.8 Z" fill="#2f8f83" fill-opacity="0.34" stroke="#0e5b52" stroke-width="1.6" />
  <path d="M500.7 283.8 L500.7 283.2 L500.0 283.2 L500.0 283.8 L500.7 283.8 Z" fill="#2f8f83" fill-opacity="0.34" stroke="#0e5b52" stroke-width="1.6" />
  <path d="M503.4 283.8 L503.4 283.2 L502.7 283.2 L502.7 283.8 L503.4 283.8 Z" fill="#2f8f83" fill-opacity="0.34" stroke="#0e5b52" stroke-width="1.6" />
  <path d="M500.7 284.5 L500.7 283.8 L500.0 283.8 L500.0 284.5 L500.7 284.5 Z" fill="#2f8f83" fill-opacity="0.34" stroke="#0e5b52" stroke-width="1.6" />
  <path d="M500.0 287.9 L500.0 287.2 L499.3 287.2 L499.3 287.9 L500.0 287.9 Z" fill="#2f8f83" fill-opacity="0.34" stroke="#0e5b52" stroke-width="1.6" />
  <path d="M493.9 281.1 L493.9 280.5 L493.2 280.5 L493.2 281.1 L493.9 281.1 Z" fill="#2f8f83" fill-opacity="0.34" stroke="#0e5b52" stroke-width="1.6" />
  <path d="M502.7 281.1 L502.7 280.5 L502.0 280.5 L502.0 281.1 L502.7 281.1 Z" fill="#2f8f83" fill-opacity="0.34" stroke="#0e5b52" stroke-width="1.6" />
  <path d="M507.5 285.8 L507.5 285.2 L506.8 285.2 L506.8 285.8 L507.5 285.8 Z" fill="#2f8f83" fill-opacity="0.34" stroke="#0e5b52" stroke-width="1.6" />
  <path d="M509.5 285.8 L509.5 285.2 L508.8 285.2 L508.8 285.8 L509.5 285.8 Z" fill="#2f8f83" fill-opacity="0.34" stroke="#0e5b52" stroke-width="1.6" />
  <path d="M495.9 281.1 L495.9 280.5 L495.2 280.5 L495.2 281.1 L495.9 281.1 Z" fill="#2f8f83" fill-opacity="0.34" stroke="#0e5b52" stroke-width="1.6" />
  <path d="M502.7 285.2 L502.7 284.5 L502.0 284.5 L502.0 285.2 L502.7 285.2 Z" fill="#2f8f83" fill-opacity="0.34" stroke="#0e5b52" stroke-width="1.6" />
  <path d="M494.6 281.8 L494.6 281.1 L493.9 281.1 L493.9 281.8 L494.6 281.8 Z" fill="#2f8f83" fill-opacity="0.34" stroke="#0e5b52" stroke-width="1.6" />
  <path d="M493.9 282.5 L493.9 281.8 L493.2 281.8 L493.2 282.5 L493.9 282.5 Z" fill="#2f8f83" fill-opacity="0.34" stroke="#0e5b52" stroke-width="1.6" />
  <path d="M502.0 278.5 L502.0 277.8 L501.4 277.8 L501.4 278.5 L502.0 278.5 Z" fill="#2f8f83" fill-opacity="0.34" stroke="#0e5b52" stroke-width="1.6" />
  <path d="M498.6 287.2 L498.6 286.5 L498.0 286.5 L498.0 287.2 L498.6 287.2 Z" fill="#2f8f83" fill-opacity="0.34" stroke="#0e5b52" stroke-width="1.6" />
  <path d="M504.8 285.2 L504.8 284.5 L504.1 284.5 L504.1 285.2 L504.8 285.2 Z" fill="#2f8f83" fill-opacity="0.34" stroke="#0e5b52" stroke-width="1.6" />
  <path d="M495.2 282.5 L495.2 281.8 L494.6 281.8 L494.6 282.5 L495.2 282.5 Z" fill="#2f8f83" fill-opacity="0.34" stroke="#0e5b52" stroke-width="1.6" />
  <path d="M504.1 281.1 L504.1 280.5 L503.4 280.5 L503.4 281.1 L504.1 281.1 Z" fill="#2f8f83" fill-opacity="0.34" stroke="#0e5b52" stroke-width="1.6" />
  <path d="M496.6 284.5 L496.6 283.8 L495.9 283.8 L495.9 284.5 L496.6 284.5 Z" fill="#2f8f83" fill-opacity="0.34" stroke="#0e5b52" stroke-width="1.6" />
  <path d="M500.7 283.2 L500.7 282.5 L500.0 282.5 L500.0 283.2 L500.7 283.2 Z" fill="#2f8f83" fill-opacity="0.34" stroke="#0e5b52" stroke-width="1.6" />
  <path d="M498.0 285.2 L498.0 284.5 L497.3 284.5 L497.3 285.2 L498.0 285.2 Z" fill="#2f8f83" fill-opacity="0.34" stroke="#0e5b52" stroke-width="1.6" />
  <path d="M415.1 516.3 L415.1 515.7 L414.4 515.7 L414.4 516.3 L415.1 516.3 Z" fill="#2f8f83" fill-opacity="0.34" stroke="#0e5b52" stroke-width="1.6" />
  <path d="M497.3 285.8 L497.3 285.2 L496.6 285.2 L496.6 285.8 L497.3 285.8 Z" fill="#2f8f83" fill-opacity="0.34" stroke="#0e5b52" stroke-width="1.6" />
  <path d="M414.4 517.0 L414.4 516.3 L413.7 516.3 L413.7 517.0 L414.4 517.0 Z" fill="#2f8f83" fill-opacity="0.34" stroke="#0e5b52" stroke-width="1.6" />
  <path d="M499.3 278.5 L499.3 277.8 L498.6 277.8 L498.6 278.5 L499.3 278.5 Z" fill="#2f8f83" fill-opacity="0.34" stroke="#0e5b52" stroke-width="1.6" />
  <path d="M496.6 285.2 L496.6 284.5 L495.9 284.5 L495.9 285.2 L496.6 285.2 Z" fill="#2f8f83" fill-opacity="0.34" stroke="#0e5b52" stroke-width="1.6" />
  <path d="M499.3 288.5 L499.3 287.9 L498.6 287.9 L498.6 288.5 L499.3 288.5 Z" fill="#2f8f83" fill-opacity="0.34" stroke="#0e5b52" stroke-width="1.6" />
  <path d="M498.6 288.5 L498.6 287.9 L498.0 287.9 L498.0 288.5 L498.6 288.5 Z" fill="#2f8f83" fill-opacity="0.34" stroke="#0e5b52" stroke-width="1.6" />
  <path d="M501.4 282.5 L501.4 281.8 L500.7 281.8 L500.7 282.5 L501.4 282.5 Z" fill="#2f8f83" fill-opacity="0.34" stroke="#0e5b52" stroke-width="1.6" />
  <path d="M509.5 283.8 L509.5 283.2 L508.8 283.2 L508.8 283.8 L509.5 283.8 Z" fill="#2f8f83" fill-opacity="0.34" stroke="#0e5b52" stroke-width="1.6" />
  <path d="M499.3 279.8 L499.3 279.1 L498.6 279.1 L498.6 279.8 L499.3 279.8 Z" fill="#2f8f83" fill-opacity="0.34" stroke="#0e5b52" stroke-width="1.6" />
  <path d="M505.4 279.1 L505.4 278.5 L504.8 278.5 L504.8 279.1 L505.4 279.1 Z" fill="#2f8f83" fill-opacity="0.34" stroke="#0e5b52" stroke-width="1.6" />
  <path d="M505.4 279.8 L505.4 279.1 L504.8 279.1 L504.8 279.8 L505.4 279.8 Z" fill="#2f8f83" fill-opacity="0.34" stroke="#0e5b52" stroke-width="1.6" />
  <path d="M498.0 288.5 L498.0 287.9 L497.3 287.9 L497.3 288.5 L498.0 288.5 Z" fill="#2f8f83" fill-opacity="0.34" stroke="#0e5b52" stroke-width="1.6" />
  <path d="M510.2 283.8 L510.2 283.2 L509.5 283.2 L509.5 283.8 L510.2 283.8 Z" fill="#2f8f83" fill-opacity="0.34" stroke="#0e5b52" stroke-width="1.6" />
  <path d="M510.2 285.8 L510.2 285.2 L509.5 285.2 L509.5 285.8 L510.2 285.8 Z" fill="#2f8f83" fill-opacity="0.34" stroke="#0e5b52" stroke-width="1.6" />
  <path d="M503.4 279.1 L503.4 278.5 L502.7 278.5 L502.7 279.1 L503.4 279.1 Z" fill="#2f8f83" fill-opacity="0.34" stroke="#0e5b52" stroke-width="1.6" />
  <path d="M494.6 285.2 L494.6 284.5 L493.9 284.5 L493.9 285.2 L494.6 285.2 Z" fill="#2f8f83" fill-opacity="0.34" stroke="#0e5b52" stroke-width="1.6" />
  <path d="M502.7 284.5 L502.7 283.8 L502.0 283.8 L502.0 284.5 L502.7 284.5 Z" fill="#2f8f83" fill-opacity="0.34" stroke="#0e5b52" stroke-width="1.6" />
  <path d="M502.0 277.1 L502.0 276.4 L501.4 276.4 L501.4 277.1 L502.0 277.1 Z" fill="#2f8f83" fill-opacity="0.34" stroke="#0e5b52" stroke-width="1.6" />
  <path d="M500.7 281.8 L500.7 281.1 L500.0 281.1 L500.0 281.8 L500.7 281.8 Z" fill="#2f8f83" fill-opacity="0.34" stroke="#0e5b52" stroke-width="1.6" />
  <path d="M496.6 282.5 L496.6 281.8 L495.9 281.8 L495.9 282.5 L496.6 282.5 Z" fill="#2f8f83" fill-opacity="0.34" stroke="#0e5b52" stroke-width="1.6" />
  <path d="M497.3 276.4 L497.3 275.8 L496.6 275.8 L496.6 276.4 L497.3 276.4 Z" fill="#2f8f83" fill-opacity="0.34" stroke="#0e5b52" stroke-width="1.6" />
  <path d="M501.4 279.1 L501.4 278.5 L500.7 278.5 L500.7 279.1 L501.4 279.1 Z" fill="#2f8f83" fill-opacity="0.34" stroke="#0e5b52" stroke-width="1.6" />
  <path d="M503.4 278.5 L503.4 277.8 L502.7 277.8 L502.7 278.5 L503.4 278.5 Z" fill="#2f8f83" fill-opacity="0.34" stroke="#0e5b52" stroke-width="1.6" />
  <path d="M506.1 285.8 L506.1 285.2 L505.4 285.2 L505.4 285.8 L506.1 285.8 Z" fill="#2f8f83" fill-opacity="0.34" stroke="#0e5b52" stroke-width="1.6" />
  <path d="M504.1 277.8 L504.1 277.1 L503.4 277.1 L503.4 277.8 L504.1 277.8 Z" fill="#2f8f83" fill-opacity="0.34" stroke="#0e5b52" stroke-width="1.6" />
  <path d="M504.1 283.8 L504.1 283.2 L503.4 283.2 L503.4 283.8 L504.1 283.8 Z" fill="#2f8f83" fill-opacity="0.34" stroke="#0e5b52" stroke-width="1.6" />
  <path d="M494.6 283.2 L494.6 282.5 L493.9 282.5 L493.9 283.2 L494.6 283.2 Z" fill="#2f8f83" fill-opacity="0.34" stroke="#0e5b52" stroke-width="1.6" />
  <path d="M493.9 283.8 L493.9 283.2 L493.2 283.2 L493.2 283.8 L493.9 283.8 Z" fill="#2f8f83" fill-opacity="0.34" stroke="#0e5b52" stroke-width="1.6" />
  <path d="M506.1 283.8 L506.1 283.2 L505.4 283.2 L505.4 283.8 L506.1 283.8 Z" fill="#2f8f83" fill-opacity="0.34" stroke="#0e5b52" stroke-width="1.6" />
  <path d="M497.3 279.8 L497.3 279.1 L496.6 279.1 L496.6 279.8 L497.3 279.8 Z" fill="#2f8f83" fill-opacity="0.34" stroke="#0e5b52" stroke-width="1.6" />
  <path d="M504.8 286.5 L504.8 285.8 L504.1 285.8 L504.1 286.5 L504.8 286.5 Z" fill="#2f8f83" fill-opacity="0.34" stroke="#0e5b52" stroke-width="1.6" />
  <path d="M498.6 287.9 L498.6 287.2 L498.0 287.2 L498.0 287.9 L498.6 287.9 Z" fill="#2f8f83" fill-opacity="0.34" stroke="#0e5b52" stroke-width="1.6" />
  <path d="M502.0 289.2 L502.0 288.5 L501.4 288.5 L501.4 289.2 L502.0 289.2 Z" fill="#2f8f83" fill-opacity="0.34" stroke="#0e5b52" stroke-width="1.6" />
  <path d="M501.4 290.5 L501.4 289.9 L500.7 289.9 L500.7 290.5 L501.4 290.5 Z" fill="#2f8f83" fill-opacity="0.34" stroke="#0e5b52" stroke-width="1.6" />
  <path d="M495.2 281.1 L495.2 280.5 L494.6 280.5 L494.6 281.1 L495.2 281.1 Z" fill="#2f8f83" fill-opacity="0.34" stroke="#0e5b52" stroke-width="1.6" />
  <path d="M500.0 282.5 L500.0 281.8 L499.3 281.8 L499.3 282.5 L500.0 282.5 Z" fill="#2f8f83" fill-opacity="0.34" stroke="#0e5b52" stroke-width="1.6" />
  <path d="M499.3 282.5 L499.3 281.8 L498.6 281.8 L498.6 282.5 L499.3 282.5 Z" fill="#2f8f83" fill-opacity="0.34" stroke="#0e5b52" stroke-width="1.6" />
  <path d="M504.8 279.8 L504.8 279.1 L504.1 279.1 L504.1 279.8 L504.8 279.8 Z" fill="#2f8f83" fill-opacity="0.34" stroke="#0e5b52" stroke-width="1.6" />
  <path d="M498.0 281.1 L498.0 280.5 L497.3 280.5 L497.3 281.1 L498.0 281.1 Z" fill="#2f8f83" fill-opacity="0.34" stroke="#0e5b52" stroke-width="1.6" />
  <path d="M496.6 278.5 L496.6 277.8 L495.9 277.8 L495.9 278.5 L496.6 278.5 Z" fill="#2f8f83" fill-opacity="0.34" stroke="#0e5b52" stroke-width="1.6" />
  <path d="M497.3 281.1 L497.3 280.5 L496.6 280.5 L496.6 281.1 L497.3 281.1 Z" fill="#2f8f83" fill-opacity="0.34" stroke="#0e5b52" stroke-width="1.6" />
  <path d="M504.1 283.2 L504.1 282.5 L503.4 282.5 L503.4 283.2 L504.1 283.2 Z" fill="#2f8f83" fill-opacity="0.34" stroke="#0e5b52" stroke-width="1.6" />
  <path d="M502.7 283.2 L502.7 282.5 L502.0 282.5 L502.0 283.2 L502.7 283.2 Z" fill="#2f8f83" fill-opacity="0.34" stroke="#0e5b52" stroke-width="1.6" />
  <path d="M504.8 283.8 L504.8 283.2 L504.1 283.2 L504.1 283.8 L504.8 283.8 Z" fill="#2f8f83" fill-opacity="0.34" stroke="#0e5b52" stroke-width="1.6" />
  <path d="M500.0 279.8 L500.0 279.1 L499.3 279.1 L499.3 279.8 L500.0 279.8 Z" fill="#2f8f83" fill-opacity="0.34" stroke="#0e5b52" stroke-width="1.6" />
  <path d="M496.6 277.8 L496.6 277.1 L495.9 277.1 L495.9 277.8 L496.6 277.8 Z" fill="#2f8f83" fill-opacity="0.34" stroke="#0e5b52" stroke-width="1.6" />
  <path d="M500.0 285.2 L500.0 284.5 L499.3 284.5 L499.3 285.2 L500.0 285.2 Z" fill="#2f8f83" fill-opacity="0.34" stroke="#0e5b52" stroke-width="1.6" />
  <path d="M501.4 276.4 L501.4 275.8 L500.7 275.8 L500.7 276.4 L501.4 276.4 Z" fill="#2f8f83" fill-opacity="0.34" stroke="#0e5b52" stroke-width="1.6" />
  <path d="M503.4 287.9 L503.4 287.2 L502.7 287.2 L502.7 287.9 L503.4 287.9 Z" fill="#2f8f83" fill-opacity="0.34" stroke="#0e5b52" stroke-width="1.6" />
  <path d="M502.0 284.5 L502.0 283.8 L501.4 283.8 L501.4 284.5 L502.0 284.5 Z" fill="#2f8f83" fill-opacity="0.34" stroke="#0e5b52" stroke-width="1.6" />
  <path d="M508.2 284.5 L508.2 283.8 L507.5 283.8 L507.5 284.5 L508.2 284.5 Z" fill="#2f8f83" fill-opacity="0.34" stroke="#0e5b52" stroke-width="1.6" />
  <path d="M505.4 285.8 L505.4 285.2 L504.8 285.2 L504.8 285.8 L505.4 285.8 Z" fill="#2f8f83" fill-opacity="0.34" stroke="#0e5b52" stroke-width="1.6" />
  <path d="M498.0 285.8 L498.0 285.2 L497.3 285.2 L497.3 285.8 L498.0 285.8 Z" fill="#2f8f83" fill-opacity="0.34" stroke="#0e5b52" stroke-width="1.6" />
  <path d="M504.8 280.5 L504.8 279.8 L504.1 279.8 L504.1 280.5 L504.8 280.5 Z" fill="#2f8f83" fill-opacity="0.34" stroke="#0e5b52" stroke-width="1.6" />
  <path d="M498.6 283.2 L498.6 282.5 L498.0 282.5 L498.0 283.2 L498.6 283.2 Z" fill="#2f8f83" fill-opacity="0.34" stroke="#0e5b52" stroke-width="1.6" />
  <path d="M498.6 281.8 L498.6 281.1 L498.0 281.1 L498.0 281.8 L498.6 281.8 Z" fill="#2f8f83" fill-opacity="0.34" stroke="#0e5b52" stroke-width="1.6" />
  <path d="M506.1 284.5 L506.1 283.8 L505.4 283.8 L505.4 284.5 L506.1 284.5 Z" fill="#2f8f83" fill-opacity="0.34" stroke="#0e5b52" stroke-width="1.6" />
  <path d="M500.7 279.8 L500.7 279.1 L500.0 279.1 L500.0 279.8 L500.7 279.8 Z" fill="#2f8f83" fill-opacity="0.34" stroke="#0e5b52" stroke-width="1.6" />
  <path d="M501.4 284.5 L501.4 283.8 L500.7 283.8 L500.7 284.5 L501.4 284.5 Z" fill="#2f8f83" fill-opacity="0.34" stroke="#0e5b52" stroke-width="1.6" />
  <path d="M502.0 281.1 L502.0 280.5 L501.4 280.5 L501.4 281.1 L502.0 281.1 Z" fill="#2f8f83" fill-opacity="0.34" stroke="#0e5b52" stroke-width="1.6" />
  <path d="M504.1 286.5 L504.1 285.8 L503.4 285.8 L503.4 286.5 L504.1 286.5 Z" fill="#2f8f83" fill-opacity="0.34" stroke="#0e5b52" stroke-width="1.6" />
  <path d="M497.3 287.2 L497.3 286.5 L496.6 286.5 L496.6 287.2 L497.3 287.2 Z" fill="#2f8f83" fill-opacity="0.34" stroke="#0e5b52" stroke-width="1.6" />
  <path d="M498.6 280.5 L498.6 279.8 L498.0 279.8 L498.0 280.5 L498.6 280.5 Z" fill="#2f8f83" fill-opacity="0.34" stroke="#0e5b52" stroke-width="1.6" />
  <path d="M499.3 286.5 L499.3 285.8 L498.6 285.8 L498.6 286.5 L499.3 286.5 Z" fill="#2f8f83" fill-opacity="0.34" stroke="#0e5b52" stroke-width="1.6" />
  <path d="M495.2 279.8 L495.2 279.1 L494.6 279.1 L494.6 279.8 L495.2 279.8 Z" fill="#2f8f83" fill-opacity="0.34" stroke="#0e5b52" stroke-width="1.6" />
  <path d="M504.1 282.5 L504.1 281.8 L503.4 281.8 L503.4 282.5 L504.1 282.5 Z" fill="#2f8f83" fill-opacity="0.34" stroke="#0e5b52" stroke-width="1.6" />
  <path d="M504.8 281.1 L504.8 280.5 L504.1 280.5 L504.1 281.1 L504.8 281.1 Z" fill="#2f8f83" fill-opacity="0.34" stroke="#0e5b52" stroke-width="1.6" />
  <path d="M504.1 281.8 L504.1 281.1 L503.4 281.1 L503.4 281.8 L504.1 281.8 Z" fill="#2f8f83" fill-opacity="0.34" stroke="#0e5b52" stroke-width="1.6" />
  <path d="M503.4 281.8 L503.4 281.1 L502.7 281.1 L502.7 281.8 L503.4 281.8 Z" fill="#2f8f83" fill-opacity="0.34" stroke="#0e5b52" stroke-width="1.6" />
  <path d="M498.6 284.5 L498.6 283.8 L498.0 283.8 L498.0 284.5 L498.6 284.5 Z" fill="#2f8f83" fill-opacity="0.34" stroke="#0e5b52" stroke-width="1.6" />
  <path d="M415.8 516.3 L415.8 515.7 L415.1 515.7 L415.1 516.3 L415.8 516.3 Z" fill="#2f8f83" fill-opacity="0.34" stroke="#0e5b52" stroke-width="1.6" />
  <path d="M495.2 283.8 L495.2 283.2 L494.6 283.2 L494.6 283.8 L495.2 283.8 Z" fill="#2f8f83" fill-opacity="0.34" stroke="#0e5b52" stroke-width="1.6" />
  <path d="M501.4 286.5 L501.4 285.8 L500.7 285.8 L500.7 286.5 L501.4 286.5 Z" fill="#2f8f83" fill-opacity="0.34" stroke="#0e5b52" stroke-width="1.6" />
  <path d="M507.5 283.8 L507.5 283.2 L506.8 283.2 L506.8 283.8 L507.5 283.8 Z" fill="#2f8f83" fill-opacity="0.34" stroke="#0e5b52" stroke-width="1.6" />
  <path d="M507.5 285.2 L507.5 284.5 L506.8 284.5 L506.8 285.2 L507.5 285.2 Z" fill="#2f8f83" fill-opacity="0.34" stroke="#0e5b52" stroke-width="1.6" />
  <path d="M508.2 286.5 L508.2 285.8 L507.5 285.8 L507.5 286.5 L508.2 286.5 Z" fill="#2f8f83" fill-opacity="0.34" stroke="#0e5b52" stroke-width="1.6" />
  <path d="M498.6 281.1 L498.6 280.5 L498.0 280.5 L498.0 281.1 L498.6 281.1 Z" fill="#2f8f83" fill-opacity="0.34" stroke="#0e5b52" stroke-width="1.6" />
  <path d="M506.1 281.1 L506.1 280.5 L505.4 280.5 L505.4 281.1 L506.1 281.1 Z" fill="#2f8f83" fill-opacity="0.34" stroke="#0e5b52" stroke-width="1.6" />
  <path d="M495.9 279.8 L495.9 279.1 L495.2 279.1 L495.2 279.8 L495.9 279.8 Z" fill="#2f8f83" fill-opacity="0.34" stroke="#0e5b52" stroke-width="1.6" />
  <path d="M415.8 517.6 L415.8 517.0 L415.1 517.0 L415.1 517.6 L415.8 517.6 Z" fill="#2f8f83" fill-opacity="0.34" stroke="#0e5b52" stroke-width="1.6" />
  <path d="M415.1 517.6 L415.1 517.0 L414.4 517.0 L414.4 517.6 L415.1 517.6 Z" fill="#2f8f83" fill-opacity="0.34" stroke="#0e5b52" stroke-width="1.6" />
  <path d="M496.6 283.8 L496.6 283.2 L495.9 283.2 L495.9 283.8 L496.6 283.8 Z" fill="#2f8f83" fill-opacity="0.34" stroke="#0e5b52" stroke-width="1.6" />
  <path d="M498.6 283.8 L498.6 283.2 L498.0 283.2 L498.0 283.8 L498.6 283.8 Z" fill="#2f8f83" fill-opacity="0.34" stroke="#0e5b52" stroke-width="1.6" />
  <path d="M510.2 285.2 L510.2 284.5 L509.5 284.5 L509.5 285.2 L510.2 285.2 Z" fill="#2f8f83" fill-opacity="0.34" stroke="#0e5b52" stroke-width="1.6" />
  <path d="M508.8 286.5 L508.8 285.8 L508.2 285.8 L508.2 286.5 L508.8 286.5 Z" fill="#2f8f83" fill-opacity="0.34" stroke="#0e5b52" stroke-width="1.6" />
  <path d="M497.3 287.9 L497.3 287.2 L496.6 287.2 L496.6 287.9 L497.3 287.9 Z" fill="#2f8f83" fill-opacity="0.34" stroke="#0e5b52" stroke-width="1.6" />
  <path d="M497.3 288.5 L497.3 287.9 L496.6 287.9 L496.6 288.5 L497.3 288.5 Z" fill="#2f8f83" fill-opacity="0.34" stroke="#0e5b52" stroke-width="1.6" />
  <path d="M497.3 283.8 L497.3 283.2 L496.6 283.2 L496.6 283.8 L497.3 283.8 Z" fill="#2f8f83" fill-opacity="0.34" stroke="#0e5b52" stroke-width="1.6" />
  <path d="M498.0 275.8 L498.0 275.1 L497.3 275.1 L497.3 275.8 L498.0 275.8 Z" fill="#2f8f83" fill-opacity="0.34" stroke="#0e5b52" stroke-width="1.6" />
  <path d="M506.8 285.2 L506.8 284.5 L506.1 284.5 L506.1 285.2 L506.8 285.2 Z" fill="#2f8f83" fill-opacity="0.34" stroke="#0e5b52" stroke-width="1.6" />
  <path d="M505.4 278.5 L505.4 277.8 L504.8 277.8 L504.8 278.5 L505.4 278.5 Z" fill="#2f8f83" fill-opacity="0.34" stroke="#0e5b52" stroke-width="1.6" />
  <path d="M497.3 279.1 L497.3 278.5 L496.6 278.5 L496.6 279.1 L497.3 279.1 Z" fill="#2f8f83" fill-opacity="0.34" stroke="#0e5b52" stroke-width="1.6" />
  <path d="M498.6 285.8 L498.6 285.2 L498.0 285.2 L498.0 285.8 L498.6 285.8 Z" fill="#2f8f83" fill-opacity="0.34" stroke="#0e5b52" stroke-width="1.6" />
  <path d="M499.3 283.2 L499.3 282.5 L498.6 282.5 L498.6 283.2 L499.3 283.2 Z" fill="#2f8f83" fill-opacity="0.34" stroke="#0e5b52" stroke-width="1.6" />
  <path d="M500.0 284.5 L500.0 283.8 L499.3 283.8 L499.3 284.5 L500.0 284.5 Z" fill="#2f8f83" fill-opacity="0.34" stroke="#0e5b52" stroke-width="1.6" />
  <path d="M498.0 280.5 L498.0 279.8 L497.3 279.8 L497.3 280.5 L498.0 280.5 Z" fill="#2f8f83" fill-opacity="0.34" stroke="#0e5b52" stroke-width="1.6" />
  <path d="M501.4 281.8 L501.4 281.1 L500.7 281.1 L500.7 281.8 L501.4 281.8 Z" fill="#2f8f83" fill-opacity="0.34" stroke="#0e5b52" stroke-width="1.6" />
  <path d="M502.0 285.8 L502.0 285.2 L501.4 285.2 L501.4 285.8 L502.0 285.8 Z" fill="#2f8f83" fill-opacity="0.34" stroke="#0e5b52" stroke-width="1.6" />
  <path d="M500.7 285.8 L500.7 285.2 L500.0 285.2 L500.0 285.8 L500.7 285.8 Z" fill="#2f8f83" fill-opacity="0.34" stroke="#0e5b52" stroke-width="1.6" />
  <path d="M500.0 285.8 L500.0 285.2 L499.3 285.2 L499.3 285.8 L500.0 285.8 Z" fill="#2f8f83" fill-opacity="0.34" stroke="#0e5b52" stroke-width="1.6" />
  <path d="M503.4 277.1 L503.4 276.4 L502.7 276.4 L502.7 277.1 L503.4 277.1 Z" fill="#2f8f83" fill-opacity="0.34" stroke="#0e5b52" stroke-width="1.6" />
  <path d="M502.7 278.5 L502.7 277.8 L502.0 277.8 L502.0 278.5 L502.7 278.5 Z" fill="#2f8f83" fill-opacity="0.34" stroke="#0e5b52" stroke-width="1.6" />
  <path d="M504.8 278.5 L504.8 277.8 L504.1 277.8 L504.1 278.5 L504.8 278.5 Z" fill="#2f8f83" fill-opacity="0.34" stroke="#0e5b52" stroke-width="1.6" />
  <path d="M503.4 283.2 L503.4 282.5 L502.7 282.5 L502.7 283.2 L503.4 283.2 Z" fill="#2f8f83" fill-opacity="0.34" stroke="#0e5b52" stroke-width="1.6" />
  <path d="M500.0 287.2 L500.0 286.5 L499.3 286.5 L499.3 287.2 L500.0 287.2 Z" fill="#2f8f83" fill-opacity="0.34" stroke="#0e5b52" stroke-width="1.6" />
  <path d="M505.4 281.1 L505.4 280.5 L504.8 280.5 L504.8 281.1 L505.4 281.1 Z" fill="#2f8f83" fill-opacity="0.34" stroke="#0e5b52" stroke-width="1.6" />
  <path d="M496.6 279.1 L496.6 278.5 L495.9 278.5 L495.9 279.1 L496.6 279.1 Z" fill="#2f8f83" fill-opacity="0.34" stroke="#0e5b52" stroke-width="1.6" />
  <path d="M497.3 283.2 L497.3 282.5 L496.6 282.5 L496.6 283.2 L497.3 283.2 Z" fill="#2f8f83" fill-opacity="0.34" stroke="#0e5b52" stroke-width="1.6" />
  <path d="M500.0 280.5 L500.0 279.8 L499.3 279.8 L499.3 280.5 L500.0 280.5 Z" fill="#2f8f83" fill-opacity="0.34" stroke="#0e5b52" stroke-width="1.6" />
  <path d="M497.3 281.8 L497.3 281.1 L496.6 281.1 L496.6 281.8 L497.3 281.8 Z" fill="#2f8f83" fill-opacity="0.34" stroke="#0e5b52" stroke-width="1.6" />
  <path d="M497.3 277.8 L497.3 277.1 L496.6 277.1 L496.6 277.8 L497.3 277.8 Z" fill="#2f8f83" fill-opacity="0.34" stroke="#0e5b52" stroke-width="1.6" />
  <path d="M501.4 283.8 L501.4 283.2 L500.7 283.2 L500.7 283.8 L501.4 283.8 Z" fill="#2f8f83" fill-opacity="0.34" stroke="#0e5b52" stroke-width="1.6" />
  <path d="M504.8 279.1 L504.8 278.5 L504.1 278.5 L504.1 279.1 L504.8 279.1 Z" fill="#2f8f83" fill-opacity="0.34" stroke="#0e5b52" stroke-width="1.6" />
  <path d="M499.3 287.9 L499.3 287.2 L498.6 287.2 L498.6 287.9 L499.3 287.9 Z" fill="#2f8f83" fill-opacity="0.34" stroke="#0e5b52" stroke-width="1.6" />
  <path d="M501.4 289.9 L501.4 289.2 L500.7 289.2 L500.7 289.9 L501.4 289.9 Z" fill="#2f8f83" fill-opacity="0.34" stroke="#0e5b52" stroke-width="1.6" />
  <path d="M508.2 285.8 L508.2 285.2 L507.5 285.2 L507.5 285.8 L508.2 285.8 Z" fill="#2f8f83" fill-opacity="0.34" stroke="#0e5b52" stroke-width="1.6" />
  <path d="M510.2 284.5 L510.2 283.8 L509.5 283.8 L509.5 284.5 L510.2 284.5 Z" fill="#2f8f83" fill-opacity="0.34" stroke="#0e5b52" stroke-width="1.6" />
  <path d="M502.0 288.5 L502.0 287.9 L501.4 287.9 L501.4 288.5 L502.0 288.5 Z" fill="#2f8f83" fill-opacity="0.34" stroke="#0e5b52" stroke-width="1.6" />
  <path d="M500.7 288.5 L500.7 287.9 L500.0 287.9 L500.0 288.5 L500.7 288.5 Z" fill="#2f8f83" fill-opacity="0.34" stroke="#0e5b52" stroke-width="1.6" />
  <path d="M498.6 278.5 L498.6 277.8 L498.0 277.8 L498.0 278.5 L498.6 278.5 Z" fill="#2f8f83" fill-opacity="0.34" stroke="#0e5b52" stroke-width="1.6" />
  <path d="M495.9 281.8 L495.9 281.1 L495.2 281.1 L495.2 281.8 L495.9 281.8 Z" fill="#2f8f83" fill-opacity="0.34" stroke="#0e5b52" stroke-width="1.6" />
  <path d="M504.8 282.5 L504.8 281.8 L504.1 281.8 L504.1 282.5 L504.8 282.5 Z" fill="#2f8f83" fill-opacity="0.34" stroke="#0e5b52" stroke-width="1.6" />
  <path d="M497.3 280.5 L497.3 279.8 L496.6 279.8 L496.6 280.5 L497.3 280.5 Z" fill="#2f8f83" fill-opacity="0.34" stroke="#0e5b52" stroke-width="1.6" />
  <path d="M503.4 280.5 L503.4 279.8 L502.7 279.8 L502.7 280.5 L503.4 280.5 Z" fill="#2f8f83" fill-opacity="0.34" stroke="#0e5b52" stroke-width="1.6" />
  <path d="M495.2 278.5 L495.2 277.8 L494.6 277.8 L494.6 278.5 L495.2 278.5 Z" fill="#2f8f83" fill-opacity="0.34" stroke="#0e5b52" stroke-width="1.6" />
  <path d="M498.0 279.8 L498.0 279.1 L497.3 279.1 L497.3 279.8 L498.0 279.8 Z" fill="#2f8f83" fill-opacity="0.34" stroke="#0e5b52" stroke-width="1.6" />
  <path d="M494.6 283.8 L494.6 283.2 L493.9 283.2 L493.9 283.8 L494.6 283.8 Z" fill="#2f8f83" fill-opacity="0.34" stroke="#0e5b52" stroke-width="1.6" />
  <path d="M497.3 277.1 L497.3 276.4 L496.6 276.4 L496.6 277.1 L497.3 277.1 Z" fill="#2f8f83" fill-opacity="0.34" stroke="#0e5b52" stroke-width="1.6" />
  <path d="M496.6 277.1 L496.6 276.4 L495.9 276.4 L495.9 277.1 L496.6 277.1 Z" fill="#2f8f83" fill-opacity="0.34" stroke="#0e5b52" stroke-width="1.6" />
  <path d="M501.4 285.2 L501.4 284.5 L500.7 284.5 L500.7 285.2 L501.4 285.2 Z" fill="#2f8f83" fill-opacity="0.34" stroke="#0e5b52" stroke-width="1.6" />
  <path d="M494.6 284.5 L494.6 283.8 L493.9 283.8 L493.9 284.5 L494.6 284.5 Z" fill="#2f8f83" fill-opacity="0.34" stroke="#0e5b52" stroke-width="1.6" />
  <path d="M501.4 279.8 L501.4 279.1 L500.7 279.1 L500.7 279.8 L501.4 279.8 Z" fill="#2f8f83" fill-opacity="0.34" stroke="#0e5b52" stroke-width="1.6" />
  <path d="M502.0 286.5 L502.0 285.8 L501.4 285.8 L501.4 286.5 L502.0 286.5 Z" fill="#2f8f83" fill-opacity="0.34" stroke="#0e5b52" stroke-width="1.6" />
  <path d="M502.7 287.2 L502.7 286.5 L502.0 286.5 L502.0 287.2 L502.7 287.2 Z" fill="#2f8f83" fill-opacity="0.34" stroke="#0e5b52" stroke-width="1.6" />
  <path d="M502.7 287.9 L502.7 287.2 L502.0 287.2 L502.0 287.9 L502.7 287.9 Z" fill="#2f8f83" fill-opacity="0.34" stroke="#0e5b52" stroke-width="1.6" />
  <path d="M495.9 283.8 L495.9 283.2 L495.2 283.2 L495.2 283.8 L495.9 283.8 Z" fill="#2f8f83" fill-opacity="0.34" stroke="#0e5b52" stroke-width="1.6" />
  <path d="M506.8 284.5 L506.8 283.8 L506.1 283.8 L506.1 284.5 L506.8 284.5 Z" fill="#2f8f83" fill-opacity="0.34" stroke="#0e5b52" stroke-width="1.6" />
  <path d="M503.4 285.2 L503.4 284.5 L502.7 284.5 L502.7 285.2 L503.4 285.2 Z" fill="#2f8f83" fill-opacity="0.34" stroke="#0e5b52" stroke-width="1.6" />
  <path d="M502.7 285.8 L502.7 285.2 L502.0 285.2 L502.0 285.8 L502.7 285.8 Z" fill="#2f8f83" fill-opacity="0.34" stroke="#0e5b52" stroke-width="1.6" />
  <path d="M415.1 517.0 L415.1 516.3 L414.4 516.3 L414.4 517.0 L415.1 517.0 Z" fill="#2f8f83" fill-opacity="0.34" stroke="#0e5b52" stroke-width="1.6" />
  <path d="M493.9 285.2 L493.9 284.5 L493.2 284.5 L493.2 285.2 L493.9 285.2 Z" fill="#2f8f83" fill-opacity="0.34" stroke="#0e5b52" stroke-width="1.6" />
  <path d="M495.2 285.2 L495.2 284.5 L494.6 284.5 L494.6 285.2 L495.2 285.2 Z" fill="#2f8f83" fill-opacity="0.34" stroke="#0e5b52" stroke-width="1.6" />
  <path d="M500.0 281.1 L500.0 280.5 L499.3 280.5 L499.3 281.1 L500.0 281.1 Z" fill="#2f8f83" fill-opacity="0.34" stroke="#0e5b52" stroke-width="1.6" />
  <path d="M500.7 280.5 L500.7 279.8 L500.0 279.8 L500.0 280.5 L500.7 280.5 Z" fill="#2f8f83" fill-opacity="0.34" stroke="#0e5b52" stroke-width="1.6" />
  <path d="M501.4 277.1 L501.4 276.4 L500.7 276.4 L500.7 277.1 L501.4 277.1 Z" fill="#2f8f83" fill-opacity="0.34" stroke="#0e5b52" stroke-width="1.6" />
  <path d="M498.6 276.4 L498.6 275.8 L498.0 275.8 L498.0 276.4 L498.6 276.4 Z" fill="#2f8f83" fill-opacity="0.34" stroke="#0e5b52" stroke-width="1.6" />
  <path d="M502.7 286.5 L502.7 285.8 L502.0 285.8 L502.0 286.5 L502.7 286.5 Z" fill="#2f8f83" fill-opacity="0.34" stroke="#0e5b52" stroke-width="1.6" />
  <path d="M503.4 287.2 L503.4 286.5 L502.7 286.5 L502.7 287.2 L503.4 287.2 Z" fill="#2f8f83" fill-opacity="0.34" stroke="#0e5b52" stroke-width="1.6" />
  <path d="M501.4 287.2 L501.4 286.5 L500.7 286.5 L500.7 287.2 L501.4 287.2 Z" fill="#2f8f83" fill-opacity="0.34" stroke="#0e5b52" stroke-width="1.6" />
  <path d="M500.7 289.9 L500.7 289.2 L500.0 289.2 L500.0 289.9 L500.7 289.9 Z" fill="#2f8f83" fill-opacity="0.34" stroke="#0e5b52" stroke-width="1.6" />
  <path d="M502.0 290.5 L502.0 289.9 L501.4 289.9 L501.4 290.5 L502.0 290.5 Z" fill="#2f8f83" fill-opacity="0.34" stroke="#0e5b52" stroke-width="1.6" />
  <path d="M498.6 279.8 L498.6 279.1 L498.0 279.1 L498.0 279.8 L498.6 279.8 Z" fill="#2f8f83" fill-opacity="0.34" stroke="#0e5b52" stroke-width="1.6" />
  <path d="M498.0 283.8 L498.0 283.2 L497.3 283.2 L497.3 283.8 L498.0 283.8 Z" fill="#2f8f83" fill-opacity="0.34" stroke="#0e5b52" stroke-width="1.6" />
  <path d="M416.5 517.0 L416.5 516.3 L415.8 516.3 L415.8 517.0 L416.5 517.0 Z" fill="#2f8f83" fill-opacity="0.34" stroke="#0e5b52" stroke-width="1.6" />
  <path d="M502.7 277.1 L502.7 276.4 L502.0 276.4 L502.0 277.1 L502.7 277.1 Z" fill="#2f8f83" fill-opacity="0.34" stroke="#0e5b52" stroke-width="1.6" />
  <path d="M495.9 279.1 L495.9 278.5 L495.2 278.5 L495.2 279.1 L495.9 279.1 Z" fill="#2f8f83" fill-opacity="0.34" stroke="#0e5b52" stroke-width="1.6" />
  <path d="M497.3 282.5 L497.3 281.8 L496.6 281.8 L496.6 282.5 L497.3 282.5 Z" fill="#2f8f83" fill-opacity="0.34" stroke="#0e5b52" stroke-width="1.6" />
  <path d="M495.9 282.5 L495.9 281.8 L495.2 281.8 L495.2 282.5 L495.9 282.5 Z" fill="#2f8f83" fill-opacity="0.34" stroke="#0e5b52" stroke-width="1.6" />
  <path d="M496.6 281.8 L496.6 281.1 L495.9 281.1 L495.9 281.8 L496.6 281.8 Z" fill="#2f8f83" fill-opacity="0.34" stroke="#0e5b52" stroke-width="1.6" />
  <path d="M505.4 283.8 L505.4 283.2 L504.8 283.2 L504.8 283.8 L505.4 283.8 Z" fill="#2f8f83" fill-opacity="0.34" stroke="#0e5b52" stroke-width="1.6" />
  <path d="M495.2 283.2 L495.2 282.5 L494.6 282.5 L494.6 283.2 L495.2 283.2 Z" fill="#2f8f83" fill-opacity="0.34" stroke="#0e5b52" stroke-width="1.6" />
  <path d="M416.5 517.6 L416.5 517.0 L415.8 517.0 L415.8 517.6 L416.5 517.6 Z" fill="#2f8f83" fill-opacity="0.34" stroke="#0e5b52" stroke-width="1.6" />
  <path d="M502.0 287.2 L502.0 286.5 L501.4 286.5 L501.4 287.2 L502.0 287.2 Z" fill="#2f8f83" fill-opacity="0.34" stroke="#0e5b52" stroke-width="1.6" />
  <path d="M508.8 284.5 L508.8 283.8 L508.2 283.8 L508.2 284.5 L508.8 284.5 Z" fill="#2f8f83" fill-opacity="0.34" stroke="#0e5b52" stroke-width="1.6" />
  <path d="M497.3 285.2 L497.3 284.5 L496.6 284.5 L496.6 285.2 L497.3 285.2 Z" fill="#2f8f83" fill-opacity="0.34" stroke="#0e5b52" stroke-width="1.6" />
  <path d="M495.9 284.5 L495.9 283.8 L495.2 283.8 L495.2 284.5 L495.9 284.5 Z" fill="#2f8f83" fill-opacity="0.34" stroke="#0e5b52" stroke-width="1.6" />
  <path d="M510.2 286.5 L510.2 285.8 L509.5 285.8 L509.5 286.5 L510.2 286.5 Z" fill="#2f8f83" fill-opacity="0.34" stroke="#0e5b52" stroke-width="1.6" />
  <path d="M498.0 286.5 L498.0 285.8 L497.3 285.8 L497.3 286.5 L498.0 286.5 Z" fill="#2f8f83" fill-opacity="0.34" stroke="#0e5b52" stroke-width="1.6" />
  <path d="M496.6 276.4 L496.6 275.8 L495.9 275.8 L495.9 276.4 L496.6 276.4 Z" fill="#2f8f83" fill-opacity="0.34" stroke="#0e5b52" stroke-width="1.6" />
  <path d="M501.4 280.5 L501.4 279.8 L500.7 279.8 L500.7 280.5 L501.4 280.5 Z" fill="#2f8f83" fill-opacity="0.34" stroke="#0e5b52" stroke-width="1.6" />
  <path d="M499.3 281.1 L499.3 280.5 L498.6 280.5 L498.6 281.1 L499.3 281.1 Z" fill="#2f8f83" fill-opacity="0.34" stroke="#0e5b52" stroke-width="1.6" />
  <path d="M502.0 285.2 L502.0 284.5 L501.4 284.5 L501.4 285.2 L502.0 285.2 Z" fill="#2f8f83" fill-opacity="0.34" stroke="#0e5b52" stroke-width="1.6" />
  <path d="M493.9 284.5 L493.9 283.8 L493.2 283.8 L493.2 284.5 L493.9 284.5 Z" fill="#2f8f83" fill-opacity="0.34" stroke="#0e5b52" stroke-width="1.6" />
  <path d="M495.9 285.2 L495.9 284.5 L495.2 284.5 L495.2 285.2 L495.9 285.2 Z" fill="#2f8f83" fill-opacity="0.34" stroke="#0e5b52" stroke-width="1.6" />
  <path d="M503.4 286.5 L503.4 285.8 L502.7 285.8 L502.7 286.5 L503.4 286.5 Z" fill="#2f8f83" fill-opacity="0.34" stroke="#0e5b52" stroke-width="1.6" />
  <path d="M506.8 283.8 L506.8 283.2 L506.1 283.2 L506.1 283.8 L506.8 283.8 Z" fill="#2f8f83" fill-opacity="0.34" stroke="#0e5b52" stroke-width="1.6" />
  <path d="M505.4 286.5 L505.4 285.8 L504.8 285.8 L504.8 286.5 L505.4 286.5 Z" fill="#2f8f83" fill-opacity="0.34" stroke="#0e5b52" stroke-width="1.6" />
  <path d="M500.7 287.9 L500.7 287.2 L500.0 287.2 L500.0 287.9 L500.7 287.9 Z" fill="#2f8f83" fill-opacity="0.34" stroke="#0e5b52" stroke-width="1.6" />
  <path d="M494.6 280.5 L494.6 279.8 L493.9 279.8 L493.9 280.5 L494.6 280.5 Z" fill="#2f8f83" fill-opacity="0.34" stroke="#0e5b52" stroke-width="1.6" />
  <path d="M494.6 281.1 L494.6 280.5 L493.9 280.5 L493.9 281.1 L494.6 281.1 Z" fill="#2f8f83" fill-opacity="0.34" stroke="#0e5b52" stroke-width="1.6" />
  <path d="M499.3 280.5 L499.3 279.8 L498.6 279.8 L498.6 280.5 L499.3 280.5 Z" fill="#2f8f83" fill-opacity="0.34" stroke="#0e5b52" stroke-width="1.6" />
  <path d="M500.0 281.8 L500.0 281.1 L499.3 281.1 L499.3 281.8 L500.0 281.8 Z" fill="#2f8f83" fill-opacity="0.34" stroke="#0e5b52" stroke-width="1.6" />
  <path d="M502.0 279.1 L502.0 278.5 L501.4 278.5 L501.4 279.1 L502.0 279.1 Z" fill="#2f8f83" fill-opacity="0.34" stroke="#0e5b52" stroke-width="1.6" />
  <path d="M502.0 279.8 L502.0 279.1 L501.4 279.1 L501.4 279.8 L502.0 279.8 Z" fill="#2f8f83" fill-opacity="0.34" stroke="#0e5b52" stroke-width="1.6" />
  <path d="M498.0 287.9 L498.0 287.2 L497.3 287.2 L497.3 287.9 L498.0 287.9 Z" fill="#2f8f83" fill-opacity="0.34" stroke="#0e5b52" stroke-width="1.6" />
  <path d="M502.0 280.5 L502.0 279.8 L501.4 279.8 L501.4 280.5 L502.0 280.5 Z" fill="#2f8f83" fill-opacity="0.34" stroke="#0e5b52" stroke-width="1.6" />
  <path d="M502.0 277.8 L502.0 277.1 L501.4 277.1 L501.4 277.8 L502.0 277.8 Z" fill="#2f8f83" fill-opacity="0.34" stroke="#0e5b52" stroke-width="1.6" />
  <path d="M504.1 285.8 L504.1 285.2 L503.4 285.2 L503.4 285.8 L504.1 285.8 Z" fill="#2f8f83" fill-opacity="0.34" stroke="#0e5b52" stroke-width="1.6" />
  <path d="M505.4 281.8 L505.4 281.1 L504.8 281.1 L504.8 281.8 L505.4 281.8 Z" fill="#2f8f83" fill-opacity="0.34" stroke="#0e5b52" stroke-width="1.6" />
  <path d="M493.9 278.5 L493.9 277.8 L493.2 277.8 L493.2 278.5 L493.9 278.5 Z" fill="#2f8f83" fill-opacity="0.34" stroke="#0e5b52" stroke-width="1.6" />
  <path d="M493.9 279.1 L493.9 278.5 L493.2 278.5 L493.2 279.1 L493.9 279.1 Z" fill="#2f8f83" fill-opacity="0.34" stroke="#0e5b52" stroke-width="1.6" />
  <path d="M503.4 279.8 L503.4 279.1 L502.7 279.1 L502.7 279.8 L503.4 279.8 Z" fill="#2f8f83" fill-opacity="0.34" stroke="#0e5b52" stroke-width="1.6" />
  <path d="M498.6 285.2 L498.6 284.5 L498.0 284.5 L498.0 285.2 L498.6 285.2 Z" fill="#2f8f83" fill-opacity="0.34" stroke="#0e5b52" stroke-width="1.6" />
  <path d="M497.3 286.5 L497.3 285.8 L496.6 285.8 L496.6 286.5 L497.3 286.5 Z" fill="#2f8f83" fill-opacity="0.34" stroke="#0e5b52" stroke-width="1.6" />
  <path d="M496.6 279.8 L496.6 279.1 L495.9 279.1 L495.9 279.8 L496.6 279.8 Z" fill="#2f8f83" fill-opacity="0.34" stroke="#0e5b52" stroke-width="1.6" />
  <path d="M500.7 277.1 L500.7 276.4 L500.0 276.4 L500.0 277.1 L500.7 277.1 Z" fill="#2f8f83" fill-opacity="0.34" stroke="#0e5b52" stroke-width="1.6" />
  <path d="M502.0 276.4 L502.0 275.8 L501.4 275.8 L501.4 276.4 L502.0 276.4 Z" fill="#2f8f83" fill-opacity="0.34" stroke="#0e5b52" stroke-width="1.6" />
  <path d="M508.8 283.8 L508.8 283.2 L508.2 283.2 L508.2 283.8 L508.8 283.8 Z" fill="#2f8f83" fill-opacity="0.34" stroke="#0e5b52" stroke-width="1.6" />
  <path d="M509.5 284.5 L509.5 283.8 L508.8 283.8 L508.8 284.5 L509.5 284.5 Z" fill="#2f8f83" fill-opacity="0.34" stroke="#0e5b52" stroke-width="1.6" />
  <path d="M505.4 280.5 L505.4 279.8 L504.8 279.8 L504.8 280.5 L505.4 280.5 Z" fill="#2f8f83" fill-opacity="0.34" stroke="#0e5b52" stroke-width="1.6" />
  <path d="M503.4 285.8 L503.4 285.2 L502.7 285.2 L502.7 285.8 L503.4 285.8 Z" fill="#2f8f83" fill-opacity="0.34" stroke="#0e5b52" stroke-width="1.6" />
  <path d="M498.0 279.1 L498.0 278.5 L497.3 278.5 L497.3 279.1 L498.0 279.1 Z" fill="#2f8f83" fill-opacity="0.34" stroke="#0e5b52" stroke-width="1.6" />
  <path d="M504.1 285.2 L504.1 284.5 L503.4 284.5 L503.4 285.2 L504.1 285.2 Z" fill="#2f8f83" fill-opacity="0.34" stroke="#0e5b52" stroke-width="1.6" />
  <path d="M493.9 281.8 L493.9 281.1 L493.2 281.1 L493.2 281.8 L493.9 281.8 Z" fill="#2f8f83" fill-opacity="0.34" stroke="#0e5b52" stroke-width="1.6" />
  <path d="M503.4 281.1 L503.4 280.5 L502.7 280.5 L502.7 281.1 L503.4 281.1 Z" fill="#2f8f83" fill-opacity="0.34" stroke="#0e5b52" stroke-width="1.6" />
  <path d="M499.3 283.8 L499.3 283.2 L498.6 283.2 L498.6 283.8 L499.3 283.8 Z" fill="#2f8f83" fill-opacity="0.34" stroke="#0e5b52" stroke-width="1.6" />
  <path d="M502.7 282.5 L502.7 281.8 L502.0 281.8 L502.0 282.5 L502.7 282.5 Z" fill="#2f8f83" fill-opacity="0.34" stroke="#0e5b52" stroke-width="1.6" />
  <path d="M417.1 516.3 L417.1 515.7 L416.5 515.7 L416.5 516.3 L417.1 516.3 Z" fill="#2f8f83" fill-opacity="0.34" stroke="#0e5b52" stroke-width="1.6" />
  <path d="M417.8 516.3 L417.8 515.7 L417.1 515.7 L417.1 516.3 L417.8 516.3 Z" fill="#2f8f83" fill-opacity="0.34" stroke="#0e5b52" stroke-width="1.6" />
  <path d="M418.5 516.3 L418.5 515.7 L417.8 515.7 L417.8 516.3 L418.5 516.3 Z" fill="#2f8f83" fill-opacity="0.34" stroke="#0e5b52" stroke-width="1.6" />
  <path d="M419.2 516.3 L419.2 515.7 L418.5 515.7 L418.5 516.3 L419.2 516.3 Z" fill="#2f8f83" fill-opacity="0.34" stroke="#0e5b52" stroke-width="1.6" />
  <path d="M417.1 517.0 L417.1 516.3 L416.5 516.3 L416.5 517.0 L417.1 517.0 Z" fill="#2f8f83" fill-opacity="0.34" stroke="#0e5b52" stroke-width="1.6" />
  <path d="M417.8 517.0 L417.8 516.3 L417.1 516.3 L417.1 517.0 L417.8 517.0 Z" fill="#2f8f83" fill-opacity="0.34" stroke="#0e5b52" stroke-width="1.6" />
  <path d="M418.5 517.0 L418.5 516.3 L417.8 516.3 L417.8 517.0 L418.5 517.0 Z" fill="#2f8f83" fill-opacity="0.34" stroke="#0e5b52" stroke-width="1.6" />
  <path d="M419.2 517.0 L419.2 516.3 L418.5 516.3 L418.5 517.0 L419.2 517.0 Z" fill="#2f8f83" fill-opacity="0.34" stroke="#0e5b52" stroke-width="1.6" />
  <path d="M419.9 516.3 L419.9 515.7 L419.2 515.7 L419.2 516.3 L419.9 516.3 Z" fill="#2f8f83" fill-opacity="0.34" stroke="#0e5b52" stroke-width="1.6" />
  <path d="M419.9 517.0 L419.9 516.3 L419.2 516.3 L419.2 517.0 L419.9 517.0 Z" fill="#2f8f83" fill-opacity="0.34" stroke="#0e5b52" stroke-width="1.6" />
  <path d="M421.2 514.4 L421.2 513.7 L420.5 513.7 L420.5 514.4 L421.2 514.4 Z" fill="#2f8f83" fill-opacity="0.34" stroke="#0e5b52" stroke-width="1.6" />
  <path d="M419.2 515.0 L419.2 514.4 L418.5 514.4 L418.5 515.0 L419.2 515.0 Z" fill="#2f8f83" fill-opacity="0.34" stroke="#0e5b52" stroke-width="1.6" />
  <path d="M421.9 515.0 L421.9 514.4 L421.2 514.4 L421.2 515.0 L421.9 515.0 Z" fill="#2f8f83" fill-opacity="0.34" stroke="#0e5b52" stroke-width="1.6" />
  <path d="M421.9 513.1 L421.9 512.4 L421.2 512.4 L421.2 513.1 L421.9 513.1 Z" fill="#2f8f83" fill-opacity="0.34" stroke="#0e5b52" stroke-width="1.6" />
  <path d="M421.2 513.1 L421.2 512.4 L420.5 512.4 L420.5 513.1 L421.2 513.1 Z" fill="#2f8f83" fill-opacity="0.34" stroke="#0e5b52" stroke-width="1.6" />
  <path d="M421.9 514.4 L421.9 513.7 L421.2 513.7 L421.2 514.4 L421.9 514.4 Z" fill="#2f8f83" fill-opacity="0.34" stroke="#0e5b52" stroke-width="1.6" />
  <path d="M420.5 515.0 L420.5 514.4 L419.9 514.4 L419.9 515.0 L420.5 515.0 Z" fill="#2f8f83" fill-opacity="0.34" stroke="#0e5b52" stroke-width="1.6" />
  <path d="M421.2 513.7 L421.2 513.1 L420.5 513.1 L420.5 513.7 L421.2 513.7 Z" fill="#2f8f83" fill-opacity="0.34" stroke="#0e5b52" stroke-width="1.6" />
  <path d="M421.9 513.7 L421.9 513.1 L421.2 513.1 L421.2 513.7 L421.9 513.7 Z" fill="#2f8f83" fill-opacity="0.34" stroke="#0e5b52" stroke-width="1.6" />
  <path d="M419.2 515.7 L419.2 515.0 L418.5 515.0 L418.5 515.7 L419.2 515.7 Z" fill="#2f8f83" fill-opacity="0.34" stroke="#0e5b52" stroke-width="1.6" />
  <path d="M419.9 515.0 L419.9 514.4 L419.2 514.4 L419.2 515.0 L419.9 515.0 Z" fill="#2f8f83" fill-opacity="0.34" stroke="#0e5b52" stroke-width="1.6" />
  <path d="M421.2 515.0 L421.2 514.4 L420.5 514.4 L420.5 515.0 L421.2 515.0 Z" fill="#2f8f83" fill-opacity="0.34" stroke="#0e5b52" stroke-width="1.6" />
  <path d="M416.5 513.7 L416.5 513.1 L415.8 513.1 L415.8 513.7 L416.5 513.7 Z" fill="#2f8f83" fill-opacity="0.34" stroke="#0e5b52" stroke-width="1.6" />
  <path d="M416.5 513.1 L416.5 512.4 L415.8 512.4 L415.8 513.1 L416.5 513.1 Z" fill="#2f8f83" fill-opacity="0.34" stroke="#0e5b52" stroke-width="1.6" />
  <path d="M415.8 511.8 L415.8 511.1 L415.1 511.1 L415.1 511.8 L415.8 511.8 Z" fill="#2f8f83" fill-opacity="0.34" stroke="#0e5b52" stroke-width="1.6" />
  <path d="M417.1 513.7 L417.1 513.1 L416.5 513.1 L416.5 513.7 L417.1 513.7 Z" fill="#2f8f83" fill-opacity="0.34" stroke="#0e5b52" stroke-width="1.6" />
  <path d="M417.1 511.1 L417.1 510.5 L416.5 510.5 L416.5 511.1 L417.1 511.1 Z" fill="#2f8f83" fill-opacity="0.34" stroke="#0e5b52" stroke-width="1.6" />
  <path d="M419.2 513.1 L419.2 512.4 L418.5 512.4 L418.5 513.1 L419.2 513.1 Z" fill="#2f8f83" fill-opacity="0.34" stroke="#0e5b52" stroke-width="1.6" />
  <path d="M419.2 512.4 L419.2 511.8 L418.5 511.8 L418.5 512.4 L419.2 512.4 Z" fill="#2f8f83" fill-opacity="0.34" stroke="#0e5b52" stroke-width="1.6" />
  <path d="M419.2 511.8 L419.2 511.1 L418.5 511.1 L418.5 511.8 L419.2 511.8 Z" fill="#2f8f83" fill-opacity="0.34" stroke="#0e5b52" stroke-width="1.6" />
  <path d="M419.9 511.8 L419.9 511.1 L419.2 511.1 L419.2 511.8 L419.9 511.8 Z" fill="#2f8f83" fill-opacity="0.34" stroke="#0e5b52" stroke-width="1.6" />
  <path d="M415.8 513.1 L415.8 512.4 L415.1 512.4 L415.1 513.1 L415.8 513.1 Z" fill="#2f8f83" fill-opacity="0.34" stroke="#0e5b52" stroke-width="1.6" />
  <path d="M415.8 512.4 L415.8 511.8 L415.1 511.8 L415.1 512.4 L415.8 512.4 Z" fill="#2f8f83" fill-opacity="0.34" stroke="#0e5b52" stroke-width="1.6" />
  <path d="M417.1 512.4 L417.1 511.8 L416.5 511.8 L416.5 512.4 L417.1 512.4 Z" fill="#2f8f83" fill-opacity="0.34" stroke="#0e5b52" stroke-width="1.6" />
  <path d="M419.2 513.7 L419.2 513.1 L418.5 513.1 L418.5 513.7 L419.2 513.7 Z" fill="#2f8f83" fill-opacity="0.34" stroke="#0e5b52" stroke-width="1.6" />
  <path d="M419.9 513.1 L419.9 512.4 L419.2 512.4 L419.2 513.1 L419.9 513.1 Z" fill="#2f8f83" fill-opacity="0.34" stroke="#0e5b52" stroke-width="1.6" />
  <path d="M420.5 513.7 L420.5 513.1 L419.9 513.1 L419.9 513.7 L420.5 513.7 Z" fill="#2f8f83" fill-opacity="0.34" stroke="#0e5b52" stroke-width="1.6" />
  <path d="M420.5 511.8 L420.5 511.1 L419.9 511.1 L419.9 511.8 L420.5 511.8 Z" fill="#2f8f83" fill-opacity="0.34" stroke="#0e5b52" stroke-width="1.6" />
  <path d="M418.5 511.8 L418.5 511.1 L417.8 511.1 L417.8 511.8 L418.5 511.8 Z" fill="#2f8f83" fill-opacity="0.34" stroke="#0e5b52" stroke-width="1.6" />
  <path d="M418.5 511.1 L418.5 510.5 L417.8 510.5 L417.8 511.1 L418.5 511.1 Z" fill="#2f8f83" fill-opacity="0.34" stroke="#0e5b52" stroke-width="1.6" />
  <path d="M421.9 512.4 L421.9 511.8 L421.2 511.8 L421.2 512.4 L421.9 512.4 Z" fill="#2f8f83" fill-opacity="0.34" stroke="#0e5b52" stroke-width="1.6" />
  <path d="M418.5 513.7 L418.5 513.1 L417.8 513.1 L417.8 513.7 L418.5 513.7 Z" fill="#2f8f83" fill-opacity="0.34" stroke="#0e5b52" stroke-width="1.6" />
  <path d="M420.5 513.1 L420.5 512.4 L419.9 512.4 L419.9 513.1 L420.5 513.1 Z" fill="#2f8f83" fill-opacity="0.34" stroke="#0e5b52" stroke-width="1.6" />
  <path d="M420.5 512.4 L420.5 511.8 L419.9 511.8 L419.9 512.4 L420.5 512.4 Z" fill="#2f8f83" fill-opacity="0.34" stroke="#0e5b52" stroke-width="1.6" />
  <path d="M415.8 511.1 L415.8 510.5 L415.1 510.5 L415.1 511.1 L415.8 511.1 Z" fill="#2f8f83" fill-opacity="0.34" stroke="#0e5b52" stroke-width="1.6" />
  <path d="M417.1 511.8 L417.1 511.1 L416.5 511.1 L416.5 511.8 L417.1 511.8 Z" fill="#2f8f83" fill-opacity="0.34" stroke="#0e5b52" stroke-width="1.6" />
  <path d="M417.8 511.8 L417.8 511.1 L417.1 511.1 L417.1 511.8 L417.8 511.8 Z" fill="#2f8f83" fill-opacity="0.34" stroke="#0e5b52" stroke-width="1.6" />
  <path d="M417.8 511.1 L417.8 510.5 L417.1 510.5 L417.1 511.1 L417.8 511.1 Z" fill="#2f8f83" fill-opacity="0.34" stroke="#0e5b52" stroke-width="1.6" />
  <path d="M418.5 512.4 L418.5 511.8 L417.8 511.8 L417.8 512.4 L418.5 512.4 Z" fill="#2f8f83" fill-opacity="0.34" stroke="#0e5b52" stroke-width="1.6" />
  <path d="M419.9 512.4 L419.9 511.8 L419.2 511.8 L419.2 512.4 L419.9 512.4 Z" fill="#2f8f83" fill-opacity="0.34" stroke="#0e5b52" stroke-width="1.6" />
  <path d="M420.5 511.1 L420.5 510.5 L419.9 510.5 L419.9 511.1 L420.5 511.1 Z" fill="#2f8f83" fill-opacity="0.34" stroke="#0e5b52" stroke-width="1.6" />
  <path d="M421.2 511.8 L421.2 511.1 L420.5 511.1 L420.5 511.8 L421.2 511.8 Z" fill="#2f8f83" fill-opacity="0.34" stroke="#0e5b52" stroke-width="1.6" />
  <path d="M421.2 511.1 L421.2 510.5 L420.5 510.5 L420.5 511.1 L421.2 511.1 Z" fill="#2f8f83" fill-opacity="0.34" stroke="#0e5b52" stroke-width="1.6" />
  <path d="M416.5 511.8 L416.5 511.1 L415.8 511.1 L415.8 511.8 L416.5 511.8 Z" fill="#2f8f83" fill-opacity="0.34" stroke="#0e5b52" stroke-width="1.6" />
  <path d="M417.8 513.7 L417.8 513.1 L417.1 513.1 L417.1 513.7 L417.8 513.7 Z" fill="#2f8f83" fill-opacity="0.34" stroke="#0e5b52" stroke-width="1.6" />
  <path d="M419.2 511.1 L419.2 510.5 L418.5 510.5 L418.5 511.1 L419.2 511.1 Z" fill="#2f8f83" fill-opacity="0.34" stroke="#0e5b52" stroke-width="1.6" />
  <path d="M420.5 514.4 L420.5 513.7 L419.9 513.7 L419.9 514.4 L420.5 514.4 Z" fill="#2f8f83" fill-opacity="0.34" stroke="#0e5b52" stroke-width="1.6" />
  <path d="M415.8 513.7 L415.8 513.1 L415.1 513.1 L415.1 513.7 L415.8 513.7 Z" fill="#2f8f83" fill-opacity="0.34" stroke="#0e5b52" stroke-width="1.6" />
  <path d="M416.5 512.4 L416.5 511.8 L415.8 511.8 L415.8 512.4 L416.5 512.4 Z" fill="#2f8f83" fill-opacity="0.34" stroke="#0e5b52" stroke-width="1.6" />
  <path d="M416.5 511.1 L416.5 510.5 L415.8 510.5 L415.8 511.1 L416.5 511.1 Z" fill="#2f8f83" fill-opacity="0.34" stroke="#0e5b52" stroke-width="1.6" />
  <path d="M417.1 513.1 L417.1 512.4 L416.5 512.4 L416.5 513.1 L417.1 513.1 Z" fill="#2f8f83" fill-opacity="0.34" stroke="#0e5b52" stroke-width="1.6" />
  <path d="M418.5 513.1 L418.5 512.4 L417.8 512.4 L417.8 513.1 L418.5 513.1 Z" fill="#2f8f83" fill-opacity="0.34" stroke="#0e5b52" stroke-width="1.6" />
  <path d="M419.2 514.4 L419.2 513.7 L418.5 513.7 L418.5 514.4 L419.2 514.4 Z" fill="#2f8f83" fill-opacity="0.34" stroke="#0e5b52" stroke-width="1.6" />
  <path d="M419.9 513.7 L419.9 513.1 L419.2 513.1 L419.2 513.7 L419.9 513.7 Z" fill="#2f8f83" fill-opacity="0.34" stroke="#0e5b52" stroke-width="1.6" />
  <path d="M419.9 511.1 L419.9 510.5 L419.2 510.5 L419.2 511.1 L419.9 511.1 Z" fill="#2f8f83" fill-opacity="0.34" stroke="#0e5b52" stroke-width="1.6" />
  <path d="M417.8 513.1 L417.8 512.4 L417.1 512.4 L417.1 513.1 L417.8 513.1 Z" fill="#2f8f83" fill-opacity="0.34" stroke="#0e5b52" stroke-width="1.6" />
  <path d="M417.8 512.4 L417.8 511.8 L417.1 511.8 L417.1 512.4 L417.8 512.4 Z" fill="#2f8f83" fill-opacity="0.34" stroke="#0e5b52" stroke-width="1.6" />
  <path d="M419.9 514.4 L419.9 513.7 L419.2 513.7 L419.2 514.4 L419.9 514.4 Z" fill="#2f8f83" fill-opacity="0.34" stroke="#0e5b52" stroke-width="1.6" />
  <path d="M421.2 512.4 L421.2 511.8 L420.5 511.8 L420.5 512.4 L421.2 512.4 Z" fill="#2f8f83" fill-opacity="0.34" stroke="#0e5b52" stroke-width="1.6" />
  <path d="M421.9 511.8 L421.9 511.1 L421.2 511.1 L421.2 511.8 L421.9 511.8 Z" fill="#2f8f83" fill-opacity="0.34" stroke="#0e5b52" stroke-width="1.6" />
  <path d="M413.1 517.6 L413.1 517.0 L412.4 517.0 L412.4 517.6 L413.1 517.6 Z" fill="#2f8f83" fill-opacity="0.34" stroke="#0e5b52" stroke-width="1.6" />
  <path d="M413.7 517.0 L413.7 516.3 L413.1 516.3 L413.1 517.0 L413.7 517.0 Z" fill="#2f8f83" fill-opacity="0.34" stroke="#0e5b52" stroke-width="1.6" />
  <path d="M414.4 515.0 L414.4 514.4 L413.7 514.4 L413.7 515.0 L414.4 515.0 Z" fill="#2f8f83" fill-opacity="0.34" stroke="#0e5b52" stroke-width="1.6" />
  <path d="M417.8 515.0 L417.8 514.4 L417.1 514.4 L417.1 515.0 L417.8 515.0 Z" fill="#2f8f83" fill-opacity="0.34" stroke="#0e5b52" stroke-width="1.6" />
  <path d="M417.8 514.4 L417.8 513.7 L417.1 513.7 L417.1 514.4 L417.8 514.4 Z" fill="#2f8f83" fill-opacity="0.34" stroke="#0e5b52" stroke-width="1.6" />
  <path d="M418.5 515.0 L418.5 514.4 L417.8 514.4 L417.8 515.0 L418.5 515.0 Z" fill="#2f8f83" fill-opacity="0.34" stroke="#0e5b52" stroke-width="1.6" />
  <path d="M413.1 515.7 L413.1 515.0 L412.4 515.0 L412.4 515.7 L413.1 515.7 Z" fill="#2f8f83" fill-opacity="0.34" stroke="#0e5b52" stroke-width="1.6" />
  <path d="M416.5 515.0 L416.5 514.4 L415.8 514.4 L415.8 515.0 L416.5 515.0 Z" fill="#2f8f83" fill-opacity="0.34" stroke="#0e5b52" stroke-width="1.6" />
  <path d="M412.4 517.0 L412.4 516.3 L411.7 516.3 L411.7 517.0 L412.4 517.0 Z" fill="#2f8f83" fill-opacity="0.34" stroke="#0e5b52" stroke-width="1.6" />
  <path d="M413.7 517.6 L413.7 517.0 L413.1 517.0 L413.1 517.6 L413.7 517.6 Z" fill="#2f8f83" fill-opacity="0.34" stroke="#0e5b52" stroke-width="1.6" />
  <path d="M413.7 516.3 L413.7 515.7 L413.1 515.7 L413.1 516.3 L413.7 516.3 Z" fill="#2f8f83" fill-opacity="0.34" stroke="#0e5b52" stroke-width="1.6" />
  <path d="M412.4 517.6 L412.4 517.0 L411.7 517.0 L411.7 517.6 L412.4 517.6 Z" fill="#2f8f83" fill-opacity="0.34" stroke="#0e5b52" stroke-width="1.6" />
  <path d="M413.1 515.0 L413.1 514.4 L412.4 514.4 L412.4 515.0 L413.1 515.0 Z" fill="#2f8f83" fill-opacity="0.34" stroke="#0e5b52" stroke-width="1.6" />
  <path d="M414.4 514.4 L414.4 513.7 L413.7 513.7 L413.7 514.4 L414.4 514.4 Z" fill="#2f8f83" fill-opacity="0.34" stroke="#0e5b52" stroke-width="1.6" />
  <path d="M415.8 515.7 L415.8 515.0 L415.1 515.0 L415.1 515.7 L415.8 515.7 Z" fill="#2f8f83" fill-opacity="0.34" stroke="#0e5b52" stroke-width="1.6" />
  <path d="M416.5 515.7 L416.5 515.0 L415.8 515.0 L415.8 515.7 L416.5 515.7 Z" fill="#2f8f83" fill-opacity="0.34" stroke="#0e5b52" stroke-width="1.6" />
  <path d="M418.5 515.7 L418.5 515.0 L417.8 515.0 L417.8 515.7 L418.5 515.7 Z" fill="#2f8f83" fill-opacity="0.34" stroke="#0e5b52" stroke-width="1.6" />
  <path d="M414.4 515.7 L414.4 515.0 L413.7 515.0 L413.7 515.7 L414.4 515.7 Z" fill="#2f8f83" fill-opacity="0.34" stroke="#0e5b52" stroke-width="1.6" />
  <path d="M416.5 514.4 L416.5 513.7 L415.8 513.7 L415.8 514.4 L416.5 514.4 Z" fill="#2f8f83" fill-opacity="0.34" stroke="#0e5b52" stroke-width="1.6" />
  <path d="M417.1 514.4 L417.1 513.7 L416.5 513.7 L416.5 514.4 L417.1 514.4 Z" fill="#2f8f83" fill-opacity="0.34" stroke="#0e5b52" stroke-width="1.6" />
  <path d="M413.1 517.0 L413.1 516.3 L412.4 516.3 L412.4 517.0 L413.1 517.0 Z" fill="#2f8f83" fill-opacity="0.34" stroke="#0e5b52" stroke-width="1.6" />
  <path d="M413.1 516.3 L413.1 515.7 L412.4 515.7 L412.4 516.3 L413.1 516.3 Z" fill="#2f8f83" fill-opacity="0.34" stroke="#0e5b52" stroke-width="1.6" />
  <path d="M413.7 515.7 L413.7 515.0 L413.1 515.0 L413.1 515.7 L413.7 515.7 Z" fill="#2f8f83" fill-opacity="0.34" stroke="#0e5b52" stroke-width="1.6" />
  <path d="M415.1 515.0 L415.1 514.4 L414.4 514.4 L414.4 515.0 L415.1 515.0 Z" fill="#2f8f83" fill-opacity="0.34" stroke="#0e5b52" stroke-width="1.6" />
  <path d="M415.8 515.0 L415.8 514.4 L415.1 514.4 L415.1 515.0 L415.8 515.0 Z" fill="#2f8f83" fill-opacity="0.34" stroke="#0e5b52" stroke-width="1.6" />
  <path d="M412.4 516.3 L412.4 515.7 L411.7 515.7 L411.7 516.3 L412.4 516.3 Z" fill="#2f8f83" fill-opacity="0.34" stroke="#0e5b52" stroke-width="1.6" />
  <path d="M413.7 515.0 L413.7 514.4 L413.1 514.4 L413.1 515.0 L413.7 515.0 Z" fill="#2f8f83" fill-opacity="0.34" stroke="#0e5b52" stroke-width="1.6" />
  <path d="M415.1 515.7 L415.1 515.0 L414.4 515.0 L414.4 515.7 L415.1 515.7 Z" fill="#2f8f83" fill-opacity="0.34" stroke="#0e5b52" stroke-width="1.6" />
  <path d="M415.1 514.4 L415.1 513.7 L414.4 513.7 L414.4 514.4 L415.1 514.4 Z" fill="#2f8f83" fill-opacity="0.34" stroke="#0e5b52" stroke-width="1.6" />
  <path d="M417.1 515.7 L417.1 515.0 L416.5 515.0 L416.5 515.7 L417.1 515.7 Z" fill="#2f8f83" fill-opacity="0.34" stroke="#0e5b52" stroke-width="1.6" />
  <path d="M417.1 515.0 L417.1 514.4 L416.5 514.4 L416.5 515.0 L417.1 515.0 Z" fill="#2f8f83" fill-opacity="0.34" stroke="#0e5b52" stroke-width="1.6" />
  <path d="M415.8 514.4 L415.8 513.7 L415.1 513.7 L415.1 514.4 L415.8 514.4 Z" fill="#2f8f83" fill-opacity="0.34" stroke="#0e5b52" stroke-width="1.6" />
  <path d="M417.8 515.7 L417.8 515.0 L417.1 515.0 L417.1 515.7 L417.8 515.7 Z" fill="#2f8f83" fill-opacity="0.34" stroke="#0e5b52" stroke-width="1.6" />
  <path d="M415.1 513.1 L415.1 512.4 L414.4 512.4 L414.4 513.1 L415.1 513.1 Z" fill="#2f8f83" fill-opacity="0.34" stroke="#0e5b52" stroke-width="1.6" />
  <path d="M414.4 513.7 L414.4 513.1 L413.7 513.1 L413.7 513.7 L414.4 513.7 Z" fill="#2f8f83" fill-opacity="0.34" stroke="#0e5b52" stroke-width="1.6" />
  <path d="M414.4 513.1 L414.4 512.4 L413.7 512.4 L413.7 513.1 L414.4 513.1 Z" fill="#2f8f83" fill-opacity="0.34" stroke="#0e5b52" stroke-width="1.6" />
  <path d="M415.1 513.7 L415.1 513.1 L414.4 513.1 L414.4 513.7 L415.1 513.7 Z" fill="#2f8f83" fill-opacity="0.34" stroke="#0e5b52" stroke-width="1.6" />
  <path d="M414.4 512.4 L414.4 511.8 L413.7 511.8 L413.7 512.4 L414.4 512.4 Z" fill="#2f8f83" fill-opacity="0.34" stroke="#0e5b52" stroke-width="1.6" />
  <path d="M415.1 512.4 L415.1 511.8 L414.4 511.8 L414.4 512.4 L415.1 512.4 Z" fill="#2f8f83" fill-opacity="0.34" stroke="#0e5b52" stroke-width="1.6" />
  <path d="M419.9 515.7 L419.9 515.0 L419.2 515.0 L419.2 515.7 L419.9 515.7 Z" fill="#2f8f83" fill-opacity="0.34" stroke="#0e5b52" stroke-width="1.6" />
  <path d="M420.5 515.7 L420.5 515.0 L419.9 515.0 L419.9 515.7 L420.5 515.7 Z" fill="#2f8f83" fill-opacity="0.34" stroke="#0e5b52" stroke-width="1.6" />
  <path d="M421.2 515.7 L421.2 515.0 L420.5 515.0 L420.5 515.7 L421.2 515.7 Z" fill="#2f8f83" fill-opacity="0.34" stroke="#0e5b52" stroke-width="1.6" />
  <path d="M421.9 515.7 L421.9 515.0 L421.2 515.0 L421.2 515.7 L421.9 515.7 Z" fill="#2f8f83" fill-opacity="0.34" stroke="#0e5b52" stroke-width="1.6" />
  <path d="M420.5 516.3 L420.5 515.7 L419.9 515.7 L419.9 516.3 L420.5 516.3 Z" fill="#2f8f83" fill-opacity="0.34" stroke="#0e5b52" stroke-width="1.6" />
  <path d="M421.2 516.3 L421.2 515.7 L420.5 515.7 L420.5 516.3 L421.2 516.3 Z" fill="#2f8f83" fill-opacity="0.34" stroke="#0e5b52" stroke-width="1.6" />
  <path d="M421.9 516.3 L421.9 515.7 L421.2 515.7 L421.2 516.3 L421.9 516.3 Z" fill="#2f8f83" fill-opacity="0.34" stroke="#0e5b52" stroke-width="1.6" />
  <path d="M418.5 514.4 L418.5 513.7 L417.8 513.7 L417.8 514.4 L418.5 514.4 Z" fill="#2f8f83" fill-opacity="0.34" stroke="#0e5b52" stroke-width="1.6" />
  <path d="M411.0 517.0 L411.0 516.3 L410.3 516.3 L410.3 517.0 L411.0 517.0 Z" fill="#2f8f83" fill-opacity="0.34" stroke="#0e5b52" stroke-width="1.6" />
  <path d="M411.0 515.7 L411.0 515.0 L410.3 515.0 L410.3 515.7 L411.0 515.7 Z" fill="#2f8f83" fill-opacity="0.34" stroke="#0e5b52" stroke-width="1.6" />
  <path d="M409.7 517.6 L409.7 517.0 L409.0 517.0 L409.0 517.6 L409.7 517.6 Z" fill="#2f8f83" fill-opacity="0.34" stroke="#0e5b52" stroke-width="1.6" />
  <path d="M411.0 516.3 L411.0 515.7 L410.3 515.7 L410.3 516.3 L411.0 516.3 Z" fill="#2f8f83" fill-opacity="0.34" stroke="#0e5b52" stroke-width="1.6" />
  <path d="M411.7 516.3 L411.7 515.7 L411.0 515.7 L411.0 516.3 L411.7 516.3 Z" fill="#2f8f83" fill-opacity="0.34" stroke="#0e5b52" stroke-width="1.6" />
  <path d="M409.7 516.3 L409.7 515.7 L409.0 515.7 L409.0 516.3 L409.7 516.3 Z" fill="#2f8f83" fill-opacity="0.34" stroke="#0e5b52" stroke-width="1.6" />
  <path d="M410.3 516.3 L410.3 515.7 L409.7 515.7 L409.7 516.3 L410.3 516.3 Z" fill="#2f8f83" fill-opacity="0.34" stroke="#0e5b52" stroke-width="1.6" />
  <path d="M409.7 517.0 L409.7 516.3 L409.0 516.3 L409.0 517.0 L409.7 517.0 Z" fill="#2f8f83" fill-opacity="0.34" stroke="#0e5b52" stroke-width="1.6" />
  <path d="M410.3 517.0 L410.3 516.3 L409.7 516.3 L409.7 517.0 L410.3 517.0 Z" fill="#2f8f83" fill-opacity="0.34" stroke="#0e5b52" stroke-width="1.6" />
  <path d="M409.7 515.7 L409.7 515.0 L409.0 515.0 L409.0 515.7 L409.7 515.7 Z" fill="#2f8f83" fill-opacity="0.34" stroke="#0e5b52" stroke-width="1.6" />
  <path d="M410.3 517.6 L410.3 517.0 L409.7 517.0 L409.7 517.6 L410.3 517.6 Z" fill="#2f8f83" fill-opacity="0.34" stroke="#0e5b52" stroke-width="1.6" />
  <path d="M411.0 517.6 L411.0 517.0 L410.3 517.0 L410.3 517.6 L411.0 517.6 Z" fill="#2f8f83" fill-opacity="0.34" stroke="#0e5b52" stroke-width="1.6" />
  <path d="M411.7 517.6 L411.7 517.0 L411.0 517.0 L411.0 517.6 L411.7 517.6 Z" fill="#2f8f83" fill-opacity="0.34" stroke="#0e5b52" stroke-width="1.6" />
  <path d="M410.3 515.7 L410.3 515.0 L409.7 515.0 L409.7 515.7 L410.3 515.7 Z" fill="#2f8f83" fill-opacity="0.34" stroke="#0e5b52" stroke-width="1.6" />
  <path d="M411.7 517.0 L411.7 516.3 L411.0 516.3 L411.0 517.0 L411.7 517.0 Z" fill="#2f8f83" fill-opacity="0.34" stroke="#0e5b52" stroke-width="1.6" />
  <path d="M411.7 515.7 L411.7 515.0 L411.0 515.0 L411.0 515.7 L411.7 515.7 Z" fill="#2f8f83" fill-opacity="0.34" stroke="#0e5b52" stroke-width="1.6" />
  <path d="M591.0 121.1 L591.0 120.4 L590.3 120.4 L590.3 121.1 L591.0 121.1 Z" fill="#2f8f83" fill-opacity="0.34" stroke="#0e5b52" stroke-width="1.6" />
  <path d="M591.0 121.8 L591.0 121.1 L590.3 121.1 L590.3 121.8 L591.0 121.8 Z" fill="#2f8f83" fill-opacity="0.34" stroke="#0e5b52" stroke-width="1.6" />
  <path d="M590.3 122.4 L590.3 121.8 L589.7 121.8 L589.7 122.4 L590.3 122.4 Z" fill="#2f8f83" fill-opacity="0.34" stroke="#0e5b52" stroke-width="1.6" />
  <path d="M591.0 122.4 L591.0 121.8 L590.3 121.8 L590.3 122.4 L591.0 122.4 Z" fill="#2f8f83" fill-opacity="0.34" stroke="#0e5b52" stroke-width="1.6" />
  <path d="M590.3 120.4 L590.3 119.7 L589.7 119.7 L589.7 120.4 L590.3 120.4 Z" fill="#2f8f83" fill-opacity="0.34" stroke="#0e5b52" stroke-width="1.6" />
  <path d="M413.1 514.4 L413.1 513.7 L412.4 513.7 L412.4 514.4 L413.1 514.4 Z" fill="#2f8f83" fill-opacity="0.34" stroke="#0e5b52" stroke-width="1.6" />
  <path d="M413.7 514.4 L413.7 513.7 L413.1 513.7 L413.1 514.4 L413.7 514.4 Z" fill="#2f8f83" fill-opacity="0.34" stroke="#0e5b52" stroke-width="1.6" />
  <path d="M415.8 521.6 L415.8 520.9 L415.1 520.9 L415.1 521.6 L415.8 521.6 Z" fill="#2f8f83" fill-opacity="0.34" stroke="#0e5b52" stroke-width="1.6" />
  <path d="M419.9 522.2 L419.9 521.6 L419.2 521.6 L419.2 522.2 L419.9 522.2 Z" fill="#2f8f83" fill-opacity="0.34" stroke="#0e5b52" stroke-width="1.6" />
  <path d="M419.2 517.6 L419.2 517.0 L418.5 517.0 L418.5 517.6 L419.2 517.6 Z" fill="#2f8f83" fill-opacity="0.34" stroke="#0e5b52" stroke-width="1.6" />
  <path d="M420.5 520.3 L420.5 519.6 L419.9 519.6 L419.9 520.3 L420.5 520.3 Z" fill="#2f8f83" fill-opacity="0.34" stroke="#0e5b52" stroke-width="1.6" />
  <path d="M420.5 519.6 L420.5 519.0 L419.9 519.0 L419.9 519.6 L420.5 519.6 Z" fill="#2f8f83" fill-opacity="0.34" stroke="#0e5b52" stroke-width="1.6" />
  <path d="M421.2 520.3 L421.2 519.6 L420.5 519.6 L420.5 520.3 L421.2 520.3 Z" fill="#2f8f83" fill-opacity="0.34" stroke="#0e5b52" stroke-width="1.6" />
  <path d="M416.5 520.9 L416.5 520.3 L415.8 520.3 L415.8 520.9 L416.5 520.9 Z" fill="#2f8f83" fill-opacity="0.34" stroke="#0e5b52" stroke-width="1.6" />
  <path d="M419.2 519.0 L419.2 518.3 L418.5 518.3 L418.5 519.0 L419.2 519.0 Z" fill="#2f8f83" fill-opacity="0.34" stroke="#0e5b52" stroke-width="1.6" />
  <path d="M420.5 521.6 L420.5 520.9 L419.9 520.9 L419.9 521.6 L420.5 521.6 Z" fill="#2f8f83" fill-opacity="0.34" stroke="#0e5b52" stroke-width="1.6" />
  <path d="M421.2 518.3 L421.2 517.6 L420.5 517.6 L420.5 518.3 L421.2 518.3 Z" fill="#2f8f83" fill-opacity="0.34" stroke="#0e5b52" stroke-width="1.6" />
  <path d="M416.5 520.3 L416.5 519.6 L415.8 519.6 L415.8 520.3 L416.5 520.3 Z" fill="#2f8f83" fill-opacity="0.34" stroke="#0e5b52" stroke-width="1.6" />
  <path d="M417.1 519.6 L417.1 519.0 L416.5 519.0 L416.5 519.6 L417.1 519.6 Z" fill="#2f8f83" fill-opacity="0.34" stroke="#0e5b52" stroke-width="1.6" />
  <path d="M417.8 519.6 L417.8 519.0 L417.1 519.0 L417.1 519.6 L417.8 519.6 Z" fill="#2f8f83" fill-opacity="0.34" stroke="#0e5b52" stroke-width="1.6" />
  <path d="M418.5 521.6 L418.5 520.9 L417.8 520.9 L417.8 521.6 L418.5 521.6 Z" fill="#2f8f83" fill-opacity="0.34" stroke="#0e5b52" stroke-width="1.6" />
  <path d="M419.2 518.3 L419.2 517.6 L418.5 517.6 L418.5 518.3 L419.2 518.3 Z" fill="#2f8f83" fill-opacity="0.34" stroke="#0e5b52" stroke-width="1.6" />
  <path d="M421.2 519.0 L421.2 518.3 L420.5 518.3 L420.5 519.0 L421.2 519.0 Z" fill="#2f8f83" fill-opacity="0.34" stroke="#0e5b52" stroke-width="1.6" />
  <path d="M420.5 517.6 L420.5 517.0 L419.9 517.0 L419.9 517.6 L420.5 517.6 Z" fill="#2f8f83" fill-opacity="0.34" stroke="#0e5b52" stroke-width="1.6" />
  <path d="M421.2 520.9 L421.2 520.3 L420.5 520.3 L420.5 520.9 L421.2 520.9 Z" fill="#2f8f83" fill-opacity="0.34" stroke="#0e5b52" stroke-width="1.6" />
  <path d="M421.2 519.6 L421.2 519.0 L420.5 519.0 L420.5 519.6 L421.2 519.6 Z" fill="#2f8f83" fill-opacity="0.34" stroke="#0e5b52" stroke-width="1.6" />
  <path d="M416.5 521.6 L416.5 520.9 L415.8 520.9 L415.8 521.6 L416.5 521.6 Z" fill="#2f8f83" fill-opacity="0.34" stroke="#0e5b52" stroke-width="1.6" />
  <path d="M417.1 520.3 L417.1 519.6 L416.5 519.6 L416.5 520.3 L417.1 520.3 Z" fill="#2f8f83" fill-opacity="0.34" stroke="#0e5b52" stroke-width="1.6" />
  <path d="M420.5 518.3 L420.5 517.6 L419.9 517.6 L419.9 518.3 L420.5 518.3 Z" fill="#2f8f83" fill-opacity="0.34" stroke="#0e5b52" stroke-width="1.6" />
  <path d="M417.8 522.2 L417.8 521.6 L417.1 521.6 L417.1 522.2 L417.8 522.2 Z" fill="#2f8f83" fill-opacity="0.34" stroke="#0e5b52" stroke-width="1.6" />
  <path d="M417.1 522.2 L417.1 521.6 L416.5 521.6 L416.5 522.2 L417.1 522.2 Z" fill="#2f8f83" fill-opacity="0.34" stroke="#0e5b52" stroke-width="1.6" />
  <path d="M417.1 521.6 L417.1 520.9 L416.5 520.9 L416.5 521.6 L417.1 521.6 Z" fill="#2f8f83" fill-opacity="0.34" stroke="#0e5b52" stroke-width="1.6" />
  <path d="M417.1 520.9 L417.1 520.3 L416.5 520.3 L416.5 520.9 L417.1 520.9 Z" fill="#2f8f83" fill-opacity="0.34" stroke="#0e5b52" stroke-width="1.6" />
  <path d="M417.8 521.6 L417.8 520.9 L417.1 520.9 L417.1 521.6 L417.8 521.6 Z" fill="#2f8f83" fill-opacity="0.34" stroke="#0e5b52" stroke-width="1.6" />
  <path d="M418.5 522.2 L418.5 521.6 L417.8 521.6 L417.8 522.2 L418.5 522.2 Z" fill="#2f8f83" fill-opacity="0.34" stroke="#0e5b52" stroke-width="1.6" />
  <path d="M418.5 519.6 L418.5 519.0 L417.8 519.0 L417.8 519.6 L418.5 519.6 Z" fill="#2f8f83" fill-opacity="0.34" stroke="#0e5b52" stroke-width="1.6" />
  <path d="M418.5 519.0 L418.5 518.3 L417.8 518.3 L417.8 519.0 L418.5 519.0 Z" fill="#2f8f83" fill-opacity="0.34" stroke="#0e5b52" stroke-width="1.6" />
  <path d="M419.2 522.2 L419.2 521.6 L418.5 521.6 L418.5 522.2 L419.2 522.2 Z" fill="#2f8f83" fill-opacity="0.34" stroke="#0e5b52" stroke-width="1.6" />
  <path d="M419.9 521.6 L419.9 520.9 L419.2 520.9 L419.2 521.6 L419.9 521.6 Z" fill="#2f8f83" fill-opacity="0.34" stroke="#0e5b52" stroke-width="1.6" />
  <path d="M419.9 517.6 L419.9 517.0 L419.2 517.0 L419.2 517.6 L419.9 517.6 Z" fill="#2f8f83" fill-opacity="0.34" stroke="#0e5b52" stroke-width="1.6" />
  <path d="M421.2 521.6 L421.2 520.9 L420.5 520.9 L420.5 521.6 L421.2 521.6 Z" fill="#2f8f83" fill-opacity="0.34" stroke="#0e5b52" stroke-width="1.6" />
  <path d="M419.2 519.6 L419.2 519.0 L418.5 519.0 L418.5 519.6 L419.2 519.6 Z" fill="#2f8f83" fill-opacity="0.34" stroke="#0e5b52" stroke-width="1.6" />
  <path d="M419.2 520.9 L419.2 520.3 L418.5 520.3 L418.5 520.9 L419.2 520.9 Z" fill="#2f8f83" fill-opacity="0.34" stroke="#0e5b52" stroke-width="1.6" />
  <path d="M419.2 520.3 L419.2 519.6 L418.5 519.6 L418.5 520.3 L419.2 520.3 Z" fill="#2f8f83" fill-opacity="0.34" stroke="#0e5b52" stroke-width="1.6" />
  <path d="M419.9 520.3 L419.9 519.6 L419.2 519.6 L419.2 520.3 L419.9 520.3 Z" fill="#2f8f83" fill-opacity="0.34" stroke="#0e5b52" stroke-width="1.6" />
  <path d="M419.9 519.0 L419.9 518.3 L419.2 518.3 L419.2 519.0 L419.9 519.0 Z" fill="#2f8f83" fill-opacity="0.34" stroke="#0e5b52" stroke-width="1.6" />
  <path d="M419.2 521.6 L419.2 520.9 L418.5 520.9 L418.5 521.6 L419.2 521.6 Z" fill="#2f8f83" fill-opacity="0.34" stroke="#0e5b52" stroke-width="1.6" />
  <path d="M420.5 520.9 L420.5 520.3 L419.9 520.3 L419.9 520.9 L420.5 520.9 Z" fill="#2f8f83" fill-opacity="0.34" stroke="#0e5b52" stroke-width="1.6" />
  <path d="M419.9 520.9 L419.9 520.3 L419.2 520.3 L419.2 520.9 L419.9 520.9 Z" fill="#2f8f83" fill-opacity="0.34" stroke="#0e5b52" stroke-width="1.6" />
  <path d="M419.9 518.3 L419.9 517.6 L419.2 517.6 L419.2 518.3 L419.9 518.3 Z" fill="#2f8f83" fill-opacity="0.34" stroke="#0e5b52" stroke-width="1.6" />
  <path d="M419.9 519.6 L419.9 519.0 L419.2 519.0 L419.2 519.6 L419.9 519.6 Z" fill="#2f8f83" fill-opacity="0.34" stroke="#0e5b52" stroke-width="1.6" />
  <path d="M420.5 519.0 L420.5 518.3 L419.9 518.3 L419.9 519.0 L420.5 519.0 Z" fill="#2f8f83" fill-opacity="0.34" stroke="#0e5b52" stroke-width="1.6" />
  <path d="M417.8 520.3 L417.8 519.6 L417.1 519.6 L417.1 520.3 L417.8 520.3 Z" fill="#2f8f83" fill-opacity="0.34" stroke="#0e5b52" stroke-width="1.6" />
  <path d="M418.5 520.9 L418.5 520.3 L417.8 520.3 L417.8 520.9 L418.5 520.9 Z" fill="#2f8f83" fill-opacity="0.34" stroke="#0e5b52" stroke-width="1.6" />
  <path d="M418.5 520.3 L418.5 519.6 L417.8 519.6 L417.8 520.3 L418.5 520.3 Z" fill="#2f8f83" fill-opacity="0.34" stroke="#0e5b52" stroke-width="1.6" />
  <path d="M417.8 520.9 L417.8 520.3 L417.1 520.3 L417.1 520.9 L417.8 520.9 Z" fill="#2f8f83" fill-opacity="0.34" stroke="#0e5b52" stroke-width="1.6" />
  <path d="M421.2 517.6 L421.2 517.0 L420.5 517.0 L420.5 517.6 L421.2 517.6 Z" fill="#2f8f83" fill-opacity="0.34" stroke="#0e5b52" stroke-width="1.6" />
  <path d="M422.6 516.3 L422.6 515.7 L421.9 515.7 L421.9 516.3 L422.6 516.3 Z" fill="#2f8f83" fill-opacity="0.34" stroke="#0e5b52" stroke-width="1.6" />
  <path d="M421.9 517.0 L421.9 516.3 L421.2 516.3 L421.2 517.0 L421.9 517.0 Z" fill="#2f8f83" fill-opacity="0.34" stroke="#0e5b52" stroke-width="1.6" />
  <path d="M422.6 517.0 L422.6 516.3 L421.9 516.3 L421.9 517.0 L422.6 517.0 Z" fill="#2f8f83" fill-opacity="0.34" stroke="#0e5b52" stroke-width="1.6" />
  <path d="M423.2 517.0 L423.2 516.3 L422.6 516.3 L422.6 517.0 L423.2 517.0 Z" fill="#2f8f83" fill-opacity="0.34" stroke="#0e5b52" stroke-width="1.6" />
  <path d="M423.9 517.0 L423.9 516.3 L423.2 516.3 L423.2 517.0 L423.9 517.0 Z" fill="#2f8f83" fill-opacity="0.34" stroke="#0e5b52" stroke-width="1.6" />
  <path d="M421.9 517.6 L421.9 517.0 L421.2 517.0 L421.2 517.6 L421.9 517.6 Z" fill="#2f8f83" fill-opacity="0.34" stroke="#0e5b52" stroke-width="1.6" />
  <path d="M422.6 517.6 L422.6 517.0 L421.9 517.0 L421.9 517.6 L422.6 517.6 Z" fill="#2f8f83" fill-opacity="0.34" stroke="#0e5b52" stroke-width="1.6" />
  <path d="M423.2 517.6 L423.2 517.0 L422.6 517.0 L422.6 517.6 L423.2 517.6 Z" fill="#2f8f83" fill-opacity="0.34" stroke="#0e5b52" stroke-width="1.6" />
  <path d="M415.8 522.2 L415.8 521.6 L415.1 521.6 L415.1 522.2 L415.8 522.2 Z" fill="#2f8f83" fill-opacity="0.34" stroke="#0e5b52" stroke-width="1.6" />
  <path d="M416.5 522.2 L416.5 521.6 L415.8 521.6 L415.8 522.2 L416.5 522.2 Z" fill="#2f8f83" fill-opacity="0.34" stroke="#0e5b52" stroke-width="1.6" />
  <path d="M415.8 522.9 L415.8 522.2 L415.1 522.2 L415.1 522.9 L415.8 522.9 Z" fill="#2f8f83" fill-opacity="0.34" stroke="#0e5b52" stroke-width="1.6" />
  <path d="M416.5 522.9 L416.5 522.2 L415.8 522.2 L415.8 522.9 L416.5 522.9 Z" fill="#2f8f83" fill-opacity="0.34" stroke="#0e5b52" stroke-width="1.6" />
  <path d="M421.9 520.9 L421.9 520.3 L421.2 520.3 L421.2 520.9 L421.9 520.9 Z" fill="#2f8f83" fill-opacity="0.34" stroke="#0e5b52" stroke-width="1.6" />
  <path d="M421.9 521.6 L421.9 520.9 L421.2 520.9 L421.2 521.6 L421.9 521.6 Z" fill="#2f8f83" fill-opacity="0.34" stroke="#0e5b52" stroke-width="1.6" />
  <path d="M421.9 519.0 L421.9 518.3 L421.2 518.3 L421.2 519.0 L421.9 519.0 Z" fill="#2f8f83" fill-opacity="0.34" stroke="#0e5b52" stroke-width="1.6" />
  <path d="M421.9 519.6 L421.9 519.0 L421.2 519.0 L421.2 519.6 L421.9 519.6 Z" fill="#2f8f83" fill-opacity="0.34" stroke="#0e5b52" stroke-width="1.6" />
  <path d="M417.8 519.0 L417.8 518.3 L417.1 518.3 L417.1 519.0 L417.8 519.0 Z" fill="#2f8f83" fill-opacity="0.34" stroke="#0e5b52" stroke-width="1.6" />
  <!-- title strip -->
  <rect x="0" y="0" width="1000" height="54" fill="#173042" />
  <text x="20" y="34" font-size="21" font-weight="bold" fill="#ffffff">McFarlane Lake Mining Limited — Mineral Claims</text>
  <text x="980" y="34" font-size="15" fill="#cfe3df" text-anchor="end">MLM</text>
  <!-- scale bar -->
  <g transform="translate(887.9458164505546, 596)">
    <rect x="0" y="0" width="36.02709177472269" height="8" fill="#173042" />
    <rect x="36.02709177472269" y="0" width="36.02709177472269" height="8" fill="#ffffff" stroke="#173042" stroke-width="1" />
    <text x="36.02709177472269" y="-6" font-size="12" fill="#173042" text-anchor="middle">50 km</text>
  </g>
  <!-- north arrow -->
  <g transform="translate(956, 92)">
    <circle r="17" fill="#ffffff" stroke="#b9b09a" />
    <path d="M0 -10 L5 7 L0 3 L-5 7 Z" fill="#173042" />
    <text y="14" font-size="9" font-weight="bold" fill="#173042" text-anchor="middle">N</text>
  </g>
  <!-- watermark -->
  <text x="20" y="620" font-size="13" fill="#7d8b8a">Map by Exploration Maps — explorationmaps.com</text>
</svg>