<svg xmlns="http://www.w3.org/2000/svg" viewBox="0 0 1000 640" font-family="Arial, Helvetica, sans-serif">
  <rect width="1000" height="640" fill="#f3efe6" />
  <line x1="200" y1="0" x2="200" y2="640" stroke="#d9d2c0" stroke-width="0.7" />
  <line x1="0" y1="128" x2="1000" y2="128" stroke="#d9d2c0" stroke-width="0.7" />
  <line x1="400" y1="0" x2="400" y2="640" stroke="#d9d2c0" stroke-width="0.7" />
  <line x1="0" y1="256" x2="1000" y2="256" stroke="#d9d2c0" stroke-width="0.7" />
  <line x1="600" y1="0" x2="600" y2="640" stroke="#d9d2c0" stroke-width="0.7" />
  <line x1="0" y1="384" x2="1000" y2="384" stroke="#d9d2c0" stroke-width="0.7" />
  <line x1="800" y1="0" x2="800" y2="640" stroke="#d9d2c0" stroke-width="0.7" />
  <line x1="0" y1="512" x2="1000" y2="512" stroke="#d9d2c0" stroke-width="0.7" />
  <path d="M460.5 384.0 L460.5 394.6 L469.2 394.6 L478.0 394.6 L486.8 394.6 L495.6 394.6 L504.4 394.6 L513.2 394.6 L513.2 384.0 L513.2 373.4 L513.2 362.8 L513.2 352.2 L513.2 341.5 L513.2 330.9 L513.2 320.3 L513.2 309.7 L513.2 299.1 L513.2 288.5 L513.2 277.9 L513.2 267.3 L504.4 267.3 L495.6 267.3 L486.8 267.3 L478.0 267.3 L469.2 267.3 L460.5 267.3 L460.5 277.9 L460.5 288.5 L460.5 299.1 L460.5 309.7 L460.5 320.3 L460.5 330.9 L460.5 341.5 L460.5 352.2 L460.5 362.8 L460.5 373.4 L460.5 384.0 Z" fill="#2f8f83" fill-opacity="0.34" stroke="#0e5b52" stroke-width="1.6" />
  <path d="M460.5 437.0 L460.5 447.6 L469.2 447.6 L478.0 447.6 L486.8 447.6 L495.6 447.6 L504.4 447.6 L513.2 447.6 L513.2 437.0 L513.2 426.4 L513.2 415.8 L513.2 405.2 L513.2 394.6 L504.4 394.6 L495.6 394.6 L486.8 394.6 L478.0 394.6 L469.2 394.6 L460.5 394.6 L460.5 405.2 L460.5 415.8 L460.5 426.4 L460.5 437.0 Z" fill="#2f8f83" fill-opacity="0.34" stroke="#0e5b52" stroke-width="1.6" />
  <path d="M530.8 288.5 L530.8 299.1 L539.5 299.1 L548.3 299.1 L557.1 299.1 L565.9 299.1 L574.7 299.1 L574.7 288.5 L574.7 277.9 L574.7 267.3 L574.7 256.6 L574.7 246.0 L565.9 246.0 L557.1 246.0 L548.3 246.0 L539.5 246.0 L530.8 246.0 L530.8 256.6 L530.8 267.3 L530.8 277.9 L530.8 288.5 Z" fill="#2f8f83" fill-opacity="0.34" stroke="#0e5b52" stroke-width="1.6" />
  <path d="M460.5 139.8 L460.5 150.4 L469.2 150.4 L478.0 150.4 L486.8 150.4 L495.6 150.4 L504.4 150.4 L513.2 150.4 L522.0 150.4 L530.8 150.4 L539.5 150.4 L539.5 139.8 L539.5 129.1 L530.8 129.1 L522.0 129.1 L522.0 118.5 L513.2 118.5 L504.4 118.5 L495.6 118.5 L486.8 118.5 L478.0 118.5 L469.2 118.5 L460.5 118.5 L460.5 129.1 L460.5 139.8 Z" fill="#2f8f83" fill-opacity="0.34" stroke="#0e5b52" stroke-width="1.6" />
  <path d="M469.2 171.7 L469.2 182.3 L478.0 182.3 L486.8 182.3 L495.6 182.3 L504.4 182.3 L513.2 182.3 L522.0 182.3 L530.8 182.3 L539.5 182.3 L539.5 171.7 L539.5 161.0 L539.5 150.4 L530.8 150.4 L522.0 150.4 L513.2 150.4 L504.4 150.4 L495.6 150.4 L486.8 150.4 L478.0 150.4 L469.2 150.4 L469.2 161.0 L469.2 171.7 Z" fill="#2f8f83" fill-opacity="0.34" stroke="#0e5b52" stroke-width="1.6" />
  <path d="M469.2 203.5 L469.2 214.2 L478.0 214.2 L486.8 214.2 L495.6 214.2 L504.4 214.2 L513.2 214.2 L522.0 214.2 L530.8 214.2 L539.5 214.2 L539.5 203.5 L539.5 192.9 L539.5 182.3 L530.8 182.3 L522.0 182.3 L513.2 182.3 L504.4 182.3 L495.6 182.3 L486.8 182.3 L478.0 182.3 L469.2 182.3 L469.2 192.9 L469.2 203.5 Z" fill="#2f8f83" fill-opacity="0.34" stroke="#0e5b52" stroke-width="1.6" />
  <path d="M469.2 235.4 L469.2 246.0 L478.0 246.0 L486.8 246.0 L495.6 246.0 L504.4 246.0 L513.2 246.0 L522.0 246.0 L530.8 246.0 L539.5 246.0 L539.5 235.4 L539.5 224.8 L539.5 214.2 L530.8 214.2 L522.0 214.2 L513.2 214.2 L504.4 214.2 L504.4 224.8 L504.4 235.4 L495.6 235.4 L486.8 235.4 L486.8 224.8 L495.6 224.8 L495.6 214.2 L486.8 214.2 L478.0 214.2 L469.2 214.2 L469.2 224.8 L469.2 235.4 Z" fill="#2f8f83" fill-opacity="0.34" stroke="#0e5b52" stroke-width="1.6" />
  <path d="M469.2 256.6 L469.2 267.3 L478.0 267.3 L486.8 267.3 L495.6 267.3 L504.4 267.3 L513.2 267.3 L513.2 277.9 L513.2 288.5 L513.2 299.1 L522.0 299.1 L530.8 299.1 L530.8 288.5 L530.8 277.9 L530.8 267.3 L530.8 256.6 L530.8 246.0 L522.0 246.0 L513.2 246.0 L504.4 246.0 L495.6 246.0 L486.8 246.0 L478.0 246.0 L469.2 246.0 L469.2 256.6 Z" fill="#2f8f83" fill-opacity="0.34" stroke="#0e5b52" stroke-width="1.6" />
  <path d="M451.7 161.0 L460.5 161.0 L460.5 171.7 L460.5 182.3 L460.5 192.9 L460.5 203.5 L460.5 214.2 L469.2 214.2 L469.2 203.5 L469.2 192.9 L469.2 182.3 L469.2 171.7 L469.2 161.0 L469.2 150.4 L460.5 150.4 L460.5 139.8 L451.7 139.8 L451.7 150.4 L451.7 161.0 Z" fill="#2f8f83" fill-opacity="0.34" stroke="#0e5b52" stroke-width="1.6" />
  <path d="M372.6 161.0 L372.6 171.7 L381.4 171.7 L390.2 171.7 L399.0 171.7 L407.7 171.7 L416.5 171.7 L425.3 171.7 L434.1 171.7 L442.9 171.7 L451.7 171.7 L460.5 171.7 L460.5 161.0 L451.7 161.0 L451.7 150.4 L451.7 139.8 L442.9 139.8 L442.9 150.4 L434.1 150.4 L425.3 150.4 L416.5 150.4 L407.7 150.4 L407.7 139.8 L399.0 139.8 L390.2 139.8 L381.4 139.8 L381.4 129.1 L372.6 129.1 L372.6 139.8 L372.6 150.4 L372.6 161.0 Z" fill="#2f8f83" fill-opacity="0.34" stroke="#0e5b52" stroke-width="1.6" />
  <path d="M381.4 182.3 L381.4 192.9 L390.2 192.9 L399.0 192.9 L407.7 192.9 L407.7 203.5 L416.5 203.5 L425.3 203.5 L434.1 203.5 L442.9 203.5 L451.7 203.5 L460.5 203.5 L460.5 192.9 L460.5 182.3 L451.7 182.3 L451.7 171.7 L442.9 171.7 L434.1 171.7 L425.3 171.7 L416.5 171.7 L407.7 171.7 L399.0 171.7 L390.2 171.7 L381.4 171.7 L381.4 182.3 Z" fill="#2f8f83" fill-opacity="0.34" stroke="#0e5b52" stroke-width="1.6" />
  <path d="M381.4 203.5 L381.4 214.2 L390.2 214.2 L399.0 214.2 L407.7 214.2 L416.5 214.2 L425.3 214.2 L425.3 224.8 L425.3 235.4 L434.1 235.4 L442.9 235.4 L451.7 235.4 L451.7 246.0 L460.5 246.0 L469.2 246.0 L469.2 235.4 L469.2 224.8 L469.2 214.2 L460.5 214.2 L460.5 203.5 L451.7 203.5 L442.9 203.5 L434.1 203.5 L425.3 203.5 L416.5 203.5 L407.7 203.5 L407.7 192.9 L399.0 192.9 L390.2 192.9 L381.4 192.9 L381.4 203.5 Z" fill="#2f8f83" fill-opacity="0.34" stroke="#0e5b52" stroke-width="1.6" />
  <path d="M434.1 309.7 L442.9 309.7 L442.9 320.3 L451.7 320.3 L460.5 320.3 L460.5 309.7 L460.5 299.1 L460.5 288.5 L460.5 277.9 L460.5 267.3 L469.2 267.3 L469.2 256.6 L469.2 246.0 L460.5 246.0 L451.7 246.0 L451.7 235.4 L442.9 235.4 L434.1 235.4 L425.3 235.4 L425.3 246.0 L434.1 246.0 L434.1 256.6 L434.1 267.3 L434.1 277.9 L434.1 288.5 L434.1 299.1 L434.1 309.7 Z" fill="#2f8f83" fill-opacity="0.34" stroke="#0e5b52" stroke-width="1.6" />
  <path d="M451.7 330.9 L460.5 330.9 L460.5 320.3 L451.7 320.3 L442.9 320.3 L442.9 330.9 L451.7 330.9 Z" fill="#2f8f83" fill-opacity="0.34" stroke="#0e5b52" stroke-width="1.6" />
  <path d="M460.5 182.3 L460.5 171.7 L451.7 171.7 L451.7 182.3 L460.5 182.3 Z" fill="#2f8f83" fill-opacity="0.34" stroke="#0e5b52" stroke-width="1.6" />
  <path d="M513.2 394.6 L513.2 405.2 L522.0 405.2 L530.8 405.2 L539.5 405.2 L548.3 405.2 L548.3 394.6 L548.3 384.0 L539.5 384.0 L530.8 384.0 L522.0 384.0 L513.2 384.0 L513.2 394.6 Z" fill="#2f8f83" fill-opacity="0.34" stroke="#0e5b52" stroke-width="1.6" />
  <path d="M513.2 362.8 L513.2 373.4 L522.0 373.4 L530.8 373.4 L539.5 373.4 L548.3 373.4 L548.3 362.8 L548.3 352.2 L539.5 352.2 L530.8 352.2 L522.0 352.2 L513.2 352.2 L513.2 362.8 Z" fill="#2f8f83" fill-opacity="0.34" stroke="#0e5b52" stroke-width="1.6" />
  <path d="M522.0 415.8 L530.8 415.8 L539.5 415.8 L548.3 415.8 L548.3 426.4 L548.3 437.0 L557.1 437.0 L557.1 426.4 L557.1 415.8 L557.1 405.2 L557.1 394.6 L557.1 384.0 L565.9 384.0 L574.7 384.0 L583.5 384.0 L592.3 384.0 L592.3 373.4 L583.5 373.4 L574.7 373.4 L565.9 373.4 L557.1 373.4 L557.1 362.8 L557.1 352.2 L548.3 352.2 L548.3 362.8 L548.3 373.4 L539.5 373.4 L530.8 373.4 L522.0 373.4 L513.2 373.4 L513.2 384.0 L522.0 384.0 L530.8 384.0 L539.5 384.0 L548.3 384.0 L548.3 394.6 L548.3 405.2 L539.5 405.2 L530.8 405.2 L522.0 405.2 L513.2 405.2 L513.2 415.8 L522.0 415.8 Z" fill="#2f8f83" fill-opacity="0.34" stroke="#0e5b52" stroke-width="1.6" />
  <path d="M513.2 426.4 L513.2 437.0 L522.0 437.0 L530.8 437.0 L539.5 437.0 L548.3 437.0 L548.3 426.4 L548.3 415.8 L539.5 415.8 L530.8 415.8 L522.0 415.8 L513.2 415.8 L513.2 426.4 Z" fill="#2f8f83" fill-opacity="0.34" stroke="#0e5b52" stroke-width="1.6" />
  <path d="M565.9 373.4 L574.7 373.4 L583.5 373.4 L583.5 362.8 L574.7 362.8 L565.9 362.8 L557.1 362.8 L557.1 373.4 L565.9 373.4 Z" fill="#2f8f83" fill-opacity="0.34" stroke="#0e5b52" stroke-width="1.6" />
  <path d="M557.1 394.6 L557.1 405.2 L565.9 405.2 L574.7 405.2 L583.5 405.2 L583.5 394.6 L583.5 384.0 L574.7 384.0 L565.9 384.0 L557.1 384.0 L557.1 394.6 Z" fill="#2f8f83" fill-opacity="0.34" stroke="#0e5b52" stroke-width="1.6" />
  <path d="M434.1 320.3 L434.1 330.9 L442.9 330.9 L442.9 320.3 L442.9 309.7 L434.1 309.7 L434.1 320.3 Z" fill="#2f8f83" fill-opacity="0.34" stroke="#0e5b52" stroke-width="1.6" />
  <path d="M530.8 330.9 L530.8 341.5 L539.5 341.5 L539.5 330.9 L539.5 320.3 L530.8 320.3 L530.8 330.9 Z" fill="#2f8f83" fill-opacity="0.34" stroke="#0e5b52" stroke-width="1.6" />
  <path d="M539.5 320.3 L539.5 309.7 L530.8 309.7 L530.8 320.3 L539.5 320.3 Z" fill="#2f8f83" fill-opacity="0.34" stroke="#0e5b52" stroke-width="1.6" />
  <path d="M513.2 341.5 L513.2 352.2 L522.0 352.2 L530.8 352.2 L539.5 352.2 L548.3 352.2 L557.1 352.2 L557.1 362.8 L565.9 362.8 L574.7 362.8 L583.5 362.8 L583.5 373.4 L592.3 373.4 L592.3 362.8 L601.0 362.8 L609.8 362.8 L618.6 362.8 L627.4 362.8 L627.4 352.2 L627.4 341.5 L627.4 330.9 L618.6 330.9 L609.8 330.9 L601.0 330.9 L592.3 330.9 L583.5 330.9 L583.5 320.3 L583.5 309.7 L583.5 299.1 L574.7 299.1 L565.9 299.1 L557.1 299.1 L548.3 299.1 L539.5 299.1 L530.8 299.1 L522.0 299.1 L513.2 299.1 L513.2 309.7 L513.2 320.3 L513.2 330.9 L513.2 341.5 Z M530.8 309.7 L539.5 309.7 L539.5 320.3 L539.5 330.9 L539.5 341.5 L530.8 341.5 L530.8 330.9 L530.8 320.3 L530.8 309.7 Z" fill="#2f8f83" fill-opacity="0.34" stroke="#0e5b52" stroke-width="1.6" />
  <path d="M495.6 235.4 L504.4 235.4 L504.4 224.8 L504.4 214.2 L495.6 214.2 L495.6 224.8 L486.8 224.8 L486.8 235.4 L495.6 235.4 Z" fill="#2f8f83" fill-opacity="0.34" stroke="#0e5b52" stroke-width="1.6" />
  <path d="M425.3 458.2 L425.3 468.8 L434.1 468.8 L442.9 468.8 L451.7 468.8 L460.5 468.8 L469.2 468.8 L478.0 468.8 L486.8 468.8 L495.6 468.8 L504.4 468.8 L513.2 468.8 L513.2 458.2 L513.2 447.6 L504.4 447.6 L495.6 447.6 L486.8 447.6 L478.0 447.6 L469.2 447.6 L460.5 447.6 L460.5 437.0 L460.5 426.4 L460.5 415.8 L460.5 405.2 L460.5 394.6 L460.5 384.0 L460.5 373.4 L460.5 362.8 L460.5 352.2 L460.5 341.5 L451.7 341.5 L442.9 341.5 L434.1 341.5 L425.3 341.5 L425.3 352.2 L425.3 362.8 L425.3 373.4 L425.3 384.0 L425.3 394.6 L425.3 405.2 L425.3 415.8 L425.3 426.4 L425.3 437.0 L425.3 447.6 L425.3 458.2 Z" fill="#2f8f83" fill-opacity="0.34" stroke="#0e5b52" stroke-width="1.6" />
  <path d="M513.2 458.2 L513.2 468.8 L522.0 468.8 L530.8 468.8 L539.5 468.8 L548.3 468.8 L557.1 468.8 L565.9 468.8 L565.9 458.2 L574.7 458.2 L583.5 458.2 L592.3 458.2 L592.3 447.6 L592.3 437.0 L592.3 426.4 L592.3 415.8 L592.3 405.2 L592.3 394.6 L592.3 384.0 L583.5 384.0 L583.5 394.6 L583.5 405.2 L574.7 405.2 L565.9 405.2 L557.1 405.2 L557.1 415.8 L557.1 426.4 L557.1 437.0 L548.3 437.0 L539.5 437.0 L530.8 437.0 L522.0 437.0 L513.2 437.0 L513.2 447.6 L513.2 458.2 Z" fill="#2f8f83" fill-opacity="0.34" stroke="#0e5b52" stroke-width="1.6" />
  <path d="M495.6 511.1 L495.6 521.7 L504.4 521.7 L513.2 521.7 L513.2 511.1 L522.0 511.1 L530.8 511.1 L539.5 511.1 L539.5 500.5 L548.3 500.5 L548.3 490.0 L548.3 479.4 L557.1 479.4 L557.1 468.8 L548.3 468.8 L539.5 468.8 L530.8 468.8 L522.0 468.8 L513.2 468.8 L504.4 468.8 L504.4 479.4 L495.6 479.4 L495.6 490.0 L495.6 500.5 L495.6 511.1 Z" fill="#2f8f83" fill-opacity="0.34" stroke="#0e5b52" stroke-width="1.6" />
  <path d="M548.3 490.0 L548.3 500.5 L557.1 500.5 L565.9 500.5 L565.9 490.0 L565.9 479.4 L565.9 468.8 L557.1 468.8 L557.1 479.4 L548.3 479.4 L548.3 490.0 Z" fill="#2f8f83" fill-opacity="0.34" stroke="#0e5b52" stroke-width="1.6" />
  <!-- title strip -->
  <rect x="0" y="0" width="1000" height="54" fill="#173042" />
  <text x="20" y="34" font-size="21" font-weight="bold" fill="#ffffff">Metallis Resources Inc. — Mineral Claims</text>
  <text x="980" y="34" font-size="15" fill="#cfe3df" text-anchor="end">MTS</text>
  <!-- scale bar -->
  <g transform="translate(845.6187569915883, 596)">
    <rect x="0" y="0" width="57.19062150420585" height="8" fill="#173042" />
    <rect x="57.19062150420585" y="0" width="57.19062150420585" height="8" fill="#ffffff" stroke="#173042" stroke-width="1" />
    <text x="57.19062150420585" y="-6" font-size="12" fill="#173042" text-anchor="middle">5 km</text>
  </g>
  <!-- north arrow -->
  <g transform="translate(956, 92)">
    <circle r="17" fill="#ffffff" stroke="#b9b09a" />
    <path d="M0 -10 L5 7 L0 3 L-5 7 Z" fill="#173042" />
    <text y="14" font-size="9" font-weight="bold" fill="#173042" text-anchor="middle">N</text>
  </g>
  <!-- watermark -->
  <text x="20" y="620" font-size="13" fill="#7d8b8a">Map by Exploration Maps — explorationmaps.com</text>
</svg>