<svg xmlns="http://www.w3.org/2000/svg" viewBox="0 0 1000 640" font-family="Arial, Helvetica, sans-serif">
  <rect width="1000" height="640" fill="#f3efe6" />
  <line x1="200" y1="0" x2="200" y2="640" stroke="#d9d2c0" stroke-width="0.7" />
  <line x1="0" y1="128" x2="1000" y2="128" stroke="#d9d2c0" stroke-width="0.7" />
  <line x1="400" y1="0" x2="400" y2="640" stroke="#d9d2c0" stroke-width="0.7" />
  <line x1="0" y1="256" x2="1000" y2="256" stroke="#d9d2c0" stroke-width="0.7" />
  <line x1="600" y1="0" x2="600" y2="640" stroke="#d9d2c0" stroke-width="0.7" />
  <line x1="0" y1="384" x2="1000" y2="384" stroke="#d9d2c0" stroke-width="0.7" />
  <line x1="800" y1="0" x2="800" y2="640" stroke="#d9d2c0" stroke-width="0.7" />
  <line x1="0" y1="512" x2="1000" y2="512" stroke="#d9d2c0" stroke-width="0.7" />
  <path d="M520.4 151.1 L520.3 149.8 L519.5 149.8 L518.4 149.9 L518.2 149.9 L517.7 150.0 L516.5 150.2 L516.7 151.4 L516.8 151.9 L517.7 151.8 L520.5 151.4 L520.5 151.4 L520.4 151.1 Z" fill="#2f8f83" fill-opacity="0.34" stroke="#0e5b52" stroke-width="1.6" />
  <path d="M519.5 144.8 L520.5 144.7 L520.3 142.8 L518.4 143.0 L517.7 143.1 L517.3 143.2 L516.6 143.7 L516.7 145.1 L516.7 145.1 L518.6 144.9 L518.4 145.4 L516.8 145.2 L516.6 147.1 L517.7 147.2 L517.5 147.9 L516.5 147.9 L516.5 149.6 L516.5 149.8 L517.7 149.8 L518.2 149.8 L518.4 149.8 L519.5 149.8 L520.3 149.8 L520.4 151.1 L520.7 150.4 L520.8 150.4 L523.1 151.4 L523.0 151.4 L520.8 150.3 L520.8 150.3 L521.6 148.6 L521.9 148.0 L522.4 146.9 L521.9 146.7 L522.2 145.9 L519.5 144.8 Z" fill="#2f8f83" fill-opacity="0.34" stroke="#0e5b52" stroke-width="1.6" />
  <path d="M516.5 147.9 L517.5 147.9 L517.7 147.2 L516.6 147.1 L516.5 147.9 Z" fill="#2f8f83" fill-opacity="0.34" stroke="#0e5b52" stroke-width="1.6" />
  <path d="M516.7 145.1 L516.0 144.2 L514.8 145.7 L516.6 147.1 L516.8 145.2 L516.7 145.1 L516.7 145.1 Z" fill="#2f8f83" fill-opacity="0.34" stroke="#0e5b52" stroke-width="1.6" />
  <path d="M514.8 145.7 L513.7 144.8 L514.5 145.9 L513.6 146.6 L513.7 146.6 L515.3 147.6 L516.5 147.9 L516.6 147.1 L514.8 145.7 Z" fill="#2f8f83" fill-opacity="0.34" stroke="#0e5b52" stroke-width="1.6" />
  <path d="M516.5 147.9 L515.3 147.6 L514.5 148.8 L515.6 149.2 L516.5 149.6 L516.5 147.9 Z" fill="#2f8f83" fill-opacity="0.34" stroke="#0e5b52" stroke-width="1.6" />
  <path d="M478.1 507.1 L478.1 507.0 L477.8 506.5 L477.6 506.2 L476.6 506.1 L476.6 506.3 L476.5 507.7 L476.5 507.7 L476.9 508.0 L476.9 508.0 L478.0 508.1 L478.0 508.0 L478.0 508.0 L478.1 507.1 Z" fill="#2f8f83" fill-opacity="0.34" stroke="#0e5b52" stroke-width="1.6" />
  <path d="M481.5 512.0 L480.7 512.0 L478.8 512.0 L477.5 512.0 L477.3 512.1 L477.2 512.0 L477.2 512.0 L477.0 512.0 L477.0 512.0 L476.8 512.0 L476.8 514.0 L482.8 514.0 L482.8 512.7 L482.5 512.7 L481.5 512.7 L481.5 512.0 Z" fill="#2f8f83" fill-opacity="0.34" stroke="#0e5b52" stroke-width="1.6" />
  <path d="M483.7 503.7 L475.6 503.7 L475.6 507.7 L476.5 507.7 L476.5 507.7 L476.4 507.7 L476.1 506.6 L476.5 506.4 L476.6 506.3 L476.6 506.1 L477.6 506.2 L477.8 506.5 L478.1 507.0 L478.1 507.1 L478.5 507.1 L478.8 507.1 L478.9 507.1 L478.9 506.4 L480.4 506.4 L480.5 507.3 L480.5 507.6 L481.6 507.7 L481.6 507.7 L482.5 507.7 L483.0 507.7 L483.7 507.7 L483.7 507.0 L483.7 503.7 Z" fill="#2f8f83" fill-opacity="0.34" stroke="#0e5b52" stroke-width="1.6" />
  <path d="M473.5 510.4 L473.7 508.8 L473.7 508.6 L473.7 508.6 L473.7 508.6 L473.7 508.6 L473.1 508.5 L473.1 508.5 L473.1 508.5 L473.1 508.6 L473.1 508.9 L473.0 508.9 L473.0 508.9 L473.0 508.9 L472.7 510.3 L473.5 510.4 L473.5 510.4 Z" fill="#2f8f83" fill-opacity="0.34" stroke="#0e5b52" stroke-width="1.6" />
  <path d="M471.9 508.8 L471.7 508.8 L471.5 510.2 L471.6 510.2 L471.9 508.8 Z" fill="#2f8f83" fill-opacity="0.34" stroke="#0e5b52" stroke-width="1.6" />
  <path d="M471.8 508.6 L471.9 508.6 L471.7 508.3 L471.7 508.3 L471.7 508.7 L471.8 508.6 Z" fill="#2f8f83" fill-opacity="0.34" stroke="#0e5b52" stroke-width="1.6" />
  <path d="M473.5 510.4 L472.7 510.3 L472.6 510.7 L472.1 510.6 L471.8 512.1 L473.8 512.5 L474.0 511.3 L473.9 511.3 L474.1 510.6 L474.1 510.6 L474.1 510.5 L473.8 510.4 L473.5 510.4 L473.5 510.4 L473.5 510.4 Z" fill="#2f8f83" fill-opacity="0.34" stroke="#0e5b52" stroke-width="1.6" />
  <path d="M480.7 499.5 L478.8 499.5 L478.8 501.4 L480.7 501.4 L480.7 499.5 Z" fill="#2f8f83" fill-opacity="0.34" stroke="#0e5b52" stroke-width="1.6" />
  <path d="M489.9 501.4 L489.9 503.2 L489.9 505.1 L489.9 507.0 L491.7 507.0 L491.7 505.1 L491.7 503.2 L491.7 501.4 L493.6 501.4 L493.6 499.5 L491.7 499.5 L489.9 499.5 L489.9 501.4 Z" fill="#2f8f83" fill-opacity="0.34" stroke="#0e5b52" stroke-width="1.6" />
  <path d="M502.8 161.1 L500.9 161.1 L500.9 163.0 L502.8 163.0 L504.6 163.0 L506.4 163.0 L506.4 161.1 L508.3 161.1 L510.1 161.1 L512.0 161.1 L513.8 161.1 L515.6 161.1 L517.5 161.1 L519.3 161.1 L521.2 161.1 L523.0 161.1 L524.8 161.1 L524.8 159.2 L524.8 157.2 L523.0 157.2 L521.2 157.2 L519.3 157.2 L517.5 157.2 L515.6 157.2 L513.8 157.2 L512.0 157.2 L510.1 157.2 L508.3 157.2 L506.4 157.2 L504.6 157.2 L504.6 159.2 L504.6 161.1 L502.8 161.1 Z" fill="#2f8f83" fill-opacity="0.34" stroke="#0e5b52" stroke-width="1.6" />
  <path d="M521.2 138.1 L521.2 140.0 L523.0 140.0 L524.8 140.0 L524.8 141.9 L526.7 141.9 L528.5 141.9 L528.5 143.8 L530.4 143.8 L530.4 145.7 L532.2 145.7 L534.0 145.7 L534.0 143.8 L534.0 141.9 L534.0 140.0 L534.0 138.1 L534.0 136.2 L532.2 136.2 L530.4 136.2 L528.5 136.2 L526.7 136.2 L524.8 136.2 L523.0 136.2 L521.2 136.2 L521.2 138.1 Z" fill="#2f8f83" fill-opacity="0.34" stroke="#0e5b52" stroke-width="1.6" />
  <path d="M504.6 138.1 L504.6 140.0 L504.6 141.9 L504.6 143.8 L506.4 143.8 L506.4 141.9 L508.3 141.9 L508.3 140.0 L510.1 140.0 L512.0 140.0 L513.8 140.0 L515.6 140.0 L517.5 140.0 L519.3 140.0 L521.2 140.0 L521.2 138.1 L521.2 136.2 L519.3 136.2 L517.5 136.2 L515.6 136.2 L513.8 136.2 L512.0 136.2 L510.1 136.2 L508.3 136.2 L506.4 136.2 L504.6 136.2 L504.6 138.1 Z" fill="#2f8f83" fill-opacity="0.34" stroke="#0e5b52" stroke-width="1.6" />
  <path d="M471.5 508.9 L469.6 508.9 L469.6 510.8 L471.5 510.8 L471.5 508.9 Z" fill="#2f8f83" fill-opacity="0.34" stroke="#0e5b52" stroke-width="1.6" />
  <path d="M466.0 510.8 L466.0 512.7 L467.8 512.7 L469.6 512.7 L469.6 510.8 L469.6 508.9 L467.8 508.9 L466.0 508.9 L466.0 510.8 Z" fill="#2f8f83" fill-opacity="0.34" stroke="#0e5b52" stroke-width="1.6" />
  <path d="M526.7 159.2 L524.8 159.2 L524.8 161.1 L526.7 161.1 L528.5 161.1 L530.4 161.1 L532.2 161.1 L534.0 161.1 L534.0 159.2 L532.2 159.2 L530.4 159.2 L528.5 159.2 L526.7 159.2 Z" fill="#2f8f83" fill-opacity="0.34" stroke="#0e5b52" stroke-width="1.6" />
  <path d="M497.2 159.2 L497.2 161.1 L497.2 163.0 L497.2 164.9 L499.1 164.9 L500.9 164.9 L500.9 163.0 L500.9 161.1 L499.1 161.1 L499.1 159.2 L499.1 157.2 L497.2 157.2 L497.2 159.2 Z" fill="#2f8f83" fill-opacity="0.34" stroke="#0e5b52" stroke-width="1.6" />
  <path d="M499.1 164.9 L497.2 164.9 L497.2 166.8 L499.1 166.8 L500.9 166.8 L502.8 166.8 L504.6 166.8 L504.6 164.9 L506.4 164.9 L508.3 164.9 L510.1 164.9 L512.0 164.9 L513.8 164.9 L515.6 164.9 L517.5 164.9 L519.3 164.9 L519.3 163.0 L521.2 163.0 L521.2 161.1 L519.3 161.1 L517.5 161.1 L515.6 161.1 L513.8 161.1 L512.0 161.1 L510.1 161.1 L508.3 161.1 L506.4 161.1 L506.4 163.0 L504.6 163.0 L502.8 163.0 L500.9 163.0 L500.9 164.9 L499.1 164.9 Z" fill="#2f8f83" fill-opacity="0.34" stroke="#0e5b52" stroke-width="1.6" />
  <path d="M524.8 134.2 L523.0 134.2 L523.0 136.2 L524.8 136.2 L526.7 136.2 L528.5 136.2 L530.4 136.2 L532.2 136.2 L534.0 136.2 L534.0 134.2 L532.2 134.2 L530.4 134.2 L528.5 134.2 L526.7 134.2 L524.8 134.2 Z" fill="#2f8f83" fill-opacity="0.34" stroke="#0e5b52" stroke-width="1.6" />
  <path d="M497.2 147.7 L495.4 147.7 L495.4 149.6 L497.2 149.6 L499.1 149.6 L500.9 149.6 L502.8 149.6 L502.8 147.7 L500.9 147.7 L499.1 147.7 L497.2 147.7 Z" fill="#2f8f83" fill-opacity="0.34" stroke="#0e5b52" stroke-width="1.6" />
  <path d="M499.1 145.7 L497.2 145.7 L497.2 147.7 L499.1 147.7 L500.9 147.7 L502.8 147.7 L502.8 145.7 L500.9 145.7 L499.1 145.7 Z" fill="#2f8f83" fill-opacity="0.34" stroke="#0e5b52" stroke-width="1.6" />
  <path d="M482.5 499.5 L480.7 499.5 L480.7 501.4 L482.5 501.4 L484.4 501.4 L484.4 503.2 L486.2 503.2 L488.0 503.2 L489.9 503.2 L489.9 501.4 L489.9 499.5 L488.0 499.5 L486.2 499.5 L484.4 499.5 L482.5 499.5 Z" fill="#2f8f83" fill-opacity="0.34" stroke="#0e5b52" stroke-width="1.6" />
  <path d="M475.2 503.2 L475.2 505.1 L477.0 505.1 L478.8 505.1 L480.7 505.1 L482.5 505.1 L484.4 505.1 L484.4 503.2 L484.4 501.4 L482.5 501.4 L480.7 501.4 L478.8 501.4 L477.0 501.4 L475.2 501.4 L475.2 503.2 Z" fill="#2f8f83" fill-opacity="0.34" stroke="#0e5b52" stroke-width="1.6" />
  <path d="M497.2 138.1 L497.2 140.0 L497.2 141.9 L497.2 143.8 L497.2 145.7 L499.1 145.7 L500.9 145.7 L502.8 145.7 L502.8 143.8 L502.8 141.9 L504.6 141.9 L504.6 140.0 L504.6 138.1 L504.6 136.2 L502.8 136.2 L500.9 136.2 L499.1 136.2 L497.2 136.2 L497.2 138.1 Z" fill="#2f8f83" fill-opacity="0.34" stroke="#0e5b52" stroke-width="1.6" />
  <path d="M502.8 143.8 L502.8 145.7 L502.8 147.7 L502.8 149.6 L502.8 151.5 L502.8 153.4 L502.8 155.3 L502.8 157.2 L504.6 157.2 L506.4 157.2 L508.3 157.2 L510.1 157.2 L512.0 157.2 L513.8 157.2 L515.6 157.2 L517.5 157.2 L519.3 157.2 L521.2 157.2 L523.0 157.2 L524.8 157.2 L524.8 159.2 L526.7 159.2 L528.5 159.2 L528.5 157.2 L528.5 155.3 L528.5 153.4 L528.5 151.5 L528.5 149.6 L528.5 147.7 L526.7 147.7 L524.8 147.7 L523.0 147.7 L521.2 147.7 L521.2 149.6 L519.3 149.6 L517.5 149.6 L517.5 147.7 L515.6 147.7 L513.8 147.7 L512.0 147.7 L510.1 147.7 L508.3 147.7 L508.3 145.7 L508.3 143.8 L506.4 143.8 L504.6 143.8 L504.6 141.9 L502.8 141.9 L502.8 143.8 Z" fill="#2f8f83" fill-opacity="0.34" stroke="#0e5b52" stroke-width="1.6" />
  <path d="M508.3 141.9 L506.4 141.9 L506.4 143.8 L508.3 143.8 L508.3 145.7 L508.3 147.7 L510.1 147.7 L512.0 147.7 L513.8 147.7 L515.6 147.7 L515.6 145.7 L517.5 145.7 L517.5 143.8 L519.3 143.8 L519.3 145.7 L521.2 145.7 L521.2 147.7 L523.0 147.7 L524.8 147.7 L526.7 147.7 L528.5 147.7 L528.5 149.6 L528.5 151.5 L528.5 153.4 L528.5 155.3 L528.5 157.2 L528.5 159.2 L530.4 159.2 L532.2 159.2 L534.0 159.2 L534.0 157.2 L534.0 155.3 L535.9 155.3 L535.9 153.4 L535.9 151.5 L535.9 149.6 L535.9 147.7 L534.0 147.7 L534.0 145.7 L532.2 145.7 L530.4 145.7 L530.4 143.8 L528.5 143.8 L528.5 141.9 L526.7 141.9 L524.8 141.9 L524.8 140.0 L523.0 140.0 L521.2 140.0 L519.3 140.0 L517.5 140.0 L515.6 140.0 L513.8 140.0 L512.0 140.0 L510.1 140.0 L508.3 140.0 L508.3 141.9 Z" fill="#2f8f83" fill-opacity="0.34" stroke="#0e5b52" stroke-width="1.6" />
  <path d="M519.3 143.8 L517.5 143.8 L517.5 145.7 L519.3 145.7 L519.3 143.8 Z" fill="#2f8f83" fill-opacity="0.34" stroke="#0e5b52" stroke-width="1.6" />
  <path d="M488.0 130.4 L488.0 132.3 L489.9 132.3 L491.7 132.3 L493.6 132.3 L495.4 132.3 L497.2 132.3 L499.1 132.3 L500.9 132.3 L502.8 132.3 L504.6 132.3 L506.4 132.3 L506.4 130.4 L506.4 128.5 L504.6 128.5 L502.8 128.5 L500.9 128.5 L499.1 128.5 L497.2 128.5 L495.4 128.5 L493.6 128.5 L491.7 128.5 L489.9 128.5 L488.0 128.5 L488.0 130.4 Z" fill="#2f8f83" fill-opacity="0.34" stroke="#0e5b52" stroke-width="1.6" />
  <path d="M488.0 134.2 L488.0 136.2 L489.9 136.2 L491.7 136.2 L493.6 136.2 L495.4 136.2 L497.2 136.2 L499.1 136.2 L500.9 136.2 L502.8 136.2 L504.6 136.2 L506.4 136.2 L506.4 134.2 L506.4 132.3 L504.6 132.3 L502.8 132.3 L500.9 132.3 L499.1 132.3 L497.2 132.3 L495.4 132.3 L493.6 132.3 L491.7 132.3 L489.9 132.3 L488.0 132.3 L488.0 134.2 Z" fill="#2f8f83" fill-opacity="0.34" stroke="#0e5b52" stroke-width="1.6" />
  <path d="M488.0 138.1 L488.0 140.0 L488.0 141.9 L488.0 143.8 L489.9 143.8 L491.7 143.8 L493.6 143.8 L495.4 143.8 L497.2 143.8 L497.2 141.9 L497.2 140.0 L497.2 138.1 L497.2 136.2 L495.4 136.2 L493.6 136.2 L491.7 136.2 L489.9 136.2 L488.0 136.2 L488.0 138.1 Z" fill="#2f8f83" fill-opacity="0.34" stroke="#0e5b52" stroke-width="1.6" />
  <path d="M489.9 143.8 L488.0 143.8 L488.0 145.7 L489.9 145.7 L491.7 145.7 L491.7 147.7 L491.7 149.6 L493.6 149.6 L495.4 149.6 L495.4 147.7 L497.2 147.7 L497.2 145.7 L497.2 143.8 L495.4 143.8 L493.6 143.8 L491.7 143.8 L489.9 143.8 Z" fill="#2f8f83" fill-opacity="0.34" stroke="#0e5b52" stroke-width="1.6" />
  <path d="M506.4 130.4 L506.4 132.3 L506.4 134.2 L506.4 136.2 L508.3 136.2 L510.1 136.2 L512.0 136.2 L513.8 136.2 L515.6 136.2 L517.5 136.2 L517.5 134.2 L517.5 132.3 L517.5 130.4 L517.5 128.5 L515.6 128.5 L513.8 128.5 L512.0 128.5 L510.1 128.5 L508.3 128.5 L506.4 128.5 L506.4 130.4 Z" fill="#2f8f83" fill-opacity="0.34" stroke="#0e5b52" stroke-width="1.6" />
  <path d="M517.5 130.4 L517.5 132.3 L517.5 134.2 L517.5 136.2 L519.3 136.2 L521.2 136.2 L523.0 136.2 L523.0 134.2 L524.8 134.2 L526.7 134.2 L528.5 134.2 L530.4 134.2 L530.4 132.3 L530.4 130.4 L530.4 128.5 L528.5 128.5 L526.7 128.5 L524.8 128.5 L523.0 128.5 L521.2 128.5 L519.3 128.5 L517.5 128.5 L517.5 130.4 Z" fill="#2f8f83" fill-opacity="0.34" stroke="#0e5b52" stroke-width="1.6" />
  <path d="M491.7 503.2 L491.7 505.1 L493.6 505.1 L493.6 503.2 L493.6 501.4 L491.7 501.4 L491.7 503.2 Z" fill="#2f8f83" fill-opacity="0.34" stroke="#0e5b52" stroke-width="1.6" />
  <path d="M475.2 507.0 L473.3 507.0 L473.3 508.9 L475.2 508.9 L477.0 508.9 L477.0 507.0 L475.2 507.0 Z" fill="#2f8f83" fill-opacity="0.34" stroke="#0e5b52" stroke-width="1.6" />
  <path d="M473.3 505.1 L473.3 507.0 L475.2 507.0 L477.0 507.0 L477.0 505.1 L475.2 505.1 L475.2 503.2 L473.3 503.2 L473.3 505.1 Z" fill="#2f8f83" fill-opacity="0.34" stroke="#0e5b52" stroke-width="1.6" />
  <path d="M477.0 508.9 L475.2 508.9 L475.2 510.8 L477.0 510.8 L477.0 508.9 Z" fill="#2f8f83" fill-opacity="0.34" stroke="#0e5b52" stroke-width="1.6" />
  <path d="M495.4 151.5 L495.4 153.4 L495.4 155.3 L495.4 157.2 L497.2 157.2 L499.1 157.2 L499.1 159.2 L499.1 161.1 L500.9 161.1 L502.8 161.1 L504.6 161.1 L504.6 159.2 L504.6 157.2 L502.8 157.2 L502.8 159.2 L500.9 159.2 L500.9 157.2 L500.9 155.3 L499.1 155.3 L497.2 155.3 L497.2 153.4 L497.2 151.5 L499.1 151.5 L500.9 151.5 L502.8 151.5 L502.8 149.6 L500.9 149.6 L499.1 149.6 L497.2 149.6 L495.4 149.6 L495.4 151.5 Z" fill="#2f8f83" fill-opacity="0.34" stroke="#0e5b52" stroke-width="1.6" />
  <path d="M471.5 510.8 L469.6 510.8 L469.6 512.7 L471.5 512.7 L473.3 512.7 L473.3 510.8 L471.5 510.8 Z" fill="#2f8f83" fill-opacity="0.34" stroke="#0e5b52" stroke-width="1.6" />
  <path d="M473.3 508.9 L471.5 508.9 L471.5 510.8 L473.3 510.8 L473.3 508.9 Z" fill="#2f8f83" fill-opacity="0.34" stroke="#0e5b52" stroke-width="1.6" />
  <path d="M473.3 507.0 L471.5 507.0 L471.5 508.9 L473.3 508.9 L473.3 507.0 Z" fill="#2f8f83" fill-opacity="0.34" stroke="#0e5b52" stroke-width="1.6" />
  <path d="M478.8 512.7 L477.0 512.7 L477.0 514.6 L478.8 514.6 L480.7 514.6 L482.5 514.6 L482.5 512.7 L480.7 512.7 L478.8 512.7 Z" fill="#2f8f83" fill-opacity="0.34" stroke="#0e5b52" stroke-width="1.6" />
  <path d="M477.0 512.7 L475.2 512.7 L475.2 514.6 L477.0 514.6 L477.0 512.7 Z" fill="#2f8f83" fill-opacity="0.34" stroke="#0e5b52" stroke-width="1.6" />
  <path d="M484.4 512.7 L482.5 512.7 L482.5 514.6 L484.4 514.6 L484.4 512.7 Z" fill="#2f8f83" fill-opacity="0.34" stroke="#0e5b52" stroke-width="1.6" />
  <path d="M488.0 510.8 L486.2 510.8 L486.2 512.7 L488.0 512.7 L489.9 512.7 L489.9 510.8 L489.9 508.9 L488.0 508.9 L488.0 510.8 Z" fill="#2f8f83" fill-opacity="0.34" stroke="#0e5b52" stroke-width="1.6" />
  <path d="M488.0 508.9 L486.2 508.9 L486.2 510.8 L488.0 510.8 L488.0 508.9 Z" fill="#2f8f83" fill-opacity="0.34" stroke="#0e5b52" stroke-width="1.6" />
  <path d="M484.4 505.1 L482.5 505.1 L482.5 507.0 L484.4 507.0 L486.2 507.0 L486.2 508.9 L488.0 508.9 L489.9 508.9 L489.9 507.0 L489.9 505.1 L489.9 503.2 L488.0 503.2 L486.2 503.2 L484.4 503.2 L484.4 505.1 Z" fill="#2f8f83" fill-opacity="0.34" stroke="#0e5b52" stroke-width="1.6" />
  <path d="M475.2 508.9 L473.3 508.9 L473.3 510.8 L475.2 510.8 L475.2 508.9 Z" fill="#2f8f83" fill-opacity="0.34" stroke="#0e5b52" stroke-width="1.6" />
  <path d="M473.3 520.2 L473.3 522.1 L475.2 522.1 L477.0 522.1 L477.0 520.2 L478.8 520.2 L478.8 518.3 L480.7 518.3 L480.7 516.4 L482.5 516.4 L482.5 514.6 L480.7 514.6 L478.8 514.6 L477.0 514.6 L477.0 516.4 L475.2 516.4 L475.2 518.3 L473.3 518.3 L473.3 520.2 Z" fill="#2f8f83" fill-opacity="0.34" stroke="#0e5b52" stroke-width="1.6" />
  <path d="M475.2 510.8 L473.3 510.8 L473.3 512.7 L475.2 512.7 L477.0 512.7 L477.0 510.8 L475.2 510.8 Z" fill="#2f8f83" fill-opacity="0.34" stroke="#0e5b52" stroke-width="1.6" />
  <path d="M480.7 497.6 L478.8 497.6 L478.8 499.5 L480.7 499.5 L482.5 499.5 L484.4 499.5 L486.2 499.5 L488.0 499.5 L489.9 499.5 L489.9 497.6 L488.0 497.6 L486.2 497.6 L484.4 497.6 L482.5 497.6 L480.7 497.6 Z" fill="#2f8f83" fill-opacity="0.34" stroke="#0e5b52" stroke-width="1.6" />
  <path d="M473.3 514.6 L473.3 516.4 L473.3 518.3 L475.2 518.3 L475.2 516.4 L477.0 516.4 L477.0 514.6 L475.2 514.6 L475.2 512.7 L473.3 512.7 L473.3 514.6 Z" fill="#2f8f83" fill-opacity="0.34" stroke="#0e5b52" stroke-width="1.6" />
  <path d="M475.2 499.5 L475.2 501.4 L477.0 501.4 L478.8 501.4 L478.8 499.5 L478.8 497.6 L477.0 497.6 L475.2 497.6 L475.2 499.5 Z" fill="#2f8f83" fill-opacity="0.34" stroke="#0e5b52" stroke-width="1.6" />
  <path d="M481.6 507.7 L480.5 507.6 L480.5 507.3 L480.4 506.4 L478.9 506.4 L478.9 507.1 L478.8 507.1 L478.5 507.1 L478.1 507.1 L478.0 508.0 L478.0 508.0 L478.0 508.1 L476.9 508.0 L476.9 508.0 L476.9 508.0 L476.5 509.5 L474.7 509.0 L474.9 508.1 L474.9 508.1 L474.9 507.9 L473.7 508.6 L473.7 508.6 L473.7 508.6 L473.7 508.8 L473.5 510.4 L473.5 510.4 L473.8 510.4 L474.1 510.4 L474.1 510.5 L474.1 510.6 L474.1 510.6 L473.9 511.3 L474.0 511.3 L475.0 511.5 L475.2 511.5 L477.0 511.7 L477.0 512.0 L477.0 512.0 L477.2 512.0 L477.2 512.0 L477.3 512.1 L477.5 512.0 L478.8 512.0 L480.7 512.0 L481.5 512.0 L481.5 512.7 L482.5 512.7 L482.8 512.7 L484.4 512.7 L486.2 512.7 L486.2 510.8 L486.2 508.9 L486.2 507.0 L484.4 507.0 L483.7 507.0 L483.7 507.7 L483.0 507.7 L482.5 507.7 L481.6 507.7 L481.6 507.7 Z" fill="#2f8f83" fill-opacity="0.34" stroke="#0e5b52" stroke-width="1.6" />
  <path d="M464.1 120.8 L464.1 122.7 L466.0 122.7 L467.8 122.7 L469.6 122.7 L471.5 122.7 L473.3 122.7 L473.3 124.6 L473.3 126.6 L473.3 128.5 L473.3 130.4 L473.3 132.3 L475.2 132.3 L477.0 132.3 L477.0 134.2 L478.8 134.2 L478.8 132.3 L480.7 132.3 L482.5 132.3 L482.5 134.2 L482.5 136.2 L482.5 138.1 L482.5 140.0 L484.4 140.0 L486.2 140.0 L486.2 141.9 L486.2 143.8 L486.2 145.7 L488.0 145.7 L488.0 143.8 L488.0 141.9 L488.0 140.0 L488.0 138.1 L486.2 138.1 L484.4 138.1 L484.4 136.2 L484.4 134.2 L484.4 132.3 L484.4 130.4 L484.4 128.5 L484.4 126.6 L484.4 124.6 L484.4 122.7 L484.4 120.8 L484.4 118.9 L482.5 118.9 L480.7 118.9 L478.8 118.9 L477.0 118.9 L475.2 118.9 L473.3 118.9 L471.5 118.9 L469.6 118.9 L467.8 118.9 L466.0 118.9 L464.1 118.9 L464.1 120.8 Z" fill="#2f8f83" fill-opacity="0.34" stroke="#0e5b52" stroke-width="1.6" />
  <path d="M493.6 164.9 L493.6 166.8 L493.6 168.7 L493.6 170.6 L495.4 170.7 L497.2 170.6 L499.1 170.7 L500.9 170.6 L502.8 170.7 L504.6 170.6 L506.4 170.7 L508.3 170.6 L510.1 170.7 L512.0 170.6 L513.8 170.7 L515.6 170.6 L517.5 170.7 L519.3 170.6 L519.3 168.7 L519.3 166.8 L519.3 164.9 L517.5 164.9 L515.6 164.9 L513.8 164.9 L512.0 164.9 L510.1 164.9 L508.3 164.9 L506.4 164.9 L504.6 164.9 L504.6 166.8 L502.8 166.8 L500.9 166.8 L499.1 166.8 L497.2 166.8 L497.2 164.9 L497.2 163.0 L495.4 163.0 L493.6 163.0 L493.6 164.9 Z" fill="#2f8f83" fill-opacity="0.34" stroke="#0e5b52" stroke-width="1.6" />
  <!-- title strip -->
  <rect x="0" y="0" width="1000" height="54" fill="#173042" />
  <text x="20" y="34" font-size="21" font-weight="bold" fill="#ffffff">Nicola Mining Inc. — Mineral Claims</text>
  <text x="980" y="34" font-size="15" fill="#cfe3df" text-anchor="end">NIM</text>
  <!-- scale bar -->
  <g transform="translate(754.9858845464532, 596)">
    <rect x="0" y="0" width="102.50705772677337" height="8" fill="#173042" />
    <rect x="102.50705772677337" y="0" width="102.50705772677337" height="8" fill="#ffffff" stroke="#173042" stroke-width="1" />
    <text x="102.50705772677337" y="-6" font-size="12" fill="#173042" text-anchor="middle">50 km</text>
  </g>
  <!-- north arrow -->
  <g transform="translate(956, 92)">
    <circle r="17" fill="#ffffff" stroke="#b9b09a" />
    <path d="M0 -10 L5 7 L0 3 L-5 7 Z" fill="#173042" />
    <text y="14" font-size="9" font-weight="bold" fill="#173042" text-anchor="middle">N</text>
  </g>
  <!-- watermark -->
  <text x="20" y="620" font-size="13" fill="#7d8b8a">Map by Exploration Maps — explorationmaps.com</text>
</svg>