<svg xmlns="http://www.w3.org/2000/svg" viewBox="0 0 1000 640" font-family="Arial, Helvetica, sans-serif">
  <rect width="1000" height="640" fill="#f3efe6" />
  <line x1="200" y1="0" x2="200" y2="640" stroke="#d9d2c0" stroke-width="0.7" />
  <line x1="0" y1="128" x2="1000" y2="128" stroke="#d9d2c0" stroke-width="0.7" />
  <line x1="400" y1="0" x2="400" y2="640" stroke="#d9d2c0" stroke-width="0.7" />
  <line x1="0" y1="256" x2="1000" y2="256" stroke="#d9d2c0" stroke-width="0.7" />
  <line x1="600" y1="0" x2="600" y2="640" stroke="#d9d2c0" stroke-width="0.7" />
  <line x1="0" y1="384" x2="1000" y2="384" stroke="#d9d2c0" stroke-width="0.7" />
  <line x1="800" y1="0" x2="800" y2="640" stroke="#d9d2c0" stroke-width="0.7" />
  <line x1="0" y1="512" x2="1000" y2="512" stroke="#d9d2c0" stroke-width="0.7" />
  <path d="M565.3 387.2 L565.3 252.8 L434.7 252.8 L434.7 387.2 L565.3 387.2 Z" fill="#2f8f83" fill-opacity="0.34" stroke="#0e5b52" stroke-width="1.6" />
  <path d="M696.0 387.2 L696.0 252.8 L565.3 252.8 L565.3 387.2 L696.0 387.2 Z" fill="#2f8f83" fill-opacity="0.34" stroke="#0e5b52" stroke-width="1.6" />
  <path d="M826.7 521.6 L826.7 387.2 L696.0 387.2 L696.0 521.6 L826.7 521.6 Z" fill="#2f8f83" fill-opacity="0.34" stroke="#0e5b52" stroke-width="1.6" />
  <path d="M304.0 252.8 L304.0 118.4 L173.3 118.4 L173.3 252.8 L304.0 252.8 Z" fill="#2f8f83" fill-opacity="0.34" stroke="#0e5b52" stroke-width="1.6" />
  <path d="M696.0 252.8 L696.0 118.4 L565.3 118.4 L565.3 252.8 L696.0 252.8 Z" fill="#2f8f83" fill-opacity="0.34" stroke="#0e5b52" stroke-width="1.6" />
  <path d="M434.7 387.2 L434.7 252.8 L304.0 252.8 L304.0 387.2 L434.7 387.2 Z" fill="#2f8f83" fill-opacity="0.34" stroke="#0e5b52" stroke-width="1.6" />
  <path d="M304.0 521.6 L304.0 387.2 L173.3 387.2 L173.3 521.6 L304.0 521.6 Z" fill="#2f8f83" fill-opacity="0.34" stroke="#0e5b52" stroke-width="1.6" />
  <path d="M565.3 521.6 L565.3 387.2 L434.7 387.2 L434.7 521.6 L565.3 521.6 Z" fill="#2f8f83" fill-opacity="0.34" stroke="#0e5b52" stroke-width="1.6" />
  <path d="M304.0 387.2 L304.0 252.8 L173.3 252.8 L173.3 387.2 L304.0 387.2 Z" fill="#2f8f83" fill-opacity="0.34" stroke="#0e5b52" stroke-width="1.6" />
  <path d="M434.7 252.8 L434.7 118.4 L304.0 118.4 L304.0 252.8 L434.7 252.8 Z" fill="#2f8f83" fill-opacity="0.34" stroke="#0e5b52" stroke-width="1.6" />
  <!-- title strip -->
  <rect x="0" y="0" width="1000" height="54" fill="#173042" />
  <text x="20" y="34" font-size="21" font-weight="bold" fill="#ffffff">Noble Mineral Exploration Inc. — Mineral Claims</text>
  <text x="980" y="34" font-size="15" fill="#cfe3df" text-anchor="end">NOB</text>
  <!-- scale bar -->
  <g transform="translate(815.1111403492329, 596)">
    <rect x="0" y="0" width="72.44442982538358" height="8" fill="#173042" />
    <rect x="72.44442982538358" y="0" width="72.44442982538358" height="8" fill="#ffffff" stroke="#173042" stroke-width="1" />
    <text x="72.44442982538358" y="-6" font-size="12" fill="#173042" text-anchor="middle">0.5 km</text>
  </g>
  <!-- north arrow -->
  <g transform="translate(956, 92)">
    <circle r="17" fill="#ffffff" stroke="#b9b09a" />
    <path d="M0 -10 L5 7 L0 3 L-5 7 Z" fill="#173042" />
    <text y="14" font-size="9" font-weight="bold" fill="#173042" text-anchor="middle">N</text>
  </g>
  <!-- watermark -->
  <text x="20" y="620" font-size="13" fill="#7d8b8a">Map by Exploration Maps — explorationmaps.com</text>
</svg>