<svg xmlns="http://www.w3.org/2000/svg" viewBox="0 0 1000 640" font-family="Arial, Helvetica, sans-serif">
  <rect width="1000" height="640" fill="#f3efe6" />
  <line x1="200" y1="0" x2="200" y2="640" stroke="#d9d2c0" stroke-width="0.7" />
  <line x1="0" y1="128" x2="1000" y2="128" stroke="#d9d2c0" stroke-width="0.7" />
  <line x1="400" y1="0" x2="400" y2="640" stroke="#d9d2c0" stroke-width="0.7" />
  <line x1="0" y1="256" x2="1000" y2="256" stroke="#d9d2c0" stroke-width="0.7" />
  <line x1="600" y1="0" x2="600" y2="640" stroke="#d9d2c0" stroke-width="0.7" />
  <line x1="0" y1="384" x2="1000" y2="384" stroke="#d9d2c0" stroke-width="0.7" />
  <line x1="800" y1="0" x2="800" y2="640" stroke="#d9d2c0" stroke-width="0.7" />
  <line x1="0" y1="512" x2="1000" y2="512" stroke="#d9d2c0" stroke-width="0.7" />
  <path d="M529.7 521.4 L529.7 521.4 L529.2 521.4 L529.2 521.4 L529.2 521.3 L529.1 521.3 L528.8 521.3 L528.8 522.6 L529.2 522.6 L529.5 522.6 L529.7 522.6 L529.7 521.4 Z" fill="#2f8f83" fill-opacity="0.34" stroke="#0e5b52" stroke-width="1.6" />
  <path d="M471.2 133.4 L471.2 133.4 L471.3 133.4 L470.8 132.9 L470.5 133.0 L470.5 133.0 L470.4 133.1 L471.0 133.8 L471.2 133.7 L471.2 133.4 Z" fill="#2f8f83" fill-opacity="0.34" stroke="#0e5b52" stroke-width="1.6" />
  <path d="M470.8 132.9 L471.0 132.8 L470.6 131.9 L470.1 132.1 L470.5 133.0 L470.5 133.0 L470.8 132.9 Z" fill="#2f8f83" fill-opacity="0.34" stroke="#0e5b52" stroke-width="1.6" />
  <path d="M470.6 131.9 L470.2 131.1 L469.7 131.3 L470.1 132.1 L470.6 131.9 Z" fill="#2f8f83" fill-opacity="0.34" stroke="#0e5b52" stroke-width="1.6" />
  <path d="M530.0 519.2 L530.0 519.3 L529.7 519.3 L529.7 519.2 L529.1 519.2 L529.1 521.3 L529.2 521.3 L529.2 521.4 L529.2 521.4 L529.7 521.4 L529.7 521.4 L530.1 521.4 L530.1 521.4 L530.6 521.4 L530.6 521.4 L530.8 521.4 L530.8 519.2 L530.0 519.2 Z" fill="#2f8f83" fill-opacity="0.34" stroke="#0e5b52" stroke-width="1.6" />
  <path d="M530.6 521.4 L530.6 521.7 L530.6 521.7 L530.1 521.7 L530.1 521.4 L529.7 521.4 L529.7 522.6 L529.5 522.6 L529.5 522.8 L530.8 522.8 L530.8 521.4 L530.6 521.4 Z" fill="#2f8f83" fill-opacity="0.34" stroke="#0e5b52" stroke-width="1.6" />
  <path d="M530.6 521.4 L530.6 521.4 L530.1 521.4 L530.1 521.4 L530.1 521.7 L530.6 521.7 L530.6 521.7 L530.6 521.4 Z" fill="#2f8f83" fill-opacity="0.34" stroke="#0e5b52" stroke-width="1.6" />
  <path d="M531.7 521.9 L531.7 521.4 L530.8 521.4 L530.8 522.8 L531.7 522.8 L531.7 521.9 Z" fill="#2f8f83" fill-opacity="0.34" stroke="#0e5b52" stroke-width="1.6" />
  <path d="M532.6 519.9 L532.1 519.9 L532.1 519.6 L531.8 519.6 L531.8 519.2 L530.8 519.2 L530.8 521.4 L531.7 521.4 L532.1 521.4 L532.6 521.4 L532.6 519.9 Z" fill="#2f8f83" fill-opacity="0.34" stroke="#0e5b52" stroke-width="1.6" />
  <path d="M530.4 518.9 L530.4 519.2 L530.4 519.2 L530.8 519.2 L531.8 519.2 L531.8 518.9 L531.4 518.9 L531.4 518.2 L530.4 518.2 L530.4 518.9 L530.4 518.9 Z" fill="#2f8f83" fill-opacity="0.34" stroke="#0e5b52" stroke-width="1.6" />
  <path d="M531.7 521.9 L532.1 521.9 L532.1 521.4 L531.7 521.4 L531.7 521.9 Z" fill="#2f8f83" fill-opacity="0.34" stroke="#0e5b52" stroke-width="1.6" />
  <path d="M530.4 519.2 L530.4 518.9 L530.0 518.9 L530.0 519.2 L530.0 519.2 L530.4 519.2 Z" fill="#2f8f83" fill-opacity="0.34" stroke="#0e5b52" stroke-width="1.6" />
  <path d="M530.4 523.1 L530.4 523.5 L530.4 523.9 L530.8 523.9 L531.2 523.9 L531.6 523.9 L531.6 523.5 L532.0 523.5 L532.4 523.5 L532.8 523.5 L532.8 523.1 L533.2 523.1 L533.2 522.6 L532.8 522.6 L532.8 522.2 L533.2 522.2 L533.2 521.8 L532.8 521.8 L532.4 521.8 L532.4 521.4 L532.0 521.4 L532.0 521.8 L531.6 521.8 L531.6 522.2 L531.6 522.6 L531.2 522.6 L530.8 522.6 L530.4 522.6 L530.4 523.1 Z" fill="#2f8f83" fill-opacity="0.34" stroke="#0e5b52" stroke-width="1.6" />
  <path d="M533.2 522.2 L532.8 522.2 L532.8 522.6 L533.2 522.6 L533.2 522.2 Z" fill="#2f8f83" fill-opacity="0.34" stroke="#0e5b52" stroke-width="1.6" />
  <path d="M471.6 134.1 L471.2 134.1 L471.2 134.5 L471.6 134.5 L471.6 135.0 L472.0 135.0 L472.0 134.5 L472.0 134.1 L471.6 134.1 Z" fill="#2f8f83" fill-opacity="0.34" stroke="#0e5b52" stroke-width="1.6" />
  <path d="M471.2 133.6 L470.8 133.6 L470.8 134.1 L471.2 134.1 L471.2 133.6 Z" fill="#2f8f83" fill-opacity="0.34" stroke="#0e5b52" stroke-width="1.6" />
  <path d="M515.3 143.3 L515.3 143.8 L515.7 143.8 L515.7 143.3 L515.7 142.9 L515.3 142.9 L515.3 143.3 Z" fill="#2f8f83" fill-opacity="0.34" stroke="#0e5b52" stroke-width="1.6" />
  <path d="M514.5 143.3 L514.1 143.3 L514.1 143.8 L514.5 143.8 L514.5 144.2 L514.9 144.2 L514.9 143.8 L515.3 143.8 L515.3 143.3 L515.3 142.9 L514.9 142.9 L514.9 143.3 L514.5 143.3 Z" fill="#2f8f83" fill-opacity="0.34" stroke="#0e5b52" stroke-width="1.6" />
  <path d="M512.9 144.2 L512.9 144.7 L512.5 144.7 L512.5 145.1 L512.9 145.1 L513.3 145.1 L513.7 145.1 L514.1 145.1 L514.1 144.7 L514.5 144.7 L514.5 144.2 L514.5 143.8 L514.1 143.8 L513.7 143.8 L513.3 143.8 L512.9 143.8 L512.9 144.2 Z" fill="#2f8f83" fill-opacity="0.34" stroke="#0e5b52" stroke-width="1.6" />
  <path d="M512.5 143.8 L512.5 144.2 L512.9 144.2 L512.9 143.8 L513.3 143.8 L513.7 143.8 L514.1 143.8 L514.1 143.3 L514.5 143.3 L514.9 143.3 L514.9 142.9 L515.3 142.9 L515.7 142.9 L516.1 142.9 L516.1 142.5 L516.1 142.0 L515.7 142.0 L515.3 142.0 L514.9 142.0 L514.5 142.0 L514.5 141.6 L514.1 141.6 L513.7 141.6 L513.7 142.0 L513.7 142.5 L513.7 142.9 L513.7 143.3 L513.3 143.3 L512.9 143.3 L512.5 143.3 L512.5 143.8 Z" fill="#2f8f83" fill-opacity="0.34" stroke="#0e5b52" stroke-width="1.6" />
  <path d="M515.3 143.8 L514.9 143.8 L514.9 144.2 L515.3 144.2 L515.3 143.8 Z" fill="#2f8f83" fill-opacity="0.34" stroke="#0e5b52" stroke-width="1.6" />
  <path d="M517.7 140.7 L517.3 140.7 L517.3 141.1 L517.7 141.1 L518.1 141.1 L518.1 140.7 L517.7 140.7 Z" fill="#2f8f83" fill-opacity="0.34" stroke="#0e5b52" stroke-width="1.6" />
  <path d="M518.5 140.7 L518.1 140.7 L518.1 141.1 L518.5 141.1 L518.9 141.1 L518.9 140.7 L518.5 140.7 Z" fill="#2f8f83" fill-opacity="0.34" stroke="#0e5b52" stroke-width="1.6" />
  <path d="M518.1 141.1 L517.7 141.1 L517.7 141.6 L518.1 141.6 L518.5 141.6 L518.5 141.1 L518.1 141.1 Z" fill="#2f8f83" fill-opacity="0.34" stroke="#0e5b52" stroke-width="1.6" />
  <path d="M518.9 141.1 L518.5 141.1 L518.5 141.6 L518.9 141.6 L518.9 141.1 Z" fill="#2f8f83" fill-opacity="0.34" stroke="#0e5b52" stroke-width="1.6" />
  <path d="M472.4 135.4 L472.4 135.8 L472.4 136.3 L472.8 136.3 L473.2 136.3 L473.6 136.3 L474.0 136.3 L474.0 135.8 L473.6 135.8 L473.6 135.4 L473.2 135.4 L473.2 135.0 L472.8 135.0 L472.4 135.0 L472.4 135.4 Z" fill="#2f8f83" fill-opacity="0.34" stroke="#0e5b52" stroke-width="1.6" />
  <path d="M471.2 134.1 L470.8 134.1 L470.8 134.5 L471.2 134.5 L471.2 134.1 Z" fill="#2f8f83" fill-opacity="0.34" stroke="#0e5b52" stroke-width="1.6" />
  <path d="M517.3 140.7 L516.9 140.7 L516.9 141.1 L517.3 141.1 L517.3 140.7 Z" fill="#2f8f83" fill-opacity="0.34" stroke="#0e5b52" stroke-width="1.6" />
  <path d="M517.7 141.1 L517.3 141.1 L517.3 141.6 L517.7 141.6 L517.7 141.1 Z" fill="#2f8f83" fill-opacity="0.34" stroke="#0e5b52" stroke-width="1.6" />
  <path d="M516.9 140.7 L516.5 140.7 L516.5 141.1 L516.9 141.1 L516.9 140.7 Z" fill="#2f8f83" fill-opacity="0.34" stroke="#0e5b52" stroke-width="1.6" />
  <path d="M516.9 141.1 L516.5 141.1 L516.5 141.6 L516.9 141.6 L516.9 141.1 Z" fill="#2f8f83" fill-opacity="0.34" stroke="#0e5b52" stroke-width="1.6" />
  <path d="M515.7 143.3 L515.7 143.8 L515.7 144.2 L516.1 144.2 L516.5 144.2 L516.9 144.2 L517.3 144.2 L517.3 143.8 L517.3 143.3 L517.3 142.9 L517.3 142.5 L517.3 142.0 L517.3 141.6 L516.9 141.6 L516.5 141.6 L516.5 142.0 L516.1 142.0 L516.1 142.5 L516.1 142.9 L515.7 142.9 L515.7 143.3 Z" fill="#2f8f83" fill-opacity="0.34" stroke="#0e5b52" stroke-width="1.6" />
  <path d="M518.1 141.1 L517.7 141.1 L517.7 141.6 L518.1 141.6 L518.1 141.1 Z" fill="#2f8f83" fill-opacity="0.34" stroke="#0e5b52" stroke-width="1.6" />
  <path d="M518.9 141.1 L518.9 141.6 L519.3 141.6 L519.7 141.6 L520.1 141.6 L520.5 141.6 L520.9 141.6 L521.3 141.6 L521.7 141.6 L521.7 141.1 L521.7 140.7 L521.3 140.7 L520.9 140.7 L520.5 140.7 L520.1 140.7 L519.7 140.7 L519.3 140.7 L518.9 140.7 L518.9 141.1 Z" fill="#2f8f83" fill-opacity="0.34" stroke="#0e5b52" stroke-width="1.6" />
  <path d="M517.3 142.0 L517.3 142.5 L517.3 142.9 L517.3 143.3 L517.3 143.8 L517.3 144.2 L516.9 144.2 L516.9 144.7 L517.3 144.7 L517.3 145.1 L517.7 145.1 L518.1 145.1 L518.5 145.1 L518.5 144.7 L518.5 144.2 L518.5 143.8 L518.5 143.3 L518.5 142.9 L518.5 142.5 L518.5 142.0 L518.5 141.6 L518.1 141.6 L517.7 141.6 L517.3 141.6 L517.3 142.0 Z" fill="#2f8f83" fill-opacity="0.34" stroke="#0e5b52" stroke-width="1.6" />
  <path d="M518.9 141.6 L518.5 141.6 L518.5 142.0 L518.9 142.0 L519.3 142.0 L519.7 142.0 L520.1 142.0 L520.5 142.0 L520.9 142.0 L521.3 142.0 L521.7 142.0 L521.7 141.6 L521.3 141.6 L520.9 141.6 L520.5 141.6 L520.1 141.6 L519.7 141.6 L519.3 141.6 L518.9 141.6 Z" fill="#2f8f83" fill-opacity="0.34" stroke="#0e5b52" stroke-width="1.6" />
  <path d="M518.5 142.5 L518.5 142.9 L518.5 143.3 L518.9 143.3 L519.3 143.3 L519.3 142.9 L519.3 142.5 L519.3 142.0 L518.9 142.0 L518.5 142.0 L518.5 142.5 Z" fill="#2f8f83" fill-opacity="0.34" stroke="#0e5b52" stroke-width="1.6" />
  <path d="M517.3 141.1 L516.9 141.1 L516.9 141.6 L517.3 141.6 L517.7 141.6 L517.7 141.1 L518.1 141.1 L518.1 141.6 L518.5 141.6 L518.9 141.6 L518.9 141.1 L518.9 140.7 L518.5 140.7 L518.1 140.7 L518.1 140.3 L517.7 140.3 L517.7 140.7 L517.3 140.7 L517.3 141.1 Z" fill="#2f8f83" fill-opacity="0.34" stroke="#0e5b52" stroke-width="1.6" />
  <path d="M514.9 141.6 L514.5 141.6 L514.5 142.0 L514.9 142.0 L515.3 142.0 L515.7 142.0 L516.1 142.0 L516.5 142.0 L516.5 141.6 L516.1 141.6 L515.7 141.6 L515.3 141.6 L514.9 141.6 Z" fill="#2f8f83" fill-opacity="0.34" stroke="#0e5b52" stroke-width="1.6" />
  <path d="M514.9 143.2 L514.9 143.3 L514.8 143.4 L514.9 143.3 L514.9 143.4 L515.0 143.6 L515.1 143.5 L515.1 143.5 L515.2 143.4 L515.3 143.3 L515.3 143.3 L515.3 143.3 L515.4 143.3 L515.5 143.2 L515.5 143.2 L515.5 143.2 L515.5 143.2 L515.4 143.1 L515.3 143.0 L515.4 143.1 L515.6 143.2 L515.6 143.2 L515.6 143.1 L515.5 143.0 L515.5 143.0 L515.7 143.1 L515.7 143.0 L515.7 143.0 L515.8 142.8 L516.0 142.7 L516.0 142.6 L515.8 142.5 L515.8 142.5 L515.8 142.5 L515.7 142.6 L515.4 142.9 L515.3 142.9 L515.3 142.9 L515.3 142.9 L515.3 142.9 L515.1 142.9 L515.0 143.1 L514.9 143.2 Z" fill="#2f8f83" fill-opacity="0.34" stroke="#0e5b52" stroke-width="1.6" />
  <path d="M515.3 143.3 L515.3 143.3 L515.2 143.4 L515.1 143.5 L515.1 143.5 L515.0 143.6 L514.9 143.4 L514.9 143.3 L514.8 143.3 L514.8 143.4 L514.8 143.3 L514.5 143.3 L514.1 143.3 L514.1 143.8 L514.0 143.8 L514.0 143.9 L514.1 144.0 L514.1 144.0 L514.1 144.0 L514.1 144.0 L514.1 144.1 L513.9 144.3 L513.8 144.4 L513.9 144.4 L514.1 144.6 L514.1 144.5 L514.1 144.5 L514.2 144.5 L514.2 144.5 L514.2 144.5 L514.4 144.7 L514.5 144.7 L514.5 144.2 L514.8 144.2 L514.7 144.2 L514.7 144.2 L514.7 144.1 L514.7 144.1 L514.8 144.0 L514.6 143.8 L514.6 143.8 L514.8 143.7 L514.8 143.7 L514.8 143.7 L514.8 143.7 L514.8 143.6 L514.9 143.7 L514.9 143.7 L514.9 143.7 L514.9 143.6 L515.0 143.7 L515.0 143.7 L515.0 143.7 L515.0 143.7 L515.0 143.7 L515.0 143.8 L515.3 143.8 L515.3 143.3 Z" fill="#2f8f83" fill-opacity="0.34" stroke="#0e5b52" stroke-width="1.6" />
  <path d="M513.7 143.9 L513.9 143.8 L513.7 143.8 L513.7 143.9 L513.7 143.9 Z" fill="#2f8f83" fill-opacity="0.34" stroke="#0e5b52" stroke-width="1.6" />
  <path d="M472.1 133.9 L472.0 133.9 L472.0 133.9 L471.2 133.9 L471.1 134.1 L471.1 134.2 L471.5 134.3 L471.5 134.2 L471.5 134.2 L471.8 134.4 L471.9 134.4 L472.0 134.4 L472.0 134.5 L471.9 134.7 L472.2 135.4 L472.7 135.1 L472.3 134.5 L472.4 134.5 L472.4 134.4 L472.1 134.3 L472.0 134.3 L472.1 134.0 L472.1 133.9 L472.1 133.9 Z" fill="#2f8f83" fill-opacity="0.34" stroke="#0e5b52" stroke-width="1.6" />
  <path d="M514.5 144.7 L514.1 144.7 L514.1 145.1 L514.5 145.1 L514.9 145.1 L515.3 145.1 L515.7 145.1 L515.7 144.7 L515.7 144.2 L515.7 143.8 L515.3 143.8 L514.9 143.8 L514.9 144.2 L514.5 144.2 L514.5 144.7 Z" fill="#2f8f83" fill-opacity="0.34" stroke="#0e5b52" stroke-width="1.6" />
  <path d="M472.0 134.1 L472.0 134.5 L472.4 134.5 L472.4 134.1 L472.8 134.1 L472.8 133.6 L472.4 133.6 L472.0 133.6 L472.0 134.1 Z" fill="#2f8f83" fill-opacity="0.34" stroke="#0e5b52" stroke-width="1.6" />
  <path d="M516.5 142.0 L516.1 142.0 L516.1 142.5 L516.5 142.5 L516.5 142.0 Z" fill="#2f8f83" fill-opacity="0.34" stroke="#0e5b52" stroke-width="1.6" />
  <path d="M471.6 133.2 L471.2 133.2 L471.2 133.6 L471.6 133.6 L471.6 133.2 Z" fill="#2f8f83" fill-opacity="0.34" stroke="#0e5b52" stroke-width="1.6" />
  <path d="M472.0 135.0 L471.6 135.0 L471.6 135.4 L472.0 135.4 L472.4 135.4 L472.4 135.0 L472.0 135.0 Z" fill="#2f8f83" fill-opacity="0.34" stroke="#0e5b52" stroke-width="1.6" />
  <path d="M515.7 144.7 L515.7 145.1 L516.1 145.1 L516.1 145.5 L516.5 145.5 L516.5 146.0 L516.9 146.0 L516.9 145.5 L516.9 145.1 L516.9 144.7 L516.9 144.2 L516.5 144.2 L516.1 144.2 L515.7 144.2 L515.7 144.7 Z" fill="#2f8f83" fill-opacity="0.34" stroke="#0e5b52" stroke-width="1.6" />
  <path d="M516.1 142.9 L515.7 142.9 L515.7 143.3 L516.1 143.3 L516.1 142.9 Z" fill="#2f8f83" fill-opacity="0.34" stroke="#0e5b52" stroke-width="1.6" />
  <path d="M515.7 142.9 L515.3 142.9 L515.3 143.3 L515.7 143.3 L515.7 142.9 Z" fill="#2f8f83" fill-opacity="0.34" stroke="#0e5b52" stroke-width="1.6" />
  <path d="M515.7 142.0 L515.7 142.5 L516.1 142.5 L516.1 142.0 L516.1 141.6 L515.7 141.6 L515.7 142.0 Z" fill="#2f8f83" fill-opacity="0.34" stroke="#0e5b52" stroke-width="1.6" />
  <path d="M516.5 142.5 L516.1 142.5 L516.1 142.9 L516.5 142.9 L516.5 142.5 Z" fill="#2f8f83" fill-opacity="0.34" stroke="#0e5b52" stroke-width="1.6" />
  <path d="M515.3 142.5 L514.9 142.5 L514.9 142.9 L515.3 142.9 L515.7 142.9 L515.7 142.5 L515.3 142.5 Z" fill="#2f8f83" fill-opacity="0.34" stroke="#0e5b52" stroke-width="1.6" />
  <path d="M515.7 141.1 L515.7 141.6 L516.1 141.6 L516.1 141.1 L516.5 141.1 L516.5 140.7 L516.1 140.7 L515.7 140.7 L515.7 141.1 Z" fill="#2f8f83" fill-opacity="0.34" stroke="#0e5b52" stroke-width="1.6" />
  <path d="M515.7 142.0 L515.3 142.0 L515.3 142.5 L515.7 142.5 L515.7 142.0 Z" fill="#2f8f83" fill-opacity="0.34" stroke="#0e5b52" stroke-width="1.6" />
  <path d="M508.1 139.8 L508.1 140.3 L508.5 140.3 L508.5 139.8 L508.5 139.4 L508.1 139.4 L508.1 139.8 Z" fill="#2f8f83" fill-opacity="0.34" stroke="#0e5b52" stroke-width="1.6" />
  <path d="M508.5 140.3 L508.1 140.3 L508.1 140.7 L508.5 140.7 L508.5 140.3 Z" fill="#2f8f83" fill-opacity="0.34" stroke="#0e5b52" stroke-width="1.6" />
  <path d="M508.9 140.3 L508.5 140.3 L508.5 140.7 L508.9 140.7 L508.9 140.3 Z" fill="#2f8f83" fill-opacity="0.34" stroke="#0e5b52" stroke-width="1.6" />
  <path d="M516.9 145.1 L516.9 145.5 L516.9 146.0 L516.9 146.4 L517.3 146.4 L517.7 146.4 L518.1 146.4 L518.1 146.0 L518.5 146.0 L518.5 145.5 L518.5 145.1 L518.1 145.1 L517.7 145.1 L517.3 145.1 L517.3 144.7 L516.9 144.7 L516.9 145.1 Z" fill="#2f8f83" fill-opacity="0.34" stroke="#0e5b52" stroke-width="1.6" />
  <path d="M515.3 145.1 L514.9 145.1 L514.9 145.5 L515.3 145.5 L515.3 146.0 L515.7 146.0 L515.7 146.4 L515.7 146.9 L516.1 146.9 L516.5 146.9 L516.5 147.3 L516.9 147.3 L517.3 147.3 L517.7 147.3 L517.7 147.8 L518.1 147.8 L518.1 147.3 L518.1 146.9 L518.1 146.4 L517.7 146.4 L517.3 146.4 L516.9 146.4 L516.9 146.0 L516.5 146.0 L516.5 145.5 L516.1 145.5 L516.1 145.1 L515.7 145.1 L515.3 145.1 Z" fill="#2f8f83" fill-opacity="0.34" stroke="#0e5b52" stroke-width="1.6" />
  <path d="M518.5 143.8 L518.5 144.2 L518.5 144.7 L518.5 145.1 L518.5 145.5 L518.5 146.0 L518.9 146.0 L519.3 146.0 L519.7 146.0 L520.1 146.0 L520.1 146.4 L520.1 146.9 L520.5 146.9 L520.5 147.3 L520.9 147.3 L521.3 147.3 L521.3 147.8 L521.7 147.8 L521.7 147.3 L521.7 146.9 L521.7 146.4 L521.7 146.0 L521.7 145.5 L521.7 145.1 L521.7 144.7 L521.7 144.2 L521.7 143.8 L521.7 143.3 L522.1 143.3 L522.1 142.9 L522.4 142.9 L522.8 142.9 L523.2 142.9 L523.6 142.9 L524.0 142.9 L524.0 142.5 L524.0 142.0 L523.6 142.0 L523.2 142.0 L523.2 142.5 L522.8 142.5 L522.8 142.0 L522.8 141.6 L522.8 141.1 L522.4 141.1 L522.1 141.1 L521.7 141.1 L521.7 141.6 L521.7 142.0 L521.3 142.0 L520.9 142.0 L520.5 142.0 L520.1 142.0 L519.7 142.0 L519.3 142.0 L519.3 142.5 L519.3 142.9 L519.3 143.3 L518.9 143.3 L518.5 143.3 L518.5 143.8 Z M521.7 142.0 L522.1 142.0 L522.1 142.5 L521.7 142.5 L521.7 142.0 Z" fill="#2f8f83" fill-opacity="0.34" stroke="#0e5b52" stroke-width="1.6" />
  <path d="M516.9 137.6 L516.9 138.1 L516.9 138.5 L516.9 138.9 L516.9 139.4 L516.9 139.8 L516.9 140.3 L516.9 140.7 L517.3 140.7 L517.7 140.7 L517.7 140.3 L518.1 140.3 L518.1 140.7 L518.5 140.7 L518.9 140.7 L519.3 140.7 L519.7 140.7 L520.1 140.7 L520.5 140.7 L520.9 140.7 L521.3 140.7 L521.7 140.7 L521.7 140.3 L521.7 139.8 L521.7 139.4 L521.7 138.9 L521.7 138.5 L521.7 138.1 L521.7 137.6 L521.7 137.2 L521.3 137.2 L520.9 137.2 L520.5 137.2 L520.1 137.2 L519.7 137.2 L519.3 137.2 L518.9 137.2 L518.5 137.2 L518.1 137.2 L517.7 137.2 L517.3 137.2 L516.9 137.2 L516.9 137.6 Z" fill="#2f8f83" fill-opacity="0.34" stroke="#0e5b52" stroke-width="1.6" />
  <path d="M513.3 137.2 L513.3 137.6 L513.3 138.1 L513.3 138.5 L513.3 138.9 L513.3 139.4 L513.3 139.8 L513.3 140.3 L513.3 140.7 L513.3 141.1 L513.3 141.6 L513.7 141.6 L514.1 141.6 L514.5 141.6 L514.9 141.6 L515.3 141.6 L515.7 141.6 L516.1 141.6 L516.5 141.6 L516.5 141.1 L516.9 141.1 L517.3 141.1 L517.3 140.7 L516.9 140.7 L516.9 140.3 L516.9 139.8 L516.9 139.4 L516.9 138.9 L516.9 138.5 L516.9 138.1 L516.9 137.6 L516.9 137.2 L516.9 136.7 L516.5 136.7 L516.1 136.7 L515.7 136.7 L515.3 136.7 L514.9 136.7 L514.5 136.7 L514.1 136.7 L513.7 136.7 L513.3 136.7 L513.3 137.2 Z" fill="#2f8f83" fill-opacity="0.34" stroke="#0e5b52" stroke-width="1.6" />
  <path d="M521.7 139.4 L521.7 139.8 L521.7 140.3 L521.7 140.7 L521.7 141.1 L522.1 141.1 L522.4 141.1 L522.4 140.7 L522.4 140.3 L522.4 139.8 L522.1 139.8 L522.1 139.4 L522.1 138.9 L521.7 138.9 L521.7 139.4 Z" fill="#2f8f83" fill-opacity="0.34" stroke="#0e5b52" stroke-width="1.6" />
  <path d="M509.3 140.3 L508.9 140.3 L508.9 140.7 L509.3 140.7 L509.7 140.7 L510.1 140.7 L510.1 140.3 L509.7 140.3 L509.3 140.3 Z" fill="#2f8f83" fill-opacity="0.34" stroke="#0e5b52" stroke-width="1.6" />
  <path d="M509.7 140.7 L509.3 140.7 L509.3 141.1 L509.7 141.1 L510.1 141.1 L510.1 140.7 L509.7 140.7 Z" fill="#2f8f83" fill-opacity="0.34" stroke="#0e5b52" stroke-width="1.6" />
  <path d="M509.3 137.2 L509.3 137.6 L509.3 138.1 L509.3 138.5 L508.9 138.5 L508.9 138.9 L509.3 138.9 L509.7 138.9 L510.1 138.9 L510.1 139.4 L510.1 139.8 L510.1 140.3 L510.1 140.7 L510.1 141.1 L509.7 141.1 L509.7 141.6 L510.1 141.6 L510.5 141.6 L510.9 141.6 L511.3 141.6 L511.7 141.6 L512.1 141.6 L512.5 141.6 L512.9 141.6 L513.3 141.6 L513.3 141.1 L513.3 140.7 L513.3 140.3 L513.3 139.8 L513.3 139.4 L513.3 138.9 L513.3 138.5 L513.3 138.1 L513.3 137.6 L513.3 137.2 L513.3 136.7 L512.9 136.7 L512.5 136.7 L512.1 136.7 L511.7 136.7 L511.3 136.7 L510.9 136.7 L510.5 136.7 L510.1 136.7 L509.7 136.7 L509.3 136.7 L509.3 137.2 Z" fill="#2f8f83" fill-opacity="0.34" stroke="#0e5b52" stroke-width="1.6" />
  <path d="M507.3 144.7 L507.3 145.1 L507.3 145.5 L507.3 146.0 L507.3 146.4 L507.3 146.9 L507.7 146.9 L508.1 146.9 L508.5 146.9 L508.9 146.9 L509.3 146.9 L509.7 146.9 L510.1 146.9 L510.1 146.4 L510.1 146.0 L509.7 146.0 L509.3 146.0 L508.9 146.0 L508.9 145.5 L509.3 145.5 L509.7 145.5 L509.7 145.1 L510.1 145.1 L510.5 145.1 L510.5 144.7 L510.9 144.7 L511.3 144.7 L511.7 144.7 L512.1 144.7 L512.5 144.7 L512.9 144.7 L512.9 144.2 L512.5 144.2 L512.5 143.8 L512.5 143.3 L512.9 143.3 L513.3 143.3 L513.7 143.3 L513.7 142.9 L513.7 142.5 L513.7 142.0 L513.7 141.6 L513.3 141.6 L512.9 141.6 L512.5 141.6 L512.1 141.6 L511.7 141.6 L511.3 141.6 L510.9 141.6 L510.5 141.6 L510.1 141.6 L510.1 142.0 L510.5 142.0 L510.5 142.5 L510.1 142.5 L510.1 142.9 L509.7 142.9 L509.3 142.9 L509.3 143.3 L509.3 143.8 L509.3 144.2 L508.9 144.2 L508.5 144.2 L508.1 144.2 L507.7 144.2 L507.3 144.2 L507.3 144.7 Z" fill="#2f8f83" fill-opacity="0.34" stroke="#0e5b52" stroke-width="1.6" />
  <path d="M507.7 146.9 L507.3 146.9 L507.3 147.3 L507.7 147.3 L508.1 147.3 L508.5 147.3 L508.9 147.3 L509.3 147.3 L509.7 147.3 L510.1 147.3 L510.5 147.3 L510.9 147.3 L511.3 147.3 L511.7 147.3 L512.1 147.3 L512.5 147.3 L512.9 147.3 L513.3 147.3 L513.7 147.3 L514.1 147.3 L514.5 147.3 L514.9 147.3 L515.3 147.3 L515.7 147.3 L516.1 147.3 L516.5 147.3 L516.5 146.9 L516.1 146.9 L515.7 146.9 L515.7 146.4 L515.7 146.0 L515.3 146.0 L515.3 145.5 L514.9 145.5 L514.9 145.1 L514.5 145.1 L514.1 145.1 L513.7 145.1 L513.3 145.1 L512.9 145.1 L512.5 145.1 L512.5 145.5 L512.5 146.0 L512.1 146.0 L511.7 146.0 L511.3 146.0 L510.9 146.0 L510.5 146.0 L510.1 146.0 L510.1 146.4 L510.1 146.9 L509.7 146.9 L509.3 146.9 L508.9 146.9 L508.5 146.9 L508.1 146.9 L507.7 146.9 Z M512.9 145.5 L513.3 145.5 L513.3 146.0 L512.9 146.0 L512.9 145.5 Z" fill="#2f8f83" fill-opacity="0.34" stroke="#0e5b52" stroke-width="1.6" />
  <path d="M507.7 147.3 L507.3 147.3 L507.3 147.8 L507.7 147.8 L508.1 147.8 L508.5 147.8 L508.9 147.8 L509.3 147.8 L509.7 147.8 L510.1 147.8 L510.5 147.8 L510.9 147.8 L511.3 147.8 L511.7 147.8 L512.1 147.8 L512.5 147.8 L512.9 147.8 L513.3 147.8 L513.7 147.8 L514.1 147.8 L514.5 147.8 L514.9 147.8 L515.3 147.8 L515.7 147.8 L516.1 147.8 L516.5 147.8 L516.9 147.8 L517.3 147.8 L517.7 147.8 L517.7 147.3 L517.3 147.3 L516.9 147.3 L516.5 147.3 L516.1 147.3 L515.7 147.3 L515.3 147.3 L514.9 147.3 L514.5 147.3 L514.1 147.3 L513.7 147.3 L513.3 147.3 L512.9 147.3 L512.5 147.3 L512.1 147.3 L511.7 147.3 L511.3 147.3 L510.9 147.3 L510.5 147.3 L510.1 147.3 L509.7 147.3 L509.3 147.3 L508.9 147.3 L508.5 147.3 L508.1 147.3 L507.7 147.3 Z" fill="#2f8f83" fill-opacity="0.34" stroke="#0e5b52" stroke-width="1.6" />
  <path d="M513.7 133.2 L513.7 133.6 L513.7 134.1 L513.7 134.5 L513.7 135.0 L513.7 135.4 L513.7 135.8 L513.7 136.3 L513.7 136.7 L514.1 136.7 L514.5 136.7 L514.9 136.7 L515.3 136.7 L515.7 136.7 L516.1 136.7 L516.5 136.7 L516.9 136.7 L516.9 137.2 L517.3 137.2 L517.7 137.2 L517.7 136.7 L517.7 136.3 L517.7 135.8 L518.1 135.8 L518.5 135.8 L518.5 135.4 L518.5 135.0 L518.5 134.5 L518.5 134.1 L518.5 133.6 L518.1 133.6 L517.7 133.6 L517.3 133.6 L517.3 133.2 L517.3 132.8 L516.9 132.8 L516.5 132.8 L516.1 132.8 L515.7 132.8 L515.3 132.8 L514.9 132.8 L514.5 132.8 L514.1 132.8 L513.7 132.8 L513.7 133.2 Z" fill="#2f8f83" fill-opacity="0.34" stroke="#0e5b52" stroke-width="1.6" />
  <path d="M508.5 133.6 L508.5 134.1 L508.9 134.1 L509.3 134.1 L509.3 134.5 L509.3 135.0 L509.3 135.4 L509.3 135.8 L509.3 136.3 L509.3 136.7 L509.7 136.7 L510.1 136.7 L510.5 136.7 L510.9 136.7 L511.3 136.7 L511.7 136.7 L512.1 136.7 L512.5 136.7 L512.9 136.7 L513.3 136.7 L513.7 136.7 L513.7 136.3 L513.7 135.8 L513.7 135.4 L513.7 135.0 L513.7 134.5 L513.7 134.1 L513.7 133.6 L513.7 133.2 L513.3 133.2 L512.9 133.2 L512.5 133.2 L512.1 133.2 L511.7 133.2 L511.3 133.2 L510.9 133.2 L510.5 133.2 L510.1 133.2 L509.7 133.2 L509.3 133.2 L508.9 133.2 L508.5 133.2 L508.5 133.6 Z" fill="#2f8f83" fill-opacity="0.34" stroke="#0e5b52" stroke-width="1.6" />
  <path d="M513.7 131.0 L513.7 131.4 L513.7 131.9 L513.7 132.3 L513.7 132.8 L514.1 132.8 L514.5 132.8 L514.9 132.8 L515.3 132.8 L515.7 132.8 L516.1 132.8 L516.5 132.8 L516.9 132.8 L517.3 132.8 L517.7 132.8 L518.1 132.8 L518.5 132.8 L518.5 132.3 L518.5 131.9 L518.5 131.4 L518.1 131.4 L517.7 131.4 L517.7 131.0 L517.7 130.5 L517.3 130.5 L516.9 130.5 L516.5 130.5 L516.1 130.5 L515.7 130.5 L515.3 130.5 L514.9 130.5 L514.5 130.5 L514.1 130.5 L513.7 130.5 L513.7 131.0 Z" fill="#2f8f83" fill-opacity="0.34" stroke="#0e5b52" stroke-width="1.6" />
  <path d="M507.3 131.0 L507.3 131.4 L507.3 131.9 L507.3 132.3 L507.7 132.3 L508.1 132.3 L508.1 132.8 L508.1 133.2 L508.5 133.2 L508.9 133.2 L509.3 133.2 L509.7 133.2 L510.1 133.2 L510.5 133.2 L510.9 133.2 L511.3 133.2 L511.7 133.2 L512.1 133.2 L512.5 133.2 L512.9 133.2 L513.3 133.2 L513.7 133.2 L513.7 132.8 L513.7 132.3 L513.7 131.9 L513.7 131.4 L513.7 131.0 L513.7 130.5 L513.3 130.5 L512.9 130.5 L512.5 130.5 L512.1 130.5 L511.7 130.5 L511.3 130.5 L510.9 130.5 L510.5 130.5 L510.1 130.5 L509.7 130.5 L509.3 130.5 L508.9 130.5 L508.5 130.6 L508.1 130.5 L507.7 130.6 L507.3 130.6 L507.3 131.0 Z" fill="#2f8f83" fill-opacity="0.34" stroke="#0e5b52" stroke-width="1.6" />
  <path d="M515.7 127.9 L515.7 128.3 L515.7 128.8 L515.7 129.2 L515.7 129.7 L515.7 130.1 L515.7 130.5 L516.1 130.5 L516.5 130.5 L516.9 130.5 L517.3 130.5 L517.7 130.5 L517.7 130.1 L517.7 129.7 L517.7 129.2 L518.1 129.2 L518.5 129.2 L518.9 129.2 L519.3 129.2 L519.7 129.2 L520.1 129.2 L520.5 129.2 L520.9 129.2 L521.3 129.2 L521.7 129.2 L521.7 128.8 L521.7 128.3 L521.7 127.9 L521.7 127.5 L521.3 127.5 L520.9 127.5 L520.5 127.5 L520.1 127.5 L519.7 127.5 L519.3 127.5 L518.9 127.5 L518.5 127.5 L518.1 127.5 L517.7 127.5 L517.3 127.5 L516.9 127.5 L516.5 127.5 L516.1 127.5 L515.7 127.5 L515.7 127.9 Z" fill="#2f8f83" fill-opacity="0.34" stroke="#0e5b52" stroke-width="1.6" />
  <path d="M510.1 127.9 L510.1 128.3 L510.1 128.8 L510.1 129.2 L510.1 129.7 L510.1 130.1 L510.1 130.5 L510.5 130.5 L510.9 130.5 L511.3 130.5 L511.7 130.5 L512.1 130.5 L512.5 130.5 L512.9 130.5 L513.3 130.5 L513.7 130.5 L514.1 130.5 L514.5 130.5 L514.9 130.5 L515.3 130.5 L515.7 130.5 L515.7 130.1 L515.7 129.7 L515.7 129.2 L515.7 128.8 L515.7 128.3 L515.7 127.9 L515.7 127.5 L515.3 127.5 L514.9 127.5 L514.5 127.5 L514.1 127.5 L513.7 127.5 L513.3 127.5 L512.9 127.5 L512.5 127.5 L512.1 127.5 L511.7 127.5 L511.3 127.5 L510.9 127.5 L510.5 127.5 L510.1 127.5 L510.1 127.9 Z" fill="#2f8f83" fill-opacity="0.34" stroke="#0e5b52" stroke-width="1.6" />
  <path d="M505.4 127.9 L505.4 128.3 L505.4 128.8 L505.4 129.2 L505.4 129.7 L505.4 130.1 L505.4 130.6 L505.4 131.0 L505.8 131.0 L506.2 131.0 L506.6 131.0 L507.0 131.0 L507.3 131.0 L507.3 130.6 L507.7 130.6 L508.1 130.5 L508.5 130.6 L508.9 130.5 L509.3 130.5 L509.7 130.5 L510.1 130.5 L510.1 130.1 L510.1 129.7 L510.1 129.2 L510.1 128.8 L510.1 128.3 L510.1 127.9 L510.1 127.5 L509.7 127.5 L509.3 127.5 L508.9 127.5 L508.5 127.5 L508.1 127.5 L507.7 127.5 L507.3 127.5 L507.0 127.5 L506.6 127.5 L506.2 127.5 L505.8 127.5 L505.4 127.5 L505.4 127.9 Z" fill="#2f8f83" fill-opacity="0.34" stroke="#0e5b52" stroke-width="1.6" />
  <path d="M500.6 127.9 L500.6 128.3 L500.6 128.8 L500.6 129.2 L500.6 129.7 L500.6 130.1 L500.6 130.6 L500.6 131.0 L501.0 131.0 L501.4 131.0 L501.8 131.0 L502.2 131.0 L502.6 131.0 L503.0 131.0 L503.4 131.0 L503.8 131.0 L504.2 131.0 L504.6 131.0 L505.0 131.0 L505.4 131.0 L505.4 130.6 L505.4 130.1 L505.4 129.7 L505.4 129.2 L505.4 128.8 L505.4 128.3 L505.4 127.9 L505.4 127.5 L505.0 127.5 L504.6 127.5 L504.2 127.5 L503.8 127.5 L503.4 127.5 L503.0 127.5 L502.6 127.5 L502.2 127.5 L501.8 127.5 L501.4 127.5 L501.0 127.5 L500.6 127.5 L500.6 127.9 Z" fill="#2f8f83" fill-opacity="0.34" stroke="#0e5b52" stroke-width="1.6" />
  <path d="M500.6 131.4 L500.6 131.9 L500.6 132.3 L500.6 132.8 L500.6 133.2 L500.6 133.6 L500.6 134.1 L501.0 134.1 L501.4 134.1 L501.8 134.1 L502.2 134.1 L502.6 134.1 L503.0 134.1 L503.4 134.1 L503.8 134.1 L504.2 134.1 L504.6 134.1 L505.0 134.1 L505.4 134.1 L505.8 134.1 L506.2 134.1 L506.2 133.6 L505.8 133.6 L505.8 133.2 L505.8 132.8 L505.4 132.8 L505.4 132.3 L505.4 131.9 L505.4 131.4 L505.4 131.0 L505.0 131.0 L504.6 131.0 L504.2 131.0 L503.8 131.0 L503.4 131.0 L503.0 131.0 L502.6 131.0 L502.2 131.0 L501.8 131.0 L501.4 131.0 L501.0 131.0 L500.6 131.0 L500.6 131.4 Z" fill="#2f8f83" fill-opacity="0.34" stroke="#0e5b52" stroke-width="1.6" />
  <path d="M500.6 134.5 L500.6 135.0 L500.6 135.4 L500.6 135.8 L500.6 136.3 L500.6 136.7 L500.6 137.2 L501.0 137.2 L501.4 137.2 L501.8 137.2 L502.2 137.2 L502.6 137.2 L503.0 137.2 L503.4 137.2 L503.8 137.2 L504.2 137.2 L504.6 137.2 L505.0 137.2 L505.4 137.2 L505.8 137.2 L506.2 137.2 L506.2 136.7 L506.2 136.3 L506.2 135.8 L506.2 135.4 L506.2 135.0 L506.2 134.5 L506.2 134.1 L505.8 134.1 L505.4 134.1 L505.0 134.1 L504.6 134.1 L504.2 134.1 L503.8 134.1 L503.4 134.1 L503.0 134.1 L502.6 134.1 L502.2 134.1 L501.8 134.1 L501.4 134.1 L501.0 134.1 L500.6 134.1 L500.6 134.5 Z M505.0 135.0 L505.4 135.0 L505.4 135.4 L505.0 135.4 L505.0 135.0 Z" fill="#2f8f83" fill-opacity="0.34" stroke="#0e5b52" stroke-width="1.6" />
  <path d="M500.6 137.6 L500.6 138.1 L500.6 138.5 L500.6 138.9 L500.6 139.4 L500.6 139.8 L501.0 139.8 L501.4 139.8 L501.8 139.8 L502.2 139.8 L502.6 139.8 L503.0 139.8 L503.4 139.8 L503.8 139.8 L504.2 139.8 L504.6 139.8 L505.0 139.8 L505.4 139.8 L505.8 139.8 L506.2 139.8 L506.6 139.8 L507.0 139.8 L507.0 139.4 L507.0 138.9 L506.6 138.9 L506.6 138.5 L506.6 138.1 L506.6 137.6 L506.2 137.6 L506.2 137.2 L505.8 137.2 L505.4 137.2 L505.0 137.2 L504.6 137.2 L504.2 137.2 L503.8 137.2 L503.4 137.2 L503.0 137.2 L502.6 137.2 L502.2 137.2 L501.8 137.2 L501.4 137.2 L501.0 137.2 L500.6 137.2 L500.6 137.6 Z" fill="#2f8f83" fill-opacity="0.34" stroke="#0e5b52" stroke-width="1.6" />
  <path d="M500.6 140.3 L500.6 140.7 L500.6 141.1 L500.6 141.6 L500.6 142.0 L500.6 142.5 L501.0 142.5 L501.4 142.5 L501.8 142.5 L502.2 142.5 L502.6 142.5 L503.0 142.5 L503.4 142.5 L503.8 142.5 L504.2 142.5 L504.6 142.5 L505.0 142.5 L505.4 142.5 L505.8 142.5 L506.2 142.5 L506.6 142.5 L507.0 142.5 L507.0 142.0 L507.0 141.6 L507.0 141.1 L507.0 140.7 L507.0 140.3 L507.0 139.8 L506.6 139.8 L506.2 139.8 L505.8 139.8 L505.4 139.8 L505.0 139.8 L504.6 139.8 L504.2 139.8 L503.8 139.8 L503.4 139.8 L503.0 139.8 L502.6 139.8 L502.2 139.8 L501.8 139.8 L501.4 139.8 L501.0 139.8 L500.6 139.8 L500.6 140.3 Z" fill="#2f8f83" fill-opacity="0.34" stroke="#0e5b52" stroke-width="1.6" />
  <path d="M500.6 142.9 L500.6 143.3 L500.6 143.8 L500.6 144.2 L500.6 144.7 L501.0 144.7 L501.4 144.7 L501.8 144.7 L502.2 144.7 L502.6 144.7 L503.0 144.7 L503.4 144.7 L503.8 144.7 L504.2 144.7 L504.6 144.7 L505.0 144.7 L505.4 144.7 L505.8 144.7 L506.2 144.7 L506.6 144.7 L507.0 144.7 L507.3 144.7 L507.3 144.2 L507.3 143.8 L507.3 143.3 L507.3 142.9 L507.0 142.9 L507.0 142.5 L506.6 142.5 L506.2 142.5 L505.8 142.5 L505.4 142.5 L505.0 142.5 L504.6 142.5 L504.2 142.5 L503.8 142.5 L503.4 142.5 L503.0 142.5 L502.6 142.5 L502.2 142.5 L501.8 142.5 L501.4 142.5 L501.0 142.5 L500.6 142.5 L500.6 142.9 Z" fill="#2f8f83" fill-opacity="0.34" stroke="#0e5b52" stroke-width="1.6" />
  <path d="M502.6 145.1 L502.6 145.5 L502.6 146.0 L502.6 146.4 L502.6 146.9 L502.6 147.3 L502.6 147.8 L503.0 147.8 L503.4 147.8 L503.8 147.8 L504.2 147.8 L504.6 147.8 L505.0 147.8 L505.4 147.8 L505.8 147.8 L506.2 147.8 L506.6 147.8 L507.0 147.8 L507.3 147.8 L507.3 147.3 L507.3 146.9 L507.3 146.4 L507.3 146.0 L507.3 145.5 L507.3 145.1 L507.3 144.7 L507.0 144.7 L506.6 144.7 L506.2 144.7 L505.8 144.7 L505.4 144.7 L505.0 144.7 L504.6 144.7 L504.2 144.7 L503.8 144.7 L503.4 144.7 L503.0 144.7 L502.6 144.7 L502.6 145.1 Z" fill="#2f8f83" fill-opacity="0.34" stroke="#0e5b52" stroke-width="1.6" />
  <path d="M500.6 145.1 L500.6 145.5 L500.6 146.0 L500.6 146.4 L500.6 146.9 L500.6 147.3 L500.6 147.8 L501.0 147.8 L501.4 147.8 L501.8 147.8 L502.2 147.8 L502.6 147.8 L502.6 147.3 L502.6 146.9 L502.6 146.4 L502.6 146.0 L502.6 145.5 L502.6 145.1 L502.6 144.7 L502.2 144.7 L501.8 144.7 L501.4 144.7 L501.0 144.7 L500.6 144.7 L500.6 145.1 Z" fill="#2f8f83" fill-opacity="0.34" stroke="#0e5b52" stroke-width="1.6" />
  <path d="M508.5 148.2 L508.5 148.6 L508.5 149.1 L508.9 149.1 L509.3 149.1 L509.3 149.5 L509.7 149.5 L510.1 149.5 L510.5 149.5 L510.5 149.1 L510.9 149.1 L510.9 149.5 L511.3 149.5 L511.7 149.5 L512.1 149.5 L512.5 149.5 L512.9 149.5 L513.3 149.5 L513.7 149.5 L514.1 149.5 L514.5 149.5 L514.9 149.5 L515.3 149.5 L515.7 149.5 L516.1 149.5 L516.5 149.5 L516.9 149.5 L517.3 149.5 L517.7 149.5 L518.1 149.5 L518.5 149.5 L518.9 149.5 L519.3 149.5 L519.3 149.1 L518.9 149.1 L518.5 149.1 L518.5 148.6 L518.1 148.6 L518.1 148.2 L518.1 147.8 L517.7 147.8 L517.3 147.8 L516.9 147.8 L516.5 147.8 L516.1 147.8 L515.7 147.8 L515.3 147.8 L514.9 147.8 L514.5 147.8 L514.1 147.8 L513.7 147.8 L513.3 147.8 L512.9 147.8 L512.5 147.8 L512.1 147.8 L511.7 147.8 L511.3 147.8 L510.9 147.8 L510.5 147.8 L510.1 147.8 L509.7 147.8 L509.3 147.8 L508.9 147.8 L508.5 147.8 L508.5 148.2 Z" fill="#2f8f83" fill-opacity="0.34" stroke="#0e5b52" stroke-width="1.6" />
  <path d="M509.3 150.0 L509.3 150.4 L509.3 150.8 L509.7 150.8 L510.1 150.8 L510.5 150.8 L510.9 150.8 L511.3 150.8 L511.7 150.8 L512.1 150.8 L512.5 150.8 L512.9 150.8 L513.3 150.8 L513.7 150.8 L514.1 150.8 L514.5 150.8 L514.9 150.8 L515.3 150.8 L515.7 150.8 L516.1 150.8 L516.5 150.8 L516.9 150.8 L517.3 150.8 L517.7 150.8 L518.1 150.8 L518.5 150.8 L518.9 150.8 L519.3 150.8 L519.7 150.8 L520.1 150.8 L520.5 150.8 L520.9 150.8 L521.3 150.8 L521.7 150.8 L522.1 150.8 L522.4 150.8 L522.4 150.4 L522.1 150.4 L522.1 150.0 L521.7 150.0 L521.7 149.5 L521.3 149.5 L520.9 149.5 L520.5 149.5 L520.1 149.5 L519.7 149.5 L519.3 149.5 L518.9 149.5 L518.5 149.5 L518.1 149.5 L517.7 149.5 L517.3 149.5 L516.9 149.5 L516.5 149.5 L516.1 149.5 L515.7 149.5 L515.3 149.5 L514.9 149.5 L514.5 149.5 L514.1 149.5 L513.7 149.5 L513.3 149.5 L512.9 149.5 L512.5 149.5 L512.1 149.5 L511.7 149.5 L511.3 149.5 L510.9 149.5 L510.5 149.5 L510.1 149.5 L509.7 149.5 L509.3 149.5 L509.3 150.0 Z" fill="#2f8f83" fill-opacity="0.34" stroke="#0e5b52" stroke-width="1.6" />
  <path d="M509.3 151.3 L509.3 151.7 L509.3 152.2 L509.7 152.2 L510.1 152.2 L510.5 152.2 L510.9 152.2 L511.3 152.2 L511.7 152.2 L512.1 152.2 L512.5 152.2 L512.9 152.2 L513.3 152.2 L513.7 152.2 L514.1 152.2 L514.5 152.2 L514.9 152.2 L515.3 152.2 L515.7 152.2 L516.1 152.2 L516.5 152.2 L516.9 152.2 L517.3 152.2 L517.7 152.2 L518.1 152.2 L518.5 152.2 L518.9 152.2 L519.3 152.2 L519.7 152.2 L520.1 152.2 L520.5 152.2 L520.9 152.2 L521.3 152.2 L521.7 152.2 L521.7 151.7 L522.1 151.7 L522.4 151.7 L522.8 151.7 L522.8 151.3 L522.8 150.8 L522.4 150.8 L522.1 150.8 L521.7 150.8 L521.3 150.8 L520.9 150.8 L520.5 150.8 L520.1 150.8 L519.7 150.8 L519.3 150.8 L518.9 150.8 L518.5 150.8 L518.1 150.8 L517.7 150.8 L517.3 150.8 L516.9 150.8 L516.5 150.8 L516.1 150.8 L515.7 150.8 L515.3 150.8 L514.9 150.8 L514.5 150.8 L514.1 150.8 L513.7 150.8 L513.3 150.8 L512.9 150.8 L512.5 150.8 L512.1 150.8 L511.7 150.8 L511.3 150.8 L510.9 150.8 L510.5 150.8 L510.1 150.8 L509.7 150.8 L509.3 150.8 L509.3 151.3 Z" fill="#2f8f83" fill-opacity="0.34" stroke="#0e5b52" stroke-width="1.6" />
  <path d="M522.1 151.7 L521.7 151.7 L521.7 152.2 L522.1 152.2 L522.4 152.2 L522.8 152.2 L523.2 152.2 L523.6 152.2 L523.6 151.7 L523.6 151.3 L523.2 151.3 L522.8 151.3 L522.8 151.7 L522.4 151.7 L522.1 151.7 Z" fill="#2f8f83" fill-opacity="0.34" stroke="#0e5b52" stroke-width="1.6" />
  <path d="M507.3 148.2 L507.3 148.6 L507.3 149.1 L507.7 149.1 L508.1 149.1 L508.5 149.1 L508.5 148.6 L508.5 148.2 L508.5 147.8 L508.1 147.8 L507.7 147.8 L507.3 147.8 L507.3 148.2 Z" fill="#2f8f83" fill-opacity="0.34" stroke="#0e5b52" stroke-width="1.6" />
  <path d="M509.3 152.6 L509.3 153.0 L509.7 153.0 L510.1 153.0 L510.5 153.0 L510.9 153.0 L511.3 153.0 L511.7 153.0 L512.1 153.0 L512.5 153.0 L512.9 153.0 L513.3 153.0 L513.7 153.0 L514.1 153.0 L514.5 153.0 L514.9 153.0 L515.3 153.0 L515.7 153.0 L516.1 153.0 L516.5 153.0 L516.9 153.0 L517.3 153.0 L517.7 153.0 L518.1 153.0 L518.5 153.0 L518.9 153.0 L519.3 153.0 L519.7 153.0 L520.1 153.0 L520.5 153.0 L520.9 153.0 L521.3 153.0 L521.7 153.0 L522.1 153.0 L522.4 153.0 L522.8 153.0 L523.2 153.0 L523.6 153.0 L524.0 153.0 L524.4 153.0 L524.4 152.6 L524.0 152.6 L524.0 152.2 L523.6 152.2 L523.2 152.2 L522.8 152.2 L522.4 152.2 L522.1 152.2 L521.7 152.2 L521.3 152.2 L520.9 152.2 L520.5 152.2 L520.1 152.2 L519.7 152.2 L519.3 152.2 L518.9 152.2 L518.5 152.2 L518.1 152.2 L517.7 152.2 L517.3 152.2 L516.9 152.2 L516.5 152.2 L516.1 152.2 L515.7 152.2 L515.3 152.2 L514.9 152.2 L514.5 152.2 L514.1 152.2 L513.7 152.2 L513.3 152.2 L512.9 152.2 L512.5 152.2 L512.1 152.2 L511.7 152.2 L511.3 152.2 L510.9 152.2 L510.5 152.2 L510.1 152.2 L509.7 152.2 L509.3 152.2 L509.3 152.6 Z" fill="#2f8f83" fill-opacity="0.34" stroke="#0e5b52" stroke-width="1.6" />
  <path d="M509.3 153.5 L509.3 153.9 L509.7 153.9 L510.1 153.9 L510.5 153.9 L510.9 153.9 L511.3 153.9 L511.7 153.9 L512.1 153.9 L512.5 153.9 L512.9 153.9 L513.3 153.9 L513.7 153.9 L514.1 153.9 L514.5 153.9 L514.9 153.9 L515.3 153.9 L515.7 153.9 L516.1 153.9 L516.5 153.9 L516.9 153.9 L517.3 153.9 L517.7 153.9 L518.1 153.9 L518.5 153.9 L518.9 153.9 L519.3 153.9 L519.7 153.9 L520.1 153.9 L520.5 153.9 L520.9 153.9 L521.3 153.9 L521.7 153.9 L522.1 153.9 L522.4 153.9 L522.8 153.9 L523.2 153.9 L523.6 153.9 L524.0 153.9 L524.4 153.9 L524.8 153.9 L524.8 153.5 L524.4 153.5 L524.4 153.0 L524.0 153.0 L523.6 153.0 L523.2 153.0 L522.8 153.0 L522.4 153.0 L522.1 153.0 L521.7 153.0 L521.3 153.0 L520.9 153.0 L520.5 153.0 L520.1 153.0 L519.7 153.0 L519.3 153.0 L518.9 153.0 L518.5 153.0 L518.1 153.0 L517.7 153.0 L517.3 153.0 L516.9 153.0 L516.5 153.0 L516.1 153.0 L515.7 153.0 L515.3 153.0 L514.9 153.0 L514.5 153.0 L514.1 153.0 L513.7 153.0 L513.3 153.0 L512.9 153.0 L512.5 153.0 L512.1 153.0 L511.7 153.0 L511.3 153.0 L510.9 153.0 L510.5 153.0 L510.1 153.0 L509.7 153.0 L509.3 153.0 L509.3 153.5 Z" fill="#2f8f83" fill-opacity="0.34" stroke="#0e5b52" stroke-width="1.6" />
  <path d="M509.3 154.3 L509.3 154.8 L509.7 154.8 L510.1 154.8 L510.5 154.8 L510.9 154.8 L511.3 154.8 L511.7 154.8 L512.1 154.8 L512.5 154.8 L512.9 154.8 L513.3 154.8 L513.7 154.8 L514.1 154.8 L514.5 154.8 L514.9 154.8 L515.3 154.8 L515.7 154.8 L516.1 154.8 L516.5 154.8 L516.9 154.8 L517.3 154.8 L517.7 154.8 L518.1 154.8 L518.5 154.8 L518.9 154.8 L519.3 154.8 L519.7 154.8 L520.1 154.8 L520.5 154.8 L520.9 154.8 L521.3 154.8 L521.7 154.8 L522.1 154.8 L522.4 154.8 L522.8 154.8 L523.2 154.8 L523.6 154.8 L524.0 154.8 L524.4 154.8 L524.8 154.8 L525.2 154.8 L525.2 154.3 L525.2 153.9 L524.8 153.9 L524.4 153.9 L524.0 153.9 L523.6 153.9 L523.2 153.9 L522.8 153.9 L522.4 153.9 L522.1 153.9 L521.7 153.9 L521.3 153.9 L520.9 153.9 L520.5 153.9 L520.1 153.9 L519.7 153.9 L519.3 153.9 L518.9 153.9 L518.5 153.9 L518.1 153.9 L517.7 153.9 L517.3 153.9 L516.9 153.9 L516.5 153.9 L516.1 153.9 L515.7 153.9 L515.3 153.9 L514.9 153.9 L514.5 153.9 L514.1 153.9 L513.7 153.9 L513.3 153.9 L512.9 153.9 L512.5 153.9 L512.1 153.9 L511.7 153.9 L511.3 153.9 L510.9 153.9 L510.5 153.9 L510.1 153.9 L509.7 153.9 L509.3 153.9 L509.3 154.3 Z" fill="#2f8f83" fill-opacity="0.34" stroke="#0e5b52" stroke-width="1.6" />
  <path d="M509.3 155.2 L509.3 155.7 L509.7 155.7 L510.1 155.7 L510.5 155.7 L510.9 155.7 L511.3 155.7 L511.7 155.7 L512.1 155.7 L512.5 155.7 L512.9 155.7 L513.3 155.7 L513.7 155.7 L514.1 155.7 L514.5 155.7 L514.9 155.7 L515.3 155.7 L515.7 155.7 L516.1 155.7 L516.5 155.7 L516.9 155.7 L517.3 155.7 L517.7 155.7 L518.1 155.7 L518.5 155.7 L518.9 155.7 L519.3 155.7 L519.7 155.7 L520.1 155.7 L520.5 155.7 L520.9 155.7 L521.3 155.7 L521.7 155.7 L522.1 155.7 L522.4 155.7 L522.8 155.7 L523.2 155.7 L523.6 155.7 L524.0 155.7 L524.4 155.7 L524.8 155.7 L525.2 155.7 L525.6 155.7 L526.0 155.7 L526.0 155.2 L525.6 155.2 L525.6 154.8 L525.2 154.8 L524.8 154.8 L524.4 154.8 L524.0 154.8 L523.6 154.8 L523.2 154.8 L522.8 154.8 L522.4 154.8 L522.1 154.8 L521.7 154.8 L521.3 154.8 L520.9 154.8 L520.5 154.8 L520.1 154.8 L519.7 154.8 L519.3 154.8 L518.9 154.8 L518.5 154.8 L518.1 154.8 L517.7 154.8 L517.3 154.8 L516.9 154.8 L516.5 154.8 L516.1 154.8 L515.7 154.8 L515.3 154.8 L514.9 154.8 L514.5 154.8 L514.1 154.8 L513.7 154.8 L513.3 154.8 L512.9 154.8 L512.5 154.8 L512.1 154.8 L511.7 154.8 L511.3 154.8 L510.9 154.8 L510.5 154.8 L510.1 154.8 L509.7 154.8 L509.3 154.8 L509.3 155.2 Z" fill="#2f8f83" fill-opacity="0.34" stroke="#0e5b52" stroke-width="1.6" />
  <path d="M503.8 147.8 L503.4 147.8 L503.4 148.2 L503.8 148.2 L503.8 148.6 L503.8 149.1 L503.8 149.5 L503.8 150.0 L503.8 150.4 L504.2 150.4 L504.6 150.4 L505.0 150.4 L505.0 150.8 L505.0 151.3 L505.0 151.7 L505.0 152.2 L505.0 152.6 L505.0 153.0 L505.0 153.5 L505.4 153.5 L505.8 153.5 L506.2 153.5 L506.6 153.5 L507.0 153.5 L507.3 153.5 L507.7 153.5 L508.1 153.5 L508.5 153.5 L508.9 153.5 L508.9 153.0 L508.9 152.6 L508.5 152.6 L508.5 152.2 L508.1 152.2 L508.1 151.7 L507.7 151.7 L507.7 151.3 L507.3 151.3 L507.3 150.8 L507.0 150.8 L507.0 150.4 L506.6 150.4 L506.6 150.0 L506.6 149.5 L506.6 149.1 L506.6 148.6 L506.6 148.2 L506.6 147.8 L506.2 147.8 L505.8 147.8 L505.4 147.8 L505.0 147.8 L504.6 147.8 L504.2 147.8 L503.8 147.8 Z" fill="#2f8f83" fill-opacity="0.34" stroke="#0e5b52" stroke-width="1.6" />
  <path d="M500.6 148.2 L500.6 148.6 L500.6 149.1 L500.6 149.5 L500.6 150.0 L501.0 150.0 L501.4 150.0 L501.4 150.4 L501.8 150.4 L501.8 150.8 L502.2 150.8 L502.2 151.3 L502.6 151.3 L502.6 151.7 L502.6 152.2 L503.0 152.2 L503.0 152.6 L503.4 152.6 L503.4 153.0 L503.4 153.5 L503.8 153.5 L504.2 153.5 L504.6 153.5 L505.0 153.5 L505.0 153.0 L505.0 152.6 L505.0 152.2 L505.0 151.7 L505.0 151.3 L505.0 150.8 L505.0 150.4 L504.6 150.4 L504.2 150.4 L503.8 150.4 L503.8 150.0 L503.8 149.5 L503.8 149.1 L503.8 148.6 L503.8 148.2 L503.4 148.2 L503.4 147.8 L503.0 147.8 L502.6 147.8 L502.2 147.8 L501.8 147.8 L501.4 147.8 L501.0 147.8 L500.6 147.8 L500.6 148.2 Z" fill="#2f8f83" fill-opacity="0.34" stroke="#0e5b52" stroke-width="1.6" />
  <path d="M497.0 130.6 L497.0 131.0 L497.4 131.0 L497.4 131.4 L497.8 131.4 L497.8 131.9 L498.2 131.9 L498.2 132.3 L498.6 132.3 L498.6 132.8 L499.0 132.8 L499.0 133.2 L499.4 133.2 L499.4 133.6 L499.8 133.6 L499.8 134.1 L500.2 134.1 L500.6 134.1 L500.6 133.6 L500.6 133.2 L500.6 132.8 L500.6 132.3 L500.6 131.9 L500.6 131.4 L500.6 131.0 L500.6 130.6 L500.2 130.6 L499.8 130.6 L499.4 130.6 L499.0 130.6 L498.6 130.6 L498.2 130.6 L497.8 130.6 L497.4 130.6 L497.0 130.6 Z" fill="#2f8f83" fill-opacity="0.34" stroke="#0e5b52" stroke-width="1.6" />
  <path d="M497.0 127.5 L497.0 127.9 L497.0 128.3 L497.0 128.8 L497.0 129.2 L497.0 129.7 L497.0 130.1 L497.0 130.6 L497.4 130.6 L497.8 130.6 L498.2 130.6 L498.6 130.6 L499.0 130.6 L499.4 130.6 L499.8 130.6 L500.2 130.6 L500.6 130.6 L500.6 130.1 L500.6 129.7 L500.6 129.2 L500.6 128.8 L500.6 128.3 L500.6 127.9 L500.6 127.5 L501.0 127.5 L501.4 127.5 L501.8 127.5 L502.2 127.5 L502.2 127.0 L501.8 127.0 L501.4 127.0 L501.0 127.0 L500.6 127.0 L500.2 127.0 L499.8 127.0 L499.4 127.0 L499.0 127.0 L498.6 127.0 L498.2 127.0 L497.8 127.0 L497.4 127.0 L497.0 127.0 L497.0 127.5 Z" fill="#2f8f83" fill-opacity="0.34" stroke="#0e5b52" stroke-width="1.6" />
  <path d="M497.0 124.8 L497.0 125.2 L497.0 125.7 L497.0 126.1 L497.0 126.6 L497.0 127.0 L497.4 127.0 L497.8 127.0 L498.2 127.0 L498.6 127.0 L499.0 127.0 L499.4 127.0 L499.8 127.0 L500.2 127.0 L500.6 127.0 L501.0 127.0 L501.4 127.0 L501.8 127.0 L502.2 127.0 L502.2 126.6 L502.2 126.1 L502.2 125.7 L501.8 125.7 L501.8 125.2 L501.8 124.8 L501.4 124.8 L501.0 124.8 L500.6 124.8 L500.6 124.4 L500.2 124.4 L499.8 124.4 L499.4 124.4 L499.0 124.4 L498.6 124.4 L498.2 124.4 L497.8 124.4 L497.4 124.4 L497.0 124.4 L497.0 124.8 Z" fill="#2f8f83" fill-opacity="0.34" stroke="#0e5b52" stroke-width="1.6" />
  <path d="M497.0 121.3 L497.0 121.7 L497.0 122.1 L497.0 122.6 L497.0 123.0 L497.0 123.5 L497.0 123.9 L497.0 124.4 L497.4 124.4 L497.8 124.4 L498.2 124.4 L498.6 124.4 L499.0 124.4 L499.4 124.4 L499.8 124.4 L500.2 124.4 L500.6 124.4 L500.6 123.9 L500.6 123.5 L500.6 123.0 L500.6 122.6 L500.6 122.1 L500.6 121.7 L500.6 121.3 L500.6 120.8 L500.2 120.8 L499.8 120.8 L499.4 120.8 L499.0 120.8 L498.6 120.8 L498.2 120.8 L497.8 120.8 L497.4 120.8 L497.0 120.8 L497.0 121.3 Z" fill="#2f8f83" fill-opacity="0.34" stroke="#0e5b52" stroke-width="1.6" />
  <path d="M509.3 145.5 L508.9 145.5 L508.9 146.0 L509.3 146.0 L509.7 146.0 L510.1 146.0 L510.5 146.0 L510.9 146.0 L511.3 146.0 L511.7 146.0 L512.1 146.0 L512.5 146.0 L512.5 145.5 L512.5 145.1 L512.5 144.7 L512.1 144.7 L511.7 144.7 L511.3 144.7 L510.9 144.7 L510.5 144.7 L510.5 145.1 L510.1 145.1 L509.7 145.1 L509.7 145.5 L509.3 145.5 Z" fill="#2f8f83" fill-opacity="0.34" stroke="#0e5b52" stroke-width="1.6" />
  <path d="M513.3 145.5 L512.9 145.5 L512.9 146.0 L513.3 146.0 L513.3 145.5 Z" fill="#2f8f83" fill-opacity="0.34" stroke="#0e5b52" stroke-width="1.6" />
  <path d="M507.0 137.6 L506.6 137.6 L506.6 138.1 L507.0 138.1 L507.0 137.6 Z" fill="#2f8f83" fill-opacity="0.34" stroke="#0e5b52" stroke-width="1.6" />
  <path d="M505.4 135.0 L505.0 135.0 L505.0 135.4 L505.4 135.4 L505.4 135.0 Z" fill="#2f8f83" fill-opacity="0.34" stroke="#0e5b52" stroke-width="1.6" />
  <path d="M522.8 156.1 L522.8 156.5 L522.8 157.0 L522.8 157.4 L523.2 157.4 L523.6 157.4 L524.0 157.4 L524.4 157.4 L524.8 157.4 L525.2 157.4 L525.6 157.4 L526.0 157.4 L526.0 157.0 L525.6 157.0 L525.2 157.0 L524.8 157.0 L524.4 157.0 L524.4 156.5 L524.4 156.1 L524.4 155.7 L524.0 155.7 L524.0 156.1 L523.6 156.1 L523.6 155.7 L523.2 155.7 L522.8 155.7 L522.8 156.1 Z" fill="#2f8f83" fill-opacity="0.34" stroke="#0e5b52" stroke-width="1.6" />
  <path d="M524.4 156.1 L524.4 156.5 L524.4 157.0 L524.8 157.0 L525.2 157.0 L525.6 157.0 L526.0 157.0 L526.0 156.5 L525.6 156.5 L525.6 156.1 L525.6 155.7 L525.2 155.7 L524.8 155.7 L524.4 155.7 L524.4 156.1 Z" fill="#2f8f83" fill-opacity="0.34" stroke="#0e5b52" stroke-width="1.6" />
  <path d="M523.6 157.9 L523.6 158.3 L523.6 158.7 L523.6 159.2 L524.0 159.2 L524.4 159.2 L524.8 159.2 L525.2 159.2 L525.6 159.2 L526.0 159.2 L526.0 158.7 L526.0 158.3 L526.0 157.9 L526.0 157.4 L525.6 157.4 L525.2 157.4 L524.8 157.4 L524.4 157.4 L524.0 157.4 L523.6 157.4 L523.6 157.9 Z" fill="#2f8f83" fill-opacity="0.34" stroke="#0e5b52" stroke-width="1.6" />
  <path d="M506.6 148.2 L506.6 148.6 L506.6 149.1 L506.6 149.5 L506.6 150.0 L506.6 150.4 L507.0 150.4 L507.0 150.8 L507.3 150.8 L507.3 151.3 L507.7 151.3 L507.7 151.7 L508.1 151.7 L508.1 152.2 L508.5 152.2 L508.5 152.6 L508.9 152.6 L508.9 153.0 L508.9 153.5 L509.3 153.5 L509.3 153.0 L509.3 152.6 L509.3 152.2 L509.3 151.7 L509.3 151.3 L509.3 150.8 L509.3 150.4 L509.3 150.0 L509.3 149.5 L509.3 149.1 L508.9 149.1 L508.5 149.1 L508.1 149.1 L507.7 149.1 L507.3 149.1 L507.3 148.6 L507.3 148.2 L507.3 147.8 L507.0 147.8 L506.6 147.8 L506.6 148.2 Z" fill="#2f8f83" fill-opacity="0.34" stroke="#0e5b52" stroke-width="1.6" />
  <path d="M470.8 133.6 L470.4 133.6 L470.4 134.1 L470.8 134.1 L470.8 133.6 Z" fill="#2f8f83" fill-opacity="0.34" stroke="#0e5b52" stroke-width="1.6" />
  <path d="M466.8 128.3 L466.8 128.8 L467.2 128.8 L467.6 128.8 L468.0 128.8 L468.0 129.2 L468.4 129.2 L468.4 129.7 L468.8 129.7 L468.8 130.1 L469.2 130.1 L469.2 130.6 L469.6 130.6 L469.6 131.0 L469.6 131.4 L470.0 131.4 L470.4 131.4 L470.4 131.0 L470.4 130.6 L470.0 130.6 L470.0 130.1 L469.6 130.1 L469.6 129.7 L469.6 129.2 L469.2 129.2 L468.8 129.2 L468.8 128.8 L468.4 128.8 L468.4 128.3 L468.0 128.3 L468.0 127.9 L467.6 127.9 L467.2 127.9 L466.8 127.9 L466.8 128.3 Z" fill="#2f8f83" fill-opacity="0.34" stroke="#0e5b52" stroke-width="1.6" />
  <path d="M469.2 130.1 L469.2 130.6 L469.2 131.0 L469.6 131.0 L469.6 131.4 L469.6 131.9 L469.6 132.3 L470.0 132.3 L470.0 132.8 L470.0 133.2 L470.4 133.2 L470.4 133.6 L470.8 133.6 L471.2 133.6 L471.2 134.1 L471.6 134.1 L471.6 133.6 L471.6 133.2 L471.6 132.8 L471.2 132.8 L470.8 132.8 L470.8 132.3 L470.4 132.3 L470.4 131.9 L470.4 131.4 L470.4 131.0 L470.4 130.6 L470.0 130.6 L470.0 130.1 L470.0 129.7 L469.6 129.7 L469.2 129.7 L469.2 130.1 Z" fill="#2f8f83" fill-opacity="0.34" stroke="#0e5b52" stroke-width="1.6" />
  <path d="M471.6 134.1 L471.2 134.1 L471.2 134.5 L471.6 134.5 L471.6 135.0 L472.0 135.0 L472.0 135.4 L472.0 135.8 L472.4 135.8 L472.4 136.3 L472.8 136.3 L473.2 136.3 L473.2 135.8 L473.2 135.4 L472.8 135.4 L472.8 135.0 L472.8 134.5 L472.4 134.5 L472.4 134.1 L472.0 134.1 L471.6 134.1 Z" fill="#2f8f83" fill-opacity="0.34" stroke="#0e5b52" stroke-width="1.6" />
  <path d="M470.8 134.1 L470.8 134.5 L471.2 134.5 L471.2 134.1 L471.2 133.6 L470.8 133.6 L470.8 134.1 Z" fill="#2f8f83" fill-opacity="0.34" stroke="#0e5b52" stroke-width="1.6" />
  <path d="M473.2 136.3 L472.8 136.3 L472.8 136.7 L473.2 136.7 L473.2 137.2 L473.6 137.2 L473.6 137.6 L473.6 138.1 L474.0 138.1 L474.0 138.5 L474.4 138.5 L474.4 138.9 L474.8 138.9 L474.8 138.5 L474.8 138.1 L474.4 138.1 L474.4 137.6 L474.0 137.6 L474.0 137.2 L474.4 137.2 L474.4 136.7 L474.4 136.3 L474.0 136.3 L473.6 136.3 L473.2 136.3 Z" fill="#2f8f83" fill-opacity="0.34" stroke="#0e5b52" stroke-width="1.6" />
  <path d="M472.0 135.8 L472.0 136.3 L472.4 136.3 L472.4 135.8 L472.4 135.4 L472.0 135.4 L472.0 135.8 Z" fill="#2f8f83" fill-opacity="0.34" stroke="#0e5b52" stroke-width="1.6" />
  <path d="M473.6 135.0 L473.2 135.0 L473.2 135.4 L473.6 135.4 L473.6 135.8 L474.0 135.8 L474.0 135.4 L474.0 135.0 L473.6 135.0 Z" fill="#2f8f83" fill-opacity="0.34" stroke="#0e5b52" stroke-width="1.6" />
  <path d="M517.3 141.6 L516.9 141.6 L516.9 142.0 L517.3 142.0 L517.3 141.6 Z" fill="#2f8f83" fill-opacity="0.34" stroke="#0e5b52" stroke-width="1.6" />
  <path d="M514.5 143.3 L514.5 143.8 L514.5 144.2 L514.5 144.7 L514.9 144.7 L515.3 144.7 L515.7 144.7 L516.1 144.7 L516.1 144.2 L516.1 143.8 L516.1 143.3 L515.7 143.3 L515.3 143.3 L515.3 142.9 L514.9 142.9 L514.5 142.9 L514.5 143.3 Z M514.9 143.8 L515.3 143.8 L515.3 144.2 L514.9 144.2 L514.9 143.8 Z" fill="#2f8f83" fill-opacity="0.34" stroke="#0e5b52" stroke-width="1.6" />
  <path d="M471.2 132.8 L470.8 132.8 L470.8 133.2 L471.2 133.2 L471.2 132.8 Z" fill="#2f8f83" fill-opacity="0.34" stroke="#0e5b52" stroke-width="1.6" />
  <path d="M471.6 134.5 L471.2 134.5 L471.2 135.0 L471.6 135.0 L471.6 134.5 Z" fill="#2f8f83" fill-opacity="0.34" stroke="#0e5b52" stroke-width="1.6" />
  <path d="M470.8 133.2 L470.4 133.2 L470.4 133.6 L470.8 133.6 L470.8 133.2 Z" fill="#2f8f83" fill-opacity="0.34" stroke="#0e5b52" stroke-width="1.6" />
  <path d="M521.7 143.8 L521.7 144.2 L521.7 144.7 L521.7 145.1 L521.7 145.5 L521.7 146.0 L521.7 146.4 L521.7 146.9 L521.7 147.3 L521.7 147.8 L521.7 148.2 L522.1 148.2 L522.4 148.2 L522.8 148.2 L523.2 148.2 L523.6 148.2 L524.0 148.2 L524.4 148.2 L524.4 147.8 L524.4 147.3 L524.4 146.9 L524.4 146.4 L524.4 146.0 L524.4 145.5 L524.4 145.1 L524.4 144.7 L524.4 144.2 L524.0 144.2 L524.0 143.8 L524.0 143.3 L524.0 142.9 L523.6 142.9 L523.2 142.9 L522.8 142.9 L522.4 142.9 L522.1 142.9 L522.1 143.3 L521.7 143.3 L521.7 143.8 Z M522.1 146.9 L522.4 146.9 L522.8 146.9 L522.8 147.3 L522.8 147.8 L522.4 147.8 L522.1 147.8 L522.1 147.3 L522.1 146.9 Z" fill="#2f8f83" fill-opacity="0.34" stroke="#0e5b52" stroke-width="1.6" />
  <!-- title strip -->
  <rect x="0" y="0" width="1000" height="54" fill="#173042" />
  <text x="20" y="34" font-size="21" font-weight="bold" fill="#ffffff">Omineca Mining and Metals Ltd. — Mineral Claims</text>
  <text x="980" y="34" font-size="15" fill="#cfe3df" text-anchor="end">OMM</text>
  <!-- scale bar -->
  <g transform="translate(910, 596)">
    <rect x="0" y="0" width="25" height="8" fill="#173042" />
    <rect x="25" y="0" width="25" height="8" fill="#ffffff" stroke="#173042" stroke-width="1" />
    <text x="25" y="-6" font-size="12" fill="#173042" text-anchor="middle">50 km</text>
  </g>
  <!-- north arrow -->
  <g transform="translate(956, 92)">
    <circle r="17" fill="#ffffff" stroke="#b9b09a" />
    <path d="M0 -10 L5 7 L0 3 L-5 7 Z" fill="#173042" />
    <text y="14" font-size="9" font-weight="bold" fill="#173042" text-anchor="middle">N</text>
  </g>
  <!-- watermark -->
  <text x="20" y="620" font-size="13" fill="#7d8b8a">Map by Exploration Maps — explorationmaps.com</text>
</svg>