<svg xmlns="http://www.w3.org/2000/svg" viewBox="0 0 1000 640" font-family="Arial, Helvetica, sans-serif">
  <rect width="1000" height="640" fill="#f3efe6" />
  <line x1="200" y1="0" x2="200" y2="640" stroke="#d9d2c0" stroke-width="0.7" />
  <line x1="0" y1="128" x2="1000" y2="128" stroke="#d9d2c0" stroke-width="0.7" />
  <line x1="400" y1="0" x2="400" y2="640" stroke="#d9d2c0" stroke-width="0.7" />
  <line x1="0" y1="256" x2="1000" y2="256" stroke="#d9d2c0" stroke-width="0.7" />
  <line x1="600" y1="0" x2="600" y2="640" stroke="#d9d2c0" stroke-width="0.7" />
  <line x1="0" y1="384" x2="1000" y2="384" stroke="#d9d2c0" stroke-width="0.7" />
  <line x1="800" y1="0" x2="800" y2="640" stroke="#d9d2c0" stroke-width="0.7" />
  <line x1="0" y1="512" x2="1000" y2="512" stroke="#d9d2c0" stroke-width="0.7" />
  <path d="M470.6 403.9 L470.6 413.7 L470.6 423.5 L470.6 433.4 L470.6 443.2 L479.0 443.2 L487.4 443.2 L495.8 443.2 L504.2 443.2 L512.6 443.2 L512.6 433.4 L512.6 423.5 L512.6 413.7 L512.6 403.9 L512.6 394.1 L504.2 394.1 L495.8 394.1 L487.4 394.1 L479.0 394.1 L470.6 394.1 L470.6 403.9 Z" fill="#2f8f83" fill-opacity="0.34" stroke="#0e5b52" stroke-width="1.6" />
  <path d="M470.6 354.8 L470.6 364.6 L470.6 374.4 L470.6 384.2 L470.6 394.1 L479.0 394.1 L487.4 394.1 L495.8 394.1 L504.2 394.1 L512.6 394.1 L512.6 384.2 L512.6 374.4 L512.6 364.6 L512.6 354.7 L512.6 344.9 L504.2 344.9 L495.8 344.9 L487.4 344.9 L479.0 344.9 L470.6 344.9 L470.6 354.8 Z" fill="#2f8f83" fill-opacity="0.34" stroke="#0e5b52" stroke-width="1.6" />
  <path d="M470.6 305.6 L470.6 315.4 L470.6 325.3 L470.6 335.1 L470.6 344.9 L479.0 344.9 L487.4 344.9 L495.8 344.9 L504.2 344.9 L512.6 344.9 L512.6 335.1 L512.6 325.2 L512.6 315.4 L512.6 305.6 L512.6 295.7 L504.2 295.7 L495.8 295.7 L487.4 295.7 L479.0 295.7 L470.6 295.7 L470.6 305.6 Z" fill="#2f8f83" fill-opacity="0.34" stroke="#0e5b52" stroke-width="1.6" />
  <path d="M428.6 354.8 L428.6 364.6 L428.6 374.4 L428.6 384.2 L428.6 394.1 L437.0 394.1 L445.4 394.1 L453.8 394.1 L462.2 394.1 L470.6 394.1 L470.6 384.2 L470.6 374.4 L470.6 364.6 L470.6 354.8 L470.6 344.9 L462.2 344.9 L453.8 344.9 L445.4 344.9 L437.0 344.9 L428.6 344.9 L428.6 354.8 Z" fill="#2f8f83" fill-opacity="0.34" stroke="#0e5b52" stroke-width="1.6" />
  <path d="M428.6 305.6 L428.6 315.4 L428.6 325.3 L428.6 335.1 L428.6 344.9 L437.0 344.9 L445.4 344.9 L453.8 344.9 L462.2 344.9 L470.6 344.9 L470.6 335.1 L470.6 325.3 L470.6 315.4 L470.6 305.6 L470.6 295.7 L462.2 295.7 L453.8 295.7 L445.4 295.7 L437.0 295.7 L428.6 295.7 L428.6 305.6 Z" fill="#2f8f83" fill-opacity="0.34" stroke="#0e5b52" stroke-width="1.6" />
  <path d="M411.8 285.9 L411.8 295.7 L420.2 295.7 L428.6 295.7 L437.0 295.7 L445.4 295.7 L453.8 295.7 L462.2 295.7 L470.6 295.7 L479.0 295.7 L487.4 295.7 L495.8 295.7 L504.2 295.7 L512.6 295.7 L512.6 285.9 L512.6 276.1 L504.2 276.1 L495.8 276.1 L487.4 276.1 L479.0 276.1 L470.6 276.1 L462.2 276.1 L453.8 276.1 L445.4 276.1 L437.0 276.1 L428.6 276.1 L420.2 276.1 L411.8 276.1 L411.8 285.9 Z" fill="#2f8f83" fill-opacity="0.34" stroke="#0e5b52" stroke-width="1.6" />
  <path d="M386.6 305.6 L386.6 315.4 L386.6 325.3 L386.6 335.1 L386.6 344.9 L395.0 344.9 L403.4 344.9 L411.8 344.9 L420.2 344.9 L428.6 344.9 L428.6 335.1 L428.6 325.3 L428.6 315.4 L428.6 305.6 L428.6 295.7 L420.2 295.7 L411.8 295.7 L403.4 295.7 L395.0 295.7 L386.6 295.7 L386.6 305.6 Z" fill="#2f8f83" fill-opacity="0.34" stroke="#0e5b52" stroke-width="1.6" />
  <path d="M344.6 305.6 L344.6 315.4 L344.6 325.3 L344.6 335.1 L344.6 344.9 L353.0 344.9 L361.4 344.9 L369.8 344.9 L378.2 344.9 L386.6 344.9 L386.6 335.1 L386.6 325.3 L386.6 315.4 L386.6 305.6 L386.6 295.7 L378.2 295.7 L369.8 295.7 L361.4 295.7 L353.0 295.7 L344.6 295.7 L344.6 305.6 Z" fill="#2f8f83" fill-opacity="0.34" stroke="#0e5b52" stroke-width="1.6" />
  <path d="M344.6 285.9 L344.6 295.7 L353.0 295.7 L361.4 295.7 L369.8 295.7 L378.2 295.7 L386.6 295.7 L395.0 295.7 L403.4 295.7 L411.8 295.7 L411.8 285.9 L411.8 276.1 L403.4 276.1 L395.0 276.1 L386.6 276.1 L378.2 276.1 L369.8 276.1 L361.4 276.1 L353.0 276.1 L344.6 276.1 L344.6 285.9 Z" fill="#2f8f83" fill-opacity="0.34" stroke="#0e5b52" stroke-width="1.6" />
  <path d="M344.6 236.7 L344.6 246.5 L344.6 256.4 L344.6 266.2 L344.6 276.1 L353.0 276.1 L361.4 276.1 L369.8 276.1 L378.2 276.1 L378.2 266.2 L378.2 256.4 L378.2 246.5 L378.2 236.7 L378.2 226.9 L369.8 226.9 L361.4 226.9 L353.0 226.9 L344.6 226.9 L344.6 236.7 Z" fill="#2f8f83" fill-opacity="0.34" stroke="#0e5b52" stroke-width="1.6" />
  <path d="M378.2 236.7 L378.2 246.5 L378.2 256.4 L378.2 266.2 L378.2 276.1 L386.6 276.1 L395.0 276.1 L403.4 276.1 L403.4 266.2 L403.4 256.4 L403.4 246.5 L403.4 236.7 L403.4 226.9 L395.0 226.9 L386.6 226.9 L378.2 226.9 L378.2 236.7 Z" fill="#2f8f83" fill-opacity="0.34" stroke="#0e5b52" stroke-width="1.6" />
  <path d="M302.6 285.9 L302.6 295.8 L302.6 305.6 L302.6 315.4 L302.6 325.3 L311.0 325.3 L319.4 325.3 L327.8 325.3 L336.2 325.3 L344.6 325.3 L344.6 315.4 L344.6 305.6 L344.6 295.7 L344.6 285.9 L344.6 276.1 L336.2 276.1 L327.8 276.1 L319.4 276.1 L311.0 276.1 L302.6 276.1 L302.6 285.9 Z" fill="#2f8f83" fill-opacity="0.34" stroke="#0e5b52" stroke-width="1.6" />
  <path d="M327.8 335.1 L327.8 344.9 L336.2 344.9 L344.6 344.9 L344.6 335.1 L344.6 325.3 L336.2 325.3 L327.8 325.3 L327.8 335.1 Z" fill="#2f8f83" fill-opacity="0.34" stroke="#0e5b52" stroke-width="1.6" />
  <path d="M336.2 236.7 L336.2 246.6 L336.2 256.4 L336.2 266.2 L336.2 276.1 L344.6 276.1 L344.6 266.2 L344.6 256.4 L344.6 246.5 L344.6 236.7 L344.6 226.9 L336.2 226.9 L336.2 236.7 Z" fill="#2f8f83" fill-opacity="0.34" stroke="#0e5b52" stroke-width="1.6" />
  <path d="M403.4 236.7 L403.4 246.5 L403.4 256.4 L403.4 266.2 L403.4 276.1 L411.8 276.1 L420.2 276.1 L420.2 266.2 L420.2 256.4 L420.2 246.5 L420.2 236.7 L428.6 236.7 L437.0 236.7 L445.4 236.7 L445.4 246.5 L445.4 256.4 L445.4 266.2 L453.8 266.2 L453.8 256.4 L462.2 256.4 L462.2 246.5 L462.2 236.7 L462.2 226.9 L453.8 226.9 L445.4 226.9 L437.0 226.9 L428.6 226.9 L420.2 226.9 L411.8 226.9 L403.4 226.9 L403.4 236.7 Z" fill="#2f8f83" fill-opacity="0.34" stroke="#0e5b52" stroke-width="1.6" />
  <path d="M437.0 256.4 L437.0 246.5 L428.6 246.5 L428.6 256.4 L437.0 256.4 Z" fill="#2f8f83" fill-opacity="0.34" stroke="#0e5b52" stroke-width="1.6" />
  <path d="M437.0 256.4 L428.6 256.4 L428.6 266.2 L437.0 266.2 L445.4 266.2 L445.4 256.4 L437.0 256.4 Z" fill="#2f8f83" fill-opacity="0.34" stroke="#0e5b52" stroke-width="1.6" />
  <path d="M445.4 246.5 L445.4 236.7 L437.0 236.7 L437.0 246.5 L445.4 246.5 Z" fill="#2f8f83" fill-opacity="0.34" stroke="#0e5b52" stroke-width="1.6" />
  <path d="M437.0 246.5 L437.0 236.7 L428.6 236.7 L428.6 246.5 L437.0 246.5 Z" fill="#2f8f83" fill-opacity="0.34" stroke="#0e5b52" stroke-width="1.6" />
  <path d="M369.8 197.3 L369.8 207.2 L369.8 217.0 L369.8 226.9 L378.2 226.9 L386.6 226.9 L395.0 226.9 L403.4 226.9 L411.8 226.9 L420.2 226.9 L428.6 226.9 L437.0 226.9 L445.4 226.9 L453.8 226.9 L462.2 226.9 L462.2 217.0 L462.2 207.2 L462.2 197.3 L462.2 187.5 L453.8 187.5 L445.4 187.5 L437.0 187.5 L428.6 187.5 L420.2 187.5 L411.8 187.5 L403.4 187.5 L395.0 187.5 L386.6 187.5 L378.2 187.5 L369.8 187.5 L369.8 197.3 Z" fill="#2f8f83" fill-opacity="0.34" stroke="#0e5b52" stroke-width="1.6" />
  <path d="M495.8 443.2 L487.4 443.2 L487.4 453.0 L495.8 453.0 L495.8 462.8 L504.2 462.8 L512.6 462.8 L521.0 462.8 L529.4 462.8 L529.4 453.0 L529.4 443.2 L529.4 433.4 L529.4 423.5 L521.0 423.5 L521.0 413.7 L512.6 413.7 L512.6 423.5 L512.6 433.4 L512.6 443.2 L504.2 443.2 L495.8 443.2 Z" fill="#2f8f83" fill-opacity="0.34" stroke="#0e5b52" stroke-width="1.6" />
  <path d="M420.2 266.2 L420.2 276.1 L428.6 276.1 L437.0 276.1 L445.4 276.1 L453.8 276.1 L453.8 266.2 L445.4 266.2 L437.0 266.2 L428.6 266.2 L428.6 256.4 L420.2 256.4 L420.2 266.2 Z" fill="#2f8f83" fill-opacity="0.34" stroke="#0e5b52" stroke-width="1.6" />
  <path d="M445.4 256.4 L445.4 246.5 L437.0 246.5 L437.0 256.4 L445.4 256.4 Z" fill="#2f8f83" fill-opacity="0.34" stroke="#0e5b52" stroke-width="1.6" />
  <path d="M344.6 344.9 L336.2 344.9 L336.2 354.8 L344.6 354.8 L353.0 354.8 L353.0 344.9 L344.6 344.9 Z" fill="#2f8f83" fill-opacity="0.34" stroke="#0e5b52" stroke-width="1.6" />
  <path d="M294.2 157.9 L294.2 167.8 L294.2 177.6 L294.2 187.5 L302.6 187.5 L311.0 187.5 L319.4 187.5 L327.8 187.5 L336.2 187.5 L344.6 187.5 L344.6 177.6 L344.6 167.8 L344.6 157.9 L353.0 157.9 L361.4 157.9 L369.8 157.9 L369.8 167.8 L369.8 177.6 L369.8 187.5 L378.2 187.5 L386.6 187.5 L395.0 187.5 L403.4 187.5 L411.8 187.5 L420.2 187.5 L428.6 187.5 L428.6 177.6 L428.6 167.8 L428.6 157.9 L428.6 148.1 L428.6 138.2 L428.6 128.4 L428.6 118.5 L420.2 118.5 L411.8 118.5 L403.4 118.5 L395.0 118.5 L386.6 118.5 L378.2 118.5 L369.8 118.5 L369.8 128.4 L369.8 138.2 L361.4 138.2 L353.0 138.2 L344.6 138.2 L344.6 148.1 L336.2 148.1 L327.8 148.1 L319.4 148.1 L311.0 148.1 L302.6 148.1 L294.2 148.1 L294.2 157.9 Z" fill="#2f8f83" fill-opacity="0.34" stroke="#0e5b52" stroke-width="1.6" />
  <path d="M420.2 246.5 L420.2 256.4 L428.6 256.4 L428.6 246.5 L428.6 236.7 L420.2 236.7 L420.2 246.5 Z" fill="#2f8f83" fill-opacity="0.34" stroke="#0e5b52" stroke-width="1.6" />
  <path d="M269.0 266.2 L269.0 276.1 L269.0 285.9 L269.0 295.8 L269.0 305.6 L277.4 305.6 L285.8 305.6 L294.2 305.6 L302.6 305.6 L302.6 295.8 L302.6 285.9 L302.6 276.1 L302.6 266.2 L302.6 256.4 L294.2 256.4 L285.8 256.4 L277.4 256.4 L269.0 256.4 L269.0 266.2 Z" fill="#2f8f83" fill-opacity="0.34" stroke="#0e5b52" stroke-width="1.6" />
  <path d="M453.8 266.2 L453.8 276.1 L462.2 276.1 L470.6 276.1 L479.0 276.1 L487.4 276.1 L487.4 266.2 L487.4 256.4 L487.4 246.5 L487.4 236.7 L487.4 226.9 L487.4 217.0 L487.4 207.2 L487.4 197.3 L487.4 187.5 L479.0 187.5 L470.6 187.5 L462.2 187.5 L462.2 197.3 L462.2 207.2 L462.2 217.0 L462.2 226.9 L462.2 236.7 L462.2 246.5 L462.2 256.4 L453.8 256.4 L453.8 266.2 Z" fill="#2f8f83" fill-opacity="0.34" stroke="#0e5b52" stroke-width="1.6" />
  <path d="M487.4 197.3 L487.4 207.2 L487.4 217.0 L487.4 226.9 L487.4 236.7 L487.4 246.5 L487.4 256.4 L487.4 266.2 L487.4 276.1 L495.8 276.1 L504.2 276.1 L512.6 276.1 L512.6 266.2 L512.6 256.4 L512.6 246.5 L512.6 236.7 L512.6 226.9 L512.6 217.0 L512.6 207.2 L512.6 197.3 L504.2 197.3 L504.2 187.5 L495.8 187.5 L487.4 187.5 L487.4 197.3 Z" fill="#2f8f83" fill-opacity="0.34" stroke="#0e5b52" stroke-width="1.6" />
  <path d="M512.6 246.5 L512.6 256.4 L512.6 266.2 L512.6 276.1 L512.6 285.9 L512.6 295.7 L512.6 305.6 L512.6 315.4 L521.0 315.4 L529.4 315.4 L537.8 315.4 L537.8 305.6 L537.8 295.7 L537.8 285.9 L537.8 276.1 L537.8 266.2 L537.8 256.4 L537.8 246.5 L537.8 236.7 L529.4 236.7 L521.0 236.7 L512.6 236.7 L512.6 246.5 Z" fill="#2f8f83" fill-opacity="0.34" stroke="#0e5b52" stroke-width="1.6" />
  <path d="M605.0 374.4 L605.0 384.2 L613.4 384.2 L621.8 384.2 L630.2 384.2 L638.6 384.2 L647.0 384.2 L655.4 384.2 L663.8 384.2 L672.2 384.2 L680.6 384.2 L689.0 384.2 L697.4 384.2 L705.8 384.2 L705.8 374.4 L705.8 364.6 L697.4 364.6 L689.0 364.6 L680.6 364.6 L672.2 364.6 L663.8 364.6 L655.4 364.6 L647.0 364.6 L638.6 364.6 L630.2 364.6 L621.8 364.6 L613.4 364.6 L605.0 364.6 L605.0 374.4 Z" fill="#2f8f83" fill-opacity="0.34" stroke="#0e5b52" stroke-width="1.6" />
  <path d="M672.2 472.6 L672.2 482.5 L672.2 492.3 L672.2 502.1 L672.2 511.9 L680.6 511.9 L689.0 511.9 L697.4 511.9 L705.8 511.9 L714.2 511.9 L714.2 502.1 L714.2 492.3 L714.2 482.5 L714.2 472.6 L714.2 462.8 L705.8 462.8 L697.4 462.8 L689.0 462.8 L680.6 462.8 L672.2 462.8 L672.2 472.6 Z" fill="#2f8f83" fill-opacity="0.34" stroke="#0e5b52" stroke-width="1.6" />
  <path d="M588.2 433.4 L588.2 443.2 L596.6 443.2 L596.6 453.0 L605.0 453.0 L613.4 453.0 L613.4 443.2 L621.8 443.2 L621.8 433.4 L621.8 423.5 L613.4 423.5 L613.4 413.7 L605.0 413.7 L605.0 423.5 L596.6 423.5 L588.2 423.5 L588.2 433.4 Z" fill="#2f8f83" fill-opacity="0.34" stroke="#0e5b52" stroke-width="1.6" />
  <path d="M621.8 453.0 L621.8 443.2 L613.4 443.2 L613.4 453.0 L621.8 453.0 Z" fill="#2f8f83" fill-opacity="0.34" stroke="#0e5b52" stroke-width="1.6" />
  <path d="M672.2 354.7 L672.2 364.6 L680.6 364.6 L689.0 364.6 L697.4 364.6 L705.8 364.6 L705.8 374.4 L705.8 384.2 L714.2 384.2 L722.6 384.2 L731.0 384.2 L731.0 374.4 L731.0 364.6 L731.0 354.7 L731.0 344.9 L722.6 344.9 L714.2 344.9 L705.8 344.9 L697.4 344.9 L689.0 344.9 L680.6 344.9 L672.2 344.9 L672.2 354.7 Z" fill="#2f8f83" fill-opacity="0.34" stroke="#0e5b52" stroke-width="1.6" />
  <path d="M605.0 295.7 L605.0 305.6 L605.0 315.4 L605.0 325.2 L605.0 335.1 L613.4 335.1 L621.8 335.1 L630.2 335.1 L638.6 335.1 L647.0 335.1 L647.0 325.2 L647.0 315.4 L647.0 305.6 L647.0 295.7 L647.0 285.9 L638.6 285.9 L630.2 285.9 L630.2 295.7 L630.2 305.6 L621.8 305.6 L621.8 295.7 L621.8 285.9 L613.4 285.9 L605.0 285.9 L605.0 295.7 Z" fill="#2f8f83" fill-opacity="0.34" stroke="#0e5b52" stroke-width="1.6" />
  <path d="M605.0 344.9 L605.0 354.7 L605.0 364.6 L613.4 364.6 L621.8 364.6 L630.2 364.6 L638.6 364.6 L647.0 364.6 L655.4 364.6 L663.8 364.6 L672.2 364.6 L672.2 354.7 L672.2 344.9 L672.2 335.1 L663.8 335.1 L655.4 335.1 L647.0 335.1 L638.6 335.1 L630.2 335.1 L621.8 335.1 L613.4 335.1 L605.0 335.1 L605.0 344.9 Z" fill="#2f8f83" fill-opacity="0.34" stroke="#0e5b52" stroke-width="1.6" />
  <path d="M613.4 413.7 L613.4 423.5 L621.8 423.5 L621.8 433.4 L621.8 443.2 L621.8 453.0 L630.2 453.0 L638.6 453.0 L647.0 453.0 L655.4 453.0 L655.4 443.2 L655.4 433.4 L655.4 423.5 L655.4 413.7 L655.4 403.9 L647.0 403.9 L638.6 403.9 L630.2 403.9 L621.8 403.9 L613.4 403.9 L613.4 413.7 Z" fill="#2f8f83" fill-opacity="0.34" stroke="#0e5b52" stroke-width="1.6" />
  <path d="M571.4 511.9 L571.4 521.7 L579.8 521.7 L588.2 521.7 L596.6 521.7 L605.0 521.7 L613.4 521.7 L621.8 521.7 L630.2 521.7 L638.6 521.7 L647.0 521.7 L655.4 521.7 L663.8 521.7 L672.2 521.7 L672.2 511.9 L672.2 502.1 L663.8 502.1 L655.4 502.1 L647.0 502.1 L638.6 502.1 L630.2 502.1 L621.8 502.1 L613.4 502.1 L605.0 502.1 L596.6 502.1 L588.2 502.1 L579.8 502.1 L571.4 502.1 L571.4 511.9 Z" fill="#2f8f83" fill-opacity="0.34" stroke="#0e5b52" stroke-width="1.6" />
  <path d="M672.2 394.1 L672.2 403.9 L672.2 413.7 L672.2 423.5 L680.6 423.5 L689.0 423.5 L697.4 423.5 L705.8 423.5 L714.2 423.5 L722.6 423.5 L722.6 413.7 L722.6 403.9 L722.6 394.1 L722.6 384.2 L714.2 384.2 L705.8 384.2 L697.4 384.2 L689.0 384.2 L680.6 384.2 L672.2 384.2 L672.2 394.1 Z" fill="#2f8f83" fill-opacity="0.34" stroke="#0e5b52" stroke-width="1.6" />
  <path d="M579.8 492.3 L579.8 502.1 L588.2 502.1 L596.6 502.1 L605.0 502.1 L613.4 502.1 L621.8 502.1 L630.2 502.1 L638.6 502.1 L647.0 502.1 L655.4 502.1 L663.8 502.1 L672.2 502.1 L672.2 492.3 L672.2 482.5 L663.8 482.5 L655.4 482.5 L655.4 472.6 L647.0 472.6 L638.6 472.6 L638.6 482.5 L630.2 482.5 L621.8 482.5 L613.4 482.5 L605.0 482.5 L596.6 482.5 L588.2 482.5 L579.8 482.5 L579.8 492.3 Z" fill="#2f8f83" fill-opacity="0.34" stroke="#0e5b52" stroke-width="1.6" />
  <path d="M638.6 462.8 L638.6 472.6 L647.0 472.6 L655.4 472.6 L655.4 482.5 L663.8 482.5 L672.2 482.5 L672.2 472.6 L672.2 462.8 L672.2 453.0 L672.2 443.2 L672.2 433.4 L672.2 423.5 L672.2 413.7 L672.2 403.9 L672.2 394.1 L672.2 384.2 L663.8 384.2 L655.4 384.2 L655.4 394.1 L655.4 403.9 L655.4 413.7 L655.4 423.5 L655.4 433.4 L655.4 443.2 L655.4 453.0 L647.0 453.0 L638.6 453.0 L638.6 462.8 Z" fill="#2f8f83" fill-opacity="0.34" stroke="#0e5b52" stroke-width="1.6" />
  <path d="M563.0 394.1 L563.0 403.9 L571.4 403.9 L579.8 403.9 L588.2 403.9 L596.6 403.9 L605.0 403.9 L613.4 403.9 L621.8 403.9 L630.2 403.9 L638.6 403.9 L647.0 403.9 L655.4 403.9 L655.4 394.1 L655.4 384.2 L647.0 384.2 L638.6 384.2 L630.2 384.2 L621.8 384.2 L613.4 384.2 L605.0 384.2 L596.6 384.2 L588.2 384.2 L579.8 384.2 L571.4 384.2 L563.0 384.2 L563.0 394.1 Z" fill="#2f8f83" fill-opacity="0.34" stroke="#0e5b52" stroke-width="1.6" />
  <path d="M571.4 403.9 L563.0 403.9 L563.0 413.7 L571.4 413.7 L571.4 423.5 L579.8 423.5 L579.8 433.4 L579.8 443.2 L579.8 453.0 L588.2 453.0 L588.2 443.2 L588.2 433.4 L588.2 423.5 L596.6 423.5 L605.0 423.5 L605.0 413.7 L613.4 413.7 L613.4 403.9 L605.0 403.9 L596.6 403.9 L588.2 403.9 L579.8 403.9 L571.4 403.9 Z" fill="#2f8f83" fill-opacity="0.34" stroke="#0e5b52" stroke-width="1.6" />
  <path d="M554.6 472.6 L554.6 482.5 L554.6 492.3 L554.6 502.1 L554.6 511.9 L554.6 521.7 L563.0 521.7 L571.4 521.7 L571.4 511.9 L571.4 502.1 L579.8 502.1 L579.8 492.3 L579.8 482.5 L571.4 482.5 L571.4 472.6 L571.4 462.8 L563.0 462.8 L554.6 462.8 L554.6 472.6 Z" fill="#2f8f83" fill-opacity="0.34" stroke="#0e5b52" stroke-width="1.6" />
  <path d="M571.4 472.6 L571.4 482.5 L579.8 482.5 L588.2 482.5 L596.6 482.5 L605.0 482.5 L613.4 482.5 L621.8 482.5 L630.2 482.5 L638.6 482.5 L638.6 472.6 L638.6 462.8 L638.6 453.0 L630.2 453.0 L621.8 453.0 L613.4 453.0 L605.0 453.0 L596.6 453.0 L596.6 443.2 L588.2 443.2 L588.2 453.0 L579.8 453.0 L579.8 462.8 L571.4 462.8 L571.4 472.6 Z" fill="#2f8f83" fill-opacity="0.34" stroke="#0e5b52" stroke-width="1.6" />
  <path d="M563.0 325.2 L563.0 335.1 L571.4 335.1 L571.4 344.9 L563.0 344.9 L563.0 354.7 L563.0 364.6 L563.0 374.4 L563.0 384.2 L571.4 384.2 L579.8 384.2 L588.2 384.2 L596.6 384.2 L605.0 384.2 L605.0 374.4 L605.0 364.6 L605.0 354.7 L605.0 344.9 L605.0 335.1 L605.0 325.2 L605.0 315.4 L605.0 305.6 L605.0 295.7 L605.0 285.9 L596.6 285.9 L588.2 285.9 L588.2 295.7 L588.2 305.6 L588.2 315.4 L579.8 315.4 L571.4 315.4 L563.0 315.4 L563.0 325.2 Z" fill="#2f8f83" fill-opacity="0.34" stroke="#0e5b52" stroke-width="1.6" />
  <path d="M546.2 276.1 L537.8 276.1 L537.8 285.9 L546.2 285.9 L554.6 285.9 L563.0 285.9 L571.4 285.9 L579.8 285.9 L588.2 285.9 L596.6 285.9 L605.0 285.9 L605.0 276.1 L596.6 276.1 L588.2 276.1 L579.8 276.1 L571.4 276.1 L563.0 276.1 L554.6 276.1 L546.2 276.1 Z" fill="#2f8f83" fill-opacity="0.34" stroke="#0e5b52" stroke-width="1.6" />
  <path d="M428.6 167.8 L428.6 177.6 L428.6 187.5 L437.0 187.5 L445.4 187.5 L453.8 187.5 L453.8 177.6 L445.4 177.6 L445.4 167.8 L437.0 167.8 L437.0 157.9 L428.6 157.9 L428.6 167.8 Z" fill="#2f8f83" fill-opacity="0.34" stroke="#0e5b52" stroke-width="1.6" />
  <!-- title strip -->
  <rect x="0" y="0" width="1000" height="54" fill="#173042" />
  <text x="20" y="34" font-size="21" font-weight="bold" fill="#ffffff">Pacific Empire Minerals Corp. — Mineral Claims</text>
  <text x="980" y="34" font-size="15" fill="#cfe3df" text-anchor="end">PEMC</text>
  <!-- scale bar -->
  <g transform="translate(853.9838438559455, 596)">
    <rect x="0" y="0" width="53.00807807202727" height="8" fill="#173042" />
    <rect x="53.00807807202727" y="0" width="53.00807807202727" height="8" fill="#ffffff" stroke="#173042" stroke-width="1" />
    <text x="53.00807807202727" y="-6" font-size="12" fill="#173042" text-anchor="middle">5 km</text>
  </g>
  <!-- north arrow -->
  <g transform="translate(956, 92)">
    <circle r="17" fill="#ffffff" stroke="#b9b09a" />
    <path d="M0 -10 L5 7 L0 3 L-5 7 Z" fill="#173042" />
    <text y="14" font-size="9" font-weight="bold" fill="#173042" text-anchor="middle">N</text>
  </g>
  <!-- watermark -->
  <text x="20" y="620" font-size="13" fill="#7d8b8a">Map by Exploration Maps — explorationmaps.com</text>
</svg>