<svg xmlns="http://www.w3.org/2000/svg" viewBox="0 0 1000 640" font-family="Arial, Helvetica, sans-serif">
  <rect width="1000" height="640" fill="#f3efe6" />
  <line x1="200" y1="0" x2="200" y2="640" stroke="#d9d2c0" stroke-width="0.7" />
  <line x1="0" y1="128" x2="1000" y2="128" stroke="#d9d2c0" stroke-width="0.7" />
  <line x1="400" y1="0" x2="400" y2="640" stroke="#d9d2c0" stroke-width="0.7" />
  <line x1="0" y1="256" x2="1000" y2="256" stroke="#d9d2c0" stroke-width="0.7" />
  <line x1="600" y1="0" x2="600" y2="640" stroke="#d9d2c0" stroke-width="0.7" />
  <line x1="0" y1="384" x2="1000" y2="384" stroke="#d9d2c0" stroke-width="0.7" />
  <line x1="800" y1="0" x2="800" y2="640" stroke="#d9d2c0" stroke-width="0.7" />
  <line x1="0" y1="512" x2="1000" y2="512" stroke="#d9d2c0" stroke-width="0.7" />
  <path d="M414.0 144.0 L413.0 144.0 L413.0 145.0 L414.0 145.0 L414.0 144.0 Z" fill="#2f8f83" fill-opacity="0.34" stroke="#0e5b52" stroke-width="1.6" />
  <path d="M414.0 146.0 L414.0 145.0 L413.0 145.0 L413.0 146.0 L414.0 146.0 Z" fill="#2f8f83" fill-opacity="0.34" stroke="#0e5b52" stroke-width="1.6" />
  <path d="M414.1 144.0 L414.0 144.0 L414.0 145.0 L414.9 145.0 L414.9 144.0 L414.1 144.0 Z" fill="#2f8f83" fill-opacity="0.34" stroke="#0e5b52" stroke-width="1.6" />
  <path d="M414.9 146.0 L414.9 145.0 L414.0 145.0 L414.0 146.0 L414.9 146.0 Z" fill="#2f8f83" fill-opacity="0.34" stroke="#0e5b52" stroke-width="1.6" />
  <path d="M415.9 146.0 L415.9 145.0 L414.9 145.0 L414.9 146.0 L415.9 146.0 Z" fill="#2f8f83" fill-opacity="0.34" stroke="#0e5b52" stroke-width="1.6" />
  <path d="M416.8 145.0 L416.8 144.0 L415.9 144.0 L415.9 145.0 L416.8 145.0 Z" fill="#2f8f83" fill-opacity="0.34" stroke="#0e5b52" stroke-width="1.6" />
  <path d="M416.8 146.0 L416.8 145.0 L415.9 145.0 L415.9 146.0 L416.8 146.0 Z" fill="#2f8f83" fill-opacity="0.34" stroke="#0e5b52" stroke-width="1.6" />
  <path d="M417.8 146.0 L417.8 145.0 L416.8 145.0 L416.8 146.0 L417.8 146.0 Z" fill="#2f8f83" fill-opacity="0.34" stroke="#0e5b52" stroke-width="1.6" />
  <path d="M414.0 146.9 L414.0 146.0 L413.0 146.0 L413.0 146.9 L414.0 146.9 L414.0 146.9 Z" fill="#2f8f83" fill-opacity="0.34" stroke="#0e5b52" stroke-width="1.6" />
  <path d="M414.0 147.2 L414.0 146.9 L414.0 146.9 L413.0 146.9 L413.0 147.2 L413.0 147.9 L414.0 147.9 L414.0 147.2 Z" fill="#2f8f83" fill-opacity="0.34" stroke="#0e5b52" stroke-width="1.6" />
  <path d="M414.9 146.0 L414.0 146.0 L414.0 146.9 L414.0 146.9 L414.9 146.9 L414.9 146.0 Z" fill="#2f8f83" fill-opacity="0.34" stroke="#0e5b52" stroke-width="1.6" />
  <path d="M414.9 146.9 L414.0 146.9 L414.0 147.2 L414.0 147.9 L414.9 147.9 L414.9 147.2 L414.9 146.9 Z" fill="#2f8f83" fill-opacity="0.34" stroke="#0e5b52" stroke-width="1.6" />
  <path d="M415.9 146.9 L415.9 146.0 L414.9 146.0 L414.9 146.9 L415.9 146.9 L415.9 146.9 Z" fill="#2f8f83" fill-opacity="0.34" stroke="#0e5b52" stroke-width="1.6" />
  <path d="M415.9 147.2 L415.9 146.9 L415.9 146.9 L414.9 146.9 L414.9 147.2 L414.9 147.9 L415.4 147.9 L415.8 147.9 L415.9 147.9 L415.9 147.2 Z" fill="#2f8f83" fill-opacity="0.34" stroke="#0e5b52" stroke-width="1.6" />
  <path d="M416.8 146.9 L416.8 146.9 L416.8 146.9 L416.8 146.0 L415.9 146.0 L415.9 146.9 L415.9 146.9 L416.8 146.9 Z" fill="#2f8f83" fill-opacity="0.34" stroke="#0e5b52" stroke-width="1.6" />
  <path d="M416.8 147.2 L416.8 146.9 L416.8 146.9 L415.9 146.9 L415.9 147.2 L415.9 147.9 L416.8 147.9 L416.8 147.2 Z" fill="#2f8f83" fill-opacity="0.34" stroke="#0e5b52" stroke-width="1.6" />
  <path d="M417.8 146.9 L417.8 146.0 L416.8 146.0 L416.8 146.9 L416.8 146.9 L417.8 146.9 Z" fill="#2f8f83" fill-opacity="0.34" stroke="#0e5b52" stroke-width="1.6" />
  <path d="M417.8 147.6 L417.8 147.2 L417.8 146.9 L416.8 146.9 L416.8 146.9 L416.8 146.9 L416.8 147.2 L416.8 147.9 L417.8 147.9 L417.8 147.6 Z" fill="#2f8f83" fill-opacity="0.34" stroke="#0e5b52" stroke-width="1.6" />
  <path d="M417.8 145.0 L418.8 145.0 L418.8 144.0 L417.8 144.0 L417.8 145.0 Z" fill="#2f8f83" fill-opacity="0.34" stroke="#0e5b52" stroke-width="1.6" />
  <path d="M418.7 146.9 L418.8 146.0 L418.6 146.0 L417.8 146.0 L417.8 146.9 L418.7 146.9 Z" fill="#2f8f83" fill-opacity="0.34" stroke="#0e5b52" stroke-width="1.6" />
  <path d="M418.7 146.9 L417.8 146.9 L417.8 147.2 L417.8 147.6 L417.8 147.9 L417.8 147.9 L418.7 147.9 L418.7 147.2 L418.7 146.9 Z" fill="#2f8f83" fill-opacity="0.34" stroke="#0e5b52" stroke-width="1.6" />
  <path d="M418.7 146.9 L419.7 146.9 L419.7 146.0 L418.8 146.0 L418.7 146.9 Z" fill="#2f8f83" fill-opacity="0.34" stroke="#0e5b52" stroke-width="1.6" />
  <path d="M419.7 146.9 L418.7 146.9 L418.7 147.2 L418.7 147.9 L419.7 147.9 L419.7 147.2 L419.7 146.9 Z" fill="#2f8f83" fill-opacity="0.34" stroke="#0e5b52" stroke-width="1.6" />
  <path d="M413.0 147.9 L413.0 147.2 L413.0 146.9 L412.0 146.9 L412.0 147.2 L412.0 147.9 L413.0 147.9 L413.0 147.9 Z" fill="#2f8f83" fill-opacity="0.34" stroke="#0e5b52" stroke-width="1.6" />
  <path d="M413.0 146.0 L412.0 146.0 L412.0 146.9 L412.0 146.9 L413.0 146.9 L413.0 146.0 Z" fill="#2f8f83" fill-opacity="0.34" stroke="#0e5b52" stroke-width="1.6" />
  <path d="M412.0 147.2 L412.0 146.9 L412.0 146.9 L411.1 146.9 L411.1 147.2 L411.1 147.9 L411.1 147.9 L412.0 147.9 L412.0 147.2 Z" fill="#2f8f83" fill-opacity="0.34" stroke="#0e5b52" stroke-width="1.6" />
  <path d="M412.0 146.9 L412.0 146.9 L412.0 146.0 L411.1 146.0 L411.1 146.9 L412.0 146.9 Z" fill="#2f8f83" fill-opacity="0.34" stroke="#0e5b52" stroke-width="1.6" />
  <path d="M413.0 148.8 L412.0 148.8 L412.0 149.8 L413.0 149.8 L413.0 148.8 Z" fill="#2f8f83" fill-opacity="0.34" stroke="#0e5b52" stroke-width="1.6" />
  <path d="M413.0 147.9 L413.0 147.9 L412.0 147.9 L412.0 148.8 L413.0 148.8 L413.0 147.9 Z" fill="#2f8f83" fill-opacity="0.34" stroke="#0e5b52" stroke-width="1.6" />
  <path d="M412.0 148.8 L411.1 148.8 L411.1 149.8 L412.0 149.8 L412.0 148.8 Z" fill="#2f8f83" fill-opacity="0.34" stroke="#0e5b52" stroke-width="1.6" />
  <path d="M412.0 147.9 L411.1 147.9 L411.1 147.9 L411.1 148.8 L412.0 148.8 L412.0 147.9 Z" fill="#2f8f83" fill-opacity="0.34" stroke="#0e5b52" stroke-width="1.6" />
  <path d="M413.0 146.0 L413.0 145.0 L412.0 145.0 L412.0 146.0 L413.0 146.0 Z" fill="#2f8f83" fill-opacity="0.34" stroke="#0e5b52" stroke-width="1.6" />
  <path d="M413.0 145.0 L413.0 144.0 L412.9 144.0 L412.0 144.0 L412.0 145.0 L413.0 145.0 Z" fill="#2f8f83" fill-opacity="0.34" stroke="#0e5b52" stroke-width="1.6" />
  <path d="M411.1 145.0 L410.1 145.0 L410.1 146.0 L411.1 146.0 L411.1 145.0 Z" fill="#2f8f83" fill-opacity="0.34" stroke="#0e5b52" stroke-width="1.6" />
  <path d="M411.1 144.0 L410.1 144.0 L410.1 145.0 L411.1 145.0 L411.1 144.0 Z" fill="#2f8f83" fill-opacity="0.34" stroke="#0e5b52" stroke-width="1.6" />
  <path d="M411.1 143.5 L411.1 143.1 L410.1 143.1 L410.1 144.0 L411.1 144.0 L411.1 143.5 Z" fill="#2f8f83" fill-opacity="0.34" stroke="#0e5b52" stroke-width="1.6" />
  <path d="M417.7 144.0 L417.7 144.0 L417.7 143.5 L417.7 143.5 L416.5 143.5 L416.5 144.0 L417.7 144.0 Z" fill="#2f8f83" fill-opacity="0.34" stroke="#0e5b52" stroke-width="1.6" />
  <path d="M418.7 143.5 L417.7 143.5 L417.7 144.0 L417.7 144.0 L418.7 144.0 L418.7 143.5 Z" fill="#2f8f83" fill-opacity="0.34" stroke="#0e5b52" stroke-width="1.6" />
  <path d="M415.3 144.0 L416.5 144.0 L416.5 143.5 L415.3 143.5 L415.3 144.0 L415.3 144.0 L415.3 144.0 Z" fill="#2f8f83" fill-opacity="0.34" stroke="#0e5b52" stroke-width="1.6" />
  <path d="M415.3 144.0 L415.3 144.0 L415.3 143.5 L414.1 143.5 L414.1 144.0 L414.9 144.0 L415.3 144.0 L415.3 144.0 Z" fill="#2f8f83" fill-opacity="0.34" stroke="#0e5b52" stroke-width="1.6" />
  <path d="M414.1 143.5 L412.9 143.5 L412.9 144.0 L413.0 144.0 L414.0 144.0 L414.1 144.0 L414.1 143.5 Z" fill="#2f8f83" fill-opacity="0.34" stroke="#0e5b52" stroke-width="1.6" />
  <path d="M412.9 143.5 L411.7 143.5 L411.7 144.0 L412.0 144.0 L412.9 144.0 L412.9 143.5 Z" fill="#2f8f83" fill-opacity="0.34" stroke="#0e5b52" stroke-width="1.6" />
  <path d="M411.7 143.5 L411.1 143.5 L411.1 144.0 L411.7 144.0 L411.7 143.5 Z" fill="#2f8f83" fill-opacity="0.34" stroke="#0e5b52" stroke-width="1.6" />
  <path d="M528.5 390.4 L528.5 391.5 L528.5 392.6 L528.5 393.6 L528.5 394.7 L528.5 395.8 L528.5 396.9 L529.4 396.9 L530.3 396.9 L531.2 396.9 L532.1 396.9 L533.1 396.9 L533.1 398.0 L533.1 399.1 L534.0 399.1 L534.9 399.1 L534.9 398.0 L534.9 396.9 L535.8 396.9 L535.8 395.8 L535.8 394.7 L534.9 394.7 L534.0 394.7 L533.1 394.7 L532.1 394.7 L531.2 394.7 L530.3 394.7 L529.4 394.7 L529.4 393.6 L529.4 392.6 L529.4 391.5 L529.4 390.4 L529.4 389.3 L528.5 389.3 L528.5 390.4 Z" fill="#2f8f83" fill-opacity="0.34" stroke="#0e5b52" stroke-width="1.6" />
  <path d="M534.0 400.1 L534.0 401.2 L534.9 401.2 L535.8 401.2 L536.7 401.2 L537.6 401.2 L538.6 401.2 L538.6 400.1 L538.6 399.1 L538.6 398.0 L538.6 396.9 L538.6 395.8 L538.6 394.7 L537.6 394.7 L536.7 394.7 L535.8 394.7 L535.8 395.8 L535.8 396.9 L534.9 396.9 L534.9 398.0 L534.9 399.1 L534.0 399.1 L534.0 400.1 Z" fill="#2f8f83" fill-opacity="0.34" stroke="#0e5b52" stroke-width="1.6" />
  <path d="M534.0 402.3 L534.0 403.4 L534.0 404.5 L534.9 404.5 L535.8 404.5 L535.8 405.5 L535.8 406.6 L535.8 407.7 L535.8 408.8 L536.7 408.8 L536.7 407.7 L537.6 407.7 L538.6 407.7 L538.6 406.6 L538.6 405.5 L538.6 404.5 L538.6 403.4 L538.6 402.3 L538.6 401.2 L537.6 401.2 L536.7 401.2 L535.8 401.2 L534.9 401.2 L534.0 401.2 L534.0 402.3 Z" fill="#2f8f83" fill-opacity="0.34" stroke="#0e5b52" stroke-width="1.6" />
  <path d="M538.6 395.8 L538.6 396.9 L538.6 398.0 L538.6 399.1 L538.6 400.1 L539.5 400.1 L540.4 400.1 L541.3 400.1 L542.2 400.1 L543.2 400.1 L543.2 399.1 L543.2 398.0 L543.2 396.9 L543.2 395.8 L543.2 394.7 L542.2 394.7 L541.3 394.7 L540.4 394.7 L539.5 394.7 L538.6 394.7 L538.6 395.8 Z" fill="#2f8f83" fill-opacity="0.34" stroke="#0e5b52" stroke-width="1.6" />
  <path d="M538.6 401.2 L538.6 402.3 L538.6 403.4 L538.6 404.5 L538.6 405.5 L539.5 405.5 L540.4 405.5 L541.3 405.5 L542.2 405.5 L543.2 405.5 L543.2 404.5 L543.2 403.4 L543.2 402.3 L543.2 401.2 L543.2 400.1 L542.2 400.1 L541.3 400.1 L540.4 400.1 L539.5 400.1 L538.6 400.1 L538.6 401.2 Z" fill="#2f8f83" fill-opacity="0.34" stroke="#0e5b52" stroke-width="1.6" />
  <path d="M538.6 406.6 L538.6 407.7 L538.6 408.8 L538.6 409.9 L538.6 410.9 L539.5 410.9 L540.4 410.9 L541.3 410.9 L542.2 410.9 L543.2 410.9 L543.2 409.9 L543.2 408.8 L543.2 407.7 L543.2 406.6 L543.2 405.5 L542.2 405.5 L541.3 405.5 L540.4 405.5 L539.5 405.5 L538.6 405.5 L538.6 406.6 Z" fill="#2f8f83" fill-opacity="0.34" stroke="#0e5b52" stroke-width="1.6" />
  <path d="M538.6 412.0 L538.6 413.1 L538.6 414.2 L538.6 415.3 L538.6 416.3 L539.5 416.3 L540.4 416.3 L541.3 416.3 L542.2 416.3 L543.2 416.3 L543.2 415.3 L543.2 414.2 L543.2 413.1 L543.2 412.0 L543.2 410.9 L542.2 410.9 L541.3 410.9 L540.4 410.9 L539.5 410.9 L538.6 410.9 L538.6 412.0 Z" fill="#2f8f83" fill-opacity="0.34" stroke="#0e5b52" stroke-width="1.6" />
  <path d="M535.8 408.8 L534.9 408.8 L534.9 409.9 L535.8 409.9 L535.8 410.9 L536.7 410.9 L536.7 412.0 L536.7 413.1 L537.6 413.1 L537.6 414.2 L537.6 415.3 L538.6 415.3 L538.6 414.2 L538.6 413.1 L538.6 412.0 L538.6 410.9 L538.6 409.9 L538.6 408.8 L538.6 407.7 L537.6 407.7 L536.7 407.7 L536.7 408.8 L535.8 408.8 Z" fill="#2f8f83" fill-opacity="0.34" stroke="#0e5b52" stroke-width="1.6" />
  <path d="M404.5 142.8 L404.5 143.9 L405.4 143.9 L406.4 143.9 L407.3 143.9 L408.2 143.9 L409.1 143.9 L410.0 143.9 L411.0 143.9 L411.9 143.9 L412.8 143.9 L412.8 142.8 L412.8 141.7 L412.8 140.6 L411.9 140.6 L411.0 140.6 L410.0 140.6 L409.1 140.6 L408.2 140.6 L407.3 140.6 L406.4 140.6 L406.4 141.7 L405.4 141.7 L404.5 141.7 L404.5 142.8 Z" fill="#2f8f83" fill-opacity="0.34" stroke="#0e5b52" stroke-width="1.6" />
  <path d="M405.4 146.1 L405.4 147.2 L406.4 147.2 L407.3 147.2 L408.2 147.2 L409.1 147.2 L410.0 147.2 L411.0 147.2 L411.9 147.2 L411.9 146.1 L411.0 146.1 L411.0 145.0 L411.0 143.9 L410.0 143.9 L409.1 143.9 L408.2 143.9 L407.3 143.9 L406.4 143.9 L405.4 143.9 L404.5 143.9 L404.5 145.0 L405.4 145.0 L405.4 146.1 Z" fill="#2f8f83" fill-opacity="0.34" stroke="#0e5b52" stroke-width="1.6" />
  <path d="M405.4 150.6 L406.4 150.6 L407.3 150.6 L408.2 150.6 L409.1 150.6 L410.0 150.6 L411.0 150.6 L411.9 150.6 L411.9 149.4 L411.9 148.3 L411.9 147.2 L411.0 147.2 L410.0 147.2 L409.1 147.2 L408.2 147.2 L407.3 147.2 L406.4 147.2 L405.4 147.2 L405.4 148.3 L405.4 149.4 L404.5 149.4 L404.5 150.6 L405.4 150.6 Z" fill="#2f8f83" fill-opacity="0.34" stroke="#0e5b52" stroke-width="1.6" />
  <path d="M403.6 138.4 L404.5 138.4 L405.4 138.4 L406.4 138.4 L406.4 139.5 L406.4 140.6 L407.3 140.6 L408.2 140.6 L409.1 140.6 L410.0 140.6 L411.0 140.6 L411.9 140.6 L412.8 140.6 L412.8 139.5 L412.8 138.4 L412.8 137.2 L411.9 137.2 L411.0 137.2 L410.0 137.2 L409.1 137.2 L408.2 137.2 L407.3 137.2 L406.4 137.2 L405.4 137.2 L404.5 137.2 L403.6 137.2 L402.7 137.2 L402.7 138.4 L403.6 138.4 Z" fill="#2f8f83" fill-opacity="0.34" stroke="#0e5b52" stroke-width="1.6" />
  <path d="M412.8 150.6 L412.8 151.7 L413.7 151.7 L414.6 151.7 L415.5 151.7 L416.5 151.7 L417.4 151.7 L418.3 151.7 L418.3 150.6 L418.3 149.4 L417.4 149.4 L417.4 148.3 L417.4 147.2 L416.5 147.2 L415.5 147.2 L414.6 147.2 L413.7 147.2 L412.8 147.2 L412.8 148.3 L412.8 149.4 L412.8 150.6 Z" fill="#2f8f83" fill-opacity="0.34" stroke="#0e5b52" stroke-width="1.6" />
  <path d="M419.2 147.2 L420.1 147.2 L421.1 147.2 L422.0 147.2 L422.9 147.2 L423.8 147.2 L424.7 147.2 L424.7 146.1 L424.7 145.0 L424.7 143.9 L425.6 143.9 L425.6 142.8 L424.7 142.8 L423.8 142.8 L422.9 142.8 L422.0 142.8 L421.1 142.8 L420.1 142.8 L420.1 143.9 L419.2 143.9 L419.2 145.0 L418.3 145.0 L418.3 146.1 L419.2 146.1 L419.2 147.2 Z" fill="#2f8f83" fill-opacity="0.34" stroke="#0e5b52" stroke-width="1.6" />
  <path d="M417.4 148.3 L417.4 149.4 L418.3 149.4 L418.3 150.6 L418.3 151.7 L418.3 152.8 L418.3 153.9 L418.3 155.0 L419.2 155.0 L420.1 155.0 L421.1 155.0 L422.0 155.0 L422.9 155.0 L422.9 153.9 L423.8 153.9 L424.7 153.9 L424.7 152.8 L424.7 151.7 L424.7 150.6 L424.7 149.4 L424.7 148.3 L424.7 147.2 L423.8 147.2 L422.9 147.2 L422.0 147.2 L421.1 147.2 L420.1 147.2 L419.2 147.2 L418.3 147.2 L417.4 147.2 L417.4 148.3 Z" fill="#2f8f83" fill-opacity="0.34" stroke="#0e5b52" stroke-width="1.6" />
  <path d="M416.5 142.8 L415.5 142.8 L415.5 143.9 L416.5 143.9 L416.5 142.8 Z" fill="#2f8f83" fill-opacity="0.34" stroke="#0e5b52" stroke-width="1.6" />
  <path d="M419.2 143.9 L418.3 143.9 L418.3 145.0 L419.2 145.0 L419.2 143.9 Z" fill="#2f8f83" fill-opacity="0.34" stroke="#0e5b52" stroke-width="1.6" />
  <path d="M403.6 141.7 L404.5 141.7 L404.5 140.6 L403.6 140.6 L402.7 140.6 L402.7 141.7 L403.6 141.7 Z" fill="#2f8f83" fill-opacity="0.34" stroke="#0e5b52" stroke-width="1.6" />
  <path d="M401.8 141.7 L400.9 141.7 L400.9 142.8 L401.8 142.8 L401.8 141.7 Z" fill="#2f8f83" fill-opacity="0.34" stroke="#0e5b52" stroke-width="1.6" />
  <path d="M402.7 142.8 L403.6 142.8 L403.6 141.7 L402.7 141.7 L401.8 141.7 L401.8 142.8 L402.7 142.8 Z" fill="#2f8f83" fill-opacity="0.34" stroke="#0e5b52" stroke-width="1.6" />
  <path d="M399.9 142.8 L400.9 142.8 L400.9 141.7 L399.9 141.7 L399.0 141.7 L399.0 142.8 L399.9 142.8 Z" fill="#2f8f83" fill-opacity="0.34" stroke="#0e5b52" stroke-width="1.6" />
  <path d="M397.2 137.2 L397.2 138.4 L398.1 138.4 L399.0 138.4 L399.9 138.4 L400.9 138.4 L400.9 139.5 L400.9 140.6 L399.9 140.6 L399.0 140.6 L398.1 140.6 L398.1 141.7 L399.0 141.7 L399.9 141.7 L400.9 141.7 L401.8 141.7 L401.8 140.6 L401.8 139.5 L401.8 138.4 L401.8 137.2 L400.9 137.2 L399.9 137.2 L399.0 137.2 L399.0 136.1 L398.1 136.1 L397.2 136.1 L397.2 137.2 Z" fill="#2f8f83" fill-opacity="0.34" stroke="#0e5b52" stroke-width="1.6" />
  <path d="M412.8 141.7 L412.8 142.8 L413.7 142.8 L413.7 141.7 L414.6 141.7 L414.6 140.6 L413.7 140.6 L412.8 140.6 L412.8 141.7 Z" fill="#2f8f83" fill-opacity="0.34" stroke="#0e5b52" stroke-width="1.6" />
  <path d="M417.4 145.0 L418.3 145.0 L418.3 143.9 L417.4 143.9 L416.5 143.9 L416.5 145.0 L417.4 145.0 Z" fill="#2f8f83" fill-opacity="0.34" stroke="#0e5b52" stroke-width="1.6" />
  <path d="M415.5 145.0 L416.5 145.0 L416.5 143.9 L415.5 143.9 L414.6 143.9 L414.6 145.0 L415.5 145.0 Z" fill="#2f8f83" fill-opacity="0.34" stroke="#0e5b52" stroke-width="1.6" />
  <path d="M411.9 146.1 L412.8 146.1 L412.8 145.0 L411.9 145.0 L411.0 145.0 L411.0 146.1 L411.9 146.1 Z" fill="#2f8f83" fill-opacity="0.34" stroke="#0e5b52" stroke-width="1.6" />
  <path d="M411.9 145.0 L412.8 145.0 L412.8 143.9 L411.9 143.9 L411.0 143.9 L411.0 145.0 L411.9 145.0 Z" fill="#2f8f83" fill-opacity="0.34" stroke="#0e5b52" stroke-width="1.6" />
  <path d="M415.5 141.7 L416.5 141.7 L417.4 141.7 L418.3 141.7 L419.2 141.7 L419.2 142.8 L419.2 143.9 L420.1 143.9 L420.1 142.8 L420.1 141.7 L420.1 140.6 L419.2 140.6 L418.3 140.6 L417.4 140.6 L416.5 140.6 L415.5 140.6 L414.6 140.6 L414.6 141.7 L415.5 141.7 Z" fill="#2f8f83" fill-opacity="0.34" stroke="#0e5b52" stroke-width="1.6" />
  <path d="M418.3 145.0 L417.4 145.0 L417.4 146.1 L418.3 146.1 L418.3 145.0 Z" fill="#2f8f83" fill-opacity="0.34" stroke="#0e5b52" stroke-width="1.6" />
  <path d="M402.7 137.2 L401.8 137.2 L401.8 138.4 L402.7 138.4 L402.7 137.2 Z" fill="#2f8f83" fill-opacity="0.34" stroke="#0e5b52" stroke-width="1.6" />
  <path d="M414.6 142.8 L415.5 142.8 L416.5 142.8 L417.4 142.8 L418.3 142.8 L419.2 142.8 L419.2 141.7 L418.3 141.7 L417.4 141.7 L416.5 141.7 L415.5 141.7 L414.6 141.7 L413.7 141.7 L413.7 142.8 L414.6 142.8 Z" fill="#2f8f83" fill-opacity="0.34" stroke="#0e5b52" stroke-width="1.6" />
  <path d="M413.7 142.8 L412.8 142.8 L412.8 143.9 L413.7 143.9 L413.7 142.8 Z" fill="#2f8f83" fill-opacity="0.34" stroke="#0e5b52" stroke-width="1.6" />
  <path d="M412.8 149.4 L411.9 149.4 L411.9 150.6 L412.8 150.6 L412.8 149.4 Z" fill="#2f8f83" fill-opacity="0.34" stroke="#0e5b52" stroke-width="1.6" />
  <path d="M417.4 142.8 L416.5 142.8 L416.5 143.9 L417.4 143.9 L417.4 142.8 Z" fill="#2f8f83" fill-opacity="0.34" stroke="#0e5b52" stroke-width="1.6" />
  <path d="M414.6 143.9 L415.5 143.9 L415.5 142.8 L414.6 142.8 L413.7 142.8 L413.7 143.9 L414.6 143.9 Z" fill="#2f8f83" fill-opacity="0.34" stroke="#0e5b52" stroke-width="1.6" />
  <path d="M418.3 142.8 L417.4 142.8 L417.4 143.9 L418.3 143.9 L418.3 142.8 Z" fill="#2f8f83" fill-opacity="0.34" stroke="#0e5b52" stroke-width="1.6" />
  <path d="M419.2 142.8 L418.3 142.8 L418.3 143.9 L419.2 143.9 L419.2 142.8 Z" fill="#2f8f83" fill-opacity="0.34" stroke="#0e5b52" stroke-width="1.6" />
  <path d="M406.4 136.1 L406.4 137.2 L407.3 137.2 L408.2 137.2 L408.2 136.1 L408.2 135.0 L407.3 135.0 L406.4 135.0 L406.4 136.1 Z" fill="#2f8f83" fill-opacity="0.34" stroke="#0e5b52" stroke-width="1.6" />
  <path d="M405.4 136.1 L405.4 137.2 L406.4 137.2 L406.4 136.1 L406.4 135.0 L407.3 135.0 L408.2 135.0 L408.2 136.1 L408.2 137.2 L409.1 137.2 L409.1 136.1 L409.1 135.0 L409.1 133.9 L408.2 133.9 L407.3 133.9 L406.4 133.9 L405.4 133.9 L405.4 135.0 L405.4 136.1 Z" fill="#2f8f83" fill-opacity="0.34" stroke="#0e5b52" stroke-width="1.6" />
  <path d="M413.7 140.6 L414.6 140.6 L415.5 140.6 L416.5 140.6 L416.5 139.5 L415.5 139.5 L414.6 139.5 L413.7 139.5 L412.8 139.5 L412.8 140.6 L413.7 140.6 Z" fill="#2f8f83" fill-opacity="0.34" stroke="#0e5b52" stroke-width="1.6" />
  <path d="M407.3 132.8 L406.4 132.8 L406.4 133.9 L407.3 133.9 L407.3 132.8 Z" fill="#2f8f83" fill-opacity="0.34" stroke="#0e5b52" stroke-width="1.6" />
  <path d="M401.8 140.6 L401.8 141.7 L402.7 141.7 L402.7 140.6 L403.6 140.6 L404.5 140.6 L404.5 141.7 L405.4 141.7 L406.4 141.7 L406.4 140.6 L406.4 139.5 L406.4 138.4 L405.4 138.4 L404.5 138.4 L403.6 138.4 L402.7 138.4 L401.8 138.4 L401.8 139.5 L401.8 140.6 Z" fill="#2f8f83" fill-opacity="0.34" stroke="#0e5b52" stroke-width="1.6" />
  <path d="M322.8 142.8 L322.8 143.9 L323.8 143.9 L324.7 143.9 L325.6 143.9 L325.6 142.8 L325.6 141.7 L325.6 140.6 L324.7 140.6 L324.7 139.5 L323.8 139.5 L323.8 140.6 L322.8 140.6 L322.8 141.7 L322.8 142.8 Z" fill="#2f8f83" fill-opacity="0.34" stroke="#0e5b52" stroke-width="1.6" />
  <path d="M673.5 510.9 L672.6 510.9 L672.6 512.0 L673.5 512.0 L674.4 512.0 L674.4 510.9 L673.5 510.9 Z" fill="#2f8f83" fill-opacity="0.34" stroke="#0e5b52" stroke-width="1.6" />
  <path d="M666.2 508.8 L666.2 509.8 L667.1 509.8 L667.1 508.8 L667.1 507.7 L666.2 507.7 L666.2 508.8 Z" fill="#2f8f83" fill-opacity="0.34" stroke="#0e5b52" stroke-width="1.6" />
  <path d="M679.9 509.8 L679.9 508.8 L679.0 508.8 L679.0 509.8 L679.9 509.8 Z" fill="#2f8f83" fill-opacity="0.34" stroke="#0e5b52" stroke-width="1.6" />
  <path d="M676.3 512.0 L676.3 510.9 L675.3 510.9 L675.3 512.0 L676.3 512.0 Z" fill="#2f8f83" fill-opacity="0.34" stroke="#0e5b52" stroke-width="1.6" />
  <path d="M320.1 149.4 L321.0 149.4 L321.0 148.3 L320.1 148.3 L319.2 148.3 L319.2 149.4 L320.1 149.4 Z" fill="#2f8f83" fill-opacity="0.34" stroke="#0e5b52" stroke-width="1.6" />
  <path d="M317.3 145.0 L317.3 146.1 L318.2 146.1 L318.2 145.0 L318.2 143.9 L317.3 143.9 L317.3 145.0 Z" fill="#2f8f83" fill-opacity="0.34" stroke="#0e5b52" stroke-width="1.6" />
  <path d="M316.4 146.1 L316.4 147.2 L317.3 147.2 L317.3 148.3 L318.2 148.3 L318.2 149.4 L318.2 150.6 L319.2 150.6 L320.1 150.6 L321.0 150.6 L321.0 149.4 L320.1 149.4 L319.2 149.4 L319.2 148.3 L319.2 147.2 L320.1 147.2 L320.1 146.1 L319.2 146.1 L319.2 145.0 L319.2 143.9 L318.2 143.9 L318.2 145.0 L318.2 146.1 L317.3 146.1 L317.3 145.0 L317.3 143.9 L316.4 143.9 L316.4 145.0 L316.4 146.1 Z" fill="#2f8f83" fill-opacity="0.34" stroke="#0e5b52" stroke-width="1.6" />
  <path d="M320.1 147.2 L320.1 148.3 L321.0 148.3 L321.0 147.2 L321.0 146.1 L320.1 146.1 L320.1 147.2 Z" fill="#2f8f83" fill-opacity="0.34" stroke="#0e5b52" stroke-width="1.6" />
  <path d="M320.1 147.2 L319.2 147.2 L319.2 148.3 L320.1 148.3 L320.1 147.2 Z" fill="#2f8f83" fill-opacity="0.34" stroke="#0e5b52" stroke-width="1.6" />
  <path d="M321.9 147.2 L322.8 147.2 L322.8 146.1 L321.9 146.1 L321.0 146.1 L321.0 147.2 L321.9 147.2 Z" fill="#2f8f83" fill-opacity="0.34" stroke="#0e5b52" stroke-width="1.6" />
  <path d="M321.9 148.3 L322.8 148.3 L322.8 147.2 L321.9 147.2 L321.0 147.2 L321.0 148.3 L321.9 148.3 Z" fill="#2f8f83" fill-opacity="0.34" stroke="#0e5b52" stroke-width="1.6" />
  <path d="M315.5 146.1 L315.5 147.2 L316.4 147.2 L316.4 146.1 L316.4 145.0 L316.4 143.9 L317.3 143.9 L318.2 143.9 L319.2 143.9 L319.2 145.0 L319.2 146.1 L320.1 146.1 L321.0 146.1 L321.9 146.1 L322.8 146.1 L322.8 145.0 L322.8 143.9 L322.8 142.8 L321.9 142.8 L321.0 142.8 L320.1 142.8 L319.2 142.8 L318.2 142.8 L317.3 142.8 L316.4 142.8 L315.5 142.8 L315.5 143.9 L315.5 145.0 L315.5 146.1 Z" fill="#2f8f83" fill-opacity="0.34" stroke="#0e5b52" stroke-width="1.6" />
  <path d="M667.1 508.8 L667.1 509.8 L667.1 510.9 L667.1 512.0 L667.1 513.0 L668.0 513.0 L668.9 513.0 L669.8 513.0 L670.7 513.0 L671.7 513.0 L672.6 513.0 L673.5 513.0 L674.4 513.0 L675.3 513.0 L675.3 512.0 L675.3 510.9 L675.3 509.8 L674.4 509.8 L673.5 509.8 L672.6 509.8 L672.6 508.8 L672.6 507.7 L671.7 507.7 L670.7 507.7 L669.8 507.7 L668.9 507.7 L668.0 507.7 L667.1 507.7 L667.1 508.8 Z M673.5 510.9 L674.4 510.9 L674.4 512.0 L673.5 512.0 L672.6 512.0 L672.6 510.9 L673.5 510.9 Z" fill="#2f8f83" fill-opacity="0.34" stroke="#0e5b52" stroke-width="1.6" />
  <path d="M672.6 508.8 L672.6 509.8 L673.5 509.8 L674.4 509.8 L675.3 509.8 L675.3 510.9 L676.3 510.9 L676.3 512.0 L675.3 512.0 L675.3 513.0 L676.3 513.0 L677.2 513.0 L678.1 513.0 L679.0 513.0 L679.9 513.0 L680.8 513.0 L681.8 513.0 L681.8 512.0 L681.8 510.9 L681.8 509.8 L681.8 508.8 L681.8 507.7 L680.8 507.7 L679.9 507.7 L679.0 507.7 L678.1 507.7 L677.2 507.7 L676.3 507.7 L675.3 507.7 L674.4 507.7 L673.5 507.7 L672.6 507.7 L672.6 508.8 Z M679.0 508.8 L679.9 508.8 L679.9 509.8 L679.0 509.8 L679.0 508.8 Z" fill="#2f8f83" fill-opacity="0.34" stroke="#0e5b52" stroke-width="1.6" />
  <path d="M649.6 510.9 L649.6 512.0 L649.6 513.1 L650.6 513.1 L651.5 513.1 L652.4 513.1 L653.3 513.1 L654.2 513.1 L655.1 513.1 L656.1 513.0 L657.0 513.0 L657.9 513.0 L658.8 513.0 L659.7 513.0 L660.6 513.0 L661.6 513.0 L662.5 513.0 L663.4 513.0 L664.3 513.0 L665.2 513.0 L666.2 513.0 L667.1 513.0 L667.1 512.0 L667.1 510.9 L667.1 509.8 L666.2 509.8 L666.2 508.8 L666.2 507.7 L665.2 507.7 L664.3 507.7 L663.4 507.7 L662.5 507.7 L661.6 507.7 L660.6 507.7 L659.7 507.7 L658.8 507.7 L657.9 507.7 L657.0 507.7 L657.0 508.8 L656.1 508.8 L655.1 508.8 L654.2 508.8 L653.3 508.8 L652.4 508.8 L652.4 509.8 L651.5 509.8 L650.6 509.8 L649.6 509.8 L649.6 510.9 Z" fill="#2f8f83" fill-opacity="0.34" stroke="#0e5b52" stroke-width="1.6" />
  <path d="M646.9 513.1 L646.9 514.1 L646.9 515.2 L646.9 516.3 L646.9 517.3 L646.9 518.4 L646.9 519.5 L647.8 519.5 L648.7 519.5 L649.6 519.5 L650.6 519.5 L651.5 519.5 L652.4 519.5 L653.3 519.5 L654.2 519.5 L655.1 519.5 L656.1 519.5 L657.0 519.5 L657.9 519.5 L658.8 519.5 L659.7 519.5 L659.7 518.4 L659.7 517.3 L659.7 516.3 L659.7 515.2 L659.7 514.1 L659.7 513.0 L658.8 513.0 L657.9 513.0 L657.0 513.0 L656.1 513.0 L655.1 513.1 L654.2 513.1 L653.3 513.1 L652.4 513.1 L651.5 513.1 L650.6 513.1 L649.6 513.1 L649.6 512.0 L648.7 512.0 L647.8 512.0 L646.9 512.0 L646.9 513.1 Z" fill="#2f8f83" fill-opacity="0.34" stroke="#0e5b52" stroke-width="1.6" />
  <path d="M659.7 514.1 L659.7 515.2 L659.7 516.3 L659.7 517.3 L659.7 518.4 L660.6 518.4 L661.6 518.4 L662.5 518.4 L663.4 518.4 L664.3 518.4 L665.2 518.4 L666.2 518.4 L667.1 518.4 L668.0 518.4 L668.9 518.4 L669.8 518.4 L670.7 518.4 L671.7 518.4 L672.6 518.4 L673.5 518.4 L674.4 518.4 L675.3 518.4 L675.3 517.3 L675.3 516.3 L675.3 515.2 L675.3 514.1 L675.3 513.0 L674.4 513.0 L673.5 513.0 L672.6 513.0 L671.7 513.0 L670.7 513.0 L669.8 513.0 L668.9 513.0 L668.0 513.0 L667.1 513.0 L666.2 513.0 L665.2 513.0 L664.3 513.0 L663.4 513.0 L662.5 513.0 L661.6 513.0 L660.6 513.0 L659.7 513.0 L659.7 514.1 Z" fill="#2f8f83" fill-opacity="0.34" stroke="#0e5b52" stroke-width="1.6" />
  <path d="M658.8 506.6 L657.9 506.6 L657.9 507.7 L658.8 507.7 L659.7 507.7 L660.6 507.7 L661.6 507.7 L662.5 507.7 L663.4 507.7 L664.3 507.7 L665.2 507.7 L666.2 507.7 L667.1 507.7 L668.0 507.7 L668.9 507.7 L669.8 507.7 L670.7 507.7 L671.7 507.7 L672.6 507.7 L673.5 507.7 L674.4 507.7 L675.3 507.7 L676.3 507.7 L677.2 507.7 L678.1 507.7 L679.0 507.7 L679.9 507.7 L680.8 507.7 L681.8 507.7 L681.8 506.6 L681.8 505.6 L680.8 505.6 L679.9 505.6 L679.0 505.6 L678.1 505.6 L677.2 505.6 L676.3 505.6 L675.3 505.6 L674.4 505.6 L673.5 505.6 L673.5 506.6 L672.6 506.6 L671.7 506.6 L670.7 506.6 L669.8 506.6 L669.8 505.6 L668.9 505.6 L668.0 505.6 L667.1 505.6 L666.2 505.6 L665.2 505.6 L664.3 505.6 L663.4 505.6 L662.5 505.6 L661.6 505.6 L660.6 505.6 L659.7 505.6 L659.7 506.6 L658.8 506.6 Z" fill="#2f8f83" fill-opacity="0.34" stroke="#0e5b52" stroke-width="1.6" />
  <path d="M675.3 514.1 L675.3 515.2 L675.3 516.3 L675.3 517.3 L675.3 518.4 L676.3 518.4 L677.2 518.4 L678.1 518.4 L679.0 518.4 L679.9 518.4 L680.8 518.4 L681.8 518.4 L682.7 518.4 L683.6 518.4 L683.6 517.3 L683.6 516.3 L683.6 515.2 L683.6 514.1 L683.6 513.0 L683.6 512.0 L683.6 510.9 L683.6 509.8 L683.6 508.8 L683.6 507.7 L683.6 506.6 L683.6 505.6 L682.7 505.6 L681.8 505.6 L681.8 506.6 L681.8 507.7 L681.8 508.8 L681.8 509.8 L681.8 510.9 L681.8 512.0 L681.8 513.0 L680.8 513.0 L679.9 513.0 L679.0 513.0 L678.1 513.0 L677.2 513.0 L676.3 513.0 L675.3 513.0 L675.3 514.1 Z" fill="#2f8f83" fill-opacity="0.34" stroke="#0e5b52" stroke-width="1.6" />
  <path d="M683.6 509.8 L683.6 510.9 L683.6 512.0 L683.6 513.0 L683.6 514.1 L683.6 515.2 L683.6 516.3 L683.6 517.3 L683.6 518.4 L684.5 518.4 L685.4 518.4 L686.4 518.4 L687.3 518.4 L688.2 518.4 L689.1 518.4 L690.0 518.4 L690.9 518.4 L690.9 517.3 L690.9 516.3 L690.9 515.2 L690.9 514.1 L690.9 513.0 L690.0 513.0 L689.1 513.0 L689.1 512.0 L689.1 510.9 L688.2 510.9 L688.2 509.8 L688.2 508.8 L687.3 508.8 L686.4 508.8 L685.4 508.8 L684.5 508.8 L683.6 508.8 L683.6 509.8 Z" fill="#2f8f83" fill-opacity="0.34" stroke="#0e5b52" stroke-width="1.6" />
  <path d="M683.6 519.5 L683.6 520.5 L683.6 521.6 L683.6 522.7 L684.5 522.7 L685.4 522.7 L686.4 522.7 L687.3 522.7 L688.2 522.7 L688.2 521.6 L689.1 521.6 L690.0 521.6 L690.9 521.6 L690.9 520.5 L690.9 519.5 L690.9 518.4 L690.0 518.4 L689.1 518.4 L688.2 518.4 L687.3 518.4 L686.4 518.4 L685.4 518.4 L684.5 518.4 L683.6 518.4 L683.6 519.5 Z" fill="#2f8f83" fill-opacity="0.34" stroke="#0e5b52" stroke-width="1.6" />
  <path d="M314.6 150.6 L314.6 151.7 L315.5 151.7 L316.4 151.7 L317.3 151.7 L318.2 151.7 L319.2 151.7 L320.1 151.7 L321.0 151.7 L321.0 150.6 L320.1 150.6 L319.2 150.6 L318.2 150.6 L318.2 149.4 L318.2 148.3 L317.3 148.3 L317.3 147.2 L316.4 147.2 L315.5 147.2 L315.5 146.1 L315.5 145.0 L315.5 143.9 L315.5 142.8 L316.4 142.8 L317.3 142.8 L318.2 142.8 L319.2 142.8 L320.1 142.8 L321.0 142.8 L321.9 142.8 L322.8 142.8 L322.8 141.7 L322.8 140.6 L323.8 140.6 L323.8 139.5 L324.7 139.5 L324.7 140.6 L325.6 140.6 L325.6 141.7 L325.6 142.8 L325.6 143.9 L324.7 143.9 L323.8 143.9 L322.8 143.9 L322.8 145.0 L322.8 146.1 L323.8 146.1 L324.7 146.1 L325.6 146.1 L326.5 146.1 L326.5 145.0 L326.5 143.9 L326.5 142.8 L326.5 141.7 L326.5 140.6 L326.5 139.5 L325.6 139.5 L325.6 138.4 L324.7 138.4 L323.8 138.4 L322.8 138.4 L322.8 139.5 L321.9 139.5 L321.0 139.5 L320.1 139.5 L319.2 139.5 L318.2 139.5 L317.3 139.5 L316.4 139.5 L315.5 139.5 L314.6 139.5 L314.6 140.6 L314.6 141.7 L314.6 142.8 L314.6 143.9 L314.6 145.0 L314.6 146.1 L314.6 147.2 L314.6 148.3 L314.6 149.4 L314.6 150.6 Z" fill="#2f8f83" fill-opacity="0.34" stroke="#0e5b52" stroke-width="1.6" />
  <path d="M312.7 146.1 L312.7 147.2 L313.7 147.2 L313.7 148.3 L313.7 149.4 L313.7 150.6 L313.7 151.7 L313.7 152.8 L314.6 152.8 L315.5 152.8 L316.4 152.8 L317.3 152.8 L317.3 153.9 L318.2 153.9 L319.2 153.9 L320.1 153.9 L321.0 153.9 L321.0 152.8 L321.9 152.8 L322.8 152.8 L322.8 151.7 L323.8 151.7 L323.8 150.6 L324.7 150.6 L324.7 149.4 L325.6 149.4 L325.6 148.3 L326.5 148.3 L326.5 147.2 L327.4 147.2 L327.4 146.1 L328.3 146.1 L328.3 145.0 L328.3 143.9 L328.3 142.8 L328.3 141.7 L328.3 140.6 L328.3 139.5 L328.3 138.4 L328.3 137.3 L327.4 137.3 L326.5 137.3 L326.5 136.1 L325.6 136.1 L324.7 136.1 L323.8 136.1 L322.8 136.1 L322.8 137.3 L321.9 137.3 L321.0 137.3 L320.1 137.3 L319.2 137.3 L318.2 137.3 L317.3 137.3 L316.4 137.3 L315.5 137.3 L314.6 137.3 L313.7 137.3 L312.7 137.3 L312.7 138.4 L312.7 139.5 L312.7 140.6 L312.7 141.7 L312.7 142.8 L312.7 143.9 L312.7 145.0 L312.7 146.1 Z M322.8 139.5 L322.8 138.4 L323.8 138.4 L324.7 138.4 L325.6 138.4 L325.6 139.5 L326.5 139.5 L326.5 140.6 L326.5 141.7 L326.5 142.8 L326.5 143.9 L326.5 145.0 L326.5 146.1 L325.6 146.1 L324.7 146.1 L323.8 146.1 L322.8 146.1 L322.8 147.2 L322.8 148.3 L321.9 148.3 L321.0 148.3 L321.0 149.4 L321.0 150.6 L321.0 151.7 L320.1 151.7 L319.2 151.7 L318.2 151.7 L317.3 151.7 L316.4 151.7 L315.5 151.7 L314.6 151.7 L314.6 150.6 L314.6 149.4 L314.6 148.3 L314.6 147.2 L314.6 146.1 L314.6 145.0 L314.6 143.9 L314.6 142.8 L314.6 141.7 L314.6 140.6 L314.6 139.5 L315.5 139.5 L316.4 139.5 L317.3 139.5 L318.2 139.5 L319.2 139.5 L320.1 139.5 L321.0 139.5 L321.9 139.5 L322.8 139.5 Z" fill="#2f8f83" fill-opacity="0.34" stroke="#0e5b52" stroke-width="1.6" />
  <path d="M308.1 143.9 L308.1 145.0 L309.1 145.0 L309.1 146.1 L309.1 147.2 L310.0 147.2 L310.9 147.2 L311.8 147.2 L312.7 147.2 L312.7 146.1 L312.7 145.0 L312.7 143.9 L312.7 142.8 L312.7 141.7 L312.7 140.6 L312.7 139.5 L312.7 138.4 L312.7 137.3 L313.7 137.3 L314.6 137.3 L315.5 137.3 L316.4 137.3 L317.3 137.3 L318.2 137.3 L319.2 137.3 L320.1 137.3 L321.0 137.3 L321.9 137.3 L322.8 137.3 L322.8 136.1 L323.8 136.1 L324.7 136.1 L325.6 136.1 L326.5 136.1 L326.5 135.0 L326.5 133.9 L325.6 133.9 L324.7 133.9 L323.8 133.9 L322.8 133.9 L321.9 133.9 L321.0 133.9 L320.1 133.9 L319.2 133.9 L318.2 133.9 L317.3 133.9 L316.4 133.9 L315.5 133.9 L314.6 133.9 L313.7 133.9 L312.7 133.9 L311.8 133.9 L310.9 133.9 L310.0 133.9 L309.1 133.9 L308.1 133.9 L308.1 135.0 L308.1 136.1 L308.1 137.2 L308.1 138.4 L308.1 139.5 L308.1 140.6 L308.1 141.7 L308.1 142.8 L308.1 143.9 Z" fill="#2f8f83" fill-opacity="0.34" stroke="#0e5b52" stroke-width="1.6" />
  <path d="M406.4 120.6 L406.4 121.7 L407.3 121.7 L408.2 121.7 L408.2 120.6 L408.2 119.5 L407.3 119.5 L406.4 119.5 L406.4 120.6 Z" fill="#2f8f83" fill-opacity="0.34" stroke="#0e5b52" stroke-width="1.6" />
  <path d="M303.6 140.6 L303.6 141.7 L304.5 141.7 L305.4 141.7 L306.3 141.7 L307.2 141.7 L308.1 141.7 L308.1 140.6 L308.1 139.5 L308.1 138.4 L308.1 137.2 L308.1 136.1 L308.1 135.0 L308.1 133.9 L309.1 133.9 L310.0 133.9 L310.9 133.9 L311.8 133.9 L312.7 133.9 L313.7 133.9 L314.6 133.9 L315.5 133.9 L316.4 133.9 L317.3 133.9 L317.3 132.8 L317.3 131.7 L316.4 131.7 L315.5 131.7 L314.6 131.7 L313.7 131.7 L312.7 131.7 L311.8 131.7 L310.9 131.7 L310.0 131.7 L309.1 131.7 L308.1 131.7 L307.2 131.7 L306.3 131.7 L305.4 131.7 L304.5 131.7 L303.6 131.7 L303.6 132.8 L303.6 133.9 L303.6 135.0 L303.6 136.1 L303.6 137.2 L303.6 138.4 L303.6 139.5 L303.6 140.6 Z" fill="#2f8f83" fill-opacity="0.34" stroke="#0e5b52" stroke-width="1.6" />
  <path d="M303.6 130.6 L303.6 131.7 L304.5 131.7 L305.4 131.7 L306.3 131.7 L307.2 131.7 L308.1 131.7 L309.1 131.7 L310.0 131.7 L310.9 131.7 L311.8 131.7 L312.7 131.7 L313.7 131.7 L314.6 131.7 L315.5 131.7 L316.4 131.7 L317.3 131.7 L317.3 132.8 L317.3 133.9 L318.2 133.9 L319.2 133.9 L320.1 133.9 L321.0 133.9 L321.9 133.9 L322.8 133.9 L323.8 133.9 L324.7 133.9 L324.7 132.8 L323.8 132.8 L323.8 131.7 L322.8 131.7 L322.8 130.6 L321.9 130.6 L321.9 129.5 L321.0 129.5 L321.0 128.4 L320.1 128.4 L320.1 127.3 L319.2 127.3 L318.2 127.3 L317.3 127.3 L316.4 127.3 L315.5 127.3 L314.6 127.3 L313.7 127.3 L312.7 127.3 L311.8 127.3 L310.9 127.3 L310.0 127.3 L309.1 127.3 L308.1 127.3 L307.2 127.3 L306.3 127.3 L305.4 127.3 L304.5 127.3 L303.6 127.3 L303.6 128.4 L303.6 129.5 L303.6 130.6 Z" fill="#2f8f83" fill-opacity="0.34" stroke="#0e5b52" stroke-width="1.6" />
  <path d="M293.5 132.8 L293.5 133.9 L294.4 133.9 L295.3 133.9 L295.3 135.0 L295.3 136.1 L296.2 136.1 L297.1 136.1 L298.0 136.1 L298.0 137.2 L299.0 137.2 L299.9 137.2 L299.9 138.4 L299.9 139.5 L300.8 139.5 L301.7 139.5 L302.6 139.5 L303.6 139.5 L303.6 138.4 L303.6 137.2 L303.6 136.1 L303.6 135.0 L303.6 133.9 L303.6 132.8 L303.6 131.7 L303.6 130.6 L303.6 129.5 L303.6 128.4 L303.6 127.3 L302.6 127.3 L301.7 127.3 L300.8 127.3 L299.9 127.3 L299.0 127.3 L298.0 127.3 L297.1 127.3 L296.2 127.3 L295.3 127.3 L294.4 127.3 L293.5 127.3 L293.5 128.4 L293.5 129.5 L293.5 130.6 L293.5 131.7 L293.5 132.8 Z" fill="#2f8f83" fill-opacity="0.34" stroke="#0e5b52" stroke-width="1.6" />
  <path d="M683.6 503.4 L683.6 504.5 L683.6 505.6 L683.6 506.6 L683.6 507.7 L683.6 508.8 L684.5 508.8 L685.4 508.8 L686.4 508.8 L687.3 508.8 L688.2 508.8 L688.2 509.8 L688.2 510.9 L689.1 510.9 L689.1 512.0 L689.1 513.0 L690.0 513.0 L690.9 513.0 L690.9 512.0 L690.9 510.9 L690.9 509.8 L690.9 508.8 L690.9 507.7 L690.9 506.6 L690.9 505.6 L690.9 504.5 L690.9 503.4 L690.9 502.3 L690.0 502.3 L689.1 502.3 L688.2 502.3 L687.3 502.3 L686.4 502.3 L685.4 502.3 L684.5 502.3 L683.6 502.3 L683.6 503.4 Z" fill="#2f8f83" fill-opacity="0.34" stroke="#0e5b52" stroke-width="1.6" />
  <path d="M690.9 503.4 L690.9 504.5 L690.9 505.6 L690.9 506.6 L690.9 507.7 L690.9 508.8 L690.9 509.8 L691.9 509.8 L692.8 509.8 L693.7 509.8 L694.6 509.8 L695.5 509.8 L696.4 509.8 L697.4 509.8 L698.3 509.8 L699.2 509.8 L700.1 509.8 L701.0 509.8 L701.0 508.8 L701.0 507.7 L701.0 506.6 L702.0 506.6 L702.0 505.6 L701.0 505.6 L701.0 504.5 L700.1 504.5 L700.1 503.4 L699.2 503.4 L699.2 502.3 L698.3 502.3 L697.4 502.3 L696.4 502.3 L695.5 502.3 L694.6 502.3 L693.7 502.3 L692.8 502.3 L691.9 502.3 L690.9 502.3 L690.9 503.4 Z" fill="#2f8f83" fill-opacity="0.34" stroke="#0e5b52" stroke-width="1.6" />
  <path d="M670.7 505.6 L669.8 505.6 L669.8 506.6 L670.7 506.6 L671.7 506.6 L672.6 506.6 L673.5 506.6 L673.5 505.6 L672.6 505.6 L671.7 505.6 L670.7 505.6 Z" fill="#2f8f83" fill-opacity="0.34" stroke="#0e5b52" stroke-width="1.6" />
  <path d="M642.3 462.7 L642.3 463.7 L642.3 464.8 L642.3 465.9 L642.3 467.0 L642.3 468.0 L643.2 468.0 L644.1 468.0 L645.0 468.0 L646.0 468.0 L646.9 468.0 L646.9 467.0 L646.9 465.9 L647.8 465.9 L647.8 464.8 L648.7 464.8 L649.6 464.8 L649.6 463.7 L648.7 463.7 L647.8 463.7 L647.8 462.7 L647.8 461.6 L646.9 461.6 L646.0 461.6 L645.0 461.6 L644.1 461.6 L643.2 461.6 L642.3 461.6 L642.3 462.7 Z" fill="#2f8f83" fill-opacity="0.34" stroke="#0e5b52" stroke-width="1.6" />
  <path d="M662.5 470.2 L662.5 471.3 L662.5 472.3 L663.4 472.3 L664.3 472.3 L665.2 472.3 L665.2 473.4 L666.2 473.4 L667.1 473.4 L667.1 474.5 L667.1 475.5 L667.1 476.6 L667.1 477.7 L666.2 477.7 L665.2 477.7 L664.3 477.7 L663.4 477.7 L662.5 477.7 L662.5 478.8 L662.5 479.8 L663.4 479.8 L664.3 479.8 L665.2 479.8 L666.2 479.8 L667.1 479.8 L668.0 479.8 L668.9 479.8 L669.8 479.8 L670.7 479.8 L670.7 478.8 L670.7 477.7 L670.7 476.6 L670.7 475.5 L670.7 474.5 L670.7 473.4 L670.7 472.3 L670.7 471.3 L670.7 470.2 L670.7 469.1 L669.8 469.1 L668.9 469.1 L668.0 469.1 L667.1 469.1 L666.2 469.1 L665.2 469.1 L664.3 469.1 L663.4 469.1 L662.5 469.1 L662.5 470.2 Z" fill="#2f8f83" fill-opacity="0.34" stroke="#0e5b52" stroke-width="1.6" />
  <path d="M662.5 504.5 L661.6 504.5 L661.6 505.6 L662.5 505.6 L663.4 505.6 L664.3 505.6 L665.2 505.6 L666.2 505.6 L667.1 505.6 L668.0 505.6 L668.9 505.6 L669.8 505.6 L670.7 505.6 L671.7 505.6 L672.6 505.6 L673.5 505.6 L674.4 505.6 L675.3 505.6 L676.3 505.6 L677.2 505.6 L678.1 505.6 L679.0 505.6 L679.9 505.6 L680.8 505.6 L681.8 505.6 L682.7 505.6 L683.6 505.6 L683.6 504.5 L683.6 503.4 L683.6 502.3 L682.7 502.3 L681.8 502.3 L680.8 502.3 L679.9 502.3 L679.0 502.3 L678.1 502.3 L677.2 502.3 L676.3 502.3 L675.3 502.3 L674.4 502.3 L673.5 502.3 L672.6 502.3 L671.7 502.3 L670.7 502.3 L669.8 502.3 L668.9 502.3 L668.0 502.3 L667.1 502.3 L666.2 502.3 L665.2 502.3 L665.2 503.4 L665.2 504.5 L664.3 504.5 L663.4 504.5 L662.5 504.5 Z" fill="#2f8f83" fill-opacity="0.34" stroke="#0e5b52" stroke-width="1.6" />
  <path d="M395.4 142.8 L395.4 143.9 L396.3 143.9 L397.2 143.9 L398.1 143.9 L398.1 142.8 L398.1 141.7 L398.1 140.6 L397.2 140.6 L396.3 140.6 L395.4 140.6 L395.4 141.7 L395.4 142.8 Z" fill="#2f8f83" fill-opacity="0.34" stroke="#0e5b52" stroke-width="1.6" />
  <path d="M392.6 146.1 L392.6 147.2 L393.5 147.2 L393.5 148.3 L394.4 148.3 L394.4 149.4 L395.4 149.4 L395.4 148.3 L395.4 147.2 L395.4 146.1 L394.4 146.1 L394.4 145.0 L394.4 143.9 L393.5 143.9 L393.5 145.0 L392.6 145.0 L392.6 146.1 Z" fill="#2f8f83" fill-opacity="0.34" stroke="#0e5b52" stroke-width="1.6" />
  <path d="M405.4 153.9 L405.4 155.0 L406.4 155.0 L407.3 155.0 L407.3 156.1 L408.2 156.1 L409.1 156.1 L409.1 157.2 L409.1 158.3 L410.0 158.3 L411.0 158.3 L411.9 158.3 L412.8 158.3 L413.7 158.3 L414.6 158.3 L415.5 158.3 L416.5 158.3 L417.4 158.3 L418.3 158.3 L419.2 158.3 L420.1 158.3 L420.1 157.2 L420.1 156.1 L420.1 155.0 L419.2 155.0 L418.3 155.0 L418.3 153.9 L418.3 152.8 L418.3 151.7 L417.4 151.7 L416.5 151.7 L415.5 151.7 L414.6 151.7 L413.7 151.7 L412.8 151.7 L412.8 150.6 L411.9 150.6 L411.0 150.6 L410.0 150.6 L409.1 150.6 L408.2 150.6 L407.3 150.6 L406.4 150.6 L405.4 150.6 L405.4 151.7 L405.4 152.8 L405.4 153.9 Z" fill="#2f8f83" fill-opacity="0.34" stroke="#0e5b52" stroke-width="1.6" />
  <path d="M411.0 159.4 L411.0 160.5 L411.9 160.5 L412.8 160.5 L412.8 159.4 L413.7 159.4 L414.6 159.4 L415.5 159.4 L416.5 159.4 L417.4 159.4 L418.3 159.4 L419.2 159.4 L419.2 160.5 L419.2 161.6 L419.2 162.7 L420.1 162.7 L421.1 162.7 L422.0 162.7 L422.0 163.8 L422.0 164.9 L422.9 165.0 L423.8 165.0 L424.7 165.0 L424.7 166.1 L425.6 166.1 L426.6 166.1 L426.6 165.0 L425.6 165.0 L425.6 163.8 L424.7 163.8 L423.8 163.8 L422.9 163.8 L422.9 162.7 L422.9 161.6 L422.0 161.6 L421.1 161.6 L420.1 161.6 L420.1 160.5 L420.1 159.4 L420.1 158.3 L419.2 158.3 L418.3 158.3 L417.4 158.3 L416.5 158.3 L415.5 158.3 L414.6 158.3 L413.7 158.3 L412.8 158.3 L411.9 158.3 L411.0 158.3 L410.0 158.3 L410.0 159.4 L411.0 159.4 Z" fill="#2f8f83" fill-opacity="0.34" stroke="#0e5b52" stroke-width="1.6" />
  <path d="M425.6 169.4 L426.6 169.4 L427.5 169.4 L428.4 169.4 L429.3 169.4 L430.2 169.4 L431.2 169.4 L432.1 169.4 L433.0 169.4 L433.9 169.4 L434.8 169.4 L434.8 169.4 L435.7 169.4 L436.7 169.4 L437.6 169.4 L437.6 168.3 L437.6 167.2 L437.6 166.1 L436.7 166.1 L435.7 166.1 L434.8 166.1 L433.9 166.1 L433.9 165.0 L433.9 163.8 L433.0 163.8 L432.1 163.8 L431.2 163.8 L430.2 163.8 L429.3 163.8 L428.4 163.8 L428.4 165.0 L429.3 165.0 L429.3 166.1 L429.3 167.2 L428.4 167.2 L428.4 168.3 L427.5 168.3 L426.6 168.3 L426.6 167.2 L426.6 166.1 L425.6 166.1 L425.6 167.2 L425.6 168.3 L424.7 168.3 L424.7 169.4 L425.6 169.4 Z" fill="#2f8f83" fill-opacity="0.34" stroke="#0e5b52" stroke-width="1.6" />
  <path d="M394.4 145.0 L394.4 146.1 L395.4 146.1 L395.4 147.2 L395.4 148.3 L395.4 149.4 L395.4 150.6 L396.3 150.6 L396.3 151.7 L397.2 151.7 L398.1 151.7 L398.1 152.8 L399.0 152.8 L399.0 153.9 L399.0 155.0 L399.9 155.0 L400.9 155.0 L401.8 155.0 L402.7 155.0 L403.6 155.0 L404.5 155.0 L405.4 155.0 L405.4 153.9 L404.5 153.9 L403.6 153.9 L402.7 153.9 L401.8 153.9 L400.9 153.9 L400.9 152.8 L400.9 151.7 L400.9 150.6 L400.9 149.4 L400.9 148.3 L400.9 147.2 L400.9 146.1 L400.9 145.0 L400.9 143.9 L400.9 142.8 L399.9 142.8 L399.0 142.8 L399.0 141.7 L398.1 141.7 L398.1 142.8 L398.1 143.9 L397.2 143.9 L396.3 143.9 L395.4 143.9 L394.4 143.9 L394.4 145.0 Z" fill="#2f8f83" fill-opacity="0.34" stroke="#0e5b52" stroke-width="1.6" />
  <path d="M690.9 510.9 L690.9 512.0 L690.9 513.0 L690.9 514.1 L691.9 514.1 L692.8 514.1 L693.7 514.1 L694.6 514.1 L695.5 514.1 L696.4 514.1 L697.4 514.1 L698.3 514.1 L699.2 514.1 L700.1 514.1 L701.0 514.1 L702.0 514.1 L702.0 513.0 L702.0 512.0 L702.0 510.9 L702.0 509.8 L702.0 508.8 L702.0 507.7 L702.9 507.7 L703.8 507.7 L704.7 507.7 L705.6 507.7 L706.5 507.7 L706.5 506.6 L706.5 505.6 L705.6 505.6 L704.7 505.6 L703.8 505.6 L702.9 505.6 L702.0 505.6 L702.0 506.6 L701.0 506.6 L701.0 507.7 L701.0 508.8 L701.0 509.8 L700.1 509.8 L699.2 509.8 L698.3 509.8 L697.4 509.8 L696.4 509.8 L695.5 509.8 L694.6 509.8 L693.7 509.8 L692.8 509.8 L691.9 509.8 L690.9 509.8 L690.9 510.9 Z" fill="#2f8f83" fill-opacity="0.34" stroke="#0e5b52" stroke-width="1.6" />
  <!-- title strip -->
  <rect x="0" y="0" width="1000" height="54" fill="#173042" />
  <text x="20" y="34" font-size="21" font-weight="bold" fill="#ffffff">Pacific Ridge Exploration Ltd. — Mineral Claims</text>
  <text x="980" y="34" font-size="15" fill="#cfe3df" text-anchor="end">PEX</text>
  <!-- scale bar -->
  <g transform="translate(842.5449860823063, 596)">
    <rect x="0" y="0" width="58.72750695884684" height="8" fill="#173042" />
    <rect x="58.72750695884684" y="0" width="58.72750695884684" height="8" fill="#ffffff" stroke="#173042" stroke-width="1" />
    <text x="58.72750695884684" y="-6" font-size="12" fill="#173042" text-anchor="middle">50 km</text>
  </g>
  <!-- north arrow -->
  <g transform="translate(956, 92)">
    <circle r="17" fill="#ffffff" stroke="#b9b09a" />
    <path d="M0 -10 L5 7 L0 3 L-5 7 Z" fill="#173042" />
    <text y="14" font-size="9" font-weight="bold" fill="#173042" text-anchor="middle">N</text>
  </g>
  <!-- watermark -->
  <text x="20" y="620" font-size="13" fill="#7d8b8a">Map by Exploration Maps — explorationmaps.com</text>
</svg>