<svg xmlns="http://www.w3.org/2000/svg" viewBox="0 0 1000 640" font-family="Arial, Helvetica, sans-serif">
  <rect width="1000" height="640" fill="#f3efe6" />
  <line x1="200" y1="0" x2="200" y2="640" stroke="#d9d2c0" stroke-width="0.7" />
  <line x1="0" y1="128" x2="1000" y2="128" stroke="#d9d2c0" stroke-width="0.7" />
  <line x1="400" y1="0" x2="400" y2="640" stroke="#d9d2c0" stroke-width="0.7" />
  <line x1="0" y1="256" x2="1000" y2="256" stroke="#d9d2c0" stroke-width="0.7" />
  <line x1="600" y1="0" x2="600" y2="640" stroke="#d9d2c0" stroke-width="0.7" />
  <line x1="0" y1="384" x2="1000" y2="384" stroke="#d9d2c0" stroke-width="0.7" />
  <line x1="800" y1="0" x2="800" y2="640" stroke="#d9d2c0" stroke-width="0.7" />
  <line x1="0" y1="512" x2="1000" y2="512" stroke="#d9d2c0" stroke-width="0.7" />
  <path d="M503.9 498.8 L503.9 499.7 L504.7 499.7 L504.7 500.6 L505.5 500.6 L505.5 499.7 L505.5 498.8 L505.5 497.9 L504.7 497.9 L503.9 497.9 L503.1 497.9 L503.1 498.8 L503.9 498.8 Z" fill="#2f8f83" fill-opacity="0.34" stroke="#0e5b52" stroke-width="1.6" />
  <path d="M501.6 497.9 L500.8 497.9 L500.8 498.8 L501.6 498.8 L501.6 497.9 Z" fill="#2f8f83" fill-opacity="0.34" stroke="#0e5b52" stroke-width="1.6" />
  <path d="M500.0 497.9 L499.2 497.9 L499.2 498.8 L500.0 498.8 L500.0 497.9 Z" fill="#2f8f83" fill-opacity="0.34" stroke="#0e5b52" stroke-width="1.6" />
  <path d="M500.0 499.7 L499.2 499.7 L499.2 500.6 L500.0 500.6 L500.0 499.7 Z" fill="#2f8f83" fill-opacity="0.34" stroke="#0e5b52" stroke-width="1.6" />
  <path d="M500.8 502.4 L500.0 502.4 L500.0 503.3 L500.8 503.3 L500.8 502.4 Z" fill="#2f8f83" fill-opacity="0.34" stroke="#0e5b52" stroke-width="1.6" />
  <path d="M426.3 128.1 L426.3 129.0 L427.0 129.0 L427.8 129.0 L428.6 129.0 L428.6 128.1 L428.6 127.1 L429.4 127.1 L430.1 127.1 L430.1 126.2 L430.1 125.3 L430.1 124.3 L429.4 124.3 L428.6 124.3 L427.8 124.3 L427.0 124.3 L426.3 124.3 L426.3 125.3 L426.3 126.2 L426.3 127.1 L426.3 128.1 Z" fill="#2f8f83" fill-opacity="0.34" stroke="#0e5b52" stroke-width="1.6" />
  <path d="M430.1 126.2 L430.1 127.1 L430.9 127.1 L430.9 126.2 L431.7 126.2 L431.7 125.3 L431.7 124.3 L430.9 124.3 L430.1 124.3 L430.1 125.3 L430.1 126.2 Z" fill="#2f8f83" fill-opacity="0.34" stroke="#0e5b52" stroke-width="1.6" />
  <path d="M430.9 128.1 L430.9 129.0 L431.7 129.0 L432.5 129.0 L433.2 129.0 L433.2 128.1 L433.2 127.1 L433.2 126.2 L432.5 126.2 L431.7 126.2 L430.9 126.2 L430.9 127.1 L430.9 128.1 Z" fill="#2f8f83" fill-opacity="0.34" stroke="#0e5b52" stroke-width="1.6" />
  <path d="M430.1 128.1 L430.1 129.0 L430.9 129.0 L430.9 128.1 L430.9 127.1 L430.1 127.1 L430.1 128.1 Z" fill="#2f8f83" fill-opacity="0.34" stroke="#0e5b52" stroke-width="1.6" />
  <path d="M500.0 497.9 L500.8 497.9 L501.6 497.9 L502.3 497.9 L503.1 497.9 L503.1 497.0 L502.3 497.0 L501.6 497.0 L500.8 497.0 L500.0 497.0 L499.2 497.0 L499.2 497.9 L500.0 497.9 Z" fill="#2f8f83" fill-opacity="0.34" stroke="#0e5b52" stroke-width="1.6" />
  <path d="M497.7 497.0 L497.7 497.9 L498.5 497.9 L499.2 497.9 L499.2 497.0 L500.0 497.0 L500.8 497.0 L501.6 497.0 L502.3 497.0 L503.1 497.0 L503.1 497.9 L503.9 497.9 L504.7 497.9 L505.5 497.9 L505.5 497.0 L505.5 496.1 L504.7 496.1 L503.9 496.1 L503.1 496.1 L502.3 496.1 L501.6 496.1 L500.8 496.1 L500.0 496.1 L499.2 496.1 L498.5 496.1 L497.7 496.1 L497.7 497.0 Z" fill="#2f8f83" fill-opacity="0.34" stroke="#0e5b52" stroke-width="1.6" />
  <path d="M425.5 131.8 L425.5 132.7 L426.3 132.7 L427.0 132.7 L427.8 132.7 L428.6 132.7 L428.6 133.6 L429.4 133.6 L430.1 133.6 L430.9 133.6 L430.9 132.7 L430.9 131.8 L430.9 130.8 L430.9 129.9 L430.9 129.0 L430.1 129.0 L430.1 128.1 L430.1 127.1 L429.4 127.1 L428.6 127.1 L428.6 128.1 L428.6 129.0 L427.8 129.0 L427.0 129.0 L426.3 129.0 L426.3 128.1 L426.3 127.1 L425.5 127.1 L425.5 128.1 L425.5 129.0 L425.5 129.9 L425.5 130.8 L425.5 131.8 Z" fill="#2f8f83" fill-opacity="0.34" stroke="#0e5b52" stroke-width="1.6" />
  <path d="M430.9 132.7 L430.9 133.6 L431.7 133.6 L431.7 132.7 L431.7 131.8 L432.5 131.8 L432.5 130.8 L432.5 129.9 L432.5 129.0 L431.7 129.0 L430.9 129.0 L430.9 129.9 L430.9 130.8 L430.9 131.8 L430.9 132.7 Z" fill="#2f8f83" fill-opacity="0.34" stroke="#0e5b52" stroke-width="1.6" />
  <path d="M431.7 132.7 L431.7 133.6 L432.5 133.6 L432.5 132.7 L432.5 131.8 L431.7 131.8 L431.7 132.7 Z" fill="#2f8f83" fill-opacity="0.34" stroke="#0e5b52" stroke-width="1.6" />
  <path d="M428.6 123.4 L428.6 124.3 L429.4 124.3 L429.4 123.4 L429.4 122.5 L428.6 122.5 L428.6 123.4 Z" fill="#2f8f83" fill-opacity="0.34" stroke="#0e5b52" stroke-width="1.6" />
  <path d="M423.9 132.7 L423.9 133.6 L424.7 133.6 L425.5 133.6 L426.3 133.6 L427.0 133.6 L427.8 133.6 L428.6 133.6 L428.6 132.7 L427.8 132.7 L427.0 132.7 L426.3 132.7 L425.5 132.7 L425.5 131.8 L425.5 130.8 L425.5 129.9 L425.5 129.0 L425.5 128.1 L425.5 127.1 L426.3 127.1 L426.3 126.2 L426.3 125.3 L426.3 124.3 L427.0 124.3 L427.8 124.3 L428.6 124.3 L428.6 123.4 L428.6 122.5 L429.4 122.5 L429.4 123.4 L429.4 124.3 L430.1 124.3 L430.9 124.3 L430.9 123.4 L430.9 122.5 L430.9 121.5 L430.1 121.5 L429.4 121.5 L428.6 121.5 L427.8 121.5 L427.0 121.5 L426.3 121.5 L425.5 121.5 L425.5 122.5 L425.5 123.4 L425.5 124.3 L424.7 124.3 L423.9 124.3 L423.9 125.3 L423.9 126.2 L423.9 127.1 L423.9 128.1 L423.9 129.0 L423.9 129.9 L423.9 130.8 L423.9 131.8 L423.9 132.7 Z" fill="#2f8f83" fill-opacity="0.34" stroke="#0e5b52" stroke-width="1.6" />
  <path d="M498.5 502.4 L498.5 503.3 L499.2 503.3 L499.2 502.4 L499.2 501.5 L498.5 501.5 L498.5 502.4 Z" fill="#2f8f83" fill-opacity="0.34" stroke="#0e5b52" stroke-width="1.6" />
  <path d="M496.9 500.6 L496.9 501.5 L497.7 501.5 L497.7 502.4 L498.5 502.4 L498.5 501.5 L498.5 500.6 L497.7 500.6 L497.7 499.7 L497.7 498.8 L497.7 497.9 L497.7 497.0 L497.7 496.1 L496.9 496.1 L496.9 497.0 L496.9 497.9 L496.9 498.8 L496.9 499.7 L496.9 500.6 Z" fill="#2f8f83" fill-opacity="0.34" stroke="#0e5b52" stroke-width="1.6" />
  <path d="M499.2 503.3 L499.2 504.2 L500.0 504.2 L500.8 504.2 L501.6 504.2 L502.3 504.2 L503.1 504.2 L503.9 504.2 L504.7 504.2 L505.4 504.2 L505.4 503.3 L505.4 502.4 L505.4 501.5 L504.7 501.5 L504.7 502.4 L503.9 502.4 L503.9 503.3 L503.1 503.3 L502.3 503.3 L501.6 503.3 L500.8 503.3 L500.0 503.3 L500.0 502.4 L499.2 502.4 L499.2 503.3 Z" fill="#2f8f83" fill-opacity="0.34" stroke="#0e5b52" stroke-width="1.6" />
  <path d="M497.7 499.7 L497.7 500.6 L498.5 500.6 L498.5 501.5 L499.2 501.5 L500.0 501.5 L500.0 500.6 L500.8 500.6 L500.8 501.5 L501.6 501.5 L501.6 502.4 L500.8 502.4 L500.8 503.3 L501.6 503.3 L502.3 503.3 L503.1 503.3 L503.9 503.3 L503.9 502.4 L504.7 502.4 L504.7 501.5 L505.4 501.5 L505.5 500.6 L504.7 500.6 L504.7 499.7 L503.9 499.7 L503.9 498.8 L503.1 498.8 L503.1 497.9 L502.3 497.9 L501.6 497.9 L501.6 498.8 L500.8 498.8 L500.8 497.9 L500.0 497.9 L500.0 498.8 L499.2 498.8 L499.2 497.9 L498.5 497.9 L497.7 497.9 L497.7 498.8 L497.7 499.7 Z M500.0 500.6 L499.2 500.6 L499.2 499.7 L500.0 499.7 L500.0 500.6 Z" fill="#2f8f83" fill-opacity="0.34" stroke="#0e5b52" stroke-width="1.6" />
  <path d="M575.3 144.8 L575.3 145.7 L576.1 145.7 L576.8 145.7 L576.8 146.6 L577.6 146.6 L578.4 146.6 L579.2 146.6 L580.0 146.6 L580.7 146.6 L581.5 146.6 L581.5 145.7 L581.5 144.8 L581.5 143.9 L581.5 142.9 L581.5 142.0 L581.5 141.1 L580.7 141.1 L580.0 141.1 L579.2 141.1 L578.4 141.1 L577.6 141.1 L576.8 141.1 L576.8 142.0 L576.1 142.0 L575.3 142.0 L575.3 142.9 L575.3 143.9 L575.3 144.8 Z" fill="#2f8f83" fill-opacity="0.34" stroke="#0e5b52" stroke-width="1.6" />
  <path d="M431.7 125.3 L431.7 126.2 L432.5 126.2 L433.2 126.2 L434.0 126.2 L434.8 126.2 L434.8 125.3 L434.8 124.3 L434.8 123.4 L434.0 123.4 L433.2 123.4 L432.5 123.4 L431.7 123.4 L430.9 123.4 L430.9 124.3 L431.7 124.3 L431.7 125.3 Z" fill="#2f8f83" fill-opacity="0.34" stroke="#0e5b52" stroke-width="1.6" />
  <path d="M501.6 505.1 L501.6 505.9 L502.3 505.9 L503.1 505.9 L503.9 505.9 L504.7 505.9 L505.4 505.9 L506.2 505.9 L507.0 505.9 L507.8 505.9 L508.6 505.9 L508.6 505.0 L508.6 504.2 L508.6 503.3 L508.6 502.4 L508.6 501.5 L507.8 501.5 L507.0 501.5 L506.2 501.5 L505.4 501.5 L505.4 502.4 L505.4 503.3 L505.4 504.2 L504.7 504.2 L503.9 504.2 L503.1 504.2 L502.3 504.2 L501.6 504.2 L501.6 505.1 Z" fill="#2f8f83" fill-opacity="0.34" stroke="#0e5b52" stroke-width="1.6" />
  <path d="M500.0 502.4 L500.8 502.4 L501.6 502.4 L501.6 501.5 L500.8 501.5 L500.8 500.6 L500.0 500.6 L500.0 501.5 L499.2 501.5 L499.2 502.4 L500.0 502.4 Z" fill="#2f8f83" fill-opacity="0.34" stroke="#0e5b52" stroke-width="1.6" />
  <path d="M423.9 123.4 L423.9 124.3 L424.7 124.3 L425.5 124.3 L425.5 123.4 L425.5 122.5 L425.5 121.5 L426.3 121.5 L427.0 121.5 L427.8 121.5 L428.6 121.5 L429.4 121.5 L430.1 121.5 L430.9 121.5 L430.9 122.5 L430.9 123.4 L431.7 123.4 L432.5 123.4 L433.2 123.4 L434.0 123.4 L434.8 123.4 L434.8 122.5 L434.0 122.5 L434.0 121.5 L433.2 121.5 L433.2 120.6 L432.5 120.6 L432.5 119.7 L431.7 119.7 L430.9 119.7 L430.1 119.7 L429.4 119.7 L428.6 119.7 L427.8 119.7 L427.0 119.7 L426.3 119.7 L425.5 119.7 L424.7 119.7 L423.9 119.7 L423.9 120.6 L423.9 121.5 L423.9 122.5 L423.9 123.4 Z" fill="#2f8f83" fill-opacity="0.34" stroke="#0e5b52" stroke-width="1.6" />
  <path d="M433.2 128.1 L433.2 129.0 L434.0 129.0 L434.0 128.1 L434.8 128.1 L434.8 127.1 L434.8 126.2 L434.0 126.2 L433.2 126.2 L433.2 127.1 L433.2 128.1 Z" fill="#2f8f83" fill-opacity="0.34" stroke="#0e5b52" stroke-width="1.6" />
  <path d="M418.5 141.1 L418.5 142.0 L419.3 142.0 L420.0 142.0 L420.8 142.0 L421.6 142.0 L422.4 142.0 L423.2 142.0 L423.9 142.0 L424.7 142.0 L425.5 142.0 L426.3 142.0 L427.0 142.0 L427.0 141.1 L427.0 140.1 L427.0 139.2 L427.0 138.3 L427.0 137.4 L427.0 136.4 L427.0 135.5 L427.8 135.5 L428.6 135.5 L429.4 135.5 L430.1 135.5 L430.9 135.5 L430.9 134.6 L431.7 134.6 L432.5 134.6 L433.2 134.6 L433.2 133.6 L433.2 132.7 L433.2 131.8 L432.5 131.8 L432.5 132.7 L432.5 133.6 L431.7 133.6 L430.9 133.6 L430.1 133.6 L429.4 133.6 L428.6 133.6 L427.8 133.6 L427.0 133.6 L426.3 133.6 L425.5 133.6 L424.7 133.6 L423.9 133.6 L423.9 132.7 L423.9 131.8 L423.9 130.8 L423.2 130.8 L422.4 130.8 L421.6 130.8 L421.6 131.8 L421.6 132.7 L421.6 133.6 L421.6 134.6 L421.6 135.5 L421.6 136.4 L421.6 137.4 L421.6 138.3 L421.6 139.2 L420.8 139.2 L420.0 139.2 L419.3 139.2 L418.5 139.2 L418.5 140.2 L418.5 141.1 Z" fill="#2f8f83" fill-opacity="0.34" stroke="#0e5b52" stroke-width="1.6" />
  <path d="M418.5 143.9 L418.5 144.8 L419.3 144.8 L420.0 144.8 L420.0 145.7 L420.0 146.7 L420.0 147.6 L420.0 148.5 L420.0 149.4 L420.0 150.4 L420.0 151.3 L420.0 152.2 L420.0 153.2 L420.8 153.2 L421.6 153.2 L422.4 153.2 L423.2 153.2 L423.9 153.2 L424.7 153.2 L424.7 152.2 L424.7 151.3 L424.7 150.4 L424.7 149.4 L424.7 148.5 L424.7 147.6 L424.7 146.7 L424.7 145.7 L424.7 144.8 L425.5 144.8 L426.3 144.8 L427.0 144.8 L427.0 143.9 L427.0 142.9 L427.0 142.0 L426.3 142.0 L425.5 142.0 L424.7 142.0 L423.9 142.0 L423.2 142.0 L422.4 142.0 L421.6 142.0 L420.8 142.0 L420.0 142.0 L419.3 142.0 L418.5 142.0 L418.5 142.9 L418.5 143.9 Z" fill="#2f8f83" fill-opacity="0.34" stroke="#0e5b52" stroke-width="1.6" />
  <path d="M496.1 496.1 L496.1 497.0 L496.9 497.0 L496.9 496.1 L497.7 496.1 L497.7 495.2 L497.7 494.3 L496.9 494.3 L496.1 494.3 L496.1 495.2 L496.1 496.1 Z" fill="#2f8f83" fill-opacity="0.34" stroke="#0e5b52" stroke-width="1.6" />
  <path d="M505.5 500.6 L505.4 501.5 L506.2 501.5 L506.2 500.6 L506.2 499.7 L506.2 498.8 L506.2 497.9 L506.2 497.0 L506.2 496.1 L505.5 496.1 L505.5 497.0 L505.5 497.9 L505.5 498.8 L505.5 499.7 L505.5 500.6 Z" fill="#2f8f83" fill-opacity="0.34" stroke="#0e5b52" stroke-width="1.6" />
  <path d="M493.0 493.5 L493.0 494.3 L493.8 494.3 L493.8 495.2 L493.8 496.1 L493.8 497.0 L493.8 497.9 L493.8 498.8 L494.6 498.8 L495.4 498.8 L496.1 498.8 L496.1 499.7 L496.1 500.6 L496.1 501.5 L496.1 502.4 L496.1 503.3 L496.9 503.3 L497.7 503.3 L498.5 503.3 L498.5 502.4 L497.7 502.4 L497.7 501.5 L496.9 501.5 L496.9 500.6 L496.9 499.7 L496.9 498.8 L496.9 497.9 L496.9 497.0 L496.1 497.0 L496.1 496.1 L496.1 495.2 L496.1 494.3 L496.9 494.3 L497.7 494.3 L497.7 495.2 L498.5 495.2 L498.5 494.3 L499.2 494.3 L499.2 493.5 L499.2 492.6 L499.2 491.7 L499.2 490.8 L499.2 489.9 L499.2 489.0 L499.2 488.1 L499.2 487.2 L499.2 486.3 L498.5 486.3 L497.7 486.3 L496.9 486.3 L496.1 486.3 L495.4 486.3 L494.6 486.3 L493.8 486.3 L493.0 486.3 L493.0 487.2 L493.0 488.1 L493.0 489.0 L493.0 489.9 L493.0 490.8 L493.0 491.7 L493.0 492.6 L493.0 493.5 Z" fill="#2f8f83" fill-opacity="0.34" stroke="#0e5b52" stroke-width="1.6" />
  <path d="M496.1 505.0 L496.1 505.9 L496.9 505.9 L497.7 505.9 L498.5 505.9 L499.2 505.9 L500.0 505.9 L500.8 505.9 L501.6 505.9 L501.6 505.1 L501.6 504.2 L500.8 504.2 L500.0 504.2 L499.2 504.2 L499.2 503.3 L498.5 503.3 L497.7 503.3 L496.9 503.3 L496.1 503.3 L496.1 504.2 L496.1 505.0 Z" fill="#2f8f83" fill-opacity="0.34" stroke="#0e5b52" stroke-width="1.6" />
  <path d="M506.2 495.2 L506.2 496.1 L507.0 496.1 L507.8 496.1 L508.6 496.1 L509.3 496.1 L509.3 495.2 L509.3 494.3 L509.3 493.5 L509.3 492.6 L509.3 491.7 L509.3 490.8 L508.6 490.8 L507.8 490.8 L507.0 490.8 L506.2 490.8 L506.2 491.7 L506.2 492.6 L506.2 493.5 L506.2 494.3 L506.2 495.2 Z" fill="#2f8f83" fill-opacity="0.34" stroke="#0e5b52" stroke-width="1.6" />
  <path d="M501.6 517.5 L501.6 518.4 L502.3 518.4 L503.1 518.4 L503.1 519.3 L503.9 519.3 L504.7 519.3 L505.5 519.3 L506.2 519.3 L506.2 520.2 L506.2 521.1 L507.0 521.1 L507.8 521.1 L508.6 521.1 L509.3 521.1 L510.1 521.1 L510.9 521.1 L511.7 521.1 L512.4 521.1 L512.4 520.2 L511.7 520.2 L511.7 519.3 L510.9 519.3 L510.1 519.3 L509.3 519.3 L509.3 518.4 L509.3 517.5 L509.3 516.6 L509.3 515.7 L509.3 514.8 L509.3 514.0 L509.3 513.1 L509.3 512.2 L508.6 512.2 L507.8 512.2 L507.0 512.2 L506.2 512.2 L506.2 511.3 L506.2 510.4 L506.2 509.5 L506.2 508.6 L506.2 507.7 L506.2 506.8 L506.2 505.9 L505.4 505.9 L505.4 506.8 L505.5 507.7 L505.5 508.6 L505.5 509.5 L505.5 510.4 L505.5 511.3 L505.5 512.2 L504.7 512.2 L503.9 512.2 L503.1 512.2 L502.3 512.2 L501.6 512.2 L501.6 513.1 L501.6 514.0 L501.6 514.8 L501.6 515.7 L501.6 516.6 L501.6 517.5 Z" fill="#2f8f83" fill-opacity="0.34" stroke="#0e5b52" stroke-width="1.6" />
  <path d="M503.1 522.0 L503.1 522.9 L503.9 522.9 L504.7 522.9 L505.5 522.9 L506.2 522.9 L507.0 522.9 L507.8 522.9 L508.6 522.9 L509.3 522.9 L510.1 522.9 L510.9 522.9 L511.7 522.9 L512.4 522.9 L512.4 522.0 L512.4 521.1 L511.7 521.1 L510.9 521.1 L510.1 521.1 L509.3 521.1 L508.6 521.1 L507.8 521.1 L507.0 521.1 L506.2 521.1 L506.2 520.2 L506.2 519.3 L505.5 519.3 L504.7 519.3 L503.9 519.3 L503.1 519.3 L503.1 520.2 L503.1 521.1 L503.1 522.0 Z" fill="#2f8f83" fill-opacity="0.34" stroke="#0e5b52" stroke-width="1.6" />
  <!-- title strip -->
  <rect x="0" y="0" width="1000" height="54" fill="#173042" />
  <text x="20" y="34" font-size="21" font-weight="bold" fill="#ffffff">Quartz Mountain Resources Ltd. — Mineral Claims</text>
  <text x="980" y="34" font-size="15" fill="#cfe3df" text-anchor="end">QZM</text>
  <!-- scale bar -->
  <g transform="translate(861.9145798237535, 596)">
    <rect x="0" y="0" width="49.04271008812327" height="8" fill="#173042" />
    <rect x="49.04271008812327" y="0" width="49.04271008812327" height="8" fill="#ffffff" stroke="#173042" stroke-width="1" />
    <text x="49.04271008812327" y="-6" font-size="12" fill="#173042" text-anchor="middle">50 km</text>
  </g>
  <!-- north arrow -->
  <g transform="translate(956, 92)">
    <circle r="17" fill="#ffffff" stroke="#b9b09a" />
    <path d="M0 -10 L5 7 L0 3 L-5 7 Z" fill="#173042" />
    <text y="14" font-size="9" font-weight="bold" fill="#173042" text-anchor="middle">N</text>
  </g>
  <!-- watermark -->
  <text x="20" y="620" font-size="13" fill="#7d8b8a">Map by Exploration Maps — explorationmaps.com</text>
</svg>