<svg xmlns="http://www.w3.org/2000/svg" viewBox="0 0 1000 640" font-family="Arial, Helvetica, sans-serif">
  <rect width="1000" height="640" fill="#f3efe6" />
  <line x1="200" y1="0" x2="200" y2="640" stroke="#d9d2c0" stroke-width="0.7" />
  <line x1="0" y1="128" x2="1000" y2="128" stroke="#d9d2c0" stroke-width="0.7" />
  <line x1="400" y1="0" x2="400" y2="640" stroke="#d9d2c0" stroke-width="0.7" />
  <line x1="0" y1="256" x2="1000" y2="256" stroke="#d9d2c0" stroke-width="0.7" />
  <line x1="600" y1="0" x2="600" y2="640" stroke="#d9d2c0" stroke-width="0.7" />
  <line x1="0" y1="384" x2="1000" y2="384" stroke="#d9d2c0" stroke-width="0.7" />
  <line x1="800" y1="0" x2="800" y2="640" stroke="#d9d2c0" stroke-width="0.7" />
  <line x1="0" y1="512" x2="1000" y2="512" stroke="#d9d2c0" stroke-width="0.7" />
  <path d="M735.9 519.5 L735.6 519.5 L735.6 519.8 L735.9 519.8 L736.2 519.8 L736.2 519.5 L735.9 519.5 Z" fill="#2f8f83" fill-opacity="0.34" stroke="#0e5b52" stroke-width="1.6" />
  <path d="M735.9 518.9 L735.6 518.9 L735.6 519.2 L735.9 519.2 L735.9 518.9 Z" fill="#2f8f83" fill-opacity="0.34" stroke="#0e5b52" stroke-width="1.6" />
  <path d="M735.9 520.1 L735.9 520.4 L736.2 520.4 L736.2 520.1 L736.2 519.8 L735.9 519.8 L735.9 520.1 Z" fill="#2f8f83" fill-opacity="0.34" stroke="#0e5b52" stroke-width="1.6" />
  <path d="M735.0 519.2 L735.0 519.5 L735.3 519.5 L735.6 519.5 L735.9 519.5 L736.2 519.5 L736.2 519.2 L735.9 519.2 L735.6 519.2 L735.6 518.9 L735.3 518.9 L735.0 518.9 L735.0 519.2 Z" fill="#2f8f83" fill-opacity="0.34" stroke="#0e5b52" stroke-width="1.6" />
  <path d="M735.0 517.4 L735.0 517.7 L735.0 518.0 L735.0 518.3 L735.0 518.6 L735.0 518.9 L735.3 518.9 L735.6 518.9 L735.6 518.6 L735.6 518.3 L735.6 518.0 L735.6 517.7 L735.6 517.4 L735.6 517.2 L735.3 517.2 L735.0 517.2 L735.0 517.4 Z" fill="#2f8f83" fill-opacity="0.34" stroke="#0e5b52" stroke-width="1.6" />
  <path d="M735.6 520.1 L735.6 520.4 L735.9 520.4 L735.9 520.1 L735.9 519.8 L735.6 519.8 L735.6 520.1 Z" fill="#2f8f83" fill-opacity="0.34" stroke="#0e5b52" stroke-width="1.6" />
  <path d="M735.6 516.9 L735.3 516.9 L735.3 517.2 L735.6 517.2 L735.6 516.9 Z" fill="#2f8f83" fill-opacity="0.34" stroke="#0e5b52" stroke-width="1.6" />
  <path d="M732.5 513.0 L732.2 513.0 L732.2 513.3 L732.5 513.3 L732.8 513.3 L733.1 513.3 L733.4 513.3 L733.4 513.0 L733.1 513.0 L732.8 513.0 L732.5 513.0 Z" fill="#2f8f83" fill-opacity="0.34" stroke="#0e5b52" stroke-width="1.6" />
  <path d="M732.2 511.3 L731.9 511.3 L731.9 511.5 L732.2 511.5 L732.2 511.8 L732.5 511.8 L732.5 512.1 L732.2 512.1 L732.2 512.4 L732.2 512.7 L732.2 513.0 L732.5 513.0 L732.8 513.0 L733.1 513.0 L733.4 513.0 L733.6 513.0 L733.6 513.3 L733.9 513.3 L733.9 513.0 L733.9 512.7 L733.9 512.4 L733.9 512.1 L733.9 511.8 L733.6 511.8 L733.6 511.5 L733.6 511.3 L733.6 511.0 L733.4 511.0 L733.1 511.0 L732.8 511.0 L732.5 511.0 L732.2 511.0 L732.2 511.3 Z" fill="#2f8f83" fill-opacity="0.34" stroke="#0e5b52" stroke-width="1.6" />
  <path d="M735.6 519.5 L735.3 519.5 L735.3 519.8 L735.6 519.8 L735.6 519.5 Z" fill="#2f8f83" fill-opacity="0.34" stroke="#0e5b52" stroke-width="1.6" />
  <path d="M733.6 513.0 L733.4 513.0 L733.4 513.3 L733.6 513.3 L733.6 513.0 Z" fill="#2f8f83" fill-opacity="0.34" stroke="#0e5b52" stroke-width="1.6" />
  <path d="M735.9 517.4 L735.6 517.4 L735.6 517.7 L735.9 517.7 L735.9 517.4 Z" fill="#2f8f83" fill-opacity="0.34" stroke="#0e5b52" stroke-width="1.6" />
  <path d="M735.6 517.2 L735.6 517.4 L735.9 517.4 L735.9 517.2 L735.9 516.9 L735.6 516.9 L735.6 517.2 Z" fill="#2f8f83" fill-opacity="0.34" stroke="#0e5b52" stroke-width="1.6" />
  <path d="M733.9 513.3 L733.6 513.3 L733.6 513.6 L733.9 513.6 L733.9 513.3 Z" fill="#2f8f83" fill-opacity="0.34" stroke="#0e5b52" stroke-width="1.6" />
  <path d="M734.5 514.5 L734.2 514.5 L734.2 514.8 L734.5 514.8 L734.5 514.5 Z" fill="#2f8f83" fill-opacity="0.34" stroke="#0e5b52" stroke-width="1.6" />
  <path d="M735.0 516.0 L734.8 516.0 L734.8 516.3 L735.0 516.3 L735.0 516.0 Z" fill="#2f8f83" fill-opacity="0.34" stroke="#0e5b52" stroke-width="1.6" />
  <path d="M733.6 513.3 L733.4 513.3 L733.4 513.6 L733.6 513.6 L733.6 513.3 Z" fill="#2f8f83" fill-opacity="0.34" stroke="#0e5b52" stroke-width="1.6" />
  <path d="M733.9 513.9 L733.6 513.9 L733.6 514.2 L733.9 514.2 L733.9 513.9 Z" fill="#2f8f83" fill-opacity="0.34" stroke="#0e5b52" stroke-width="1.6" />
  <path d="M733.1 513.6 L733.1 513.9 L733.4 513.9 L733.6 513.9 L733.6 513.6 L733.4 513.6 L733.4 513.3 L733.1 513.3 L733.1 513.6 Z" fill="#2f8f83" fill-opacity="0.34" stroke="#0e5b52" stroke-width="1.6" />
  <path d="M733.6 513.9 L733.4 513.9 L733.4 514.2 L733.6 514.2 L733.6 513.9 Z" fill="#2f8f83" fill-opacity="0.34" stroke="#0e5b52" stroke-width="1.6" />
  <path d="M733.9 513.6 L733.6 513.6 L733.6 513.9 L733.9 513.9 L733.9 514.2 L734.2 514.2 L734.2 513.9 L734.2 513.6 L733.9 513.6 Z" fill="#2f8f83" fill-opacity="0.34" stroke="#0e5b52" stroke-width="1.6" />
  <path d="M735.6 518.0 L735.6 518.3 L735.6 518.6 L735.6 518.9 L735.9 518.9 L735.9 518.6 L735.9 518.3 L735.9 518.0 L735.9 517.7 L735.6 517.7 L735.6 518.0 Z" fill="#2f8f83" fill-opacity="0.34" stroke="#0e5b52" stroke-width="1.6" />
  <path d="M734.5 515.7 L734.5 516.0 L734.8 516.0 L734.8 515.7 L734.8 515.4 L734.5 515.4 L734.5 515.7 Z" fill="#2f8f83" fill-opacity="0.34" stroke="#0e5b52" stroke-width="1.6" />
  <path d="M734.5 516.3 L734.5 516.6 L734.8 516.6 L735.0 516.6 L735.0 516.3 L734.8 516.3 L734.8 516.0 L734.5 516.0 L734.5 516.3 Z" fill="#2f8f83" fill-opacity="0.34" stroke="#0e5b52" stroke-width="1.6" />
  <path d="M733.6 514.5 L733.6 514.8 L733.9 514.8 L733.9 514.5 L733.9 514.2 L733.6 514.2 L733.6 514.5 Z" fill="#2f8f83" fill-opacity="0.34" stroke="#0e5b52" stroke-width="1.6" />
  <path d="M734.2 515.1 L733.9 515.1 L733.9 515.4 L734.2 515.4 L734.2 515.1 Z" fill="#2f8f83" fill-opacity="0.34" stroke="#0e5b52" stroke-width="1.6" />
  <path d="M734.2 515.7 L734.2 516.0 L734.5 516.0 L734.5 515.7 L734.5 515.4 L734.2 515.4 L734.2 515.7 Z" fill="#2f8f83" fill-opacity="0.34" stroke="#0e5b52" stroke-width="1.6" />
  <path d="M735.9 517.2 L735.9 517.4 L735.9 517.7 L735.9 518.0 L735.9 518.3 L735.9 518.6 L735.9 518.9 L735.9 519.2 L736.2 519.2 L736.2 518.9 L736.2 518.6 L736.5 518.6 L736.5 518.3 L736.5 518.0 L736.5 517.7 L736.2 517.7 L736.2 517.4 L736.5 517.4 L736.5 517.2 L736.5 516.9 L736.2 516.9 L735.9 516.9 L735.9 517.2 Z" fill="#2f8f83" fill-opacity="0.34" stroke="#0e5b52" stroke-width="1.6" />
  <path d="M675.8 443.2 L675.8 443.5 L676.0 443.5 L676.0 443.8 L676.3 443.8 L676.6 443.8 L676.6 443.5 L676.6 443.2 L676.3 443.2 L676.3 442.9 L676.0 442.9 L675.8 442.9 L675.8 443.2 Z" fill="#2f8f83" fill-opacity="0.34" stroke="#0e5b52" stroke-width="1.6" />
  <path d="M687.3 442.6 L687.3 442.9 L687.6 442.9 L687.9 442.9 L687.9 442.6 L687.9 442.3 L687.6 442.3 L687.3 442.3 L687.3 442.6 Z" fill="#2f8f83" fill-opacity="0.34" stroke="#0e5b52" stroke-width="1.6" />
  <path d="M674.6 447.7 L674.3 447.7 L674.3 448.1 L674.6 448.1 L674.9 448.1 L674.9 447.7 L674.6 447.7 Z" fill="#2f8f83" fill-opacity="0.34" stroke="#0e5b52" stroke-width="1.6" />
  <path d="M676.3 393.4 L676.0 393.4 L676.0 393.7 L676.3 393.7 L676.3 394.0 L676.6 394.0 L676.9 394.0 L676.9 394.3 L677.2 394.3 L677.4 394.3 L677.4 394.6 L677.7 394.6 L677.7 395.0 L678.0 395.0 L678.3 395.0 L678.3 394.6 L678.3 394.3 L678.3 394.0 L678.3 393.7 L678.3 393.4 L678.3 393.1 L678.0 393.1 L677.7 393.1 L677.4 393.1 L677.4 392.8 L677.2 392.8 L676.9 392.8 L676.9 393.1 L676.9 393.4 L676.6 393.4 L676.3 393.4 Z" fill="#2f8f83" fill-opacity="0.34" stroke="#0e5b52" stroke-width="1.6" />
  <path d="M670.4 428.7 L670.4 429.0 L670.4 429.3 L670.7 429.3 L671.0 429.3 L671.2 429.3 L671.5 429.3 L671.5 429.6 L671.5 429.9 L671.8 429.9 L672.1 429.9 L672.1 430.2 L672.4 430.2 L672.6 430.2 L672.9 430.2 L673.2 430.2 L673.5 430.2 L673.8 430.2 L674.1 430.2 L674.1 429.9 L674.1 429.6 L673.8 429.6 L673.5 429.6 L673.2 429.6 L672.9 429.6 L672.6 429.6 L672.6 429.3 L672.6 429.0 L672.6 428.7 L672.6 428.4 L672.6 428.1 L672.4 428.1 L672.1 428.1 L672.1 428.4 L671.8 428.4 L671.5 428.4 L671.2 428.4 L671.0 428.4 L670.7 428.4 L670.4 428.4 L670.4 428.7 Z" fill="#2f8f83" fill-opacity="0.34" stroke="#0e5b52" stroke-width="1.6" />
  <path d="M671.8 429.9 L671.5 429.9 L671.5 430.2 L671.8 430.2 L672.1 430.2 L672.1 429.9 L671.8 429.9 Z" fill="#2f8f83" fill-opacity="0.34" stroke="#0e5b52" stroke-width="1.6" />
  <path d="M674.3 430.5 L674.3 430.9 L674.6 430.9 L674.9 430.9 L674.9 431.2 L675.2 431.2 L675.5 431.2 L675.5 430.9 L675.5 430.5 L675.5 430.2 L675.2 430.2 L674.9 430.2 L674.6 430.2 L674.3 430.2 L674.3 430.5 Z" fill="#2f8f83" fill-opacity="0.34" stroke="#0e5b52" stroke-width="1.6" />
  <path d="M674.1 429.9 L674.1 430.2 L674.3 430.2 L674.6 430.2 L674.9 430.2 L675.2 430.2 L675.5 430.2 L675.5 429.9 L675.5 429.6 L675.2 429.6 L674.9 429.6 L674.6 429.6 L674.3 429.6 L674.1 429.6 L674.1 429.9 Z" fill="#2f8f83" fill-opacity="0.34" stroke="#0e5b52" stroke-width="1.6" />
  <path d="M660.2 405.3 L660.2 405.6 L660.2 405.9 L660.2 406.3 L660.5 406.3 L660.8 406.3 L661.1 406.3 L661.4 406.3 L661.4 405.9 L661.4 405.6 L661.4 405.3 L661.4 405.0 L661.1 405.0 L660.8 405.0 L660.5 405.0 L660.2 405.0 L660.2 405.3 Z M660.5 405.3 L660.8 405.3 L660.8 405.6 L660.5 405.6 L660.5 405.3 Z" fill="#2f8f83" fill-opacity="0.34" stroke="#0e5b52" stroke-width="1.6" />
  <path d="M674.9 447.7 L674.9 448.1 L675.2 448.1 L675.2 447.7 L675.5 447.7 L675.8 447.7 L676.0 447.7 L676.3 447.7 L676.6 447.7 L676.6 447.4 L676.3 447.4 L676.0 447.4 L675.8 447.4 L675.5 447.4 L675.2 447.4 L674.9 447.4 L674.9 447.7 Z" fill="#2f8f83" fill-opacity="0.34" stroke="#0e5b52" stroke-width="1.6" />
  <path d="M349.9 251.8 L349.9 252.1 L349.9 252.4 L349.9 252.7 L349.9 253.1 L350.2 253.1 L350.5 253.1 L350.8 253.1 L351.1 253.1 L351.4 253.1 L351.4 252.7 L351.6 252.7 L351.6 252.4 L351.9 252.4 L351.9 252.1 L351.9 251.8 L352.2 251.8 L352.5 251.8 L352.8 251.8 L352.8 251.5 L352.8 251.1 L352.8 250.8 L352.8 250.5 L352.5 250.5 L352.2 250.5 L351.9 250.5 L351.6 250.5 L351.6 250.8 L351.4 250.8 L351.1 250.8 L351.1 251.1 L350.8 251.1 L350.5 251.1 L350.5 251.5 L350.2 251.5 L349.9 251.5 L349.9 251.8 Z" fill="#2f8f83" fill-opacity="0.34" stroke="#0e5b52" stroke-width="1.6" />
  <path d="M674.3 435.1 L674.3 435.4 L674.3 435.7 L674.6 435.7 L674.9 435.7 L674.9 435.4 L674.9 435.1 L674.9 434.8 L674.6 434.8 L674.3 434.8 L674.3 435.1 Z" fill="#2f8f83" fill-opacity="0.34" stroke="#0e5b52" stroke-width="1.6" />
  <path d="M673.2 435.4 L672.9 435.4 L672.9 435.7 L673.2 435.7 L673.5 435.7 L673.8 435.7 L674.1 435.7 L674.3 435.7 L674.3 435.4 L674.3 435.1 L674.3 434.8 L674.1 434.8 L673.8 434.8 L673.5 434.8 L673.5 435.1 L673.5 435.4 L673.2 435.4 Z" fill="#2f8f83" fill-opacity="0.34" stroke="#0e5b52" stroke-width="1.6" />
  <path d="M671.2 434.8 L671.2 435.1 L671.2 435.4 L671.2 435.7 L671.5 435.7 L671.8 435.7 L672.1 435.7 L672.1 435.4 L672.1 435.1 L672.4 435.1 L672.4 434.8 L672.4 434.5 L672.1 434.5 L671.8 434.5 L671.5 434.5 L671.2 434.5 L671.2 434.8 Z" fill="#2f8f83" fill-opacity="0.34" stroke="#0e5b52" stroke-width="1.6" />
  <path d="M671.2 436.0 L671.2 436.3 L671.2 436.6 L671.2 436.9 L671.2 437.2 L671.5 437.2 L671.8 437.2 L672.1 437.2 L672.4 437.2 L672.6 437.2 L672.9 437.2 L673.2 437.2 L673.5 437.2 L673.8 437.2 L674.1 437.2 L674.3 437.2 L674.3 436.9 L674.3 436.6 L674.3 436.3 L674.3 436.0 L674.3 435.7 L674.1 435.7 L673.8 435.7 L673.5 435.7 L673.2 435.7 L672.9 435.7 L672.9 436.0 L672.6 436.0 L672.4 436.0 L672.1 436.0 L672.1 435.7 L671.8 435.7 L671.5 435.7 L671.2 435.7 L671.2 436.0 Z" fill="#2f8f83" fill-opacity="0.34" stroke="#0e5b52" stroke-width="1.6" />
  <path d="M671.2 437.5 L671.2 437.8 L671.2 438.1 L671.5 438.1 L671.8 438.1 L672.1 438.1 L672.4 438.1 L672.6 438.1 L672.9 438.1 L673.2 438.1 L673.5 438.1 L673.8 438.1 L674.1 438.1 L674.1 437.8 L674.3 437.8 L674.6 437.8 L674.9 437.8 L674.9 437.5 L674.9 437.2 L674.9 436.9 L674.9 436.6 L674.9 436.3 L674.9 436.0 L674.9 435.7 L674.6 435.7 L674.3 435.7 L674.3 436.0 L674.3 436.3 L674.3 436.6 L674.3 436.9 L674.3 437.2 L674.1 437.2 L673.8 437.2 L673.5 437.2 L673.2 437.2 L672.9 437.2 L672.6 437.2 L672.4 437.2 L672.1 437.2 L671.8 437.2 L671.5 437.2 L671.2 437.2 L671.2 437.5 Z" fill="#2f8f83" fill-opacity="0.34" stroke="#0e5b52" stroke-width="1.6" />
  <path d="M288.7 253.7 L288.7 254.0 L289.0 254.0 L289.2 254.0 L289.5 254.0 L289.8 254.0 L290.1 254.0 L290.4 254.0 L290.4 253.7 L290.4 253.4 L290.4 253.1 L290.4 252.7 L290.4 252.4 L290.4 252.1 L290.4 251.8 L290.4 251.5 L290.4 251.1 L290.4 250.8 L290.1 250.8 L289.8 250.8 L289.5 250.8 L289.2 250.8 L289.0 250.8 L288.7 250.8 L288.7 251.1 L288.7 251.5 L288.7 251.8 L288.7 252.1 L288.7 252.4 L288.7 252.7 L288.7 253.1 L288.7 253.4 L288.7 253.7 Z" fill="#2f8f83" fill-opacity="0.34" stroke="#0e5b52" stroke-width="1.6" />
  <path d="M290.9 256.6 L290.9 256.9 L291.2 256.9 L291.5 256.9 L291.8 256.9 L292.1 256.9 L292.3 256.9 L292.6 256.9 L292.9 256.9 L293.2 256.9 L293.5 256.9 L293.5 256.6 L293.5 256.3 L293.5 255.9 L293.5 255.6 L293.5 255.3 L293.5 255.0 L293.5 254.7 L293.5 254.3 L293.5 254.0 L293.2 254.0 L292.9 254.0 L292.6 254.0 L292.3 254.0 L292.1 254.0 L291.8 254.0 L291.5 254.0 L291.2 254.0 L290.9 254.0 L290.9 254.3 L290.9 254.7 L290.9 255.0 L290.9 255.3 L290.9 255.6 L290.9 255.9 L290.9 256.3 L290.9 256.6 Z" fill="#2f8f83" fill-opacity="0.34" stroke="#0e5b52" stroke-width="1.6" />
  <path d="M293.5 258.2 L293.5 258.5 L293.8 258.5 L294.0 258.5 L294.3 258.5 L294.6 258.5 L294.9 258.5 L295.2 258.5 L295.5 258.5 L295.7 258.5 L296.0 258.5 L296.3 258.5 L296.6 258.5 L296.9 258.5 L297.1 258.5 L297.4 258.5 L297.7 258.5 L297.7 258.2 L297.7 257.8 L297.7 257.5 L297.7 257.2 L297.4 257.2 L297.1 257.2 L296.9 257.2 L296.6 257.2 L296.3 257.2 L296.0 257.2 L295.7 257.2 L295.5 257.2 L295.5 256.9 L295.5 256.6 L295.2 256.6 L294.9 256.6 L294.6 256.6 L294.3 256.6 L294.0 256.6 L293.8 256.6 L293.5 256.6 L293.5 256.9 L293.5 257.2 L293.5 257.5 L293.5 257.8 L293.5 258.2 Z" fill="#2f8f83" fill-opacity="0.34" stroke="#0e5b52" stroke-width="1.6" />
  <path d="M369.4 226.4 L369.4 226.7 L369.7 226.7 L369.7 226.4 L369.7 226.1 L369.4 226.1 L369.4 226.4 Z" fill="#2f8f83" fill-opacity="0.34" stroke="#0e5b52" stroke-width="1.6" />
  <path d="M369.1 226.4 L369.1 226.7 L369.4 226.7 L369.4 226.4 L369.4 226.1 L369.1 226.1 L369.1 226.4 Z" fill="#2f8f83" fill-opacity="0.34" stroke="#0e5b52" stroke-width="1.6" />
  <path d="M731.7 511.5 L731.7 511.8 L731.7 512.1 L731.9 512.1 L732.2 512.1 L732.5 512.1 L732.5 511.8 L732.2 511.8 L732.2 511.5 L731.9 511.5 L731.9 511.3 L731.7 511.3 L731.7 511.5 Z" fill="#2f8f83" fill-opacity="0.34" stroke="#0e5b52" stroke-width="1.6" />
  <path d="M731.4 510.7 L731.4 511.0 L731.7 511.0 L731.7 511.3 L731.9 511.3 L731.9 511.0 L732.2 511.0 L732.2 510.7 L731.9 510.7 L731.9 510.4 L731.7 510.4 L731.4 510.4 L731.4 510.7 Z" fill="#2f8f83" fill-opacity="0.34" stroke="#0e5b52" stroke-width="1.6" />
  <path d="M733.9 513.3 L733.9 513.6 L734.2 513.6 L734.2 513.9 L734.2 514.2 L734.2 514.5 L734.5 514.5 L734.5 514.2 L734.5 513.9 L734.5 513.6 L734.8 513.6 L735.0 513.6 L735.3 513.6 L735.3 513.3 L735.3 513.0 L735.0 513.0 L734.8 513.0 L734.5 513.0 L734.2 513.0 L733.9 513.0 L733.9 513.3 Z" fill="#2f8f83" fill-opacity="0.34" stroke="#0e5b52" stroke-width="1.6" />
  <path d="M734.5 513.9 L734.5 514.2 L734.5 514.5 L734.5 514.8 L734.5 515.1 L734.5 515.4 L734.8 515.4 L734.8 515.1 L734.8 514.8 L734.8 514.5 L735.0 514.5 L735.3 514.5 L735.3 514.2 L735.3 513.9 L735.3 513.6 L735.0 513.6 L734.8 513.6 L734.5 513.6 L734.5 513.9 Z" fill="#2f8f83" fill-opacity="0.34" stroke="#0e5b52" stroke-width="1.6" />
  <path d="M734.5 516.9 L734.5 517.2 L734.8 517.2 L735.0 517.2 L735.3 517.2 L735.3 516.9 L735.6 516.9 L735.9 516.9 L736.2 516.9 L736.2 516.6 L736.2 516.3 L736.2 516.0 L736.2 515.7 L735.9 515.7 L735.9 515.4 L735.9 515.1 L735.9 514.8 L735.9 514.5 L735.6 514.5 L735.6 514.2 L735.3 514.2 L735.3 514.5 L735.0 514.5 L734.8 514.5 L734.8 514.8 L734.8 515.1 L734.8 515.4 L734.8 515.7 L734.8 516.0 L735.0 516.0 L735.0 516.3 L735.0 516.6 L734.8 516.6 L734.5 516.6 L734.5 516.9 Z" fill="#2f8f83" fill-opacity="0.34" stroke="#0e5b52" stroke-width="1.6" />
  <path d="M732.8 513.3 L732.5 513.3 L732.5 513.6 L732.8 513.6 L732.8 513.9 L732.8 514.2 L733.1 514.2 L733.1 514.5 L733.1 514.8 L733.4 514.8 L733.4 515.1 L733.4 515.4 L733.6 515.4 L733.6 515.7 L733.6 516.0 L733.9 516.0 L733.9 516.3 L734.2 516.3 L734.2 516.6 L734.2 516.9 L734.5 516.9 L734.5 516.6 L734.5 516.3 L734.5 516.0 L734.2 516.0 L734.2 515.7 L734.2 515.4 L733.9 515.4 L733.9 515.1 L733.9 514.8 L733.6 514.8 L733.6 514.5 L733.6 514.2 L733.4 514.2 L733.4 513.9 L733.1 513.9 L733.1 513.6 L733.1 513.3 L732.8 513.3 Z" fill="#2f8f83" fill-opacity="0.34" stroke="#0e5b52" stroke-width="1.6" />
  <path d="M735.3 520.1 L735.0 520.1 L735.0 520.4 L735.3 520.4 L735.3 520.7 L735.3 521.0 L735.3 521.3 L735.6 521.3 L735.6 521.6 L735.9 521.6 L735.9 521.9 L736.2 521.9 L736.5 521.9 L736.5 522.2 L736.7 522.2 L737.0 522.2 L737.0 521.9 L737.0 521.6 L736.7 521.6 L736.7 521.3 L736.5 521.3 L736.5 521.0 L736.5 520.7 L736.5 520.4 L736.2 520.4 L735.9 520.4 L735.6 520.4 L735.6 520.1 L735.3 520.1 Z" fill="#2f8f83" fill-opacity="0.34" stroke="#0e5b52" stroke-width="1.6" />
  <path d="M734.5 523.0 L734.5 523.3 L734.5 523.6 L734.5 523.9 L734.5 524.2 L734.5 524.5 L734.5 524.8 L734.8 524.8 L735.0 524.8 L735.0 524.5 L735.3 524.5 L735.3 524.2 L735.6 524.2 L735.9 524.2 L735.9 523.9 L735.9 523.6 L736.2 523.6 L736.5 523.6 L736.5 523.3 L736.5 523.0 L736.2 523.0 L735.9 523.0 L735.6 523.0 L735.3 523.0 L735.3 522.7 L735.3 522.5 L735.0 522.5 L734.8 522.5 L734.8 522.7 L734.5 522.7 L734.5 523.0 Z" fill="#2f8f83" fill-opacity="0.34" stroke="#0e5b52" stroke-width="1.6" />
  <path d="M735.3 521.9 L735.3 522.2 L735.0 522.2 L735.0 522.5 L735.3 522.5 L735.3 522.7 L735.3 523.0 L735.6 523.0 L735.9 523.0 L736.2 523.0 L736.5 523.0 L736.7 523.0 L736.7 522.7 L736.7 522.5 L737.0 522.5 L737.0 522.2 L736.7 522.2 L736.5 522.2 L736.5 521.9 L736.2 521.9 L735.9 521.9 L735.9 521.6 L735.6 521.6 L735.3 521.6 L735.3 521.9 Z" fill="#2f8f83" fill-opacity="0.34" stroke="#0e5b52" stroke-width="1.6" />
  <path d="M265.8 122.9 L265.8 123.3 L266.1 123.3 L266.4 123.3 L266.6 123.3 L266.9 123.3 L266.9 122.9 L266.9 122.6 L267.2 122.6 L267.5 122.6 L267.8 122.6 L268.1 122.6 L268.3 122.6 L268.3 122.3 L268.3 121.9 L268.1 121.9 L267.8 121.9 L267.5 121.9 L267.2 121.9 L266.9 121.9 L266.6 121.9 L266.4 121.9 L266.1 121.9 L265.8 121.9 L265.8 122.3 L265.8 122.6 L265.8 122.9 Z" fill="#2f8f83" fill-opacity="0.34" stroke="#0e5b52" stroke-width="1.6" />
  <path d="M267.5 124.3 L267.8 124.3 L268.1 124.3 L268.3 124.3 L268.6 124.3 L268.9 124.3 L268.9 123.9 L268.9 123.6 L268.9 123.3 L268.9 122.9 L268.9 122.6 L268.9 122.3 L268.9 121.9 L268.6 121.9 L268.3 121.9 L268.3 122.3 L268.3 122.6 L268.3 122.9 L268.3 123.3 L268.1 123.3 L268.1 123.6 L268.1 123.9 L267.8 123.9 L267.5 123.9 L267.2 123.9 L267.2 124.3 L267.5 124.3 Z" fill="#2f8f83" fill-opacity="0.34" stroke="#0e5b52" stroke-width="1.6" />
  <path d="M264.4 124.9 L264.7 124.9 L265.0 124.9 L265.2 124.9 L265.5 124.9 L265.8 124.9 L266.1 124.9 L266.1 124.6 L266.1 124.3 L265.8 124.3 L265.5 124.3 L265.2 124.3 L265.0 124.3 L264.7 124.3 L264.7 123.9 L264.7 123.6 L264.7 123.3 L265.0 123.3 L265.0 123.6 L265.2 123.6 L265.5 123.6 L265.5 123.3 L265.8 123.3 L265.8 122.9 L265.5 122.9 L265.2 122.9 L265.0 122.9 L264.7 122.9 L264.4 122.9 L264.4 123.3 L264.4 123.6 L264.4 123.9 L264.4 124.3 L264.4 124.6 L264.4 124.9 Z" fill="#2f8f83" fill-opacity="0.34" stroke="#0e5b52" stroke-width="1.6" />
  <path d="M263.0 124.9 L263.0 125.3 L263.3 125.3 L263.5 125.3 L263.5 125.6 L263.5 125.9 L263.8 125.9 L264.1 125.9 L264.4 125.9 L264.7 125.9 L265.0 125.9 L265.2 125.9 L265.5 125.9 L265.8 125.9 L266.1 125.9 L266.1 125.6 L266.1 125.3 L266.4 125.3 L266.4 124.9 L266.4 124.6 L266.6 124.6 L266.9 124.6 L266.9 124.3 L266.6 124.3 L266.4 124.3 L266.1 124.3 L266.1 124.6 L266.1 124.9 L265.8 124.9 L265.5 124.9 L265.2 124.9 L265.0 124.9 L264.7 124.9 L264.4 124.9 L264.4 124.6 L264.4 124.3 L264.4 123.9 L264.4 123.6 L264.4 123.3 L264.4 122.9 L264.1 122.9 L263.8 122.9 L263.5 122.9 L263.3 122.9 L263.3 123.3 L263.0 123.3 L263.0 123.6 L263.0 123.9 L263.0 124.3 L263.0 124.6 L263.0 124.9 Z" fill="#2f8f83" fill-opacity="0.34" stroke="#0e5b52" stroke-width="1.6" />
  <path d="M267.2 124.6 L267.5 124.6 L267.8 124.6 L268.1 124.6 L268.1 124.9 L268.1 125.3 L268.1 125.6 L268.1 125.9 L268.3 125.9 L268.3 126.3 L268.3 126.6 L268.3 126.9 L268.6 126.9 L268.9 126.9 L269.2 126.9 L269.2 126.6 L269.2 126.3 L269.2 125.9 L268.9 125.9 L268.9 125.6 L268.9 125.3 L268.9 124.9 L268.9 124.6 L268.9 124.3 L268.6 124.3 L268.3 124.3 L268.1 124.3 L267.8 124.3 L267.5 124.3 L267.2 124.3 L266.9 124.3 L266.9 124.6 L267.2 124.6 Z" fill="#2f8f83" fill-opacity="0.34" stroke="#0e5b52" stroke-width="1.6" />
  <path d="M372.5 234.5 L372.5 234.8 L372.5 235.1 L372.8 235.1 L372.8 235.4 L372.8 235.8 L372.8 236.1 L372.8 236.4 L372.8 236.7 L372.8 237.0 L372.8 237.4 L372.8 237.7 L372.8 238.0 L373.1 238.0 L373.4 238.0 L373.7 238.0 L373.9 238.0 L374.2 238.0 L374.5 238.0 L374.5 237.7 L374.5 237.4 L374.5 237.0 L374.5 236.7 L374.8 236.7 L375.1 236.7 L375.3 236.7 L375.3 236.4 L375.3 236.1 L375.1 236.1 L374.8 236.1 L374.5 236.1 L374.5 235.8 L374.5 235.4 L374.5 235.1 L374.5 234.8 L374.5 234.5 L374.5 234.1 L374.2 234.1 L373.9 234.1 L373.7 234.1 L373.4 234.1 L373.1 234.1 L372.8 234.1 L372.5 234.1 L372.5 234.5 Z" fill="#2f8f83" fill-opacity="0.34" stroke="#0e5b52" stroke-width="1.6" />
  <!-- title strip -->
  <rect x="0" y="0" width="1000" height="54" fill="#173042" />
  <text x="20" y="34" font-size="21" font-weight="bold" fill="#ffffff">Rokmaster Resources Corp. — Mineral Claims</text>
  <text x="980" y="34" font-size="15" fill="#cfe3df" text-anchor="end">RKR</text>
  <!-- scale bar -->
  <g transform="translate(910, 596)">
    <rect x="0" y="0" width="25" height="8" fill="#173042" />
    <rect x="25" y="0" width="25" height="8" fill="#ffffff" stroke="#173042" stroke-width="1" />
    <text x="25" y="-6" font-size="12" fill="#173042" text-anchor="middle">50 km</text>
  </g>
  <!-- north arrow -->
  <g transform="translate(956, 92)">
    <circle r="17" fill="#ffffff" stroke="#b9b09a" />
    <path d="M0 -10 L5 7 L0 3 L-5 7 Z" fill="#173042" />
    <text y="14" font-size="9" font-weight="bold" fill="#173042" text-anchor="middle">N</text>
  </g>
  <!-- watermark -->
  <text x="20" y="620" font-size="13" fill="#7d8b8a">Map by Exploration Maps — explorationmaps.com</text>
</svg>