<svg xmlns="http://www.w3.org/2000/svg" viewBox="0 0 1000 640" font-family="Arial, Helvetica, sans-serif">
  <rect width="1000" height="640" fill="#f3efe6" />
  <line x1="200" y1="0" x2="200" y2="640" stroke="#d9d2c0" stroke-width="0.7" />
  <line x1="0" y1="128" x2="1000" y2="128" stroke="#d9d2c0" stroke-width="0.7" />
  <line x1="400" y1="0" x2="400" y2="640" stroke="#d9d2c0" stroke-width="0.7" />
  <line x1="0" y1="256" x2="1000" y2="256" stroke="#d9d2c0" stroke-width="0.7" />
  <line x1="600" y1="0" x2="600" y2="640" stroke="#d9d2c0" stroke-width="0.7" />
  <line x1="0" y1="384" x2="1000" y2="384" stroke="#d9d2c0" stroke-width="0.7" />
  <line x1="800" y1="0" x2="800" y2="640" stroke="#d9d2c0" stroke-width="0.7" />
  <line x1="0" y1="512" x2="1000" y2="512" stroke="#d9d2c0" stroke-width="0.7" />
  <path d="M436.8 211.0 L436.8 213.5 L438.8 213.5 L440.9 213.5 L443.0 213.5 L445.0 213.5 L447.1 213.5 L447.1 211.0 L447.1 208.5 L447.1 206.0 L447.1 203.6 L447.1 201.1 L447.1 198.6 L447.1 196.1 L445.0 196.1 L443.0 196.1 L440.9 196.1 L438.8 196.1 L436.8 196.1 L436.8 198.6 L436.8 201.1 L436.8 203.6 L436.8 206.0 L436.8 208.5 L436.8 211.0 Z M440.9 203.6 L443.0 203.6 L443.0 206.0 L443.0 208.5 L440.9 208.5 L440.9 206.0 L440.9 203.6 Z" fill="#2f8f83" fill-opacity="0.34" stroke="#0e5b52" stroke-width="1.6" />
  <path d="M436.8 193.6 L436.8 196.1 L438.8 196.1 L440.9 196.1 L443.0 196.1 L445.0 196.1 L447.1 196.1 L447.1 193.6 L447.1 191.1 L447.1 188.6 L447.1 186.1 L445.0 186.1 L443.0 186.1 L440.9 186.1 L438.8 186.1 L436.8 186.1 L436.8 188.6 L436.8 191.1 L436.8 193.6 Z" fill="#2f8f83" fill-opacity="0.34" stroke="#0e5b52" stroke-width="1.6" />
  <path d="M447.1 213.5 L447.1 216.0 L449.2 216.0 L451.3 216.0 L453.3 216.0 L455.4 216.0 L457.5 216.0 L457.5 213.5 L457.5 211.0 L459.6 211.0 L459.6 208.5 L459.6 206.0 L461.6 206.0 L461.6 203.6 L461.6 201.1 L459.6 201.1 L457.5 201.1 L457.5 198.6 L457.5 196.1 L455.4 196.1 L453.3 196.1 L451.3 196.1 L449.2 196.1 L447.1 196.1 L447.1 198.6 L447.1 201.1 L447.1 203.6 L447.1 206.0 L447.1 208.5 L447.1 211.0 L447.1 213.5 Z M457.5 201.1 L457.5 203.6 L455.4 203.6 L455.4 206.0 L453.3 206.0 L453.3 203.6 L451.3 203.6 L449.2 203.6 L449.2 201.1 L451.3 201.1 L453.3 201.1 L455.4 201.1 L457.5 201.1 Z M453.3 206.0 L453.3 208.5 L453.3 211.0 L453.3 213.5 L451.3 213.5 L449.2 213.5 L449.2 211.0 L449.2 208.5 L449.2 206.0 L451.3 206.0 L453.3 206.0 Z" fill="#2f8f83" fill-opacity="0.34" stroke="#0e5b52" stroke-width="1.6" />
  <path d="M482.5 509.8 L482.5 512.3 L484.5 512.3 L486.6 512.3 L488.7 512.3 L490.8 512.3 L492.8 512.3 L494.9 512.3 L497.0 512.3 L499.1 512.3 L499.1 509.8 L499.1 507.4 L501.1 507.4 L501.1 504.9 L501.1 502.5 L501.1 500.0 L501.1 497.6 L503.2 497.6 L505.3 497.6 L507.3 497.6 L509.4 497.6 L511.5 497.6 L513.6 497.6 L515.6 497.6 L517.7 497.6 L519.8 497.6 L521.9 497.6 L521.9 495.1 L521.9 492.6 L521.9 490.2 L521.9 487.7 L521.9 485.3 L521.9 482.8 L521.9 480.4 L519.8 480.4 L517.7 480.4 L517.7 482.8 L515.6 482.8 L513.6 482.8 L511.5 482.8 L511.5 485.3 L511.5 487.7 L511.5 490.2 L511.5 492.6 L511.5 495.1 L509.4 495.1 L507.3 495.1 L505.3 495.1 L503.2 495.1 L501.1 495.1 L499.1 495.1 L499.1 492.6 L497.0 492.6 L497.0 495.1 L494.9 495.1 L492.8 495.1 L490.8 495.1 L488.7 495.1 L486.6 495.1 L484.5 495.1 L482.5 495.1 L482.5 497.6 L482.5 500.0 L480.4 500.0 L480.4 502.5 L482.5 502.5 L482.5 504.9 L482.5 507.4 L482.5 509.8 Z M515.6 490.2 L515.6 487.7 L517.7 487.7 L517.7 490.2 L515.6 490.2 Z M490.8 500.0 L492.8 500.0 L492.8 502.5 L494.9 502.5 L494.9 504.9 L494.9 507.4 L492.8 507.4 L490.8 507.4 L490.8 504.9 L490.8 502.5 L490.8 500.0 Z" fill="#2f8f83" fill-opacity="0.34" stroke="#0e5b52" stroke-width="1.6" />
  <path d="M519.8 502.5 L519.8 504.9 L521.9 504.9 L523.9 504.9 L526.0 504.9 L528.1 504.9 L530.2 504.9 L532.2 504.9 L534.3 504.9 L534.3 502.5 L534.3 500.0 L534.3 497.6 L534.3 495.1 L536.4 495.1 L538.5 495.1 L540.5 495.1 L540.5 492.6 L540.5 490.2 L540.5 487.7 L540.5 485.3 L538.5 485.3 L538.5 482.8 L538.5 480.4 L540.5 480.4 L540.5 477.9 L540.5 475.4 L540.5 473.0 L538.5 473.0 L536.4 473.0 L534.3 473.0 L534.3 470.5 L534.3 468.1 L532.2 468.1 L530.2 468.1 L528.1 468.1 L526.0 468.1 L523.9 468.1 L523.9 470.5 L523.9 473.0 L523.9 475.4 L523.9 477.9 L526.0 477.9 L528.1 477.9 L530.2 477.9 L532.2 477.9 L534.3 477.9 L534.3 480.4 L534.3 482.8 L534.3 485.3 L534.3 487.7 L534.3 490.2 L534.3 492.6 L532.2 492.6 L530.2 492.6 L528.1 492.6 L526.0 492.6 L523.9 492.6 L521.9 492.6 L521.9 495.1 L521.9 497.6 L519.8 497.6 L519.8 500.0 L519.8 502.5 Z M528.1 475.4 L528.1 473.0 L530.2 473.0 L530.2 475.4 L528.1 475.4 Z" fill="#2f8f83" fill-opacity="0.34" stroke="#0e5b52" stroke-width="1.6" />
  <path d="M445.1 485.3 L445.1 487.7 L447.2 487.7 L449.3 487.7 L451.4 487.7 L453.4 487.7 L455.5 487.7 L455.5 490.2 L457.6 490.2 L459.7 490.2 L461.7 490.2 L463.8 490.2 L463.8 492.6 L463.8 495.1 L463.8 497.6 L461.7 497.6 L459.7 497.6 L457.6 497.6 L457.6 500.0 L457.6 502.5 L457.6 504.9 L459.7 504.9 L461.7 504.9 L463.8 504.9 L463.8 502.5 L465.9 502.5 L465.9 500.0 L467.9 500.0 L470.0 500.0 L472.1 500.0 L474.2 500.0 L476.2 500.0 L478.3 500.0 L480.4 500.0 L480.4 497.6 L480.4 495.1 L478.3 495.1 L476.2 495.1 L474.2 495.1 L472.1 495.1 L470.0 495.1 L470.0 492.6 L470.0 490.2 L470.0 487.7 L470.0 485.3 L472.1 485.3 L474.2 485.3 L474.2 482.8 L476.2 482.8 L478.3 482.8 L478.3 480.4 L478.3 477.9 L476.2 477.9 L474.2 477.9 L472.1 477.9 L470.0 477.9 L467.9 477.9 L465.9 477.9 L463.8 477.9 L461.7 477.9 L459.7 477.9 L459.7 475.5 L457.6 475.5 L455.5 475.5 L453.4 475.5 L453.4 477.9 L451.4 477.9 L449.3 477.9 L447.2 477.9 L445.1 477.9 L445.1 480.4 L445.1 482.8 L445.1 485.3 Z M470.0 485.3 L467.9 485.3 L467.9 482.8 L470.0 482.8 L470.0 485.3 Z" fill="#2f8f83" fill-opacity="0.34" stroke="#0e5b52" stroke-width="1.6" />
  <path d="M517.7 468.1 L519.8 468.1 L521.9 468.1 L523.9 468.1 L526.0 468.1 L528.1 468.1 L530.2 468.1 L532.2 468.1 L534.3 468.1 L536.4 468.1 L536.4 465.6 L536.4 463.2 L536.4 460.7 L536.4 458.2 L538.5 458.2 L538.5 455.8 L536.4 455.8 L534.3 455.8 L534.3 458.2 L534.3 460.7 L534.3 463.2 L534.3 465.6 L532.2 465.6 L530.2 465.6 L528.1 465.6 L526.0 465.6 L523.9 465.6 L521.9 465.6 L519.8 465.6 L517.7 465.6 L515.6 465.6 L515.6 468.1 L517.7 468.1 Z" fill="#2f8f83" fill-opacity="0.34" stroke="#0e5b52" stroke-width="1.6" />
  <path d="M515.6 468.1 L515.6 465.6 L513.6 465.6 L513.6 468.1 L515.6 468.1 Z" fill="#2f8f83" fill-opacity="0.34" stroke="#0e5b52" stroke-width="1.6" />
  <path d="M476.2 485.3 L478.3 485.3 L480.4 485.3 L482.5 485.3 L484.5 485.3 L486.6 485.3 L486.6 487.7 L486.6 490.2 L486.6 492.6 L488.7 492.6 L490.8 492.6 L490.8 490.2 L490.8 487.7 L490.8 485.3 L492.8 485.3 L494.9 485.3 L494.9 487.7 L494.9 490.2 L494.9 492.6 L494.9 495.1 L497.0 495.1 L497.0 492.6 L499.1 492.6 L499.1 490.2 L499.1 487.7 L499.1 485.3 L499.1 482.8 L499.1 480.4 L501.1 480.4 L503.2 480.4 L503.2 477.9 L503.2 475.5 L503.2 473.0 L503.2 470.5 L503.2 468.1 L501.1 468.1 L499.1 468.1 L499.1 465.6 L499.1 463.2 L497.0 463.2 L494.9 463.2 L492.8 463.2 L490.8 463.2 L488.7 463.2 L486.6 463.2 L484.5 463.2 L482.5 463.2 L480.4 463.2 L478.3 463.2 L478.3 465.6 L480.4 465.6 L482.5 465.6 L484.5 465.6 L484.5 468.1 L486.6 468.1 L488.7 468.1 L488.7 470.5 L488.7 473.0 L488.7 475.5 L486.6 475.5 L484.5 475.5 L482.5 475.5 L482.5 473.0 L480.4 473.0 L478.3 473.0 L476.2 473.0 L476.2 475.5 L478.3 475.5 L478.3 477.9 L478.3 480.4 L478.3 482.8 L476.2 482.8 L474.2 482.8 L474.2 485.3 L476.2 485.3 Z" fill="#2f8f83" fill-opacity="0.34" stroke="#0e5b52" stroke-width="1.6" />
  <path d="M465.9 504.9 L467.9 504.9 L470.0 504.9 L470.0 507.4 L470.0 509.8 L470.0 512.3 L470.0 514.7 L472.1 514.7 L472.1 517.2 L472.1 519.6 L472.1 522.1 L474.2 522.1 L474.2 519.6 L474.2 517.2 L474.2 514.7 L474.2 512.3 L476.2 512.3 L478.3 512.3 L480.4 512.3 L480.4 509.8 L482.5 509.8 L482.5 507.4 L482.5 504.9 L482.5 502.5 L480.4 502.5 L480.4 500.0 L478.3 500.0 L476.2 500.0 L474.2 500.0 L472.1 500.0 L470.0 500.0 L467.9 500.0 L465.9 500.0 L465.9 502.5 L463.8 502.5 L463.8 504.9 L465.9 504.9 Z" fill="#2f8f83" fill-opacity="0.34" stroke="#0e5b52" stroke-width="1.6" />
  <path d="M521.9 490.2 L521.9 492.6 L523.9 492.6 L526.0 492.6 L528.1 492.6 L530.2 492.6 L532.2 492.6 L534.3 492.6 L534.3 490.2 L534.3 487.7 L534.3 485.3 L534.3 482.8 L534.3 480.4 L532.2 480.4 L532.2 482.8 L530.2 482.8 L528.1 482.8 L526.0 482.8 L523.9 482.8 L521.9 482.8 L521.9 485.3 L521.9 487.7 L521.9 490.2 Z" fill="#2f8f83" fill-opacity="0.34" stroke="#0e5b52" stroke-width="1.6" />
  <path d="M488.6 352.3 L488.6 349.8 L486.5 349.8 L486.5 352.3 L488.6 352.3 Z" fill="#2f8f83" fill-opacity="0.34" stroke="#0e5b52" stroke-width="1.6" />
  <path d="M451.3 203.6 L453.3 203.6 L453.3 206.0 L455.4 206.0 L455.4 203.6 L457.5 203.6 L457.5 201.1 L455.4 201.1 L453.3 201.1 L451.3 201.1 L449.2 201.1 L449.2 203.6 L451.3 203.6 Z" fill="#2f8f83" fill-opacity="0.34" stroke="#0e5b52" stroke-width="1.6" />
  <path d="M463.8 448.4 L463.8 450.9 L465.9 450.9 L467.9 450.9 L470.0 450.9 L472.1 450.9 L474.2 450.9 L476.2 450.9 L476.2 448.4 L476.2 445.9 L476.2 443.5 L476.2 441.0 L474.2 441.0 L472.1 441.0 L470.0 441.0 L467.9 441.0 L465.9 441.0 L463.8 441.0 L461.7 441.0 L461.7 443.5 L463.8 443.5 L463.8 445.9 L463.8 448.4 Z" fill="#2f8f83" fill-opacity="0.34" stroke="#0e5b52" stroke-width="1.6" />
  <path d="M474.2 460.7 L474.2 463.2 L476.2 463.2 L478.3 463.2 L478.3 460.7 L478.3 458.2 L478.3 455.8 L478.3 453.3 L480.4 453.3 L482.5 453.3 L482.5 450.9 L482.5 448.4 L482.5 445.9 L482.5 443.5 L484.5 443.5 L484.5 441.0 L482.5 441.0 L480.4 441.0 L478.3 441.0 L476.2 441.0 L476.2 443.5 L476.2 445.9 L476.2 448.4 L476.2 450.9 L474.2 450.9 L474.2 453.3 L474.2 455.8 L474.2 458.2 L474.2 460.7 Z" fill="#2f8f83" fill-opacity="0.34" stroke="#0e5b52" stroke-width="1.6" />
  <path d="M455.5 463.2 L457.6 463.2 L459.7 463.2 L459.7 460.7 L459.7 458.2 L459.7 455.8 L461.7 455.8 L463.8 455.8 L463.8 453.3 L463.8 450.9 L463.8 448.4 L463.8 445.9 L463.8 443.5 L461.7 443.5 L459.7 443.5 L459.7 445.9 L457.6 445.9 L455.5 445.9 L455.5 448.4 L455.5 450.9 L455.5 453.3 L455.5 455.8 L455.5 458.2 L455.5 460.7 L453.4 460.7 L453.4 463.2 L455.5 463.2 Z" fill="#2f8f83" fill-opacity="0.34" stroke="#0e5b52" stroke-width="1.6" />
  <path d="M443.1 473.0 L443.1 475.5 L445.1 475.5 L447.2 475.5 L449.3 475.5 L451.4 475.5 L451.4 473.0 L453.4 473.0 L453.4 470.5 L453.4 468.1 L453.4 465.6 L453.4 463.2 L453.4 460.7 L451.4 460.7 L449.3 460.7 L447.2 460.7 L447.2 463.2 L445.1 463.2 L445.1 465.6 L445.1 468.1 L443.1 468.1 L443.1 470.5 L443.1 473.0 Z" fill="#2f8f83" fill-opacity="0.34" stroke="#0e5b52" stroke-width="1.6" />
  <path d="M461.7 477.9 L463.8 477.9 L465.9 477.9 L467.9 477.9 L467.9 475.5 L467.9 473.0 L467.9 470.5 L467.9 468.1 L465.9 468.1 L465.9 470.5 L463.8 470.5 L463.8 468.1 L461.7 468.1 L461.7 470.5 L461.7 473.0 L461.7 475.5 L459.7 475.5 L459.7 477.9 L461.7 477.9 Z" fill="#2f8f83" fill-opacity="0.34" stroke="#0e5b52" stroke-width="1.6" />
  <path d="M478.3 460.7 L478.3 463.2 L480.4 463.2 L482.5 463.2 L484.5 463.2 L486.6 463.2 L488.7 463.2 L490.8 463.2 L492.8 463.2 L494.9 463.2 L497.0 463.2 L497.0 460.7 L494.9 460.7 L494.9 458.2 L492.8 458.2 L490.8 458.2 L488.7 458.2 L486.6 458.2 L486.6 455.8 L486.6 453.3 L484.5 453.3 L482.5 453.3 L480.4 453.3 L478.3 453.3 L478.3 455.8 L478.3 458.2 L478.3 460.7 Z" fill="#2f8f83" fill-opacity="0.34" stroke="#0e5b52" stroke-width="1.6" />
  <path d="M484.5 453.3 L486.6 453.3 L486.6 455.8 L486.6 458.2 L488.7 458.2 L490.8 458.2 L492.8 458.2 L494.9 458.2 L494.9 460.7 L497.0 460.7 L497.0 458.2 L497.0 455.8 L497.0 453.3 L497.0 450.9 L494.9 450.9 L492.8 450.9 L492.8 448.4 L490.8 448.4 L490.8 445.9 L490.8 443.5 L490.8 441.0 L488.7 441.0 L486.6 441.0 L484.5 441.0 L484.5 443.5 L486.6 443.5 L488.7 443.5 L488.7 445.9 L488.7 448.4 L488.7 450.9 L486.6 450.9 L484.5 450.9 L482.5 450.9 L482.5 453.3 L484.5 453.3 Z" fill="#2f8f83" fill-opacity="0.34" stroke="#0e5b52" stroke-width="1.6" />
  <path d="M449.3 460.7 L451.4 460.7 L453.4 460.7 L455.5 460.7 L455.5 458.2 L455.5 455.8 L455.5 453.3 L455.5 450.9 L455.5 448.4 L453.4 448.4 L453.4 450.9 L451.4 450.9 L451.4 453.3 L449.3 453.3 L449.3 455.8 L449.3 458.2 L447.2 458.2 L447.2 460.7 L449.3 460.7 Z" fill="#2f8f83" fill-opacity="0.34" stroke="#0e5b52" stroke-width="1.6" />
  <path d="M463.8 438.6 L463.8 441.0 L465.9 441.0 L467.9 441.0 L470.0 441.0 L472.1 441.0 L472.1 438.6 L472.1 436.1 L472.1 433.6 L472.1 431.2 L470.0 431.2 L470.0 428.7 L470.0 426.3 L467.9 426.3 L467.9 428.7 L465.9 428.7 L465.9 431.2 L465.9 433.6 L465.9 436.1 L463.8 436.1 L463.8 438.6 Z" fill="#2f8f83" fill-opacity="0.34" stroke="#0e5b52" stroke-width="1.6" />
  <path d="M470.0 492.6 L470.0 495.1 L472.1 495.1 L474.2 495.1 L476.2 495.1 L478.3 495.1 L478.3 492.6 L478.3 490.2 L478.3 487.7 L478.3 485.3 L476.2 485.3 L474.2 485.3 L472.1 485.3 L470.0 485.3 L470.0 487.7 L470.0 490.2 L470.0 492.6 Z" fill="#2f8f83" fill-opacity="0.34" stroke="#0e5b52" stroke-width="1.6" />
  <path d="M461.6 151.3 L461.6 153.8 L463.7 153.8 L465.8 153.8 L467.9 153.8 L469.9 153.8 L469.9 151.3 L469.9 148.8 L469.9 146.3 L469.9 143.8 L472.0 143.8 L472.0 141.3 L472.0 138.8 L472.0 136.3 L469.9 136.3 L467.9 136.3 L465.8 136.3 L465.8 138.8 L465.8 141.3 L465.8 143.8 L463.7 143.8 L461.6 143.8 L461.6 146.3 L461.6 148.8 L461.6 151.3 Z" fill="#2f8f83" fill-opacity="0.34" stroke="#0e5b52" stroke-width="1.6" />
  <path d="M530.1 364.6 L530.1 367.1 L532.2 367.1 L534.2 367.1 L536.3 367.1 L536.3 364.6 L536.3 362.1 L536.3 359.7 L536.3 357.2 L534.2 357.2 L532.2 357.2 L530.1 357.2 L530.1 359.7 L530.1 362.1 L530.1 364.6 Z" fill="#2f8f83" fill-opacity="0.34" stroke="#0e5b52" stroke-width="1.6" />
  <path d="M486.6 448.4 L486.6 445.9 L484.5 445.9 L484.5 448.4 L486.6 448.4 Z" fill="#2f8f83" fill-opacity="0.34" stroke="#0e5b52" stroke-width="1.6" />
  <path d="M482.5 448.4 L482.5 450.9 L484.5 450.9 L486.6 450.9 L488.7 450.9 L488.7 448.4 L488.7 445.9 L488.7 443.5 L486.6 443.5 L484.5 443.5 L482.5 443.5 L482.5 445.9 L482.5 448.4 Z M484.5 445.9 L486.6 445.9 L486.6 448.4 L484.5 448.4 L484.5 445.9 Z" fill="#2f8f83" fill-opacity="0.34" stroke="#0e5b52" stroke-width="1.6" />
  <path d="M447.1 136.3 L447.1 138.8 L449.2 138.8 L449.2 136.3 L451.3 136.3 L453.3 136.3 L455.4 136.3 L457.5 136.3 L459.6 136.3 L459.6 133.8 L459.6 131.3 L457.5 131.3 L457.5 133.8 L455.4 133.8 L453.3 133.8 L451.3 133.8 L449.2 133.8 L447.1 133.8 L447.1 136.3 Z" fill="#2f8f83" fill-opacity="0.34" stroke="#0e5b52" stroke-width="1.6" />
  <path d="M467.9 193.6 L467.9 196.1 L469.9 196.1 L469.9 193.6 L469.9 191.1 L469.9 188.6 L469.9 186.1 L467.9 186.1 L467.9 188.6 L467.9 191.1 L467.9 193.6 Z" fill="#2f8f83" fill-opacity="0.34" stroke="#0e5b52" stroke-width="1.6" />
  <path d="M441.0 480.4 L441.0 477.9 L438.9 477.9 L438.9 480.4 L441.0 480.4 Z" fill="#2f8f83" fill-opacity="0.34" stroke="#0e5b52" stroke-width="1.6" />
  <path d="M467.9 458.2 L467.9 455.8 L465.9 455.8 L465.9 458.2 L467.9 458.2 Z" fill="#2f8f83" fill-opacity="0.34" stroke="#0e5b52" stroke-width="1.6" />
  <path d="M467.9 455.8 L470.0 455.8 L470.0 453.3 L467.9 453.3 L465.9 453.3 L465.9 455.8 L467.9 455.8 Z" fill="#2f8f83" fill-opacity="0.34" stroke="#0e5b52" stroke-width="1.6" />
  <path d="M467.9 460.7 L467.9 463.2 L470.0 463.2 L470.0 460.7 L470.0 458.2 L470.0 455.8 L467.9 455.8 L467.9 458.2 L467.9 460.7 Z" fill="#2f8f83" fill-opacity="0.34" stroke="#0e5b52" stroke-width="1.6" />
  <path d="M528.0 290.4 L528.0 292.9 L530.1 292.9 L532.1 292.9 L534.2 292.9 L536.3 292.9 L538.4 292.9 L538.4 290.4 L538.4 287.9 L538.4 285.5 L538.4 283.0 L538.4 280.5 L538.4 278.0 L536.3 278.0 L534.2 278.0 L532.1 278.0 L530.1 278.0 L528.0 278.0 L528.0 280.5 L528.0 283.0 L528.0 285.5 L528.0 287.9 L528.0 290.4 Z" fill="#2f8f83" fill-opacity="0.34" stroke="#0e5b52" stroke-width="1.6" />
  <path d="M499.1 465.6 L499.1 468.1 L501.1 468.1 L503.2 468.1 L505.3 468.1 L507.3 468.1 L507.3 465.6 L505.3 465.6 L503.2 465.6 L501.1 465.6 L501.1 463.2 L501.1 460.7 L499.1 460.7 L497.0 460.7 L497.0 463.2 L499.1 463.2 L499.1 465.6 Z" fill="#2f8f83" fill-opacity="0.34" stroke="#0e5b52" stroke-width="1.6" />
  <path d="M552.9 273.1 L552.9 270.6 L550.8 270.6 L550.8 273.1 L552.9 273.1 Z" fill="#2f8f83" fill-opacity="0.34" stroke="#0e5b52" stroke-width="1.6" />
  <path d="M532.1 270.6 L532.1 273.1 L534.2 273.1 L536.3 273.1 L536.3 270.6 L536.3 268.1 L536.3 265.6 L536.3 263.2 L534.2 263.2 L532.1 263.2 L532.1 265.6 L532.1 268.1 L532.1 270.6 Z" fill="#2f8f83" fill-opacity="0.34" stroke="#0e5b52" stroke-width="1.6" />
  <path d="M536.3 191.1 L536.3 193.6 L538.4 193.6 L540.4 193.6 L540.4 196.1 L540.4 198.6 L542.5 198.6 L542.5 196.1 L542.5 193.6 L542.5 191.1 L542.5 188.6 L542.5 186.1 L540.4 186.1 L538.4 186.1 L538.4 183.7 L536.3 183.7 L536.3 186.1 L536.3 188.6 L536.3 191.1 Z" fill="#2f8f83" fill-opacity="0.34" stroke="#0e5b52" stroke-width="1.6" />
  <path d="M530.1 161.3 L530.1 163.7 L532.1 163.7 L534.2 163.7 L536.3 163.7 L538.4 163.7 L538.4 161.3 L538.4 158.8 L536.3 158.8 L534.2 158.8 L532.1 158.8 L530.1 158.8 L530.1 161.3 Z" fill="#2f8f83" fill-opacity="0.34" stroke="#0e5b52" stroke-width="1.6" />
  <path d="M530.1 322.6 L530.1 320.1 L528.0 320.1 L528.0 322.6 L530.1 322.6 Z" fill="#2f8f83" fill-opacity="0.34" stroke="#0e5b52" stroke-width="1.6" />
  <path d="M532.1 327.5 L534.2 327.5 L534.2 325.1 L532.1 325.1 L530.1 325.1 L530.1 327.5 L532.1 327.5 Z" fill="#2f8f83" fill-opacity="0.34" stroke="#0e5b52" stroke-width="1.6" />
  <path d="M534.2 312.7 L534.2 310.2 L532.1 310.2 L532.1 312.7 L534.2 312.7 Z" fill="#2f8f83" fill-opacity="0.34" stroke="#0e5b52" stroke-width="1.6" />
  <path d="M540.4 315.2 L540.4 312.7 L538.4 312.7 L538.4 315.2 L540.4 315.2 Z" fill="#2f8f83" fill-opacity="0.34" stroke="#0e5b52" stroke-width="1.6" />
  <path d="M550.8 317.6 L550.8 315.2 L548.7 315.2 L548.7 317.6 L550.8 317.6 Z" fill="#2f8f83" fill-opacity="0.34" stroke="#0e5b52" stroke-width="1.6" />
  <path d="M546.7 315.2 L546.7 312.7 L544.6 312.7 L544.6 315.2 L546.7 315.2 Z" fill="#2f8f83" fill-opacity="0.34" stroke="#0e5b52" stroke-width="1.6" />
  <path d="M544.6 310.2 L544.6 307.7 L542.5 307.7 L542.5 310.2 L544.6 310.2 Z" fill="#2f8f83" fill-opacity="0.34" stroke="#0e5b52" stroke-width="1.6" />
  <path d="M540.4 307.7 L540.4 305.3 L538.4 305.3 L538.4 307.7 L540.4 307.7 Z" fill="#2f8f83" fill-opacity="0.34" stroke="#0e5b52" stroke-width="1.6" />
  <path d="M546.7 310.2 L546.7 307.7 L544.6 307.7 L544.6 310.2 L546.7 310.2 Z" fill="#2f8f83" fill-opacity="0.34" stroke="#0e5b52" stroke-width="1.6" />
  <path d="M519.7 268.1 L519.7 270.6 L521.8 270.6 L521.8 268.1 L521.8 265.6 L519.7 265.6 L519.7 268.1 Z" fill="#2f8f83" fill-opacity="0.34" stroke="#0e5b52" stroke-width="1.6" />
  <path d="M590.2 258.2 L590.2 260.7 L592.3 260.7 L594.4 260.7 L596.4 260.7 L598.5 260.7 L598.5 258.2 L598.5 255.7 L596.4 255.7 L594.4 255.7 L592.3 255.7 L590.2 255.7 L590.2 258.2 Z" fill="#2f8f83" fill-opacity="0.34" stroke="#0e5b52" stroke-width="1.6" />
  <path d="M575.7 273.1 L577.8 273.1 L577.8 275.6 L579.8 275.6 L579.8 278.0 L581.9 278.0 L584.0 278.0 L586.1 278.0 L586.1 275.6 L586.1 273.1 L586.1 270.6 L584.0 270.6 L584.0 268.1 L581.9 268.1 L581.9 265.6 L579.8 265.6 L577.8 265.6 L577.8 263.2 L575.7 263.2 L575.7 265.6 L575.7 268.1 L573.6 268.1 L573.6 270.6 L575.7 270.6 L575.7 273.1 Z M577.8 273.1 L577.8 270.6 L579.8 270.6 L579.8 273.1 L577.8 273.1 Z" fill="#2f8f83" fill-opacity="0.34" stroke="#0e5b52" stroke-width="1.6" />
  <path d="M517.6 307.7 L517.6 310.2 L519.7 310.2 L521.8 310.2 L523.9 310.2 L525.9 310.2 L525.9 307.7 L528.0 307.7 L530.1 307.7 L532.1 307.7 L534.2 307.7 L536.3 307.7 L538.4 307.7 L538.4 305.3 L540.4 305.3 L540.4 302.8 L542.5 302.8 L544.6 302.8 L546.7 302.8 L546.7 305.3 L546.7 307.7 L546.7 310.2 L546.7 312.7 L546.7 315.2 L548.7 315.2 L550.8 315.2 L550.8 312.7 L550.8 310.2 L550.8 307.7 L550.8 305.3 L550.8 302.8 L552.9 302.8 L552.9 300.3 L552.9 297.8 L550.8 297.8 L548.7 297.8 L546.7 297.8 L544.6 297.8 L544.6 295.4 L544.6 292.9 L544.6 290.4 L544.6 287.9 L544.6 285.5 L544.6 283.0 L544.6 280.5 L542.5 280.5 L540.4 280.5 L538.4 280.5 L538.4 283.0 L538.4 285.5 L538.4 287.9 L538.4 290.4 L538.4 292.9 L536.3 292.9 L534.2 292.9 L532.1 292.9 L530.1 292.9 L528.0 292.9 L528.0 295.4 L528.0 297.8 L525.9 297.8 L523.9 297.8 L521.8 297.8 L519.7 297.8 L517.6 297.8 L517.6 300.3 L517.6 302.8 L517.6 305.3 L517.6 307.7 Z" fill="#2f8f83" fill-opacity="0.34" stroke="#0e5b52" stroke-width="1.6" />
  <path d="M523.9 327.5 L523.9 330.0 L525.9 330.0 L528.0 330.0 L530.1 330.0 L532.1 330.0 L534.2 330.0 L536.3 330.0 L538.4 330.0 L540.4 330.0 L542.5 330.0 L544.6 330.0 L546.7 330.0 L548.7 330.0 L548.7 327.5 L546.7 327.5 L544.6 327.5 L544.6 325.1 L546.7 325.1 L548.7 325.1 L548.7 322.6 L548.7 320.1 L548.7 317.6 L548.7 315.2 L546.7 315.2 L546.7 317.6 L544.6 317.6 L542.5 317.6 L542.5 315.2 L544.6 315.2 L544.6 312.7 L546.7 312.7 L546.7 310.2 L544.6 310.2 L542.5 310.2 L542.5 307.7 L540.4 307.7 L538.4 307.7 L536.3 307.7 L534.2 307.7 L532.1 307.7 L530.1 307.7 L530.1 310.2 L532.1 310.2 L534.2 310.2 L534.2 312.7 L532.1 312.7 L530.1 312.7 L528.0 312.7 L528.0 310.2 L525.9 310.2 L523.9 310.2 L523.9 312.7 L523.9 315.2 L523.9 317.6 L523.9 320.1 L523.9 322.6 L523.9 325.1 L523.9 327.5 Z M542.5 317.6 L542.5 320.1 L540.4 320.1 L540.4 317.6 L542.5 317.6 Z M538.4 315.2 L538.4 312.7 L540.4 312.7 L540.4 315.2 L538.4 315.2 Z M528.0 322.6 L528.0 320.1 L530.1 320.1 L530.1 322.6 L528.0 322.6 Z M530.1 327.5 L530.1 325.1 L532.1 325.1 L534.2 325.1 L534.2 327.5 L532.1 327.5 L530.1 327.5 Z M534.2 322.6 L534.2 320.1 L536.3 320.1 L538.4 320.1 L538.4 322.6 L538.4 325.1 L536.3 325.1 L536.3 322.6 L534.2 322.6 Z" fill="#2f8f83" fill-opacity="0.34" stroke="#0e5b52" stroke-width="1.6" />
  <path d="M544.6 295.4 L544.6 297.8 L546.7 297.8 L548.7 297.8 L550.8 297.8 L552.9 297.8 L552.9 295.4 L552.9 292.9 L552.9 290.4 L552.9 287.9 L552.9 285.5 L552.9 283.0 L550.8 283.0 L548.7 283.0 L546.7 283.0 L544.6 283.0 L544.6 285.5 L544.6 287.9 L544.6 290.4 L544.6 292.9 L544.6 295.4 Z" fill="#2f8f83" fill-opacity="0.34" stroke="#0e5b52" stroke-width="1.6" />
  <path d="M432.6 263.2 L432.6 265.6 L434.7 265.6 L436.8 265.6 L438.8 265.6 L440.9 265.6 L440.9 263.2 L443.0 263.2 L445.1 263.2 L447.1 263.2 L449.2 263.2 L449.2 260.7 L451.3 260.7 L451.3 258.2 L451.3 255.7 L451.3 253.2 L453.3 253.2 L453.3 250.7 L453.3 248.3 L453.3 245.8 L453.3 243.3 L453.3 240.8 L451.3 240.8 L451.3 238.3 L451.3 235.9 L449.2 235.9 L447.1 235.9 L445.1 235.9 L445.1 238.3 L443.0 238.3 L440.9 238.3 L438.8 238.3 L436.8 238.3 L434.7 238.3 L434.7 240.8 L432.6 240.8 L432.6 243.3 L432.6 245.8 L432.6 248.3 L432.6 250.7 L432.6 253.2 L432.6 255.7 L432.6 258.2 L432.6 260.7 L432.6 263.2 Z" fill="#2f8f83" fill-opacity="0.34" stroke="#0e5b52" stroke-width="1.6" />
  <path d="M451.3 263.2 L451.3 265.6 L453.3 265.6 L453.3 268.1 L453.3 270.6 L455.4 270.6 L455.4 273.1 L457.5 273.1 L457.5 275.5 L457.5 278.0 L459.6 278.0 L459.6 275.5 L459.6 273.1 L459.6 270.6 L459.6 268.1 L459.6 265.6 L459.6 263.2 L459.6 260.7 L459.6 258.2 L461.6 258.2 L461.6 255.7 L461.6 253.2 L459.6 253.2 L459.6 250.7 L459.6 248.3 L457.5 248.3 L455.4 248.3 L453.3 248.3 L453.3 250.7 L453.3 253.2 L451.3 253.2 L451.3 255.7 L451.3 258.2 L451.3 260.7 L449.2 260.7 L449.2 263.2 L451.3 263.2 Z" fill="#2f8f83" fill-opacity="0.34" stroke="#0e5b52" stroke-width="1.6" />
  <path d="M521.8 337.4 L521.8 339.9 L523.9 339.9 L525.9 339.9 L525.9 342.4 L528.0 342.4 L528.0 344.8 L530.1 344.8 L530.1 347.3 L530.1 349.8 L530.1 352.3 L528.0 352.3 L525.9 352.3 L525.9 354.7 L528.0 354.7 L528.0 357.2 L528.0 359.7 L525.9 359.7 L525.9 362.1 L525.9 364.6 L525.9 367.1 L528.0 367.1 L528.0 364.6 L528.0 362.1 L530.1 362.1 L530.1 359.7 L530.1 357.2 L532.2 357.2 L532.2 354.7 L532.2 352.3 L532.2 349.8 L532.2 347.3 L532.2 344.8 L532.2 342.4 L530.1 342.4 L530.1 339.9 L530.1 337.4 L528.0 337.4 L525.9 337.4 L525.9 335.0 L528.0 335.0 L528.0 332.5 L525.9 332.5 L523.9 332.5 L523.9 335.0 L521.8 335.0 L519.7 335.0 L519.7 337.4 L521.8 337.4 Z" fill="#2f8f83" fill-opacity="0.34" stroke="#0e5b52" stroke-width="1.6" />
  <path d="M534.2 357.2 L534.2 354.7 L532.2 354.7 L532.2 357.2 L534.2 357.2 Z" fill="#2f8f83" fill-opacity="0.34" stroke="#0e5b52" stroke-width="1.6" />
  <path d="M540.4 305.3 L540.4 307.7 L542.5 307.7 L544.6 307.7 L546.7 307.7 L546.7 305.3 L546.7 302.8 L544.6 302.8 L542.5 302.8 L540.4 302.8 L540.4 305.3 Z" fill="#2f8f83" fill-opacity="0.34" stroke="#0e5b52" stroke-width="1.6" />
  <path d="M528.0 310.2 L528.0 312.7 L530.1 312.7 L532.1 312.7 L532.1 310.2 L530.1 310.2 L530.1 307.7 L528.0 307.7 L525.9 307.7 L525.9 310.2 L528.0 310.2 Z" fill="#2f8f83" fill-opacity="0.34" stroke="#0e5b52" stroke-width="1.6" />
  <path d="M544.6 317.6 L546.7 317.6 L546.7 315.2 L544.6 315.2 L542.5 315.2 L542.5 317.6 L544.6 317.6 Z" fill="#2f8f83" fill-opacity="0.34" stroke="#0e5b52" stroke-width="1.6" />
  <path d="M542.5 320.1 L542.5 317.6 L540.4 317.6 L540.4 320.1 L542.5 320.1 Z" fill="#2f8f83" fill-opacity="0.34" stroke="#0e5b52" stroke-width="1.6" />
  <path d="M534.2 322.6 L536.3 322.6 L536.3 325.1 L538.4 325.1 L538.4 322.6 L538.4 320.1 L536.3 320.1 L534.2 320.1 L534.2 322.6 Z" fill="#2f8f83" fill-opacity="0.34" stroke="#0e5b52" stroke-width="1.6" />
  <path d="M536.3 275.6 L536.3 278.0 L538.4 278.0 L540.4 278.0 L542.5 278.0 L544.6 278.0 L544.6 275.6 L544.6 273.1 L544.6 270.6 L544.6 268.1 L544.6 265.6 L544.6 263.2 L542.5 263.2 L540.4 263.2 L538.4 263.2 L536.3 263.2 L536.3 265.6 L536.3 268.1 L536.3 270.6 L536.3 273.1 L536.3 275.6 Z" fill="#2f8f83" fill-opacity="0.34" stroke="#0e5b52" stroke-width="1.6" />
  <path d="M530.1 275.5 L530.1 278.0 L532.1 278.0 L534.2 278.0 L536.3 278.0 L536.3 275.6 L536.3 273.1 L534.2 273.1 L532.1 273.1 L530.1 273.1 L530.1 275.5 Z" fill="#2f8f83" fill-opacity="0.34" stroke="#0e5b52" stroke-width="1.6" />
  <path d="M540.4 263.2 L542.5 263.2 L544.6 263.2 L544.6 260.7 L542.5 260.7 L540.4 260.7 L538.4 260.7 L538.4 263.2 L540.4 263.2 Z" fill="#2f8f83" fill-opacity="0.34" stroke="#0e5b52" stroke-width="1.6" />
  <path d="M540.4 260.7 L542.5 260.7 L544.6 260.7 L544.6 258.2 L542.5 258.2 L540.4 258.2 L538.4 258.2 L538.4 260.7 L540.4 260.7 Z" fill="#2f8f83" fill-opacity="0.34" stroke="#0e5b52" stroke-width="1.6" />
  <path d="M538.4 255.7 L538.4 258.2 L540.4 258.2 L542.5 258.2 L544.6 258.2 L544.6 255.7 L544.6 253.2 L546.7 253.2 L546.7 250.8 L546.7 248.3 L548.7 248.3 L548.7 245.8 L546.7 245.8 L544.6 245.8 L542.5 245.8 L540.4 245.8 L538.4 245.8 L538.4 248.3 L538.4 250.8 L538.4 253.2 L538.4 255.7 Z" fill="#2f8f83" fill-opacity="0.34" stroke="#0e5b52" stroke-width="1.6" />
  <path d="M530.1 270.6 L530.1 273.1 L532.1 273.1 L532.1 270.6 L532.1 268.1 L532.1 265.6 L532.1 263.2 L530.1 263.2 L530.1 265.6 L530.1 268.1 L530.1 270.6 Z" fill="#2f8f83" fill-opacity="0.34" stroke="#0e5b52" stroke-width="1.6" />
  <path d="M534.2 258.2 L534.2 260.7 L536.3 260.7 L538.4 260.7 L538.4 258.2 L538.4 255.7 L538.4 253.2 L538.4 250.8 L538.4 248.3 L538.4 245.8 L536.3 245.8 L534.2 245.8 L534.2 248.3 L534.2 250.8 L534.2 253.2 L534.2 255.7 L534.2 258.2 Z" fill="#2f8f83" fill-opacity="0.34" stroke="#0e5b52" stroke-width="1.6" />
  <path d="M534.2 238.3 L534.2 240.8 L536.3 240.8 L536.3 243.3 L536.3 245.8 L538.4 245.8 L540.4 245.8 L542.5 245.8 L542.5 243.3 L542.5 240.8 L542.5 238.3 L542.5 235.9 L542.5 233.4 L540.4 233.4 L540.4 230.9 L540.4 228.4 L538.4 228.4 L536.3 228.4 L534.2 228.4 L534.2 230.9 L534.2 233.4 L534.2 235.9 L534.2 238.3 Z" fill="#2f8f83" fill-opacity="0.34" stroke="#0e5b52" stroke-width="1.6" />
  <path d="M538.4 263.2 L538.4 260.7 L536.3 260.7 L536.3 263.2 L538.4 263.2 Z" fill="#2f8f83" fill-opacity="0.34" stroke="#0e5b52" stroke-width="1.6" />
  <path d="M530.1 260.7 L530.1 263.2 L532.1 263.2 L534.2 263.2 L534.2 260.7 L534.2 258.2 L532.1 258.2 L530.1 258.2 L530.1 260.7 Z" fill="#2f8f83" fill-opacity="0.34" stroke="#0e5b52" stroke-width="1.6" />
  <path d="M536.3 263.2 L536.3 260.7 L534.2 260.7 L534.2 263.2 L536.3 263.2 Z" fill="#2f8f83" fill-opacity="0.34" stroke="#0e5b52" stroke-width="1.6" />
  <path d="M525.9 255.7 L525.9 258.2 L528.0 258.2 L530.1 258.2 L532.1 258.2 L534.2 258.2 L534.2 255.7 L534.2 253.2 L532.1 253.2 L530.1 253.2 L528.0 253.2 L525.9 253.2 L525.9 255.7 Z" fill="#2f8f83" fill-opacity="0.34" stroke="#0e5b52" stroke-width="1.6" />
  <path d="M525.9 225.9 L525.9 228.4 L528.0 228.4 L530.1 228.4 L532.1 228.4 L534.2 228.4 L536.3 228.4 L538.4 228.4 L540.4 228.4 L540.4 225.9 L538.4 225.9 L538.4 223.4 L536.3 223.4 L536.3 221.0 L534.2 221.0 L532.1 221.0 L530.1 221.0 L528.0 221.0 L528.0 223.4 L525.9 223.4 L525.9 225.9 Z" fill="#2f8f83" fill-opacity="0.34" stroke="#0e5b52" stroke-width="1.6" />
  <path d="M525.9 332.5 L528.0 332.5 L528.0 335.0 L525.9 335.0 L525.9 337.4 L528.0 337.4 L530.1 337.4 L530.1 339.9 L530.1 342.4 L532.2 342.4 L532.2 344.8 L532.2 347.3 L532.2 349.8 L532.2 352.3 L532.2 354.7 L534.2 354.7 L534.2 352.3 L534.2 349.8 L534.2 347.3 L534.2 344.8 L534.2 342.4 L534.2 339.9 L536.3 339.9 L536.3 337.4 L538.4 337.4 L540.4 337.4 L542.5 337.4 L544.6 337.4 L546.7 337.4 L548.7 337.4 L550.8 337.4 L550.8 339.9 L552.9 339.9 L552.9 342.4 L552.9 344.8 L552.9 347.3 L552.9 349.8 L552.9 352.3 L552.9 354.7 L552.9 357.2 L555.0 357.2 L555.0 354.7 L555.0 352.3 L555.0 349.8 L555.0 347.3 L555.0 344.8 L557.0 344.8 L557.0 342.4 L557.0 339.9 L557.0 337.4 L557.0 335.0 L557.0 332.5 L555.0 332.5 L555.0 330.0 L552.9 330.0 L550.8 330.0 L548.7 330.0 L546.7 330.0 L544.6 330.0 L542.5 330.0 L540.4 330.0 L538.4 330.0 L536.3 330.0 L534.2 330.0 L532.1 330.0 L530.1 330.0 L528.0 330.0 L525.9 330.0 L523.9 330.0 L523.9 332.5 L525.9 332.5 Z" fill="#2f8f83" fill-opacity="0.34" stroke="#0e5b52" stroke-width="1.6" />
  <path d="M546.7 344.8 L546.7 347.3 L548.7 347.3 L550.8 347.3 L552.9 347.3 L552.9 344.8 L552.9 342.4 L552.9 339.9 L550.8 339.9 L550.8 337.4 L548.7 337.4 L546.7 337.4 L546.7 339.9 L546.7 342.4 L546.7 344.8 Z" fill="#2f8f83" fill-opacity="0.34" stroke="#0e5b52" stroke-width="1.6" />
  <path d="M546.7 354.7 L546.7 357.2 L548.7 357.2 L550.8 357.2 L552.9 357.2 L552.9 354.7 L552.9 352.3 L552.9 349.8 L552.9 347.3 L550.8 347.3 L548.7 347.3 L546.7 347.3 L546.7 349.8 L546.7 352.3 L546.7 354.7 Z" fill="#2f8f83" fill-opacity="0.34" stroke="#0e5b52" stroke-width="1.6" />
  <path d="M536.3 342.4 L538.4 342.4 L540.4 342.4 L542.5 342.4 L544.6 342.4 L546.7 342.4 L546.7 339.9 L546.7 337.4 L544.6 337.4 L542.5 337.4 L540.4 337.4 L538.4 337.4 L536.3 337.4 L536.3 339.9 L534.2 339.9 L534.2 342.4 L536.3 342.4 Z" fill="#2f8f83" fill-opacity="0.34" stroke="#0e5b52" stroke-width="1.6" />
  <path d="M534.2 354.7 L534.2 357.2 L536.3 357.2 L536.3 354.7 L536.3 352.3 L536.3 349.8 L536.3 347.3 L536.3 344.8 L536.3 342.4 L534.2 342.4 L534.2 344.8 L534.2 347.3 L534.2 349.8 L534.2 352.3 L534.2 354.7 Z" fill="#2f8f83" fill-opacity="0.34" stroke="#0e5b52" stroke-width="1.6" />
  <path d="M441.0 502.5 L441.0 504.9 L443.1 504.9 L443.1 507.4 L443.1 509.8 L445.1 509.8 L445.1 512.3 L447.2 512.3 L447.2 514.7 L449.3 514.7 L449.3 512.3 L451.4 512.3 L453.4 512.3 L453.4 514.7 L455.5 514.7 L457.6 514.7 L457.6 512.3 L457.6 509.8 L457.6 507.4 L457.6 504.9 L457.6 502.5 L457.6 500.0 L457.6 497.6 L459.7 497.6 L461.7 497.6 L463.8 497.6 L463.8 495.1 L463.8 492.6 L463.8 490.2 L461.7 490.2 L459.7 490.2 L457.6 490.2 L455.5 490.2 L455.5 487.7 L453.4 487.7 L451.4 487.7 L449.3 487.7 L447.2 487.7 L445.1 487.7 L445.1 490.2 L445.1 492.6 L443.1 492.6 L441.0 492.6 L441.0 495.1 L441.0 497.6 L441.0 500.0 L441.0 502.5 Z" fill="#2f8f83" fill-opacity="0.34" stroke="#0e5b52" stroke-width="1.6" />
  <path d="M540.4 280.5 L542.5 280.5 L544.6 280.5 L544.6 278.0 L542.5 278.0 L540.4 278.0 L538.4 278.0 L538.4 280.5 L540.4 280.5 Z" fill="#2f8f83" fill-opacity="0.34" stroke="#0e5b52" stroke-width="1.6" />
  <path d="M519.7 337.4 L519.7 335.0 L517.6 335.0 L517.6 337.4 L519.7 337.4 Z" fill="#2f8f83" fill-opacity="0.34" stroke="#0e5b52" stroke-width="1.6" />
  <path d="M538.4 344.8 L540.4 344.8 L542.5 344.8 L544.6 344.8 L546.7 344.8 L546.7 342.4 L544.6 342.4 L542.5 342.4 L540.4 342.4 L538.4 342.4 L536.3 342.4 L536.3 344.8 L538.4 344.8 Z" fill="#2f8f83" fill-opacity="0.34" stroke="#0e5b52" stroke-width="1.6" />
  <path d="M538.4 347.3 L540.4 347.3 L542.5 347.3 L544.6 347.3 L546.7 347.3 L546.7 344.8 L544.6 344.8 L542.5 344.8 L540.4 344.8 L538.4 344.8 L536.3 344.8 L536.3 347.3 L538.4 347.3 Z" fill="#2f8f83" fill-opacity="0.34" stroke="#0e5b52" stroke-width="1.6" />
  <path d="M538.4 349.8 L540.4 349.8 L542.5 349.8 L544.6 349.8 L546.7 349.8 L546.7 347.3 L544.6 347.3 L542.5 347.3 L540.4 347.3 L538.4 347.3 L536.3 347.3 L536.3 349.8 L538.4 349.8 Z" fill="#2f8f83" fill-opacity="0.34" stroke="#0e5b52" stroke-width="1.6" />
  <path d="M538.4 352.3 L540.4 352.3 L542.5 352.3 L544.6 352.3 L546.7 352.3 L546.7 349.8 L544.6 349.8 L542.5 349.8 L540.4 349.8 L538.4 349.8 L536.3 349.8 L536.3 352.3 L538.4 352.3 Z" fill="#2f8f83" fill-opacity="0.34" stroke="#0e5b52" stroke-width="1.6" />
  <path d="M538.4 354.7 L540.5 354.7 L542.5 354.7 L544.6 354.7 L546.7 354.7 L546.7 352.3 L544.6 352.3 L542.5 352.3 L540.4 352.3 L538.4 352.3 L536.3 352.3 L536.3 354.7 L538.4 354.7 Z" fill="#2f8f83" fill-opacity="0.34" stroke="#0e5b52" stroke-width="1.6" />
  <path d="M538.4 357.2 L540.5 357.2 L542.5 357.2 L544.6 357.2 L546.7 357.2 L546.7 354.7 L544.6 354.7 L542.5 354.7 L540.5 354.7 L538.4 354.7 L536.3 354.7 L536.3 357.2 L538.4 357.2 Z" fill="#2f8f83" fill-opacity="0.34" stroke="#0e5b52" stroke-width="1.6" />
  <path d="M472.1 438.6 L472.1 441.0 L474.2 441.0 L476.2 441.0 L478.3 441.0 L480.4 441.0 L482.5 441.0 L484.5 441.0 L486.6 441.0 L488.7 441.0 L490.8 441.0 L490.8 438.6 L490.8 436.1 L490.8 433.6 L490.8 431.2 L488.7 431.2 L486.6 431.2 L484.5 431.2 L482.5 431.2 L480.4 431.2 L478.3 431.2 L476.2 431.2 L474.2 431.2 L472.1 431.2 L472.1 433.6 L472.1 436.1 L472.1 438.6 Z" fill="#2f8f83" fill-opacity="0.34" stroke="#0e5b52" stroke-width="1.6" />
  <path d="M521.8 357.2 L521.8 354.7 L519.7 354.7 L519.7 357.2 L521.8 357.2 Z" fill="#2f8f83" fill-opacity="0.34" stroke="#0e5b52" stroke-width="1.6" />
  <path d="M517.7 369.5 L517.7 372.0 L519.7 372.0 L521.8 372.0 L523.9 372.0 L523.9 369.5 L523.9 367.1 L523.9 364.6 L523.9 362.1 L523.9 359.7 L521.8 359.7 L521.8 362.1 L521.8 364.6 L521.8 367.1 L519.7 367.1 L517.7 367.1 L517.7 369.5 Z" fill="#2f8f83" fill-opacity="0.34" stroke="#0e5b52" stroke-width="1.6" />
  <path d="M501.1 367.1 L501.1 369.5 L503.2 369.5 L505.2 369.5 L507.3 369.5 L509.4 369.5 L509.4 367.1 L509.4 364.6 L509.4 362.1 L509.4 359.7 L509.4 357.2 L509.4 354.7 L507.3 354.7 L505.2 354.7 L503.1 354.7 L501.1 354.7 L501.1 357.2 L501.1 359.7 L501.1 362.1 L501.1 364.6 L501.1 367.1 Z" fill="#2f8f83" fill-opacity="0.34" stroke="#0e5b52" stroke-width="1.6" />
  <path d="M505.2 372.0 L507.3 372.0 L509.4 372.0 L511.4 372.0 L511.4 369.5 L511.4 367.1 L511.4 364.6 L511.4 362.1 L511.4 359.7 L509.4 359.7 L509.4 362.1 L509.4 364.6 L509.4 367.1 L509.4 369.5 L507.3 369.5 L505.2 369.5 L503.2 369.5 L503.2 372.0 L505.2 372.0 Z" fill="#2f8f83" fill-opacity="0.34" stroke="#0e5b52" stroke-width="1.6" />
  <path d="M511.4 367.1 L511.4 369.5 L513.5 369.5 L515.6 369.5 L515.6 367.1 L515.6 364.6 L513.5 364.6 L511.4 364.6 L511.4 367.1 Z" fill="#2f8f83" fill-opacity="0.34" stroke="#0e5b52" stroke-width="1.6" />
  <path d="M517.7 364.6 L517.7 367.1 L519.7 367.1 L521.8 367.1 L521.8 364.6 L519.7 364.6 L519.7 362.1 L517.7 362.1 L517.7 364.6 Z" fill="#2f8f83" fill-opacity="0.34" stroke="#0e5b52" stroke-width="1.6" />
  <path d="M515.6 362.1 L515.6 364.6 L517.7 364.6 L517.7 362.1 L519.7 362.1 L519.7 359.7 L521.8 359.7 L521.8 357.2 L519.7 357.2 L517.7 357.2 L515.6 357.2 L515.6 359.7 L515.6 362.1 Z" fill="#2f8f83" fill-opacity="0.34" stroke="#0e5b52" stroke-width="1.6" />
  <path d="M503.1 352.3 L503.1 354.7 L505.2 354.7 L507.3 354.7 L509.4 354.7 L509.4 352.3 L509.4 349.8 L507.3 349.8 L505.2 349.8 L503.1 349.8 L503.1 352.3 Z" fill="#2f8f83" fill-opacity="0.34" stroke="#0e5b52" stroke-width="1.6" />
  <path d="M519.7 362.1 L519.7 364.6 L521.8 364.6 L521.8 362.1 L521.8 359.7 L519.7 359.7 L519.7 362.1 Z" fill="#2f8f83" fill-opacity="0.34" stroke="#0e5b52" stroke-width="1.6" />
  <path d="M513.5 364.6 L515.6 364.6 L515.6 362.1 L513.5 362.1 L511.4 362.1 L511.4 364.6 L513.5 364.6 Z" fill="#2f8f83" fill-opacity="0.34" stroke="#0e5b52" stroke-width="1.6" />
  <path d="M505.2 349.8 L507.3 349.8 L509.4 349.8 L509.3 347.3 L507.3 347.3 L505.2 347.3 L503.1 347.3 L503.1 349.8 L505.2 349.8 Z" fill="#2f8f83" fill-opacity="0.34" stroke="#0e5b52" stroke-width="1.6" />
  <path d="M513.5 357.2 L513.5 359.7 L515.6 359.7 L515.6 357.2 L517.7 357.2 L517.6 354.7 L519.7 354.7 L519.7 352.3 L519.7 349.8 L517.6 349.8 L517.6 352.3 L515.6 352.3 L513.5 352.3 L513.5 354.7 L513.5 357.2 Z" fill="#2f8f83" fill-opacity="0.34" stroke="#0e5b52" stroke-width="1.6" />
  <path d="M561.2 258.2 L561.2 255.7 L559.1 255.7 L559.1 258.2 L561.2 258.2 Z" fill="#2f8f83" fill-opacity="0.34" stroke="#0e5b52" stroke-width="1.6" />
  <path d="M517.6 349.8 L517.6 347.3 L515.6 347.3 L515.6 349.8 L517.6 349.8 Z" fill="#2f8f83" fill-opacity="0.34" stroke="#0e5b52" stroke-width="1.6" />
  <path d="M480.3 354.7 L480.3 357.2 L482.4 357.2 L484.5 357.2 L486.6 357.2 L488.6 357.2 L488.6 354.7 L490.7 354.7 L492.8 354.7 L492.8 352.3 L490.7 352.3 L490.7 349.8 L488.6 349.8 L488.6 352.3 L486.5 352.3 L484.5 352.3 L484.5 349.8 L484.5 347.3 L484.5 344.8 L484.5 342.4 L482.4 342.4 L482.4 344.8 L482.4 347.3 L482.4 349.8 L482.4 352.3 L480.3 352.3 L480.3 354.7 Z" fill="#2f8f83" fill-opacity="0.34" stroke="#0e5b52" stroke-width="1.6" />
  <path d="M526.0 372.0 L526.0 374.5 L528.0 374.5 L530.1 374.5 L532.2 374.5 L534.2 374.5 L536.3 374.5 L538.4 374.5 L540.5 374.5 L542.5 374.5 L544.6 374.5 L546.7 374.5 L546.7 372.0 L546.7 369.5 L546.7 367.1 L548.7 367.1 L548.7 364.6 L548.7 362.1 L548.7 359.7 L548.7 357.2 L546.7 357.2 L544.6 357.2 L542.5 357.2 L540.5 357.2 L538.4 357.2 L536.3 357.2 L536.3 359.7 L536.3 362.1 L536.3 364.6 L536.3 367.1 L534.2 367.1 L532.2 367.1 L530.1 367.1 L528.0 367.1 L528.0 369.5 L526.0 369.5 L526.0 372.0 Z" fill="#2f8f83" fill-opacity="0.34" stroke="#0e5b52" stroke-width="1.6" />
  <path d="M577.8 253.2 L577.8 255.7 L579.8 255.7 L581.9 255.7 L584.0 255.7 L584.0 253.2 L584.0 250.8 L584.0 248.3 L581.9 248.3 L579.8 248.3 L577.8 248.3 L577.8 250.8 L577.8 253.2 Z" fill="#2f8f83" fill-opacity="0.34" stroke="#0e5b52" stroke-width="1.6" />
  <path d="M480.3 325.1 L480.3 327.5 L482.4 327.5 L484.5 327.5 L484.5 325.1 L484.5 322.6 L482.4 322.6 L480.3 322.6 L480.3 325.1 Z" fill="#2f8f83" fill-opacity="0.34" stroke="#0e5b52" stroke-width="1.6" />
  <path d="M482.4 339.9 L482.4 342.4 L484.5 342.4 L484.5 339.9 L484.5 337.4 L484.5 335.0 L484.5 332.5 L484.5 330.0 L484.5 327.5 L482.4 327.5 L482.4 330.0 L482.4 332.5 L482.4 335.0 L482.4 337.4 L482.4 339.9 Z" fill="#2f8f83" fill-opacity="0.34" stroke="#0e5b52" stroke-width="1.6" />
  <path d="M486.5 352.3 L486.5 349.8 L484.5 349.8 L484.5 352.3 L486.5 352.3 Z" fill="#2f8f83" fill-opacity="0.34" stroke="#0e5b52" stroke-width="1.6" />
  <path d="M530.1 367.1 L530.1 364.6 L528.0 364.6 L528.0 367.1 L530.1 367.1 Z" fill="#2f8f83" fill-opacity="0.34" stroke="#0e5b52" stroke-width="1.6" />
  <path d="M449.2 211.0 L449.2 213.5 L451.3 213.5 L453.3 213.5 L453.3 211.0 L453.3 208.5 L453.3 206.0 L451.3 206.0 L449.2 206.0 L449.2 208.5 L449.2 211.0 Z" fill="#2f8f83" fill-opacity="0.34" stroke="#0e5b52" stroke-width="1.6" />
  <path d="M453.3 225.9 L453.3 223.4 L451.3 223.4 L451.3 225.9 L453.3 225.9 Z" fill="#2f8f83" fill-opacity="0.34" stroke="#0e5b52" stroke-width="1.6" />
  <path d="M443.0 218.5 L443.0 221.0 L445.0 221.0 L447.1 221.0 L447.1 218.5 L447.1 216.0 L445.0 216.0 L443.0 216.0 L443.0 218.5 Z" fill="#2f8f83" fill-opacity="0.34" stroke="#0e5b52" stroke-width="1.6" />
  <path d="M440.9 206.0 L440.9 208.5 L443.0 208.5 L443.0 206.0 L443.0 203.6 L440.9 203.6 L440.9 206.0 Z" fill="#2f8f83" fill-opacity="0.34" stroke="#0e5b52" stroke-width="1.6" />
  <path d="M447.1 193.6 L447.1 196.1 L449.2 196.1 L451.3 196.1 L453.3 196.1 L455.4 196.1 L457.5 196.1 L457.5 193.6 L457.5 191.1 L457.5 188.6 L459.6 188.6 L459.6 186.1 L457.5 186.1 L455.4 186.1 L453.3 186.1 L451.3 186.1 L451.3 188.6 L449.2 188.6 L449.2 191.1 L447.1 191.1 L447.1 193.6 Z" fill="#2f8f83" fill-opacity="0.34" stroke="#0e5b52" stroke-width="1.6" />
  <path d="M447.1 188.6 L447.1 191.1 L449.2 191.1 L449.2 188.6 L451.3 188.6 L451.3 186.1 L449.2 186.1 L447.1 186.1 L447.1 188.6 Z" fill="#2f8f83" fill-opacity="0.34" stroke="#0e5b52" stroke-width="1.6" />
  <path d="M443.0 233.4 L445.1 233.4 L445.1 235.9 L447.1 235.9 L449.2 235.9 L451.3 235.9 L451.3 233.4 L453.3 233.4 L455.4 233.4 L455.4 230.9 L453.3 230.9 L453.3 228.4 L453.3 225.9 L455.4 225.9 L455.4 223.4 L455.4 221.0 L457.5 221.0 L459.6 221.0 L459.6 218.5 L459.6 216.0 L457.5 216.0 L455.4 216.0 L453.3 216.0 L451.3 216.0 L449.2 216.0 L447.1 216.0 L447.1 218.5 L447.1 221.0 L445.0 221.0 L445.1 223.4 L445.1 225.9 L443.0 225.9 L443.0 228.4 L443.0 230.9 L443.0 233.4 Z M453.3 225.9 L451.3 225.9 L451.3 223.4 L453.3 223.4 L453.3 225.9 Z" fill="#2f8f83" fill-opacity="0.34" stroke="#0e5b52" stroke-width="1.6" />
  <path d="M451.3 238.3 L451.3 240.8 L453.3 240.8 L455.4 240.8 L457.5 240.8 L459.6 240.8 L459.6 238.3 L459.6 235.9 L459.6 233.4 L457.5 233.4 L457.5 230.9 L455.4 230.9 L455.4 233.4 L453.3 233.4 L451.3 233.4 L451.3 235.9 L451.3 238.3 Z" fill="#2f8f83" fill-opacity="0.34" stroke="#0e5b52" stroke-width="1.6" />
  <path d="M428.5 218.5 L428.5 221.0 L430.5 221.0 L432.6 221.0 L434.7 221.0 L436.8 221.0 L438.8 221.0 L440.9 221.0 L443.0 221.0 L443.0 218.5 L443.0 216.0 L445.0 216.0 L447.1 216.0 L447.1 213.5 L445.0 213.5 L443.0 213.5 L440.9 213.5 L438.8 213.5 L436.8 213.5 L436.8 211.0 L436.8 208.5 L436.8 206.0 L436.8 203.6 L436.8 201.1 L436.8 198.6 L436.8 196.1 L434.7 196.1 L434.7 198.6 L432.6 198.6 L432.6 201.1 L432.6 203.6 L432.6 206.0 L430.5 206.0 L428.5 206.0 L428.5 208.5 L428.5 211.0 L428.5 213.5 L428.5 216.0 L428.5 218.5 Z" fill="#2f8f83" fill-opacity="0.34" stroke="#0e5b52" stroke-width="1.6" />
  <path d="M424.3 235.9 L424.3 238.3 L426.4 238.3 L428.5 238.3 L428.5 235.9 L430.5 235.9 L432.6 235.9 L432.6 238.3 L434.7 238.3 L436.8 238.3 L438.8 238.3 L440.9 238.3 L443.0 238.3 L445.1 238.3 L445.1 235.9 L445.1 233.4 L443.0 233.4 L443.0 230.9 L443.0 228.4 L443.0 225.9 L445.1 225.9 L445.1 223.4 L445.0 221.0 L443.0 221.0 L440.9 221.0 L438.8 221.0 L436.8 221.0 L434.7 221.0 L432.6 221.0 L430.5 221.0 L428.5 221.0 L428.5 218.5 L426.4 218.5 L424.3 218.5 L424.3 221.0 L424.3 223.4 L424.3 225.9 L424.3 228.4 L424.3 230.9 L424.3 233.4 L424.3 235.9 Z" fill="#2f8f83" fill-opacity="0.34" stroke="#0e5b52" stroke-width="1.6" />
  <path d="M422.2 255.7 L422.2 258.2 L424.3 258.2 L426.4 258.2 L428.5 258.2 L430.5 258.2 L432.6 258.2 L432.6 255.7 L432.6 253.2 L432.6 250.7 L432.6 248.3 L430.5 248.3 L428.5 248.3 L426.4 248.3 L424.3 248.3 L422.2 248.3 L422.2 250.7 L422.2 253.2 L422.2 255.7 Z" fill="#2f8f83" fill-opacity="0.34" stroke="#0e5b52" stroke-width="1.6" />
  <path d="M517.6 270.6 L517.6 273.1 L519.7 273.1 L521.8 273.1 L523.9 273.1 L525.9 273.1 L528.0 273.1 L530.1 273.1 L530.1 270.6 L530.1 268.1 L530.1 265.6 L528.0 265.6 L525.9 265.6 L523.8 265.6 L523.8 268.1 L523.9 270.6 L521.8 270.6 L519.7 270.6 L519.7 268.1 L517.6 268.1 L515.6 268.1 L515.6 270.6 L517.6 270.6 Z" fill="#2f8f83" fill-opacity="0.34" stroke="#0e5b52" stroke-width="1.6" />
  <path d="M509.3 273.1 L511.4 273.1 L513.5 273.1 L515.6 273.1 L515.6 270.6 L515.6 268.1 L517.6 268.1 L517.6 265.6 L517.6 263.2 L517.6 260.7 L515.6 260.7 L513.5 260.7 L511.4 260.7 L511.4 258.2 L509.3 258.2 L509.3 260.7 L509.3 263.2 L509.3 265.6 L509.3 268.1 L509.3 270.6 L507.3 270.6 L507.3 273.1 L509.3 273.1 Z" fill="#2f8f83" fill-opacity="0.34" stroke="#0e5b52" stroke-width="1.6" />
  <path d="M526.0 372.0 L526.0 369.5 L523.9 369.5 L523.9 372.0 L526.0 372.0 Z" fill="#2f8f83" fill-opacity="0.34" stroke="#0e5b52" stroke-width="1.6" />
  <path d="M523.9 376.9 L523.9 379.4 L526.0 379.4 L526.0 381.9 L528.0 381.9 L530.1 381.9 L532.2 381.9 L532.2 379.4 L532.2 376.9 L532.2 374.5 L530.1 374.5 L528.0 374.5 L526.0 374.5 L526.0 372.0 L523.9 372.0 L523.9 374.5 L523.9 376.9 Z" fill="#2f8f83" fill-opacity="0.34" stroke="#0e5b52" stroke-width="1.6" />
  <path d="M525.9 275.5 L528.0 275.5 L528.0 273.1 L525.9 273.1 L523.9 273.1 L523.9 275.5 L525.9 275.5 Z" fill="#2f8f83" fill-opacity="0.34" stroke="#0e5b52" stroke-width="1.6" />
  <path d="M401.5 173.7 L403.6 173.7 L403.6 176.2 L403.6 178.7 L403.6 181.2 L403.6 183.7 L403.6 186.1 L403.6 188.6 L403.6 191.1 L405.6 191.1 L407.7 191.1 L409.8 191.1 L409.8 193.6 L409.8 196.1 L411.9 196.1 L413.9 196.1 L416.0 196.1 L418.1 196.1 L420.2 196.1 L422.2 196.1 L424.3 196.1 L424.3 193.6 L424.3 191.1 L422.2 191.1 L422.2 188.6 L422.2 186.1 L420.2 186.1 L420.2 183.7 L420.2 181.2 L420.2 178.7 L420.2 176.2 L420.2 173.7 L420.2 171.2 L420.2 168.7 L418.1 168.7 L416.0 168.7 L413.9 168.7 L411.9 168.7 L409.8 168.7 L407.7 168.7 L405.6 168.7 L403.6 168.7 L401.5 168.7 L401.5 171.2 L401.5 173.7 Z" fill="#2f8f83" fill-opacity="0.34" stroke="#0e5b52" stroke-width="1.6" />
  <path d="M523.9 391.8 L526.0 391.8 L528.0 391.8 L528.0 394.2 L530.1 394.2 L532.2 394.2 L534.3 394.2 L536.3 394.2 L536.3 396.7 L536.3 399.1 L536.3 401.6 L538.4 401.6 L538.4 404.1 L540.5 404.1 L542.6 404.1 L544.6 404.1 L546.7 404.1 L548.8 404.1 L548.8 406.5 L550.9 406.5 L550.9 409.0 L550.9 411.5 L550.9 413.9 L550.9 416.4 L550.9 418.9 L548.8 418.9 L546.7 418.9 L544.7 418.9 L542.6 418.9 L540.5 418.9 L538.4 418.9 L536.4 418.9 L536.4 421.3 L536.4 423.8 L536.4 426.3 L536.4 428.7 L538.4 428.7 L540.5 428.7 L542.6 428.7 L544.7 428.7 L546.7 428.7 L548.8 428.7 L550.9 428.7 L553.0 428.7 L555.0 428.7 L557.1 428.7 L557.1 431.2 L557.1 433.6 L557.1 436.1 L557.1 438.6 L559.2 438.6 L561.3 438.6 L563.3 438.6 L565.4 438.6 L567.5 438.6 L569.6 438.6 L571.6 438.6 L571.6 441.0 L571.6 443.5 L571.6 445.9 L571.6 448.4 L571.6 450.9 L571.6 453.3 L569.6 453.3 L569.6 455.8 L569.6 458.2 L569.6 460.7 L571.6 460.7 L573.7 460.7 L575.8 460.7 L577.8 460.7 L577.8 463.2 L577.8 465.6 L577.8 468.1 L577.8 470.5 L577.8 473.0 L577.8 475.4 L577.8 477.9 L577.8 480.4 L579.9 480.4 L582.0 480.4 L584.1 480.4 L586.1 480.4 L588.2 480.4 L590.3 480.4 L590.3 477.9 L592.4 477.9 L594.4 477.9 L594.4 475.4 L596.5 475.4 L596.5 473.0 L594.4 473.0 L592.4 473.0 L592.4 475.4 L590.3 475.4 L588.2 475.4 L588.2 477.9 L586.1 477.9 L584.1 477.9 L582.0 477.9 L579.9 477.9 L579.9 475.4 L579.9 473.0 L579.9 470.5 L579.9 468.1 L579.9 465.6 L579.9 463.2 L579.9 460.7 L579.9 458.2 L577.8 458.2 L575.8 458.2 L573.7 458.2 L571.6 458.2 L571.6 455.8 L573.7 455.8 L573.7 453.3 L573.7 450.9 L573.7 448.4 L573.7 445.9 L573.7 443.5 L573.7 441.0 L573.7 438.6 L573.7 436.1 L571.6 436.1 L569.6 436.1 L567.5 436.1 L565.4 436.1 L563.3 436.1 L561.3 436.1 L559.2 436.1 L559.2 433.6 L559.2 431.2 L559.2 428.7 L559.2 426.3 L557.1 426.3 L555.0 426.3 L553.0 426.3 L550.9 426.3 L548.8 426.3 L546.7 426.3 L544.7 426.3 L542.6 426.3 L540.5 426.3 L538.4 426.3 L538.4 423.8 L538.4 421.3 L540.5 421.3 L542.6 421.3 L544.7 421.3 L546.7 421.3 L548.8 421.3 L550.9 421.3 L552.9 421.3 L552.9 418.9 L552.9 416.4 L552.9 413.9 L552.9 411.5 L552.9 409.0 L552.9 406.5 L552.9 404.1 L550.9 404.1 L550.8 401.6 L548.8 401.6 L546.7 401.6 L544.6 401.6 L542.6 401.6 L540.5 401.6 L540.5 399.1 L538.4 399.1 L538.4 396.7 L538.4 394.2 L538.4 391.7 L536.3 391.8 L534.3 391.8 L532.2 391.8 L530.1 391.8 L530.1 389.3 L528.0 389.3 L528.0 386.8 L528.0 384.4 L530.1 384.4 L532.2 384.4 L534.2 384.3 L534.2 381.9 L534.2 379.4 L534.2 376.9 L534.2 374.5 L532.2 374.5 L532.2 376.9 L532.2 379.4 L532.2 381.9 L530.1 381.9 L528.0 381.9 L526.0 381.9 L526.0 384.4 L526.0 386.8 L526.0 389.3 L523.9 389.3 L521.8 389.3 L521.8 391.8 L523.9 391.8 Z" fill="#2f8f83" fill-opacity="0.34" stroke="#0e5b52" stroke-width="1.6" />
  <path d="M467.7 460.5 L466.9 459.2 L467.8 458.6 L468.4 458.2 L467.0 456.5 L466.4 455.7 L467.2 457.2 L465.0 458.2 L465.7 459.6 L465.7 459.7 L465.9 459.7 L465.9 459.7 L465.9 459.8 L467.7 460.5 Z" fill="#2f8f83" fill-opacity="0.34" stroke="#0e5b52" stroke-width="1.6" />
  <path d="M466.4 455.7 L466.0 455.0 L463.9 456.1 L465.0 458.2 L467.2 457.2 L466.4 455.7 Z" fill="#2f8f83" fill-opacity="0.34" stroke="#0e5b52" stroke-width="1.6" />
  <path d="M468.8 462.1 L468.7 461.8 L467.7 461.9 L467.3 462.9 L466.4 462.6 L466.5 463.1 L466.7 464.3 L466.7 464.5 L468.5 464.3 L469.1 464.2 L469.0 463.8 L468.8 462.1 Z" fill="#2f8f83" fill-opacity="0.34" stroke="#0e5b52" stroke-width="1.6" />
  <path d="M471.8 455.6 L471.3 454.6 L469.4 455.6 L470.3 456.8 L469.9 457.1 L470.2 457.7 L470.7 457.4 L472.3 456.6 L471.8 455.6 Z" fill="#2f8f83" fill-opacity="0.34" stroke="#0e5b52" stroke-width="1.6" />
  <path d="M457.1 200.4 L456.5 200.4 L457.9 200.6 L457.8 201.6 L458.6 201.6 L459.6 201.6 L459.7 200.4 L457.1 200.4 Z" fill="#2f8f83" fill-opacity="0.34" stroke="#0e5b52" stroke-width="1.6" />
  <path d="M468.1 186.1 L460.5 186.1 L460.5 186.2 L460.5 188.7 L459.0 188.7 L459.0 193.7 L459.1 193.8 L459.0 193.8 L459.0 196.3 L462.4 196.3 L469.6 196.2 L469.6 186.1 L468.1 186.1 Z" fill="#2f8f83" fill-opacity="0.34" stroke="#0e5b52" stroke-width="1.6" />
  <path d="M512.1 467.0 L503.7 467.0 L503.7 468.5 L503.7 473.8 L503.7 480.3 L512.1 480.3 L512.1 467.0 Z" fill="#2f8f83" fill-opacity="0.34" stroke="#0e5b52" stroke-width="1.6" />
  <path d="M512.1 480.3 L517.4 480.3 L517.4 467.0 L512.1 467.0 L512.1 480.3 Z" fill="#2f8f83" fill-opacity="0.34" stroke="#0e5b52" stroke-width="1.6" />
  <path d="M512.1 480.3 L503.7 480.3 L499.3 480.3 L498.9 480.3 L498.9 487.0 L498.9 490.9 L498.9 490.9 L511.1 490.9 L511.1 490.9 L511.1 485.6 L511.1 483.8 L512.1 483.8 L512.1 480.3 Z" fill="#2f8f83" fill-opacity="0.34" stroke="#0e5b52" stroke-width="1.6" />
  <path d="M511.1 496.1 L511.1 490.9 L511.1 490.9 L498.9 490.9 L497.9 490.9 L497.9 491.1 L497.9 496.2 L497.9 496.2 L500.6 496.2 L511.1 496.2 L511.1 496.1 Z" fill="#2f8f83" fill-opacity="0.34" stroke="#0e5b52" stroke-width="1.6" />
  <path d="M462.4 201.6 L462.4 201.5 L462.4 196.3 L459.0 196.3 L459.0 193.8 L458.1 194.2 L457.1 194.6 L457.1 200.4 L459.7 200.4 L459.6 201.6 L459.6 201.7 L461.3 201.7 L462.4 201.7 L462.4 201.6 Z" fill="#2f8f83" fill-opacity="0.34" stroke="#0e5b52" stroke-width="1.6" />
  <path d="M530.4 364.9 L529.6 362.9 L528.0 363.5 L527.3 363.8 L528.2 366.0 L530.5 365.1 L530.4 364.9 Z" fill="#2f8f83" fill-opacity="0.34" stroke="#0e5b52" stroke-width="1.6" />
  <path d="M531.1 367.5 L531.4 367.4 L530.5 365.1 L528.2 366.0 L529.0 367.9 L529.1 368.3 L531.1 367.5 Z" fill="#2f8f83" fill-opacity="0.34" stroke="#0e5b52" stroke-width="1.6" />
  <path d="M528.7 362.2 L528.0 362.1 L528.0 363.5 L529.6 362.9 L530.4 364.9 L530.7 362.5 L528.7 362.2 Z" fill="#2f8f83" fill-opacity="0.34" stroke="#0e5b52" stroke-width="1.6" />
  <path d="M486.5 342.4 L486.5 344.8 L488.6 344.8 L490.7 344.8 L492.8 344.8 L494.8 344.8 L494.8 342.4 L494.8 339.9 L494.8 337.4 L494.8 335.0 L494.8 332.5 L492.7 332.5 L490.7 332.5 L488.6 332.5 L486.5 332.5 L486.5 335.0 L486.5 337.4 L486.5 339.9 L486.5 342.4 Z M490.7 337.4 L490.7 335.0 L492.7 335.0 L492.7 337.4 L490.7 337.4 Z" fill="#2f8f83" fill-opacity="0.34" stroke="#0e5b52" stroke-width="1.6" />
  <path d="M521.8 263.2 L521.8 265.6 L523.8 265.6 L525.9 265.6 L528.0 265.6 L530.1 265.6 L530.1 263.2 L530.1 260.7 L530.1 258.2 L528.0 258.2 L525.9 258.2 L523.8 258.2 L521.8 258.2 L521.8 260.7 L521.8 263.2 Z" fill="#2f8f83" fill-opacity="0.34" stroke="#0e5b52" stroke-width="1.6" />
  <path d="M517.6 297.8 L519.7 297.8 L521.8 297.8 L523.9 297.8 L525.9 297.8 L528.0 297.8 L528.0 295.4 L528.0 292.9 L528.0 290.4 L528.0 287.9 L528.0 285.5 L528.0 283.0 L528.0 280.5 L528.0 278.0 L525.9 278.0 L525.9 280.5 L523.9 280.5 L521.8 280.5 L521.8 283.0 L521.8 285.5 L521.8 287.9 L521.8 290.4 L521.8 292.9 L521.8 295.4 L519.7 295.4 L517.6 295.4 L515.6 295.4 L515.6 297.8 L517.6 297.8 Z" fill="#2f8f83" fill-opacity="0.34" stroke="#0e5b52" stroke-width="1.6" />
  <path d="M484.5 347.3 L484.5 349.8 L486.5 349.8 L488.6 349.8 L490.7 349.8 L490.7 352.3 L492.8 352.3 L494.8 352.3 L496.9 352.3 L496.9 349.8 L496.9 347.3 L496.9 344.8 L496.9 342.4 L496.9 339.9 L496.9 337.4 L496.9 335.0 L496.9 332.5 L496.9 330.0 L494.8 330.0 L492.7 330.0 L492.7 332.5 L494.8 332.5 L494.8 335.0 L494.8 337.4 L494.8 339.9 L494.8 342.4 L494.8 344.8 L492.8 344.8 L490.7 344.8 L488.6 344.8 L486.5 344.8 L486.5 342.4 L486.5 339.9 L486.5 337.4 L484.5 337.4 L484.5 339.9 L484.5 342.4 L484.5 344.8 L484.5 347.3 Z" fill="#2f8f83" fill-opacity="0.34" stroke="#0e5b52" stroke-width="1.6" />
  <path d="M486.5 327.5 L486.5 330.0 L488.6 330.0 L490.7 330.0 L492.7 330.0 L494.8 330.0 L496.9 330.0 L496.9 327.5 L496.9 325.1 L496.9 322.6 L496.9 320.1 L496.9 317.6 L494.8 317.6 L492.7 317.6 L490.7 317.6 L488.6 317.6 L486.5 317.6 L486.5 320.1 L486.5 322.6 L486.5 325.1 L486.5 327.5 Z" fill="#2f8f83" fill-opacity="0.34" stroke="#0e5b52" stroke-width="1.6" />
  <path d="M484.5 335.0 L484.5 337.4 L486.5 337.4 L486.5 335.0 L486.5 332.5 L488.6 332.5 L490.7 332.5 L492.7 332.5 L492.7 330.0 L490.7 330.0 L488.6 330.0 L486.5 330.0 L486.5 327.5 L486.5 325.1 L484.5 325.1 L484.5 327.5 L484.5 330.0 L484.5 332.5 L484.5 335.0 Z" fill="#2f8f83" fill-opacity="0.34" stroke="#0e5b52" stroke-width="1.6" />
  <path d="M521.8 255.7 L521.8 258.2 L523.8 258.2 L525.9 258.2 L525.9 255.7 L525.9 253.2 L528.0 253.2 L530.1 253.2 L532.1 253.2 L534.2 253.2 L534.2 250.8 L534.2 248.3 L534.2 245.8 L536.3 245.8 L536.3 243.3 L534.2 243.3 L532.1 243.3 L530.1 243.3 L528.0 243.3 L525.9 243.3 L525.9 245.8 L525.9 248.3 L523.8 248.3 L521.8 248.3 L521.8 250.7 L521.8 253.2 L521.8 255.7 Z" fill="#2f8f83" fill-opacity="0.34" stroke="#0e5b52" stroke-width="1.6" />
  <path d="M525.9 240.8 L525.9 243.3 L528.0 243.3 L530.1 243.3 L532.1 243.3 L534.2 243.3 L536.3 243.3 L536.3 240.8 L534.2 240.8 L534.2 238.3 L534.2 235.9 L534.2 233.4 L534.2 230.9 L534.2 228.4 L532.1 228.4 L530.1 228.4 L528.0 228.4 L525.9 228.4 L525.9 230.9 L525.9 233.4 L525.9 235.9 L525.9 238.3 L525.9 240.8 Z" fill="#2f8f83" fill-opacity="0.34" stroke="#0e5b52" stroke-width="1.6" />
  <path d="M523.9 280.5 L525.9 280.5 L525.9 278.0 L523.9 278.0 L521.8 278.0 L521.8 280.5 L523.9 280.5 Z" fill="#2f8f83" fill-opacity="0.34" stroke="#0e5b52" stroke-width="1.6" />
  <path d="M519.7 283.0 L519.7 285.5 L521.8 285.5 L521.8 283.0 L521.8 280.5 L521.8 278.0 L523.9 278.0 L525.9 278.0 L528.0 278.0 L530.1 278.0 L530.1 275.5 L530.1 273.1 L528.0 273.1 L528.0 275.5 L525.9 275.5 L523.9 275.5 L523.9 273.1 L521.8 273.1 L519.7 273.1 L519.7 275.5 L519.7 278.0 L517.6 278.0 L517.6 280.5 L519.7 280.5 L519.7 283.0 Z" fill="#2f8f83" fill-opacity="0.34" stroke="#0e5b52" stroke-width="1.6" />
  <path d="M496.9 223.4 L499.0 223.4 L501.0 223.4 L503.1 223.4 L505.2 223.4 L507.3 223.4 L509.3 223.4 L511.4 223.4 L513.5 223.4 L515.6 223.4 L517.6 223.4 L519.7 223.4 L521.8 223.4 L523.8 223.4 L523.8 225.9 L523.8 228.4 L523.8 230.9 L523.8 233.4 L525.9 233.4 L525.9 230.9 L525.9 228.4 L525.9 225.9 L525.9 223.4 L528.0 223.4 L528.0 221.0 L525.9 221.0 L523.8 221.0 L521.8 221.0 L519.7 221.0 L517.6 221.0 L515.6 221.0 L513.5 221.0 L511.4 221.0 L509.3 221.0 L507.3 221.0 L505.2 221.0 L503.1 221.0 L501.0 221.0 L499.0 221.0 L496.9 221.0 L494.8 221.0 L494.8 223.4 L496.9 223.4 Z" fill="#2f8f83" fill-opacity="0.34" stroke="#0e5b52" stroke-width="1.6" />
  <path d="M544.6 280.5 L544.6 283.0 L546.7 283.0 L548.7 283.0 L550.8 283.0 L552.9 283.0 L555.0 283.0 L555.0 280.5 L552.9 280.5 L550.8 280.5 L548.7 280.5 L546.7 280.5 L546.7 278.0 L546.7 275.6 L546.7 273.1 L546.7 270.6 L546.7 268.1 L546.7 265.6 L546.7 263.2 L546.7 260.7 L546.7 258.2 L546.7 255.7 L546.7 253.2 L544.6 253.2 L544.6 255.7 L544.6 258.2 L544.6 260.7 L544.6 263.2 L544.6 265.6 L544.6 268.1 L544.6 270.6 L544.6 273.1 L544.6 275.6 L544.6 278.0 L544.6 280.5 Z" fill="#2f8f83" fill-opacity="0.34" stroke="#0e5b52" stroke-width="1.6" />
  <path d="M517.6 258.2 L519.7 258.2 L519.7 260.7 L517.6 260.7 L517.6 263.2 L519.7 263.2 L521.8 263.2 L521.8 260.7 L521.8 258.2 L521.8 255.7 L521.8 253.2 L521.8 250.7 L521.8 248.3 L523.8 248.3 L525.9 248.3 L525.9 245.8 L525.9 243.3 L525.9 240.8 L525.9 238.3 L525.9 235.9 L525.9 233.4 L523.8 233.4 L523.8 235.9 L523.8 238.3 L523.8 240.8 L523.8 243.3 L523.8 245.8 L521.8 245.8 L519.7 245.8 L519.7 248.3 L519.7 250.7 L519.7 253.2 L517.6 253.2 L517.6 255.7 L517.6 258.2 Z" fill="#2f8f83" fill-opacity="0.34" stroke="#0e5b52" stroke-width="1.6" />
  <path d="M449.2 156.3 L451.3 156.3 L453.3 156.3 L455.4 156.3 L457.5 156.3 L457.5 153.8 L455.4 153.8 L453.3 153.8 L451.3 153.8 L449.2 153.8 L447.1 153.8 L447.1 156.3 L449.2 156.3 Z" fill="#2f8f83" fill-opacity="0.34" stroke="#0e5b52" stroke-width="1.6" />
  <path d="M449.2 148.8 L451.3 148.8 L453.3 148.8 L453.3 146.3 L453.3 143.8 L453.3 141.3 L451.3 141.3 L449.2 141.3 L447.1 141.3 L447.1 143.8 L449.2 143.8 L451.3 143.8 L451.3 146.3 L449.2 146.3 L447.1 146.3 L447.1 148.8 L449.2 148.8 Z" fill="#2f8f83" fill-opacity="0.34" stroke="#0e5b52" stroke-width="1.6" />
  <path d="M507.3 317.6 L507.3 320.1 L509.3 320.1 L509.3 322.6 L509.3 325.1 L509.3 327.5 L511.4 327.5 L513.5 327.5 L515.6 327.5 L517.6 327.5 L519.7 327.5 L519.7 325.1 L519.7 322.6 L517.6 322.6 L515.6 322.6 L515.6 320.1 L515.6 317.6 L513.5 317.6 L513.5 315.2 L513.5 312.7 L511.4 312.7 L511.4 310.2 L509.3 310.2 L507.3 310.2 L507.3 312.7 L507.3 315.2 L507.3 317.6 Z" fill="#2f8f83" fill-opacity="0.34" stroke="#0e5b52" stroke-width="1.6" />
  <path d="M496.9 312.7 L499.0 312.7 L499.0 315.2 L501.0 315.2 L501.0 317.6 L503.1 317.6 L503.1 320.1 L503.1 322.6 L503.1 325.1 L505.2 325.1 L505.2 327.5 L507.3 327.5 L509.3 327.5 L509.3 325.1 L509.3 322.6 L509.3 320.1 L507.3 320.1 L507.3 317.6 L507.3 315.2 L507.3 312.7 L507.3 310.2 L505.2 310.2 L503.1 310.2 L503.1 307.7 L501.0 307.7 L499.0 307.7 L496.9 307.7 L496.9 310.2 L496.9 312.7 Z" fill="#2f8f83" fill-opacity="0.34" stroke="#0e5b52" stroke-width="1.6" />
  <path d="M496.9 330.0 L496.9 332.5 L499.0 332.5 L501.0 332.5 L501.0 330.0 L503.1 330.0 L503.1 332.5 L505.2 332.5 L507.3 332.5 L507.3 330.0 L507.3 327.5 L505.2 327.5 L505.2 325.1 L503.1 325.1 L503.1 322.6 L503.1 320.1 L503.1 317.6 L501.0 317.6 L501.0 315.2 L499.0 315.2 L499.0 312.7 L496.9 312.7 L496.9 315.2 L496.9 317.6 L496.9 320.1 L496.9 322.6 L496.9 325.1 L496.9 327.5 L496.9 330.0 Z" fill="#2f8f83" fill-opacity="0.34" stroke="#0e5b52" stroke-width="1.6" />
  <path d="M590.2 268.1 L590.2 270.6 L592.3 270.6 L592.3 273.1 L594.4 273.1 L596.4 273.1 L598.5 273.1 L598.5 270.6 L598.5 268.1 L598.5 265.6 L598.5 263.2 L596.4 263.2 L594.4 263.2 L592.3 263.2 L590.2 263.2 L590.2 265.6 L590.2 268.1 Z" fill="#2f8f83" fill-opacity="0.34" stroke="#0e5b52" stroke-width="1.6" />
  <path d="M447.1 151.3 L447.1 153.8 L449.2 153.8 L451.3 153.8 L453.3 153.8 L455.4 153.8 L457.5 153.8 L459.6 153.8 L461.6 153.8 L461.6 151.3 L461.6 148.8 L461.6 146.3 L461.6 143.8 L459.6 143.8 L459.6 141.3 L457.5 141.3 L455.4 141.3 L453.3 141.3 L453.3 143.8 L453.3 146.3 L453.3 148.8 L451.3 148.8 L449.2 148.8 L447.1 148.8 L447.1 151.3 Z" fill="#2f8f83" fill-opacity="0.34" stroke="#0e5b52" stroke-width="1.6" />
  <path d="M459.6 131.3 L461.6 131.3 L463.7 131.3 L463.7 133.8 L465.8 133.8 L465.8 136.3 L467.9 136.3 L469.9 136.3 L472.0 136.3 L472.0 133.8 L472.0 131.3 L472.0 128.8 L472.0 126.4 L472.0 123.9 L472.0 121.4 L469.9 121.4 L469.9 118.9 L467.9 118.9 L465.8 118.9 L465.8 121.4 L465.8 123.9 L465.8 126.4 L465.8 128.8 L463.7 128.8 L461.6 128.8 L459.6 128.8 L457.5 128.8 L457.5 131.3 L459.6 131.3 Z" fill="#2f8f83" fill-opacity="0.34" stroke="#0e5b52" stroke-width="1.6" />
  <path d="M438.9 485.3 L438.9 487.7 L441.0 487.7 L441.0 490.2 L441.0 492.6 L443.1 492.6 L445.1 492.6 L445.1 490.2 L445.1 487.7 L445.1 485.3 L445.1 482.8 L445.1 480.4 L445.1 477.9 L445.1 475.5 L443.1 475.5 L443.1 473.0 L443.1 470.5 L441.0 470.5 L441.0 473.0 L441.0 475.5 L441.0 477.9 L441.0 480.4 L438.9 480.4 L438.9 482.8 L438.9 485.3 Z" fill="#2f8f83" fill-opacity="0.34" stroke="#0e5b52" stroke-width="1.6" />
  <path d="M496.9 349.8 L496.9 352.3 L499.0 352.3 L501.1 352.3 L503.1 352.3 L503.1 349.8 L503.1 347.3 L503.1 344.8 L503.1 342.4 L503.1 339.9 L503.1 337.4 L503.1 335.0 L503.1 332.5 L503.1 330.0 L501.0 330.0 L501.0 332.5 L499.0 332.5 L496.9 332.5 L496.9 335.0 L496.9 337.4 L496.9 339.9 L496.9 342.4 L496.9 344.8 L496.9 347.3 L496.9 349.8 Z" fill="#2f8f83" fill-opacity="0.34" stroke="#0e5b52" stroke-width="1.6" />
  <path d="M492.8 372.0 L492.8 374.5 L494.9 374.5 L494.9 372.0 L496.9 372.0 L499.0 372.0 L499.0 374.5 L501.1 374.5 L501.1 372.0 L503.2 372.0 L503.2 369.5 L501.1 369.5 L501.1 367.1 L501.1 364.6 L501.1 362.1 L499.0 362.1 L496.9 362.1 L494.9 362.1 L494.8 359.7 L494.8 357.2 L494.8 354.7 L496.9 354.7 L499.0 354.7 L499.0 352.3 L496.9 352.3 L494.8 352.3 L492.8 352.3 L492.8 354.7 L492.8 357.2 L492.8 359.7 L492.8 362.1 L492.8 364.6 L492.8 367.1 L492.8 369.5 L492.8 372.0 Z" fill="#2f8f83" fill-opacity="0.34" stroke="#0e5b52" stroke-width="1.6" />
  <path d="M525.4 244.2 L525.4 233.4 L514.7 233.4 L514.7 244.5 L520.2 244.5 L520.2 246.8 L525.4 246.8 L525.4 244.2 Z" fill="#2f8f83" fill-opacity="0.34" stroke="#0e5b52" stroke-width="1.6" />
  <path d="M536.3 221.0 L536.3 223.4 L538.4 223.4 L538.4 225.9 L540.4 225.9 L540.4 223.4 L540.4 221.0 L540.4 218.5 L540.4 216.0 L540.4 213.5 L540.4 211.0 L540.4 208.5 L540.4 206.0 L540.4 203.6 L540.4 201.1 L540.4 198.6 L540.4 196.1 L540.4 193.6 L538.4 193.6 L536.3 193.6 L536.3 196.1 L536.3 198.6 L536.3 201.1 L536.3 203.6 L536.3 206.0 L536.3 208.5 L536.3 211.0 L536.3 213.5 L536.3 216.0 L536.3 218.5 L536.3 221.0 Z" fill="#2f8f83" fill-opacity="0.34" stroke="#0e5b52" stroke-width="1.6" />
  <path d="M540.4 230.9 L540.4 233.4 L542.5 233.4 L542.5 235.9 L542.5 238.3 L542.5 240.8 L542.5 243.3 L542.5 245.8 L544.6 245.8 L544.6 243.3 L544.6 240.8 L544.6 238.3 L546.7 238.3 L548.7 238.3 L548.7 235.9 L548.7 233.4 L548.7 230.9 L548.7 228.4 L548.7 225.9 L548.7 223.4 L546.7 223.4 L544.6 223.4 L542.5 223.4 L540.4 223.4 L540.4 225.9 L540.4 228.4 L540.4 230.9 Z" fill="#2f8f83" fill-opacity="0.34" stroke="#0e5b52" stroke-width="1.6" />
  <path d="M544.6 243.3 L544.6 245.8 L546.7 245.8 L548.7 245.8 L548.7 248.3 L550.8 248.3 L552.9 248.3 L555.0 248.3 L555.0 245.8 L555.0 243.3 L555.0 240.8 L557.0 240.8 L559.1 240.8 L561.2 240.8 L563.2 240.8 L565.3 240.8 L565.3 243.3 L567.4 243.3 L567.4 240.8 L567.4 238.3 L565.3 238.3 L563.2 238.3 L561.2 238.3 L559.1 238.3 L557.0 238.3 L555.0 238.3 L552.9 238.3 L550.8 238.3 L548.7 238.3 L546.7 238.3 L544.6 238.3 L544.6 240.8 L544.6 243.3 Z" fill="#2f8f83" fill-opacity="0.34" stroke="#0e5b52" stroke-width="1.6" />
  <path d="M546.7 278.0 L546.7 280.5 L548.7 280.5 L550.8 280.5 L552.9 280.5 L555.0 280.5 L557.0 280.5 L557.0 278.0 L555.0 278.0 L552.9 278.0 L550.8 278.0 L550.8 275.6 L550.8 273.1 L550.8 270.6 L548.7 270.6 L548.7 268.1 L548.7 265.6 L546.7 265.6 L546.7 268.1 L546.7 270.6 L546.7 273.1 L546.7 275.6 L546.7 278.0 Z" fill="#2f8f83" fill-opacity="0.34" stroke="#0e5b52" stroke-width="1.6" />
  <path d="M557.0 268.1 L559.1 268.1 L559.1 265.6 L557.0 265.6 L555.0 265.6 L555.0 268.1 L557.0 268.1 Z" fill="#2f8f83" fill-opacity="0.34" stroke="#0e5b52" stroke-width="1.6" />
  <path d="M472.0 121.4 L474.1 121.4 L476.1 121.4 L478.2 121.4 L480.3 121.4 L482.4 121.4 L482.4 118.9 L480.3 118.9 L478.2 118.9 L476.1 118.9 L474.1 118.9 L472.0 118.9 L469.9 118.9 L469.9 121.4 L472.0 121.4 Z" fill="#2f8f83" fill-opacity="0.34" stroke="#0e5b52" stroke-width="1.6" />
  <path d="M550.8 275.6 L550.8 278.0 L552.9 278.0 L555.0 278.0 L557.0 278.0 L557.0 275.6 L557.0 273.1 L559.1 273.1 L561.2 273.1 L561.2 270.6 L561.2 268.1 L561.2 265.6 L559.1 265.6 L559.1 268.1 L557.0 268.1 L555.0 268.1 L552.9 268.1 L550.8 268.1 L548.7 268.1 L548.7 270.6 L550.8 270.6 L552.9 270.6 L552.9 273.1 L550.8 273.1 L550.8 275.6 Z" fill="#2f8f83" fill-opacity="0.34" stroke="#0e5b52" stroke-width="1.6" />
  <path d="M579.8 273.1 L579.8 270.6 L577.8 270.6 L577.8 273.1 L579.8 273.1 Z" fill="#2f8f83" fill-opacity="0.34" stroke="#0e5b52" stroke-width="1.6" />
  <path d="M577.8 263.2 L577.8 265.6 L579.8 265.6 L581.9 265.6 L581.9 268.1 L584.0 268.1 L584.0 265.6 L586.1 265.6 L588.1 265.6 L590.2 265.6 L590.2 263.2 L590.2 260.7 L590.2 258.2 L590.2 255.7 L588.1 255.7 L586.1 255.7 L584.0 255.7 L581.9 255.7 L579.8 255.7 L577.8 255.7 L577.8 258.2 L577.8 260.7 L577.8 263.2 Z" fill="#2f8f83" fill-opacity="0.34" stroke="#0e5b52" stroke-width="1.6" />
  <path d="M555.0 268.1 L555.0 265.6 L552.9 265.6 L552.9 268.1 L555.0 268.1 Z" fill="#2f8f83" fill-opacity="0.34" stroke="#0e5b52" stroke-width="1.6" />
  <path d="M550.8 268.1 L552.9 268.1 L552.9 265.6 L550.8 265.6 L548.7 265.6 L548.7 268.1 L550.8 268.1 Z" fill="#2f8f83" fill-opacity="0.34" stroke="#0e5b52" stroke-width="1.6" />
  <path d="M492.7 337.4 L492.7 335.0 L490.7 335.0 L490.7 337.4 L492.7 337.4 Z" fill="#2f8f83" fill-opacity="0.34" stroke="#0e5b52" stroke-width="1.6" />
  <path d="M459.7 460.7 L459.7 463.2 L461.7 463.2 L461.7 465.6 L461.7 468.1 L463.8 468.1 L463.8 470.5 L465.9 470.5 L465.9 468.1 L467.9 468.1 L470.0 468.1 L472.1 468.1 L472.1 465.6 L472.1 463.2 L470.0 463.2 L467.9 463.2 L467.9 460.7 L467.9 458.2 L465.9 458.2 L465.9 455.8 L463.8 455.8 L461.7 455.8 L459.7 455.8 L459.7 458.2 L459.7 460.7 Z" fill="#2f8f83" fill-opacity="0.34" stroke="#0e5b52" stroke-width="1.6" />
  <path d="M463.8 453.3 L463.8 455.8 L465.9 455.8 L465.9 453.3 L467.9 453.3 L470.0 453.3 L470.0 455.8 L470.0 458.2 L470.0 460.7 L470.0 463.2 L472.1 463.2 L474.2 463.2 L474.2 460.7 L474.2 458.2 L474.2 455.8 L474.2 453.3 L474.2 450.9 L472.1 450.9 L470.0 450.9 L467.9 450.9 L465.9 450.9 L463.8 450.9 L463.8 453.3 Z" fill="#2f8f83" fill-opacity="0.34" stroke="#0e5b52" stroke-width="1.6" />
  <path d="M447.2 477.9 L449.3 477.9 L451.4 477.9 L453.4 477.9 L453.4 475.5 L455.5 475.5 L457.6 475.5 L459.7 475.5 L461.7 475.5 L461.7 473.0 L461.7 470.5 L461.7 468.1 L461.7 465.6 L461.7 463.2 L459.7 463.2 L457.6 463.2 L455.5 463.2 L453.4 463.2 L453.4 465.6 L453.4 468.1 L453.4 470.5 L453.4 473.0 L451.4 473.0 L451.4 475.5 L449.3 475.5 L447.2 475.5 L445.1 475.5 L445.1 477.9 L447.2 477.9 Z" fill="#2f8f83" fill-opacity="0.34" stroke="#0e5b52" stroke-width="1.6" />
  <path d="M449.2 141.3 L451.3 141.3 L453.3 141.3 L455.4 141.3 L457.5 141.3 L459.6 141.3 L459.6 143.8 L461.6 143.8 L463.7 143.8 L465.8 143.8 L465.8 141.3 L465.8 138.8 L465.8 136.3 L465.8 133.8 L463.7 133.8 L463.7 131.3 L461.6 131.3 L459.6 131.3 L459.6 133.8 L459.6 136.3 L457.5 136.3 L455.4 136.3 L453.3 136.3 L451.3 136.3 L449.2 136.3 L449.2 138.8 L447.1 138.8 L447.1 141.3 L449.2 141.3 Z" fill="#2f8f83" fill-opacity="0.34" stroke="#0e5b52" stroke-width="1.6" />
  <path d="M470.2 457.7 L469.9 457.1 L468.9 457.9 L469.9 459.4 L471.4 460.5 L472.0 459.6 L472.6 458.8 L470.7 457.4 L470.2 457.7 Z" fill="#2f8f83" fill-opacity="0.34" stroke="#0e5b52" stroke-width="1.6" />
  <path d="M592.3 263.2 L594.4 263.2 L596.4 263.2 L598.5 263.2 L598.5 260.7 L596.4 260.7 L594.4 260.7 L592.3 260.7 L590.2 260.7 L590.2 263.2 L592.3 263.2 Z" fill="#2f8f83" fill-opacity="0.34" stroke="#0e5b52" stroke-width="1.6" />
  <path d="M478.3 492.6 L478.3 495.1 L480.4 495.1 L480.4 492.6 L482.5 492.6 L484.5 492.6 L486.6 492.6 L486.6 490.2 L486.6 487.7 L486.6 485.3 L484.5 485.3 L482.5 485.3 L480.4 485.3 L478.3 485.3 L478.3 487.7 L478.3 490.2 L478.3 492.6 Z" fill="#2f8f83" fill-opacity="0.34" stroke="#0e5b52" stroke-width="1.6" />
  <path d="M519.7 268.1 L519.7 265.6 L517.6 265.6 L517.6 268.1 L519.7 268.1 Z" fill="#2f8f83" fill-opacity="0.34" stroke="#0e5b52" stroke-width="1.6" />
  <path d="M517.7 477.9 L517.7 480.4 L519.8 480.4 L521.9 480.4 L521.9 477.9 L523.9 477.9 L523.9 475.4 L523.9 473.0 L523.9 470.5 L523.9 468.1 L521.9 468.1 L519.8 468.1 L517.7 468.1 L517.7 470.5 L517.7 473.0 L517.7 475.5 L517.7 477.9 Z" fill="#2f8f83" fill-opacity="0.34" stroke="#0e5b52" stroke-width="1.6" />
  <path d="M513.6 482.8 L515.6 482.8 L517.7 482.8 L517.7 480.4 L515.6 480.4 L513.6 480.4 L511.5 480.4 L511.5 482.8 L513.6 482.8 Z" fill="#2f8f83" fill-opacity="0.34" stroke="#0e5b52" stroke-width="1.6" />
  <path d="M521.9 480.4 L521.9 482.8 L523.9 482.8 L526.0 482.8 L528.1 482.8 L530.2 482.8 L532.2 482.8 L532.2 480.4 L534.3 480.4 L534.3 477.9 L532.2 477.9 L530.2 477.9 L528.1 477.9 L526.0 477.9 L523.9 477.9 L521.9 477.9 L521.9 480.4 Z" fill="#2f8f83" fill-opacity="0.34" stroke="#0e5b52" stroke-width="1.6" />
  <path d="M470.0 485.3 L470.0 482.8 L467.9 482.8 L467.9 485.3 L470.0 485.3 Z" fill="#2f8f83" fill-opacity="0.34" stroke="#0e5b52" stroke-width="1.6" />
  <path d="M517.7 490.2 L517.7 487.7 L515.6 487.7 L515.6 490.2 L517.7 490.2 Z" fill="#2f8f83" fill-opacity="0.34" stroke="#0e5b52" stroke-width="1.6" />
  <path d="M519.7 265.6 L521.8 265.6 L521.8 263.2 L519.7 263.2 L517.6 263.2 L517.6 265.6 L519.7 265.6 Z" fill="#2f8f83" fill-opacity="0.34" stroke="#0e5b52" stroke-width="1.6" />
  <path d="M521.8 322.6 L523.9 322.6 L523.9 320.1 L521.8 320.1 L519.7 320.1 L519.7 322.6 L521.8 322.6 Z" fill="#2f8f83" fill-opacity="0.34" stroke="#0e5b52" stroke-width="1.6" />
  <path d="M517.6 322.6 L519.7 322.6 L519.7 320.1 L517.6 320.1 L515.6 320.1 L515.6 322.6 L517.6 322.6 Z" fill="#2f8f83" fill-opacity="0.34" stroke="#0e5b52" stroke-width="1.6" />
  <!-- title strip -->
  <rect x="0" y="0" width="1000" height="54" fill="#173042" />
  <text x="20" y="34" font-size="21" font-weight="bold" fill="#ffffff">Scottie Resources Corp. — Mineral Claims</text>
  <text x="980" y="34" font-size="15" fill="#cfe3df" text-anchor="end">SCOT</text>
  <!-- scale bar -->
  <g transform="translate(853.3467538895078, 596)">
    <rect x="0" y="0" width="53.32662305524612" height="8" fill="#173042" />
    <rect x="53.32662305524612" y="0" width="53.32662305524612" height="8" fill="#ffffff" stroke="#173042" stroke-width="1" />
    <text x="53.32662305524612" y="-6" font-size="12" fill="#173042" text-anchor="middle">20 km</text>
  </g>
  <!-- north arrow -->
  <g transform="translate(956, 92)">
    <circle r="17" fill="#ffffff" stroke="#b9b09a" />
    <path d="M0 -10 L5 7 L0 3 L-5 7 Z" fill="#173042" />
    <text y="14" font-size="9" font-weight="bold" fill="#173042" text-anchor="middle">N</text>
  </g>
  <!-- watermark -->
  <text x="20" y="620" font-size="13" fill="#7d8b8a">Map by Exploration Maps — explorationmaps.com</text>
</svg>