<svg xmlns="http://www.w3.org/2000/svg" viewBox="0 0 1000 640" font-family="Arial, Helvetica, sans-serif">
  <rect width="1000" height="640" fill="#f3efe6" />
  <line x1="200" y1="0" x2="200" y2="640" stroke="#d9d2c0" stroke-width="0.7" />
  <line x1="0" y1="128" x2="1000" y2="128" stroke="#d9d2c0" stroke-width="0.7" />
  <line x1="400" y1="0" x2="400" y2="640" stroke="#d9d2c0" stroke-width="0.7" />
  <line x1="0" y1="256" x2="1000" y2="256" stroke="#d9d2c0" stroke-width="0.7" />
  <line x1="600" y1="0" x2="600" y2="640" stroke="#d9d2c0" stroke-width="0.7" />
  <line x1="0" y1="384" x2="1000" y2="384" stroke="#d9d2c0" stroke-width="0.7" />
  <line x1="800" y1="0" x2="800" y2="640" stroke="#d9d2c0" stroke-width="0.7" />
  <line x1="0" y1="512" x2="1000" y2="512" stroke="#d9d2c0" stroke-width="0.7" />
  <path d="M317.8 130.9 L317.8 131.1 L317.9 131.1 L318.1 131.1 L318.1 130.9 L318.2 130.9 L318.4 130.9 L318.4 130.7 L318.5 130.7 L318.5 130.5 L318.7 130.5 L318.7 130.3 L318.8 130.3 L318.8 130.1 L319.0 130.1 L319.0 129.9 L319.0 129.7 L319.0 129.5 L319.0 129.3 L319.0 129.1 L319.0 128.9 L319.0 128.7 L319.0 128.5 L319.0 128.3 L319.0 128.1 L319.0 127.9 L319.2 127.9 L319.2 127.7 L319.0 127.7 L318.8 127.7 L318.7 127.7 L318.5 127.7 L318.5 127.9 L318.4 127.9 L318.4 128.1 L318.2 128.1 L318.2 128.3 L318.2 128.5 L318.1 128.5 L318.1 128.7 L318.1 128.9 L318.1 129.1 L317.9 129.1 L317.8 129.1 L317.8 129.3 L317.8 129.5 L317.8 129.7 L317.8 129.9 L317.8 130.1 L317.8 130.3 L317.8 130.5 L317.8 130.7 L317.8 130.9 Z" fill="#2f8f83" fill-opacity="0.34" stroke="#0e5b52" stroke-width="1.6" />
  <path d="M319.0 129.7 L319.0 129.9 L319.2 129.9 L319.2 129.7 L319.3 129.7 L319.3 129.5 L319.5 129.5 L319.5 129.3 L319.6 129.3 L319.6 129.1 L319.6 128.9 L319.6 128.7 L319.6 128.5 L319.6 128.3 L319.6 128.1 L319.5 128.1 L319.5 127.9 L319.3 127.9 L319.3 127.7 L319.2 127.7 L319.2 127.9 L319.0 127.9 L319.0 128.1 L319.0 128.3 L319.0 128.5 L319.0 128.7 L319.0 128.9 L319.0 129.1 L319.0 129.3 L319.0 129.5 L319.0 129.7 Z" fill="#2f8f83" fill-opacity="0.34" stroke="#0e5b52" stroke-width="1.6" />
  <path d="M317.8 127.5 L317.8 127.7 L317.9 127.7 L318.1 127.7 L318.1 127.5 L318.2 127.5 L318.2 127.3 L318.4 127.3 L318.5 127.3 L318.7 127.3 L318.8 127.3 L319.0 127.3 L319.2 127.3 L319.2 127.1 L319.0 127.1 L318.8 127.1 L318.7 127.1 L318.5 127.1 L318.4 127.1 L318.2 127.1 L318.1 127.1 L317.9 127.1 L317.9 126.9 L317.8 126.9 L317.8 127.1 L317.8 127.3 L317.8 127.5 Z" fill="#2f8f83" fill-opacity="0.34" stroke="#0e5b52" stroke-width="1.6" />
  <path d="M317.8 126.7 L317.8 126.9 L317.9 126.9 L317.9 127.1 L318.1 127.1 L318.2 127.1 L318.4 127.1 L318.5 127.1 L318.7 127.1 L318.8 127.1 L319.0 127.1 L319.2 127.1 L319.2 126.9 L319.2 126.7 L319.0 126.7 L318.8 126.7 L318.8 126.5 L318.7 126.5 L318.5 126.5 L318.4 126.5 L318.2 126.5 L318.2 126.3 L318.1 126.3 L318.1 126.1 L318.1 125.9 L317.9 125.9 L317.9 126.1 L317.8 126.1 L317.8 126.3 L317.8 126.5 L317.8 126.7 Z" fill="#2f8f83" fill-opacity="0.34" stroke="#0e5b52" stroke-width="1.6" />
  <path d="M312.6 133.1 L312.6 133.3 L312.7 133.3 L312.7 133.1 L312.7 132.9 L312.6 132.9 L312.6 133.1 Z" fill="#2f8f83" fill-opacity="0.34" stroke="#0e5b52" stroke-width="1.6" />
  <path d="M313.3 132.4 L312.6 132.4 L312.6 133.7 L313.3 133.7 L313.3 132.4 Z" fill="#2f8f83" fill-opacity="0.34" stroke="#0e5b52" stroke-width="1.6" />
  <path d="M313.8 133.1 L313.8 133.0 L313.8 131.9 L313.2 131.9 L313.2 132.4 L313.3 132.4 L313.3 133.2 L313.5 133.2 L313.8 133.2 L313.8 133.2 L313.8 133.1 Z" fill="#2f8f83" fill-opacity="0.34" stroke="#0e5b52" stroke-width="1.6" />
  <path d="M313.3 129.7 L313.5 129.7 L313.6 129.7 L313.6 129.5 L313.6 129.3 L313.5 129.3 L313.3 129.3 L313.2 129.3 L313.2 129.5 L313.3 129.5 L313.3 129.7 Z" fill="#2f8f83" fill-opacity="0.34" stroke="#0e5b52" stroke-width="1.6" />
  <path d="M315.8 130.1 L315.9 130.1 L316.1 130.1 L316.2 130.1 L316.4 130.1 L316.4 129.9 L316.4 129.7 L316.6 129.7 L316.6 129.5 L316.6 129.3 L316.4 129.3 L316.4 129.5 L316.2 129.5 L316.1 129.5 L315.9 129.5 L315.8 129.5 L315.8 129.7 L315.8 129.9 L315.6 129.9 L315.6 130.1 L315.8 130.1 Z" fill="#2f8f83" fill-opacity="0.34" stroke="#0e5b52" stroke-width="1.6" />
  <path d="M312.9 130.5 L312.9 130.7 L313.0 130.7 L313.2 130.7 L313.3 130.7 L313.5 130.7 L313.5 130.9 L313.5 131.1 L313.5 131.3 L313.5 131.5 L313.5 131.7 L313.5 131.9 L313.6 131.9 L313.8 131.9 L313.9 131.9 L314.1 131.9 L314.3 131.9 L314.3 131.7 L314.3 131.5 L314.3 131.3 L314.3 131.1 L314.3 130.9 L314.3 130.7 L314.3 130.5 L314.4 130.5 L314.6 130.5 L314.7 130.5 L314.7 130.3 L314.7 130.1 L314.9 130.1 L315.0 130.1 L315.2 130.1 L315.3 130.1 L315.5 130.1 L315.6 130.1 L315.6 129.9 L315.5 129.9 L315.3 129.9 L315.2 129.9 L315.0 129.9 L314.9 129.9 L314.7 129.9 L314.6 129.9 L314.4 129.9 L314.3 129.9 L314.1 129.9 L313.9 129.9 L313.8 129.9 L313.6 129.9 L313.6 129.7 L313.5 129.7 L313.3 129.7 L313.2 129.7 L313.0 129.7 L312.9 129.7 L312.9 129.9 L312.9 130.1 L312.9 130.3 L312.9 130.5 Z" fill="#2f8f83" fill-opacity="0.34" stroke="#0e5b52" stroke-width="1.6" />
  <path d="M313.8 132.5 L313.8 132.7 L313.9 132.7 L314.1 132.7 L314.3 132.7 L314.4 132.7 L314.6 132.7 L314.7 132.7 L314.9 132.7 L314.9 132.5 L314.9 132.3 L314.9 132.1 L314.9 131.9 L314.9 131.7 L314.7 131.7 L314.6 131.7 L314.6 131.9 L314.7 131.9 L314.7 132.1 L314.6 132.1 L314.4 132.1 L314.3 132.1 L314.3 131.9 L314.1 131.9 L313.9 131.9 L313.8 131.9 L313.6 131.9 L313.6 132.1 L313.8 132.1 L313.8 132.3 L313.8 132.5 Z" fill="#2f8f83" fill-opacity="0.34" stroke="#0e5b52" stroke-width="1.6" />
  <path d="M314.3 131.9 L314.3 132.1 L314.4 132.1 L314.6 132.1 L314.7 132.1 L314.7 131.9 L314.6 131.9 L314.6 131.7 L314.7 131.7 L314.7 131.5 L314.7 131.3 L314.7 131.1 L314.7 130.9 L314.7 130.7 L314.7 130.5 L314.6 130.5 L314.4 130.5 L314.3 130.5 L314.3 130.7 L314.3 130.9 L314.3 131.1 L314.3 131.3 L314.3 131.5 L314.3 131.7 L314.3 131.9 Z" fill="#2f8f83" fill-opacity="0.34" stroke="#0e5b52" stroke-width="1.6" />
  <path d="M316.4 129.1 L316.4 129.3 L316.6 129.3 L316.6 129.5 L316.7 129.5 L316.7 129.7 L316.9 129.7 L317.0 129.7 L317.2 129.7 L317.2 129.5 L317.2 129.3 L317.2 129.1 L317.2 128.9 L317.0 128.9 L317.0 128.7 L317.0 128.5 L316.9 128.5 L316.7 128.5 L316.6 128.5 L316.4 128.5 L316.4 128.7 L316.4 128.9 L316.4 129.1 Z" fill="#2f8f83" fill-opacity="0.34" stroke="#0e5b52" stroke-width="1.6" />
  <path d="M316.7 129.5 L316.6 129.5 L316.6 129.7 L316.7 129.7 L316.7 129.5 Z" fill="#2f8f83" fill-opacity="0.34" stroke="#0e5b52" stroke-width="1.6" />
  <path d="M316.4 129.9 L316.4 130.1 L316.6 130.1 L316.6 130.3 L316.5 130.5 L316.7 130.5 L316.9 130.5 L317.0 130.5 L317.0 130.3 L317.0 130.1 L317.0 129.9 L317.0 129.7 L316.9 129.7 L316.7 129.7 L316.6 129.7 L316.4 129.7 L316.4 129.9 Z" fill="#2f8f83" fill-opacity="0.34" stroke="#0e5b52" stroke-width="1.6" />
  <path d="M312.6 131.7 L312.6 131.9 L312.7 131.9 L312.9 131.9 L313.0 131.9 L313.0 131.7 L313.0 131.5 L313.0 131.3 L312.9 131.3 L312.7 131.3 L312.6 131.3 L312.6 131.5 L312.6 131.7 Z" fill="#2f8f83" fill-opacity="0.34" stroke="#0e5b52" stroke-width="1.6" />
  <path d="M312.9 131.1 L312.9 131.3 L313.0 131.3 L313.0 131.5 L313.0 131.7 L313.0 131.9 L313.0 132.1 L312.9 132.1 L312.9 132.3 L313.0 132.3 L313.0 132.5 L313.2 132.5 L313.2 132.3 L313.2 132.1 L313.2 131.9 L313.3 131.9 L313.5 131.9 L313.5 131.7 L313.5 131.5 L313.5 131.3 L313.5 131.1 L313.5 130.9 L313.5 130.7 L313.3 130.7 L313.2 130.7 L313.0 130.7 L312.9 130.7 L312.9 130.9 L312.9 131.1 Z" fill="#2f8f83" fill-opacity="0.34" stroke="#0e5b52" stroke-width="1.6" />
  <path d="M312.4 131.9 L312.4 132.1 L312.6 132.1 L312.7 132.1 L312.7 132.3 L312.7 132.5 L312.9 132.5 L313.0 132.5 L313.0 132.3 L312.9 132.3 L312.9 132.1 L313.0 132.1 L313.0 131.9 L312.9 131.9 L312.7 131.9 L312.6 131.9 L312.6 131.7 L312.6 131.5 L312.6 131.3 L312.4 131.3 L312.4 131.5 L312.4 131.7 L312.4 131.9 Z" fill="#2f8f83" fill-opacity="0.34" stroke="#0e5b52" stroke-width="1.6" />
  <path d="M312.4 131.1 L312.4 131.3 L312.6 131.3 L312.7 131.3 L312.9 131.3 L312.9 131.1 L312.9 130.9 L312.9 130.7 L312.9 130.5 L312.9 130.3 L312.9 130.1 L312.9 129.9 L312.7 129.9 L312.6 129.9 L312.4 129.9 L312.4 130.1 L312.4 130.3 L312.4 130.5 L312.4 130.7 L312.4 130.9 L312.4 131.1 Z" fill="#2f8f83" fill-opacity="0.34" stroke="#0e5b52" stroke-width="1.6" />
  <path d="M313.6 129.7 L313.6 129.9 L313.8 129.9 L313.9 129.9 L314.1 129.9 L314.3 129.9 L314.4 129.9 L314.6 129.9 L314.7 129.9 L314.9 129.9 L315.0 129.9 L315.2 129.9 L315.3 129.9 L315.5 129.9 L315.6 129.9 L315.8 129.9 L315.8 129.7 L315.8 129.5 L315.9 129.5 L316.1 129.5 L316.2 129.5 L316.4 129.5 L316.4 129.3 L316.4 129.1 L316.4 128.9 L316.4 128.7 L316.4 128.5 L316.4 128.3 L316.4 128.1 L316.4 127.9 L316.2 127.9 L316.1 127.9 L315.9 127.9 L315.8 127.9 L315.6 127.9 L315.5 127.9 L315.3 127.9 L315.2 127.9 L315.0 127.9 L315.0 128.1 L315.0 128.3 L314.9 128.3 L314.7 128.3 L314.6 128.3 L314.4 128.3 L314.3 128.3 L314.1 128.3 L314.1 128.5 L313.9 128.5 L313.8 128.5 L313.6 128.5 L313.6 128.7 L313.6 128.9 L313.6 129.1 L313.6 129.3 L313.6 129.5 L313.6 129.7 Z" fill="#2f8f83" fill-opacity="0.34" stroke="#0e5b52" stroke-width="1.6" />
  <path d="M314.7 130.9 L314.7 131.1 L314.9 131.1 L315.0 131.1 L315.2 131.1 L315.3 131.1 L315.5 131.1 L315.5 130.9 L315.5 130.7 L315.5 130.5 L315.5 130.3 L315.5 130.1 L315.3 130.1 L315.3 130.3 L315.3 130.5 L315.2 130.5 L315.0 130.5 L315.0 130.3 L315.0 130.1 L314.9 130.1 L314.7 130.1 L314.7 130.3 L314.7 130.5 L314.7 130.7 L314.7 130.9 Z" fill="#2f8f83" fill-opacity="0.34" stroke="#0e5b52" stroke-width="1.6" />
  <path d="M315.0 130.3 L315.0 130.5 L315.2 130.5 L315.3 130.5 L315.3 130.3 L315.3 130.1 L315.2 130.1 L315.0 130.1 L315.0 130.3 Z" fill="#2f8f83" fill-opacity="0.34" stroke="#0e5b52" stroke-width="1.6" />
  <path d="M315.8 130.9 L315.8 131.1 L315.9 131.1 L316.1 131.1 L316.2 131.1 L316.2 130.9 L316.2 130.7 L316.4 130.7 L316.5 130.7 L316.5 130.5 L316.6 130.3 L316.6 130.1 L316.4 130.1 L316.2 130.1 L316.1 130.1 L315.9 130.1 L315.8 130.1 L315.8 130.3 L315.8 130.5 L315.8 130.7 L315.8 130.9 Z" fill="#2f8f83" fill-opacity="0.34" stroke="#0e5b52" stroke-width="1.6" />
  <path d="M316.2 130.9 L316.2 131.1 L316.4 131.1 L316.5 131.1 L316.5 130.9 L316.5 130.7 L316.4 130.7 L316.2 130.7 L316.2 130.9 Z" fill="#2f8f83" fill-opacity="0.34" stroke="#0e5b52" stroke-width="1.6" />
  <path d="M315.8 130.1 L315.6 130.1 L315.6 130.3 L315.8 130.3 L315.8 130.1 Z" fill="#2f8f83" fill-opacity="0.34" stroke="#0e5b52" stroke-width="1.6" />
  <path d="M313.3 129.1 L313.3 129.3 L313.5 129.3 L313.6 129.3 L313.6 129.1 L313.6 128.9 L313.5 128.9 L313.3 128.9 L313.3 129.1 Z" fill="#2f8f83" fill-opacity="0.34" stroke="#0e5b52" stroke-width="1.6" />
  <path d="M312.1 128.5 L312.3 128.5 L312.4 128.5 L312.6 128.5 L312.7 128.5 L312.9 128.5 L312.9 128.3 L312.9 128.1 L312.7 128.1 L312.7 128.3 L312.6 128.3 L312.4 128.3 L312.4 128.1 L312.3 128.1 L312.3 128.3 L312.1 128.3 L312.0 128.3 L312.0 128.5 L312.1 128.5 Z" fill="#2f8f83" fill-opacity="0.34" stroke="#0e5b52" stroke-width="1.6" />
  <path d="M311.2 128.9 L311.3 128.9 L311.5 128.9 L311.5 129.1 L311.7 129.1 L311.8 129.1 L312.0 129.1 L312.1 129.1 L312.1 129.3 L312.1 129.5 L312.1 129.7 L312.1 129.9 L312.1 130.1 L312.1 130.3 L312.1 130.5 L312.1 130.7 L312.1 130.9 L312.1 131.1 L312.1 131.3 L312.1 131.5 L312.1 131.7 L312.1 131.9 L312.1 132.1 L312.1 132.3 L312.1 132.5 L312.3 132.5 L312.4 132.5 L312.4 132.3 L312.4 132.1 L312.4 131.9 L312.4 131.7 L312.4 131.5 L312.4 131.3 L312.4 131.1 L312.4 130.9 L312.4 130.7 L312.4 130.5 L312.3 130.5 L312.3 130.3 L312.3 130.1 L312.3 129.9 L312.3 129.7 L312.3 129.5 L312.3 129.3 L312.3 129.1 L312.4 129.1 L312.6 129.1 L312.6 128.9 L312.7 128.9 L312.7 128.7 L312.6 128.7 L312.4 128.7 L312.3 128.7 L312.1 128.7 L312.0 128.7 L311.8 128.7 L311.7 128.7 L311.5 128.7 L311.5 128.5 L311.5 128.3 L311.7 128.3 L311.8 128.3 L312.0 128.3 L312.1 128.3 L312.3 128.3 L312.3 128.1 L312.4 128.1 L312.4 128.3 L312.6 128.3 L312.7 128.3 L312.7 128.1 L312.9 128.1 L312.9 127.9 L312.7 127.9 L312.6 127.9 L312.4 127.9 L312.3 127.9 L312.3 127.7 L312.1 127.7 L312.1 127.5 L312.1 127.3 L312.0 127.3 L312.0 127.5 L311.8 127.5 L311.7 127.5 L311.5 127.5 L311.5 127.7 L311.3 127.7 L311.3 127.9 L311.2 127.9 L311.2 128.1 L311.2 128.3 L311.2 128.5 L311.2 128.7 L311.2 128.9 Z" fill="#2f8f83" fill-opacity="0.34" stroke="#0e5b52" stroke-width="1.6" />
  <path d="M315.5 130.9 L315.5 131.1 L315.6 131.1 L315.8 131.1 L315.8 130.9 L315.8 130.7 L315.8 130.5 L315.8 130.3 L315.6 130.3 L315.6 130.1 L315.5 130.1 L315.5 130.3 L315.5 130.5 L315.5 130.7 L315.5 130.9 Z" fill="#2f8f83" fill-opacity="0.34" stroke="#0e5b52" stroke-width="1.6" />
  <path d="M315.9 131.7 L315.9 131.9 L316.1 131.9 L316.2 131.9 L316.2 131.7 L316.2 131.5 L316.1 131.5 L316.1 131.3 L316.1 131.1 L315.9 131.1 L315.9 131.3 L315.9 131.5 L315.9 131.7 Z" fill="#2f8f83" fill-opacity="0.34" stroke="#0e5b52" stroke-width="1.6" />
  <path d="M314.9 132.5 L314.9 132.7 L315.0 132.7 L315.2 132.7 L315.2 132.5 L315.2 132.3 L315.3 132.3 L315.5 132.3 L315.5 132.1 L315.6 132.1 L315.8 132.1 L315.9 132.1 L316.1 132.1 L316.2 132.1 L316.4 132.1 L316.5 132.1 L316.7 132.1 L316.7 131.9 L316.9 131.9 L316.9 131.7 L316.9 131.5 L316.7 131.5 L316.5 131.5 L316.4 131.5 L316.4 131.7 L316.2 131.7 L316.2 131.9 L316.1 131.9 L315.9 131.9 L315.8 131.9 L315.6 131.9 L315.5 131.9 L315.3 131.9 L315.3 132.1 L315.2 132.1 L315.0 132.1 L314.9 132.1 L314.9 132.3 L314.9 132.5 Z" fill="#2f8f83" fill-opacity="0.34" stroke="#0e5b52" stroke-width="1.6" />
  <path d="M316.9 131.5 L316.9 131.7 L317.0 131.7 L317.2 131.7 L317.2 131.5 L317.3 131.5 L317.5 131.5 L317.6 131.5 L317.6 131.3 L317.5 131.3 L317.3 131.3 L317.2 131.3 L317.2 131.1 L317.2 130.9 L317.0 130.9 L316.9 130.9 L316.9 131.1 L316.9 131.3 L316.9 131.5 Z" fill="#2f8f83" fill-opacity="0.34" stroke="#0e5b52" stroke-width="1.6" />
  <path d="M312.1 128.7 L312.3 128.7 L312.4 128.7 L312.6 128.7 L312.7 128.7 L312.7 128.9 L312.6 128.9 L312.6 129.1 L312.7 129.1 L312.9 129.1 L312.9 128.9 L312.9 128.7 L312.9 128.5 L312.7 128.5 L312.6 128.5 L312.4 128.5 L312.3 128.5 L312.1 128.5 L312.0 128.5 L312.0 128.7 L312.1 128.7 Z" fill="#2f8f83" fill-opacity="0.34" stroke="#0e5b52" stroke-width="1.6" />
  <path d="M314.7 131.5 L314.7 131.7 L314.9 131.7 L314.9 131.9 L314.9 132.1 L315.0 132.1 L315.2 132.1 L315.3 132.1 L315.3 131.9 L315.5 131.9 L315.6 131.9 L315.8 131.9 L315.9 131.9 L315.9 131.7 L315.9 131.5 L315.9 131.3 L315.9 131.1 L315.8 131.1 L315.6 131.1 L315.5 131.1 L315.3 131.1 L315.2 131.1 L315.0 131.1 L314.9 131.1 L314.7 131.1 L314.7 131.3 L314.7 131.5 Z" fill="#2f8f83" fill-opacity="0.34" stroke="#0e5b52" stroke-width="1.6" />
  <path d="M316.1 131.3 L316.1 131.5 L316.2 131.5 L316.2 131.7 L316.4 131.7 L316.4 131.5 L316.5 131.5 L316.7 131.5 L316.9 131.5 L316.9 131.3 L316.9 131.1 L316.9 130.9 L317.0 130.9 L317.2 130.9 L317.2 130.7 L317.2 130.5 L317.2 130.3 L317.2 130.1 L317.2 129.9 L317.2 129.7 L317.0 129.7 L317.0 129.9 L317.0 130.1 L317.0 130.3 L317.0 130.5 L316.9 130.5 L316.7 130.5 L316.5 130.5 L316.5 130.7 L316.5 130.9 L316.5 131.1 L316.4 131.1 L316.2 131.1 L316.1 131.1 L316.1 131.3 Z" fill="#2f8f83" fill-opacity="0.34" stroke="#0e5b52" stroke-width="1.6" />
  <path d="M312.6 129.7 L312.6 129.9 L312.7 129.9 L312.9 129.9 L312.9 129.7 L313.0 129.7 L313.2 129.7 L313.3 129.7 L313.3 129.5 L313.2 129.5 L313.2 129.3 L313.0 129.3 L312.9 129.3 L312.7 129.3 L312.6 129.3 L312.6 129.5 L312.6 129.7 Z" fill="#2f8f83" fill-opacity="0.34" stroke="#0e5b52" stroke-width="1.6" />
  <path d="M313.2 129.3 L313.3 129.3 L313.3 129.1 L313.3 128.9 L313.5 128.9 L313.6 128.9 L313.6 128.7 L313.6 128.5 L313.8 128.5 L313.9 128.5 L314.1 128.5 L314.1 128.3 L314.3 128.3 L314.4 128.3 L314.6 128.3 L314.7 128.3 L314.9 128.3 L315.0 128.3 L315.0 128.1 L315.0 127.9 L315.2 127.9 L315.3 127.9 L315.5 127.9 L315.6 127.9 L315.8 127.9 L315.9 127.9 L316.1 127.9 L316.2 127.9 L316.4 127.9 L316.4 128.1 L316.4 128.3 L316.4 128.5 L316.6 128.5 L316.7 128.5 L316.9 128.5 L316.9 128.3 L316.9 128.1 L316.9 127.9 L316.9 127.7 L316.9 127.5 L316.9 127.3 L316.9 127.1 L316.7 127.1 L316.6 127.1 L316.4 127.1 L316.2 127.1 L316.1 127.1 L315.9 127.1 L315.9 127.3 L315.8 127.3 L315.8 127.5 L315.6 127.5 L315.5 127.5 L315.3 127.5 L315.2 127.5 L315.0 127.5 L314.9 127.5 L314.7 127.5 L314.7 127.7 L314.6 127.7 L314.4 127.7 L314.3 127.7 L314.1 127.7 L313.9 127.7 L313.9 127.9 L313.8 127.9 L313.8 128.1 L313.6 128.1 L313.5 128.1 L313.3 128.1 L313.3 128.3 L313.2 128.3 L313.2 128.5 L313.2 128.7 L313.2 128.9 L313.2 129.1 L313.2 129.3 Z" fill="#2f8f83" fill-opacity="0.34" stroke="#0e5b52" stroke-width="1.6" />
  <path d="M317.8 131.5 L317.9 131.5 L318.1 131.5 L318.2 131.5 L318.4 131.5 L318.5 131.5 L318.7 131.5 L318.8 131.5 L319.0 131.5 L319.2 131.5 L319.3 131.5 L319.5 131.5 L319.6 131.5 L319.8 131.5 L319.9 131.5 L320.1 131.5 L320.1 131.7 L320.2 131.7 L320.2 131.9 L320.2 132.1 L320.4 132.1 L320.4 132.3 L320.5 132.3 L320.7 132.3 L320.8 132.3 L321.0 132.3 L321.1 132.3 L321.3 132.3 L321.4 132.3 L321.6 132.3 L321.6 132.1 L321.6 131.9 L321.6 131.7 L321.6 131.5 L321.8 131.5 L321.8 131.3 L321.8 131.1 L321.8 130.9 L321.8 130.7 L321.8 130.5 L321.8 130.3 L321.8 130.1 L321.8 129.9 L321.8 129.7 L321.6 129.7 L321.6 129.5 L321.6 129.3 L321.6 129.1 L321.6 128.9 L321.6 128.7 L321.6 128.5 L321.6 128.3 L321.6 128.1 L321.4 128.1 L321.3 128.1 L321.1 128.1 L321.0 128.1 L320.8 128.1 L320.7 128.1 L320.7 128.3 L320.5 128.3 L320.4 128.3 L320.4 128.5 L320.2 128.5 L320.1 128.5 L319.9 128.5 L319.8 128.5 L319.6 128.5 L319.6 128.7 L319.6 128.9 L319.6 129.1 L319.6 129.3 L319.5 129.3 L319.5 129.5 L319.3 129.5 L319.3 129.7 L319.2 129.7 L319.2 129.9 L319.0 129.9 L319.0 130.1 L318.8 130.1 L318.8 130.3 L318.7 130.3 L318.7 130.5 L318.5 130.5 L318.5 130.7 L318.4 130.7 L318.4 130.9 L318.2 130.9 L318.1 130.9 L318.1 131.1 L317.9 131.1 L317.8 131.1 L317.8 131.3 L317.6 131.3 L317.6 131.5 L317.8 131.5 Z" fill="#2f8f83" fill-opacity="0.34" stroke="#0e5b52" stroke-width="1.6" />
  <path d="M307.1 130.1 L307.1 130.3 L307.2 130.3 L307.2 130.5 L307.2 130.7 L307.4 130.7 L307.5 130.7 L307.7 130.7 L307.8 130.7 L308.0 130.7 L308.1 130.7 L308.3 130.7 L308.4 130.7 L308.6 130.7 L308.7 130.7 L308.7 130.9 L308.9 130.9 L309.1 130.9 L309.2 130.9 L309.4 130.9 L309.5 130.9 L309.7 130.9 L309.8 130.9 L309.8 131.1 L310.0 131.1 L310.1 131.1 L310.3 131.1 L310.4 131.1 L310.4 131.3 L310.6 131.3 L310.7 131.3 L310.9 131.3 L311.0 131.3 L311.2 131.3 L311.3 131.3 L311.5 131.3 L311.5 131.1 L311.5 130.9 L311.7 130.9 L311.8 130.9 L312.0 130.9 L312.1 130.9 L312.1 130.7 L312.0 130.7 L311.8 130.7 L311.7 130.7 L311.5 130.7 L311.3 130.7 L311.3 130.9 L311.2 130.9 L311.0 130.9 L310.9 130.9 L310.7 130.9 L310.6 130.9 L310.4 130.9 L310.3 130.9 L310.1 130.9 L310.0 130.9 L310.0 130.7 L309.8 130.7 L309.7 130.7 L309.5 130.7 L309.4 130.7 L309.2 130.7 L309.1 130.7 L308.9 130.7 L308.9 130.5 L308.7 130.5 L308.6 130.5 L308.4 130.5 L308.3 130.5 L308.1 130.5 L308.0 130.5 L307.8 130.5 L307.7 130.5 L307.5 130.5 L307.4 130.5 L307.4 130.3 L307.4 130.1 L307.4 129.9 L307.2 129.9 L307.1 129.9 L307.1 130.1 Z" fill="#2f8f83" fill-opacity="0.34" stroke="#0e5b52" stroke-width="1.6" />
  <path d="M313.3 133.1 L313.2 133.1 L313.2 133.3 L313.3 133.3 L313.3 133.1 Z" fill="#2f8f83" fill-opacity="0.34" stroke="#0e5b52" stroke-width="1.6" />
  <path d="M312.6 132.3 L312.6 132.5 L312.7 132.5 L312.7 132.3 L312.7 132.1 L312.6 132.1 L312.4 132.1 L312.4 132.3 L312.6 132.3 Z" fill="#2f8f83" fill-opacity="0.34" stroke="#0e5b52" stroke-width="1.6" />
  <path d="M312.3 130.3 L312.3 130.5 L312.4 130.5 L312.4 130.3 L312.4 130.1 L312.4 129.9 L312.6 129.9 L312.6 129.7 L312.6 129.5 L312.6 129.3 L312.7 129.3 L312.9 129.3 L313.0 129.3 L313.2 129.3 L313.2 129.1 L313.2 128.9 L313.2 128.7 L313.2 128.5 L313.2 128.3 L313.3 128.3 L313.3 128.1 L313.5 128.1 L313.6 128.1 L313.8 128.1 L313.8 127.9 L313.6 127.9 L313.5 127.9 L313.3 127.9 L313.2 127.9 L313.0 127.9 L312.9 127.9 L312.9 128.1 L312.9 128.3 L312.9 128.5 L312.9 128.7 L312.9 128.9 L312.9 129.1 L312.7 129.1 L312.6 129.1 L312.4 129.1 L312.3 129.1 L312.3 129.3 L312.3 129.5 L312.3 129.7 L312.3 129.9 L312.3 130.1 L312.3 130.3 Z" fill="#2f8f83" fill-opacity="0.34" stroke="#0e5b52" stroke-width="1.6" />
  <path d="M312.1 127.5 L312.1 127.7 L312.3 127.7 L312.3 127.9 L312.4 127.9 L312.6 127.9 L312.7 127.9 L312.9 127.9 L313.0 127.9 L313.2 127.9 L313.3 127.9 L313.5 127.9 L313.6 127.9 L313.8 127.9 L313.9 127.9 L313.9 127.7 L313.9 127.5 L313.9 127.3 L313.8 127.3 L313.6 127.3 L313.5 127.3 L313.3 127.3 L313.2 127.3 L313.0 127.3 L312.9 127.3 L312.7 127.3 L312.6 127.3 L312.4 127.3 L312.3 127.3 L312.1 127.3 L312.1 127.5 Z" fill="#2f8f83" fill-opacity="0.34" stroke="#0e5b52" stroke-width="1.6" />
  <path d="M317.0 128.7 L317.0 128.9 L317.2 128.9 L317.2 129.1 L317.2 129.3 L317.2 129.5 L317.2 129.7 L317.3 129.7 L317.3 129.5 L317.5 129.5 L317.6 129.5 L317.8 129.5 L317.8 129.3 L317.8 129.1 L317.8 128.9 L317.8 128.7 L317.8 128.5 L317.8 128.3 L317.6 128.3 L317.5 128.3 L317.3 128.3 L317.2 128.3 L317.0 128.3 L316.9 128.3 L316.9 128.5 L317.0 128.5 L317.0 128.7 Z" fill="#2f8f83" fill-opacity="0.34" stroke="#0e5b52" stroke-width="1.6" />
  <path d="M316.9 128.1 L316.9 128.3 L317.0 128.3 L317.2 128.3 L317.3 128.3 L317.5 128.3 L317.6 128.3 L317.8 128.3 L317.8 128.1 L317.6 128.1 L317.5 128.1 L317.3 128.1 L317.3 127.9 L317.2 127.9 L317.2 127.7 L317.2 127.5 L317.0 127.5 L317.0 127.3 L317.0 127.1 L316.9 127.1 L316.9 127.3 L316.9 127.5 L316.9 127.7 L316.9 127.9 L316.9 128.1 Z" fill="#2f8f83" fill-opacity="0.34" stroke="#0e5b52" stroke-width="1.6" />
  <path d="M316.7 126.9 L316.7 127.1 L316.9 127.1 L317.0 127.1 L317.0 127.3 L317.0 127.5 L317.2 127.5 L317.2 127.7 L317.2 127.9 L317.3 127.9 L317.3 128.1 L317.5 128.1 L317.6 128.1 L317.8 128.1 L317.8 127.9 L317.8 127.7 L317.8 127.5 L317.8 127.3 L317.8 127.1 L317.8 126.9 L317.8 126.7 L317.8 126.5 L317.6 126.5 L317.5 126.5 L317.3 126.5 L317.2 126.5 L317.0 126.5 L316.9 126.5 L316.7 126.5 L316.7 126.7 L316.7 126.9 Z" fill="#2f8f83" fill-opacity="0.34" stroke="#0e5b52" stroke-width="1.6" />
  <path d="M317.2 131.1 L317.2 131.3 L317.3 131.3 L317.5 131.3 L317.6 131.3 L317.8 131.3 L317.8 131.1 L317.8 130.9 L317.8 130.7 L317.8 130.5 L317.8 130.3 L317.8 130.1 L317.8 129.9 L317.8 129.7 L317.8 129.5 L317.6 129.5 L317.5 129.5 L317.3 129.5 L317.3 129.7 L317.2 129.7 L317.2 129.9 L317.2 130.1 L317.2 130.3 L317.2 130.5 L317.2 130.7 L317.2 130.9 L317.2 131.1 Z" fill="#2f8f83" fill-opacity="0.34" stroke="#0e5b52" stroke-width="1.6" />
  <path d="M317.8 128.9 L317.8 129.1 L317.9 129.1 L318.1 129.1 L318.1 128.9 L318.1 128.7 L318.1 128.5 L318.2 128.5 L318.2 128.3 L318.2 128.1 L318.4 128.1 L318.4 127.9 L318.5 127.9 L318.5 127.7 L318.7 127.7 L318.8 127.7 L319.0 127.7 L319.2 127.7 L319.3 127.7 L319.3 127.5 L319.3 127.3 L319.2 127.3 L319.0 127.3 L318.8 127.3 L318.7 127.3 L318.5 127.3 L318.4 127.3 L318.2 127.3 L318.2 127.5 L318.1 127.5 L318.1 127.7 L317.9 127.7 L317.8 127.7 L317.8 127.9 L317.8 128.1 L317.8 128.3 L317.8 128.5 L317.8 128.7 L317.8 128.9 Z" fill="#2f8f83" fill-opacity="0.34" stroke="#0e5b52" stroke-width="1.6" />
  <path d="M315.2 132.5 L315.2 132.7 L315.3 132.7 L315.3 132.5 L315.5 132.5 L315.6 132.5 L315.8 132.5 L315.9 132.5 L315.9 132.7 L315.9 132.9 L316.1 132.9 L316.1 133.1 L316.1 133.3 L316.2 133.3 L316.2 133.5 L316.1 133.5 L316.1 133.7 L316.2 133.7 L316.4 133.7 L316.6 133.7 L316.7 133.7 L316.7 133.5 L316.7 133.3 L316.7 133.1 L316.7 132.9 L316.7 132.7 L316.7 132.5 L316.7 132.3 L316.7 132.1 L316.5 132.1 L316.4 132.1 L316.2 132.1 L316.1 132.1 L315.9 132.1 L315.8 132.1 L315.6 132.1 L315.5 132.1 L315.5 132.3 L315.3 132.3 L315.2 132.3 L315.2 132.5 Z" fill="#2f8f83" fill-opacity="0.34" stroke="#0e5b52" stroke-width="1.6" />
  <path d="M317.9 125.6 L317.9 125.9 L318.1 125.9 L318.1 126.1 L318.1 126.3 L318.2 126.3 L318.2 126.5 L318.4 126.5 L318.5 126.5 L318.7 126.5 L318.8 126.5 L318.8 126.7 L319.0 126.7 L319.2 126.7 L319.2 126.5 L319.2 126.3 L319.2 126.1 L319.2 125.9 L319.2 125.6 L319.0 125.6 L319.0 125.4 L318.8 125.4 L318.7 125.4 L318.5 125.4 L318.4 125.4 L318.2 125.4 L318.1 125.4 L317.9 125.4 L317.8 125.4 L317.8 125.6 L317.9 125.6 Z" fill="#2f8f83" fill-opacity="0.34" stroke="#0e5b52" stroke-width="1.6" />
  <path d="M689.7 526.6 L689.6 526.6 L689.6 526.8 L689.7 526.8 L689.9 526.8 L689.9 526.6 L689.7 526.6 Z" fill="#2f8f83" fill-opacity="0.34" stroke="#0e5b52" stroke-width="1.6" />
  <path d="M689.3 526.8 L689.3 526.9 L689.4 526.9 L689.4 526.8 L689.4 526.6 L689.3 526.6 L689.3 526.8 Z" fill="#2f8f83" fill-opacity="0.34" stroke="#0e5b52" stroke-width="1.6" />
  <path d="M691.9 526.0 L691.9 526.1 L691.9 526.3 L691.9 526.5 L691.9 526.6 L691.9 526.8 L692.0 526.8 L692.2 526.8 L692.2 526.6 L692.3 526.6 L692.3 526.5 L692.5 526.5 L692.5 526.3 L692.6 526.3 L692.6 526.1 L692.8 526.1 L692.8 526.0 L692.9 526.0 L692.9 525.8 L692.9 525.7 L692.9 525.5 L692.9 525.3 L692.8 525.3 L692.6 525.3 L692.5 525.3 L692.3 525.3 L692.3 525.5 L692.2 525.5 L692.2 525.7 L692.0 525.7 L692.0 525.8 L691.9 525.8 L691.9 526.0 Z" fill="#2f8f83" fill-opacity="0.34" stroke="#0e5b52" stroke-width="1.6" />
  <path d="M689.1 526.8 L689.1 526.9 L689.1 527.1 L689.3 527.1 L689.4 527.1 L689.6 527.1 L689.7 527.1 L689.9 527.1 L690.0 527.1 L690.2 527.1 L690.3 527.1 L690.5 527.1 L690.6 527.1 L690.8 527.1 L690.9 527.1 L691.1 527.1 L691.3 527.1 L691.4 527.1 L691.6 527.1 L691.6 526.9 L691.6 526.8 L691.6 526.6 L691.4 526.6 L691.3 526.6 L691.1 526.6 L690.9 526.6 L690.8 526.6 L690.8 526.8 L690.6 526.8 L690.5 526.8 L690.5 526.6 L690.3 526.6 L690.2 526.6 L690.0 526.6 L689.9 526.6 L689.9 526.8 L689.7 526.8 L689.6 526.8 L689.6 526.6 L689.4 526.6 L689.4 526.8 L689.4 526.9 L689.3 526.9 L689.3 526.8 L689.3 526.6 L689.1 526.6 L689.1 526.8 Z" fill="#2f8f83" fill-opacity="0.34" stroke="#0e5b52" stroke-width="1.6" />
  <path d="M691.6 526.5 L691.6 526.6 L691.6 526.8 L691.6 526.9 L691.6 527.1 L691.7 527.1 L691.9 527.1 L691.9 526.9 L691.9 526.8 L691.9 526.6 L691.9 526.5 L691.9 526.3 L691.7 526.3 L691.6 526.3 L691.6 526.5 Z" fill="#2f8f83" fill-opacity="0.34" stroke="#0e5b52" stroke-width="1.6" />
  <path d="M690.6 526.6 L690.5 526.6 L690.5 526.8 L690.6 526.8 L690.8 526.8 L690.8 526.6 L690.6 526.6 Z" fill="#2f8f83" fill-opacity="0.34" stroke="#0e5b52" stroke-width="1.6" />
  <path d="M688.3 527.3 L688.3 527.4 L688.5 527.4 L688.7 527.4 L688.8 527.4 L689.0 527.4 L689.1 527.4 L689.3 527.4 L689.4 527.4 L689.6 527.4 L689.7 527.4 L689.9 527.4 L690.0 527.4 L690.2 527.4 L690.3 527.4 L690.5 527.4 L690.6 527.4 L690.8 527.4 L690.9 527.4 L691.1 527.4 L691.3 527.4 L691.4 527.4 L691.6 527.4 L691.7 527.4 L691.9 527.4 L692.0 527.4 L692.2 527.4 L692.3 527.4 L692.3 527.3 L692.5 527.3 L692.5 527.1 L692.6 527.1 L692.6 526.9 L692.8 526.9 L692.8 526.8 L692.9 526.8 L692.9 526.6 L692.9 526.5 L692.9 526.3 L692.9 526.1 L692.9 526.0 L692.8 526.0 L692.8 526.1 L692.6 526.1 L692.6 526.3 L692.5 526.3 L692.5 526.5 L692.3 526.5 L692.3 526.6 L692.2 526.6 L692.2 526.8 L692.0 526.8 L691.9 526.8 L691.9 526.9 L691.9 527.1 L691.7 527.1 L691.6 527.1 L691.4 527.1 L691.3 527.1 L691.1 527.1 L690.9 527.1 L690.8 527.1 L690.6 527.1 L690.5 527.1 L690.3 527.1 L690.2 527.1 L690.0 527.1 L689.9 527.1 L689.7 527.1 L689.6 527.1 L689.4 527.1 L689.3 527.1 L689.1 527.1 L689.0 527.1 L688.8 527.1 L688.7 527.1 L688.5 527.1 L688.3 527.1 L688.3 527.3 Z" fill="#2f8f83" fill-opacity="0.34" stroke="#0e5b52" stroke-width="1.6" />
  <path d="M688.3 526.8 L688.3 526.9 L688.3 527.1 L688.5 527.1 L688.7 527.1 L688.8 527.1 L689.0 527.1 L689.1 527.1 L689.1 526.9 L689.1 526.8 L689.1 526.6 L689.3 526.6 L689.4 526.6 L689.6 526.6 L689.7 526.6 L689.9 526.6 L690.0 526.6 L690.2 526.6 L690.3 526.6 L690.5 526.6 L690.6 526.6 L690.8 526.6 L690.9 526.6 L691.1 526.6 L691.3 526.6 L691.4 526.6 L691.6 526.6 L691.6 526.5 L691.6 526.3 L691.7 526.3 L691.9 526.3 L691.9 526.1 L691.9 526.0 L691.9 525.8 L692.0 525.8 L692.0 525.7 L691.9 525.7 L691.7 525.7 L691.6 525.7 L691.6 525.8 L691.6 526.0 L691.4 526.0 L691.3 526.0 L691.1 526.0 L690.9 526.0 L690.8 526.0 L690.8 526.1 L690.6 526.1 L690.5 526.1 L690.3 526.1 L690.2 526.1 L690.0 526.1 L689.9 526.1 L689.9 526.3 L689.9 526.5 L689.7 526.5 L689.6 526.5 L689.4 526.5 L689.3 526.5 L689.1 526.5 L689.0 526.5 L688.8 526.5 L688.8 526.6 L688.7 526.6 L688.5 526.6 L688.3 526.6 L688.3 526.8 Z" fill="#2f8f83" fill-opacity="0.34" stroke="#0e5b52" stroke-width="1.6" />
  <path d="M314.9 132.9 L315.0 132.9 L315.2 132.9 L315.2 133.1 L315.2 133.3 L315.2 133.5 L315.2 133.7 L315.3 133.7 L315.3 133.5 L315.5 133.5 L315.5 133.3 L315.6 133.3 L315.6 133.1 L315.8 133.1 L315.8 132.9 L315.8 132.7 L315.6 132.7 L315.6 132.5 L315.5 132.5 L315.3 132.5 L315.3 132.7 L315.2 132.7 L315.0 132.7 L314.9 132.7 L314.7 132.7 L314.7 132.9 L314.9 132.9 Z" fill="#2f8f83" fill-opacity="0.34" stroke="#0e5b52" stroke-width="1.6" />
  <path d="M315.5 133.9 L315.5 134.1 L315.6 134.1 L315.6 134.3 L315.6 134.5 L315.8 134.5 L315.9 134.5 L316.1 134.5 L316.2 134.5 L316.2 134.3 L316.4 134.3 L316.4 134.1 L316.4 133.9 L316.4 133.7 L316.2 133.7 L316.1 133.7 L315.9 133.7 L315.8 133.7 L315.6 133.7 L315.5 133.7 L315.5 133.9 Z" fill="#2f8f83" fill-opacity="0.34" stroke="#0e5b52" stroke-width="1.6" />
  <path d="M314.9 134.1 L314.9 134.3 L315.0 134.3 L315.2 134.3 L315.2 134.1 L315.2 133.9 L315.0 133.9 L314.9 133.9 L314.9 134.1 Z" fill="#2f8f83" fill-opacity="0.34" stroke="#0e5b52" stroke-width="1.6" />
  <path d="M315.2 134.1 L315.2 134.3 L315.3 134.3 L315.3 134.1 L315.5 134.1 L315.5 133.9 L315.5 133.7 L315.6 133.7 L315.8 133.7 L315.9 133.7 L316.1 133.7 L316.1 133.5 L316.2 133.5 L316.2 133.3 L316.1 133.3 L316.1 133.1 L316.1 132.9 L315.9 132.9 L315.9 132.7 L315.9 132.5 L315.8 132.5 L315.6 132.5 L315.6 132.7 L315.8 132.7 L315.8 132.9 L315.8 133.1 L315.6 133.1 L315.6 133.3 L315.5 133.3 L315.5 133.5 L315.3 133.5 L315.3 133.7 L315.2 133.7 L315.2 133.9 L315.2 134.1 Z" fill="#2f8f83" fill-opacity="0.34" stroke="#0e5b52" stroke-width="1.6" />
  <path d="M313.8 132.9 L313.8 133.1 L313.9 133.1 L314.1 133.1 L314.3 133.1 L314.4 133.1 L314.6 133.1 L314.6 132.9 L314.7 132.9 L314.7 132.7 L314.6 132.7 L314.4 132.7 L314.3 132.7 L314.1 132.7 L313.9 132.7 L313.8 132.7 L313.8 132.9 Z" fill="#2f8f83" fill-opacity="0.34" stroke="#0e5b52" stroke-width="1.6" />
  <path d="M313.2 127.1 L313.2 127.3 L313.3 127.3 L313.5 127.3 L313.6 127.3 L313.8 127.3 L313.9 127.3 L313.9 127.5 L313.9 127.7 L314.1 127.7 L314.3 127.7 L314.4 127.7 L314.6 127.7 L314.7 127.7 L314.7 127.5 L314.9 127.5 L315.0 127.5 L315.2 127.5 L315.2 127.3 L315.2 127.1 L315.2 126.9 L315.2 126.7 L315.0 126.7 L314.9 126.7 L314.7 126.7 L314.6 126.7 L314.4 126.7 L314.3 126.7 L314.1 126.7 L313.9 126.7 L313.8 126.7 L313.6 126.7 L313.5 126.7 L313.3 126.7 L313.2 126.7 L313.2 126.9 L313.2 127.1 Z" fill="#2f8f83" fill-opacity="0.34" stroke="#0e5b52" stroke-width="1.6" />
  <!-- title strip -->
  <rect x="0" y="0" width="1000" height="54" fill="#173042" />
  <text x="20" y="34" font-size="21" font-weight="bold" fill="#ffffff">Stuhini Exploration Ltd. — Mineral Claims</text>
  <text x="980" y="34" font-size="15" fill="#cfe3df" text-anchor="end">STU</text>
  <!-- scale bar -->
  <g transform="translate(910, 596)">
    <rect x="0" y="0" width="25" height="8" fill="#173042" />
    <rect x="25" y="0" width="25" height="8" fill="#ffffff" stroke="#173042" stroke-width="1" />
    <text x="25" y="-6" font-size="12" fill="#173042" text-anchor="middle">50 km</text>
  </g>
  <!-- north arrow -->
  <g transform="translate(956, 92)">
    <circle r="17" fill="#ffffff" stroke="#b9b09a" />
    <path d="M0 -10 L5 7 L0 3 L-5 7 Z" fill="#173042" />
    <text y="14" font-size="9" font-weight="bold" fill="#173042" text-anchor="middle">N</text>
  </g>
  <!-- watermark -->
  <text x="20" y="620" font-size="13" fill="#7d8b8a">Map by Exploration Maps — explorationmaps.com</text>
</svg>