<svg xmlns="http://www.w3.org/2000/svg" viewBox="0 0 1000 640" font-family="Arial, Helvetica, sans-serif">
  <rect width="1000" height="640" fill="#f3efe6" />
  <line x1="200" y1="0" x2="200" y2="640" stroke="#d9d2c0" stroke-width="0.7" />
  <line x1="0" y1="128" x2="1000" y2="128" stroke="#d9d2c0" stroke-width="0.7" />
  <line x1="400" y1="0" x2="400" y2="640" stroke="#d9d2c0" stroke-width="0.7" />
  <line x1="0" y1="256" x2="1000" y2="256" stroke="#d9d2c0" stroke-width="0.7" />
  <line x1="600" y1="0" x2="600" y2="640" stroke="#d9d2c0" stroke-width="0.7" />
  <line x1="0" y1="384" x2="1000" y2="384" stroke="#d9d2c0" stroke-width="0.7" />
  <line x1="800" y1="0" x2="800" y2="640" stroke="#d9d2c0" stroke-width="0.7" />
  <line x1="0" y1="512" x2="1000" y2="512" stroke="#d9d2c0" stroke-width="0.7" />
  <path d="M568.7 361.1 L569.2 360.7 L568.4 360.7 L568.2 360.7 L568.2 367.6 L568.2 367.6 L578.6 367.6 L589.0 367.6 L589.0 360.7 L582.3 360.7 L582.6 361.1 L580.4 362.8 L578.2 364.5 L576.5 362.3 L574.3 363.9 L572.6 361.7 L570.3 363.3 L568.7 361.1 Z" fill="#2f8f83" fill-opacity="0.34" stroke="#0e5b52" stroke-width="1.6" />
  <path d="M530.1 419.2 L530.1 422.4 L532.9 422.4 L535.8 422.4 L538.7 422.4 L538.7 419.2 L541.5 419.2 L541.5 416.0 L544.4 416.0 L544.4 412.8 L544.4 409.5 L547.2 409.5 L547.2 406.3 L544.4 406.3 L541.5 406.3 L538.7 406.3 L535.8 406.3 L532.9 406.3 L530.1 406.3 L530.1 409.5 L530.1 412.8 L530.1 416.0 L530.1 419.2 Z" fill="#2f8f83" fill-opacity="0.34" stroke="#0e5b52" stroke-width="1.6" />
  <path d="M521.5 428.8 L521.5 432.1 L524.3 432.1 L527.2 432.1 L530.1 432.1 L530.1 428.8 L530.1 425.6 L530.1 422.4 L530.1 419.2 L530.1 416.0 L530.1 412.8 L530.1 409.5 L530.1 406.3 L527.2 406.3 L524.3 406.3 L521.5 406.3 L521.5 409.5 L521.5 412.8 L521.5 416.0 L521.5 419.2 L521.5 422.4 L521.5 425.6 L521.5 428.8 Z" fill="#2f8f83" fill-opacity="0.34" stroke="#0e5b52" stroke-width="1.6" />
  <path d="M544.4 364.5 L547.2 364.5 L550.1 364.5 L553.0 364.5 L555.8 364.5 L558.7 364.5 L561.6 364.5 L564.4 364.5 L567.3 364.5 L567.3 361.3 L564.4 361.3 L564.4 358.0 L561.6 358.0 L558.7 358.0 L555.8 358.0 L553.0 358.0 L550.1 358.0 L547.2 358.0 L544.4 358.0 L544.4 361.3 L541.5 361.3 L541.5 364.5 L544.4 364.5 Z" fill="#2f8f83" fill-opacity="0.34" stroke="#0e5b52" stroke-width="1.6" />
  <path d="M590.2 383.8 L590.2 387.0 L593.0 387.0 L595.9 387.0 L598.8 387.0 L598.8 383.8 L598.8 380.6 L598.8 377.4 L598.8 374.1 L598.8 370.9 L598.8 367.7 L598.8 364.5 L598.8 361.3 L595.9 361.3 L593.0 361.3 L590.2 361.3 L590.2 364.5 L590.2 367.7 L590.2 370.9 L590.2 374.1 L590.2 377.4 L590.2 380.6 L590.2 383.8 Z" fill="#2f8f83" fill-opacity="0.34" stroke="#0e5b52" stroke-width="1.6" />
  <path d="M598.8 374.1 L598.8 377.4 L601.6 377.4 L604.5 377.4 L607.4 377.4 L610.2 377.4 L613.1 377.4 L613.1 374.1 L613.1 370.9 L613.1 367.7 L613.1 364.5 L613.1 361.3 L610.2 361.3 L607.4 361.3 L604.5 361.3 L601.6 361.3 L598.8 361.3 L598.8 364.5 L598.8 367.7 L598.8 370.9 L598.8 374.1 Z" fill="#2f8f83" fill-opacity="0.34" stroke="#0e5b52" stroke-width="1.6" />
  <path d="M524.3 403.1 L524.3 406.3 L527.2 406.3 L530.1 406.3 L532.9 406.3 L532.9 403.1 L532.9 399.9 L532.9 396.7 L532.9 393.5 L532.9 390.2 L532.9 387.0 L532.9 383.8 L532.9 380.6 L530.1 380.6 L527.2 380.6 L524.3 380.6 L524.3 383.8 L524.3 387.0 L524.3 390.2 L524.3 393.5 L524.3 396.7 L524.3 399.9 L524.3 403.1 Z" fill="#2f8f83" fill-opacity="0.34" stroke="#0e5b52" stroke-width="1.6" />
  <path d="M587.3 354.8 L587.3 358.0 L590.2 358.0 L590.2 361.3 L593.0 361.3 L595.9 361.3 L598.8 361.3 L601.6 361.3 L604.5 361.3 L607.4 361.3 L610.2 361.3 L613.1 361.3 L613.1 358.0 L613.1 354.8 L610.2 354.8 L610.2 351.6 L607.4 351.6 L604.5 351.6 L601.6 351.6 L598.8 351.6 L595.9 351.6 L593.0 351.6 L590.2 351.6 L587.3 351.6 L587.3 354.8 Z" fill="#2f8f83" fill-opacity="0.34" stroke="#0e5b52" stroke-width="1.6" />
  <path d="M515.7 435.3 L515.7 438.5 L518.6 438.5 L521.5 438.5 L524.3 438.5 L527.2 438.5 L530.1 438.5 L532.9 438.5 L532.9 435.3 L532.9 432.1 L532.9 428.8 L535.8 428.8 L535.8 425.6 L535.8 422.4 L532.9 422.4 L530.1 422.4 L530.1 425.6 L530.1 428.8 L530.1 432.1 L527.2 432.1 L524.3 432.1 L521.5 432.1 L521.5 428.8 L521.5 425.6 L521.5 422.4 L521.5 419.2 L518.6 419.2 L515.7 419.2 L515.7 422.4 L515.7 425.6 L515.7 428.8 L515.7 432.1 L515.7 435.3 Z" fill="#2f8f83" fill-opacity="0.34" stroke="#0e5b52" stroke-width="1.6" />
  <path d="M564.4 358.0 L567.3 358.0 L567.3 354.8 L570.1 354.8 L570.1 351.6 L573.0 351.6 L573.0 348.4 L575.9 348.4 L578.7 348.4 L581.6 348.4 L584.5 348.4 L584.5 351.6 L587.3 351.6 L590.2 351.6 L593.0 351.6 L595.9 351.6 L598.8 351.6 L601.6 351.6 L604.5 351.6 L604.5 348.4 L601.6 348.4 L598.8 348.4 L598.8 345.1 L595.9 345.1 L593.0 345.1 L590.2 345.1 L587.3 345.1 L584.5 345.1 L581.6 345.1 L578.7 345.1 L575.9 345.1 L573.0 345.1 L570.1 345.1 L567.3 345.1 L567.3 348.4 L564.4 348.4 L564.4 351.6 L564.4 354.8 L561.6 354.8 L561.6 358.0 L564.4 358.0 Z" fill="#2f8f83" fill-opacity="0.34" stroke="#0e5b52" stroke-width="1.6" />
  <path d="M532.9 390.2 L532.9 393.5 L535.8 393.5 L538.7 393.5 L541.5 393.5 L544.4 393.5 L547.2 393.5 L550.1 393.5 L553.0 393.5 L555.8 393.5 L558.7 393.5 L561.6 393.5 L564.4 393.5 L567.3 393.5 L567.3 390.2 L570.1 390.2 L570.1 387.0 L570.1 383.8 L570.1 380.6 L570.1 377.4 L567.3 377.4 L564.4 377.4 L561.6 377.4 L558.7 377.4 L555.8 377.4 L553.0 377.4 L550.1 377.4 L547.2 377.4 L544.4 377.4 L541.5 377.4 L538.6 377.4 L535.8 377.4 L532.9 377.4 L532.9 380.6 L532.9 383.8 L532.9 387.0 L532.9 390.2 Z" fill="#2f8f83" fill-opacity="0.34" stroke="#0e5b52" stroke-width="1.6" />
  <path d="M547.2 396.7 L547.2 399.9 L550.1 399.9 L553.0 399.9 L555.8 399.9 L558.7 399.9 L561.6 399.9 L564.4 399.9 L567.3 399.9 L567.3 396.7 L567.3 393.5 L564.4 393.5 L561.6 393.5 L558.7 393.5 L555.8 393.5 L553.0 393.5 L550.1 393.5 L547.2 393.5 L547.2 396.7 Z" fill="#2f8f83" fill-opacity="0.34" stroke="#0e5b52" stroke-width="1.6" />
  <path d="M535.8 374.1 L535.8 377.4 L538.6 377.4 L541.5 377.4 L544.4 377.4 L547.2 377.4 L550.1 377.4 L553.0 377.4 L555.8 377.4 L558.7 377.4 L561.6 377.4 L564.4 377.4 L567.3 377.4 L570.1 377.4 L570.1 374.1 L570.1 370.9 L570.1 367.7 L570.1 364.5 L567.3 364.5 L564.4 364.5 L561.6 364.5 L558.7 364.5 L555.8 364.5 L553.0 364.5 L550.1 364.5 L547.2 364.5 L544.4 364.5 L541.5 364.5 L538.6 364.5 L535.8 364.5 L535.8 367.7 L535.8 370.9 L535.8 374.1 Z" fill="#2f8f83" fill-opacity="0.34" stroke="#0e5b52" stroke-width="1.6" />
  <path d="M532.9 403.1 L532.9 406.3 L535.8 406.3 L538.7 406.3 L541.5 406.3 L544.4 406.3 L547.2 406.3 L550.1 406.3 L550.1 403.1 L550.1 399.9 L547.2 399.9 L547.2 396.7 L547.2 393.5 L544.4 393.5 L541.5 393.5 L538.7 393.5 L535.8 393.5 L532.9 393.5 L532.9 396.7 L532.9 399.9 L532.9 403.1 Z" fill="#2f8f83" fill-opacity="0.34" stroke="#0e5b52" stroke-width="1.6" />
  <path d="M567.3 393.5 L567.3 396.7 L570.1 396.7 L573.0 396.7 L575.9 396.7 L578.7 396.7 L578.7 393.5 L578.7 390.2 L578.7 387.0 L578.7 383.8 L578.7 380.6 L578.7 377.4 L578.7 374.1 L578.7 370.9 L578.7 367.7 L578.7 364.5 L575.9 364.5 L573.0 364.5 L570.1 364.5 L570.1 367.7 L570.1 370.9 L570.1 374.1 L570.1 377.4 L570.1 380.6 L570.1 383.8 L570.1 387.0 L570.1 390.2 L567.3 390.2 L567.3 393.5 Z" fill="#2f8f83" fill-opacity="0.34" stroke="#0e5b52" stroke-width="1.6" />
  <path d="M578.7 387.0 L578.7 390.2 L581.6 390.2 L584.5 390.2 L587.3 390.2 L590.2 390.2 L590.2 387.0 L590.2 383.8 L590.2 380.6 L590.2 377.4 L590.2 374.1 L590.2 370.9 L590.2 367.7 L590.2 364.5 L587.3 364.5 L584.5 364.5 L581.6 364.5 L578.7 364.5 L578.7 367.7 L578.7 370.9 L578.7 374.1 L578.7 377.4 L578.7 380.6 L578.7 383.8 L578.7 387.0 Z" fill="#2f8f83" fill-opacity="0.34" stroke="#0e5b52" stroke-width="1.6" />
  <path d="M587.3 361.3 L587.3 364.5 L590.2 364.5 L590.2 361.3 L590.2 358.0 L587.3 358.0 L584.5 358.0 L584.5 361.3 L587.3 361.3 Z" fill="#2f8f83" fill-opacity="0.34" stroke="#0e5b52" stroke-width="1.6" />
  <path d="M578.7 396.7 L578.7 399.9 L581.6 399.9 L584.5 399.9 L587.3 399.9 L590.2 399.9 L593.0 399.9 L595.9 399.9 L598.8 399.9 L598.8 396.7 L598.8 393.5 L598.8 390.2 L598.8 387.0 L595.9 387.0 L593.0 387.0 L590.2 387.0 L590.2 390.2 L587.3 390.2 L584.5 390.2 L581.6 390.2 L578.7 390.2 L578.7 393.5 L578.7 396.7 Z" fill="#2f8f83" fill-opacity="0.34" stroke="#0e5b52" stroke-width="1.6" />
  <path d="M352.6 390.2 L352.6 393.5 L355.4 393.5 L358.3 393.5 L361.1 393.5 L364.0 393.5 L366.9 393.5 L369.7 393.5 L369.7 390.2 L372.6 390.2 L375.5 390.2 L375.5 387.0 L375.5 383.8 L375.5 380.6 L375.5 377.4 L375.5 374.1 L375.5 370.9 L375.5 367.7 L375.5 364.5 L375.5 361.3 L375.5 358.0 L375.5 354.8 L372.6 354.8 L369.7 354.8 L366.9 354.8 L366.9 358.0 L366.9 361.3 L364.0 361.3 L361.1 361.3 L358.3 361.3 L355.4 361.3 L355.4 364.5 L352.5 364.5 L352.5 367.7 L352.5 370.9 L352.6 374.1 L352.6 377.4 L352.6 380.6 L352.6 383.8 L352.6 387.0 L352.6 390.2 Z" fill="#2f8f83" fill-opacity="0.34" stroke="#0e5b52" stroke-width="1.6" />
  <path d="M326.8 406.3 L326.8 409.6 L329.6 409.6 L332.5 409.6 L335.4 409.6 L335.4 406.3 L335.4 403.1 L335.4 399.9 L335.4 396.7 L338.2 396.7 L341.1 396.7 L344.0 396.7 L346.8 396.7 L349.7 396.7 L352.6 396.7 L352.6 393.5 L352.6 390.2 L352.6 387.0 L352.6 383.8 L352.6 380.6 L352.6 377.4 L352.6 374.1 L352.5 370.9 L352.5 367.7 L349.7 367.7 L349.7 370.9 L349.7 374.1 L346.8 374.1 L344.0 374.1 L344.0 377.4 L341.1 377.4 L338.2 377.4 L338.2 374.1 L335.4 374.1 L332.5 374.1 L329.6 374.1 L326.8 374.1 L326.8 377.4 L326.8 380.6 L326.8 383.8 L326.8 387.0 L326.8 390.2 L326.8 393.5 L326.8 396.7 L326.8 399.9 L326.8 403.1 L326.8 406.3 Z" fill="#2f8f83" fill-opacity="0.34" stroke="#0e5b52" stroke-width="1.6" />
  <path d="M306.7 403.1 L306.7 406.3 L309.6 406.3 L312.5 406.3 L312.5 403.1 L312.5 399.9 L315.3 399.9 L318.2 399.9 L318.2 396.7 L321.1 396.7 L323.9 396.7 L323.9 399.9 L323.9 403.1 L323.9 406.3 L323.9 409.6 L323.9 412.8 L323.9 416.0 L326.8 416.0 L329.6 416.0 L329.6 412.8 L329.6 409.6 L326.8 409.6 L326.8 406.3 L326.8 403.1 L326.8 399.9 L326.8 396.7 L326.8 393.5 L326.8 390.2 L326.8 387.0 L326.8 383.8 L326.8 380.6 L326.8 377.4 L326.8 374.1 L326.8 370.9 L323.9 370.9 L321.1 370.9 L321.1 374.1 L318.2 374.1 L318.2 377.4 L315.3 377.4 L315.3 380.6 L315.3 383.8 L312.5 383.8 L312.5 387.0 L312.5 390.2 L309.6 390.2 L309.6 393.5 L306.7 393.5 L306.7 396.7 L306.7 399.9 L306.7 403.1 Z" fill="#2f8f83" fill-opacity="0.34" stroke="#0e5b52" stroke-width="1.6" />
  <path d="M469.9 380.6 L469.9 383.8 L472.8 383.8 L475.7 383.8 L475.7 380.6 L478.5 380.6 L481.4 380.6 L481.4 377.4 L478.5 377.4 L475.7 377.4 L472.8 377.4 L469.9 377.4 L469.9 380.6 Z" fill="#2f8f83" fill-opacity="0.34" stroke="#0e5b52" stroke-width="1.6" />
  <path d="M475.7 396.7 L475.7 399.9 L478.5 399.9 L481.4 399.9 L481.4 396.7 L481.4 393.5 L481.4 390.2 L481.4 387.0 L484.3 387.0 L484.3 383.8 L484.3 380.6 L481.4 380.6 L478.5 380.6 L475.7 380.6 L475.7 383.8 L475.7 387.0 L475.7 390.2 L475.7 393.5 L475.7 396.7 Z" fill="#2f8f83" fill-opacity="0.34" stroke="#0e5b52" stroke-width="1.6" />
  <path d="M598.8 345.1 L598.8 348.4 L601.6 348.4 L604.5 348.4 L604.5 351.6 L607.4 351.6 L610.2 351.6 L613.1 351.6 L616.0 351.6 L618.8 351.6 L621.7 351.6 L621.7 348.4 L618.8 348.4 L618.8 345.1 L621.7 345.1 L621.7 341.9 L621.7 338.7 L621.7 335.5 L618.8 335.5 L616.0 335.5 L616.0 338.7 L616.0 341.9 L613.1 341.9 L610.2 341.9 L607.4 341.9 L604.5 341.9 L601.6 341.9 L598.8 341.9 L598.8 345.1 Z" fill="#2f8f83" fill-opacity="0.34" stroke="#0e5b52" stroke-width="1.6" />
  <path d="M587.3 341.9 L587.3 345.1 L590.2 345.1 L593.0 345.1 L595.9 345.1 L598.8 345.1 L598.8 341.9 L601.6 341.9 L604.5 341.9 L607.4 341.9 L610.2 341.9 L613.1 341.9 L616.0 341.9 L616.0 338.7 L616.0 335.5 L613.1 335.5 L610.2 335.5 L607.4 335.5 L604.5 335.5 L601.6 335.5 L598.8 335.5 L595.9 335.5 L593.0 335.5 L593.0 338.7 L590.2 338.7 L587.3 338.7 L587.3 341.9 Z" fill="#2f8f83" fill-opacity="0.34" stroke="#0e5b52" stroke-width="1.6" />
  <path d="M573.0 345.1 L575.9 345.1 L578.7 345.1 L581.6 345.1 L584.5 345.1 L587.3 345.1 L587.3 341.9 L587.3 338.7 L584.5 338.7 L581.6 338.7 L578.7 338.7 L578.7 341.9 L575.9 341.9 L573.0 341.9 L570.1 341.9 L570.1 345.1 L573.0 345.1 Z" fill="#2f8f83" fill-opacity="0.34" stroke="#0e5b52" stroke-width="1.6" />
  <path d="M598.8 390.2 L598.8 393.5 L601.6 393.5 L604.5 393.5 L607.4 393.5 L610.2 393.5 L613.1 393.5 L613.1 390.2 L613.1 387.0 L613.1 383.8 L613.1 380.6 L613.1 377.4 L610.2 377.4 L607.4 377.4 L604.5 377.4 L601.6 377.4 L598.8 377.4 L598.8 380.6 L598.8 383.8 L598.8 387.0 L598.8 390.2 Z" fill="#2f8f83" fill-opacity="0.34" stroke="#0e5b52" stroke-width="1.6" />
  <path d="M598.8 406.3 L598.8 409.5 L601.6 409.5 L604.5 409.5 L607.4 409.5 L610.2 409.5 L613.1 409.5 L613.1 406.3 L613.1 403.1 L613.1 399.9 L613.1 396.7 L613.1 393.5 L610.2 393.5 L607.4 393.5 L604.5 393.5 L601.6 393.5 L598.8 393.5 L598.8 396.7 L598.8 399.9 L598.8 403.1 L598.8 406.3 Z" fill="#2f8f83" fill-opacity="0.34" stroke="#0e5b52" stroke-width="1.6" />
  <path d="M578.7 409.5 L578.7 412.8 L581.6 412.8 L584.5 412.8 L587.3 412.8 L590.2 412.8 L590.2 416.0 L593.1 416.0 L595.9 416.0 L595.9 412.8 L595.9 409.5 L598.8 409.5 L598.8 406.3 L598.8 403.1 L598.8 399.9 L595.9 399.9 L593.0 399.9 L590.2 399.9 L587.3 399.9 L584.5 399.9 L584.5 403.1 L584.5 406.3 L581.6 406.3 L578.7 406.3 L578.7 409.5 Z" fill="#2f8f83" fill-opacity="0.34" stroke="#0e5b52" stroke-width="1.6" />
  <path d="M398.4 332.3 L401.2 332.3 L404.1 332.3 L406.9 332.3 L406.9 335.5 L406.9 338.7 L404.1 338.7 L401.2 338.7 L401.2 341.9 L401.2 345.1 L404.1 345.1 L406.9 345.1 L409.8 345.1 L412.7 345.1 L415.5 345.1 L418.4 345.1 L421.3 345.1 L424.1 345.1 L424.1 348.4 L427.0 348.4 L429.9 348.4 L432.7 348.4 L435.6 348.4 L438.4 348.4 L441.3 348.4 L444.2 348.4 L447.0 348.4 L449.9 348.4 L452.8 348.4 L455.6 348.4 L458.5 348.4 L461.3 348.4 L464.2 348.4 L464.2 345.1 L461.3 345.1 L461.3 341.9 L458.5 341.9 L455.6 341.9 L452.8 341.9 L449.9 341.9 L449.9 338.7 L447.0 338.7 L447.0 335.5 L444.2 335.5 L441.3 335.5 L441.3 332.3 L438.4 332.3 L435.6 332.3 L435.6 329.0 L432.7 329.0 L429.9 329.0 L427.0 329.0 L424.1 329.0 L424.1 325.8 L421.3 325.8 L418.4 325.8 L415.5 325.8 L412.7 325.8 L409.8 325.8 L406.9 325.8 L404.1 325.8 L401.2 325.8 L401.2 329.0 L398.4 329.0 L395.5 329.0 L395.5 332.3 L398.4 332.3 Z" fill="#2f8f83" fill-opacity="0.34" stroke="#0e5b52" stroke-width="1.6" />
  <path d="M507.2 241.8 L507.2 245.1 L510.0 245.1 L512.9 245.1 L515.7 245.1 L518.6 245.1 L521.5 245.1 L524.3 245.1 L527.2 245.1 L530.1 245.1 L532.9 245.1 L535.8 245.1 L538.6 245.1 L541.5 245.1 L544.4 245.1 L547.2 245.1 L550.1 245.1 L553.0 245.1 L555.8 245.1 L558.7 245.1 L558.7 241.8 L558.7 238.6 L558.7 235.4 L558.7 232.1 L558.7 228.9 L558.7 225.7 L558.7 222.4 L555.8 222.4 L553.0 222.4 L550.1 222.4 L547.2 222.4 L544.4 222.4 L541.5 222.4 L538.6 222.4 L535.8 222.4 L532.9 222.4 L530.1 222.4 L527.2 222.4 L527.2 225.7 L524.3 225.7 L521.5 225.7 L521.5 228.9 L521.5 232.1 L521.5 235.4 L518.6 235.4 L518.6 238.6 L515.7 238.6 L512.9 238.6 L510.0 238.6 L507.2 238.6 L507.2 241.8 Z" fill="#2f8f83" fill-opacity="0.34" stroke="#0e5b52" stroke-width="1.6" />
  <path d="M507.2 274.2 L507.2 277.4 L510.0 277.4 L512.9 277.4 L515.7 277.4 L518.6 277.4 L521.5 277.4 L524.3 277.4 L527.2 277.4 L530.1 277.4 L532.9 277.4 L535.8 277.4 L535.8 274.2 L535.8 270.9 L535.8 267.7 L535.8 264.5 L535.8 261.2 L535.8 258.0 L535.8 254.8 L535.8 251.5 L535.8 248.3 L535.8 245.1 L532.9 245.1 L530.1 245.1 L527.2 245.1 L524.3 245.1 L521.5 245.1 L518.6 245.1 L515.7 245.1 L512.9 245.1 L510.0 245.1 L507.2 245.1 L507.2 248.3 L507.2 251.5 L507.2 254.8 L507.2 258.0 L507.2 261.2 L507.2 264.5 L507.2 267.7 L507.2 270.9 L507.2 274.2 Z" fill="#2f8f83" fill-opacity="0.34" stroke="#0e5b52" stroke-width="1.6" />
  <path d="M535.8 274.2 L535.8 277.4 L538.6 277.4 L541.5 277.4 L544.4 277.4 L547.2 277.4 L547.2 274.2 L547.2 270.9 L547.2 267.7 L547.2 264.5 L547.2 261.2 L547.2 258.0 L550.1 258.0 L553.0 258.0 L555.8 258.0 L558.7 258.0 L561.6 258.0 L561.6 254.8 L561.6 251.5 L561.6 248.3 L561.6 245.1 L558.7 245.1 L555.8 245.1 L553.0 245.1 L550.1 245.1 L547.2 245.1 L544.4 245.1 L541.5 245.1 L538.6 245.1 L535.8 245.1 L535.8 248.3 L535.8 251.5 L535.8 254.8 L535.8 258.0 L535.8 261.2 L535.8 264.5 L535.8 267.7 L535.8 270.9 L535.8 274.2 Z" fill="#2f8f83" fill-opacity="0.34" stroke="#0e5b52" stroke-width="1.6" />
  <path d="M593.0 332.2 L593.0 335.5 L595.9 335.5 L598.8 335.5 L601.6 335.5 L604.5 335.5 L607.4 335.5 L610.2 335.5 L613.1 335.5 L616.0 335.5 L616.0 332.2 L616.0 329.0 L618.8 329.0 L621.7 329.0 L624.5 329.0 L627.4 329.0 L630.3 329.0 L633.1 329.0 L633.1 325.8 L633.1 322.6 L633.1 319.3 L633.1 316.1 L633.1 312.9 L633.1 309.7 L633.1 306.4 L630.3 306.4 L627.4 306.4 L627.4 309.7 L627.4 312.9 L627.4 316.1 L624.5 316.1 L621.7 316.1 L618.8 316.1 L616.0 316.1 L616.0 319.3 L616.0 322.6 L613.1 322.6 L610.2 322.6 L610.2 325.8 L607.4 325.8 L604.5 325.8 L601.6 325.8 L598.8 325.8 L595.9 325.8 L593.0 325.8 L593.0 329.0 L593.0 332.2 Z" fill="#2f8f83" fill-opacity="0.34" stroke="#0e5b52" stroke-width="1.6" />
  <path d="M424.1 212.7 L424.1 216.0 L427.0 216.0 L429.9 216.0 L432.7 216.0 L432.7 219.2 L432.7 222.4 L435.6 222.4 L438.4 222.4 L441.3 222.4 L444.2 222.4 L447.0 222.4 L447.0 219.2 L447.0 216.0 L444.2 216.0 L444.2 212.7 L444.2 209.5 L447.0 209.5 L449.9 209.5 L452.8 209.5 L455.6 209.5 L458.5 209.5 L458.5 206.2 L458.5 203.0 L458.5 199.8 L458.5 196.5 L458.5 193.3 L458.5 190.1 L455.6 190.1 L452.8 190.1 L449.9 190.1 L447.0 190.1 L444.2 190.1 L441.3 190.1 L438.4 190.1 L435.6 190.1 L432.7 190.1 L429.9 190.1 L427.0 190.1 L424.1 190.1 L424.1 193.3 L424.1 196.5 L424.1 199.8 L424.1 203.0 L424.1 206.2 L424.1 209.5 L424.1 212.7 Z" fill="#2f8f83" fill-opacity="0.34" stroke="#0e5b52" stroke-width="1.6" />
  <path d="M404.1 216.0 L406.9 216.0 L409.8 216.0 L412.7 216.0 L415.5 216.0 L418.4 216.0 L421.3 216.0 L424.1 216.0 L424.1 212.7 L424.1 209.5 L424.1 206.2 L424.1 203.0 L424.1 199.8 L424.1 196.5 L424.1 193.3 L424.1 190.1 L421.3 190.1 L418.4 190.1 L415.5 190.1 L412.7 190.1 L412.7 193.3 L412.7 196.5 L409.8 196.5 L409.8 199.8 L406.9 199.8 L406.9 203.0 L406.9 206.2 L404.1 206.2 L404.1 209.5 L404.1 212.7 L401.2 212.7 L401.2 216.0 L404.1 216.0 Z" fill="#2f8f83" fill-opacity="0.34" stroke="#0e5b52" stroke-width="1.6" />
  <path d="M344.0 322.6 L344.0 325.8 L346.8 325.8 L346.8 329.0 L346.8 332.3 L346.8 335.5 L346.8 338.7 L346.8 341.9 L346.8 345.2 L349.7 345.2 L352.5 345.2 L355.4 345.2 L358.3 345.2 L361.1 345.2 L364.0 345.2 L366.9 345.1 L366.9 341.9 L366.9 338.7 L369.7 338.7 L372.6 338.7 L375.5 338.7 L378.3 338.7 L378.3 335.5 L381.2 335.5 L381.2 332.3 L381.2 329.0 L381.2 325.8 L381.2 322.6 L381.2 319.4 L381.2 316.1 L378.3 316.1 L375.5 316.1 L372.6 316.1 L369.7 316.1 L366.9 316.1 L364.0 316.1 L361.1 316.1 L358.3 316.1 L355.4 316.1 L352.5 316.1 L349.7 316.1 L346.8 316.1 L344.0 316.1 L344.0 319.4 L344.0 322.6 Z" fill="#2f8f83" fill-opacity="0.34" stroke="#0e5b52" stroke-width="1.6" />
  <path d="M472.8 354.8 L475.7 354.8 L478.5 354.8 L478.5 351.6 L475.7 351.6 L472.8 351.6 L469.9 351.6 L469.9 354.8 L472.8 354.8 Z" fill="#2f8f83" fill-opacity="0.34" stroke="#0e5b52" stroke-width="1.6" />
  <path d="M555.8 341.9 L555.8 345.1 L558.7 345.1 L561.6 345.1 L564.4 345.1 L567.3 345.1 L570.1 345.1 L570.1 341.9 L573.0 341.9 L575.9 341.9 L578.7 341.9 L578.7 338.7 L581.6 338.7 L584.5 338.7 L587.3 338.7 L590.2 338.7 L593.0 338.7 L593.0 335.5 L593.0 332.2 L593.0 329.0 L590.2 329.0 L590.2 332.2 L587.3 332.2 L584.5 332.2 L581.6 332.2 L578.7 332.2 L575.9 332.2 L573.0 332.2 L570.1 332.2 L567.3 332.2 L567.3 335.5 L564.4 335.5 L561.6 335.5 L558.7 335.5 L555.8 335.5 L555.8 338.7 L555.8 341.9 Z" fill="#2f8f83" fill-opacity="0.34" stroke="#0e5b52" stroke-width="1.6" />
  <path d="M538.6 364.5 L541.5 364.5 L541.5 361.3 L538.6 361.3 L535.8 361.3 L535.8 364.5 L538.6 364.5 Z" fill="#2f8f83" fill-opacity="0.34" stroke="#0e5b52" stroke-width="1.6" />
  <path d="M504.3 370.9 L504.3 374.1 L507.2 374.1 L510.0 374.1 L512.9 374.1 L515.7 374.1 L518.6 374.1 L521.5 374.1 L524.3 374.1 L527.2 374.1 L530.1 374.1 L532.9 374.1 L535.8 374.1 L535.8 370.9 L535.8 367.7 L532.9 367.7 L530.1 367.7 L527.2 367.7 L524.3 367.7 L521.5 367.7 L518.6 367.7 L515.7 367.7 L512.9 367.7 L510.0 367.7 L507.2 367.7 L504.3 367.7 L501.4 367.7 L501.4 370.9 L504.3 370.9 Z" fill="#2f8f83" fill-opacity="0.34" stroke="#0e5b52" stroke-width="1.6" />
  <path d="M469.9 432.1 L472.8 432.1 L475.7 432.1 L478.5 432.1 L481.4 432.1 L484.3 432.1 L487.1 432.1 L490.0 432.1 L490.0 428.8 L492.8 428.8 L495.7 428.8 L495.7 425.6 L498.6 425.6 L501.4 425.6 L504.3 425.6 L504.3 422.4 L504.3 419.2 L507.2 419.2 L507.2 416.0 L510.0 416.0 L510.0 412.8 L512.9 412.8 L512.9 409.5 L512.9 406.3 L510.0 406.3 L507.2 406.3 L504.3 406.3 L504.3 403.1 L501.4 403.1 L498.6 403.1 L495.7 403.1 L492.8 403.1 L490.0 403.1 L487.1 403.1 L484.3 403.1 L481.4 403.1 L478.5 403.1 L475.7 403.1 L475.7 406.3 L475.7 409.5 L475.7 412.8 L475.7 416.0 L472.8 416.0 L472.8 419.2 L472.8 422.4 L472.8 425.6 L472.8 428.8 L469.9 428.8 L467.1 428.8 L467.1 432.1 L469.9 432.1 Z" fill="#2f8f83" fill-opacity="0.34" stroke="#0e5b52" stroke-width="1.6" />
  <path d="M455.6 380.6 L458.5 380.6 L461.3 380.6 L464.2 380.6 L467.1 380.6 L467.1 383.8 L469.9 383.8 L469.9 380.6 L469.9 377.4 L467.1 377.4 L464.2 377.4 L461.3 377.4 L458.5 377.4 L455.6 377.4 L452.8 377.4 L452.8 380.6 L455.6 380.6 Z" fill="#2f8f83" fill-opacity="0.34" stroke="#0e5b52" stroke-width="1.6" />
  <path d="M578.7 441.7 L578.7 444.9 L581.6 444.9 L581.6 441.7 L581.6 438.5 L578.7 438.5 L578.7 441.7 Z" fill="#2f8f83" fill-opacity="0.34" stroke="#0e5b52" stroke-width="1.6" />
  <path d="M547.2 358.0 L550.1 358.0 L553.0 358.0 L555.8 358.0 L558.7 358.0 L561.6 358.0 L561.6 354.8 L564.4 354.8 L564.4 351.6 L564.4 348.4 L567.3 348.4 L567.3 345.1 L564.4 345.1 L561.6 345.1 L558.7 345.1 L555.8 345.1 L555.8 348.4 L553.0 348.4 L550.1 348.4 L547.2 348.4 L547.2 351.6 L547.2 354.8 L544.4 354.8 L544.4 358.0 L547.2 358.0 Z" fill="#2f8f83" fill-opacity="0.34" stroke="#0e5b52" stroke-width="1.6" />
  <path d="M481.4 358.0 L484.3 358.0 L484.3 361.3 L487.1 361.3 L490.0 361.3 L492.8 361.3 L492.8 358.0 L490.0 358.0 L487.1 358.0 L487.1 354.8 L484.3 354.8 L481.4 354.8 L478.5 354.8 L478.5 358.0 L481.4 358.0 Z" fill="#2f8f83" fill-opacity="0.34" stroke="#0e5b52" stroke-width="1.6" />
  <path d="M415.5 396.7 L415.5 399.9 L418.4 399.9 L421.3 399.9 L421.3 403.1 L421.3 406.3 L424.1 406.3 L427.0 406.3 L429.9 406.3 L432.7 406.3 L435.6 406.3 L438.4 406.3 L441.3 406.3 L444.2 406.3 L447.0 406.3 L449.9 406.3 L452.8 406.3 L452.8 403.1 L452.8 399.9 L452.8 396.7 L452.8 393.5 L452.8 390.2 L452.8 387.0 L452.8 383.8 L452.8 380.6 L449.9 380.6 L447.0 380.6 L444.2 380.6 L441.3 380.6 L438.4 380.6 L435.6 380.6 L432.7 380.6 L429.9 380.6 L427.0 380.6 L424.1 380.6 L421.3 380.6 L418.4 380.6 L415.5 380.6 L415.5 383.8 L415.5 387.0 L415.5 390.2 L415.5 393.5 L415.5 396.7 Z" fill="#2f8f83" fill-opacity="0.34" stroke="#0e5b52" stroke-width="1.6" />
  <path d="M550.1 441.7 L550.1 444.9 L553.0 444.9 L555.8 444.9 L558.7 444.9 L558.7 441.7 L558.7 438.5 L558.7 435.3 L558.7 432.1 L558.7 428.8 L555.8 428.8 L553.0 428.8 L550.1 428.8 L550.1 432.1 L550.1 435.3 L550.1 438.5 L550.1 441.7 Z" fill="#2f8f83" fill-opacity="0.34" stroke="#0e5b52" stroke-width="1.6" />
  <path d="M570.1 435.3 L570.1 438.5 L573.0 438.5 L575.9 438.5 L578.7 438.5 L581.6 438.5 L581.6 435.3 L581.6 432.1 L581.6 428.8 L578.7 428.8 L575.9 428.8 L573.0 428.8 L570.1 428.8 L570.1 432.1 L570.1 435.3 Z" fill="#2f8f83" fill-opacity="0.34" stroke="#0e5b52" stroke-width="1.6" />
  <path d="M567.3 435.3 L564.4 435.3 L564.4 438.5 L567.3 438.5 L567.3 435.3 Z" fill="#2f8f83" fill-opacity="0.34" stroke="#0e5b52" stroke-width="1.6" />
  <path d="M567.3 441.7 L567.3 444.9 L570.1 444.9 L570.1 441.7 L570.1 438.5 L567.3 438.5 L567.3 441.7 Z" fill="#2f8f83" fill-opacity="0.34" stroke="#0e5b52" stroke-width="1.6" />
  <path d="M570.1 435.3 L567.3 435.3 L567.3 438.5 L570.1 438.5 L570.1 435.3 Z" fill="#2f8f83" fill-opacity="0.34" stroke="#0e5b52" stroke-width="1.6" />
  <path d="M501.4 361.3 L498.6 361.3 L498.6 364.5 L501.4 364.5 L501.4 361.3 Z" fill="#2f8f83" fill-opacity="0.34" stroke="#0e5b52" stroke-width="1.6" />
  <path d="M601.6 422.4 L601.6 425.6 L604.5 425.6 L607.4 425.6 L610.2 425.6 L610.2 422.4 L610.2 419.2 L607.4 419.2 L604.5 419.2 L604.5 416.0 L604.5 412.8 L601.6 412.8 L601.6 416.0 L601.6 419.2 L601.6 422.4 Z" fill="#2f8f83" fill-opacity="0.34" stroke="#0e5b52" stroke-width="1.6" />
  <path d="M515.7 454.6 L515.7 457.8 L518.6 457.8 L521.5 457.8 L521.5 454.6 L524.3 454.6 L527.2 454.6 L530.1 454.6 L532.9 454.6 L532.9 451.3 L535.8 451.3 L538.7 451.3 L541.5 451.3 L541.5 448.1 L544.4 448.1 L547.2 448.1 L550.1 448.1 L550.1 444.9 L550.1 441.7 L550.1 438.5 L550.1 435.3 L550.1 432.1 L550.1 428.8 L550.1 425.6 L547.2 425.6 L544.4 425.6 L541.5 425.6 L538.7 425.6 L538.7 422.4 L535.8 422.4 L535.8 425.6 L535.8 428.8 L532.9 428.8 L532.9 432.1 L532.9 435.3 L532.9 438.5 L530.1 438.5 L527.2 438.5 L524.3 438.5 L521.5 438.5 L518.6 438.5 L515.7 438.5 L515.7 441.7 L515.7 444.9 L515.7 448.1 L515.7 451.3 L515.7 454.6 Z" fill="#2f8f83" fill-opacity="0.34" stroke="#0e5b52" stroke-width="1.6" />
  <path d="M492.8 364.5 L492.8 367.7 L495.7 367.7 L498.6 367.7 L501.4 367.7 L501.4 364.5 L498.6 364.5 L498.6 361.3 L495.7 361.3 L492.8 361.3 L492.8 364.5 Z" fill="#2f8f83" fill-opacity="0.34" stroke="#0e5b52" stroke-width="1.6" />
  <path d="M478.5 354.8 L475.7 354.8 L475.7 358.0 L478.5 358.0 L478.5 354.8 Z" fill="#2f8f83" fill-opacity="0.34" stroke="#0e5b52" stroke-width="1.6" />
  <path d="M469.9 351.6 L467.1 351.6 L467.1 354.8 L469.9 354.8 L469.9 351.6 Z" fill="#2f8f83" fill-opacity="0.34" stroke="#0e5b52" stroke-width="1.6" />
  <path d="M598.8 422.4 L598.8 425.6 L601.6 425.6 L601.6 422.4 L601.6 419.2 L601.6 416.0 L601.6 412.8 L604.5 412.8 L607.4 412.8 L610.2 412.8 L610.2 416.0 L610.2 419.2 L610.2 422.4 L610.2 425.6 L613.1 425.6 L613.1 422.4 L613.1 419.2 L613.1 416.0 L613.1 412.8 L613.1 409.5 L610.2 409.5 L607.4 409.5 L604.5 409.5 L601.6 409.5 L598.8 409.5 L598.8 412.8 L598.8 416.0 L598.8 419.2 L598.8 422.4 Z" fill="#2f8f83" fill-opacity="0.34" stroke="#0e5b52" stroke-width="1.6" />
  <path d="M607.4 416.0 L607.4 419.2 L610.2 419.2 L610.2 416.0 L610.2 412.8 L607.4 412.8 L607.4 416.0 Z" fill="#2f8f83" fill-opacity="0.34" stroke="#0e5b52" stroke-width="1.6" />
  <path d="M570.1 448.1 L573.0 448.1 L575.9 448.1 L578.7 448.1 L581.6 448.1 L581.6 444.9 L578.7 444.9 L578.7 441.7 L578.7 438.5 L575.9 438.5 L573.0 438.5 L570.1 438.5 L570.1 441.7 L570.1 444.9 L567.3 444.9 L567.3 448.1 L570.1 448.1 Z" fill="#2f8f83" fill-opacity="0.34" stroke="#0e5b52" stroke-width="1.6" />
  <path d="M481.4 364.5 L484.3 364.5 L484.3 367.7 L487.1 367.7 L487.1 370.9 L490.0 370.9 L490.0 374.1 L492.8 374.1 L495.7 374.1 L498.6 374.1 L501.4 374.1 L504.3 374.1 L504.3 370.9 L501.4 370.9 L501.4 367.7 L498.6 367.7 L495.7 367.7 L492.8 367.7 L492.8 364.5 L492.8 361.3 L490.0 361.3 L487.1 361.3 L484.3 361.3 L484.3 358.0 L481.4 358.0 L478.5 358.0 L478.5 361.3 L481.4 361.3 L481.4 364.5 Z" fill="#2f8f83" fill-opacity="0.34" stroke="#0e5b52" stroke-width="1.6" />
  <path d="M604.5 416.0 L604.5 419.2 L607.4 419.2 L607.4 416.0 L607.4 412.8 L604.5 412.8 L604.5 416.0 Z" fill="#2f8f83" fill-opacity="0.34" stroke="#0e5b52" stroke-width="1.6" />
  <path d="M616.0 332.2 L616.0 335.5 L618.8 335.5 L621.7 335.5 L621.7 338.7 L621.7 341.9 L621.7 345.1 L624.5 345.1 L627.4 345.1 L630.3 345.1 L633.1 345.1 L636.0 345.1 L636.0 348.4 L638.9 348.4 L641.7 348.4 L641.7 345.1 L644.6 345.1 L647.4 345.1 L647.4 348.4 L647.4 351.6 L650.3 351.6 L650.3 348.4 L653.2 348.4 L653.2 345.1 L653.2 341.9 L653.2 338.7 L653.2 335.5 L656.0 335.5 L658.9 335.5 L661.8 335.5 L664.6 335.5 L667.5 335.5 L667.5 332.2 L667.5 329.0 L667.5 325.8 L667.5 322.6 L664.6 322.6 L661.8 322.6 L658.9 322.6 L656.0 322.6 L653.2 322.6 L653.2 319.3 L650.3 319.3 L647.4 319.3 L647.4 322.6 L644.6 322.6 L641.7 322.6 L638.9 322.6 L636.0 322.6 L633.1 322.6 L633.1 325.8 L633.1 329.0 L630.3 329.0 L627.4 329.0 L624.5 329.0 L621.7 329.0 L618.8 329.0 L616.0 329.0 L616.0 332.2 Z" fill="#2f8f83" fill-opacity="0.34" stroke="#0e5b52" stroke-width="1.6" />
  <path d="M315.3 406.3 L315.3 409.6 L318.2 409.6 L321.1 409.6 L321.1 406.3 L321.1 403.1 L321.1 399.9 L318.2 399.9 L315.3 399.9 L315.3 403.1 L315.3 406.3 Z" fill="#2f8f83" fill-opacity="0.34" stroke="#0e5b52" stroke-width="1.6" />
  <path d="M312.5 409.6 L312.5 412.8 L315.3 412.8 L318.2 412.8 L318.2 416.0 L321.1 416.0 L323.9 416.0 L323.9 412.8 L323.9 409.6 L323.9 406.3 L323.9 403.1 L323.9 399.9 L323.9 396.7 L321.1 396.7 L318.2 396.7 L318.2 399.9 L321.1 399.9 L321.1 403.1 L321.1 406.3 L321.1 409.6 L318.2 409.6 L315.3 409.6 L315.3 406.3 L315.3 403.1 L315.3 399.9 L312.5 399.9 L312.5 403.1 L312.5 406.3 L312.5 409.6 Z" fill="#2f8f83" fill-opacity="0.34" stroke="#0e5b52" stroke-width="1.6" />
  <path d="M558.7 435.3 L558.7 438.5 L561.6 438.5 L564.4 438.5 L564.4 435.3 L564.4 432.1 L564.4 428.8 L561.6 428.8 L558.7 428.8 L558.7 432.1 L558.7 435.3 Z" fill="#2f8f83" fill-opacity="0.34" stroke="#0e5b52" stroke-width="1.6" />
  <path d="M550.1 425.6 L550.1 428.8 L553.0 428.8 L555.8 428.8 L558.7 428.8 L561.6 428.8 L564.4 428.8 L567.3 428.8 L567.3 425.6 L567.3 422.4 L564.4 422.4 L561.6 422.4 L558.7 422.4 L555.8 422.4 L553.0 422.4 L550.1 422.4 L550.1 425.6 Z" fill="#2f8f83" fill-opacity="0.34" stroke="#0e5b52" stroke-width="1.6" />
  <path d="M690.4 409.5 L690.4 412.8 L693.3 412.8 L696.1 412.8 L696.1 409.5 L696.1 406.3 L693.3 406.3 L690.4 406.3 L690.4 409.5 Z" fill="#2f8f83" fill-opacity="0.34" stroke="#0e5b52" stroke-width="1.6" />
  <path d="M564.4 432.1 L564.4 435.3 L567.3 435.3 L570.1 435.3 L570.1 432.1 L570.1 428.8 L567.3 428.8 L564.4 428.8 L564.4 432.1 Z" fill="#2f8f83" fill-opacity="0.34" stroke="#0e5b52" stroke-width="1.6" />
  <path d="M567.3 451.3 L567.3 454.5 L570.1 454.5 L573.0 454.5 L575.9 454.5 L575.9 457.8 L575.9 461.0 L578.7 461.0 L581.6 461.0 L584.5 461.0 L584.5 457.8 L584.5 454.5 L584.5 451.3 L584.5 448.1 L581.6 448.1 L578.7 448.1 L575.9 448.1 L573.0 448.1 L570.1 448.1 L567.3 448.1 L567.3 451.3 Z" fill="#2f8f83" fill-opacity="0.34" stroke="#0e5b52" stroke-width="1.6" />
  <path d="M484.2 277.4 L487.1 277.4 L490.0 277.4 L492.8 277.4 L495.7 277.4 L498.6 277.4 L501.4 277.4 L504.3 277.4 L507.2 277.4 L507.2 274.2 L507.2 270.9 L507.2 267.7 L507.2 264.5 L507.2 261.2 L507.2 258.0 L507.2 254.8 L507.2 251.5 L507.2 248.3 L504.3 248.3 L501.4 248.3 L498.6 248.3 L495.7 248.3 L492.8 248.3 L492.8 251.5 L492.8 254.8 L492.8 258.0 L490.0 258.0 L487.1 258.0 L484.2 258.0 L484.2 261.2 L484.2 264.5 L484.2 267.7 L484.2 270.9 L484.2 274.2 L481.4 274.2 L481.4 277.4 L484.2 277.4 Z" fill="#2f8f83" fill-opacity="0.34" stroke="#0e5b52" stroke-width="1.6" />
  <path d="M701.8 425.6 L701.8 428.8 L704.7 428.8 L704.7 425.6 L704.7 422.4 L704.7 419.2 L704.7 416.0 L704.7 412.8 L704.7 409.5 L707.6 409.5 L710.4 409.5 L713.3 409.5 L713.3 406.3 L713.3 403.1 L713.3 399.9 L713.3 396.7 L710.4 396.7 L710.4 393.4 L710.4 390.2 L710.4 387.0 L710.4 383.8 L710.4 380.6 L713.3 380.6 L716.2 380.6 L716.2 377.3 L716.2 374.1 L719.0 374.1 L719.0 370.9 L719.0 367.7 L719.0 364.5 L716.2 364.5 L716.2 361.2 L716.2 358.0 L716.2 354.8 L713.3 354.8 L710.4 354.8 L710.4 351.6 L710.4 348.4 L710.4 345.1 L710.4 341.9 L713.3 341.9 L716.2 341.9 L716.2 338.7 L716.2 335.5 L716.2 332.2 L716.2 329.0 L716.2 325.8 L716.2 322.6 L713.3 322.6 L710.4 322.6 L707.6 322.6 L707.6 325.8 L707.6 329.0 L707.6 332.2 L707.6 335.5 L707.6 338.7 L707.6 341.9 L707.6 345.1 L704.7 345.1 L704.7 348.4 L704.7 351.6 L704.7 354.8 L704.7 358.0 L704.7 361.2 L704.7 364.5 L704.7 367.7 L704.7 370.9 L701.8 370.9 L701.8 374.1 L701.8 377.4 L701.8 380.6 L701.8 383.8 L701.8 387.0 L701.8 390.2 L701.8 393.4 L701.8 396.7 L701.8 399.9 L701.8 403.1 L701.8 406.3 L701.8 409.5 L701.8 412.8 L701.8 416.0 L701.8 419.2 L701.8 422.4 L701.8 425.6 Z" fill="#2f8f83" fill-opacity="0.34" stroke="#0e5b52" stroke-width="1.6" />
  <path d="M658.9 473.8 L661.8 473.8 L664.6 473.8 L667.5 473.8 L670.4 473.8 L670.4 470.6 L670.4 467.4 L673.2 467.4 L676.1 467.4 L678.9 467.4 L678.9 464.2 L678.9 461.0 L681.8 461.0 L684.7 461.0 L687.5 461.0 L690.4 461.0 L690.4 457.8 L693.3 457.8 L693.3 454.5 L696.1 454.5 L696.1 451.3 L696.1 448.1 L696.1 444.9 L696.1 441.7 L699.0 441.7 L699.0 438.5 L701.8 438.5 L701.8 435.3 L701.8 432.0 L701.8 428.8 L701.8 425.6 L701.8 422.4 L701.8 419.2 L699.0 419.2 L699.0 422.4 L699.0 425.6 L696.1 425.6 L696.1 428.8 L696.1 432.0 L693.3 432.0 L693.3 435.3 L693.3 438.5 L690.4 438.5 L690.4 441.7 L690.4 444.9 L690.4 448.1 L690.4 451.3 L687.5 451.3 L684.7 451.3 L681.8 451.3 L678.9 451.3 L676.1 451.3 L676.1 454.5 L676.1 457.8 L673.2 457.8 L673.2 461.0 L670.4 461.0 L667.5 461.0 L664.6 461.0 L661.8 461.0 L658.9 461.0 L658.9 464.2 L658.9 467.4 L658.9 470.6 L656.0 470.6 L656.0 473.8 L658.9 473.8 Z" fill="#2f8f83" fill-opacity="0.34" stroke="#0e5b52" stroke-width="1.6" />
  <path d="M507.2 225.7 L507.2 228.9 L510.0 228.9 L512.9 228.9 L515.7 228.9 L518.6 228.9 L521.5 228.9 L521.5 225.7 L524.3 225.7 L527.2 225.7 L527.2 222.4 L527.2 219.2 L524.3 219.2 L524.3 216.0 L521.5 216.0 L518.6 216.0 L515.7 216.0 L512.9 216.0 L510.0 216.0 L507.2 216.0 L507.2 219.2 L507.2 222.4 L507.2 225.7 Z" fill="#2f8f83" fill-opacity="0.34" stroke="#0e5b52" stroke-width="1.6" />
  <path d="M530.1 222.4 L532.9 222.4 L535.8 222.4 L538.6 222.4 L541.5 222.4 L541.5 219.2 L538.6 219.2 L535.8 219.2 L532.9 219.2 L530.1 219.2 L527.2 219.2 L527.2 222.4 L530.1 222.4 Z" fill="#2f8f83" fill-opacity="0.34" stroke="#0e5b52" stroke-width="1.6" />
  <path d="M467.1 264.5 L467.1 267.7 L469.9 267.7 L472.8 267.7 L472.8 264.5 L472.8 261.2 L469.9 261.2 L467.1 261.2 L467.1 264.5 Z" fill="#2f8f83" fill-opacity="0.34" stroke="#0e5b52" stroke-width="1.6" />
  <path d="M346.8 341.9 L344.0 341.9 L344.0 345.2 L346.8 345.2 L346.8 341.9 Z" fill="#2f8f83" fill-opacity="0.34" stroke="#0e5b52" stroke-width="1.6" />
  <path d="M409.8 193.3 L409.8 196.5 L412.7 196.5 L412.7 193.3 L412.7 190.1 L409.8 190.1 L409.8 193.3 Z" fill="#2f8f83" fill-opacity="0.34" stroke="#0e5b52" stroke-width="1.6" />
  <path d="M409.8 196.5 L406.9 196.5 L406.9 199.8 L409.8 199.8 L409.8 196.5 Z" fill="#2f8f83" fill-opacity="0.34" stroke="#0e5b52" stroke-width="1.6" />
  <path d="M401.2 203.0 L398.4 203.0 L398.4 206.2 L401.2 206.2 L401.2 203.0 Z" fill="#2f8f83" fill-opacity="0.34" stroke="#0e5b52" stroke-width="1.6" />
  <path d="M386.9 206.2 L389.8 206.2 L389.8 203.0 L386.9 203.0 L384.0 203.0 L384.0 206.2 L386.9 206.2 Z" fill="#2f8f83" fill-opacity="0.34" stroke="#0e5b52" stroke-width="1.6" />
  <path d="M315.3 290.3 L312.5 290.3 L312.5 293.5 L315.3 293.5 L315.3 290.3 Z" fill="#2f8f83" fill-opacity="0.34" stroke="#0e5b52" stroke-width="1.6" />
  <path d="M323.9 303.2 L321.1 303.2 L321.1 306.4 L323.9 306.4 L323.9 303.2 Z" fill="#2f8f83" fill-opacity="0.34" stroke="#0e5b52" stroke-width="1.6" />
  <path d="M321.1 300.0 L318.2 300.0 L318.2 303.2 L321.1 303.2 L321.1 300.0 Z" fill="#2f8f83" fill-opacity="0.34" stroke="#0e5b52" stroke-width="1.6" />
  <path d="M326.8 309.7 L323.9 309.7 L323.9 312.9 L326.8 312.9 L326.8 309.7 Z" fill="#2f8f83" fill-opacity="0.34" stroke="#0e5b52" stroke-width="1.6" />
  <path d="M329.6 312.9 L326.8 312.9 L326.8 316.1 L329.6 316.1 L329.6 312.9 Z" fill="#2f8f83" fill-opacity="0.34" stroke="#0e5b52" stroke-width="1.6" />
  <path d="M332.5 319.4 L329.6 319.4 L329.6 322.6 L332.5 322.6 L332.5 319.4 Z" fill="#2f8f83" fill-opacity="0.34" stroke="#0e5b52" stroke-width="1.6" />
  <path d="M309.6 280.6 L306.7 280.6 L306.7 283.9 L309.6 283.9 L309.6 280.6 Z" fill="#2f8f83" fill-opacity="0.34" stroke="#0e5b52" stroke-width="1.6" />
  <path d="M338.2 329.0 L335.4 329.0 L335.4 332.3 L338.2 332.3 L338.2 329.0 Z" fill="#2f8f83" fill-opacity="0.34" stroke="#0e5b52" stroke-width="1.6" />
  <path d="M344.0 338.7 L341.1 338.7 L341.1 341.9 L344.0 341.9 L344.0 338.7 Z" fill="#2f8f83" fill-opacity="0.34" stroke="#0e5b52" stroke-width="1.6" />
  <path d="M386.9 209.5 L386.9 212.7 L389.8 212.7 L392.6 212.7 L395.5 212.7 L398.4 212.7 L401.2 212.7 L404.1 212.7 L404.1 209.5 L404.1 206.2 L406.9 206.2 L406.9 203.0 L406.9 199.8 L404.1 199.8 L404.1 203.0 L401.2 203.0 L401.2 206.2 L398.4 206.2 L395.5 206.2 L392.6 206.2 L389.8 206.2 L386.9 206.2 L386.9 209.5 Z" fill="#2f8f83" fill-opacity="0.34" stroke="#0e5b52" stroke-width="1.6" />
  <path d="M369.7 228.9 L369.7 232.1 L372.6 232.1 L375.5 232.1 L378.3 232.1 L381.2 232.1 L384.0 232.1 L386.9 232.1 L386.9 228.9 L384.0 228.9 L384.0 225.7 L384.0 222.4 L386.9 222.4 L386.9 219.2 L386.9 216.0 L384.0 216.0 L381.2 216.0 L378.3 216.0 L375.5 216.0 L372.6 216.0 L372.6 219.2 L372.6 222.4 L372.6 225.7 L369.7 225.7 L369.7 228.9 Z" fill="#2f8f83" fill-opacity="0.34" stroke="#0e5b52" stroke-width="1.6" />
  <path d="M364.0 212.7 L364.0 216.0 L366.9 216.0 L369.7 216.0 L372.6 216.0 L375.5 216.0 L378.3 216.0 L381.2 216.0 L384.0 216.0 L386.9 216.0 L386.9 212.7 L386.9 209.5 L386.9 206.2 L384.0 206.2 L381.2 206.2 L378.3 206.2 L375.5 206.2 L372.6 206.2 L369.7 206.2 L366.9 206.2 L364.0 206.3 L364.0 209.5 L364.0 212.7 Z" fill="#2f8f83" fill-opacity="0.34" stroke="#0e5b52" stroke-width="1.6" />
  <path d="M507.2 212.7 L507.2 216.0 L510.0 216.0 L512.9 216.0 L515.7 216.0 L518.6 216.0 L521.5 216.0 L524.3 216.0 L524.3 219.2 L527.2 219.2 L530.1 219.2 L532.9 219.2 L532.9 216.0 L532.9 212.7 L532.9 209.5 L530.1 209.5 L527.2 209.5 L524.3 209.5 L521.5 209.5 L518.6 209.5 L515.7 209.5 L512.9 209.5 L510.0 209.5 L507.2 209.5 L507.2 212.7 Z" fill="#2f8f83" fill-opacity="0.34" stroke="#0e5b52" stroke-width="1.6" />
  <path d="M492.8 241.8 L490.0 241.8 L490.0 245.1 L492.8 245.1 L492.8 241.8 Z" fill="#2f8f83" fill-opacity="0.34" stroke="#0e5b52" stroke-width="1.6" />
  <path d="M487.1 228.9 L490.0 228.9 L492.8 228.9 L495.7 228.9 L498.6 228.9 L501.4 228.9 L504.3 228.9 L507.2 228.9 L507.2 225.7 L507.2 222.4 L507.2 219.2 L504.3 219.2 L501.4 219.2 L498.6 219.2 L495.7 219.2 L492.8 219.2 L490.0 219.2 L487.1 219.2 L487.1 222.4 L487.1 225.7 L484.2 225.7 L484.2 228.9 L487.1 228.9 Z" fill="#2f8f83" fill-opacity="0.34" stroke="#0e5b52" stroke-width="1.6" />
  <path d="M424.1 270.9 L424.1 274.2 L427.0 274.2 L429.9 274.2 L432.7 274.2 L432.7 270.9 L432.7 267.7 L432.7 264.5 L432.7 261.2 L432.7 258.0 L435.6 258.0 L435.6 254.8 L435.6 251.5 L435.6 248.3 L435.6 245.1 L435.6 241.8 L432.7 241.8 L429.9 241.8 L429.9 245.1 L429.9 248.3 L429.9 251.5 L429.9 254.8 L429.9 258.0 L427.0 258.0 L424.1 258.0 L424.1 261.2 L424.1 264.5 L424.1 267.7 L424.1 270.9 Z" fill="#2f8f83" fill-opacity="0.34" stroke="#0e5b52" stroke-width="1.6" />
  <path d="M472.8 222.4 L472.8 225.7 L475.7 225.7 L478.5 225.7 L478.5 228.9 L481.4 228.9 L484.2 228.9 L484.2 225.7 L487.1 225.7 L487.1 222.4 L487.1 219.2 L484.3 219.2 L481.4 219.2 L481.4 216.0 L478.5 216.0 L475.7 216.0 L472.8 216.0 L472.8 219.2 L472.8 222.4 Z" fill="#2f8f83" fill-opacity="0.34" stroke="#0e5b52" stroke-width="1.6" />
  <path d="M401.2 225.7 L401.2 228.9 L404.1 228.9 L406.9 228.9 L409.8 228.9 L412.7 228.9 L415.5 228.9 L415.5 225.7 L415.5 222.4 L415.5 219.2 L415.5 216.0 L412.7 216.0 L409.8 216.0 L406.9 216.0 L404.1 216.0 L401.2 216.0 L401.2 219.2 L401.2 222.4 L401.2 225.7 Z" fill="#2f8f83" fill-opacity="0.34" stroke="#0e5b52" stroke-width="1.6" />
  <path d="M447.0 322.6 L444.2 322.6 L444.2 325.8 L447.0 325.8 L447.0 322.6 Z" fill="#2f8f83" fill-opacity="0.34" stroke="#0e5b52" stroke-width="1.6" />
  <path d="M478.5 241.8 L478.5 245.1 L481.4 245.1 L484.2 245.1 L487.1 245.1 L490.0 245.1 L490.0 241.8 L492.8 241.8 L492.8 245.1 L492.8 248.3 L495.7 248.3 L498.6 248.3 L501.4 248.3 L504.3 248.3 L507.2 248.3 L507.2 245.1 L507.2 241.8 L507.2 238.6 L510.0 238.6 L512.9 238.6 L515.7 238.6 L518.6 238.6 L518.6 235.4 L521.5 235.4 L521.5 232.1 L521.5 228.9 L518.6 228.9 L515.7 228.9 L512.9 228.9 L510.0 228.9 L507.2 228.9 L504.3 228.9 L501.4 228.9 L498.6 228.9 L495.7 228.9 L492.8 228.9 L490.0 228.9 L487.1 228.9 L484.2 228.9 L481.4 228.9 L478.5 228.9 L478.5 232.1 L478.5 235.4 L478.5 238.6 L478.5 241.8 Z M492.8 232.1 L495.7 232.1 L495.7 235.4 L492.8 235.4 L492.8 232.1 Z" fill="#2f8f83" fill-opacity="0.34" stroke="#0e5b52" stroke-width="1.6" />
  <path d="M481.4 316.1 L481.4 319.3 L484.2 319.3 L487.1 319.3 L487.1 316.1 L487.1 312.9 L484.2 312.9 L481.4 312.9 L481.4 316.1 Z" fill="#2f8f83" fill-opacity="0.34" stroke="#0e5b52" stroke-width="1.6" />
  <path d="M495.7 232.1 L492.8 232.1 L492.8 235.4 L495.7 235.4 L495.7 232.1 Z" fill="#2f8f83" fill-opacity="0.34" stroke="#0e5b52" stroke-width="1.6" />
  <path d="M403.1 252.4 L403.1 255.6 L405.5 255.6 L405.9 252.4 L403.1 252.4 Z" fill="#2f8f83" fill-opacity="0.34" stroke="#0e5b52" stroke-width="1.6" />
  <path d="M409.8 264.5 L409.8 267.7 L412.7 267.7 L415.5 267.7 L418.4 267.7 L421.3 267.7 L424.1 267.7 L424.1 264.5 L424.1 261.2 L421.3 261.2 L418.4 261.2 L415.5 261.2 L412.7 261.2 L409.8 261.2 L409.8 264.5 Z" fill="#2f8f83" fill-opacity="0.34" stroke="#0e5b52" stroke-width="1.6" />
  <path d="M409.8 258.0 L409.8 261.2 L412.7 261.2 L415.5 261.2 L418.4 261.2 L421.3 261.2 L424.1 261.2 L424.1 258.0 L424.1 254.8 L421.3 254.8 L418.4 254.8 L415.5 254.8 L412.7 254.8 L409.8 254.8 L409.8 258.0 Z" fill="#2f8f83" fill-opacity="0.34" stroke="#0e5b52" stroke-width="1.6" />
  <path d="M409.8 251.5 L409.8 254.8 L412.7 254.8 L415.5 254.8 L418.4 254.8 L421.3 254.8 L424.1 254.8 L424.1 258.0 L427.0 258.0 L429.9 258.0 L429.9 254.8 L429.9 251.5 L429.9 248.3 L429.9 245.1 L429.9 241.8 L427.0 241.8 L424.1 241.8 L421.3 241.8 L418.4 241.8 L415.5 241.8 L412.7 241.8 L409.8 241.8 L409.8 245.1 L409.8 248.3 L409.8 251.5 Z" fill="#2f8f83" fill-opacity="0.34" stroke="#0e5b52" stroke-width="1.6" />
  <path d="M389.8 248.3 L389.8 251.5 L392.6 251.5 L395.5 251.5 L398.4 251.5 L401.2 251.5 L404.1 251.5 L406.9 251.5 L409.8 251.5 L409.8 248.3 L409.8 245.1 L409.8 241.8 L412.7 241.8 L412.7 238.6 L409.8 238.6 L406.9 238.6 L404.1 238.6 L401.2 238.6 L398.4 238.6 L395.5 238.6 L392.6 238.6 L389.8 238.6 L389.8 241.8 L389.8 245.1 L389.8 248.3 Z" fill="#2f8f83" fill-opacity="0.34" stroke="#0e5b52" stroke-width="1.6" />
  <path d="M395.5 264.5 L395.5 267.7 L398.4 267.7 L401.2 267.7 L404.1 267.7 L406.9 267.7 L409.8 267.7 L409.8 264.5 L409.8 261.2 L409.8 258.0 L409.8 254.8 L409.8 251.5 L406.9 251.5 L404.1 251.5 L401.2 251.5 L398.4 251.5 L395.5 251.5 L395.5 254.8 L395.5 258.0 L395.5 261.2 L395.5 264.5 Z" fill="#2f8f83" fill-opacity="0.34" stroke="#0e5b52" stroke-width="1.6" />
  <path d="M381.2 254.8 L381.2 258.0 L384.0 258.0 L384.0 261.2 L384.0 264.5 L381.2 264.5 L381.2 267.7 L384.0 267.7 L386.9 267.7 L389.8 267.7 L392.6 267.7 L395.5 267.7 L395.5 264.5 L395.5 261.2 L395.5 258.0 L395.5 254.8 L395.5 251.5 L392.6 251.5 L389.8 251.5 L389.8 248.3 L386.9 248.3 L384.0 248.3 L381.2 248.3 L381.2 251.5 L381.2 254.8 Z" fill="#2f8f83" fill-opacity="0.34" stroke="#0e5b52" stroke-width="1.6" />
  <path d="M381.2 270.9 L381.2 274.2 L384.0 274.2 L386.9 274.2 L389.8 274.2 L392.6 274.2 L395.5 274.2 L398.4 274.2 L398.4 270.9 L398.4 267.7 L395.5 267.7 L392.6 267.7 L389.8 267.7 L386.9 267.7 L384.0 267.7 L381.2 267.7 L381.2 270.9 Z" fill="#2f8f83" fill-opacity="0.34" stroke="#0e5b52" stroke-width="1.6" />
  <path d="M398.4 270.9 L398.4 274.2 L401.2 274.2 L404.1 274.2 L406.9 274.2 L409.8 274.2 L412.7 274.2 L415.5 274.2 L418.4 274.2 L421.3 274.2 L424.1 274.2 L424.1 270.9 L424.1 267.7 L421.3 267.7 L418.4 267.7 L415.5 267.7 L412.7 267.7 L409.8 267.7 L406.9 267.7 L404.1 267.7 L401.2 267.7 L398.4 267.7 L398.4 270.9 Z" fill="#2f8f83" fill-opacity="0.34" stroke="#0e5b52" stroke-width="1.6" />
  <path d="M481.4 335.5 L481.4 338.7 L484.3 338.7 L487.1 338.7 L490.0 338.7 L492.8 338.7 L495.7 338.7 L495.7 335.5 L495.7 332.2 L495.7 329.0 L495.7 325.8 L495.7 322.6 L492.8 322.6 L490.0 322.6 L487.1 322.6 L487.1 325.8 L490.0 325.8 L492.8 325.8 L492.8 329.0 L492.8 332.2 L490.0 332.2 L487.1 332.2 L484.2 332.2 L481.4 332.2 L481.4 335.5 Z" fill="#2f8f83" fill-opacity="0.34" stroke="#0e5b52" stroke-width="1.6" />
  <path d="M472.8 329.0 L472.8 332.2 L475.7 332.2 L478.5 332.2 L481.4 332.2 L481.4 329.0 L481.4 325.8 L481.4 322.6 L481.4 319.3 L481.4 316.1 L481.4 312.9 L478.5 312.9 L475.7 312.9 L475.7 309.7 L472.8 309.7 L472.8 312.9 L472.8 316.1 L472.8 319.3 L472.8 322.6 L472.8 325.8 L472.8 329.0 Z" fill="#2f8f83" fill-opacity="0.34" stroke="#0e5b52" stroke-width="1.6" />
  <path d="M449.9 309.7 L449.9 312.9 L452.8 312.9 L455.6 312.9 L458.5 312.9 L461.3 312.9 L464.2 312.9 L467.1 312.9 L469.9 312.9 L472.8 312.9 L472.8 309.7 L469.9 309.7 L469.9 306.4 L467.1 306.4 L467.1 303.2 L464.2 303.2 L461.3 303.2 L458.5 303.2 L455.6 303.2 L452.8 303.2 L449.9 303.2 L449.9 306.4 L449.9 309.7 Z" fill="#2f8f83" fill-opacity="0.34" stroke="#0e5b52" stroke-width="1.6" />
  <path d="M429.9 309.7 L429.9 312.9 L432.7 312.9 L435.6 312.9 L438.4 312.9 L441.3 312.9 L444.2 312.9 L447.0 312.9 L449.9 312.9 L449.9 309.7 L449.9 306.4 L449.9 303.2 L447.0 303.2 L444.2 303.2 L441.3 303.2 L438.4 303.2 L435.6 303.2 L432.7 303.2 L429.9 303.2 L429.9 306.4 L429.9 309.7 Z" fill="#2f8f83" fill-opacity="0.34" stroke="#0e5b52" stroke-width="1.6" />
  <path d="M409.8 309.7 L409.8 312.9 L412.7 312.9 L415.5 312.9 L418.4 312.9 L421.3 312.9 L424.1 312.9 L427.0 312.9 L429.9 312.9 L429.9 309.7 L429.9 306.4 L429.9 303.2 L427.0 303.2 L424.1 303.2 L421.3 303.2 L418.4 303.2 L415.5 303.2 L412.7 303.2 L409.8 303.2 L409.8 306.4 L409.8 309.7 Z" fill="#2f8f83" fill-opacity="0.34" stroke="#0e5b52" stroke-width="1.6" />
  <path d="M409.8 319.4 L409.8 322.6 L412.7 322.6 L415.5 322.6 L418.4 322.6 L421.3 322.6 L424.1 322.6 L427.0 322.6 L429.9 322.6 L429.9 319.4 L429.9 316.1 L429.9 312.9 L427.0 312.9 L424.1 312.9 L421.3 312.9 L418.4 312.9 L415.5 312.9 L412.7 312.9 L409.8 312.9 L409.8 316.1 L409.8 319.4 Z" fill="#2f8f83" fill-opacity="0.34" stroke="#0e5b52" stroke-width="1.6" />
  <path d="M429.9 319.4 L429.9 322.6 L432.7 322.6 L435.6 322.6 L438.4 322.6 L441.3 322.6 L441.3 319.3 L444.2 319.3 L447.0 319.3 L449.9 319.3 L449.9 316.1 L449.9 312.9 L447.0 312.9 L444.2 312.9 L441.3 312.9 L438.4 312.9 L435.6 312.9 L432.7 312.9 L429.9 312.9 L429.9 316.1 L429.9 319.4 Z" fill="#2f8f83" fill-opacity="0.34" stroke="#0e5b52" stroke-width="1.6" />
  <path d="M515.7 206.2 L515.7 209.5 L518.6 209.5 L521.5 209.5 L524.3 209.5 L527.2 209.5 L530.1 209.5 L532.9 209.5 L532.9 212.7 L532.9 216.0 L532.9 219.2 L535.8 219.2 L538.6 219.2 L541.5 219.2 L541.5 216.0 L541.5 212.7 L541.5 209.5 L541.5 206.2 L541.5 203.0 L541.5 199.8 L541.5 196.5 L541.5 193.3 L538.6 193.3 L535.8 193.3 L532.9 193.3 L530.1 193.3 L527.2 193.3 L527.2 190.1 L527.2 186.8 L527.2 183.6 L524.3 183.6 L521.5 183.6 L518.6 183.6 L515.7 183.6 L515.7 186.8 L515.7 190.1 L515.7 193.3 L515.7 196.5 L515.7 199.8 L515.7 203.0 L515.7 206.2 Z" fill="#2f8f83" fill-opacity="0.34" stroke="#0e5b52" stroke-width="1.6" />
  <path d="M449.9 319.3 L449.9 322.6 L452.8 322.6 L455.6 322.6 L458.5 322.6 L461.3 322.6 L464.2 322.6 L467.1 322.6 L469.9 322.6 L472.8 322.6 L472.8 319.3 L472.8 316.1 L472.8 312.9 L469.9 312.9 L467.1 312.9 L464.2 312.9 L461.3 312.9 L458.5 312.9 L455.6 312.9 L452.8 312.9 L449.9 312.9 L449.9 316.1 L449.9 319.3 Z" fill="#2f8f83" fill-opacity="0.34" stroke="#0e5b52" stroke-width="1.6" />
  <path d="M449.9 329.0 L449.9 332.3 L452.8 332.3 L455.6 332.3 L458.5 332.3 L461.3 332.3 L464.2 332.2 L467.1 332.2 L469.9 332.2 L472.8 332.2 L472.8 329.0 L472.8 325.8 L472.8 322.6 L469.9 322.6 L467.1 322.6 L464.2 322.6 L461.3 322.6 L458.5 322.6 L455.6 322.6 L452.8 322.6 L449.9 322.6 L449.9 325.8 L449.9 329.0 Z" fill="#2f8f83" fill-opacity="0.34" stroke="#0e5b52" stroke-width="1.6" />
  <path d="M464.2 338.7 L464.2 341.9 L467.1 341.9 L469.9 341.9 L472.8 341.9 L475.7 341.9 L478.5 341.9 L478.5 338.7 L481.4 338.7 L481.4 335.5 L481.4 332.2 L478.5 332.2 L475.7 332.2 L472.8 332.2 L469.9 332.2 L467.1 332.2 L464.2 332.2 L464.2 335.5 L464.2 338.7 Z" fill="#2f8f83" fill-opacity="0.34" stroke="#0e5b52" stroke-width="1.6" />
  <path d="M444.2 335.5 L447.0 335.5 L447.0 338.7 L449.9 338.7 L449.9 341.9 L452.8 341.9 L455.6 341.9 L458.5 341.9 L461.3 341.9 L464.2 341.9 L464.2 338.7 L464.2 335.5 L464.2 332.2 L461.3 332.3 L458.5 332.3 L455.6 332.3 L452.8 332.3 L449.9 332.3 L447.0 332.3 L444.2 332.3 L441.3 332.3 L441.3 335.5 L444.2 335.5 Z" fill="#2f8f83" fill-opacity="0.34" stroke="#0e5b52" stroke-width="1.6" />
  <path d="M435.6 329.0 L435.6 332.3 L438.4 332.3 L441.3 332.3 L444.2 332.3 L447.0 332.3 L449.9 332.3 L449.9 329.0 L449.9 325.8 L447.0 325.8 L444.2 325.8 L441.3 325.8 L441.3 322.6 L438.4 322.6 L435.6 322.6 L435.6 325.8 L435.6 329.0 Z" fill="#2f8f83" fill-opacity="0.34" stroke="#0e5b52" stroke-width="1.6" />
  <path d="M404.1 325.8 L406.9 325.8 L409.8 325.8 L412.7 325.8 L415.5 325.8 L418.4 325.8 L421.3 325.8 L424.1 325.8 L424.1 329.0 L427.0 329.0 L429.9 329.0 L432.7 329.0 L435.6 329.0 L435.6 325.8 L435.6 322.6 L432.7 322.6 L429.9 322.6 L427.0 322.6 L424.1 322.6 L421.3 322.6 L418.4 322.6 L415.5 322.6 L412.7 322.6 L409.8 322.6 L406.9 322.6 L404.1 322.6 L401.2 322.6 L401.2 325.8 L404.1 325.8 Z" fill="#2f8f83" fill-opacity="0.34" stroke="#0e5b52" stroke-width="1.6" />
  <path d="M381.2 332.3 L381.2 335.5 L384.0 335.5 L386.9 335.5 L386.9 332.3 L389.8 332.3 L392.6 332.3 L395.5 332.3 L395.5 329.0 L398.4 329.0 L401.2 329.0 L401.2 325.8 L401.2 322.6 L398.4 322.6 L395.5 322.6 L392.6 322.6 L389.8 322.6 L386.9 322.6 L384.0 322.6 L381.2 322.6 L381.2 325.8 L381.2 329.0 L381.2 332.3 Z" fill="#2f8f83" fill-opacity="0.34" stroke="#0e5b52" stroke-width="1.6" />
  <path d="M392.6 290.3 L395.5 290.3 L398.4 290.3 L401.2 290.3 L404.1 290.3 L404.1 293.5 L406.9 293.5 L406.9 290.3 L406.9 287.1 L406.9 283.8 L406.9 280.6 L404.1 280.6 L404.1 277.4 L404.1 274.2 L401.2 274.2 L398.4 274.2 L395.5 274.2 L392.6 274.2 L392.6 277.4 L392.6 280.6 L392.6 283.8 L392.6 287.1 L389.8 287.1 L389.8 290.3 L392.6 290.3 Z" fill="#2f8f83" fill-opacity="0.34" stroke="#0e5b52" stroke-width="1.6" />
  <path d="M389.8 296.8 L389.8 300.0 L392.6 300.0 L395.5 300.0 L395.5 303.2 L395.5 306.4 L398.4 306.4 L401.2 306.4 L404.1 306.4 L406.9 306.4 L406.9 303.2 L406.9 300.0 L406.9 296.8 L406.9 293.5 L404.1 293.5 L404.1 290.3 L401.2 290.3 L398.4 290.3 L395.5 290.3 L392.6 290.3 L389.8 290.3 L389.8 293.5 L389.8 296.8 Z" fill="#2f8f83" fill-opacity="0.34" stroke="#0e5b52" stroke-width="1.6" />
  <path d="M404.1 277.4 L404.1 280.6 L406.9 280.6 L406.9 283.8 L406.9 287.1 L406.9 290.3 L406.9 293.5 L406.9 296.8 L406.9 300.0 L406.9 303.2 L406.9 306.4 L409.8 306.4 L409.8 303.2 L412.7 303.2 L412.7 300.0 L412.7 296.8 L412.7 293.5 L412.7 290.3 L412.7 287.1 L415.5 287.1 L415.5 283.8 L415.5 280.6 L415.5 277.4 L415.5 274.2 L412.7 274.2 L409.8 274.2 L406.9 274.2 L404.1 274.2 L404.1 277.4 Z" fill="#2f8f83" fill-opacity="0.34" stroke="#0e5b52" stroke-width="1.6" />
  <path d="M412.7 238.6 L412.7 241.8 L415.5 241.8 L418.4 241.8 L421.3 241.8 L424.1 241.8 L427.0 241.8 L429.9 241.8 L432.7 241.8 L435.6 241.8 L435.6 238.6 L435.6 235.4 L435.6 232.1 L432.7 232.1 L429.9 232.1 L427.0 232.1 L424.1 232.1 L421.3 232.1 L418.4 232.1 L415.5 232.1 L412.7 232.1 L412.7 235.4 L412.7 238.6 Z" fill="#2f8f83" fill-opacity="0.34" stroke="#0e5b52" stroke-width="1.6" />
  <path d="M381.2 312.9 L381.2 316.1 L384.0 316.1 L386.9 316.1 L389.8 316.1 L392.6 316.1 L395.5 316.1 L395.5 312.9 L395.5 309.7 L395.5 306.4 L395.5 303.2 L395.5 300.0 L392.6 300.0 L389.8 300.0 L386.9 300.0 L384.0 300.0 L381.2 300.0 L381.2 303.2 L381.2 306.4 L381.2 309.7 L381.2 312.9 Z" fill="#2f8f83" fill-opacity="0.34" stroke="#0e5b52" stroke-width="1.6" />
  <path d="M381.2 319.4 L381.2 322.6 L384.0 322.6 L386.9 322.6 L389.8 322.6 L392.6 322.6 L395.5 322.6 L395.5 319.4 L395.5 316.1 L392.6 316.1 L389.8 316.1 L386.9 316.1 L384.0 316.1 L381.2 316.1 L381.2 319.4 Z" fill="#2f8f83" fill-opacity="0.34" stroke="#0e5b52" stroke-width="1.6" />
  <path d="M395.5 319.4 L395.5 322.6 L398.4 322.6 L401.2 322.6 L404.1 322.6 L406.9 322.6 L409.8 322.6 L409.8 319.4 L409.8 316.1 L409.8 312.9 L409.8 309.7 L409.8 306.4 L406.9 306.4 L404.1 306.4 L401.2 306.4 L398.4 306.4 L395.5 306.4 L395.5 309.7 L395.5 312.9 L395.5 316.1 L395.5 319.4 Z" fill="#2f8f83" fill-opacity="0.34" stroke="#0e5b52" stroke-width="1.6" />
  <path d="M444.2 261.2 L447.0 261.2 L449.9 261.2 L452.8 261.2 L455.6 261.2 L458.5 261.2 L461.3 261.2 L461.3 258.0 L461.3 254.8 L461.3 251.5 L461.3 248.3 L458.5 248.3 L455.6 248.3 L452.8 248.3 L449.9 248.3 L447.0 248.3 L444.2 248.3 L444.2 251.5 L444.2 254.8 L444.2 258.0 L441.3 258.0 L441.3 261.2 L444.2 261.2 Z" fill="#2f8f83" fill-opacity="0.34" stroke="#0e5b52" stroke-width="1.6" />
  <path d="M444.2 245.1 L444.2 248.3 L447.0 248.3 L449.9 248.3 L452.8 248.3 L455.6 248.3 L458.5 248.3 L461.3 248.3 L464.2 248.3 L467.1 248.3 L469.9 248.3 L472.8 248.3 L475.7 248.3 L478.5 248.3 L478.5 245.1 L478.5 241.8 L475.7 241.8 L472.8 241.8 L469.9 241.8 L467.1 241.8 L464.2 241.8 L461.3 241.8 L458.5 241.8 L455.6 241.8 L452.8 241.8 L449.9 241.8 L447.0 241.8 L444.2 241.8 L444.2 245.1 Z" fill="#2f8f83" fill-opacity="0.34" stroke="#0e5b52" stroke-width="1.6" />
  <path d="M449.9 238.6 L449.9 241.8 L452.8 241.8 L455.6 241.8 L458.5 241.8 L461.3 241.8 L464.2 241.8 L464.2 238.6 L464.2 235.4 L464.2 232.1 L464.2 228.9 L464.2 225.7 L461.3 225.7 L458.5 225.7 L455.6 225.7 L452.8 225.7 L449.9 225.7 L449.9 228.9 L449.9 232.1 L449.9 235.4 L449.9 238.6 Z" fill="#2f8f83" fill-opacity="0.34" stroke="#0e5b52" stroke-width="1.6" />
  <path d="M464.2 238.6 L464.2 241.8 L467.1 241.8 L469.9 241.8 L472.8 241.8 L475.7 241.8 L478.5 241.8 L478.5 238.6 L478.5 235.4 L478.5 232.1 L478.5 228.9 L478.5 225.7 L475.7 225.7 L472.8 225.7 L469.9 225.7 L467.1 225.7 L464.2 225.7 L464.2 228.9 L464.2 232.1 L464.2 235.4 L464.2 238.6 Z" fill="#2f8f83" fill-opacity="0.34" stroke="#0e5b52" stroke-width="1.6" />
  <path d="M401.2 235.4 L401.2 238.6 L404.1 238.6 L406.9 238.6 L409.8 238.6 L412.7 238.6 L412.7 235.4 L412.7 232.1 L415.5 232.1 L418.4 232.1 L421.3 232.1 L424.1 232.1 L427.0 232.1 L429.9 232.1 L432.7 232.1 L435.6 232.1 L435.6 228.9 L432.7 228.9 L429.9 228.9 L427.0 228.9 L424.1 228.9 L421.3 228.9 L418.4 228.9 L415.5 228.9 L412.7 228.9 L409.8 228.9 L406.9 228.9 L404.1 228.9 L401.2 228.9 L401.2 232.1 L401.2 235.4 Z" fill="#2f8f83" fill-opacity="0.34" stroke="#0e5b52" stroke-width="1.6" />
  <path d="M432.7 225.7 L432.7 228.9 L435.6 228.9 L435.6 225.7 L438.4 225.7 L441.3 225.7 L444.2 225.7 L447.0 225.7 L449.9 225.7 L452.8 225.7 L455.6 225.7 L458.5 225.7 L461.3 225.7 L464.2 225.7 L464.2 222.4 L461.3 222.4 L458.5 222.4 L455.6 222.4 L452.8 222.4 L449.9 222.4 L447.0 222.4 L444.2 222.4 L441.3 222.4 L438.4 222.4 L435.6 222.4 L432.7 222.4 L432.7 225.7 Z" fill="#2f8f83" fill-opacity="0.34" stroke="#0e5b52" stroke-width="1.6" />
  <path d="M461.3 254.8 L461.3 258.0 L464.2 258.0 L467.1 258.0 L467.1 254.8 L467.1 251.5 L467.1 248.3 L464.2 248.3 L461.3 248.3 L461.3 251.5 L461.3 254.8 Z" fill="#2f8f83" fill-opacity="0.34" stroke="#0e5b52" stroke-width="1.6" />
  <path d="M467.1 254.8 L467.1 258.0 L469.9 258.0 L472.8 258.0 L475.7 258.0 L478.5 258.0 L478.5 254.8 L478.5 251.5 L478.5 248.3 L475.7 248.3 L472.8 248.3 L469.9 248.3 L467.1 248.3 L467.1 251.5 L467.1 254.8 Z" fill="#2f8f83" fill-opacity="0.34" stroke="#0e5b52" stroke-width="1.6" />
  <path d="M455.6 270.9 L455.6 274.2 L458.5 274.2 L461.3 274.2 L464.2 274.2 L464.2 270.9 L464.2 267.7 L464.2 264.5 L464.2 261.2 L464.2 258.0 L461.3 258.0 L461.3 261.2 L458.5 261.2 L455.6 261.2 L455.6 264.5 L455.6 267.7 L455.6 270.9 Z" fill="#2f8f83" fill-opacity="0.34" stroke="#0e5b52" stroke-width="1.6" />
  <path d="M441.3 274.2 L441.3 277.4 L444.2 277.4 L447.0 277.4 L449.9 277.4 L452.8 277.4 L455.6 277.4 L455.6 274.2 L455.6 270.9 L455.6 267.7 L455.6 264.5 L455.6 261.2 L452.8 261.2 L449.9 261.2 L447.0 261.2 L444.2 261.2 L441.3 261.2 L441.3 264.5 L441.3 267.7 L441.3 270.9 L441.3 274.2 Z" fill="#2f8f83" fill-opacity="0.34" stroke="#0e5b52" stroke-width="1.6" />
  <path d="M467.1 274.2 L469.9 274.2 L472.8 274.2 L475.7 274.2 L478.5 274.2 L478.5 270.9 L475.7 270.9 L472.8 270.9 L469.9 270.9 L467.1 270.9 L464.2 270.9 L464.2 274.2 L467.1 274.2 Z" fill="#2f8f83" fill-opacity="0.34" stroke="#0e5b52" stroke-width="1.6" />
  <path d="M478.5 270.9 L478.5 274.2 L481.4 274.2 L484.2 274.2 L484.2 270.9 L484.2 267.7 L484.2 264.5 L484.2 261.2 L484.2 258.0 L481.4 258.0 L478.5 258.0 L478.5 261.2 L478.5 264.5 L478.5 267.7 L478.5 270.9 Z" fill="#2f8f83" fill-opacity="0.34" stroke="#0e5b52" stroke-width="1.6" />
  <path d="M478.5 254.8 L478.5 258.0 L481.4 258.0 L484.2 258.0 L487.1 258.0 L490.0 258.0 L492.8 258.0 L492.8 254.8 L492.8 251.5 L492.8 248.3 L492.8 245.1 L490.0 245.1 L487.1 245.1 L484.2 245.1 L481.4 245.1 L478.5 245.1 L478.5 248.3 L478.5 251.5 L478.5 254.8 Z" fill="#2f8f83" fill-opacity="0.34" stroke="#0e5b52" stroke-width="1.6" />
  <path d="M464.2 267.7 L464.2 270.9 L467.1 270.9 L469.9 270.9 L472.8 270.9 L475.7 270.9 L478.5 270.9 L478.5 267.7 L478.5 264.5 L478.5 261.2 L478.5 258.0 L475.7 258.0 L472.8 258.0 L469.9 258.0 L467.1 258.0 L464.2 258.0 L464.2 261.2 L464.2 264.5 L464.2 267.7 Z M467.1 264.5 L467.1 261.2 L469.9 261.2 L472.8 261.2 L472.8 264.5 L472.8 267.7 L469.9 267.7 L467.1 267.7 L467.1 264.5 Z" fill="#2f8f83" fill-opacity="0.34" stroke="#0e5b52" stroke-width="1.6" />
  <path d="M438.4 238.6 L438.4 241.8 L441.3 241.8 L444.2 241.8 L447.0 241.8 L449.9 241.8 L449.9 238.6 L449.9 235.4 L449.9 232.1 L449.9 228.9 L449.9 225.7 L447.0 225.7 L444.2 225.7 L441.3 225.7 L438.4 225.7 L438.4 228.9 L438.4 232.1 L438.4 235.4 L438.4 238.6 Z" fill="#2f8f83" fill-opacity="0.34" stroke="#0e5b52" stroke-width="1.6" />
  <path d="M438.4 254.8 L438.4 258.0 L441.3 258.0 L444.2 258.0 L444.2 254.8 L444.2 251.5 L444.2 248.3 L444.2 245.1 L444.2 241.8 L441.3 241.8 L438.4 241.8 L438.4 245.1 L438.4 248.3 L438.4 251.5 L438.4 254.8 Z" fill="#2f8f83" fill-opacity="0.34" stroke="#0e5b52" stroke-width="1.6" />
  <path d="M435.6 254.8 L435.6 258.0 L438.4 258.0 L438.4 254.8 L438.4 251.5 L438.4 248.3 L438.4 245.1 L438.4 241.8 L435.6 241.8 L435.6 245.1 L435.6 248.3 L435.6 251.5 L435.6 254.8 Z" fill="#2f8f83" fill-opacity="0.34" stroke="#0e5b52" stroke-width="1.6" />
  <path d="M432.7 274.2 L432.7 277.4 L435.6 277.4 L438.4 277.4 L441.3 277.4 L441.3 274.2 L441.3 270.9 L441.3 267.7 L441.3 264.5 L441.3 261.2 L441.3 258.0 L438.4 258.0 L435.6 258.0 L432.7 258.0 L432.7 261.2 L432.7 264.5 L432.7 267.7 L432.7 270.9 L432.7 274.2 Z" fill="#2f8f83" fill-opacity="0.34" stroke="#0e5b52" stroke-width="1.6" />
  <path d="M435.6 238.6 L435.6 241.8 L438.4 241.8 L438.4 238.6 L438.4 235.4 L438.4 232.1 L438.4 228.9 L438.4 225.7 L435.6 225.7 L435.6 228.9 L435.6 232.1 L435.6 235.4 L435.6 238.6 Z" fill="#2f8f83" fill-opacity="0.34" stroke="#0e5b52" stroke-width="1.6" />
  <path d="M492.8 206.2 L492.8 209.5 L495.7 209.5 L498.6 209.5 L501.4 209.5 L504.3 209.5 L504.3 206.2 L504.3 203.0 L504.3 199.8 L504.3 196.5 L504.3 193.3 L504.3 190.1 L501.4 190.1 L498.6 190.1 L495.7 190.1 L492.8 190.1 L492.8 193.3 L492.8 196.5 L492.8 199.8 L492.8 203.0 L492.8 206.2 Z" fill="#2f8f83" fill-opacity="0.34" stroke="#0e5b52" stroke-width="1.6" />
  <path d="M464.2 222.4 L464.2 225.7 L467.1 225.7 L469.9 225.7 L472.8 225.7 L472.8 222.4 L472.8 219.2 L472.8 216.0 L475.7 216.0 L478.5 216.0 L481.4 216.0 L484.3 216.0 L487.1 216.0 L487.1 212.7 L487.1 209.5 L484.3 209.5 L481.4 209.5 L478.5 209.5 L475.7 209.5 L472.8 209.5 L469.9 209.5 L467.1 209.5 L464.2 209.5 L464.2 212.7 L464.2 216.0 L464.2 219.2 L464.2 222.4 Z" fill="#2f8f83" fill-opacity="0.34" stroke="#0e5b52" stroke-width="1.6" />
  <path d="M469.9 206.2 L469.9 209.5 L472.8 209.5 L475.7 209.5 L478.5 209.5 L481.4 209.5 L481.4 206.2 L481.4 203.0 L481.4 199.8 L481.4 196.5 L481.4 193.3 L481.4 190.1 L478.5 190.1 L475.7 190.1 L472.8 190.1 L469.9 190.1 L469.9 193.3 L469.9 196.5 L469.9 199.8 L469.9 203.0 L469.9 206.2 Z" fill="#2f8f83" fill-opacity="0.34" stroke="#0e5b52" stroke-width="1.6" />
  <path d="M504.3 206.2 L504.3 209.5 L507.2 209.5 L510.0 209.5 L512.9 209.5 L515.7 209.5 L515.7 206.2 L515.7 203.0 L515.7 199.8 L515.7 196.5 L515.7 193.3 L515.7 190.1 L512.9 190.1 L510.0 190.1 L507.2 190.1 L504.3 190.1 L504.3 193.3 L504.3 196.5 L504.3 199.8 L504.3 203.0 L504.3 206.2 Z" fill="#2f8f83" fill-opacity="0.34" stroke="#0e5b52" stroke-width="1.6" />
  <path d="M481.4 206.2 L481.4 209.5 L484.3 209.5 L487.1 209.5 L490.0 209.5 L492.8 209.5 L492.8 206.2 L492.8 203.0 L492.8 199.8 L492.8 196.5 L492.8 193.3 L492.8 190.1 L490.0 190.1 L487.1 190.1 L484.3 190.1 L481.4 190.1 L481.4 193.3 L481.4 196.5 L481.4 199.8 L481.4 203.0 L481.4 206.2 Z" fill="#2f8f83" fill-opacity="0.34" stroke="#0e5b52" stroke-width="1.6" />
  <path d="M484.3 219.2 L487.1 219.2 L490.0 219.2 L492.8 219.2 L495.7 219.2 L498.6 219.2 L501.4 219.2 L504.3 219.2 L507.2 219.2 L507.2 216.0 L507.2 212.7 L507.2 209.5 L504.3 209.5 L501.4 209.5 L498.6 209.5 L495.7 209.5 L492.8 209.5 L490.0 209.5 L487.1 209.5 L487.1 212.7 L487.1 216.0 L484.3 216.0 L481.4 216.0 L481.4 219.2 L484.3 219.2 Z" fill="#2f8f83" fill-opacity="0.34" stroke="#0e5b52" stroke-width="1.6" />
  <path d="M441.3 322.6 L441.3 325.8 L444.2 325.8 L444.2 322.6 L447.0 322.6 L447.0 325.8 L449.9 325.8 L449.9 322.6 L449.9 319.3 L447.0 319.3 L444.2 319.3 L441.3 319.3 L441.3 322.6 Z" fill="#2f8f83" fill-opacity="0.34" stroke="#0e5b52" stroke-width="1.6" />
  <path d="M338.2 296.8 L338.2 300.0 L341.1 300.0 L344.0 300.0 L346.8 300.0 L349.7 300.0 L352.5 300.0 L352.5 296.8 L352.5 293.5 L352.5 290.3 L352.5 287.1 L352.5 283.8 L349.7 283.8 L346.8 283.8 L344.0 283.8 L341.1 283.8 L338.2 283.8 L338.2 287.1 L338.2 290.3 L338.2 293.5 L338.2 296.8 Z" fill="#2f8f83" fill-opacity="0.34" stroke="#0e5b52" stroke-width="1.6" />
  <path d="M352.5 296.8 L352.5 300.0 L355.4 300.0 L358.3 300.0 L361.1 300.0 L364.0 300.0 L366.9 300.0 L366.9 296.8 L366.9 293.5 L366.9 290.3 L366.9 287.1 L366.9 283.8 L364.0 283.8 L361.1 283.8 L358.3 283.8 L355.4 283.8 L352.5 283.8 L352.5 287.1 L352.5 290.3 L352.5 293.5 L352.5 296.8 Z" fill="#2f8f83" fill-opacity="0.34" stroke="#0e5b52" stroke-width="1.6" />
  <path d="M352.5 280.6 L352.5 283.8 L355.4 283.8 L358.3 283.8 L361.1 283.8 L364.0 283.8 L366.9 283.8 L366.9 280.6 L366.9 277.4 L366.9 274.2 L366.9 270.9 L366.9 267.7 L364.0 267.7 L361.1 267.7 L358.3 267.7 L355.4 267.7 L352.5 267.7 L352.5 270.9 L352.5 274.2 L352.5 277.4 L352.5 280.6 Z" fill="#2f8f83" fill-opacity="0.34" stroke="#0e5b52" stroke-width="1.6" />
  <path d="M352.5 312.9 L352.5 316.1 L355.4 316.1 L358.3 316.1 L361.1 316.1 L364.0 316.1 L366.9 316.1 L366.9 312.9 L366.9 309.7 L366.9 306.4 L366.9 303.2 L366.9 300.0 L364.0 300.0 L361.1 300.0 L358.3 300.0 L355.4 300.0 L352.5 300.0 L352.5 303.2 L352.5 306.4 L352.5 309.7 L352.5 312.9 Z" fill="#2f8f83" fill-opacity="0.34" stroke="#0e5b52" stroke-width="1.6" />
  <path d="M366.9 312.9 L366.9 316.1 L369.7 316.1 L372.6 316.1 L375.5 316.1 L378.3 316.1 L381.2 316.1 L381.2 312.9 L381.2 309.7 L381.2 306.4 L381.2 303.2 L381.2 300.0 L378.3 300.0 L375.5 300.0 L372.6 300.0 L369.7 300.0 L366.9 300.0 L366.9 303.2 L366.9 306.4 L366.9 309.7 L366.9 312.9 Z" fill="#2f8f83" fill-opacity="0.34" stroke="#0e5b52" stroke-width="1.6" />
  <path d="M366.9 267.7 L366.9 270.9 L369.7 270.9 L372.6 270.9 L375.5 270.9 L378.3 270.9 L381.2 270.9 L381.2 267.7 L381.2 264.5 L384.0 264.5 L384.0 261.2 L384.0 258.0 L381.2 258.0 L378.3 258.0 L375.5 258.0 L372.6 258.0 L372.6 254.8 L369.7 254.8 L366.9 254.8 L366.9 258.0 L366.9 261.2 L366.9 264.5 L366.9 267.7 Z" fill="#2f8f83" fill-opacity="0.34" stroke="#0e5b52" stroke-width="1.6" />
  <path d="M366.9 296.8 L366.9 300.0 L369.7 300.0 L372.6 300.0 L375.5 300.0 L378.3 300.0 L381.2 300.0 L381.2 296.8 L381.2 293.5 L381.2 290.3 L381.2 287.1 L381.2 283.8 L378.3 283.8 L375.5 283.8 L372.6 283.8 L369.7 283.8 L366.9 283.8 L366.9 287.1 L366.9 290.3 L366.9 293.5 L366.9 296.8 Z" fill="#2f8f83" fill-opacity="0.34" stroke="#0e5b52" stroke-width="1.6" />
  <path d="M366.9 280.6 L366.9 283.8 L369.7 283.8 L372.6 283.8 L375.5 283.8 L378.3 283.8 L381.2 283.8 L381.2 280.6 L381.2 277.4 L384.0 277.4 L386.9 277.4 L389.8 277.4 L392.6 277.4 L392.6 274.2 L389.8 274.2 L386.9 274.2 L384.0 274.2 L381.2 274.2 L381.2 270.9 L378.3 270.9 L375.5 270.9 L372.6 270.9 L369.7 270.9 L366.9 270.9 L366.9 274.2 L366.9 277.4 L366.9 280.6 Z" fill="#2f8f83" fill-opacity="0.34" stroke="#0e5b52" stroke-width="1.6" />
  <path d="M381.2 296.8 L381.2 300.0 L384.0 300.0 L386.9 300.0 L389.8 300.0 L389.8 296.8 L389.8 293.5 L389.8 290.3 L389.8 287.1 L392.6 287.1 L392.6 283.8 L392.6 280.6 L392.6 277.4 L389.8 277.4 L386.9 277.4 L384.0 277.4 L381.2 277.4 L381.2 280.6 L381.2 283.8 L381.2 287.1 L381.2 290.3 L381.2 293.5 L381.2 296.8 Z" fill="#2f8f83" fill-opacity="0.34" stroke="#0e5b52" stroke-width="1.6" />
  <path d="M412.7 300.0 L412.7 303.2 L415.5 303.2 L418.4 303.2 L421.3 303.2 L424.1 303.2 L427.0 303.2 L427.0 300.0 L427.0 296.8 L427.0 293.5 L427.0 290.3 L427.0 287.1 L424.1 287.1 L421.3 287.1 L418.4 287.1 L415.5 287.1 L412.7 287.1 L412.7 290.3 L412.7 293.5 L412.7 296.8 L412.7 300.0 Z" fill="#2f8f83" fill-opacity="0.34" stroke="#0e5b52" stroke-width="1.6" />
  <path d="M415.5 283.8 L415.5 287.1 L418.4 287.1 L421.3 287.1 L424.1 287.1 L427.0 287.1 L429.9 287.1 L432.7 287.1 L432.7 283.8 L432.7 280.6 L432.7 277.4 L432.7 274.2 L429.9 274.2 L427.0 274.2 L424.1 274.2 L421.3 274.2 L418.4 274.2 L415.5 274.2 L415.5 277.4 L415.5 280.6 L415.5 283.8 Z" fill="#2f8f83" fill-opacity="0.34" stroke="#0e5b52" stroke-width="1.6" />
  <path d="M427.0 300.0 L427.0 303.2 L429.9 303.2 L432.7 303.2 L435.6 303.2 L438.4 303.2 L441.3 303.2 L441.3 300.0 L441.3 296.8 L441.3 293.5 L441.3 290.3 L441.3 287.1 L438.4 287.1 L435.6 287.1 L432.7 287.1 L429.9 287.1 L427.0 287.1 L427.0 290.3 L427.0 293.5 L427.0 296.8 L427.0 300.0 Z" fill="#2f8f83" fill-opacity="0.34" stroke="#0e5b52" stroke-width="1.6" />
  <path d="M432.7 283.8 L432.7 287.1 L435.6 287.1 L438.4 287.1 L441.3 287.1 L444.2 287.1 L447.0 287.1 L449.9 287.1 L452.8 287.1 L455.6 287.1 L455.6 283.8 L455.6 280.6 L455.6 277.4 L452.8 277.4 L449.9 277.4 L447.0 277.4 L444.2 277.4 L441.3 277.4 L438.4 277.4 L435.6 277.4 L432.7 277.4 L432.7 280.6 L432.7 283.8 Z" fill="#2f8f83" fill-opacity="0.34" stroke="#0e5b52" stroke-width="1.6" />
  <path d="M444.2 290.3 L447.0 290.3 L449.9 290.3 L452.8 290.3 L455.6 290.3 L458.5 290.3 L461.3 290.3 L464.2 290.3 L467.1 290.3 L467.1 287.1 L467.1 283.8 L467.1 280.6 L467.1 277.4 L467.1 274.2 L464.2 274.2 L461.3 274.2 L458.5 274.2 L455.6 274.2 L455.6 277.4 L455.6 280.6 L455.6 283.8 L455.6 287.1 L452.8 287.1 L449.9 287.1 L447.0 287.1 L444.2 287.1 L441.3 287.1 L441.3 290.3 L444.2 290.3 Z" fill="#2f8f83" fill-opacity="0.34" stroke="#0e5b52" stroke-width="1.6" />
  <path d="M467.1 287.1 L467.1 290.3 L469.9 290.3 L472.8 290.3 L475.7 290.3 L478.5 290.3 L481.4 290.3 L481.4 287.1 L481.4 283.8 L481.4 280.6 L481.4 277.4 L481.4 274.2 L478.5 274.2 L475.7 274.2 L472.8 274.2 L469.9 274.2 L467.1 274.2 L467.1 277.4 L467.1 280.6 L467.1 283.8 L467.1 287.1 Z" fill="#2f8f83" fill-opacity="0.34" stroke="#0e5b52" stroke-width="1.6" />
  <path d="M415.5 225.7 L415.5 228.9 L418.4 228.9 L421.3 228.9 L424.1 228.9 L427.0 228.9 L429.9 228.9 L432.7 228.9 L432.7 225.7 L432.7 222.4 L432.7 219.2 L432.7 216.0 L429.9 216.0 L427.0 216.0 L424.1 216.0 L421.3 216.0 L418.4 216.0 L415.5 216.0 L415.5 219.2 L415.5 222.4 L415.5 225.7 Z" fill="#2f8f83" fill-opacity="0.34" stroke="#0e5b52" stroke-width="1.6" />
  <path d="M444.2 212.7 L444.2 216.0 L447.0 216.0 L447.0 219.2 L447.0 222.4 L449.9 222.4 L452.8 222.4 L455.6 222.4 L458.5 222.4 L461.3 222.4 L464.2 222.4 L464.2 219.2 L464.2 216.0 L464.2 212.7 L461.3 212.7 L461.3 209.5 L458.5 209.5 L455.6 209.5 L452.8 209.5 L449.9 209.5 L447.0 209.5 L444.2 209.5 L444.2 212.7 Z" fill="#2f8f83" fill-opacity="0.34" stroke="#0e5b52" stroke-width="1.6" />
  <path d="M458.5 206.2 L458.5 209.5 L461.3 209.5 L461.3 212.7 L464.2 212.7 L464.2 209.5 L467.1 209.5 L469.9 209.5 L469.9 206.2 L469.9 203.0 L469.9 199.8 L469.9 196.5 L469.9 193.3 L469.9 190.1 L467.1 190.1 L464.2 190.1 L461.3 190.1 L458.5 190.1 L458.5 193.3 L458.5 196.5 L458.5 199.8 L458.5 203.0 L458.5 206.2 Z" fill="#2f8f83" fill-opacity="0.34" stroke="#0e5b52" stroke-width="1.6" />
  <path d="M398.4 235.4 L398.4 238.6 L401.2 238.6 L401.2 235.4 L401.2 232.1 L401.2 228.9 L401.2 225.7 L401.2 222.4 L398.4 222.4 L398.4 225.7 L398.4 228.9 L398.4 232.1 L398.4 235.4 Z" fill="#2f8f83" fill-opacity="0.34" stroke="#0e5b52" stroke-width="1.6" />
  <path d="M361.1 251.5 L361.1 254.8 L364.0 254.8 L366.9 254.8 L369.7 254.8 L372.6 254.8 L372.6 258.0 L375.5 258.0 L378.3 258.0 L381.2 258.0 L381.2 254.8 L381.2 251.5 L381.2 248.3 L381.2 245.1 L378.3 245.1 L375.5 245.1 L372.6 245.1 L369.7 245.1 L366.9 245.1 L364.0 245.1 L361.1 245.1 L361.1 248.3 L361.1 251.5 Z" fill="#2f8f83" fill-opacity="0.34" stroke="#0e5b52" stroke-width="1.6" />
  <path d="M381.2 245.1 L381.2 248.3 L384.0 248.3 L386.9 248.3 L389.8 248.3 L389.8 245.1 L389.8 241.8 L389.8 238.6 L392.6 238.6 L395.5 238.6 L398.4 238.6 L398.4 235.4 L398.4 232.1 L398.4 228.9 L395.5 228.9 L392.6 228.9 L389.8 228.9 L386.9 228.9 L386.9 232.1 L384.0 232.1 L381.2 232.1 L381.2 235.4 L381.2 238.6 L381.2 241.8 L381.2 245.1 Z" fill="#2f8f83" fill-opacity="0.34" stroke="#0e5b52" stroke-width="1.6" />
  <path d="M384.0 225.7 L384.0 228.9 L386.9 228.9 L389.8 228.9 L392.6 228.9 L395.5 228.9 L398.4 228.9 L398.4 225.7 L398.4 222.4 L401.2 222.4 L401.2 219.2 L401.2 216.0 L401.2 212.7 L398.4 212.7 L395.5 212.7 L392.6 212.7 L389.8 212.7 L386.9 212.7 L386.9 216.0 L386.9 219.2 L386.9 222.4 L384.0 222.4 L384.0 225.7 Z" fill="#2f8f83" fill-opacity="0.34" stroke="#0e5b52" stroke-width="1.6" />
  <path d="M364.0 241.8 L364.0 245.1 L366.9 245.1 L369.7 245.1 L372.6 245.1 L375.5 245.1 L378.3 245.1 L381.2 245.1 L381.2 241.8 L381.2 238.6 L381.2 235.4 L381.2 232.1 L378.3 232.1 L375.5 232.1 L372.6 232.1 L369.7 232.1 L366.9 232.1 L364.0 232.1 L364.0 235.4 L364.0 238.6 L364.0 241.8 Z" fill="#2f8f83" fill-opacity="0.34" stroke="#0e5b52" stroke-width="1.6" />
  <path d="M298.2 454.6 L298.2 457.8 L301.0 457.8 L301.0 461.0 L301.0 464.2 L301.0 467.4 L301.0 470.6 L303.9 470.6 L306.7 470.6 L306.7 467.4 L309.6 467.4 L309.6 464.2 L312.5 464.2 L315.3 464.2 L318.2 464.2 L321.1 464.2 L323.9 464.2 L326.8 464.2 L329.6 464.2 L329.6 461.0 L329.6 457.8 L329.6 454.6 L329.6 451.4 L329.6 448.1 L329.6 444.9 L326.8 444.9 L323.9 444.9 L321.1 444.9 L318.2 444.9 L315.3 444.9 L312.5 444.9 L309.6 444.9 L306.7 444.9 L306.7 448.1 L303.9 448.1 L303.9 451.4 L301.0 451.4 L298.2 451.4 L298.2 454.6 Z" fill="#2f8f83" fill-opacity="0.34" stroke="#0e5b52" stroke-width="1.6" />
  <path d="M281.0 425.6 L281.0 428.9 L283.8 428.9 L283.8 432.1 L283.8 435.3 L283.8 438.5 L286.7 438.5 L286.7 441.7 L289.6 441.7 L292.4 441.7 L292.4 444.9 L295.3 444.9 L295.3 448.1 L295.3 451.4 L298.2 451.4 L301.0 451.4 L303.9 451.4 L303.9 448.1 L306.7 448.1 L306.7 444.9 L306.7 441.7 L306.7 438.5 L306.7 435.3 L306.7 432.1 L303.9 432.1 L303.9 428.9 L301.0 428.9 L301.0 425.6 L301.0 422.4 L301.0 419.2 L301.0 416.0 L301.0 412.8 L303.9 412.8 L306.7 412.8 L309.6 412.8 L312.5 412.8 L312.5 409.6 L312.5 406.3 L309.6 406.3 L306.7 406.3 L306.7 403.1 L306.7 399.9 L306.7 396.7 L303.9 396.7 L303.9 399.9 L301.0 399.9 L298.2 399.9 L298.2 403.1 L298.2 406.3 L295.3 406.3 L292.4 406.3 L289.6 406.3 L286.7 406.3 L286.7 409.6 L286.7 412.8 L286.7 416.0 L283.8 416.0 L283.8 419.2 L281.0 419.2 L281.0 422.4 L281.0 425.6 Z" fill="#2f8f83" fill-opacity="0.34" stroke="#0e5b52" stroke-width="1.6" />
  <path d="M515.8 512.3 L515.8 515.5 L518.6 515.5 L521.5 515.5 L524.3 515.5 L527.2 515.5 L527.2 518.7 L530.1 518.7 L532.9 518.7 L535.8 518.7 L535.8 521.9 L538.7 521.9 L538.7 518.7 L538.7 515.5 L541.5 515.5 L544.4 515.5 L547.2 515.5 L547.2 512.3 L550.1 512.3 L550.1 509.1 L553.0 509.1 L553.0 505.9 L555.8 505.9 L558.7 505.9 L558.7 502.7 L561.6 502.7 L561.6 499.5 L564.4 499.5 L567.3 499.5 L567.3 496.3 L567.3 493.1 L570.1 493.1 L570.1 489.9 L573.0 489.9 L573.0 486.7 L570.1 486.7 L567.3 486.7 L567.3 483.5 L567.3 480.2 L567.3 477.0 L567.3 473.8 L564.4 473.8 L564.4 477.0 L561.6 477.0 L561.6 480.2 L558.7 480.2 L558.7 483.5 L555.8 483.5 L555.8 486.7 L553.0 486.7 L553.0 489.9 L550.1 489.9 L547.2 489.9 L547.2 493.1 L544.4 493.1 L544.4 496.3 L541.5 496.3 L541.5 499.5 L538.7 499.5 L538.7 502.7 L535.8 502.7 L532.9 502.7 L532.9 505.9 L530.1 505.9 L527.2 505.9 L524.3 505.9 L524.3 509.1 L521.5 509.1 L518.6 509.1 L515.8 509.1 L515.8 512.3 Z" fill="#2f8f83" fill-opacity="0.34" stroke="#0e5b52" stroke-width="1.6" />
  <path d="M541.5 216.0 L541.5 219.2 L544.4 219.2 L547.2 219.2 L550.1 219.2 L553.0 219.2 L555.8 219.2 L558.7 219.2 L558.7 216.0 L561.6 216.0 L564.4 216.0 L567.3 216.0 L567.3 212.7 L570.1 212.7 L573.0 212.7 L575.9 212.7 L575.9 209.5 L575.9 206.2 L575.9 203.0 L578.7 203.0 L581.6 203.0 L584.5 203.0 L584.5 199.8 L584.5 196.5 L581.6 196.5 L578.7 196.5 L575.9 196.5 L573.0 196.5 L570.1 196.5 L567.3 196.5 L564.4 196.5 L561.6 196.5 L561.6 193.3 L558.7 193.3 L555.8 193.3 L553.0 193.3 L550.1 193.3 L547.2 193.3 L544.4 193.3 L541.5 193.3 L541.5 196.5 L541.5 199.8 L541.5 203.0 L541.5 206.2 L541.5 209.5 L541.5 212.7 L541.5 216.0 Z" fill="#2f8f83" fill-opacity="0.34" stroke="#0e5b52" stroke-width="1.6" />
  <path d="M415.5 190.1 L418.4 190.1 L421.3 190.1 L424.1 190.1 L427.0 190.1 L429.9 190.1 L432.7 190.1 L435.6 190.1 L438.4 190.1 L441.3 190.1 L444.2 190.1 L447.0 190.1 L449.9 190.1 L452.8 190.1 L452.8 186.8 L452.8 183.6 L452.8 180.3 L452.8 177.1 L452.8 173.9 L452.8 170.6 L452.8 167.4 L452.8 164.1 L452.8 160.9 L452.8 157.7 L449.9 157.7 L449.9 160.9 L447.0 160.9 L444.2 160.9 L444.2 164.1 L441.3 164.1 L438.4 164.1 L438.4 167.4 L435.6 167.4 L432.7 167.4 L432.7 170.6 L429.9 170.6 L429.9 173.9 L427.0 173.9 L424.1 173.9 L424.1 177.1 L421.3 177.1 L418.4 177.1 L418.4 180.3 L415.5 180.3 L415.5 183.6 L415.5 186.8 L412.7 186.8 L412.7 190.1 L415.5 190.1 Z" fill="#2f8f83" fill-opacity="0.34" stroke="#0e5b52" stroke-width="1.6" />
  <path d="M452.8 186.8 L452.8 190.1 L455.6 190.1 L458.5 190.1 L461.3 190.1 L464.2 190.1 L467.1 190.1 L469.9 190.1 L472.8 190.1 L475.7 190.1 L478.5 190.1 L481.4 190.1 L484.3 190.1 L487.1 190.1 L490.0 190.1 L492.8 190.1 L495.7 190.1 L498.6 190.1 L501.4 190.1 L504.3 190.1 L507.2 190.1 L510.0 190.1 L512.9 190.1 L515.7 190.1 L515.7 186.8 L515.7 183.6 L518.6 183.6 L521.5 183.6 L524.3 183.6 L527.2 183.6 L527.2 180.3 L527.2 177.1 L524.3 177.1 L521.5 177.1 L518.6 177.1 L515.7 177.1 L512.9 177.1 L510.0 177.1 L507.2 177.1 L504.3 177.1 L501.4 177.1 L498.6 177.1 L495.7 177.1 L492.8 177.1 L490.0 177.1 L487.1 177.1 L484.3 177.1 L481.4 177.1 L478.5 177.1 L475.7 177.1 L472.8 177.1 L469.9 177.1 L467.1 177.1 L464.2 177.1 L461.3 177.1 L458.5 177.1 L455.6 177.1 L452.8 177.1 L452.8 180.3 L452.8 183.6 L452.8 186.8 Z" fill="#2f8f83" fill-opacity="0.34" stroke="#0e5b52" stroke-width="1.6" />
  <path d="M498.6 173.9 L498.6 177.1 L501.4 177.1 L504.3 177.1 L507.2 177.1 L510.0 177.1 L512.9 177.1 L515.7 177.1 L518.6 177.1 L521.5 177.1 L524.3 177.1 L527.2 177.1 L527.2 173.9 L527.2 170.6 L527.2 167.4 L527.2 164.1 L527.2 160.9 L527.2 157.7 L527.2 154.4 L527.2 151.2 L524.3 151.2 L521.5 151.2 L518.6 151.2 L515.7 151.2 L512.9 151.2 L512.9 147.9 L512.9 144.7 L510.0 144.7 L510.0 141.4 L507.2 141.4 L507.2 138.2 L504.3 138.2 L504.3 134.9 L504.3 131.7 L504.3 128.5 L504.3 125.2 L501.4 125.2 L501.4 128.5 L501.4 131.7 L501.4 134.9 L501.4 138.2 L501.4 141.4 L498.6 141.4 L498.6 144.7 L498.6 147.9 L498.6 151.2 L498.6 154.4 L498.6 157.7 L498.6 160.9 L498.6 164.1 L498.6 167.4 L498.6 170.6 L498.6 173.9 Z" fill="#2f8f83" fill-opacity="0.34" stroke="#0e5b52" stroke-width="1.6" />
  <path d="M478.5 173.9 L478.5 177.1 L481.4 177.1 L484.3 177.1 L487.1 177.1 L490.0 177.1 L492.8 177.1 L495.7 177.1 L498.6 177.1 L498.6 173.9 L498.6 170.6 L498.6 167.4 L498.6 164.1 L498.6 160.9 L498.6 157.7 L498.6 154.4 L498.6 151.2 L498.6 147.9 L498.6 144.7 L498.6 141.4 L501.4 141.4 L501.4 138.2 L501.4 134.9 L501.4 131.7 L501.4 128.5 L501.4 125.2 L501.4 122.0 L501.4 118.7 L498.6 118.7 L495.7 118.7 L492.8 118.7 L492.8 122.0 L492.8 125.2 L490.0 125.2 L490.0 128.5 L490.0 131.7 L490.0 135.0 L490.0 138.2 L490.0 141.4 L487.1 141.4 L484.2 141.4 L481.4 141.4 L481.4 144.7 L481.4 147.9 L481.4 151.2 L478.5 151.2 L478.5 154.4 L478.5 157.7 L478.5 160.9 L478.5 164.1 L478.5 167.4 L478.5 170.6 L478.5 173.9 Z" fill="#2f8f83" fill-opacity="0.34" stroke="#0e5b52" stroke-width="1.6" />
  <path d="M452.8 177.1 L455.6 177.1 L458.5 177.1 L461.3 177.1 L464.2 177.1 L467.1 177.1 L469.9 177.1 L472.8 177.1 L475.7 177.1 L478.5 177.1 L478.5 173.9 L478.5 170.6 L478.5 167.4 L478.5 164.1 L478.5 160.9 L478.5 157.7 L478.5 154.4 L478.5 151.2 L481.4 151.2 L481.4 147.9 L481.4 144.7 L481.4 141.4 L484.2 141.4 L487.1 141.4 L490.0 141.4 L490.0 138.2 L490.0 135.0 L490.0 131.7 L490.0 128.5 L490.0 125.2 L492.8 125.2 L492.8 122.0 L490.0 122.0 L487.1 122.0 L487.1 125.2 L484.2 125.2 L481.4 125.2 L481.4 128.5 L481.4 131.7 L481.4 135.0 L481.4 138.2 L478.5 138.2 L475.7 138.2 L475.7 141.4 L472.8 141.4 L472.8 144.7 L469.9 144.7 L469.9 147.9 L467.1 147.9 L464.2 147.9 L464.2 151.2 L461.3 151.2 L461.3 154.4 L458.5 154.4 L455.6 154.4 L455.6 157.7 L452.8 157.7 L452.8 160.9 L452.8 164.1 L452.8 167.4 L452.8 170.6 L452.8 173.9 L452.8 177.1 Z" fill="#2f8f83" fill-opacity="0.34" stroke="#0e5b52" stroke-width="1.6" />
  <!-- title strip -->
  <rect x="0" y="0" width="1000" height="54" fill="#173042" />
  <text x="20" y="34" font-size="21" font-weight="bold" fill="#ffffff">Surge Copper Corp. — Mineral Claims</text>
  <text x="980" y="34" font-size="15" fill="#cfe3df" text-anchor="end">SURG</text>
  <!-- scale bar -->
  <g transform="translate(820.9086626380104, 596)">
    <rect x="0" y="0" width="69.54566868099485" height="8" fill="#173042" />
    <rect x="69.54566868099485" y="0" width="69.54566868099485" height="8" fill="#ffffff" stroke="#173042" stroke-width="1" />
    <text x="69.54566868099485" y="-6" font-size="12" fill="#173042" text-anchor="middle">20 km</text>
  </g>
  <!-- north arrow -->
  <g transform="translate(956, 92)">
    <circle r="17" fill="#ffffff" stroke="#b9b09a" />
    <path d="M0 -10 L5 7 L0 3 L-5 7 Z" fill="#173042" />
    <text y="14" font-size="9" font-weight="bold" fill="#173042" text-anchor="middle">N</text>
  </g>
  <!-- watermark -->
  <text x="20" y="620" font-size="13" fill="#7d8b8a">Map by Exploration Maps — explorationmaps.com</text>
</svg>