<svg xmlns="http://www.w3.org/2000/svg" viewBox="0 0 1000 640" font-family="Arial, Helvetica, sans-serif">
  <rect width="1000" height="640" fill="#f3efe6" />
  <line x1="200" y1="0" x2="200" y2="640" stroke="#d9d2c0" stroke-width="0.7" />
  <line x1="0" y1="128" x2="1000" y2="128" stroke="#d9d2c0" stroke-width="0.7" />
  <line x1="400" y1="0" x2="400" y2="640" stroke="#d9d2c0" stroke-width="0.7" />
  <line x1="0" y1="256" x2="1000" y2="256" stroke="#d9d2c0" stroke-width="0.7" />
  <line x1="600" y1="0" x2="600" y2="640" stroke="#d9d2c0" stroke-width="0.7" />
  <line x1="0" y1="384" x2="1000" y2="384" stroke="#d9d2c0" stroke-width="0.7" />
  <line x1="800" y1="0" x2="800" y2="640" stroke="#d9d2c0" stroke-width="0.7" />
  <line x1="0" y1="512" x2="1000" y2="512" stroke="#d9d2c0" stroke-width="0.7" />
  <path d="M318.7 129.6 L318.7 129.8 L318.9 129.8 L319.0 129.8 L319.0 130.0 L319.2 130.0 L319.3 130.0 L319.5 130.0 L319.6 130.0 L319.6 130.2 L319.8 130.2 L320.0 130.2 L320.1 130.2 L320.3 130.2 L320.4 130.2 L320.6 130.2 L320.6 130.0 L320.7 130.0 L320.7 129.8 L320.9 129.8 L321.0 129.8 L321.0 129.6 L321.0 129.4 L320.9 129.4 L320.7 129.4 L320.7 129.2 L320.6 129.2 L320.6 129.0 L320.4 129.0 L320.3 129.0 L320.1 129.0 L320.0 129.0 L319.8 129.0 L319.6 129.0 L319.6 129.2 L319.5 129.2 L319.3 129.2 L319.3 129.4 L319.2 129.4 L319.0 129.4 L318.9 129.4 L318.7 129.4 L318.7 129.6 Z" fill="#2f8f83" fill-opacity="0.34" stroke="#0e5b52" stroke-width="1.6" />
  <path d="M319.6 128.8 L319.6 129.0 L319.8 129.0 L320.0 129.0 L320.1 129.0 L320.3 129.0 L320.4 129.0 L320.4 128.8 L320.4 128.6 L320.3 128.6 L320.1 128.6 L320.0 128.6 L319.8 128.6 L319.6 128.6 L319.6 128.8 Z" fill="#2f8f83" fill-opacity="0.34" stroke="#0e5b52" stroke-width="1.6" />
  <path d="M329.4 131.0 L329.4 131.2 L329.6 131.2 L329.7 131.2 L329.7 131.4 L329.9 131.4 L330.1 131.4 L330.2 131.4 L330.4 131.4 L330.5 131.4 L330.5 131.2 L330.7 131.2 L330.7 131.0 L330.8 131.0 L330.8 130.8 L330.8 130.6 L330.8 130.4 L330.8 130.2 L330.8 130.0 L330.8 129.8 L330.8 129.6 L330.8 129.4 L330.7 129.4 L330.5 129.4 L330.4 129.4 L330.2 129.4 L330.1 129.4 L329.9 129.4 L329.9 129.6 L329.9 129.8 L329.9 130.0 L329.9 130.2 L329.9 130.4 L329.7 130.4 L329.6 130.4 L329.4 130.4 L329.4 130.6 L329.4 130.8 L329.4 131.0 Z" fill="#2f8f83" fill-opacity="0.34" stroke="#0e5b52" stroke-width="1.6" />
  <path d="M318.2 129.4 L318.2 129.6 L318.4 129.6 L318.4 129.8 L318.6 129.8 L318.6 130.0 L318.7 130.0 L318.7 130.2 L318.9 130.2 L318.9 130.4 L319.0 130.4 L319.2 130.4 L319.3 130.4 L319.3 130.6 L319.5 130.6 L319.6 130.6 L319.8 130.6 L320.0 130.6 L320.1 130.6 L320.3 130.6 L320.4 130.6 L320.6 130.6 L320.7 130.6 L320.9 130.6 L320.9 130.4 L321.0 130.4 L321.2 130.4 L321.2 130.2 L321.0 130.2 L321.0 130.0 L321.0 129.8 L320.9 129.8 L320.7 129.8 L320.7 130.0 L320.6 130.0 L320.6 130.2 L320.4 130.2 L320.3 130.2 L320.1 130.2 L320.0 130.2 L319.8 130.2 L319.6 130.2 L319.6 130.0 L319.5 130.0 L319.3 130.0 L319.2 130.0 L319.0 130.0 L319.0 129.8 L318.9 129.8 L318.7 129.8 L318.7 129.6 L318.7 129.4 L318.9 129.4 L319.0 129.4 L319.2 129.4 L319.3 129.4 L319.3 129.2 L319.5 129.2 L319.6 129.2 L319.6 129.0 L319.6 128.8 L319.6 128.6 L319.8 128.6 L320.0 128.6 L320.1 128.6 L320.3 128.6 L320.3 128.3 L320.3 128.1 L320.1 128.1 L320.1 127.9 L320.1 127.7 L320.0 127.7 L319.8 127.7 L319.6 127.7 L319.5 127.7 L319.3 127.7 L319.3 127.9 L319.2 127.9 L319.2 128.1 L319.0 128.1 L319.0 128.3 L318.9 128.3 L318.9 128.6 L318.7 128.6 L318.7 128.8 L318.6 128.8 L318.6 129.0 L318.4 129.0 L318.4 129.2 L318.2 129.2 L318.2 129.4 Z" fill="#2f8f83" fill-opacity="0.34" stroke="#0e5b52" stroke-width="1.6" />
  <path d="M320.0 130.8 L320.1 130.8 L320.3 130.8 L320.3 131.0 L320.4 131.0 L320.6 131.0 L320.6 131.2 L320.7 131.2 L320.9 131.2 L321.0 131.2 L321.2 131.2 L321.2 131.4 L321.4 131.4 L321.5 131.4 L321.7 131.4 L321.8 131.4 L322.0 131.4 L322.1 131.4 L322.1 131.2 L322.1 131.0 L322.0 131.0 L321.8 131.0 L321.7 131.0 L321.7 130.8 L321.7 130.6 L321.5 130.6 L321.4 130.6 L321.4 130.4 L321.2 130.4 L321.0 130.4 L320.9 130.4 L320.9 130.6 L320.7 130.6 L320.6 130.6 L320.4 130.6 L320.3 130.6 L320.1 130.6 L320.0 130.6 L319.8 130.6 L319.8 130.8 L320.0 130.8 Z" fill="#2f8f83" fill-opacity="0.34" stroke="#0e5b52" stroke-width="1.6" />
  <path d="M328.5 131.0 L328.7 131.0 L328.7 131.2 L328.8 131.2 L328.8 131.4 L329.0 131.4 L329.0 131.6 L329.1 131.6 L329.1 131.8 L329.3 131.8 L329.4 131.8 L329.6 131.8 L329.7 131.8 L329.9 131.8 L330.1 131.8 L330.2 131.8 L330.4 131.8 L330.5 131.8 L330.7 131.8 L330.7 131.6 L330.8 131.6 L330.8 131.4 L331.0 131.4 L331.0 131.2 L331.1 131.2 L331.1 131.0 L331.1 130.8 L331.1 130.6 L331.1 130.4 L331.1 130.2 L331.1 130.0 L331.1 129.8 L331.1 129.6 L331.1 129.4 L331.1 129.2 L331.0 129.2 L331.0 129.0 L330.8 129.0 L330.8 128.8 L330.7 128.8 L330.7 128.6 L330.5 128.6 L330.5 128.3 L330.4 128.3 L330.2 128.3 L330.1 128.3 L329.9 128.3 L329.9 128.6 L329.9 128.8 L329.9 129.0 L329.9 129.2 L329.9 129.4 L330.1 129.4 L330.2 129.4 L330.4 129.4 L330.5 129.4 L330.7 129.4 L330.8 129.4 L330.8 129.6 L330.8 129.8 L330.8 130.0 L330.8 130.2 L330.8 130.4 L330.8 130.6 L330.8 130.8 L330.8 131.0 L330.7 131.0 L330.7 131.2 L330.5 131.2 L330.5 131.4 L330.4 131.4 L330.2 131.4 L330.1 131.4 L329.9 131.4 L329.7 131.4 L329.7 131.2 L329.6 131.2 L329.4 131.2 L329.4 131.0 L329.4 130.8 L329.4 130.6 L329.3 130.6 L329.1 130.6 L329.0 130.6 L328.8 130.6 L328.7 130.6 L328.5 130.6 L328.3 130.6 L328.3 130.8 L328.5 130.8 L328.5 131.0 Z" fill="#2f8f83" fill-opacity="0.34" stroke="#0e5b52" stroke-width="1.6" />
  <path d="M328.2 130.4 L328.2 130.6 L328.3 130.6 L328.5 130.6 L328.7 130.6 L328.8 130.6 L329.0 130.6 L329.1 130.6 L329.3 130.6 L329.4 130.6 L329.4 130.4 L329.6 130.4 L329.7 130.4 L329.9 130.4 L329.9 130.2 L329.9 130.0 L329.9 129.8 L329.9 129.6 L329.9 129.4 L329.9 129.2 L329.9 129.0 L329.9 128.8 L329.9 128.6 L329.9 128.3 L329.7 128.3 L329.6 128.3 L329.4 128.3 L329.4 128.6 L329.3 128.6 L329.3 128.8 L329.1 128.8 L329.1 129.0 L329.0 129.0 L329.0 129.2 L328.8 129.2 L328.7 129.2 L328.5 129.2 L328.3 129.2 L328.2 129.2 L328.2 129.4 L328.2 129.6 L328.2 129.8 L328.2 130.0 L328.2 130.2 L328.2 130.4 Z" fill="#2f8f83" fill-opacity="0.34" stroke="#0e5b52" stroke-width="1.6" />
  <path d="M320.6 128.8 L320.7 128.8 L320.7 128.6 L320.9 128.6 L320.9 128.3 L321.0 128.3 L321.0 128.1 L321.0 127.9 L320.9 127.9 L320.7 127.9 L320.7 128.1 L320.7 128.3 L320.6 128.3 L320.6 128.6 L320.4 128.6 L320.4 128.8 L320.6 128.8 Z" fill="#2f8f83" fill-opacity="0.34" stroke="#0e5b52" stroke-width="1.6" />
  <path d="M326.8 131.0 L326.8 131.2 L326.9 131.2 L327.1 131.2 L327.1 131.0 L327.1 130.8 L326.9 130.8 L326.8 130.8 L326.8 131.0 Z" fill="#2f8f83" fill-opacity="0.34" stroke="#0e5b52" stroke-width="1.6" />
  <path d="M601.9 473.1 L601.9 473.2 L601.9 473.4 L601.9 473.6 L601.9 473.7 L602.1 473.7 L602.2 473.7 L602.4 473.7 L602.5 473.7 L602.7 473.7 L602.8 473.7 L603.0 473.7 L603.1 473.7 L603.1 473.6 L603.0 473.6 L602.8 473.6 L602.7 473.6 L602.5 473.6 L602.4 473.6 L602.2 473.6 L602.2 473.4 L602.2 473.2 L602.2 473.1 L602.2 472.9 L602.1 472.9 L601.9 472.9 L601.9 473.1 Z" fill="#2f8f83" fill-opacity="0.34" stroke="#0e5b52" stroke-width="1.6" />
  <path d="M601.6 473.1 L601.6 473.2 L601.6 473.4 L601.6 473.6 L601.6 473.7 L601.6 473.9 L601.6 474.1 L601.7 474.1 L601.7 473.9 L601.7 473.7 L601.7 473.6 L601.7 473.4 L601.7 473.2 L601.7 473.1 L601.7 472.9 L601.6 472.9 L601.6 473.1 Z" fill="#2f8f83" fill-opacity="0.34" stroke="#0e5b52" stroke-width="1.6" />
  <path d="M601.7 473.1 L601.7 473.2 L601.7 473.4 L601.7 473.6 L601.7 473.7 L601.7 473.9 L601.7 474.1 L601.9 474.1 L602.1 474.1 L602.1 473.9 L602.2 473.9 L602.4 473.9 L602.4 473.7 L602.2 473.7 L602.1 473.7 L601.9 473.7 L601.9 473.6 L601.9 473.4 L601.9 473.2 L601.9 473.1 L601.9 472.9 L601.7 472.9 L601.7 473.1 Z" fill="#2f8f83" fill-opacity="0.34" stroke="#0e5b52" stroke-width="1.6" />
  <path d="M322.3 131.0 L322.4 131.0 L322.4 131.2 L322.6 131.2 L322.6 131.4 L322.8 131.4 L322.8 131.6 L322.9 131.6 L323.1 131.6 L323.2 131.6 L323.2 131.4 L323.2 131.2 L323.1 131.2 L323.1 131.0 L322.9 131.0 L322.9 130.8 L322.8 130.8 L322.8 130.6 L322.6 130.6 L322.6 130.4 L322.4 130.4 L322.3 130.4 L322.3 130.6 L322.3 130.8 L322.3 131.0 Z" fill="#2f8f83" fill-opacity="0.34" stroke="#0e5b52" stroke-width="1.6" />
  <path d="M602.4 473.1 L602.2 473.1 L602.2 473.2 L602.4 473.2 L602.4 473.1 Z" fill="#2f8f83" fill-opacity="0.34" stroke="#0e5b52" stroke-width="1.6" />
  <path d="M602.4 473.4 L602.2 473.4 L602.2 473.6 L602.4 473.6 L602.5 473.6 L602.7 473.6 L602.7 473.4 L602.5 473.4 L602.4 473.4 Z" fill="#2f8f83" fill-opacity="0.34" stroke="#0e5b52" stroke-width="1.6" />
  <path d="M603.3 472.2 L603.1 472.2 L603.1 472.4 L603.3 472.4 L603.3 472.2 Z" fill="#2f8f83" fill-opacity="0.34" stroke="#0e5b52" stroke-width="1.6" />
  <path d="M603.3 472.4 L603.3 472.6 L603.3 472.7 L603.5 472.7 L603.5 472.9 L603.6 472.9 L603.8 472.9 L603.9 472.9 L603.9 473.1 L603.9 473.2 L603.9 473.4 L603.9 473.6 L603.8 473.6 L603.6 473.6 L603.5 473.6 L603.3 473.6 L603.1 473.6 L603.1 473.7 L603.3 473.7 L603.5 473.7 L603.6 473.7 L603.8 473.7 L603.9 473.7 L604.1 473.7 L604.1 473.6 L604.1 473.4 L604.1 473.2 L604.1 473.1 L604.1 472.9 L604.1 472.7 L603.9 472.7 L603.8 472.7 L603.6 472.7 L603.6 472.6 L603.5 472.6 L603.5 472.4 L603.5 472.2 L603.3 472.2 L603.3 472.4 Z" fill="#2f8f83" fill-opacity="0.34" stroke="#0e5b52" stroke-width="1.6" />
  <path d="M455.9 527.2 L455.7 527.2 L455.7 527.3 L455.9 527.3 L455.9 527.2 Z" fill="#2f8f83" fill-opacity="0.34" stroke="#0e5b52" stroke-width="1.6" />
  <path d="M322.4 127.7 L322.4 127.9 L322.6 127.9 L322.8 127.9 L322.8 127.7 L322.8 127.5 L322.6 127.5 L322.4 127.5 L322.4 127.7 Z" fill="#2f8f83" fill-opacity="0.34" stroke="#0e5b52" stroke-width="1.6" />
  <path d="M602.7 472.9 L602.7 473.1 L602.7 473.2 L602.7 473.4 L602.8 473.4 L602.8 473.2 L602.8 473.1 L603.0 473.1 L603.0 473.2 L603.0 473.4 L603.1 473.4 L603.1 473.2 L603.3 473.2 L603.3 473.1 L603.5 473.1 L603.5 472.9 L603.5 472.7 L603.3 472.7 L603.1 472.7 L603.0 472.7 L602.8 472.7 L602.7 472.7 L602.7 472.9 Z" fill="#2f8f83" fill-opacity="0.34" stroke="#0e5b52" stroke-width="1.6" />
  <path d="M455.9 527.0 L455.7 527.0 L455.7 527.2 L455.9 527.2 L455.9 527.0 Z" fill="#2f8f83" fill-opacity="0.34" stroke="#0e5b52" stroke-width="1.6" />
  <path d="M455.9 526.8 L456.0 526.8 L456.2 526.8 L456.3 526.8 L456.5 526.8 L456.5 526.7 L456.3 526.7 L456.2 526.7 L456.0 526.7 L455.9 526.7 L455.7 526.7 L455.7 526.8 L455.9 526.8 Z" fill="#2f8f83" fill-opacity="0.34" stroke="#0e5b52" stroke-width="1.6" />
  <path d="M321.0 130.2 L321.2 130.2 L321.2 130.4 L321.4 130.4 L321.4 130.6 L321.5 130.6 L321.7 130.6 L321.7 130.8 L321.7 131.0 L321.8 131.0 L322.0 131.0 L322.1 131.0 L322.3 131.0 L322.3 130.8 L322.3 130.6 L322.3 130.4 L322.3 130.2 L322.1 130.2 L322.1 130.0 L322.0 130.0 L322.0 129.8 L321.8 129.8 L321.7 129.8 L321.7 129.6 L321.7 129.4 L321.5 129.4 L321.4 129.4 L321.2 129.4 L321.0 129.4 L321.0 129.6 L321.0 129.8 L321.0 130.0 L321.0 130.2 Z" fill="#2f8f83" fill-opacity="0.34" stroke="#0e5b52" stroke-width="1.6" />
  <path d="M602.4 473.2 L602.2 473.2 L602.2 473.4 L602.4 473.4 L602.5 473.4 L602.7 473.4 L602.7 473.2 L602.5 473.2 L602.4 473.2 Z" fill="#2f8f83" fill-opacity="0.34" stroke="#0e5b52" stroke-width="1.6" />
  <path d="M456.0 527.0 L455.9 527.0 L455.9 527.2 L456.0 527.2 L456.0 527.0 Z" fill="#2f8f83" fill-opacity="0.34" stroke="#0e5b52" stroke-width="1.6" />
  <path d="M318.2 129.0 L318.2 129.2 L318.4 129.2 L318.4 129.0 L318.6 129.0 L318.6 128.8 L318.4 128.8 L318.2 128.8 L318.2 129.0 Z" fill="#2f8f83" fill-opacity="0.34" stroke="#0e5b52" stroke-width="1.6" />
  <path d="M602.4 472.9 L602.2 472.9 L602.2 473.1 L602.4 473.1 L602.4 473.2 L602.5 473.2 L602.7 473.2 L602.7 473.1 L602.7 472.9 L602.5 472.9 L602.4 472.9 Z" fill="#2f8f83" fill-opacity="0.34" stroke="#0e5b52" stroke-width="1.6" />
  <path d="M602.8 473.2 L602.8 473.4 L603.0 473.4 L603.0 473.2 L603.0 473.1 L602.8 473.1 L602.8 473.2 Z" fill="#2f8f83" fill-opacity="0.34" stroke="#0e5b52" stroke-width="1.6" />
  <path d="M602.8 473.4 L602.7 473.4 L602.7 473.6 L602.8 473.6 L603.0 473.6 L603.1 473.6 L603.1 473.4 L603.0 473.4 L602.8 473.4 Z" fill="#2f8f83" fill-opacity="0.34" stroke="#0e5b52" stroke-width="1.6" />
  <path d="M386.8 174.0 L386.9 174.0 L386.9 174.2 L387.1 174.2 L387.1 174.4 L387.1 174.6 L387.2 174.6 L387.2 174.8 L387.4 174.8 L387.4 175.0 L387.4 175.2 L387.4 175.4 L387.4 175.6 L387.4 175.8 L387.4 176.0 L387.4 176.2 L387.4 176.4 L387.4 176.6 L387.5 176.6 L387.7 176.6 L387.8 176.6 L387.8 176.4 L387.7 176.4 L387.7 176.2 L387.7 176.0 L387.7 175.8 L387.7 175.6 L387.7 175.4 L387.7 175.2 L387.8 175.2 L387.8 175.0 L387.8 174.8 L387.8 174.6 L387.7 174.6 L387.7 174.4 L387.5 174.4 L387.4 174.4 L387.2 174.4 L387.2 174.2 L387.2 174.0 L387.1 174.0 L387.1 173.8 L386.9 173.8 L386.8 173.8 L386.8 174.0 Z" fill="#2f8f83" fill-opacity="0.34" stroke="#0e5b52" stroke-width="1.6" />
  <path d="M386.9 172.8 L387.1 172.8 L387.2 172.8 L387.4 172.8 L387.5 172.8 L387.5 173.0 L387.7 173.0 L387.7 173.2 L387.7 173.4 L387.8 173.4 L387.8 173.6 L388.0 173.6 L388.0 173.8 L388.2 173.8 L388.2 174.0 L388.3 174.0 L388.3 174.2 L388.5 174.2 L388.5 174.4 L388.6 174.4 L388.8 174.4 L388.9 174.4 L388.9 174.6 L388.9 174.8 L388.9 175.0 L388.9 175.2 L388.8 175.2 L388.6 175.2 L388.6 175.4 L388.6 175.6 L388.6 175.8 L388.6 176.0 L388.6 176.2 L388.6 176.4 L388.5 176.4 L388.3 176.4 L388.3 176.6 L388.3 176.8 L388.2 176.8 L388.0 176.8 L387.8 176.8 L387.7 176.8 L387.7 177.0 L387.8 177.0 L388.0 177.0 L388.2 177.0 L388.3 177.0 L388.5 177.0 L388.6 177.0 L388.8 177.0 L388.8 176.8 L388.8 176.6 L388.8 176.4 L388.8 176.2 L388.8 176.0 L388.8 175.8 L388.8 175.6 L388.8 175.4 L388.9 175.4 L389.1 175.4 L389.1 175.2 L389.1 175.0 L389.1 174.8 L389.1 174.6 L389.1 174.4 L389.1 174.2 L388.9 174.2 L388.8 174.2 L388.6 174.2 L388.6 174.0 L388.5 174.0 L388.5 173.8 L388.3 173.8 L388.3 173.6 L388.2 173.6 L388.2 173.4 L388.0 173.4 L388.0 173.2 L387.8 173.2 L387.8 173.0 L387.8 172.8 L387.7 172.8 L387.7 172.6 L387.5 172.6 L387.4 172.6 L387.2 172.6 L387.1 172.6 L386.9 172.6 L386.8 172.6 L386.8 172.8 L386.9 172.8 Z" fill="#2f8f83" fill-opacity="0.34" stroke="#0e5b52" stroke-width="1.6" />
  <path d="M386.3 173.4 L386.3 173.6 L386.4 173.6 L386.6 173.6 L386.6 173.4 L386.4 173.4 L386.4 173.2 L386.3 173.2 L386.1 173.2 L386.1 173.4 L386.3 173.4 Z" fill="#2f8f83" fill-opacity="0.34" stroke="#0e5b52" stroke-width="1.6" />
  <path d="M578.6 443.6 L578.6 443.7 L578.6 443.9 L578.6 444.1 L578.8 444.1 L578.9 444.1 L578.9 444.2 L578.9 444.4 L578.9 444.6 L579.1 444.6 L579.2 444.6 L579.4 444.6 L579.5 444.6 L579.7 444.6 L579.8 444.6 L580.0 444.6 L580.2 444.6 L580.3 444.6 L580.5 444.6 L580.6 444.6 L580.6 444.4 L580.6 444.2 L580.8 444.2 L580.8 444.1 L580.9 444.1 L580.9 443.9 L581.1 443.9 L581.1 443.7 L581.1 443.6 L580.9 443.6 L580.8 443.6 L580.6 443.6 L580.5 443.6 L580.3 443.6 L580.2 443.6 L580.0 443.6 L579.8 443.6 L579.7 443.6 L579.7 443.4 L579.7 443.2 L579.5 443.2 L579.5 443.1 L579.4 443.1 L579.2 443.1 L579.2 442.9 L579.1 442.9 L578.9 442.9 L578.9 443.1 L578.9 443.2 L578.9 443.4 L578.8 443.4 L578.6 443.4 L578.6 443.6 Z" fill="#2f8f83" fill-opacity="0.34" stroke="#0e5b52" stroke-width="1.6" />
  <path d="M578.9 444.7 L578.9 444.9 L578.9 445.1 L578.9 445.2 L578.9 445.4 L578.9 445.6 L578.9 445.8 L579.1 445.8 L579.2 445.8 L579.4 445.8 L579.5 445.8 L579.7 445.8 L579.8 445.8 L580.0 445.8 L580.2 445.8 L580.3 445.8 L580.5 445.8 L580.6 445.8 L580.8 445.8 L580.9 445.8 L581.1 445.8 L581.1 445.6 L581.1 445.4 L581.1 445.2 L581.1 445.1 L581.1 444.9 L581.1 444.7 L580.9 444.7 L580.8 444.7 L580.6 444.7 L580.6 444.6 L580.5 444.6 L580.3 444.6 L580.2 444.6 L580.0 444.6 L579.8 444.6 L579.7 444.6 L579.5 444.6 L579.4 444.6 L579.2 444.6 L579.1 444.6 L578.9 444.6 L578.9 444.7 Z" fill="#2f8f83" fill-opacity="0.34" stroke="#0e5b52" stroke-width="1.6" />
  <path d="M578.9 445.9 L578.9 446.1 L578.9 446.3 L578.9 446.4 L578.9 446.6 L578.9 446.8 L578.9 446.9 L579.1 446.9 L579.2 446.9 L579.4 446.9 L579.5 446.9 L579.7 446.9 L579.8 446.9 L580.0 446.9 L580.2 446.9 L580.3 446.9 L580.5 446.9 L580.6 446.9 L580.8 446.9 L580.9 446.9 L581.1 446.9 L581.1 446.8 L581.1 446.6 L581.1 446.4 L581.1 446.3 L581.1 446.1 L581.1 445.9 L581.1 445.8 L580.9 445.8 L580.8 445.8 L580.6 445.8 L580.5 445.8 L580.3 445.8 L580.2 445.8 L580.0 445.8 L579.8 445.8 L579.7 445.8 L579.5 445.8 L579.4 445.8 L579.2 445.8 L579.1 445.8 L578.9 445.8 L578.9 445.9 Z" fill="#2f8f83" fill-opacity="0.34" stroke="#0e5b52" stroke-width="1.6" />
  <path d="M589.0 481.2 L589.0 481.4 L589.0 481.5 L589.0 481.7 L589.0 481.9 L589.0 482.0 L589.2 482.0 L589.3 482.0 L589.3 481.9 L589.3 481.7 L589.3 481.5 L589.3 481.4 L589.3 481.2 L589.5 481.2 L589.6 481.2 L589.8 481.2 L589.9 481.2 L589.9 481.4 L590.1 481.4 L590.1 481.2 L590.1 481.0 L589.9 481.0 L589.8 481.0 L589.6 481.0 L589.5 481.0 L589.3 481.0 L589.2 481.0 L589.0 481.0 L589.0 481.2 Z" fill="#2f8f83" fill-opacity="0.34" stroke="#0e5b52" stroke-width="1.6" />
  <path d="M319.0 127.7 L319.2 127.7 L319.2 127.5 L319.0 127.5 L318.9 127.5 L318.9 127.7 L319.0 127.7 Z" fill="#2f8f83" fill-opacity="0.34" stroke="#0e5b52" stroke-width="1.6" />
  <path d="M318.1 127.5 L318.2 127.5 L318.4 127.5 L318.6 127.5 L318.7 127.5 L318.9 127.5 L319.0 127.5 L319.2 127.5 L319.3 127.5 L319.5 127.5 L319.5 127.3 L319.6 127.3 L319.6 127.1 L319.8 127.1 L319.8 127.3 L320.0 127.3 L320.0 127.5 L320.0 127.7 L320.1 127.7 L320.1 127.9 L320.1 128.1 L320.3 128.1 L320.3 128.3 L320.3 128.6 L320.4 128.6 L320.6 128.6 L320.6 128.3 L320.7 128.3 L320.7 128.1 L320.7 127.9 L320.9 127.9 L321.0 127.9 L321.0 128.1 L321.0 128.3 L320.9 128.3 L320.9 128.6 L320.7 128.6 L320.7 128.8 L320.6 128.8 L320.4 128.8 L320.4 129.0 L320.6 129.0 L320.7 129.0 L320.9 129.0 L321.0 129.0 L321.2 129.0 L321.2 128.8 L321.2 128.6 L321.2 128.3 L321.2 128.1 L321.2 127.9 L321.2 127.7 L321.0 127.7 L321.0 127.5 L320.9 127.5 L320.9 127.3 L320.7 127.3 L320.7 127.1 L320.6 127.1 L320.6 126.9 L320.4 126.9 L320.4 126.7 L320.3 126.7 L320.1 126.7 L320.0 126.7 L319.8 126.7 L319.6 126.7 L319.5 126.7 L319.3 126.7 L319.2 126.7 L319.0 126.7 L318.9 126.7 L318.7 126.7 L318.6 126.7 L318.4 126.7 L318.2 126.7 L318.1 126.7 L318.1 126.9 L318.1 127.1 L318.1 127.3 L318.1 127.5 Z" fill="#2f8f83" fill-opacity="0.34" stroke="#0e5b52" stroke-width="1.6" />
  <path d="M320.7 129.2 L320.7 129.4 L320.9 129.4 L321.0 129.4 L321.2 129.4 L321.4 129.4 L321.5 129.4 L321.7 129.4 L321.7 129.6 L321.7 129.8 L321.8 129.8 L322.0 129.8 L322.0 130.0 L322.1 130.0 L322.1 130.2 L322.3 130.2 L322.3 130.4 L322.4 130.4 L322.6 130.4 L322.6 130.6 L322.8 130.6 L322.8 130.8 L322.9 130.8 L322.9 131.0 L323.1 131.0 L323.1 131.2 L323.2 131.2 L323.2 131.4 L323.2 131.6 L323.4 131.6 L323.5 131.6 L323.7 131.6 L323.8 131.6 L324.0 131.6 L324.2 131.6 L324.3 131.6 L324.5 131.6 L324.6 131.6 L324.8 131.6 L324.9 131.6 L324.9 131.4 L324.9 131.2 L324.8 131.2 L324.6 131.2 L324.5 131.2 L324.3 131.2 L324.2 131.2 L324.0 131.2 L323.8 131.2 L323.7 131.2 L323.7 131.0 L323.5 131.0 L323.5 130.8 L323.4 130.8 L323.4 130.6 L323.2 130.6 L323.2 130.4 L323.1 130.4 L323.1 130.2 L322.9 130.2 L322.9 130.0 L322.8 130.0 L322.8 129.8 L322.6 129.8 L322.6 129.6 L322.4 129.6 L322.4 129.4 L322.3 129.4 L322.3 129.2 L322.1 129.2 L322.1 129.0 L322.0 129.0 L322.0 128.8 L321.8 128.8 L321.8 128.6 L321.7 128.6 L321.7 128.3 L321.5 128.3 L321.5 128.1 L321.4 128.1 L321.4 127.9 L321.2 127.9 L321.2 128.1 L321.2 128.3 L321.2 128.6 L321.2 128.8 L321.2 129.0 L321.0 129.0 L320.9 129.0 L320.7 129.0 L320.6 129.0 L320.6 129.2 L320.7 129.2 Z" fill="#2f8f83" fill-opacity="0.34" stroke="#0e5b52" stroke-width="1.6" />
  <path d="M577.8 446.4 L577.8 446.6 L577.8 446.8 L577.8 446.9 L577.8 447.1 L578.0 447.1 L578.1 447.1 L578.3 447.1 L578.4 447.1 L578.6 447.1 L578.8 447.1 L578.9 447.1 L578.9 446.9 L578.9 446.8 L578.9 446.6 L578.9 446.4 L578.9 446.3 L578.8 446.3 L578.6 446.3 L578.4 446.3 L578.3 446.3 L578.1 446.3 L578.0 446.3 L577.8 446.3 L577.8 446.4 Z" fill="#2f8f83" fill-opacity="0.34" stroke="#0e5b52" stroke-width="1.6" />
  <path d="M455.9 527.0 L456.0 527.0 L456.0 526.8 L455.9 526.8 L455.7 526.8 L455.7 527.0 L455.9 527.0 Z" fill="#2f8f83" fill-opacity="0.34" stroke="#0e5b52" stroke-width="1.6" />
  <path d="M524.9 401.7 L524.9 401.8 L524.9 402.0 L524.9 402.2 L524.9 402.3 L524.9 402.5 L525.0 402.5 L525.0 402.7 L525.2 402.7 L525.2 402.9 L525.2 403.0 L525.2 403.2 L525.2 403.4 L525.2 403.6 L525.3 403.6 L525.5 403.6 L525.5 403.4 L525.6 403.4 L525.6 403.2 L525.6 403.0 L525.5 403.0 L525.5 402.9 L525.5 402.7 L525.5 402.5 L525.6 402.5 L525.6 402.7 L525.8 402.7 L525.9 402.7 L526.1 402.7 L526.2 402.7 L526.4 402.7 L526.4 402.5 L526.4 402.3 L526.4 402.2 L526.2 402.2 L526.1 402.2 L525.9 402.2 L525.9 402.0 L525.9 401.8 L525.9 401.7 L525.9 401.5 L525.8 401.5 L525.6 401.5 L525.5 401.5 L525.3 401.5 L525.2 401.5 L525.0 401.5 L524.9 401.5 L524.9 401.7 Z M525.0 401.8 L525.2 401.8 L525.3 401.8 L525.3 402.0 L525.3 402.2 L525.2 402.2 L525.0 402.2 L525.0 402.0 L525.0 401.8 Z" fill="#2f8f83" fill-opacity="0.34" stroke="#0e5b52" stroke-width="1.6" />
  <path d="M525.0 402.0 L525.0 402.2 L525.2 402.2 L525.3 402.2 L525.3 402.0 L525.3 401.8 L525.2 401.8 L525.0 401.8 L525.0 402.0 Z" fill="#2f8f83" fill-opacity="0.34" stroke="#0e5b52" stroke-width="1.6" />
  <path d="M524.2 401.8 L524.2 402.0 L524.2 402.2 L524.2 402.3 L524.2 402.5 L524.2 402.7 L524.2 402.9 L524.2 403.0 L524.4 403.0 L524.5 403.0 L524.7 403.0 L524.9 403.0 L525.0 403.0 L525.2 403.0 L525.2 402.9 L525.2 402.7 L525.0 402.7 L525.0 402.5 L524.9 402.5 L524.9 402.3 L524.9 402.2 L524.9 402.0 L524.9 401.8 L524.9 401.7 L524.9 401.5 L524.7 401.5 L524.5 401.5 L524.5 401.7 L524.4 401.7 L524.2 401.7 L524.2 401.8 Z" fill="#2f8f83" fill-opacity="0.34" stroke="#0e5b52" stroke-width="1.6" />
  <path d="M525.9 402.0 L525.9 402.2 L526.1 402.2 L526.2 402.2 L526.2 402.0 L526.2 401.8 L526.1 401.8 L525.9 401.8 L525.9 402.0 Z" fill="#2f8f83" fill-opacity="0.34" stroke="#0e5b52" stroke-width="1.6" />
  <path d="M455.3 527.2 L455.3 527.3 L455.4 527.3 L455.6 527.3 L455.7 527.3 L455.7 527.2 L455.7 527.0 L455.6 527.0 L455.4 527.0 L455.3 527.0 L455.3 527.2 Z" fill="#2f8f83" fill-opacity="0.34" stroke="#0e5b52" stroke-width="1.6" />
  <path d="M526.9 403.2 L526.9 403.4 L526.9 403.6 L526.9 403.7 L526.9 403.9 L526.9 404.1 L526.7 404.1 L526.7 404.3 L526.9 404.3 L527.0 404.3 L527.2 404.3 L527.3 404.3 L527.5 404.3 L527.6 404.3 L527.8 404.3 L528.0 404.3 L528.1 404.3 L528.1 404.1 L528.1 403.9 L528.1 403.7 L528.1 403.6 L528.0 403.6 L528.0 403.4 L527.8 403.4 L527.8 403.2 L527.6 403.2 L527.5 403.2 L527.3 403.2 L527.2 403.2 L527.2 403.0 L527.0 403.0 L526.9 403.0 L526.9 403.2 Z" fill="#2f8f83" fill-opacity="0.34" stroke="#0e5b52" stroke-width="1.6" />
  <path d="M526.4 402.5 L526.4 402.7 L526.6 402.7 L526.7 402.7 L526.7 402.5 L526.7 402.3 L526.6 402.3 L526.4 402.3 L526.4 402.5 Z" fill="#2f8f83" fill-opacity="0.34" stroke="#0e5b52" stroke-width="1.6" />
  <path d="M318.7 128.3 L318.7 128.6 L318.9 128.6 L318.9 128.3 L319.0 128.3 L319.0 128.1 L319.2 128.1 L319.2 127.9 L319.3 127.9 L319.3 127.7 L319.3 127.5 L319.2 127.5 L319.2 127.7 L319.0 127.7 L319.0 127.9 L318.9 127.9 L318.9 128.1 L318.7 128.1 L318.7 128.3 Z" fill="#2f8f83" fill-opacity="0.34" stroke="#0e5b52" stroke-width="1.6" />
  <path d="M318.2 128.6 L318.2 128.8 L318.4 128.8 L318.6 128.8 L318.7 128.8 L318.7 128.6 L318.6 128.6 L318.6 128.3 L318.6 128.1 L318.6 127.9 L318.4 127.9 L318.4 127.7 L318.2 127.7 L318.2 127.9 L318.2 128.1 L318.2 128.3 L318.2 128.6 Z" fill="#2f8f83" fill-opacity="0.34" stroke="#0e5b52" stroke-width="1.6" />
  <path d="M460.8 333.9 L460.8 334.1 L461.0 334.1 L461.2 334.1 L461.2 333.9 L461.2 333.7 L461.0 333.7 L460.8 333.7 L460.8 333.9 Z" fill="#2f8f83" fill-opacity="0.34" stroke="#0e5b52" stroke-width="1.6" />
  <path d="M318.4 127.7 L318.6 127.7 L318.7 127.7 L318.9 127.7 L318.9 127.5 L318.7 127.5 L318.6 127.5 L318.4 127.5 L318.2 127.5 L318.2 127.7 L318.4 127.7 Z" fill="#2f8f83" fill-opacity="0.34" stroke="#0e5b52" stroke-width="1.6" />
  <path d="M318.6 127.9 L318.6 127.7 L318.4 127.7 L318.4 127.9 L318.6 127.9 Z" fill="#2f8f83" fill-opacity="0.34" stroke="#0e5b52" stroke-width="1.6" />
  <path d="M324.9 133.0 L324.9 133.2 L325.1 133.2 L325.1 133.4 L325.2 133.4 L325.4 133.4 L325.5 133.4 L325.7 133.4 L325.9 133.4 L326.0 133.4 L326.2 133.4 L326.3 133.4 L326.5 133.4 L326.6 133.4 L326.6 133.2 L326.6 133.0 L326.6 132.8 L326.6 132.6 L326.6 132.4 L326.6 132.2 L326.6 132.0 L326.6 131.8 L326.6 131.6 L326.6 131.4 L326.6 131.2 L326.6 131.0 L326.6 130.8 L326.6 130.6 L326.6 130.4 L326.6 130.2 L326.6 130.0 L326.6 129.8 L326.5 129.8 L326.3 129.8 L326.2 129.8 L326.0 129.8 L325.9 129.8 L325.7 129.8 L325.5 129.8 L325.4 129.8 L325.2 129.8 L325.1 129.8 L324.9 129.8 L324.9 130.0 L324.9 130.2 L324.9 130.4 L324.9 130.6 L324.9 130.8 L324.9 131.0 L324.9 131.2 L324.9 131.4 L324.9 131.6 L324.9 131.8 L324.9 132.0 L324.9 132.2 L324.9 132.4 L324.9 132.6 L324.9 132.8 L324.9 133.0 Z" fill="#2f8f83" fill-opacity="0.34" stroke="#0e5b52" stroke-width="1.6" />
  <path d="M326.6 133.0 L326.6 133.2 L326.8 133.2 L326.9 133.2 L327.1 133.2 L327.3 133.2 L327.4 133.2 L327.6 133.2 L327.7 133.2 L327.9 133.2 L328.0 133.2 L328.2 133.2 L328.3 133.2 L328.3 133.0 L328.3 132.8 L328.3 132.6 L328.3 132.4 L328.3 132.2 L328.3 132.0 L328.3 131.8 L328.3 131.6 L328.3 131.4 L328.3 131.2 L328.3 131.0 L328.3 130.8 L328.3 130.6 L328.2 130.6 L328.2 130.4 L328.2 130.2 L328.2 130.0 L328.2 129.8 L328.0 129.8 L327.9 129.8 L327.7 129.8 L327.6 129.8 L327.4 129.8 L327.3 129.8 L327.1 129.8 L326.9 129.8 L326.8 129.8 L326.6 129.8 L326.6 130.0 L326.6 130.2 L326.6 130.4 L326.6 130.6 L326.6 130.8 L326.6 131.0 L326.6 131.2 L326.6 131.4 L326.6 131.6 L326.6 131.8 L326.6 132.0 L326.6 132.2 L326.6 132.4 L326.6 132.6 L326.6 132.8 L326.6 133.0 Z M326.8 131.0 L326.8 130.8 L326.9 130.8 L327.1 130.8 L327.1 131.0 L327.1 131.2 L326.9 131.2 L326.8 131.2 L326.8 131.0 Z" fill="#2f8f83" fill-opacity="0.34" stroke="#0e5b52" stroke-width="1.6" />
  <path d="M328.3 133.0 L328.3 133.2 L328.5 133.2 L328.7 133.2 L328.8 133.2 L329.0 133.2 L329.1 133.2 L329.3 133.2 L329.4 133.2 L329.6 133.2 L329.7 133.2 L329.9 133.2 L330.1 133.2 L330.2 133.2 L330.4 133.2 L330.5 133.2 L330.7 133.2 L330.8 133.2 L330.8 133.0 L331.0 133.0 L331.0 132.8 L331.1 132.8 L331.1 132.6 L331.3 132.6 L331.3 132.4 L331.3 132.2 L331.3 132.0 L331.5 132.0 L331.5 131.8 L331.5 131.6 L331.5 131.4 L331.5 131.2 L331.5 131.0 L331.5 130.8 L331.5 130.6 L331.5 130.4 L331.5 130.2 L331.5 130.0 L331.5 129.8 L331.5 129.6 L331.5 129.4 L331.5 129.2 L331.5 129.0 L331.3 129.0 L331.1 129.0 L331.1 128.8 L331.0 128.8 L331.0 128.6 L330.8 128.6 L330.8 128.3 L330.7 128.3 L330.5 128.3 L330.5 128.6 L330.7 128.6 L330.7 128.8 L330.8 128.8 L330.8 129.0 L331.0 129.0 L331.0 129.2 L331.1 129.2 L331.1 129.4 L331.1 129.6 L331.1 129.8 L331.1 130.0 L331.1 130.2 L331.1 130.4 L331.1 130.6 L331.1 130.8 L331.1 131.0 L331.1 131.2 L331.0 131.2 L331.0 131.4 L330.8 131.4 L330.8 131.6 L330.7 131.6 L330.7 131.8 L330.5 131.8 L330.4 131.8 L330.2 131.8 L330.1 131.8 L329.9 131.8 L329.7 131.8 L329.6 131.8 L329.4 131.8 L329.3 131.8 L329.1 131.8 L329.1 131.6 L329.0 131.6 L329.0 131.4 L328.8 131.4 L328.8 131.2 L328.7 131.2 L328.7 131.0 L328.5 131.0 L328.5 130.8 L328.3 130.8 L328.3 131.0 L328.3 131.2 L328.3 131.4 L328.3 131.6 L328.3 131.8 L328.3 132.0 L328.3 132.2 L328.3 132.4 L328.3 132.6 L328.3 132.8 L328.3 133.0 Z" fill="#2f8f83" fill-opacity="0.34" stroke="#0e5b52" stroke-width="1.6" />
  <path d="M321.4 132.2 L321.4 132.4 L321.5 132.4 L321.5 132.6 L321.7 132.6 L321.7 132.8 L321.8 132.8 L322.0 132.8 L322.1 132.8 L322.3 132.8 L322.4 132.8 L322.4 133.0 L322.6 133.0 L322.8 133.0 L322.9 133.0 L323.1 133.0 L323.2 133.0 L323.4 133.0 L323.5 133.0 L323.7 133.0 L323.8 133.0 L324.0 133.0 L324.2 133.0 L324.3 133.0 L324.5 133.0 L324.6 133.0 L324.8 133.0 L324.9 133.0 L324.9 132.8 L324.9 132.6 L324.9 132.4 L324.9 132.2 L324.9 132.0 L324.9 131.8 L324.9 131.6 L324.8 131.6 L324.6 131.6 L324.5 131.6 L324.3 131.6 L324.2 131.6 L324.0 131.6 L323.8 131.6 L323.7 131.6 L323.5 131.6 L323.4 131.6 L323.2 131.6 L323.1 131.6 L322.9 131.6 L322.8 131.6 L322.8 131.4 L322.6 131.4 L322.6 131.2 L322.4 131.2 L322.4 131.0 L322.3 131.0 L322.1 131.0 L322.1 131.2 L322.1 131.4 L322.0 131.4 L321.8 131.4 L321.7 131.4 L321.5 131.4 L321.5 131.6 L321.5 131.8 L321.5 132.0 L321.4 132.0 L321.4 132.2 Z" fill="#2f8f83" fill-opacity="0.34" stroke="#0e5b52" stroke-width="1.6" />
  <path d="M319.5 126.5 L319.5 126.7 L319.6 126.7 L319.8 126.7 L320.0 126.7 L320.1 126.7 L320.3 126.7 L320.4 126.7 L320.4 126.9 L320.6 126.9 L320.6 127.1 L320.7 127.1 L320.7 127.3 L320.9 127.3 L320.9 127.5 L321.0 127.5 L321.0 127.7 L321.2 127.7 L321.2 127.9 L321.4 127.9 L321.4 128.1 L321.5 128.1 L321.5 128.3 L321.7 128.3 L321.7 128.6 L321.8 128.6 L321.8 128.8 L322.0 128.8 L322.0 129.0 L322.1 129.0 L322.1 129.2 L322.3 129.2 L322.3 129.4 L322.4 129.4 L322.4 129.6 L322.6 129.6 L322.6 129.8 L322.8 129.8 L322.8 130.0 L322.9 130.0 L322.9 130.2 L323.1 130.2 L323.1 130.4 L323.2 130.4 L323.2 130.6 L323.4 130.6 L323.4 130.8 L323.5 130.8 L323.5 131.0 L323.7 131.0 L323.7 131.2 L323.8 131.2 L324.0 131.2 L324.2 131.2 L324.3 131.2 L324.5 131.2 L324.6 131.2 L324.8 131.2 L324.9 131.2 L324.9 131.0 L324.9 130.8 L324.9 130.6 L324.9 130.4 L324.9 130.2 L324.9 130.0 L324.8 130.0 L324.6 130.0 L324.5 130.0 L324.3 130.0 L324.2 130.0 L324.0 130.0 L323.8 130.0 L323.7 130.0 L323.5 130.0 L323.5 129.8 L323.4 129.8 L323.4 129.6 L323.2 129.6 L323.2 129.4 L323.1 129.4 L323.1 129.2 L322.9 129.2 L322.9 129.0 L322.8 129.0 L322.8 128.8 L322.6 128.8 L322.6 128.6 L322.4 128.6 L322.4 128.3 L322.3 128.3 L322.3 128.1 L322.1 128.1 L322.1 127.9 L322.0 127.9 L322.0 127.7 L321.8 127.7 L321.8 127.5 L321.7 127.5 L321.7 127.3 L321.5 127.3 L321.5 127.1 L321.4 127.1 L321.4 126.9 L321.2 126.9 L321.2 126.7 L321.0 126.7 L321.0 126.5 L320.9 126.5 L320.9 126.3 L320.7 126.3 L320.7 126.1 L320.6 126.1 L320.6 125.9 L320.4 125.9 L320.4 125.7 L320.3 125.7 L320.1 125.7 L320.1 125.5 L320.0 125.5 L319.8 125.5 L319.8 125.3 L319.6 125.3 L319.5 125.3 L319.5 125.5 L319.5 125.7 L319.5 125.9 L319.5 126.1 L319.5 126.3 L319.5 126.5 Z" fill="#2f8f83" fill-opacity="0.34" stroke="#0e5b52" stroke-width="1.6" />
  <path d="M317.0 128.6 L317.2 128.6 L317.2 128.8 L317.3 128.8 L317.3 129.0 L317.5 129.0 L317.6 129.0 L317.6 129.2 L317.8 129.2 L317.8 129.4 L317.9 129.4 L317.9 129.6 L318.1 129.6 L318.2 129.6 L318.2 129.4 L318.2 129.2 L318.2 129.0 L318.2 128.8 L318.2 128.6 L318.2 128.3 L318.2 128.1 L318.2 127.9 L318.2 127.7 L318.2 127.5 L318.1 127.5 L318.1 127.3 L318.1 127.1 L318.1 126.9 L318.1 126.7 L318.2 126.7 L318.4 126.7 L318.6 126.7 L318.7 126.7 L318.9 126.7 L319.0 126.7 L319.2 126.7 L319.3 126.7 L319.5 126.7 L319.5 126.5 L319.5 126.3 L319.5 126.1 L319.5 125.9 L319.5 125.7 L319.5 125.5 L319.5 125.3 L319.3 125.3 L319.2 125.3 L319.0 125.3 L318.9 125.3 L318.9 125.5 L318.7 125.5 L318.6 125.5 L318.6 125.7 L318.4 125.7 L318.2 125.7 L318.2 125.9 L318.1 125.9 L317.9 125.9 L317.9 126.1 L317.8 126.1 L317.6 126.1 L317.6 126.3 L317.5 126.3 L317.3 126.3 L317.2 126.3 L317.2 126.5 L317.2 126.7 L317.2 126.9 L317.2 127.1 L317.2 127.3 L317.2 127.5 L317.2 127.7 L317.2 127.9 L317.2 128.1 L317.0 128.1 L316.9 128.1 L316.9 128.3 L317.0 128.3 L317.0 128.6 Z" fill="#2f8f83" fill-opacity="0.34" stroke="#0e5b52" stroke-width="1.6" />
  <path d="M319.5 127.7 L319.6 127.7 L319.8 127.7 L320.0 127.7 L320.0 127.5 L320.0 127.3 L319.8 127.3 L319.8 127.1 L319.6 127.1 L319.6 127.3 L319.5 127.3 L319.5 127.5 L319.3 127.5 L319.3 127.7 L319.5 127.7 Z" fill="#2f8f83" fill-opacity="0.34" stroke="#0e5b52" stroke-width="1.6" />
  <path d="M681.1 491.1 L681.3 491.1 L681.3 491.3 L681.4 491.3 L681.4 491.4 L681.6 491.4 L681.6 491.6 L681.8 491.6 L681.8 491.8 L681.9 491.8 L681.9 491.9 L682.1 491.9 L682.1 492.1 L682.2 492.1 L682.2 492.3 L682.4 492.3 L682.4 492.4 L682.5 492.4 L682.5 492.3 L682.7 492.3 L682.7 492.1 L682.8 492.1 L683.0 492.1 L683.0 491.9 L683.1 491.9 L683.1 491.8 L683.1 491.6 L683.1 491.4 L683.0 491.4 L683.0 491.3 L682.8 491.3 L682.8 491.1 L682.8 490.9 L682.7 490.9 L682.5 490.9 L682.5 490.8 L682.4 490.8 L682.4 490.6 L682.2 490.6 L682.2 490.5 L682.1 490.5 L681.9 490.5 L681.8 490.5 L681.6 490.5 L681.6 490.6 L681.4 490.6 L681.4 490.8 L681.3 490.8 L681.3 490.9 L681.1 490.9 L681.1 491.1 Z" fill="#2f8f83" fill-opacity="0.34" stroke="#0e5b52" stroke-width="1.6" />
  <path d="M318.6 128.3 L318.6 128.6 L318.7 128.6 L318.7 128.3 L318.7 128.1 L318.9 128.1 L318.9 127.9 L319.0 127.9 L319.0 127.7 L318.9 127.7 L318.7 127.7 L318.6 127.7 L318.6 127.9 L318.6 128.1 L318.6 128.3 Z" fill="#2f8f83" fill-opacity="0.34" stroke="#0e5b52" stroke-width="1.6" />
  <path d="M524.5 403.2 L524.5 403.4 L524.5 403.6 L524.5 403.7 L524.5 403.9 L524.5 404.1 L524.5 404.3 L524.5 404.4 L524.5 404.6 L524.5 404.8 L524.5 404.9 L524.5 405.1 L524.5 405.3 L524.5 405.5 L524.7 405.5 L524.9 405.5 L525.0 405.5 L525.2 405.5 L525.3 405.5 L525.5 405.5 L525.6 405.5 L525.8 405.5 L525.9 405.5 L525.9 405.3 L526.1 405.3 L526.1 405.1 L526.2 405.1 L526.2 404.9 L526.4 404.9 L526.4 404.8 L526.6 404.8 L526.6 404.6 L526.7 404.6 L526.7 404.4 L526.9 404.4 L526.9 404.3 L526.7 404.3 L526.6 404.3 L526.6 404.4 L526.4 404.4 L526.4 404.6 L526.2 404.6 L526.2 404.8 L526.1 404.8 L525.9 404.8 L525.8 404.8 L525.6 404.8 L525.5 404.8 L525.3 404.8 L525.3 404.6 L525.3 404.4 L525.3 404.3 L525.3 404.1 L525.3 403.9 L525.3 403.7 L525.3 403.6 L525.2 403.6 L525.2 403.4 L525.2 403.2 L525.2 403.0 L525.0 403.0 L524.9 403.0 L524.7 403.0 L524.5 403.0 L524.5 403.2 Z" fill="#2f8f83" fill-opacity="0.34" stroke="#0e5b52" stroke-width="1.6" />
  <!-- title strip -->
  <rect x="0" y="0" width="1000" height="54" fill="#173042" />
  <text x="20" y="34" font-size="21" font-weight="bold" fill="#ffffff">Trailbreaker Resources Ltd. — Mineral Claims</text>
  <text x="980" y="34" font-size="15" fill="#cfe3df" text-anchor="end">TBK</text>
  <!-- scale bar -->
  <g transform="translate(910, 596)">
    <rect x="0" y="0" width="25" height="8" fill="#173042" />
    <rect x="25" y="0" width="25" height="8" fill="#ffffff" stroke="#173042" stroke-width="1" />
    <text x="25" y="-6" font-size="12" fill="#173042" text-anchor="middle">50 km</text>
  </g>
  <!-- north arrow -->
  <g transform="translate(956, 92)">
    <circle r="17" fill="#ffffff" stroke="#b9b09a" />
    <path d="M0 -10 L5 7 L0 3 L-5 7 Z" fill="#173042" />
    <text y="14" font-size="9" font-weight="bold" fill="#173042" text-anchor="middle">N</text>
  </g>
  <!-- watermark -->
  <text x="20" y="620" font-size="13" fill="#7d8b8a">Map by Exploration Maps — explorationmaps.com</text>
</svg>