<svg xmlns="http://www.w3.org/2000/svg" viewBox="0 0 1000 640" font-family="Arial, Helvetica, sans-serif">
  <rect width="1000" height="640" fill="#f3efe6" />
  <line x1="200" y1="0" x2="200" y2="640" stroke="#d9d2c0" stroke-width="0.7" />
  <line x1="0" y1="128" x2="1000" y2="128" stroke="#d9d2c0" stroke-width="0.7" />
  <line x1="400" y1="0" x2="400" y2="640" stroke="#d9d2c0" stroke-width="0.7" />
  <line x1="0" y1="256" x2="1000" y2="256" stroke="#d9d2c0" stroke-width="0.7" />
  <line x1="600" y1="0" x2="600" y2="640" stroke="#d9d2c0" stroke-width="0.7" />
  <line x1="0" y1="384" x2="1000" y2="384" stroke="#d9d2c0" stroke-width="0.7" />
  <line x1="800" y1="0" x2="800" y2="640" stroke="#d9d2c0" stroke-width="0.7" />
  <line x1="0" y1="512" x2="1000" y2="512" stroke="#d9d2c0" stroke-width="0.7" />
  <path d="M500.0 303.4 L500.0 320.2 L516.0 320.2 L516.0 337.0 L531.9 337.0 L547.9 337.0 L547.9 320.2 L547.9 303.4 L547.9 286.6 L547.9 269.8 L531.9 269.8 L516.0 269.8 L516.0 286.6 L500.0 286.6 L500.0 303.4 Z" fill="#2f8f83" fill-opacity="0.34" stroke="#0e5b52" stroke-width="1.6" />
  <path d="M468.1 320.2 L468.1 337.0 L468.1 353.8 L484.0 353.8 L484.0 370.6 L500.0 370.6 L516.0 370.6 L531.9 370.6 L531.9 387.4 L547.9 387.4 L563.9 387.4 L563.9 404.2 L579.9 404.2 L595.8 404.2 L611.8 404.2 L611.8 420.9 L627.8 420.9 L627.8 404.2 L627.8 387.4 L611.8 387.4 L611.8 370.6 L595.8 370.6 L579.8 370.6 L563.9 370.6 L547.9 370.6 L547.9 353.8 L563.9 353.8 L563.9 337.0 L547.9 337.0 L531.9 337.0 L516.0 337.0 L516.0 320.2 L500.0 320.2 L500.0 303.4 L484.0 303.4 L468.1 303.4 L468.1 320.2 Z" fill="#2f8f83" fill-opacity="0.34" stroke="#0e5b52" stroke-width="1.6" />
  <path d="M547.9 303.4 L547.9 320.2 L547.9 337.0 L563.9 337.0 L563.9 353.8 L547.9 353.8 L547.9 370.6 L563.9 370.6 L579.8 370.6 L579.8 353.8 L579.8 337.0 L579.8 320.2 L579.8 303.4 L579.8 286.6 L563.9 286.6 L547.9 286.6 L547.9 303.4 Z" fill="#2f8f83" fill-opacity="0.34" stroke="#0e5b52" stroke-width="1.6" />
  <path d="M579.8 353.8 L579.8 370.6 L595.8 370.6 L611.8 370.6 L611.8 387.4 L627.8 387.4 L627.8 404.2 L643.7 404.2 L659.7 404.2 L659.7 387.4 L643.7 387.4 L643.7 370.6 L627.8 370.6 L627.8 353.8 L611.8 353.8 L611.8 337.0 L595.8 337.0 L579.8 337.0 L579.8 353.8 Z" fill="#2f8f83" fill-opacity="0.34" stroke="#0e5b52" stroke-width="1.6" />
  <path d="M340.3 185.7 L340.3 202.5 L356.3 202.5 L356.3 219.3 L356.3 236.1 L372.2 236.1 L372.3 253.0 L372.3 269.8 L372.3 286.6 L388.2 286.6 L404.2 286.6 L420.2 286.6 L420.2 269.8 L420.2 253.0 L420.2 236.1 L404.2 236.1 L404.2 219.3 L404.2 202.5 L404.2 185.7 L388.2 185.7 L372.2 185.7 L356.3 185.7 L356.3 168.9 L340.3 168.9 L340.3 185.7 Z" fill="#2f8f83" fill-opacity="0.34" stroke="#0e5b52" stroke-width="1.6" />
  <path d="M404.2 286.6 L388.2 286.6 L388.2 303.4 L404.2 303.4 L420.2 303.4 L420.2 286.6 L404.2 286.6 Z" fill="#2f8f83" fill-opacity="0.34" stroke="#0e5b52" stroke-width="1.6" />
  <path d="M340.3 219.3 L340.3 236.1 L340.3 253.0 L356.3 253.0 L356.3 269.8 L372.3 269.8 L372.3 253.0 L372.2 236.1 L356.3 236.1 L356.3 219.3 L356.3 202.5 L340.3 202.5 L340.3 219.3 Z" fill="#2f8f83" fill-opacity="0.34" stroke="#0e5b52" stroke-width="1.6" />
  <path d="M420.2 320.2 L420.2 303.4 L404.2 303.4 L404.2 320.2 L420.2 320.2 Z" fill="#2f8f83" fill-opacity="0.34" stroke="#0e5b52" stroke-width="1.6" />
  <path d="M340.3 269.8 L340.3 286.6 L356.3 286.6 L356.3 303.4 L356.3 320.2 L372.3 320.2 L372.3 337.0 L388.2 337.0 L388.2 353.8 L404.2 353.8 L420.2 353.8 L420.2 337.0 L420.2 320.2 L404.2 320.2 L404.2 303.4 L388.2 303.4 L388.2 286.6 L372.3 286.6 L372.3 269.8 L356.3 269.8 L356.3 253.0 L340.3 253.0 L340.3 269.8 Z" fill="#2f8f83" fill-opacity="0.34" stroke="#0e5b52" stroke-width="1.6" />
  <path d="M356.3 168.9 L356.3 185.7 L372.2 185.7 L388.2 185.7 L404.2 185.7 L404.2 202.5 L404.2 219.3 L404.2 236.1 L420.2 236.1 L436.1 236.1 L436.1 219.3 L452.1 219.3 L452.1 202.5 L436.1 202.5 L420.2 202.5 L420.2 185.7 L420.2 168.9 L404.2 168.9 L388.2 168.9 L372.2 168.9 L372.2 152.1 L356.3 152.1 L356.3 168.9 Z" fill="#2f8f83" fill-opacity="0.34" stroke="#0e5b52" stroke-width="1.6" />
  <path d="M340.3 135.3 L340.3 152.1 L340.3 168.9 L356.3 168.9 L356.3 152.1 L372.2 152.1 L372.2 168.9 L388.2 168.9 L404.2 168.9 L420.2 168.9 L436.1 168.9 L452.1 168.9 L468.1 168.9 L484.0 168.9 L484.0 152.1 L484.0 135.3 L468.1 135.3 L452.1 135.3 L436.1 135.3 L420.2 135.3 L404.2 135.3 L404.2 118.4 L388.2 118.4 L372.2 118.4 L356.3 118.4 L340.3 118.4 L340.3 135.3 Z" fill="#2f8f83" fill-opacity="0.34" stroke="#0e5b52" stroke-width="1.6" />
  <path d="M308.4 253.0 L308.4 269.8 L324.3 269.8 L340.3 269.8 L340.3 253.0 L340.3 236.1 L324.3 236.1 L308.4 236.1 L308.4 253.0 Z" fill="#2f8f83" fill-opacity="0.34" stroke="#0e5b52" stroke-width="1.6" />
  <path d="M420.2 185.7 L420.2 202.5 L436.1 202.5 L452.1 202.5 L452.1 219.3 L468.1 219.3 L468.1 202.5 L468.1 185.7 L468.1 168.9 L452.1 168.9 L436.1 168.9 L420.2 168.9 L420.2 185.7 Z" fill="#2f8f83" fill-opacity="0.34" stroke="#0e5b52" stroke-width="1.6" />
  <path d="M420.2 253.0 L420.2 269.8 L420.2 286.6 L420.2 303.4 L436.1 303.4 L436.1 286.6 L436.1 269.8 L436.1 253.0 L436.1 236.1 L420.2 236.1 L420.2 253.0 Z" fill="#2f8f83" fill-opacity="0.34" stroke="#0e5b52" stroke-width="1.6" />
  <path d="M484.0 236.1 L468.1 236.1 L468.1 253.0 L484.0 253.0 L500.0 253.0 L516.0 253.0 L516.0 269.8 L531.9 269.8 L531.9 253.0 L531.9 236.1 L516.0 236.1 L500.0 236.1 L484.0 236.1 Z" fill="#2f8f83" fill-opacity="0.34" stroke="#0e5b52" stroke-width="1.6" />
  <path d="M452.1 236.1 L452.1 219.3 L436.1 219.3 L436.1 236.1 L452.1 236.1 Z" fill="#2f8f83" fill-opacity="0.34" stroke="#0e5b52" stroke-width="1.6" />
  <path d="M468.1 219.3 L452.1 219.3 L452.1 236.1 L468.1 236.1 L484.0 236.1 L500.0 236.1 L516.0 236.1 L531.9 236.1 L531.9 253.0 L531.9 269.8 L547.9 269.8 L547.9 253.0 L547.9 236.1 L547.9 219.3 L531.9 219.3 L531.9 202.5 L516.0 202.5 L500.0 202.5 L500.0 219.3 L484.0 219.3 L468.1 219.3 Z" fill="#2f8f83" fill-opacity="0.34" stroke="#0e5b52" stroke-width="1.6" />
  <path d="M531.9 387.4 L531.9 370.6 L516.0 370.6 L516.0 387.4 L531.9 387.4 Z" fill="#2f8f83" fill-opacity="0.34" stroke="#0e5b52" stroke-width="1.6" />
  <path d="M484.0 253.0 L468.1 253.0 L468.1 269.8 L484.0 269.8 L500.0 269.8 L500.0 253.0 L484.0 253.0 Z" fill="#2f8f83" fill-opacity="0.34" stroke="#0e5b52" stroke-width="1.6" />
  <path d="M436.1 253.0 L436.1 269.8 L436.1 286.6 L436.1 303.4 L452.1 303.4 L452.1 286.6 L452.1 269.8 L452.1 253.0 L452.1 236.1 L436.1 236.1 L436.1 253.0 Z" fill="#2f8f83" fill-opacity="0.34" stroke="#0e5b52" stroke-width="1.6" />
  <path d="M452.1 303.4 L436.1 303.4 L436.1 320.2 L452.1 320.2 L468.1 320.2 L468.1 303.4 L452.1 303.4 Z" fill="#2f8f83" fill-opacity="0.34" stroke="#0e5b52" stroke-width="1.6" />
  <path d="M308.4 421.0 L292.4 421.0 L292.4 437.8 L308.4 437.8 L324.3 437.8 L340.3 437.8 L340.3 421.0 L356.3 421.0 L356.3 404.2 L372.3 404.2 L372.3 387.4 L388.2 387.4 L404.2 387.4 L404.2 370.6 L420.2 370.6 L436.1 370.6 L436.1 353.8 L452.1 353.8 L452.1 337.0 L468.1 337.0 L468.1 320.2 L452.1 320.2 L436.1 320.2 L436.1 303.4 L420.2 303.4 L420.2 320.2 L420.2 337.0 L420.2 353.8 L404.2 353.8 L388.2 353.8 L388.2 370.6 L372.3 370.6 L356.3 370.6 L356.3 387.4 L340.3 387.4 L340.3 404.2 L324.3 404.2 L324.3 421.0 L308.4 421.0 Z" fill="#2f8f83" fill-opacity="0.34" stroke="#0e5b52" stroke-width="1.6" />
  <path d="M659.7 404.2 L659.7 420.9 L659.7 437.7 L675.7 437.7 L675.7 420.9 L675.7 404.2 L675.7 387.4 L659.7 387.4 L659.7 404.2 Z" fill="#2f8f83" fill-opacity="0.34" stroke="#0e5b52" stroke-width="1.6" />
  <path d="M420.2 370.6 L404.2 370.6 L404.2 387.4 L420.2 387.4 L436.1 387.4 L436.1 404.2 L452.1 404.2 L452.1 421.0 L468.1 421.0 L468.1 437.7 L484.0 437.7 L500.0 437.7 L500.0 454.5 L516.0 454.5 L516.0 471.3 L531.9 471.3 L531.9 454.5 L547.9 454.5 L563.9 454.5 L579.8 454.5 L579.8 437.7 L595.8 437.7 L595.8 420.9 L579.8 421.0 L579.9 404.2 L563.9 404.2 L563.9 387.4 L547.9 387.4 L531.9 387.4 L516.0 387.4 L516.0 370.6 L500.0 370.6 L484.0 370.6 L484.0 353.8 L468.1 353.8 L468.1 337.0 L452.1 337.0 L452.1 353.8 L436.1 353.8 L436.1 370.6 L420.2 370.6 Z" fill="#2f8f83" fill-opacity="0.34" stroke="#0e5b52" stroke-width="1.6" />
  <path d="M308.4 202.5 L308.4 219.3 L308.4 236.1 L324.3 236.1 L340.3 236.1 L340.3 219.3 L340.3 202.5 L324.3 202.5 L324.3 185.7 L308.4 185.7 L308.4 202.5 Z" fill="#2f8f83" fill-opacity="0.34" stroke="#0e5b52" stroke-width="1.6" />
  <path d="M468.1 185.7 L468.1 202.5 L468.1 219.3 L484.0 219.3 L500.0 219.3 L500.0 202.5 L500.0 185.7 L484.0 185.7 L484.0 168.9 L468.1 168.9 L468.1 185.7 Z" fill="#2f8f83" fill-opacity="0.34" stroke="#0e5b52" stroke-width="1.6" />
  <path d="M260.5 303.4 L260.5 320.2 L276.4 320.2 L292.4 320.2 L308.4 320.2 L324.3 320.2 L324.3 303.4 L324.3 286.6 L324.3 269.8 L308.4 269.8 L308.4 253.0 L308.4 236.1 L292.4 236.1 L276.4 236.1 L276.4 253.0 L276.4 269.8 L276.4 286.6 L260.5 286.6 L260.5 303.4 Z" fill="#2f8f83" fill-opacity="0.34" stroke="#0e5b52" stroke-width="1.6" />
  <path d="M324.3 286.6 L324.3 303.4 L324.3 320.2 L340.3 320.2 L356.3 320.2 L356.3 303.4 L356.3 286.6 L340.3 286.6 L340.3 269.8 L324.3 269.8 L324.3 286.6 Z" fill="#2f8f83" fill-opacity="0.34" stroke="#0e5b52" stroke-width="1.6" />
  <path d="M468.1 286.6 L468.1 303.4 L484.0 303.4 L484.0 286.6 L484.0 269.8 L468.1 269.8 L468.1 286.6 Z" fill="#2f8f83" fill-opacity="0.34" stroke="#0e5b52" stroke-width="1.6" />
  <path d="M516.0 269.8 L516.0 253.0 L500.0 253.0 L500.0 269.8 L516.0 269.8 Z" fill="#2f8f83" fill-opacity="0.34" stroke="#0e5b52" stroke-width="1.6" />
  <path d="M452.1 253.0 L452.1 269.8 L452.1 286.6 L452.1 303.4 L468.1 303.4 L468.1 286.6 L468.1 269.8 L468.1 253.0 L468.1 236.1 L452.1 236.1 L452.1 253.0 Z" fill="#2f8f83" fill-opacity="0.34" stroke="#0e5b52" stroke-width="1.6" />
  <path d="M659.7 370.6 L643.7 370.6 L643.7 387.4 L659.7 387.4 L675.7 387.4 L675.7 404.2 L675.7 420.9 L691.6 420.9 L691.6 404.2 L707.6 404.2 L707.6 387.4 L707.6 370.6 L691.6 370.6 L675.7 370.6 L659.7 370.6 Z" fill="#2f8f83" fill-opacity="0.34" stroke="#0e5b52" stroke-width="1.6" />
  <path d="M643.7 471.3 L643.7 488.1 L643.7 504.9 L659.7 504.9 L659.7 488.1 L675.7 488.1 L675.7 471.3 L675.7 454.5 L675.7 437.7 L659.7 437.7 L659.7 454.5 L643.7 454.5 L643.7 471.3 Z" fill="#2f8f83" fill-opacity="0.34" stroke="#0e5b52" stroke-width="1.6" />
  <path d="M595.8 404.2 L579.9 404.2 L579.8 421.0 L595.8 420.9 L595.8 437.7 L579.8 437.7 L579.8 454.5 L595.8 454.5 L611.8 454.5 L627.8 454.5 L643.7 454.5 L659.7 454.5 L659.7 437.7 L659.7 420.9 L643.7 420.9 L627.8 420.9 L611.8 420.9 L611.8 404.2 L595.8 404.2 Z" fill="#2f8f83" fill-opacity="0.34" stroke="#0e5b52" stroke-width="1.6" />
  <path d="M675.7 437.7 L675.7 454.5 L675.7 471.3 L691.6 471.3 L691.6 454.5 L707.6 454.5 L707.6 437.7 L691.6 437.7 L691.6 420.9 L675.7 420.9 L675.7 437.7 Z" fill="#2f8f83" fill-opacity="0.34" stroke="#0e5b52" stroke-width="1.6" />
  <path d="M707.6 420.9 L707.6 437.7 L707.6 454.5 L707.6 471.3 L723.6 471.3 L739.5 471.3 L739.5 454.5 L739.5 437.7 L739.5 420.9 L739.5 404.2 L723.6 404.2 L707.6 404.2 L707.6 420.9 Z" fill="#2f8f83" fill-opacity="0.34" stroke="#0e5b52" stroke-width="1.6" />
  <path d="M611.8 471.3 L611.8 488.1 L611.8 504.9 L611.8 521.7 L627.8 521.7 L643.7 521.7 L659.7 521.7 L675.7 521.7 L691.6 521.7 L691.6 504.9 L691.6 488.1 L691.6 471.3 L675.7 471.3 L675.7 488.1 L659.7 488.1 L659.7 504.9 L643.7 504.9 L643.7 488.1 L643.7 471.3 L643.7 454.5 L627.8 454.5 L611.8 454.5 L611.8 471.3 Z" fill="#2f8f83" fill-opacity="0.34" stroke="#0e5b52" stroke-width="1.6" />
  <path d="M340.3 337.0 L340.3 353.8 L356.3 353.8 L356.3 370.6 L372.3 370.6 L388.2 370.6 L388.2 353.8 L388.2 337.0 L372.3 337.0 L372.3 320.2 L356.3 320.2 L340.3 320.2 L340.3 337.0 Z" fill="#2f8f83" fill-opacity="0.34" stroke="#0e5b52" stroke-width="1.6" />
  <!-- title strip -->
  <rect x="0" y="0" width="1000" height="54" fill="#173042" />
  <text x="20" y="34" font-size="21" font-weight="bold" fill="#ffffff">Taranis Resources Inc. — Mineral Claims</text>
  <text x="980" y="34" font-size="15" fill="#cfe3df" text-anchor="end">TRO</text>
  <!-- scale bar -->
  <g transform="translate(778.8810656161571, 596)">
    <rect x="0" y="0" width="90.55946719192146" height="8" fill="#173042" />
    <rect x="90.55946719192146" y="0" width="90.55946719192146" height="8" fill="#ffffff" stroke="#173042" stroke-width="1" />
    <text x="90.55946719192146" y="-6" font-size="12" fill="#173042" text-anchor="middle">5 km</text>
  </g>
  <!-- north arrow -->
  <g transform="translate(956, 92)">
    <circle r="17" fill="#ffffff" stroke="#b9b09a" />
    <path d="M0 -10 L5 7 L0 3 L-5 7 Z" fill="#173042" />
    <text y="14" font-size="9" font-weight="bold" fill="#173042" text-anchor="middle">N</text>
  </g>
  <!-- watermark -->
  <text x="20" y="620" font-size="13" fill="#7d8b8a">Map by Exploration Maps — explorationmaps.com</text>
</svg>