<svg xmlns="http://www.w3.org/2000/svg" viewBox="0 0 1000 640" font-family="Arial, Helvetica, sans-serif">
  <rect width="1000" height="640" fill="#f3efe6" />
  <line x1="200" y1="0" x2="200" y2="640" stroke="#d9d2c0" stroke-width="0.7" />
  <line x1="0" y1="128" x2="1000" y2="128" stroke="#d9d2c0" stroke-width="0.7" />
  <line x1="400" y1="0" x2="400" y2="640" stroke="#d9d2c0" stroke-width="0.7" />
  <line x1="0" y1="256" x2="1000" y2="256" stroke="#d9d2c0" stroke-width="0.7" />
  <line x1="600" y1="0" x2="600" y2="640" stroke="#d9d2c0" stroke-width="0.7" />
  <line x1="0" y1="384" x2="1000" y2="384" stroke="#d9d2c0" stroke-width="0.7" />
  <line x1="800" y1="0" x2="800" y2="640" stroke="#d9d2c0" stroke-width="0.7" />
  <line x1="0" y1="512" x2="1000" y2="512" stroke="#d9d2c0" stroke-width="0.7" />
  <path d="M540.7 393.5 L540.7 389.5 L540.7 388.8 L507.0 388.8 L506.6 388.8 L506.6 388.8 L506.6 393.5 L506.6 434.4 L537.8 434.4 L540.7 434.4 L540.7 393.5 Z" fill="#2f8f83" fill-opacity="0.34" stroke="#0e5b52" stroke-width="1.6" />
  <path d="M506.6 393.5 L506.6 388.8 L506.6 388.8 L461.5 388.8 L449.7 388.8 L449.7 393.5 L449.7 394.2 L449.7 394.2 L449.7 434.4 L505.6 434.4 L506.6 434.4 L506.6 393.5 Z" fill="#2f8f83" fill-opacity="0.34" stroke="#0e5b52" stroke-width="1.6" />
  <path d="M538.4 332.1 L507.0 332.1 L507.0 388.8 L540.7 388.8 L540.8 343.9 L540.8 333.8 L541.1 333.8 L541.1 332.1 L538.4 332.1 Z" fill="#2f8f83" fill-opacity="0.34" stroke="#0e5b52" stroke-width="1.6" />
  <path d="M464.8 332.1 L461.4 332.1 L461.4 348.6 L461.5 388.8 L506.6 388.8 L506.6 388.8 L507.0 388.8 L507.0 332.1 L481.5 332.1 L464.8 332.1 Z" fill="#2f8f83" fill-opacity="0.34" stroke="#0e5b52" stroke-width="1.6" />
  <path d="M428.6 434.4 L428.4 434.4 L428.4 439.8 L428.4 457.2 L428.6 457.2 L448.7 457.2 L472.4 457.2 L472.4 434.4 L428.6 434.4 Z" fill="#2f8f83" fill-opacity="0.34" stroke="#0e5b52" stroke-width="1.6" />
  <path d="M418.7 235.9 L404.0 235.9 L404.0 293.0 L428.6 293.0 L449.5 293.0 L449.5 290.0 L449.6 247.2 L449.6 247.2 L449.6 246.4 L449.6 235.9 L428.6 235.9 L418.7 235.9 Z" fill="#2f8f83" fill-opacity="0.34" stroke="#0e5b52" stroke-width="1.6" />
  <path d="M428.6 293.0 L404.0 293.0 L404.0 350.0 L419.2 350.0 L428.6 350.0 L449.5 350.0 L449.5 348.6 L449.5 314.3 L449.5 293.0 L428.6 293.0 Z" fill="#2f8f83" fill-opacity="0.34" stroke="#0e5b52" stroke-width="1.6" />
  <path d="M464.8 314.3 L449.5 314.3 L449.5 348.6 L461.4 348.6 L461.4 332.1 L464.8 332.1 L464.8 314.3 Z" fill="#2f8f83" fill-opacity="0.34" stroke="#0e5b52" stroke-width="1.6" />
  <path d="M428.6 350.0 L419.2 350.0 L419.2 393.5 L419.2 393.5 L419.2 394.2 L419.2 394.2 L426.7 394.2 L428.6 394.2 L449.7 394.2 L449.7 393.5 L449.7 388.8 L461.4 388.8 L461.4 348.6 L449.5 348.6 L449.5 350.0 L428.6 350.0 Z" fill="#2f8f83" fill-opacity="0.34" stroke="#0e5b52" stroke-width="1.6" />
  <path d="M581.3 343.9 L540.8 343.9 L540.7 389.5 L594.7 389.5 L594.7 361.1 L594.7 343.9 L592.7 343.9 L581.3 343.9 Z" fill="#2f8f83" fill-opacity="0.34" stroke="#0e5b52" stroke-width="1.6" />
  <path d="M594.7 426.1 L594.7 406.8 L594.7 393.5 L594.7 389.5 L540.7 389.5 L540.7 393.5 L540.7 434.4 L537.8 434.4 L537.8 434.8 L537.8 435.1 L562.4 435.1 L594.7 435.1 L594.7 426.1 Z" fill="#2f8f83" fill-opacity="0.34" stroke="#0e5b52" stroke-width="1.6" />
  <path d="M505.6 434.4 L472.4 434.4 L472.4 457.2 L448.7 457.2 L448.7 473.3 L448.7 476.2 L505.6 476.1 L505.6 434.4 Z" fill="#2f8f83" fill-opacity="0.34" stroke="#0e5b52" stroke-width="1.6" />
  <path d="M562.4 471.7 L562.4 435.1 L537.8 434.8 L505.6 434.4 L505.6 476.1 L562.4 476.2 L562.4 471.7 Z" fill="#2f8f83" fill-opacity="0.34" stroke="#0e5b52" stroke-width="1.6" />
  <path d="M505.6 476.1 L448.7 476.2 L448.7 518.8 L448.7 521.7 L474.0 521.7 L505.6 521.7 L505.6 476.1 Z" fill="#2f8f83" fill-opacity="0.34" stroke="#0e5b52" stroke-width="1.6" />
  <path d="M562.4 476.2 L505.6 476.1 L505.6 521.7 L519.5 521.7 L562.4 521.7 L562.4 476.2 Z" fill="#2f8f83" fill-opacity="0.34" stroke="#0e5b52" stroke-width="1.6" />
  <path d="M419.2 393.5 L419.2 393.5 L419.2 350.0 L404.0 350.0 L404.0 394.2 L419.2 394.2 L419.2 393.5 Z" fill="#2f8f83" fill-opacity="0.34" stroke="#0e5b52" stroke-width="1.6" />
  <path d="M449.7 394.2 L428.6 394.2 L426.7 394.2 L419.2 394.2 L404.0 394.2 L404.0 394.2 L404.0 439.8 L404.6 439.8 L405.2 439.8 L428.4 439.8 L428.4 434.4 L428.6 434.4 L449.7 434.4 L449.7 394.2 Z" fill="#2f8f83" fill-opacity="0.34" stroke="#0e5b52" stroke-width="1.6" />
  <path d="M428.4 439.8 L405.2 439.8 L405.2 450.0 L405.2 473.3 L428.6 473.3 L448.7 473.3 L448.7 457.2 L428.6 457.2 L428.4 457.2 L428.4 439.8 Z" fill="#2f8f83" fill-opacity="0.34" stroke="#0e5b52" stroke-width="1.6" />
  <path d="M448.7 476.2 L448.7 473.3 L428.6 473.3 L405.2 473.3 L405.3 484.1 L405.3 510.7 L408.3 510.7 L428.6 510.7 L428.6 518.8 L448.7 518.8 L448.7 476.2 Z" fill="#2f8f83" fill-opacity="0.34" stroke="#0e5b52" stroke-width="1.6" />
  <path d="M449.6 290.0 L449.5 290.0 L449.5 293.0 L449.5 314.3 L464.8 314.3 L464.8 332.1 L481.5 332.1 L481.5 292.4 L482.6 292.4 L482.6 292.1 L482.6 290.0 L449.6 290.0 Z" fill="#2f8f83" fill-opacity="0.34" stroke="#0e5b52" stroke-width="1.6" />
  <path d="M482.6 292.4 L481.5 292.4 L481.5 332.1 L507.0 332.1 L538.4 332.1 L538.4 292.4 L505.9 292.4 L482.6 292.4 Z" fill="#2f8f83" fill-opacity="0.34" stroke="#0e5b52" stroke-width="1.6" />
  <path d="M562.9 292.4 L538.4 292.4 L538.4 332.1 L541.1 332.1 L541.1 333.8 L540.8 333.8 L540.8 343.9 L581.3 343.9 L581.3 292.7 L584.0 292.7 L584.0 292.4 L562.9 292.4 Z" fill="#2f8f83" fill-opacity="0.34" stroke="#0e5b52" stroke-width="1.6" />
  <path d="M584.0 292.7 L581.3 292.7 L581.3 343.9 L592.7 343.9 L592.7 315.5 L592.7 295.4 L592.7 292.7 L584.0 292.7 Z" fill="#2f8f83" fill-opacity="0.34" stroke="#0e5b52" stroke-width="1.6" />
  <path d="M649.6 315.5 L592.7 315.5 L592.7 343.9 L594.7 343.9 L594.7 361.1 L649.6 361.2 L649.6 315.5 Z" fill="#2f8f83" fill-opacity="0.34" stroke="#0e5b52" stroke-width="1.6" />
  <path d="M649.6 361.2 L594.7 361.1 L594.7 389.5 L594.7 393.5 L594.7 406.8 L616.3 406.8 L649.6 406.8 L649.6 403.3 L649.6 393.5 L649.6 361.2 Z" fill="#2f8f83" fill-opacity="0.34" stroke="#0e5b52" stroke-width="1.6" />
  <path d="M616.3 406.8 L594.7 406.8 L594.7 426.1 L616.3 426.1 L616.3 406.8 Z" fill="#2f8f83" fill-opacity="0.34" stroke="#0e5b52" stroke-width="1.6" />
  <path d="M650.5 426.1 L650.5 403.3 L649.6 403.3 L649.6 406.8 L616.3 406.8 L616.3 426.1 L650.5 426.1 Z" fill="#2f8f83" fill-opacity="0.34" stroke="#0e5b52" stroke-width="1.6" />
  <path d="M616.3 426.1 L594.7 426.1 L594.7 435.1 L562.4 435.1 L562.4 471.7 L616.3 471.7 L616.3 426.1 Z" fill="#2f8f83" fill-opacity="0.34" stroke="#0e5b52" stroke-width="1.6" />
  <path d="M650.5 426.1 L616.3 426.1 L616.3 471.7 L650.4 471.7 L650.5 426.1 Z" fill="#2f8f83" fill-opacity="0.34" stroke="#0e5b52" stroke-width="1.6" />
  <path d="M303.5 150.3 L312.2 150.3 L312.2 160.9 L312.2 171.5 L312.2 182.1 L320.9 182.1 L329.7 182.1 L338.4 182.1 L347.1 182.1 L355.9 182.1 L364.6 182.1 L364.6 171.5 L364.6 160.9 L364.6 150.3 L364.6 139.7 L355.9 139.7 L347.1 139.7 L338.4 139.7 L329.7 139.7 L320.9 139.7 L312.2 139.7 L303.5 139.7 L303.5 150.3 Z" fill="#2f8f83" fill-opacity="0.34" stroke="#0e5b52" stroke-width="1.6" />
  <path d="M364.6 171.5 L364.6 182.1 L373.3 182.1 L382.1 182.1 L390.8 182.1 L399.6 182.1 L408.3 182.1 L417.0 182.1 L417.0 171.5 L417.0 160.9 L417.0 150.3 L417.0 139.7 L408.3 139.7 L399.5 139.7 L390.8 139.7 L382.1 139.7 L373.3 139.7 L364.6 139.7 L364.6 150.3 L364.6 160.9 L364.6 171.5 Z" fill="#2f8f83" fill-opacity="0.34" stroke="#0e5b52" stroke-width="1.6" />
  <path d="M417.0 182.1 L417.0 192.7 L425.8 192.7 L434.5 192.7 L443.2 192.7 L452.0 192.7 L460.7 192.7 L460.7 182.1 L460.7 171.5 L460.7 160.9 L460.7 150.3 L460.7 139.7 L452.0 139.7 L443.2 139.7 L434.5 139.7 L425.8 139.7 L417.0 139.7 L417.0 150.3 L417.0 160.9 L417.0 171.5 L417.0 182.1 Z" fill="#2f8f83" fill-opacity="0.34" stroke="#0e5b52" stroke-width="1.6" />
  <path d="M417.0 224.5 L417.0 235.1 L425.8 235.1 L434.5 235.1 L443.2 235.1 L452.0 235.1 L452.0 245.7 L460.7 245.7 L469.4 245.7 L469.4 235.1 L469.4 224.5 L469.4 213.9 L469.4 203.3 L460.7 203.3 L460.7 192.7 L452.0 192.7 L443.2 192.7 L434.5 192.7 L425.8 192.7 L417.0 192.7 L417.0 203.3 L417.0 213.9 L417.0 224.5 Z" fill="#2f8f83" fill-opacity="0.34" stroke="#0e5b52" stroke-width="1.6" />
  <path d="M460.7 192.7 L460.7 203.3 L469.4 203.3 L469.4 213.9 L469.4 224.5 L469.4 235.1 L469.4 245.7 L478.2 245.7 L486.9 245.7 L495.6 245.7 L504.4 245.7 L504.4 235.1 L504.4 224.5 L504.4 213.9 L504.4 203.3 L504.4 192.7 L495.6 192.7 L495.6 182.1 L486.9 182.1 L478.2 182.1 L469.4 182.1 L460.7 182.1 L460.7 192.7 Z" fill="#2f8f83" fill-opacity="0.34" stroke="#0e5b52" stroke-width="1.6" />
  <path d="M583.0 160.9 L583.0 171.5 L591.7 171.5 L600.5 171.5 L609.2 171.5 L617.9 171.5 L626.7 171.5 L626.7 160.9 L626.7 150.3 L626.7 139.7 L626.7 129.1 L626.7 118.5 L617.9 118.5 L609.2 118.5 L600.5 118.5 L591.7 118.5 L583.0 118.5 L583.0 129.1 L583.0 139.7 L583.0 150.3 L583.0 160.9 Z" fill="#2f8f83" fill-opacity="0.34" stroke="#0e5b52" stroke-width="1.6" />
  <path d="M539.3 160.9 L539.3 171.5 L548.1 171.5 L556.8 171.5 L565.5 171.5 L574.3 171.5 L583.0 171.5 L583.0 160.9 L583.0 150.3 L583.0 139.7 L583.0 129.1 L583.0 118.5 L574.3 118.5 L565.5 118.5 L556.8 118.5 L548.0 118.5 L539.3 118.5 L539.3 129.1 L539.3 139.7 L539.3 150.3 L539.3 160.9 Z" fill="#2f8f83" fill-opacity="0.34" stroke="#0e5b52" stroke-width="1.6" />
  <path d="M495.6 160.9 L495.6 171.5 L504.4 171.5 L513.1 171.5 L521.8 171.5 L530.6 171.5 L539.3 171.5 L539.3 160.9 L539.3 150.3 L539.3 139.7 L539.3 129.1 L539.3 118.5 L530.6 118.5 L521.8 118.5 L513.1 118.5 L504.4 118.5 L495.6 118.5 L495.6 129.1 L495.6 139.7 L495.6 150.3 L495.6 160.9 Z" fill="#2f8f83" fill-opacity="0.34" stroke="#0e5b52" stroke-width="1.6" />
  <path d="M460.7 171.5 L460.7 182.1 L469.4 182.1 L478.2 182.1 L486.9 182.1 L495.6 182.1 L495.6 171.5 L495.6 160.9 L495.6 150.3 L495.6 139.7 L495.6 129.1 L495.6 118.5 L486.9 118.5 L478.2 118.5 L469.4 118.5 L460.7 118.5 L460.7 129.1 L460.7 139.7 L460.7 150.3 L460.7 160.9 L460.7 171.5 Z" fill="#2f8f83" fill-opacity="0.34" stroke="#0e5b52" stroke-width="1.6" />
  <path d="M495.6 192.7 L504.4 192.7 L504.4 203.3 L513.1 203.3 L521.8 203.3 L530.6 203.3 L539.3 203.3 L548.1 203.3 L556.8 203.3 L565.5 203.3 L574.3 203.3 L574.3 192.7 L574.3 182.1 L565.5 182.1 L565.5 171.5 L556.8 171.5 L548.1 171.5 L539.3 171.5 L530.6 171.5 L521.8 171.5 L513.1 171.5 L504.4 171.5 L495.6 171.5 L495.6 182.1 L495.6 192.7 Z" fill="#2f8f83" fill-opacity="0.34" stroke="#0e5b52" stroke-width="1.6" />
  <path d="M574.3 192.7 L574.3 203.3 L583.0 203.3 L591.7 203.3 L600.5 203.3 L609.2 203.3 L617.9 203.3 L626.7 203.3 L626.7 192.7 L626.7 182.1 L626.7 171.5 L617.9 171.5 L609.2 171.5 L600.5 171.5 L591.7 171.5 L583.0 171.5 L574.3 171.5 L565.5 171.5 L565.5 182.1 L574.3 182.1 L574.3 192.7 Z" fill="#2f8f83" fill-opacity="0.34" stroke="#0e5b52" stroke-width="1.6" />
  <path d="M626.7 192.7 L626.7 203.3 L635.4 203.3 L644.1 203.3 L652.9 203.3 L652.9 192.7 L652.9 182.1 L652.9 171.5 L652.9 160.9 L652.9 150.3 L652.9 139.7 L652.9 129.1 L652.9 118.5 L644.1 118.5 L635.4 118.5 L626.7 118.5 L626.7 129.1 L626.7 139.7 L626.7 150.3 L626.7 160.9 L626.7 171.5 L626.7 182.1 L626.7 192.7 Z" fill="#2f8f83" fill-opacity="0.34" stroke="#0e5b52" stroke-width="1.6" />
  <path d="M617.9 245.7 L617.9 256.3 L626.7 256.3 L635.4 256.3 L644.1 256.3 L652.9 256.3 L661.6 256.3 L661.6 245.7 L661.6 235.1 L661.6 224.5 L661.6 213.9 L661.6 203.3 L652.9 203.3 L644.1 203.3 L635.4 203.3 L626.7 203.3 L617.9 203.3 L617.9 213.9 L617.9 224.5 L617.9 235.1 L617.9 245.7 Z" fill="#2f8f83" fill-opacity="0.34" stroke="#0e5b52" stroke-width="1.6" />
  <path d="M617.9 277.5 L617.9 288.1 L626.7 288.1 L635.4 288.1 L644.1 288.1 L644.1 298.7 L644.1 309.3 L652.9 309.3 L661.6 309.3 L670.3 309.3 L670.3 298.7 L670.3 288.1 L670.3 277.5 L670.3 266.9 L670.3 256.3 L661.6 256.3 L652.9 256.3 L644.1 256.3 L635.4 256.3 L626.7 256.3 L617.9 256.3 L617.9 266.9 L617.9 277.5 Z" fill="#2f8f83" fill-opacity="0.34" stroke="#0e5b52" stroke-width="1.6" />
  <path d="M644.1 341.0 L644.1 351.6 L652.9 351.6 L661.6 351.6 L670.3 351.6 L679.1 351.6 L687.8 351.6 L687.8 362.2 L696.5 362.2 L696.5 351.6 L696.5 341.0 L696.5 330.4 L696.5 319.9 L696.5 309.3 L687.8 309.3 L679.1 309.3 L670.3 309.3 L661.6 309.3 L652.9 309.3 L644.1 309.3 L644.1 319.9 L644.1 330.4 L644.1 341.0 Z" fill="#2f8f83" fill-opacity="0.34" stroke="#0e5b52" stroke-width="1.6" />
  <path d="M452.0 245.7 L452.0 235.1 L443.2 235.1 L443.2 245.7 L452.0 245.7 Z" fill="#2f8f83" fill-opacity="0.34" stroke="#0e5b52" stroke-width="1.6" />
  <path d="M434.5 245.7 L434.5 235.1 L425.8 235.1 L425.8 245.7 L434.5 245.7 Z" fill="#2f8f83" fill-opacity="0.34" stroke="#0e5b52" stroke-width="1.6" />
  <path d="M443.2 245.7 L443.2 235.1 L434.5 235.1 L434.5 245.7 L443.2 245.7 Z" fill="#2f8f83" fill-opacity="0.34" stroke="#0e5b52" stroke-width="1.6" />
  <!-- title strip -->
  <rect x="0" y="0" width="1000" height="54" fill="#173042" />
  <text x="20" y="34" font-size="21" font-weight="bold" fill="#ffffff">Tudor Gold Corp. — Mineral Claims</text>
  <text x="980" y="34" font-size="15" fill="#cfe3df" text-anchor="end">TUD</text>
  <!-- scale bar -->
  <g transform="translate(845.8822763910978, 596)">
    <rect x="0" y="0" width="57.0588618044511" height="8" fill="#173042" />
    <rect x="57.0588618044511" y="0" width="57.0588618044511" height="8" fill="#ffffff" stroke="#173042" stroke-width="1" />
    <text x="57.0588618044511" y="-6" font-size="12" fill="#173042" text-anchor="middle">5 km</text>
  </g>
  <!-- north arrow -->
  <g transform="translate(956, 92)">
    <circle r="17" fill="#ffffff" stroke="#b9b09a" />
    <path d="M0 -10 L5 7 L0 3 L-5 7 Z" fill="#173042" />
    <text y="14" font-size="9" font-weight="bold" fill="#173042" text-anchor="middle">N</text>
  </g>
  <!-- watermark -->
  <text x="20" y="620" font-size="13" fill="#7d8b8a">Map by Exploration Maps — explorationmaps.com</text>
</svg>