<svg xmlns="http://www.w3.org/2000/svg" viewBox="0 0 1000 640" font-family="Arial, Helvetica, sans-serif">
  <rect width="1000" height="640" fill="#f3efe6" />
  <line x1="200" y1="0" x2="200" y2="640" stroke="#d9d2c0" stroke-width="0.7" />
  <line x1="0" y1="128" x2="1000" y2="128" stroke="#d9d2c0" stroke-width="0.7" />
  <line x1="400" y1="0" x2="400" y2="640" stroke="#d9d2c0" stroke-width="0.7" />
  <line x1="0" y1="256" x2="1000" y2="256" stroke="#d9d2c0" stroke-width="0.7" />
  <line x1="600" y1="0" x2="600" y2="640" stroke="#d9d2c0" stroke-width="0.7" />
  <line x1="0" y1="384" x2="1000" y2="384" stroke="#d9d2c0" stroke-width="0.7" />
  <line x1="800" y1="0" x2="800" y2="640" stroke="#d9d2c0" stroke-width="0.7" />
  <line x1="0" y1="512" x2="1000" y2="512" stroke="#d9d2c0" stroke-width="0.7" />
  <path d="M386.1 160.4 L386.1 160.4 L385.6 160.4 L385.6 160.7 L385.6 161.8 L386.1 161.8 L386.5 161.8 L386.5 160.9 L386.5 160.4 L386.1 160.4 Z" fill="#2f8f83" fill-opacity="0.34" stroke="#0e5b52" stroke-width="1.6" />
  <path d="M386.5 161.8 L386.1 161.8 L385.6 161.8 L385.6 161.8 L385.6 161.8 L385.6 163.4 L386.2 163.4 L386.5 163.4 L386.5 163.0 L386.5 162.0 L386.5 161.8 L386.5 161.8 L386.5 161.8 Z" fill="#2f8f83" fill-opacity="0.34" stroke="#0e5b52" stroke-width="1.6" />
  <path d="M385.6 161.8 L384.6 161.8 L384.6 161.8 L384.6 161.8 L384.6 161.8 L384.6 162.5 L384.6 163.1 L385.0 163.1 L385.6 163.1 L385.6 161.8 L385.6 161.8 L385.6 161.8 Z" fill="#2f8f83" fill-opacity="0.34" stroke="#0e5b52" stroke-width="1.6" />
  <path d="M385.6 160.7 L384.8 160.7 L384.3 160.7 L384.3 160.9 L384.3 161.2 L384.3 161.8 L384.3 161.8 L384.5 161.8 L384.6 161.8 L385.6 161.8 L385.6 160.7 Z" fill="#2f8f83" fill-opacity="0.34" stroke="#0e5b52" stroke-width="1.6" />
  <path d="M374.3 171.4 L374.0 171.4 L374.0 171.4 L374.0 172.5 L375.3 172.5 L375.3 171.4 L374.3 171.4 Z" fill="#2f8f83" fill-opacity="0.34" stroke="#0e5b52" stroke-width="1.6" />
  <path d="M376.7 171.4 L376.0 171.4 L375.3 171.4 L375.3 172.5 L376.0 172.5 L376.7 172.5 L376.7 171.4 Z" fill="#2f8f83" fill-opacity="0.34" stroke="#0e5b52" stroke-width="1.6" />
  <path d="M374.0 173.1 L374.0 173.6 L374.5 173.6 L374.5 173.5 L375.3 173.5 L375.3 172.5 L374.0 172.5 L374.0 172.5 L374.0 172.5 L374.0 172.5 L374.1 172.5 L374.1 172.6 L374.1 172.6 L374.1 172.9 L374.1 173.1 L374.0 173.1 Z" fill="#2f8f83" fill-opacity="0.34" stroke="#0e5b52" stroke-width="1.6" />
  <path d="M376.7 172.5 L376.0 172.5 L375.3 172.5 L375.3 173.5 L376.0 173.5 L376.7 173.5 L376.7 172.5 Z" fill="#2f8f83" fill-opacity="0.34" stroke="#0e5b52" stroke-width="1.6" />
  <path d="M376.7 174.1 L376.0 174.1 L375.9 174.1 L375.9 174.4 L376.0 174.4 L376.7 174.4 L376.7 174.2 L376.7 174.1 Z" fill="#2f8f83" fill-opacity="0.34" stroke="#0e5b52" stroke-width="1.6" />
  <path d="M386.6 165.9 L386.6 165.9 L386.5 165.9 L386.4 165.9 L386.4 166.2 L386.6 166.2 L386.6 165.9 Z" fill="#2f8f83" fill-opacity="0.34" stroke="#0e5b52" stroke-width="1.6" />
  <path d="M386.9 166.1 L386.9 165.9 L386.6 165.9 L386.6 165.9 L386.6 166.2 L386.9 166.2 L386.9 166.1 Z" fill="#2f8f83" fill-opacity="0.34" stroke="#0e5b52" stroke-width="1.6" />
  <path d="M386.6 166.4 L386.6 166.2 L386.4 166.2 L386.4 166.4 L386.6 166.4 L386.6 166.4 L386.6 166.4 Z" fill="#2f8f83" fill-opacity="0.34" stroke="#0e5b52" stroke-width="1.6" />
  <path d="M386.9 166.2 L386.9 166.2 L386.6 166.2 L386.6 166.4 L386.6 166.4 L386.9 166.4 L386.9 166.2 Z" fill="#2f8f83" fill-opacity="0.34" stroke="#0e5b52" stroke-width="1.6" />
  <path d="M386.6 165.2 L386.5 165.2 L386.5 165.8 L386.5 165.9 L386.9 165.9 L386.9 166.1 L387.0 166.1 L387.0 165.2 L386.6 165.2 Z" fill="#2f8f83" fill-opacity="0.34" stroke="#0e5b52" stroke-width="1.6" />
  <path d="M386.5 165.2 L386.2 165.2 L386.2 165.8 L386.5 165.8 L386.5 165.2 Z" fill="#2f8f83" fill-opacity="0.34" stroke="#0e5b52" stroke-width="1.6" />
  <path d="M648.7 524.6 L648.5 524.5 L648.6 524.4 L648.3 524.4 L648.2 524.4 L648.2 524.5 L648.2 524.9 L648.2 524.9 L648.2 525.1 L649.2 525.1 L649.2 525.0 L649.1 525.0 L649.1 524.9 L648.9 524.9 L648.8 524.9 L648.9 524.8 L648.9 524.8 L648.8 524.7 L648.7 524.7 L648.7 524.6 Z" fill="#2f8f83" fill-opacity="0.34" stroke="#0e5b52" stroke-width="1.6" />
  <path d="M649.8 525.8 L649.8 525.7 L649.8 525.1 L649.2 525.1 L649.2 525.1 L648.5 525.1 L648.5 525.7 L648.5 525.8 L649.8 525.8 Z" fill="#2f8f83" fill-opacity="0.34" stroke="#0e5b52" stroke-width="1.6" />
  <path d="M387.5 162.0 L386.5 162.0 L386.5 163.0 L387.5 163.0 L387.5 163.0 L387.5 162.0 Z" fill="#2f8f83" fill-opacity="0.34" stroke="#0e5b52" stroke-width="1.6" />
  <path d="M385.6 163.1 L385.0 163.1 L385.0 163.3 L384.9 163.3 L384.9 163.3 L384.9 163.9 L384.8 163.9 L384.8 164.1 L386.2 164.1 L386.2 163.4 L385.6 163.4 L385.6 163.1 Z" fill="#2f8f83" fill-opacity="0.34" stroke="#0e5b52" stroke-width="1.6" />
  <path d="M387.5 163.0 L387.5 163.0 L386.5 163.0 L386.5 163.4 L386.2 163.4 L386.2 164.1 L387.5 164.1 L387.5 163.0 L387.5 163.0 Z" fill="#2f8f83" fill-opacity="0.34" stroke="#0e5b52" stroke-width="1.6" />
  <path d="M386.2 164.1 L384.8 164.1 L384.8 164.8 L384.8 165.2 L385.3 165.2 L385.6 165.2 L385.6 165.1 L386.2 165.1 L386.2 164.1 Z" fill="#2f8f83" fill-opacity="0.34" stroke="#0e5b52" stroke-width="1.6" />
  <path d="M387.5 164.1 L386.2 164.1 L386.2 165.1 L386.6 165.1 L387.5 165.1 L387.5 164.1 Z" fill="#2f8f83" fill-opacity="0.34" stroke="#0e5b52" stroke-width="1.6" />
  <path d="M386.2 165.1 L385.6 165.1 L385.6 165.2 L385.6 166.0 L385.6 166.2 L386.4 166.2 L386.4 165.9 L386.5 165.9 L386.5 165.8 L386.2 165.8 L386.2 165.2 L386.5 165.2 L386.6 165.2 L386.6 165.1 L386.2 165.1 Z" fill="#2f8f83" fill-opacity="0.34" stroke="#0e5b52" stroke-width="1.6" />
  <path d="M387.5 165.1 L386.6 165.1 L386.6 165.2 L387.0 165.2 L387.0 166.1 L386.9 166.1 L386.9 166.2 L386.9 166.2 L387.7 166.2 L387.7 165.1 L387.5 165.1 Z" fill="#2f8f83" fill-opacity="0.34" stroke="#0e5b52" stroke-width="1.6" />
  <path d="M386.4 166.2 L385.6 166.2 L385.6 167.1 L385.6 167.5 L385.8 167.5 L385.8 167.5 L386.6 167.5 L386.6 166.4 L386.4 166.4 L386.4 166.2 Z" fill="#2f8f83" fill-opacity="0.34" stroke="#0e5b52" stroke-width="1.6" />
  <path d="M387.7 166.2 L386.9 166.2 L386.9 166.4 L386.6 166.4 L386.6 166.4 L386.6 166.4 L386.6 167.5 L386.9 167.5 L387.7 167.5 L387.7 167.5 L387.7 166.2 Z" fill="#2f8f83" fill-opacity="0.34" stroke="#0e5b52" stroke-width="1.6" />
  <path d="M385.1 156.3 L385.0 156.3 L385.0 157.7 L386.1 157.7 L386.1 157.7 L386.1 156.3 L386.1 156.3 L385.1 156.3 Z" fill="#2f8f83" fill-opacity="0.34" stroke="#0e5b52" stroke-width="1.6" />
  <path d="M387.1 156.3 L386.1 156.3 L386.1 157.7 L387.2 157.7 L387.2 156.4 L387.2 156.3 L387.1 156.3 Z" fill="#2f8f83" fill-opacity="0.34" stroke="#0e5b52" stroke-width="1.6" />
  <path d="M386.1 157.7 L385.0 157.7 L385.0 157.9 L385.0 158.7 L386.1 158.7 L386.1 158.7 L386.1 157.7 L386.1 157.7 Z" fill="#2f8f83" fill-opacity="0.34" stroke="#0e5b52" stroke-width="1.6" />
  <path d="M387.2 157.7 L386.1 157.7 L386.1 158.7 L386.1 158.7 L387.2 158.7 L387.2 157.7 Z" fill="#2f8f83" fill-opacity="0.34" stroke="#0e5b52" stroke-width="1.6" />
  <path d="M385.1 156.3 L384.4 156.3 L384.4 157.1 L384.3 157.1 L384.3 157.2 L384.3 157.9 L384.3 157.9 L385.0 157.9 L385.0 157.7 L385.0 156.3 L385.1 156.3 L385.1 156.3 Z" fill="#2f8f83" fill-opacity="0.34" stroke="#0e5b52" stroke-width="1.6" />
  <path d="M385.0 157.9 L384.3 157.9 L384.3 157.9 L384.3 158.2 L384.3 159.1 L384.3 159.5 L384.8 159.5 L384.8 158.7 L385.0 158.7 L385.0 157.9 Z" fill="#2f8f83" fill-opacity="0.34" stroke="#0e5b52" stroke-width="1.6" />
  <path d="M384.8 159.5 L384.3 159.5 L384.3 160.0 L384.3 160.9 L384.3 160.9 L384.3 160.9 L384.3 160.7 L384.8 160.7 L384.8 159.8 L384.8 159.5 Z" fill="#2f8f83" fill-opacity="0.34" stroke="#0e5b52" stroke-width="1.6" />
  <path d="M385.0 158.7 L384.8 158.7 L384.8 159.5 L384.8 159.8 L386.1 159.8 L386.1 159.8 L386.1 158.7 L386.1 158.7 L386.1 158.7 L385.0 158.7 Z" fill="#2f8f83" fill-opacity="0.34" stroke="#0e5b52" stroke-width="1.6" />
  <path d="M387.2 158.7 L386.1 158.7 L386.1 159.8 L387.5 159.8 L387.5 158.7 L387.2 158.7 Z" fill="#2f8f83" fill-opacity="0.34" stroke="#0e5b52" stroke-width="1.6" />
  <path d="M386.1 159.8 L386.1 159.8 L384.8 159.8 L384.8 160.7 L385.6 160.7 L385.6 160.4 L386.1 160.4 L386.1 160.4 L386.1 159.8 Z" fill="#2f8f83" fill-opacity="0.34" stroke="#0e5b52" stroke-width="1.6" />
  <path d="M387.5 159.8 L386.1 159.8 L386.1 160.4 L386.5 160.4 L386.5 160.9 L387.5 160.9 L387.5 160.9 L387.5 160.9 L387.5 159.8 Z" fill="#2f8f83" fill-opacity="0.34" stroke="#0e5b52" stroke-width="1.6" />
  <path d="M386.5 161.8 L386.5 162.0 L387.5 162.0 L387.5 161.8 L387.5 161.8 L387.5 160.9 L387.5 160.9 L386.5 160.9 L386.5 161.8 L386.5 161.8 L386.5 161.8 Z" fill="#2f8f83" fill-opacity="0.34" stroke="#0e5b52" stroke-width="1.6" />
  <path d="M382.9 159.3 L382.4 159.3 L382.4 160.0 L383.5 160.0 L383.5 159.3 L382.9 159.3 Z" fill="#2f8f83" fill-opacity="0.34" stroke="#0e5b52" stroke-width="1.6" />
  <path d="M384.3 159.1 L384.3 159.1 L384.3 159.3 L383.5 159.3 L383.5 160.0 L384.3 160.0 L384.3 159.5 L384.3 159.1 Z" fill="#2f8f83" fill-opacity="0.34" stroke="#0e5b52" stroke-width="1.6" />
  <path d="M383.5 160.0 L382.4 160.0 L382.4 161.1 L382.9 161.1 L382.9 161.2 L383.5 161.2 L383.5 160.0 Z" fill="#2f8f83" fill-opacity="0.34" stroke="#0e5b52" stroke-width="1.6" />
  <path d="M384.3 160.0 L383.5 160.0 L383.5 161.2 L383.8 161.2 L384.3 161.2 L384.3 160.9 L384.3 160.9 L384.3 160.0 Z" fill="#2f8f83" fill-opacity="0.34" stroke="#0e5b52" stroke-width="1.6" />
  <path d="M366.0 151.0 L366.0 151.2 L366.2 151.2 L366.4 151.2 L366.4 151.5 L366.7 151.5 L366.9 151.5 L367.1 151.5 L367.3 151.5 L367.5 151.5 L367.5 151.2 L367.5 151.0 L367.5 150.7 L367.5 150.5 L367.5 150.2 L367.3 150.2 L367.1 150.2 L366.9 150.2 L366.7 150.2 L366.4 150.2 L366.2 150.2 L366.2 150.5 L366.2 150.7 L366.0 150.7 L366.0 151.0 Z" fill="#2f8f83" fill-opacity="0.34" stroke="#0e5b52" stroke-width="1.6" />
  <path d="M366.7 153.3 L366.7 153.5 L366.9 153.5 L367.1 153.5 L367.3 153.5 L367.5 153.5 L367.5 153.3 L367.5 153.0 L367.5 152.8 L367.5 152.5 L367.5 152.2 L367.5 152.0 L367.5 151.7 L367.5 151.5 L367.3 151.5 L367.1 151.5 L366.9 151.5 L366.7 151.5 L366.7 151.7 L366.7 152.0 L366.7 152.2 L366.7 152.5 L366.7 152.8 L366.7 153.0 L366.7 153.3 Z" fill="#2f8f83" fill-opacity="0.34" stroke="#0e5b52" stroke-width="1.6" />
  <path d="M380.6 181.7 L380.6 181.9 L380.8 181.9 L381.0 181.9 L381.2 181.9 L381.5 181.9 L381.7 181.9 L381.9 181.9 L382.1 181.9 L382.1 181.7 L382.1 181.4 L382.1 181.2 L382.3 181.2 L382.3 180.9 L382.3 180.7 L382.3 180.4 L382.3 180.2 L382.3 179.9 L382.1 179.9 L381.9 179.9 L381.7 179.9 L381.5 179.9 L381.2 179.9 L381.0 179.9 L380.8 179.9 L380.8 180.2 L380.8 180.4 L380.8 180.7 L380.8 180.9 L380.6 180.9 L380.6 181.2 L380.6 181.4 L380.6 181.7 Z" fill="#2f8f83" fill-opacity="0.34" stroke="#0e5b52" stroke-width="1.6" />
  <path d="M379.6 179.7 L379.6 179.9 L379.8 179.9 L380.0 179.9 L380.2 179.9 L380.4 179.9 L380.6 179.9 L380.8 179.9 L381.0 179.9 L381.2 179.9 L381.5 179.9 L381.7 179.9 L381.9 179.9 L382.1 179.9 L382.3 179.9 L382.3 179.7 L382.3 179.4 L382.3 179.2 L382.3 178.9 L382.3 178.7 L382.1 178.7 L381.9 178.7 L381.7 178.7 L381.5 178.7 L381.2 178.7 L381.0 178.7 L380.8 178.7 L380.6 178.7 L380.4 178.7 L380.2 178.7 L380.0 178.7 L379.8 178.7 L379.6 178.7 L379.6 178.9 L379.6 179.2 L379.6 179.4 L379.6 179.7 Z" fill="#2f8f83" fill-opacity="0.34" stroke="#0e5b52" stroke-width="1.6" />
  <path d="M376.8 168.6 L377.0 168.6 L377.2 168.6 L377.4 168.6 L377.4 168.9 L377.4 169.1 L377.6 169.1 L377.9 169.1 L378.1 169.1 L378.3 169.1 L378.3 169.4 L378.5 169.4 L378.7 169.4 L378.9 169.4 L379.1 169.4 L379.3 169.4 L379.5 169.4 L379.5 169.1 L379.5 168.9 L379.3 168.9 L379.1 168.9 L378.9 168.9 L378.9 168.6 L378.9 168.4 L378.9 168.1 L378.7 168.1 L378.5 168.1 L378.3 168.1 L378.1 168.1 L378.1 168.4 L377.9 168.4 L377.6 168.4 L377.6 168.1 L377.6 167.9 L377.6 167.6 L377.4 167.6 L377.2 167.6 L377.0 167.6 L376.8 167.6 L376.8 167.9 L376.8 168.1 L376.8 168.4 L376.8 168.6 Z" fill="#2f8f83" fill-opacity="0.34" stroke="#0e5b52" stroke-width="1.6" />
  <path d="M378.3 169.6 L378.3 169.9 L378.5 169.9 L378.7 169.9 L378.9 169.9 L379.1 169.9 L379.1 170.1 L379.3 170.1 L379.5 170.1 L379.8 170.1 L380.0 170.1 L380.2 170.1 L380.2 169.9 L380.2 169.6 L380.2 169.4 L380.0 169.4 L379.8 169.4 L379.5 169.4 L379.3 169.4 L379.1 169.4 L378.9 169.4 L378.7 169.4 L378.5 169.4 L378.3 169.4 L378.3 169.6 Z" fill="#2f8f83" fill-opacity="0.34" stroke="#0e5b52" stroke-width="1.6" />
  <path d="M380.6 181.2 L380.6 180.9 L380.4 180.9 L380.4 181.2 L380.6 181.2 Z" fill="#2f8f83" fill-opacity="0.34" stroke="#0e5b52" stroke-width="1.6" />
  <path d="M381.7 160.6 L381.7 160.8 L381.9 160.8 L382.1 160.8 L382.3 160.8 L382.5 160.8 L382.5 160.6 L382.5 160.3 L382.5 160.1 L382.5 159.8 L382.5 159.6 L382.5 159.3 L382.3 159.3 L382.1 159.3 L381.9 159.3 L381.7 159.3 L381.7 159.6 L381.7 159.8 L381.7 160.1 L381.7 160.3 L381.7 160.6 Z" fill="#2f8f83" fill-opacity="0.34" stroke="#0e5b52" stroke-width="1.6" />
  <path d="M381.0 160.6 L381.0 160.8 L381.2 160.8 L381.4 160.8 L381.7 160.8 L381.7 160.6 L381.7 160.3 L381.7 160.1 L381.7 159.8 L381.7 159.6 L381.7 159.3 L381.7 159.1 L381.7 158.8 L381.4 158.8 L381.2 158.8 L381.0 158.8 L381.0 159.1 L381.0 159.3 L381.0 159.6 L381.0 159.8 L381.0 160.1 L381.0 160.3 L381.0 160.6 Z" fill="#2f8f83" fill-opacity="0.34" stroke="#0e5b52" stroke-width="1.6" />
  <path d="M382.3 161.1 L382.5 161.1 L382.5 160.8 L382.3 160.8 L382.1 160.8 L382.1 161.1 L382.3 161.1 Z" fill="#2f8f83" fill-opacity="0.34" stroke="#0e5b52" stroke-width="1.6" />
  <path d="M387.4 163.6 L387.4 163.9 L387.6 163.9 L387.8 163.9 L387.8 163.6 L387.8 163.4 L387.8 163.1 L387.8 162.8 L387.8 162.6 L387.6 162.6 L387.4 162.6 L387.4 162.8 L387.4 163.1 L387.4 163.4 L387.4 163.6 Z" fill="#2f8f83" fill-opacity="0.34" stroke="#0e5b52" stroke-width="1.6" />
  <path d="M387.6 164.1 L387.8 164.1 L387.8 163.9 L387.6 163.9 L387.4 163.9 L387.4 164.1 L387.6 164.1 Z" fill="#2f8f83" fill-opacity="0.34" stroke="#0e5b52" stroke-width="1.6" />
  <path d="M387.4 164.9 L387.4 165.1 L387.6 165.1 L387.8 165.1 L387.8 164.9 L387.8 164.6 L387.8 164.4 L387.8 164.1 L387.6 164.1 L387.4 164.1 L387.4 164.4 L387.4 164.6 L387.4 164.9 Z" fill="#2f8f83" fill-opacity="0.34" stroke="#0e5b52" stroke-width="1.6" />
  <path d="M387.6 166.1 L387.6 166.4 L387.8 166.4 L388.0 166.4 L388.0 166.1 L388.0 165.9 L388.0 165.6 L388.0 165.4 L388.0 165.1 L387.8 165.1 L387.6 165.1 L387.6 165.4 L387.6 165.6 L387.6 165.9 L387.6 166.1 Z" fill="#2f8f83" fill-opacity="0.34" stroke="#0e5b52" stroke-width="1.6" />
  <path d="M387.6 167.4 L387.6 167.6 L387.8 167.6 L388.0 167.6 L388.0 167.4 L388.0 167.1 L388.0 166.9 L388.0 166.6 L388.0 166.4 L387.8 166.4 L387.6 166.4 L387.6 166.6 L387.6 166.9 L387.6 167.1 L387.6 167.4 Z" fill="#2f8f83" fill-opacity="0.34" stroke="#0e5b52" stroke-width="1.6" />
  <path d="M384.0 163.6 L384.0 163.9 L384.2 163.9 L384.4 163.9 L384.6 163.9 L384.8 163.9 L385.0 163.9 L385.0 163.6 L385.0 163.4 L385.0 163.1 L384.8 163.1 L384.6 163.1 L384.6 162.8 L384.6 162.6 L384.4 162.6 L384.2 162.6 L384.0 162.6 L384.0 162.8 L384.0 163.1 L384.0 163.4 L384.0 163.6 Z" fill="#2f8f83" fill-opacity="0.34" stroke="#0e5b52" stroke-width="1.6" />
  <path d="M381.5 176.7 L381.5 176.9 L381.7 176.9 L381.9 176.9 L382.1 176.9 L382.1 177.2 L382.3 177.2 L382.5 177.2 L382.7 177.2 L382.7 176.9 L382.7 176.7 L382.7 176.4 L382.5 176.4 L382.5 176.2 L382.5 175.9 L382.3 175.9 L382.1 175.9 L381.9 175.9 L381.7 175.9 L381.5 175.9 L381.5 176.2 L381.5 176.4 L381.5 176.7 Z" fill="#2f8f83" fill-opacity="0.34" stroke="#0e5b52" stroke-width="1.6" />
  <path d="M381.5 177.7 L381.5 177.9 L381.7 177.9 L381.9 177.9 L382.1 177.9 L382.3 177.9 L382.5 177.9 L382.7 177.9 L382.9 177.9 L383.1 177.9 L383.1 177.7 L383.1 177.4 L382.9 177.4 L382.7 177.4 L382.7 177.2 L382.5 177.2 L382.3 177.2 L382.1 177.2 L382.1 176.9 L381.9 176.9 L381.7 176.9 L381.5 176.9 L381.5 177.2 L381.5 177.4 L381.5 177.7 Z" fill="#2f8f83" fill-opacity="0.34" stroke="#0e5b52" stroke-width="1.6" />
  <path d="M381.0 178.2 L381.0 178.4 L381.2 178.4 L381.5 178.4 L381.7 178.4 L381.9 178.4 L382.1 178.4 L382.1 178.7 L382.3 178.7 L382.5 178.7 L382.7 178.7 L382.9 178.7 L383.1 178.7 L383.1 178.4 L383.1 178.2 L383.1 177.9 L382.9 177.9 L382.7 177.9 L382.5 177.9 L382.3 177.9 L382.1 177.9 L381.9 177.9 L381.7 177.9 L381.5 177.9 L381.2 177.9 L381.0 177.9 L381.0 178.2 Z" fill="#2f8f83" fill-opacity="0.34" stroke="#0e5b52" stroke-width="1.6" />
  <path d="M381.5 175.7 L381.5 175.9 L381.7 175.9 L381.9 175.9 L382.1 175.9 L382.3 175.9 L382.5 175.9 L382.5 175.7 L382.5 175.4 L382.5 175.2 L382.5 174.9 L382.5 174.7 L382.3 174.7 L382.1 174.7 L381.9 174.7 L381.7 174.7 L381.5 174.7 L381.5 174.9 L381.5 175.2 L381.5 175.4 L381.5 175.7 Z" fill="#2f8f83" fill-opacity="0.34" stroke="#0e5b52" stroke-width="1.6" />
  <path d="M380.6 175.9 L380.6 176.2 L380.8 176.2 L381.0 176.2 L381.2 176.2 L381.5 176.2 L381.5 175.9 L381.5 175.7 L381.5 175.4 L381.5 175.2 L381.5 174.9 L381.5 174.7 L381.2 174.7 L381.0 174.7 L380.8 174.7 L380.6 174.7 L380.6 174.9 L380.6 175.2 L380.6 175.4 L380.6 175.7 L380.6 175.9 Z" fill="#2f8f83" fill-opacity="0.34" stroke="#0e5b52" stroke-width="1.6" />
  <path d="M380.4 176.4 L380.4 176.7 L380.6 176.7 L380.8 176.7 L381.0 176.7 L381.0 176.9 L381.0 177.2 L381.0 177.4 L381.0 177.7 L381.0 177.9 L381.2 177.9 L381.5 177.9 L381.5 177.7 L381.5 177.4 L381.5 177.2 L381.5 176.9 L381.5 176.7 L381.5 176.4 L381.5 176.2 L381.2 176.2 L381.0 176.2 L380.8 176.2 L380.6 176.2 L380.4 176.2 L380.4 176.4 Z" fill="#2f8f83" fill-opacity="0.34" stroke="#0e5b52" stroke-width="1.6" />
  <path d="M376.6 174.2 L376.6 174.4 L376.8 174.4 L377.0 174.4 L377.2 174.4 L377.2 174.2 L377.4 174.2 L377.4 173.9 L377.6 173.9 L377.9 173.9 L378.1 173.9 L378.1 173.7 L378.1 173.4 L378.1 173.1 L378.1 172.9 L378.1 172.6 L378.1 172.4 L377.9 172.4 L377.6 172.4 L377.4 172.4 L377.2 172.4 L377.0 172.4 L376.8 172.4 L376.6 172.4 L376.6 172.6 L376.6 172.9 L376.6 173.1 L376.6 173.4 L376.6 173.7 L376.6 173.9 L376.6 174.2 Z" fill="#2f8f83" fill-opacity="0.34" stroke="#0e5b52" stroke-width="1.6" />
  <path d="M375.3 174.9 L375.3 175.2 L375.5 175.2 L375.5 175.4 L375.7 175.4 L376.0 175.4 L376.2 175.4 L376.4 175.4 L376.6 175.4 L376.8 175.4 L376.8 175.2 L377.0 175.2 L377.0 174.9 L377.0 174.7 L377.0 174.4 L376.8 174.4 L376.6 174.4 L376.4 174.4 L376.2 174.4 L376.0 174.4 L376.0 174.2 L376.2 174.2 L376.4 174.2 L376.6 174.2 L376.6 173.9 L376.4 173.9 L376.2 173.9 L376.0 173.9 L375.7 173.9 L375.5 173.9 L375.5 174.2 L375.3 174.2 L375.3 174.4 L375.3 174.7 L375.3 174.9 Z" fill="#2f8f83" fill-opacity="0.34" stroke="#0e5b52" stroke-width="1.6" />
  <path d="M377.2 174.4 L377.2 174.7 L377.4 174.7 L377.6 174.7 L377.9 174.7 L377.9 174.4 L377.9 174.2 L377.9 173.9 L377.6 173.9 L377.4 173.9 L377.4 174.2 L377.2 174.2 L377.2 174.4 Z" fill="#2f8f83" fill-opacity="0.34" stroke="#0e5b52" stroke-width="1.6" />
  <path d="M377.0 175.4 L377.2 175.4 L377.2 175.2 L377.2 174.9 L377.2 174.7 L377.2 174.4 L377.0 174.4 L377.0 174.7 L377.0 174.9 L377.0 175.2 L376.8 175.2 L376.8 175.4 L377.0 175.4 Z" fill="#2f8f83" fill-opacity="0.34" stroke="#0e5b52" stroke-width="1.6" />
  <path d="M374.5 173.9 L374.5 174.2 L374.7 174.2 L374.9 174.2 L375.1 174.2 L375.3 174.2 L375.5 174.2 L375.5 173.9 L375.7 173.9 L376.0 173.9 L376.2 173.9 L376.4 173.9 L376.6 173.9 L376.6 173.7 L376.6 173.4 L376.4 173.4 L376.2 173.4 L376.0 173.4 L375.7 173.4 L375.5 173.4 L375.3 173.4 L375.1 173.4 L374.9 173.4 L374.7 173.4 L374.5 173.4 L374.5 173.7 L374.5 173.9 Z" fill="#2f8f83" fill-opacity="0.34" stroke="#0e5b52" stroke-width="1.6" />
  <path d="M376.2 175.9 L376.2 176.2 L376.4 176.2 L376.6 176.2 L376.8 176.2 L377.0 176.2 L377.2 176.2 L377.2 175.9 L377.2 175.7 L377.2 175.4 L377.0 175.4 L376.8 175.4 L376.6 175.4 L376.4 175.4 L376.2 175.4 L376.2 175.7 L376.2 175.9 Z" fill="#2f8f83" fill-opacity="0.34" stroke="#0e5b52" stroke-width="1.6" />
  <path d="M382.5 174.7 L382.5 174.9 L382.7 174.9 L382.9 174.9 L383.1 174.9 L383.4 174.9 L383.6 174.9 L383.8 174.9 L383.8 174.7 L383.8 174.4 L383.8 174.2 L383.8 173.9 L383.6 173.9 L383.4 173.9 L383.1 173.9 L382.9 173.9 L382.7 173.9 L382.5 173.9 L382.5 174.2 L382.5 174.4 L382.5 174.7 Z" fill="#2f8f83" fill-opacity="0.34" stroke="#0e5b52" stroke-width="1.6" />
  <path d="M380.8 174.4 L380.8 174.7 L381.0 174.7 L381.2 174.7 L381.5 174.7 L381.7 174.7 L381.9 174.7 L382.1 174.7 L382.3 174.7 L382.5 174.7 L382.5 174.4 L382.5 174.2 L382.5 173.9 L382.3 173.9 L382.1 173.9 L381.9 173.9 L381.7 173.9 L381.5 173.9 L381.2 173.9 L381.0 173.9 L380.8 173.9 L380.8 174.2 L380.8 174.4 Z" fill="#2f8f83" fill-opacity="0.34" stroke="#0e5b52" stroke-width="1.6" />
  <path d="M367.7 125.5 L367.7 125.8 L367.9 125.8 L368.1 125.8 L368.3 125.8 L368.6 125.8 L368.8 125.8 L369.0 125.8 L369.2 125.8 L369.4 125.8 L369.6 125.8 L369.8 125.8 L370.0 125.8 L370.0 125.5 L369.8 125.5 L369.6 125.5 L369.4 125.5 L369.4 125.3 L369.2 125.3 L369.0 125.3 L368.8 125.3 L368.6 125.3 L368.6 125.0 L368.3 125.0 L368.1 125.0 L368.1 124.8 L367.9 124.8 L367.7 124.8 L367.7 125.0 L367.7 125.3 L367.7 125.5 Z" fill="#2f8f83" fill-opacity="0.34" stroke="#0e5b52" stroke-width="1.6" />
  <path d="M376.6 171.6 L376.6 171.4 L376.4 171.4 L376.4 171.6 L376.6 171.6 Z" fill="#2f8f83" fill-opacity="0.34" stroke="#0e5b52" stroke-width="1.6" />
  <path d="M383.3 165.4 L383.3 165.6 L383.6 165.6 L383.8 165.6 L384.0 165.6 L384.2 165.6 L384.4 165.6 L384.4 165.4 L384.6 165.4 L384.8 165.4 L385.0 165.4 L385.2 165.4 L385.2 165.1 L385.0 165.1 L384.8 165.1 L384.8 164.9 L384.8 164.6 L384.6 164.6 L384.4 164.6 L384.2 164.6 L384.0 164.6 L384.0 164.9 L383.8 164.9 L383.6 164.9 L383.3 164.9 L383.3 165.1 L383.3 165.4 Z" fill="#2f8f83" fill-opacity="0.34" stroke="#0e5b52" stroke-width="1.6" />
  <path d="M383.1 165.4 L383.1 165.6 L383.3 165.6 L383.3 165.4 L383.3 165.1 L383.3 164.9 L383.1 164.9 L383.1 165.1 L383.1 165.4 Z" fill="#2f8f83" fill-opacity="0.34" stroke="#0e5b52" stroke-width="1.6" />
  <path d="M381.0 166.1 L381.0 166.4 L381.2 166.4 L381.4 166.4 L381.7 166.4 L381.9 166.4 L382.1 166.4 L382.1 166.1 L382.1 165.9 L382.1 165.6 L382.1 165.4 L381.9 165.4 L381.7 165.4 L381.4 165.4 L381.2 165.4 L381.0 165.4 L381.0 165.6 L381.0 165.9 L381.0 166.1 Z" fill="#2f8f83" fill-opacity="0.34" stroke="#0e5b52" stroke-width="1.6" />
  <path d="M381.9 165.1 L381.9 165.4 L382.1 165.4 L382.1 165.1 L382.1 164.9 L382.1 164.6 L382.1 164.4 L382.1 164.1 L382.1 163.9 L382.3 163.9 L382.5 163.9 L382.7 163.9 L382.7 163.6 L382.7 163.4 L382.7 163.1 L382.7 162.8 L382.7 162.6 L382.5 162.6 L382.3 162.6 L382.1 162.6 L382.1 162.8 L381.9 162.8 L381.9 163.1 L381.9 163.4 L381.9 163.6 L381.9 163.9 L381.9 164.1 L381.9 164.4 L381.9 164.6 L381.9 164.9 L381.9 165.1 Z" fill="#2f8f83" fill-opacity="0.34" stroke="#0e5b52" stroke-width="1.6" />
  <path d="M380.6 166.4 L380.6 166.6 L380.8 166.6 L381.0 166.6 L381.2 166.6 L381.4 166.6 L381.7 166.6 L381.9 166.6 L382.1 166.6 L382.1 166.4 L381.9 166.4 L381.7 166.4 L381.4 166.4 L381.2 166.4 L381.0 166.4 L381.0 166.1 L380.8 166.1 L380.6 166.1 L380.6 166.4 Z" fill="#2f8f83" fill-opacity="0.34" stroke="#0e5b52" stroke-width="1.6" />
  <path d="M382.3 165.1 L382.5 165.1 L382.7 165.1 L382.9 165.1 L383.1 165.1 L383.1 164.9 L382.9 164.9 L382.7 164.9 L382.5 164.9 L382.3 164.9 L382.1 164.9 L382.1 165.1 L382.3 165.1 Z" fill="#2f8f83" fill-opacity="0.34" stroke="#0e5b52" stroke-width="1.6" />
  <path d="M379.1 168.4 L379.3 168.4 L379.5 168.4 L379.8 168.4 L380.0 168.4 L380.2 168.4 L380.4 168.4 L380.6 168.4 L380.8 168.4 L380.8 168.1 L380.8 167.9 L380.8 167.6 L380.8 167.4 L380.8 167.1 L380.8 166.9 L380.8 166.6 L380.6 166.6 L380.6 166.9 L380.6 167.1 L380.6 167.4 L380.6 167.6 L380.6 167.9 L380.6 168.1 L380.4 168.1 L380.2 168.1 L380.0 168.1 L379.8 168.1 L379.5 168.1 L379.3 168.1 L379.1 168.1 L378.9 168.1 L378.9 168.4 L379.1 168.4 Z" fill="#2f8f83" fill-opacity="0.34" stroke="#0e5b52" stroke-width="1.6" />
  <path d="M377.2 169.4 L377.4 169.4 L377.6 169.4 L377.6 169.1 L377.4 169.1 L377.2 169.1 L377.0 169.1 L377.0 169.4 L377.2 169.4 Z" fill="#2f8f83" fill-opacity="0.34" stroke="#0e5b52" stroke-width="1.6" />
  <path d="M382.9 162.1 L382.9 162.3 L383.1 162.3 L383.3 162.3 L383.6 162.3 L383.8 162.3 L383.8 162.1 L383.8 161.8 L383.8 161.6 L384.0 161.6 L384.2 161.6 L384.4 161.6 L384.4 161.3 L384.4 161.1 L384.2 161.1 L384.0 161.1 L383.8 161.1 L383.6 161.1 L383.3 161.1 L383.1 161.1 L382.9 161.1 L382.9 161.3 L382.9 161.6 L382.9 161.8 L382.9 162.1 Z" fill="#2f8f83" fill-opacity="0.34" stroke="#0e5b52" stroke-width="1.6" />
  <path d="M350.8 124.0 L350.8 123.7 L350.6 123.7 L350.6 124.0 L350.8 124.0 Z" fill="#2f8f83" fill-opacity="0.34" stroke="#0e5b52" stroke-width="1.6" />
  <path d="M350.6 124.3 L350.6 124.5 L350.8 124.5 L350.8 124.3 L350.8 124.0 L350.6 124.0 L350.6 124.3 Z" fill="#2f8f83" fill-opacity="0.34" stroke="#0e5b52" stroke-width="1.6" />
  <path d="M350.4 124.0 L350.6 124.0 L350.6 123.7 L350.4 123.7 L350.2 123.7 L350.2 124.0 L350.4 124.0 Z" fill="#2f8f83" fill-opacity="0.34" stroke="#0e5b52" stroke-width="1.6" />
  <path d="M350.2 123.5 L350.2 123.7 L350.4 123.7 L350.6 123.7 L350.6 123.5 L350.6 123.2 L350.4 123.2 L350.2 123.2 L350.2 123.5 Z" fill="#2f8f83" fill-opacity="0.34" stroke="#0e5b52" stroke-width="1.6" />
  <path d="M350.4 124.3 L350.6 124.3 L350.6 124.0 L350.4 124.0 L350.2 124.0 L350.2 124.3 L350.4 124.3 Z" fill="#2f8f83" fill-opacity="0.34" stroke="#0e5b52" stroke-width="1.6" />
  <path d="M372.6 162.6 L372.6 162.8 L372.8 162.8 L373.0 162.8 L373.2 162.8 L373.4 162.8 L373.4 163.1 L373.4 163.4 L373.6 163.4 L373.8 163.4 L373.8 163.1 L373.8 162.8 L373.6 162.8 L373.6 162.6 L373.4 162.6 L373.4 162.3 L373.2 162.3 L373.0 162.3 L373.0 162.1 L372.8 162.1 L372.8 162.3 L372.6 162.3 L372.4 162.3 L372.4 162.6 L372.6 162.6 Z" fill="#2f8f83" fill-opacity="0.34" stroke="#0e5b52" stroke-width="1.6" />
  <path d="M372.8 163.6 L372.8 163.9 L373.0 163.9 L373.2 163.9 L373.4 163.9 L373.4 163.6 L373.6 163.6 L373.8 163.6 L373.8 163.4 L373.6 163.4 L373.4 163.4 L373.2 163.4 L373.0 163.4 L372.8 163.4 L372.8 163.6 Z" fill="#2f8f83" fill-opacity="0.34" stroke="#0e5b52" stroke-width="1.6" />
  <path d="M382.1 164.6 L382.1 164.9 L382.3 164.9 L382.5 164.9 L382.7 164.9 L382.9 164.9 L383.1 164.9 L383.3 164.9 L383.6 164.9 L383.8 164.9 L384.0 164.9 L384.0 164.6 L384.2 164.6 L384.4 164.6 L384.6 164.6 L384.8 164.6 L384.8 164.4 L384.6 164.4 L384.4 164.4 L384.2 164.4 L384.0 164.4 L383.8 164.4 L383.6 164.4 L383.3 164.4 L383.1 164.4 L382.9 164.4 L382.7 164.4 L382.5 164.4 L382.3 164.4 L382.1 164.4 L382.1 164.6 Z" fill="#2f8f83" fill-opacity="0.34" stroke="#0e5b52" stroke-width="1.6" />
  <path d="M382.1 165.4 L382.1 165.6 L382.3 165.6 L382.5 165.6 L382.7 165.6 L382.9 165.6 L383.1 165.6 L383.1 165.4 L383.1 165.1 L382.9 165.1 L382.7 165.1 L382.5 165.1 L382.3 165.1 L382.1 165.1 L382.1 165.4 Z" fill="#2f8f83" fill-opacity="0.34" stroke="#0e5b52" stroke-width="1.6" />
  <path d="M382.1 162.8 L382.1 162.6 L381.9 162.6 L381.9 162.8 L382.1 162.8 Z" fill="#2f8f83" fill-opacity="0.34" stroke="#0e5b52" stroke-width="1.6" />
  <path d="M373.0 164.1 L373.0 164.4 L373.2 164.4 L373.2 164.6 L373.2 164.9 L373.2 165.1 L373.2 165.4 L373.4 165.4 L373.6 165.4 L373.6 165.1 L373.4 165.1 L373.4 164.9 L373.4 164.6 L373.4 164.4 L373.6 164.4 L373.6 164.1 L373.6 163.9 L373.4 163.9 L373.2 163.9 L373.0 163.9 L373.0 164.1 Z" fill="#2f8f83" fill-opacity="0.34" stroke="#0e5b52" stroke-width="1.6" />
  <path d="M442.7 457.4 L442.7 457.6 L442.9 457.6 L443.1 457.6 L443.4 457.6 L443.6 457.6 L443.8 457.6 L444.0 457.6 L444.2 457.6 L444.4 457.6 L444.4 457.4 L444.4 457.1 L444.4 456.9 L444.4 456.7 L444.4 456.5 L444.4 456.2 L444.4 456.0 L444.4 455.8 L444.4 455.6 L444.4 455.3 L444.2 455.3 L444.0 455.3 L443.8 455.3 L443.6 455.3 L443.4 455.3 L443.1 455.3 L442.9 455.3 L442.9 455.6 L442.9 455.8 L442.9 456.0 L442.9 456.2 L442.9 456.5 L442.7 456.5 L442.7 456.7 L442.7 456.9 L442.7 457.1 L442.7 457.4 Z" fill="#2f8f83" fill-opacity="0.34" stroke="#0e5b52" stroke-width="1.6" />
  <path d="M383.8 175.2 L383.8 175.4 L384.0 175.4 L384.2 175.4 L384.4 175.4 L384.4 175.2 L384.6 175.2 L384.6 174.9 L384.6 174.7 L384.6 174.4 L384.6 174.2 L384.6 173.9 L384.4 173.9 L384.2 173.9 L384.0 173.9 L383.8 173.9 L383.8 174.2 L383.8 174.4 L383.8 174.7 L383.8 174.9 L383.8 175.2 Z" fill="#2f8f83" fill-opacity="0.34" stroke="#0e5b52" stroke-width="1.6" />
  <path d="M366.0 152.8 L366.0 153.0 L366.2 153.0 L366.4 153.0 L366.7 153.0 L366.7 152.8 L366.7 152.5 L366.7 152.2 L366.4 152.2 L366.2 152.2 L366.0 152.2 L366.0 152.5 L366.0 152.8 Z" fill="#2f8f83" fill-opacity="0.34" stroke="#0e5b52" stroke-width="1.6" />
  <path d="M387.1 158.6 L387.1 158.8 L387.4 158.8 L387.4 158.6 L387.4 158.3 L387.4 158.1 L387.4 157.8 L387.4 157.6 L387.4 157.3 L387.4 157.0 L387.4 156.8 L387.4 156.5 L387.4 156.3 L387.1 156.3 L387.1 156.5 L387.1 156.8 L387.1 157.0 L387.1 157.3 L387.1 157.6 L387.1 157.8 L387.1 158.1 L387.1 158.3 L387.1 158.6 Z" fill="#2f8f83" fill-opacity="0.34" stroke="#0e5b52" stroke-width="1.6" />
  <path d="M380.0 173.7 L380.0 173.9 L380.2 173.9 L380.4 173.9 L380.6 173.9 L380.8 173.9 L381.0 173.9 L381.0 173.7 L380.8 173.7 L380.6 173.7 L380.4 173.7 L380.2 173.7 L380.2 173.4 L380.2 173.1 L380.2 172.9 L380.2 172.6 L380.2 172.4 L380.2 172.1 L380.2 171.9 L380.2 171.6 L380.2 171.4 L380.2 171.1 L380.2 170.9 L380.2 170.6 L380.2 170.4 L380.2 170.1 L380.0 170.1 L380.0 170.4 L380.0 170.6 L380.0 170.9 L380.0 171.1 L380.0 171.4 L380.0 171.6 L380.0 171.9 L380.0 172.1 L380.0 172.4 L380.0 172.6 L380.0 172.9 L380.0 173.1 L380.0 173.4 L380.0 173.7 Z" fill="#2f8f83" fill-opacity="0.34" stroke="#0e5b52" stroke-width="1.6" />
  <path d="M648.5 524.4 L648.5 524.6 L648.7 524.6 L648.7 524.9 L648.7 525.1 L648.9 525.1 L649.2 525.1 L649.2 525.3 L649.4 525.3 L649.6 525.3 L649.8 525.3 L649.8 525.1 L649.8 524.9 L649.6 524.9 L649.6 524.6 L649.4 524.6 L649.4 524.4 L649.2 524.4 L649.2 524.2 L648.9 524.2 L648.9 524.0 L648.7 524.0 L648.7 524.2 L648.5 524.2 L648.5 524.4 Z" fill="#2f8f83" fill-opacity="0.34" stroke="#0e5b52" stroke-width="1.6" />
  <path d="M648.1 524.0 L648.1 524.2 L648.1 524.4 L648.1 524.6 L648.3 524.6 L648.3 524.4 L648.5 524.4 L648.5 524.2 L648.7 524.2 L648.7 524.0 L648.7 523.8 L648.5 523.8 L648.3 523.8 L648.1 523.8 L648.1 524.0 Z" fill="#2f8f83" fill-opacity="0.34" stroke="#0e5b52" stroke-width="1.6" />
  <path d="M442.5 456.2 L442.5 456.5 L442.7 456.5 L442.9 456.5 L442.9 456.2 L442.9 456.0 L442.9 455.8 L442.9 455.6 L442.9 455.3 L442.9 455.1 L442.7 455.1 L442.5 455.1 L442.5 455.3 L442.5 455.6 L442.5 455.8 L442.5 456.0 L442.5 456.2 Z" fill="#2f8f83" fill-opacity="0.34" stroke="#0e5b52" stroke-width="1.6" />
  <!-- title strip -->
  <rect x="0" y="0" width="1000" height="54" fill="#173042" />
  <text x="20" y="34" font-size="21" font-weight="bold" fill="#ffffff">Teuton Resources Corp. — Mineral Claims</text>
  <text x="980" y="34" font-size="15" fill="#cfe3df" text-anchor="end">TUO</text>
  <!-- scale bar -->
  <g transform="translate(910, 596)">
    <rect x="0" y="0" width="25" height="8" fill="#173042" />
    <rect x="25" y="0" width="25" height="8" fill="#ffffff" stroke="#173042" stroke-width="1" />
    <text x="25" y="-6" font-size="12" fill="#173042" text-anchor="middle">50 km</text>
  </g>
  <!-- north arrow -->
  <g transform="translate(956, 92)">
    <circle r="17" fill="#ffffff" stroke="#b9b09a" />
    <path d="M0 -10 L5 7 L0 3 L-5 7 Z" fill="#173042" />
    <text y="14" font-size="9" font-weight="bold" fill="#173042" text-anchor="middle">N</text>
  </g>
  <!-- watermark -->
  <text x="20" y="620" font-size="13" fill="#7d8b8a">Map by Exploration Maps — explorationmaps.com</text>
</svg>