<svg xmlns="http://www.w3.org/2000/svg" viewBox="0 0 1000 640" font-family="Arial, Helvetica, sans-serif">
  <rect width="1000" height="640" fill="#f3efe6" />
  <line x1="200" y1="0" x2="200" y2="640" stroke="#d9d2c0" stroke-width="0.7" />
  <line x1="0" y1="128" x2="1000" y2="128" stroke="#d9d2c0" stroke-width="0.7" />
  <line x1="400" y1="0" x2="400" y2="640" stroke="#d9d2c0" stroke-width="0.7" />
  <line x1="0" y1="256" x2="1000" y2="256" stroke="#d9d2c0" stroke-width="0.7" />
  <line x1="600" y1="0" x2="600" y2="640" stroke="#d9d2c0" stroke-width="0.7" />
  <line x1="0" y1="384" x2="1000" y2="384" stroke="#d9d2c0" stroke-width="0.7" />
  <line x1="800" y1="0" x2="800" y2="640" stroke="#d9d2c0" stroke-width="0.7" />
  <line x1="0" y1="512" x2="1000" y2="512" stroke="#d9d2c0" stroke-width="0.7" />
  <path d="M667.7 521.0 L667.7 520.8 L667.6 520.8 L667.6 520.7 L667.6 520.7 L667.6 520.8 L667.4 520.8 L667.4 520.7 L666.9 520.7 L666.9 520.7 L666.9 520.7 L666.8 520.7 L666.8 520.7 L666.8 521.0 L666.8 521.1 L666.8 521.2 L667.1 521.2 L667.4 521.2 L667.5 521.2 L667.6 521.2 L667.7 521.2 L667.7 521.0 Z" fill="#2f8f83" fill-opacity="0.34" stroke="#0e5b52" stroke-width="1.6" />
  <path d="M667.4 520.7 L667.4 520.2 L667.4 520.0 L666.9 520.0 L666.9 520.2 L666.9 520.7 L667.4 520.7 Z" fill="#2f8f83" fill-opacity="0.34" stroke="#0e5b52" stroke-width="1.6" />
  <path d="M667.4 520.0 L667.4 518.8 L666.7 518.8 L666.7 520.0 L666.9 520.0 L667.4 520.0 Z" fill="#2f8f83" fill-opacity="0.34" stroke="#0e5b52" stroke-width="1.6" />
  <path d="M668.4 518.8 L668.4 518.8 L667.4 518.8 L667.4 520.0 L668.4 520.0 L668.4 519.3 L668.4 519.2 L668.3 519.1 L668.3 519.1 L668.4 519.1 L668.4 518.8 Z" fill="#2f8f83" fill-opacity="0.34" stroke="#0e5b52" stroke-width="1.6" />
  <path d="M668.4 520.5 L668.4 520.2 L668.4 520.0 L667.4 520.0 L667.4 520.2 L667.4 520.7 L667.4 520.8 L667.6 520.8 L667.6 520.7 L667.6 520.7 L667.6 520.8 L667.7 520.8 L667.7 521.0 L667.8 521.0 L668.2 521.0 L668.4 521.0 L668.4 520.5 Z" fill="#2f8f83" fill-opacity="0.34" stroke="#0e5b52" stroke-width="1.6" />
  <path d="M667.4 518.8 L668.9 518.8 L668.9 518.3 L668.9 518.3 L668.6 518.3 L668.5 518.3 L668.4 518.3 L668.4 518.4 L668.4 518.4 L668.1 518.4 L668.1 518.3 L667.4 518.3 L667.4 518.8 Z" fill="#2f8f83" fill-opacity="0.34" stroke="#0e5b52" stroke-width="1.6" />
  <path d="M668.8 518.8 L668.4 518.8 L668.4 519.1 L668.6 519.1 L668.6 519.2 L668.8 519.3 L668.8 518.8 Z" fill="#2f8f83" fill-opacity="0.34" stroke="#0e5b52" stroke-width="1.6" />
  <path d="M668.6 519.3 L668.4 519.2 L668.4 519.2 L668.4 519.3 L668.6 519.3 Z" fill="#2f8f83" fill-opacity="0.34" stroke="#0e5b52" stroke-width="1.6" />
  <path d="M666.9 520.2 L666.7 520.2 L666.7 520.4 L666.9 520.4 L666.9 520.2 Z" fill="#2f8f83" fill-opacity="0.34" stroke="#0e5b52" stroke-width="1.6" />
  <path d="M666.7 520.2 L666.4 520.2 L666.4 520.4 L666.7 520.4 L666.7 520.2 Z" fill="#2f8f83" fill-opacity="0.34" stroke="#0e5b52" stroke-width="1.6" />
  <path d="M666.7 520.6 L666.9 520.6 L666.9 520.6 L666.9 520.4 L666.7 520.4 L666.7 520.5 L666.7 520.5 L666.7 520.6 Z" fill="#2f8f83" fill-opacity="0.34" stroke="#0e5b52" stroke-width="1.6" />
  <path d="M666.7 520.5 L666.7 520.4 L666.4 520.4 L666.4 520.5 L666.7 520.5 Z" fill="#2f8f83" fill-opacity="0.34" stroke="#0e5b52" stroke-width="1.6" />
  <path d="M666.7 520.2 L666.9 520.2 L666.9 520.2 L666.9 520.0 L666.9 520.0 L666.7 520.0 L666.7 520.2 Z" fill="#2f8f83" fill-opacity="0.34" stroke="#0e5b52" stroke-width="1.6" />
  <path d="M666.8 520.7 L666.7 520.7 L666.7 520.5 L666.6 520.5 L666.4 520.5 L666.3 520.5 L666.3 521.0 L666.4 521.0 L666.6 521.0 L666.8 521.0 L666.8 520.7 Z" fill="#2f8f83" fill-opacity="0.34" stroke="#0e5b52" stroke-width="1.6" />
  <path d="M666.4 520.5 L666.4 520.4 L666.4 520.4 L666.4 520.2 L666.4 520.2 L666.4 519.9 L666.5 519.9 L666.5 519.9 L666.0 519.9 L666.0 521.1 L666.5 521.1 L666.5 521.0 L666.3 521.0 L666.3 520.5 L666.4 520.5 Z" fill="#2f8f83" fill-opacity="0.34" stroke="#0e5b52" stroke-width="1.6" />
  <path d="M666.7 520.0 L666.7 520.0 L666.7 520.2 L666.7 520.2 L666.7 520.0 Z" fill="#2f8f83" fill-opacity="0.34" stroke="#0e5b52" stroke-width="1.6" />
  <path d="M666.7 519.9 L666.4 519.9 L666.4 520.2 L666.7 520.2 L666.7 520.0 L666.7 520.0 L666.7 519.9 Z" fill="#2f8f83" fill-opacity="0.34" stroke="#0e5b52" stroke-width="1.6" />
  <path d="M666.7 520.7 L666.8 520.7 L666.8 520.7 L666.9 520.7 L666.9 520.6 L666.9 520.6 L666.7 520.6 L666.7 520.7 Z" fill="#2f8f83" fill-opacity="0.34" stroke="#0e5b52" stroke-width="1.6" />
  <path d="M666.5 521.0 L666.5 521.1 L666.4 521.1 L666.4 521.1 L666.6 521.1 L666.6 521.0 L666.5 521.0 Z" fill="#2f8f83" fill-opacity="0.34" stroke="#0e5b52" stroke-width="1.6" />
  <path d="M666.8 521.1 L666.8 521.0 L666.6 521.0 L666.6 521.1 L666.8 521.1 Z" fill="#2f8f83" fill-opacity="0.34" stroke="#0e5b52" stroke-width="1.6" />
  <path d="M668.6 519.3 L668.4 519.3 L668.4 519.8 L668.7 519.8 L668.7 519.7 L668.8 519.7 L668.8 519.4 L668.6 519.3 Z" fill="#2f8f83" fill-opacity="0.34" stroke="#0e5b52" stroke-width="1.6" />
  <path d="M668.8 519.3 L668.8 519.3 L668.8 519.3 L668.8 519.3 L668.8 519.3 Z" fill="#2f8f83" fill-opacity="0.34" stroke="#0e5b52" stroke-width="1.6" />
  <path d="M668.8 519.5 L668.8 519.7 L669.0 519.7 L669.0 519.5 L669.0 519.3 L668.8 519.3 L668.8 519.5 Z" fill="#2f8f83" fill-opacity="0.34" stroke="#0e5b52" stroke-width="1.6" />
  <path d="M535.1 366.4 L535.1 366.6 L535.1 366.9 L535.1 367.1 L535.1 367.4 L535.3 367.4 L535.6 367.4 L535.8 367.4 L536.0 367.4 L536.2 367.4 L536.2 367.1 L536.2 366.9 L536.2 366.6 L536.2 366.4 L536.2 366.2 L536.0 366.2 L535.8 366.2 L535.6 366.2 L535.3 366.2 L535.1 366.2 L535.1 366.4 Z" fill="#2f8f83" fill-opacity="0.34" stroke="#0e5b52" stroke-width="1.6" />
  <path d="M533.4 367.1 L533.2 367.1 L533.2 367.4 L533.4 367.4 L533.6 367.4 L533.8 367.4 L534.1 367.4 L534.3 367.4 L534.3 367.6 L534.5 367.6 L534.7 367.6 L534.7 367.8 L534.9 367.8 L535.1 367.8 L535.3 367.8 L535.6 367.8 L535.8 367.8 L536.0 367.8 L536.2 367.8 L536.2 367.6 L536.2 367.4 L536.0 367.4 L535.8 367.4 L535.6 367.4 L535.3 367.4 L535.1 367.4 L535.1 367.1 L534.9 367.1 L534.7 367.1 L534.5 367.1 L534.3 367.1 L534.1 367.1 L533.8 367.1 L533.6 367.1 L533.4 367.1 Z" fill="#2f8f83" fill-opacity="0.34" stroke="#0e5b52" stroke-width="1.6" />
  <path d="M535.1 368.1 L535.1 368.3 L535.1 368.6 L535.3 368.6 L535.6 368.6 L535.6 368.3 L535.8 368.3 L536.0 368.3 L536.0 368.1 L536.0 367.8 L535.8 367.8 L535.6 367.8 L535.3 367.8 L535.1 367.8 L535.1 368.1 Z" fill="#2f8f83" fill-opacity="0.34" stroke="#0e5b52" stroke-width="1.6" />
  <path d="M534.1 367.6 L534.1 367.8 L534.3 367.8 L534.5 367.8 L534.7 367.8 L534.7 367.6 L534.5 367.6 L534.3 367.6 L534.3 367.4 L534.1 367.4 L534.1 367.6 Z" fill="#2f8f83" fill-opacity="0.34" stroke="#0e5b52" stroke-width="1.6" />
  <path d="M666.8 519.7 L666.6 519.7 L666.6 519.9 L666.8 519.9 L666.8 519.7 Z" fill="#2f8f83" fill-opacity="0.34" stroke="#0e5b52" stroke-width="1.6" />
  <path d="M666.8 519.5 L666.6 519.5 L666.6 519.7 L666.8 519.7 L666.8 519.5 Z" fill="#2f8f83" fill-opacity="0.34" stroke="#0e5b52" stroke-width="1.6" />
  <path d="M666.6 519.3 L666.6 519.5 L666.8 519.5 L666.8 519.3 L666.8 519.0 L666.6 519.0 L666.6 519.3 Z" fill="#2f8f83" fill-opacity="0.34" stroke="#0e5b52" stroke-width="1.6" />
  <path d="M535.6 365.4 L535.8 365.4 L535.8 365.7 L535.8 365.9 L535.8 366.2 L536.0 366.2 L536.2 366.2 L536.2 366.4 L536.2 366.6 L536.2 366.9 L536.2 367.1 L536.4 367.1 L536.6 367.1 L536.6 366.9 L536.6 366.6 L536.6 366.4 L536.6 366.2 L536.6 365.9 L536.6 365.7 L536.6 365.4 L536.6 365.2 L536.4 365.2 L536.2 365.2 L536.0 365.2 L535.8 365.2 L535.6 365.2 L535.6 365.4 Z" fill="#2f8f83" fill-opacity="0.34" stroke="#0e5b52" stroke-width="1.6" />
  <path d="M536.9 365.9 L536.9 366.2 L536.9 366.4 L536.9 366.6 L536.9 366.9 L536.9 367.1 L537.1 367.1 L537.3 367.1 L537.5 367.1 L537.7 367.1 L537.7 366.9 L537.7 366.6 L537.7 366.4 L537.7 366.2 L537.7 365.9 L537.7 365.7 L537.5 365.7 L537.3 365.7 L537.1 365.7 L536.9 365.7 L536.9 365.9 Z" fill="#2f8f83" fill-opacity="0.34" stroke="#0e5b52" stroke-width="1.6" />
  <path d="M537.7 365.9 L537.7 366.2 L537.7 366.4 L537.7 366.6 L537.7 366.9 L537.7 367.1 L537.7 367.4 L537.9 367.4 L538.1 367.4 L538.4 367.4 L538.4 367.1 L538.4 366.9 L538.4 366.6 L538.6 366.6 L538.6 366.4 L538.6 366.2 L538.6 365.9 L538.6 365.7 L538.4 365.7 L538.1 365.7 L537.9 365.7 L537.7 365.7 L537.7 365.9 Z" fill="#2f8f83" fill-opacity="0.34" stroke="#0e5b52" stroke-width="1.6" />
  <path d="M538.4 366.9 L538.4 367.1 L538.6 367.1 L538.8 367.1 L539.0 367.1 L539.2 367.1 L539.2 366.9 L539.0 366.9 L538.8 366.9 L538.6 366.9 L538.6 366.6 L538.4 366.6 L538.4 366.9 Z" fill="#2f8f83" fill-opacity="0.34" stroke="#0e5b52" stroke-width="1.6" />
  <path d="M536.4 367.1 L536.2 367.1 L536.2 367.4 L536.4 367.4 L536.6 367.4 L536.9 367.4 L536.9 367.1 L536.9 366.9 L536.9 366.6 L536.9 366.4 L536.9 366.2 L536.9 365.9 L536.9 365.7 L536.6 365.7 L536.6 365.9 L536.6 366.2 L536.6 366.4 L536.6 366.6 L536.6 366.9 L536.6 367.1 L536.4 367.1 Z" fill="#2f8f83" fill-opacity="0.34" stroke="#0e5b52" stroke-width="1.6" />
  <path d="M666.6 516.8 L666.6 517.0 L666.6 517.2 L666.6 517.5 L666.6 517.7 L666.6 517.9 L666.6 518.1 L666.6 518.4 L666.6 518.6 L666.6 518.8 L666.8 518.8 L667.1 518.8 L667.3 518.8 L667.5 518.8 L667.5 518.6 L667.5 518.4 L667.7 518.4 L667.9 518.4 L668.1 518.4 L668.1 518.6 L668.4 518.6 L668.4 518.4 L668.6 518.4 L668.8 518.4 L668.8 518.6 L668.8 518.8 L669.0 518.8 L669.0 518.6 L669.0 518.4 L669.2 518.4 L669.4 518.4 L669.4 518.1 L669.4 517.9 L669.2 517.9 L669.2 517.7 L669.2 517.5 L669.0 517.5 L669.0 517.2 L668.8 517.2 L668.6 517.2 L668.6 517.0 L668.6 516.8 L668.6 516.6 L668.4 516.6 L668.1 516.6 L667.9 516.6 L667.7 516.6 L667.5 516.6 L667.3 516.6 L667.1 516.6 L666.8 516.6 L666.6 516.6 L666.6 516.8 Z" fill="#2f8f83" fill-opacity="0.34" stroke="#0e5b52" stroke-width="1.6" />
  <path d="M666.6 515.9 L666.6 516.1 L666.6 516.3 L666.6 516.6 L666.8 516.6 L667.1 516.6 L667.3 516.6 L667.5 516.6 L667.7 516.6 L667.9 516.6 L668.1 516.6 L668.4 516.6 L668.6 516.6 L668.6 516.8 L668.6 517.0 L668.6 517.2 L668.8 517.2 L669.0 517.2 L669.2 517.2 L669.4 517.2 L669.4 517.5 L669.2 517.5 L669.2 517.7 L669.2 517.9 L669.4 517.9 L669.6 517.9 L669.9 517.9 L670.1 517.9 L670.3 517.9 L670.5 517.9 L670.7 517.9 L670.9 517.9 L671.1 517.9 L671.4 517.9 L671.6 517.9 L671.8 517.9 L671.8 517.7 L671.6 517.7 L671.4 517.7 L671.1 517.7 L670.9 517.7 L670.9 517.5 L670.9 517.2 L670.7 517.2 L670.5 517.2 L670.3 517.2 L670.1 517.2 L670.1 517.5 L669.9 517.5 L669.9 517.2 L669.6 517.2 L669.6 517.0 L669.6 516.8 L669.6 516.6 L669.4 516.6 L669.4 516.3 L669.4 516.1 L669.4 515.9 L669.4 515.6 L669.4 515.4 L669.2 515.4 L669.2 515.6 L669.2 515.9 L669.0 515.9 L669.0 515.6 L669.0 515.4 L668.8 515.4 L668.6 515.4 L668.4 515.4 L668.1 515.4 L667.9 515.4 L667.7 515.4 L667.5 515.4 L667.5 515.6 L667.3 515.6 L667.1 515.6 L666.8 515.6 L666.6 515.6 L666.6 515.9 Z" fill="#2f8f83" fill-opacity="0.34" stroke="#0e5b52" stroke-width="1.6" />
  <path d="M666.0 515.0 L666.0 515.2 L666.0 515.4 L666.0 515.6 L666.0 515.9 L666.0 516.1 L666.0 516.3 L666.0 516.6 L666.0 516.8 L666.0 517.0 L666.0 517.2 L666.0 517.5 L666.0 517.7 L666.0 517.9 L666.0 518.1 L666.0 518.4 L666.0 518.6 L666.0 518.8 L666.0 519.0 L666.0 519.3 L666.0 519.5 L666.0 519.7 L666.0 519.9 L666.2 519.9 L666.4 519.9 L666.6 519.9 L666.6 519.7 L666.6 519.5 L666.6 519.3 L666.6 519.0 L666.6 518.8 L666.6 518.6 L666.6 518.4 L666.6 518.1 L666.6 517.9 L666.6 517.7 L666.6 517.5 L666.6 517.2 L666.6 517.0 L666.6 516.8 L666.6 516.6 L666.6 516.3 L666.6 516.1 L666.6 515.9 L666.6 515.6 L666.8 515.6 L667.1 515.6 L667.3 515.6 L667.5 515.6 L667.5 515.4 L667.7 515.4 L667.9 515.4 L668.1 515.4 L668.4 515.4 L668.6 515.4 L668.8 515.4 L669.0 515.4 L669.0 515.2 L668.8 515.2 L668.6 515.2 L668.4 515.2 L668.1 515.2 L667.9 515.2 L667.7 515.2 L667.5 515.2 L667.3 515.2 L667.3 515.0 L667.3 514.7 L667.1 514.7 L666.8 514.7 L666.6 514.7 L666.4 514.7 L666.2 514.7 L666.0 514.7 L666.0 515.0 Z" fill="#2f8f83" fill-opacity="0.34" stroke="#0e5b52" stroke-width="1.6" />
  <path d="M665.1 514.1 L665.1 514.3 L665.1 514.5 L665.1 514.7 L665.1 515.0 L665.1 515.2 L665.1 515.4 L665.1 515.6 L665.1 515.9 L665.1 516.1 L665.1 516.3 L665.1 516.6 L665.1 516.8 L665.1 517.0 L665.1 517.2 L665.1 517.5 L665.1 517.7 L665.1 517.9 L665.1 518.1 L665.3 518.1 L665.6 518.1 L665.8 518.1 L666.0 518.1 L666.0 517.9 L666.0 517.7 L666.0 517.5 L666.0 517.2 L666.0 517.0 L666.0 516.8 L666.0 516.6 L666.0 516.3 L666.0 516.1 L666.0 515.9 L666.0 515.6 L666.0 515.4 L666.0 515.2 L666.0 515.0 L666.0 514.7 L666.2 514.7 L666.4 514.7 L666.6 514.7 L666.8 514.7 L667.1 514.7 L667.3 514.7 L667.3 514.5 L667.1 514.5 L667.1 514.3 L667.1 514.1 L667.1 513.8 L666.8 513.8 L666.6 513.8 L666.4 513.8 L666.2 513.8 L666.0 513.8 L665.8 513.8 L665.6 513.8 L665.3 513.8 L665.1 513.8 L665.1 514.1 Z" fill="#2f8f83" fill-opacity="0.34" stroke="#0e5b52" stroke-width="1.6" />
  <path d="M664.7 519.7 L664.7 519.9 L664.7 520.2 L664.7 520.4 L664.7 520.6 L664.7 520.8 L664.7 521.1 L664.7 521.3 L664.7 521.5 L664.7 521.7 L664.7 522.0 L664.9 522.0 L665.1 522.0 L665.3 522.0 L665.6 522.0 L665.8 522.0 L666.0 522.0 L666.2 522.0 L666.2 521.7 L666.2 521.5 L666.2 521.3 L666.2 521.1 L666.0 521.1 L666.0 520.8 L666.0 520.6 L666.0 520.4 L666.0 520.2 L666.0 519.9 L666.0 519.7 L666.0 519.5 L666.0 519.3 L666.0 519.0 L666.0 518.8 L666.0 518.6 L666.0 518.4 L666.0 518.1 L665.8 518.1 L665.6 518.1 L665.3 518.1 L665.1 518.1 L665.1 518.4 L665.1 518.6 L665.1 518.8 L665.1 519.0 L665.1 519.3 L665.1 519.5 L664.9 519.5 L664.7 519.5 L664.7 519.7 Z" fill="#2f8f83" fill-opacity="0.34" stroke="#0e5b52" stroke-width="1.6" />
  <path d="M667.3 514.7 L667.3 515.0 L667.3 515.2 L667.5 515.2 L667.7 515.2 L667.9 515.2 L668.1 515.2 L668.4 515.2 L668.4 515.0 L668.4 514.7 L668.4 514.5 L668.1 514.5 L667.9 514.5 L667.7 514.5 L667.5 514.5 L667.3 514.5 L667.3 514.7 Z" fill="#2f8f83" fill-opacity="0.34" stroke="#0e5b52" stroke-width="1.6" />
  <path d="M664.7 513.4 L664.7 513.6 L664.7 513.8 L664.7 514.1 L664.9 514.1 L665.1 514.1 L665.1 513.8 L665.3 513.8 L665.6 513.8 L665.8 513.8 L666.0 513.8 L666.2 513.8 L666.2 513.6 L666.2 513.4 L666.2 513.2 L666.0 513.2 L665.8 513.2 L665.6 513.2 L665.3 513.2 L665.1 513.2 L664.9 513.2 L664.7 513.2 L664.7 513.4 Z" fill="#2f8f83" fill-opacity="0.34" stroke="#0e5b52" stroke-width="1.6" />
  <path d="M666.0 522.2 L666.0 522.4 L666.0 522.6 L666.2 522.6 L666.2 522.9 L666.2 523.1 L666.4 523.1 L666.4 523.3 L666.4 523.5 L666.4 523.8 L666.4 524.0 L666.6 524.0 L666.8 524.0 L666.8 524.2 L666.8 524.4 L666.8 524.7 L666.8 524.9 L666.8 525.1 L667.1 525.1 L667.3 525.1 L667.5 525.1 L667.7 525.1 L667.9 525.1 L668.1 525.1 L668.4 525.1 L668.6 525.1 L668.8 525.1 L669.0 525.1 L669.0 524.9 L669.2 524.9 L669.2 524.7 L669.2 524.4 L669.0 524.4 L668.8 524.4 L668.6 524.4 L668.4 524.4 L668.4 524.2 L668.4 524.0 L668.6 524.0 L668.8 524.0 L668.8 523.8 L668.8 523.5 L668.8 523.3 L668.8 523.1 L668.6 523.1 L668.4 523.1 L668.1 523.1 L667.9 523.1 L667.7 523.1 L667.5 523.1 L667.3 523.1 L667.3 522.9 L667.1 522.9 L666.8 522.9 L666.6 522.9 L666.4 522.9 L666.4 522.6 L666.4 522.4 L666.2 522.4 L666.2 522.2 L666.2 522.0 L666.0 522.0 L666.0 522.2 Z" fill="#2f8f83" fill-opacity="0.34" stroke="#0e5b52" stroke-width="1.6" />
  <path d="M667.7 525.3 L667.7 525.6 L667.9 525.6 L668.1 525.6 L668.4 525.6 L668.6 525.6 L668.6 525.8 L668.8 525.8 L669.0 525.8 L669.2 525.8 L669.4 525.8 L669.6 525.8 L669.6 525.6 L669.6 525.3 L669.6 525.1 L669.9 525.1 L669.9 524.9 L669.9 524.7 L669.9 524.4 L669.6 524.4 L669.4 524.4 L669.2 524.4 L669.2 524.7 L669.2 524.9 L669.0 524.9 L669.0 525.1 L668.8 525.1 L668.6 525.1 L668.4 525.1 L668.1 525.1 L667.9 525.1 L667.7 525.1 L667.7 525.3 Z" fill="#2f8f83" fill-opacity="0.34" stroke="#0e5b52" stroke-width="1.6" />
  <path d="M669.9 524.7 L669.9 524.9 L669.9 525.1 L670.1 525.1 L670.3 525.1 L670.5 525.1 L670.5 524.9 L670.5 524.7 L670.5 524.4 L670.3 524.4 L670.1 524.4 L669.9 524.4 L669.9 524.7 Z" fill="#2f8f83" fill-opacity="0.34" stroke="#0e5b52" stroke-width="1.6" />
  <path d="M671.1 517.9 L670.9 517.9 L670.9 518.1 L671.1 518.1 L671.4 518.1 L671.4 518.4 L671.6 518.4 L671.8 518.4 L671.8 518.1 L671.8 517.9 L671.6 517.9 L671.4 517.9 L671.1 517.9 Z" fill="#2f8f83" fill-opacity="0.34" stroke="#0e5b52" stroke-width="1.6" />
  <path d="M670.7 519.3 L670.5 519.3 L670.5 519.5 L670.7 519.5 L670.9 519.5 L671.1 519.5 L671.4 519.5 L671.4 519.3 L671.6 519.3 L671.6 519.0 L671.6 518.8 L671.6 518.6 L671.4 518.6 L671.1 518.6 L670.9 518.6 L670.9 518.8 L670.9 519.0 L670.7 519.0 L670.7 519.3 Z" fill="#2f8f83" fill-opacity="0.34" stroke="#0e5b52" stroke-width="1.6" />
  <path d="M671.6 518.4 L671.4 518.4 L671.4 518.6 L671.6 518.6 L671.6 518.4 Z" fill="#2f8f83" fill-opacity="0.34" stroke="#0e5b52" stroke-width="1.6" />
  <path d="M448.3 123.5 L448.5 123.5 L448.5 123.2 L448.3 123.2 L448.1 123.2 L448.1 123.5 L448.3 123.5 Z" fill="#2f8f83" fill-opacity="0.34" stroke="#0e5b52" stroke-width="1.6" />
  <path d="M670.5 519.7 L670.5 519.9 L670.5 520.2 L670.7 520.2 L670.9 520.2 L670.9 519.9 L670.9 519.7 L670.9 519.5 L670.7 519.5 L670.5 519.5 L670.5 519.7 Z" fill="#2f8f83" fill-opacity="0.34" stroke="#0e5b52" stroke-width="1.6" />
  <path d="M670.1 519.3 L670.1 519.5 L670.1 519.7 L670.1 519.9 L670.1 520.2 L670.3 520.2 L670.5 520.2 L670.5 519.9 L670.5 519.7 L670.5 519.5 L670.5 519.3 L670.7 519.3 L670.7 519.0 L670.5 519.0 L670.3 519.0 L670.1 519.0 L670.1 519.3 Z" fill="#2f8f83" fill-opacity="0.34" stroke="#0e5b52" stroke-width="1.6" />
  <path d="M670.1 518.6 L670.1 518.8 L670.1 519.0 L670.3 519.0 L670.5 519.0 L670.7 519.0 L670.9 519.0 L670.9 518.8 L670.9 518.6 L671.1 518.6 L671.4 518.6 L671.4 518.4 L671.4 518.1 L671.1 518.1 L670.9 518.1 L670.7 518.1 L670.7 518.4 L670.5 518.4 L670.3 518.4 L670.1 518.4 L670.1 518.6 Z" fill="#2f8f83" fill-opacity="0.34" stroke="#0e5b52" stroke-width="1.6" />
  <path d="M670.9 517.9 L670.7 517.9 L670.7 518.1 L670.9 518.1 L670.9 517.9 Z" fill="#2f8f83" fill-opacity="0.34" stroke="#0e5b52" stroke-width="1.6" />
  <path d="M328.2 146.5 L328.2 146.7 L328.4 146.7 L328.6 146.7 L328.9 146.7 L329.1 146.7 L329.3 146.7 L329.5 146.7 L329.7 146.7 L329.9 146.7 L330.1 146.7 L330.4 146.7 L330.6 146.7 L330.8 146.7 L331.0 146.7 L331.2 146.7 L331.4 146.7 L331.4 147.0 L331.6 147.0 L331.9 147.0 L332.1 147.0 L332.3 147.0 L332.5 147.0 L332.5 146.7 L332.7 146.7 L332.7 146.5 L332.7 146.2 L332.5 146.2 L332.5 145.9 L332.3 145.9 L332.3 145.7 L332.3 145.4 L332.1 145.4 L332.1 145.1 L332.1 144.9 L332.1 144.6 L332.1 144.4 L332.1 144.1 L332.1 143.8 L332.1 143.6 L331.9 143.6 L331.6 143.6 L331.4 143.6 L331.2 143.6 L331.0 143.6 L330.8 143.6 L330.6 143.6 L330.4 143.6 L330.1 143.6 L329.9 143.6 L329.7 143.6 L329.7 143.8 L329.5 143.8 L329.5 144.1 L329.3 144.1 L329.1 144.1 L328.9 144.1 L328.6 144.1 L328.4 144.1 L328.2 144.1 L328.2 144.4 L328.2 144.6 L328.2 144.9 L328.2 145.1 L328.2 145.4 L328.2 145.7 L328.2 145.9 L328.2 146.2 L328.2 146.5 Z" fill="#2f8f83" fill-opacity="0.34" stroke="#0e5b52" stroke-width="1.6" />
  <path d="M328.4 147.0 L328.4 147.3 L328.6 147.3 L328.9 147.3 L328.9 147.5 L328.9 147.8 L328.9 148.0 L328.9 148.3 L328.9 148.6 L328.9 148.8 L329.1 148.8 L329.3 148.8 L329.5 148.8 L329.7 148.8 L329.9 148.8 L330.1 148.8 L330.4 148.8 L330.6 148.8 L330.8 148.8 L331.0 148.8 L331.2 148.8 L331.4 148.8 L331.6 148.8 L331.9 148.8 L332.1 148.8 L332.3 148.8 L332.5 148.8 L332.5 148.6 L332.5 148.3 L332.7 148.3 L332.9 148.3 L332.9 148.0 L332.9 147.8 L332.9 147.5 L332.9 147.3 L332.9 147.0 L332.9 146.7 L332.7 146.7 L332.5 146.7 L332.5 147.0 L332.3 147.0 L332.1 147.0 L331.9 147.0 L331.6 147.0 L331.4 147.0 L331.4 146.7 L331.2 146.7 L331.0 146.7 L330.8 146.7 L330.6 146.7 L330.4 146.7 L330.1 146.7 L329.9 146.7 L329.7 146.7 L329.5 146.7 L329.3 146.7 L329.1 146.7 L328.9 146.7 L328.6 146.7 L328.4 146.7 L328.4 147.0 Z" fill="#2f8f83" fill-opacity="0.34" stroke="#0e5b52" stroke-width="1.6" />
  <!-- title strip -->
  <rect x="0" y="0" width="1000" height="54" fill="#173042" />
  <text x="20" y="34" font-size="21" font-weight="bold" fill="#ffffff">Tower Resources Ltd. — Mineral Claims</text>
  <text x="980" y="34" font-size="15" fill="#cfe3df" text-anchor="end">TWR</text>
  <!-- scale bar -->
  <g transform="translate(910, 596)">
    <rect x="0" y="0" width="25" height="8" fill="#173042" />
    <rect x="25" y="0" width="25" height="8" fill="#ffffff" stroke="#173042" stroke-width="1" />
    <text x="25" y="-6" font-size="12" fill="#173042" text-anchor="middle">50 km</text>
  </g>
  <!-- north arrow -->
  <g transform="translate(956, 92)">
    <circle r="17" fill="#ffffff" stroke="#b9b09a" />
    <path d="M0 -10 L5 7 L0 3 L-5 7 Z" fill="#173042" />
    <text y="14" font-size="9" font-weight="bold" fill="#173042" text-anchor="middle">N</text>
  </g>
  <!-- watermark -->
  <text x="20" y="620" font-size="13" fill="#7d8b8a">Map by Exploration Maps — explorationmaps.com</text>
</svg>